<svg xmlns="http://www.w3.org/2000/svg" viewBox="0 0 1024 1024"><path d="M512,1024C229.2,1024,0,794.8,0,512S229.2,0,512,0s512,229.2,512,512S794.8,1024,512,1024z M512,32 C246.9,32,32,246.9,32,512s214.9,480,480,480s480-214.9,480-480S777.1,32,512,32z"/><path d="M694.6,598.8c-13.3,13.1-34.8,13.1-48,0l-138.1-136L376,593.2c-12.7,12.5-33.3,12.5-46,0 c-12.7-12.5-12.7-32.8,0-45.3l151.4-149c1.2-1.2,2.9-1.8,4.3-2.8c0.5-0.5,0.6-1.2,1.2-1.8c13.2-13.1,34.8-13.1,48,0l159.6,157.2 C707.8,564.5,707.8,585.7,694.6,598.8z"/></svg>
