<svg xmlns="http://www.w3.org/2000/svg" viewBox="0 0 1024 1024"><path fill="#CAD8E6" d="M512 1024C229.2 1024 0 794.8 0 512S229.2 0 512 0s512 229.2 512 512-229.2 512-512 512zm0-992C246.9 32 32 246.9 32 512s214.9 480 480 480 480-214.9 480-480S777.1 32 512 32z"/><path fill="#B9C1CF" d="M694 477.1l-151.4 149c-1.2 1.2-2.9 1.8-4.3 2.8-.5.5-.6 1.2-1.2 1.8-13.2 13.1-34.8 13.1-48 0L329.4 473.5a33.199 33.199 0 0 1 0-47.3c13.3-13.1 34.8-13.1 48 0l138.1 135.9L648 431.9c12.7-12.5 33.3-12.5 46 0 12.7 12.5 12.7 32.7 0 45.2z"/></svg>