<svg xmlns="http://www.w3.org/2000/svg" viewBox="0 0 1024 1024"><path d="M512 1024C229.2 1024 0 794.8 0 512S229.2 0 512 0s512 229.2 512 512-229.2 512-512 512zm0-809.3c-164.2 0-297.3 133.1-297.3 297.3S347.8 809.3 512 809.3 809.3 676.2 809.3 512 676.2 214.7 512 214.7zm0 528.5c-56.2 0-107.6-20.1-147.7-53.3l325.6-325.6c33.3 40.1 53.3 91.5 53.3 147.7 0 127.7-103.5 231.2-231.2 231.2zM280.8 512c0-127.7 103.5-231.2 231.2-231.2 47.7 0 92 14.5 128.8 39.2L320 640.8c-24.8-36.8-39.2-81.1-39.2-128.8z"/></svg>