<svg xmlns="http://www.w3.org/2000/svg" viewBox="0 0 1024 1024"><path d="M896 1024H128C57.3 1024 0 966.7 0 896V128C0 57.3 57.3 0 128 0h128v64c0 35.3 28.7 64 64 64s64-28.7 64-64V0h256v64c0 35.3 28.7 64 64 64s64-28.7 64-64V0h128c70.7 0 128 57.3 128 128v768c0 70.7-57.3 128-128 128zm0-640c0-35.3-28.7-64-64-64H192c-35.3 0-64 28.7-64 64v448c0 35.3 28.7 64 64 64h640c35.3 0 64-28.7 64-64V384zM640 768h128V640H640v128zm0-192h128V448H640v128zM448 768h128V640H448v128zm0-192h128V448H448v128zM256 768h128V640H256v128zm0-192h128V448H256v128z"/></svg>