<svg xmlns="http://www.w3.org/2000/svg" viewBox="0 0 1024 1024"><path d="M984.6,433.2h-39.4v157.5h39.4c21.7,0,39.4,17.6,39.4,39.4c0,21.7-17.6,39.4-39.4,39.4h-39.4v118.2 c0,87-70.5,157.5-157.5,157.5H669.5v39.4c0,21.7-17.6,39.4-39.4,39.4c-21.7,0-39.4-17.6-39.4-39.4v-39.4H433.2v39.4 c0,21.7-17.6,39.4-39.4,39.4c-21.7,0-39.4-17.6-39.4-39.4v-39.4H236.3c-87,0-157.5-70.5-157.5-157.5V669.5H39.4 C17.6,669.5,0,651.9,0,630.2c0-21.7,17.6-39.4,39.4-39.4h39.4V433.2H39.4C17.6,433.2,0,415.6,0,393.8c0-21.7,17.6-39.4,39.4-39.4 h39.4V236.3c0-87,70.5-157.5,157.5-157.5h118.2V39.4c0-21.7,17.6-39.4,39.4-39.4c21.7,0,39.4,17.6,39.4,39.4v39.4h157.5V39.4 c0-21.7,17.6-39.4,39.4-39.4c21.7,0,39.4,17.6,39.4,39.4v39.4h118.2c87,0,157.5,70.5,157.5,157.5v118.2h39.4 c21.7,0,39.4,17.6,39.4,39.4C1024,415.6,1006.4,433.2,984.6,433.2z M866.5,236.3c0-43.5-35.2-78.8-78.8-78.8H669.5 c0,21.7-17.6,39.4-39.4,39.4c-21.7,0-39.4-17.6-39.4-39.4H433.2c0,21.7-17.6,39.4-39.4,39.4c-21.7,0-39.4-17.6-39.4-39.4H236.3 c-43.5,0-78.8,35.2-78.8,78.8v118.2c21.7,0,39.4,17.6,39.4,39.4c0,21.7-17.6,39.4-39.4,39.4v157.5c21.7,0,39.4,17.6,39.4,39.4 c0,21.7-17.6,39.4-39.4,39.4v118.2c0,43.5,35.2,78.8,78.8,78.8h118.2c0-21.7,17.6-39.4,39.4-39.4c21.7,0,39.4,17.6,39.4,39.4h157.5 c0-21.7,17.6-39.4,39.4-39.4c21.7,0,39.4,17.6,39.4,39.4h118.2c43.5,0,78.8-35.2,78.8-78.8V669.5c-21.7,0-39.4-17.6-39.4-39.4 c0-21.7,17.6-39.4,39.4-39.4V433.2c-21.7,0-39.4-17.6-39.4-39.4c0-21.7,17.6-39.4,39.4-39.4V236.3z M827.1,315.1v78.8v236.3v78.8 c0,65.3-52.9,118.2-118.2,118.2h-78.8H393.8h-78.8c-65.3,0-118.2-52.9-118.2-118.2v-78.8V393.8v-78.8c0-65.3,52.9-118.2,118.2-118.2 h78.8h236.3h78.8C774.2,196.9,827.1,249.8,827.1,315.1z"/></svg>
