<svg xmlns="http://www.w3.org/2000/svg" viewBox="0 0 1024 1024"><path fill="#BBC3D0" d="M512 0L32.1 514.6h193V1024h573.8V514.6h193L512 0zm160.2 640h-128v64.2h128v64h-128v128h-64v-128h-128v-64h128V640h-128v-64h135.7L353.3 441.4l45.3-45.3L512 509.6l113.9-113.9 45.3 45.3-113.9 113.9-21.1 21.1h136v64z"/><path fill="#95BBDB" d="M2189.7 514.6L1709.8 0 1230 514.6h193V1024h573.7V514.6z"/><path fill="#2082C4" d="M1870 640v-64h-136l21.1-21.1L1869 441l-45.3-45.3-113.8 113.9-113.5-113.5-45.3 45.3L1685.7 576H1550v64h128v64.2h-128v64h128v128h64v-128h128v-64h-128V640z"/></svg>