<svg xmlns="http://www.w3.org/2000/svg" viewBox="0 0 1024 1024"><path fill="#BBC3D0" d="M798.9 509.4V0H225.1v509.4h-193L512 1024l479.9-514.6h-193zm-126.7-67.2h-128v64.2h128v64h-128v128h-64v-128h-128v-64h128v-64.2h-128v-64h135.7L353.3 243.6l45.3-45.3L512 311.8 625.9 198l45.3 45.3-113.9 113.8-21.1 21.1h136v64z"/><path fill="#95BBDB" d="M2189.7 514.6L1709.8 0 1230 514.6h193V1024h573.7V514.6z"/><path fill="#2082C4" d="M1870 640v-64h-136l21.1-21.1L1869 441l-45.3-45.3-113.8 113.9-113.5-113.5-45.3 45.3L1685.7 576H1550v64h128v64.2h-128v64h128v128h64v-128h128v-64h-128V640z"/></svg>