<?xml version="1.0" encoding="UTF-8"?>
<svg width="16px" height="18px" viewBox="0 0 16 18" version="1.1" xmlns="http://www.w3.org/2000/svg" xmlns:xlink="http://www.w3.org/1999/xlink">
    <!-- Generator: Sketch 46.2 (44496) - http://www.bohemiancoding.com/sketch -->
    <title>Waterdrop</title>
    <desc>Created with Sketch.</desc>
    <defs></defs>
    <g id="Page-1" stroke="none" stroke-width="1" fill="none" fill-rule="evenodd">
        <g id="Waterdrop" fill="#B9C1CF">
            <path d="M11.4167828,10.2522598 C11.4627141,11.2890951 11.513638,12.3509506 10.63595,13.2606835 C9.19710067,14.7518849 7.34387079,14.2614898 6.44920808,13.3487545 C5.81415732,12.700232 5.60247374,11.9105958 5.61844986,10.8787645 C5.64041702,9.51666713 5.88405285,8.62795113 6.19359017,7.85032463 C6.47317226,7.1467578 7.29094989,5.92677492 7.29094989,5.92677492 C7.29094989,5.92677492 7.5465678,6.13694424 7.73428721,6.33110067 C7.92300512,6.52425628 8.08276632,6.74143125 8.08276632,6.74143125 C8.08276632,6.74143125 7.26299168,7.64716095 6.86358869,9.62675582 C6.70782152,10.3963759 6.56403644,11.5352934 7.02334988,12.2488683 C7.71032303,13.314727 9.46669769,13.2977133 10.0248634,12.1307732 C11.0333559,10.0260775 9.60948426,7.14075296 8.03184244,5.65155319 C6.26548271,3.98521069 4.33936177,3.72199864 4.33936177,3.72199864 L5.10721403,2.72319395 C5.10721403,2.72319395 7.04032451,2.99441246 9.13918724,5.10911617 C10.645935,6.62633853 11.3359037,8.46782212 11.4167828,10.2522598 M12.6928754,16.394208 C10.3214201,18.5589521 7.40477974,18.0985812 6.08075882,17.5111079 C4.5959782,16.8505757 2.54704084,15.2582929 2.11868113,12.3269312 C1.66535874,9.22843491 2.63690652,7.10172152 2.91948413,6.39415146 C3.20605578,5.67557254 3.88603938,4.42656627 3.88603938,4.42656627 C3.88603938,4.42656627 4.17261102,4.44858401 4.42822894,4.49862433 C4.68484536,4.54966545 5.04330955,4.65174769 5.04330955,4.65174769 C5.04330955,4.65174769 3.42972146,7.18979247 3.20605578,9.69380984 C2.98239011,12.1978272 3.4616737,14.3465583 5.53856926,15.9018113 C7.61446631,17.4570643 11.0014037,17.2018587 12.8057067,14.5987615 C14.4822008,12.1798127 13.7792515,8.98623979 13.7792515,8.98623979 C13.7792515,8.98623979 13.2200873,5.7176064 11.1831321,3.54285431 C8.97643052,1.18695627 7.34287228,0.708570862 7.34287228,0.708570862 L8.51212454,0 C8.51212454,0 11.3548753,1.29204094 13.2999679,4.73681623 C14.6259858,7.08470781 14.9335262,8.37374633 14.9934366,10.4724371 C15.041365,12.1637998 14.8796067,14.3975995 12.6928754,16.394208" id="Fill-1"></path>
        </g>
    </g>
</svg>