<?xml version="1.0" encoding="utf-8"?>
<!-- Generator: Adobe Illustrator 17.0.0, SVG Export Plug-In . SVG Version: 6.00 Build 0)  -->
<!DOCTYPE svg PUBLIC "-//W3C//DTD SVG 1.1//EN" "http://www.w3.org/Graphics/SVG/1.1/DTD/svg11.dtd">
<svg version="1.1" id="图层_1" xmlns="http://www.w3.org/2000/svg" xmlns:xlink="http://www.w3.org/1999/xlink" x="0px" y="0px"
	 width="16px" height="16px" viewBox="0 0 16 16" enable-background="new 0 0 16 16" xml:space="preserve">
<path fill="#616B77" d="M9.934,8.594c0.251,0.691,0.919,1.189,1.711,1.189c1.006,0,1.823-0.799,1.823-1.784
	s-0.816-1.784-1.823-1.784c-0.792,0-1.46,0.498-1.711,1.189H8.541C8.462,7.028,8.304,6.68,8.095,6.368l1.554-1.519
	c0.238,0.111,0.5,0.178,0.781,0.178c1.006,0,1.823-0.799,1.823-1.784S11.437,1.46,10.43,1.46S8.608,2.259,8.608,3.244
	c0,0.275,0.069,0.532,0.182,0.765L7.238,5.525C6.92,5.32,6.564,5.163,6.177,5.087V3.729C6.884,3.483,7.392,2.83,7.392,2.055
	c0-0.985-0.816-1.784-1.822-1.784S3.747,1.07,3.747,2.055c0,0.776,0.509,1.429,1.215,1.674v1.358C3.577,5.362,2.532,6.561,2.532,8
	s1.044,2.638,2.43,2.913v1.358c-0.707,0.245-1.215,0.899-1.215,1.674c0,0.985,0.816,1.784,1.822,1.784s1.823-0.799,1.823-1.784
	c0-0.776-0.509-1.429-1.215-1.674v-1.358c0.372-0.074,0.715-0.221,1.024-0.416l1.568,1.532c-0.102,0.223-0.162,0.468-0.162,0.728
	c0,0.985,0.816,1.784,1.822,1.784s1.823-0.799,1.823-1.784s-0.816-1.784-1.823-1.784c-0.266,0-0.517,0.058-0.745,0.159L8.116,9.6
	c0.199-0.303,0.349-0.64,0.425-1.004L9.934,8.594L9.934,8.594z M11.645,7.406c0.335,0,0.608,0.267,0.608,0.594
	c0,0.329-0.272,0.594-0.608,0.594c-0.335,0-0.608-0.266-0.608-0.594C11.037,7.671,11.31,7.406,11.645,7.406z M10.43,2.649
	c0.335,0,0.608,0.267,0.608,0.594c0,0.329-0.272,0.594-0.608,0.594c-0.335,0-0.608-0.267-0.608-0.594S10.095,2.649,10.43,2.649z
	 M5.57,1.459c0.335,0,0.608,0.267,0.608,0.594c0,0.328-0.271,0.595-0.608,0.595c-0.335,0-0.608-0.267-0.608-0.594
	S5.234,1.459,5.57,1.459z M5.57,14.541c-0.335,0-0.608-0.267-0.608-0.594s0.272-0.594,0.608-0.594c0.335,0,0.608,0.267,0.608,0.594
	S5.906,14.541,5.57,14.541z M5.57,9.784C4.563,9.784,3.747,8.985,3.747,8S4.563,6.216,5.57,6.216c0.395,0,0.758,0.126,1.057,0.334
	l0.425,0.415C7.264,7.258,7.392,7.613,7.392,8C7.392,8.985,6.577,9.784,5.57,9.784z M10.43,12.162c0.335,0,0.608,0.267,0.608,0.594
	c0,0.329-0.272,0.594-0.608,0.594c-0.335,0-0.608-0.267-0.608-0.594C9.823,12.428,10.095,12.162,10.43,12.162z"/>
</svg>
