<?xml version="1.0" encoding="UTF-8"?>
<svg width="19px" height="16px" viewBox="0 0 19 16" version="1.1" xmlns="http://www.w3.org/2000/svg" xmlns:xlink="http://www.w3.org/1999/xlink">
    <!-- Generator: Sketch 46.2 (44496) - http://www.bohemiancoding.com/sketch -->
    <title> Discover </title>
    <desc>Created with Sketch.</desc>
    <defs></defs>
    <g id="Page-1" stroke="none" stroke-width="1" fill="none" fill-rule="evenodd">
        <g id="-Discover-" fill-rule="nonzero" fill="#B9C1CF">
            <g id="Group-4" transform="translate(1.000000, 1.000000)">
                <path d="M6,13 L10.3121685,13 L8,9.13230277 L6,13 Z M11.3447846,13.2622257 C11.483811,13.6157385 11.2272002,14 10.8520971,14 L5.62910745,14 C5.27199027,14 5.01689425,13.6491729 5.12224889,13.3029303 L7.14280218,8.816332 C7.21144836,8.59072985 7.41697301,8.436858 7.64966073,8.436858 L8.24060228,8.436858 C8.38531447,8.436858 9.42004191,10.0453139 11.3447846,13.2622257 Z M2.42050433,9.4741557 C2.30376507,9.24706572 2.22013762,9.00807827 2.16982244,8.76337408 L1.46346095,9.13230277 C1.09806891,9.3208179 0.956373196,9.76693961 1.1452408,10.1321377 C1.33269636,10.498173 1.78736103,10.6432033 2.15592415,10.4517898 L2.8528078,10.0880756 C2.68426146,9.90647854 2.53867395,9.70072172 2.42050433,9.4741557 Z M4.08300085,10.6566184 L2.64024517,11.4096135 C1.75338789,11.8702061 0.661311991,11.5218525 0.20481796,10.6304695 C-0.258538615,9.73453728 0.091512189,8.63242025 0.980265415,8.17389715 L2.42101698,7.42139311 C2.80274817,7.22201504 3.24759551,7.54138324 3.18935503,7.97300422 C3.14302195,8.31637936 3.20058543,8.66391012 3.3596811,8.97341578 C3.52426648,9.28896187 3.77554106,9.53866928 4.08317837,9.6993785 C4.4668043,9.89978405 4.46670108,10.4563594 4.08300085,10.6566184 Z M9.4381985,7.52256256 L10.3121685,7.06778254 C10.4316218,7.00570627 10.5698233,6.99188078 10.6989233,7.02909213 C10.9785502,7.10969089 11.8440811,7.10419751 12,7.06778254 L14.6230209,5.63311058 C14.2334198,5.24060039 13.3313666,4.73118412 12.9477671,4.04808004 C12.5204465,3.2871186 12.1375823,2.25991935 12,1.65989048 L9.4381985,3 C9.19153591,3.19483748 9.35805463,3.27781276 9.27691336,3.63958747 C9.24194516,3.79549592 9.14047761,3.92755953 9,4 L7.64966073,4.82106855 L4.36130952,6.78844434 C3.62893043,7.16715133 3.34293956,8.06681415 3.71905081,8.79619759 C3.9788424,9.29806209 4.49829697,9.60026686 5.07105493,9.59446543 C5.19294216,9.59446543 9.37598755,7.55190638 9.4381985,7.52256256 Z M8.97613533,2.39152065 L12.3223286,0.610917383 C12.7804859,0.367119017 13.2764318,0.864990526 13.0410969,1.3324765 C12.9678398,1.47799953 13.0008374,2.63870886 13.5628843,3.63958747 C14.1063421,4.60736291 15.0411628,5.2005791 15.2087369,5.20446043 C15.7610409,5.21725283 15.9286096,5.97130363 15.4351648,6.22337489 L12,8 C11.6234878,8.11080635 11.0173304,8.19768435 10.6209697,8.11681953 L10.0692643,8.17389715 C8.15018575,9.16186561 7.12709763,9.68478209 7,9.74264658 C6.20499011,10.1045954 5.3526659,10.4518169 5,10.4517898 C4.04167427,10.4615419 3.22821593,10.1630532 2.77941241,9.29605464 C2.12845461,8.03367049 2.46262935,6.87305924 3.71905081,6.22337489 L7.57642968,3.91166839 L8.08021272,3.6518812 C8.23759687,3.16342388 8.52527651,2.73838368 8.97613533,2.39152065 Z M15.6831399,4.82106855 C16.0997073,4.45350691 16.0876746,3.02974639 15.4351648,2 C14.8080343,1.01030555 13.9122538,0.879801502 13.5628843,1.18913822 C13.1463076,1.55670774 13.2242809,2.73841766 13.8774264,3.76776303 C14.5047684,4.75779134 15.333506,5.13014183 15.6831399,4.82106855 Z M16.3796703,5.63311058 C15.412202,6.48834448 13.913284,5.81488298 12.9852185,4.35027332 C12.0810374,2.92530065 11.9653551,1.17209875 12.8660347,0.377378568 C13.8329447,-0.478740139 15.3331869,0.195126376 16.2613504,1.65989048 C17.1646852,3.08547166 17.2807193,4.83806345 16.3796703,5.63311058 Z" id="Page-1"></path>
            </g>
        </g>
    </g>
</svg>