<?xml version="1.0" encoding="utf-8"?>
<!-- Generator: Adobe Illustrator 17.0.0, SVG Export Plug-In . SVG Version: 6.00 Build 0)  -->
<!DOCTYPE svg PUBLIC "-//W3C//DTD SVG 1.1//EN" "http://www.w3.org/Graphics/SVG/1.1/DTD/svg11.dtd">
<svg version="1.1" id="图层_1" xmlns="http://www.w3.org/2000/svg" xmlns:xlink="http://www.w3.org/1999/xlink" x="0px" y="0px"
	 width="16px" height="16px" viewBox="0 0 16 16" enable-background="new 0 0 16 16" xml:space="preserve">
<g>
	<path fill="#616B77" d="M13.355,6.285v3.334c0.105-0.02,0.213-0.032,0.324-0.032c0.096,0,0.189,0.01,0.281,0.025V6.291
		c-0.092,0.015-0.185,0.025-0.281,0.025C13.569,6.316,13.46,6.305,13.355,6.285z"/>
	<path fill="#616B77" d="M12.064,4.113c0.062-0.196,0.16-0.377,0.284-0.535l-2.76-1.594C9.52,2.178,9.42,2.357,9.291,2.512
		L12.064,4.113z"/>
	<path fill="#616B77" d="M9.244,13.419c0.138,0.148,0.25,0.32,0.328,0.509l2.776-1.603c-0.124-0.158-0.222-0.338-0.284-0.535
		L9.244,13.419z"/>
	<path fill="#616B77" d="M3.899,11.773c-0.076,0.191-0.185,0.364-0.321,0.513l2.858,1.65c0.077-0.19,0.188-0.363,0.325-0.511
		L3.899,11.773z"/>
	<path fill="#616B77" d="M6.693,2.518c-0.13-0.154-0.231-0.332-0.3-0.526L3.65,3.575C3.775,3.734,3.873,3.914,3.935,4.11
		L6.693,2.518z"/>
	<path fill="#616B77" d="M2.639,9.485V6.285C2.536,6.305,2.429,6.316,2.32,6.316c-0.098,0-0.193-0.01-0.287-0.026v3.191
		c0.095-0.017,0.192-0.027,0.292-0.027C2.433,9.455,2.537,9.466,2.639,9.485z"/>
	<path fill="#616B77" d="M13.961,9.931c-0.091-0.019-0.185-0.029-0.281-0.029c-0.112,0-0.22,0.015-0.324,0.04
		c-0.036,0.009-0.072,0.019-0.108,0.03l-0.156-0.279l-0.98-1.749l0.979-1.736l0.157-0.278c0.035,0.012,0.071,0.021,0.108,0.03
		c0.104,0.025,0.212,0.04,0.324,0.04c0.096,0,0.19-0.01,0.281-0.029c0.626-0.13,1.098-0.686,1.098-1.35
		c0-0.76-0.618-1.379-1.379-1.379c-0.423,0-0.802,0.192-1.055,0.493l-0.277,0.539c-0.004,0.015-0.008,0.029-0.011,0.044h-0.321
		H10.08l-0.93-1.66l-0.16-0.286C8.997,2.366,9.004,2.358,9.011,2.35C9.146,2.2,9.25,2.021,9.309,1.823
		c0.038-0.125,0.058-0.258,0.058-0.395c0-0.76-0.618-1.379-1.379-1.379S6.61,0.668,6.61,1.428c0,0.14,0.021,0.276,0.06,0.403
		c0.061,0.198,0.165,0.376,0.302,0.525c0.013,0.014,0.025,0.029,0.039,0.043L6.85,2.68L5.913,4.32H3.986H3.664
		C3.661,4.304,3.656,4.289,3.652,4.273C3.6,4.072,3.504,3.889,3.374,3.735c-0.253-0.3-0.631-0.491-1.053-0.491
		c-0.76,0-1.379,0.618-1.379,1.379c0,0.662,0.469,1.216,1.092,1.348c0.093,0.02,0.188,0.03,0.287,0.03
		c0.11,0,0.216-0.014,0.318-0.039c0.042-0.01,0.083-0.022,0.124-0.036L2.92,6.205l0.953,1.682L2.915,9.562L2.756,9.84
		C2.718,9.827,2.679,9.817,2.639,9.807C2.538,9.784,2.433,9.77,2.325,9.77c-0.1,0-0.198,0.011-0.292,0.032
		c-0.62,0.134-1.087,0.687-1.087,1.347c0,0.76,0.618,1.379,1.379,1.379c0.379,0,0.723-0.154,0.972-0.402
		c0.143-0.143,0.254-0.318,0.324-0.512c0.038-0.106,0.064-0.216,0.076-0.332h0.315h1.783l1.127,1.989l0.159,0.281
		c-0.013,0.012-0.027,0.024-0.04,0.036c-0.145,0.142-0.257,0.315-0.329,0.509c-0.055,0.148-0.086,0.308-0.086,0.475
		c0,0.76,0.618,1.379,1.379,1.379s1.379-0.618,1.379-1.379c0-0.17-0.032-0.333-0.089-0.483c-0.073-0.193-0.187-0.366-0.332-0.507
		c-0.006-0.006-0.013-0.012-0.02-0.018l0.159-0.282l1.128-2.001h1.755h0.315c0,0.12,0.017,0.236,0.046,0.347
		c0.052,0.201,0.148,0.384,0.278,0.539c0.253,0.301,0.632,0.493,1.055,0.493c0.76,0,1.379-0.618,1.379-1.379
		C15.058,10.617,14.586,10.061,13.961,9.931z M12.907,4.6c0.006-0.219,0.104-0.414,0.256-0.551c0.137-0.123,0.318-0.199,0.516-0.199
		c0.426,0,0.773,0.347,0.773,0.773c0,0.327-0.205,0.607-0.492,0.72c-0.087,0.034-0.182,0.054-0.281,0.054
		c-0.116,0-0.225-0.026-0.324-0.072c-0.265-0.123-0.449-0.391-0.449-0.701C12.906,4.615,12.907,4.607,12.907,4.6z M12.014,4.925
		h0.321c0.061,0.269,0.2,0.509,0.393,0.693L12.57,5.9l-0.805,1.427l-1.346-2.402H12.014z M7.989,0.655
		c0.426,0,0.773,0.347,0.773,0.773c0,0.026-0.001,0.052-0.004,0.077C8.737,1.72,8.627,1.909,8.466,2.036
		C8.335,2.139,8.169,2.202,7.989,2.202c-0.177,0-0.34-0.06-0.47-0.161C7.356,1.916,7.244,1.728,7.221,1.514
		C7.217,1.486,7.215,1.457,7.215,1.428C7.215,1.002,7.562,0.655,7.989,0.655z M7.364,3.002l0.159-0.278
		c0.146,0.053,0.302,0.083,0.466,0.083c0.175,0,0.342-0.034,0.496-0.094l0.156,0.279L9.386,4.32H6.61L7.364,3.002z M2.639,5.326
		C2.542,5.371,2.434,5.396,2.32,5.396c-0.101,0-0.198-0.02-0.287-0.056C1.749,5.226,1.547,4.948,1.547,4.622
		c0-0.426,0.347-0.773,0.773-0.773c0.198,0,0.377,0.075,0.514,0.197c0.152,0.136,0.25,0.332,0.258,0.55
		c0,0.009,0.001,0.017,0.001,0.026C3.094,4.935,2.907,5.205,2.639,5.326z M3.439,5.892L3.279,5.611
		c0.189-0.183,0.325-0.42,0.385-0.686h0.321h1.581l-1.344,2.35L3.439,5.892z M3.083,11.302c-0.042,0.21-0.17,0.389-0.345,0.5
		c-0.12,0.076-0.261,0.12-0.413,0.12c-0.427,0-0.773-0.347-0.773-0.773c0-0.323,0.199-0.6,0.482-0.716
		c0.09-0.037,0.189-0.058,0.292-0.058c0.112,0,0.218,0.024,0.313,0.067c0.271,0.121,0.46,0.391,0.46,0.706
		C3.099,11.201,3.093,11.252,3.083,11.302z M3.951,10.676H3.619c-0.074-0.201-0.192-0.379-0.344-0.524l0.16-0.281L4.22,8.499
		l1.233,2.176H3.951z M8.006,15.345c-0.426,0-0.773-0.347-0.773-0.773c0-0.057,0.006-0.112,0.018-0.165
		c0.046-0.209,0.176-0.386,0.354-0.495c0.117-0.072,0.255-0.114,0.402-0.114c0.144,0,0.278,0.04,0.393,0.109
		c0.179,0.106,0.312,0.283,0.36,0.491c0.013,0.056,0.02,0.114,0.02,0.174C8.779,14.998,8.432,15.345,8.006,15.345z M8.578,12.979
		l-0.157,0.278c-0.131-0.042-0.271-0.064-0.415-0.064c-0.138,0-0.272,0.021-0.398,0.059L7.45,12.973l-0.959-1.692h3.044
		L8.578,12.979z M9.877,10.676H6.148L4.569,7.888l1.694-2.963h3.461l1.692,3.019L9.877,10.676z M12.443,10.676h-0.344h-1.527
		l1.192-2.113l0.807,1.44l0.158,0.282C12.612,10.396,12.515,10.529,12.443,10.676z M13.68,12.054c-0.198,0-0.379-0.076-0.516-0.199
		c-0.152-0.137-0.25-0.332-0.256-0.551c0-0.008-0.001-0.015-0.001-0.023c0,0,0,0,0,0c0-0.128,0.032-0.248,0.087-0.355
		c0.079-0.152,0.207-0.274,0.362-0.347c0.099-0.046,0.208-0.072,0.324-0.072c0.099,0,0.194,0.019,0.281,0.054
		c0.288,0.113,0.492,0.393,0.492,0.72C14.453,11.707,14.106,12.054,13.68,12.054z"/>
</g>
</svg>
