<svg xmlns="http://www.w3.org/2000/svg" xmlns:xlink="http://www.w3.org/1999/xlink" preserveAspectRatio="xMidYMid" width="15" height="15" viewBox="0 0 15 15">
  <defs>
    <style>
      .cls-1 {
        fill: #b9c1cf;
        fill-rule: evenodd;
      }
    </style>
  </defs>
  <path d="M14.930,12.607 C14.849,12.688 14.715,12.688 14.634,12.607 L12.837,10.818 C11.880,11.618 10.457,11.582 9.556,10.685 C8.606,9.739 8.606,8.204 9.556,7.258 C10.507,6.312 12.049,6.312 13.000,7.258 C13.900,8.153 13.937,9.571 13.133,10.523 L14.930,12.312 C15.012,12.393 15.012,12.526 14.930,12.607 ZM12.754,7.502 C11.939,6.691 10.617,6.691 9.802,7.502 C8.987,8.313 8.987,9.629 9.802,10.440 C10.617,11.252 11.939,11.252 12.754,10.440 C13.569,9.629 13.570,8.313 12.754,7.502 ZM2.332,2.079 C2.780,2.079 3.078,2.453 3.078,3.211 C3.078,3.969 2.780,4.361 2.332,4.361 C1.882,4.362 1.583,3.969 1.583,3.211 C1.583,2.451 1.881,2.079 2.332,2.079 ZM2.333,4.020 C2.520,4.020 2.664,3.829 2.664,3.211 C2.664,2.596 2.521,2.418 2.333,2.418 C2.142,2.418 1.999,2.596 1.999,3.211 C1.999,3.829 2.142,4.020 2.333,4.020 ZM1.697,6.980 L2.172,6.980 L2.172,5.589 L1.771,5.589 L1.771,5.318 C1.992,5.277 2.145,5.220 2.285,5.135 L2.610,5.135 L2.610,6.980 L3.025,6.980 L3.025,7.333 L1.697,7.333 L1.697,6.980 ZM1.771,8.581 L1.771,8.311 C1.992,8.269 2.145,8.213 2.285,8.127 L2.610,8.127 L2.610,9.972 L3.025,9.972 L3.025,10.325 L1.697,10.325 L1.697,9.972 L2.172,9.972 L2.172,8.581 L1.771,8.581 ZM4.091,10.367 C3.640,10.367 3.342,9.975 3.342,9.217 C3.342,8.457 3.640,8.085 4.091,8.085 C4.539,8.085 4.837,8.459 4.837,9.217 C4.837,9.975 4.539,10.367 4.091,10.367 ZM4.091,8.424 C3.900,8.424 3.757,8.602 3.757,9.217 C3.757,9.835 3.900,10.026 4.091,10.026 C4.280,10.026 4.423,9.835 4.423,9.217 C4.423,8.602 4.280,8.424 4.091,8.424 ZM4.091,4.361 C3.640,4.362 3.342,3.969 3.342,3.211 C3.342,2.451 3.640,2.079 4.091,2.079 C4.539,2.079 4.837,2.453 4.837,3.211 C4.837,3.969 4.539,4.361 4.091,4.361 ZM4.091,2.418 C3.900,2.418 3.757,2.596 3.757,3.211 C3.757,3.829 3.900,4.020 4.091,4.020 C4.280,4.020 4.423,3.829 4.423,3.211 C4.423,2.596 4.280,2.418 4.091,2.418 ZM4.091,7.375 C3.640,7.375 3.342,6.983 3.342,6.225 C3.342,5.464 3.640,5.093 4.091,5.093 C4.539,5.093 4.837,5.467 4.837,6.225 C4.837,6.983 4.539,7.375 4.091,7.375 ZM4.091,5.432 C3.900,5.432 3.757,5.610 3.757,6.225 C3.757,6.843 3.900,7.034 4.091,7.034 C4.280,7.033 4.423,6.843 4.423,6.225 C4.423,5.610 4.280,5.432 4.091,5.432 ZM5.849,10.367 C5.399,10.367 5.100,9.975 5.100,9.217 C5.100,8.457 5.399,8.085 5.849,8.085 C6.297,8.085 6.595,8.459 6.595,9.217 C6.595,9.975 6.297,10.367 5.849,10.367 ZM5.849,8.424 C5.658,8.424 5.515,8.602 5.515,9.217 C5.515,9.835 5.658,10.026 5.849,10.026 C6.038,10.026 6.181,9.835 6.181,9.217 C6.181,8.602 6.038,8.424 5.849,8.424 ZM5.288,5.589 L5.288,5.318 C5.509,5.277 5.661,5.220 5.801,5.135 L6.127,5.135 L6.127,6.980 L6.541,6.980 L6.541,7.333 L5.213,7.333 L5.213,6.980 L5.687,6.980 L5.687,5.589 L5.288,5.589 ZM5.288,2.576 L5.288,2.305 C5.509,2.263 5.661,2.207 5.802,2.121 L6.128,2.121 L6.128,3.966 L6.542,3.966 L6.542,4.319 L5.213,4.319 L5.213,3.966 L5.687,3.966 L5.687,2.576 L5.288,2.576 ZM7.046,8.581 L7.046,8.311 C7.267,8.269 7.419,8.213 7.559,8.127 L7.885,8.127 L7.885,9.972 L8.300,9.972 L8.300,10.325 L6.972,10.325 L6.972,9.972 L7.447,9.972 L7.447,8.581 L7.046,8.581 ZM7.608,4.361 C7.157,4.362 6.859,3.969 6.859,3.211 C6.859,2.451 7.157,2.079 7.608,2.079 C8.055,2.079 8.354,2.453 8.354,3.211 C8.354,3.969 8.055,4.361 7.608,4.361 ZM7.608,2.418 C7.416,2.418 7.273,2.596 7.273,3.211 C7.273,3.829 7.416,4.020 7.608,4.020 C7.796,4.020 7.939,3.829 7.939,3.211 C7.939,2.596 7.796,2.418 7.608,2.418 ZM7.608,7.375 C7.157,7.375 6.859,6.983 6.859,6.225 C6.859,5.464 7.157,5.093 7.608,5.093 C8.055,5.093 8.354,5.467 8.354,6.225 C8.354,6.983 8.055,7.375 7.608,7.375 ZM7.608,5.432 C7.416,5.432 7.273,5.610 7.273,6.225 C7.273,6.843 7.416,7.034 7.608,7.034 C7.796,7.033 7.939,6.843 7.939,6.225 C7.939,5.610 7.796,5.432 7.608,5.432 ZM11.923,3.132 L9.413,3.132 L9.413,0.634 L0.629,0.634 L0.629,14.374 L11.923,14.374 L11.923,12.501 L12.551,11.876 L12.551,14.999 L0.001,14.998 L0.001,0.010 L10.041,0.009 L12.551,2.507 L12.551,5.630 L11.923,6.255 L11.923,3.132 Z" class="cls-1"/>
</svg>
