<?xml version="1.0" encoding="UTF-8"?>
<svg width="14px" height="19px" viewBox="0 0 14 19" version="1.1" xmlns="http://www.w3.org/2000/svg" xmlns:xlink="http://www.w3.org/1999/xlink">
    <!-- Generator: Sketch 46.2 (44496) - http://www.bohemiancoding.com/sketch -->
    <title>Hyperbase </title>
    <desc>Created with Sketch.</desc>
    <defs></defs>
    <g id="Page-1" stroke="none" stroke-width="1" fill="none" fill-rule="evenodd">
        <g id="Hyperbase-" fill-rule="nonzero" fill="#B9C1CF">
            <g id="Group-5">
                <path d="M11.9052688,7.0171143 C12.2363076,6.79053115 12.6777163,7.00859718 12.725053,7.4221065 L13.5368167,14.5132658 C13.5916978,14.9926796 13.0870773,15.4646598 12.7082604,15.1940232 L9.93085654,13.0630227 C9.79543728,12.9662756 9.70952465,12.8093039 9.69775671,12.6371238 L9.78551701,8.94671072 C9.77151997,8.74191603 9.53084227,8.64231671 9.69403136,8.53062014 L11.9052688,7.0171143 Z M10.4193563,8.94671072 L10.4193563,12.622927 L13,14.5132658 L12,7.4221065 L10.4193563,8.94671072 Z M7,2 C6.99303354,1.50272355 7.2193403,1.58958604 7.56263122,1.9301464 L12.3616886,6.69103187 C12.6140211,6.94135727 12.5771081,7.37520361 12.2865592,7.57404464 L9.99690297,9.14100143 C9.79894357,9.27647758 9.87356294,9.16157805 9.69403136,9 L6.90900947,6.89051617 C6.79221288,6.78539948 6.72395795,6.63226594 6.72168825,6.47025107 L7,2 Z M7.26279568,6.21378079 L10.0467112,8.45315995 L12,7 L7.26279568,2 L7.26279568,6.21378079 Z M7.41264059,18.3792919 C7.05905053,18.5527431 6.65441381,18.2801756 6.65441381,17.8685424 L6.65441381,14.9156119 C6.65441381,14.7089339 6.76164045,14.5188596 6.93376948,14.4204149 L9.88179883,12.7343656 C10.0509659,12.6376149 10.2563734,12.6445321 10.4193563,12.7524683 L13.1890045,14.5866798 C13.5473997,14.8240286 13.5139951,15.3863135 13.1303181,15.5745236 L7.41264059,18.3792919 Z M13,15 L10.4193563,13 L7.32311782,15 L7.26279568,17.8157717 L13,15 Z M7.04999346,14.4026757 C7.22204666,14.5011453 7.32921311,14.6911755 7.32921311,14.8977949 L7.32921311,17.866667 C7.32921311,18.2804523 6.92070651,18.5529625 6.56673559,18.3753072 L0.933509079,15.5480333 C0.553299341,15.3572089 0.522474749,14.7983877 0.879133724,14.5622588 L3.60569463,12.7571171 C3.76871654,12.6491871 3.97416106,12.6423145 4.14332786,12.7391321 L7.04999346,14.4026757 Z M3.60569463,13 L1.28484977,14.927954 L6.62734748,17.8157717 L6.65441381,15 L3.60569463,13 Z M1.71169362,7.54870951 C1.42096153,7.34971999 1.38425465,6.91548777 1.6370156,6.66528921 L6.42487034,1.92597166 C6.7684204,1.58590437 7.33035952,1.84834797 7.32311782,2.34548205 L7.26279568,6.48652406 C7.26043114,6.64884706 7.19183514,6.80219756 7.07459974,6.90724746 L4.39579826,9.14100143 C4.21625351,9.30188421 4.21101726,9.25935388 4.01341429,9.12410592 L1.71169362,7.54870951 Z M3.97914306,8.45315995 L6.66395134,6.21378079 L6.72168825,2 L2,6.95307715 L3.97914306,8.45315995 Z M1.28484977,15.0763389 C0.905892259,15.3470813 0.40112324,15.0215121 0.456332942,14.5419567 L1.27843759,7.40109738 C1.32602384,6.98775984 1.76732408,6.76997166 2.09822847,6.99651849 L4.35686189,8.54284509 C4.51998378,8.65452312 4.35965015,8.91113271 4.345703,9.11586141 L4.35568048,12.622927 C4.3439475,12.795154 4.25802887,12.9521806 4.12257578,13.0489537 L1.28484977,15.0763389 Z M3.60569463,13 L3.60569463,8.54284509 L1.6370156,7.40109738 L0.933509079,15 L3.60569463,13 Z M6.99650678,17.8157717 L13,14.9695499 L12,7 L7,2 L1.98592756,7.29167115 L1,15 L6.99650678,17.8157717 Z M6.81315208,18.3793292 L0.456332942,15.5480333 C0.246792676,15.4452427 0.123752972,15.211717 0.151542342,14.9695499 L1.1137601,7.00837099 C1.1288179,6.87715162 1.18711197,6.75570434 1.27843759,6.66528921 L6.59901275,0.999596988 C6.80437826,0.796278925 7.12404907,0.796455357 7.32921311,1 L12.5607681,6.67431307 C12.6518937,6.76471942 12.7100406,6.88605026 12.725053,7.0171143 L13.8415452,14.9962001 C13.8692754,15.2382961 13.7462745,15.4717312 13.5368167,15.5745236 L7.26279568,18.3792919 C7.12024133,18.4492511 6.95571685,18.4492648 6.81315208,18.3793292 Z" id="Page-1"></path>
            </g>
        </g>
    </g>
</svg>