<?xml version="1.0" encoding="utf-8"?>
<!-- Generator: Adobe Illustrator 17.0.0, SVG Export Plug-In . SVG Version: 6.00 Build 0)  -->
<!DOCTYPE svg PUBLIC "-//W3C//DTD SVG 1.1//EN" "http://www.w3.org/Graphics/SVG/1.1/DTD/svg11.dtd">
<svg version="1.1" id="图层_1" xmlns="http://www.w3.org/2000/svg" xmlns:xlink="http://www.w3.org/1999/xlink" x="0px" y="0px"
	 width="16px" height="16px" viewBox="0 0 16 16" enable-background="new 0 0 16 16" xml:space="preserve">
<g>
	<path fill-rule="evenodd" clip-rule="evenodd" fill="#616B77" d="M9.144,12.312c-0.937,0.489-1.454,0.483-2.194,0.129
		c-0.737-0.353-6.893-2.925-6.893-2.925l0,0v1.865c0,0.161,0.224,0.33,0.641,0.53c0.842,0.403,5.515,2.288,6.25,2.643
		c0.737,0.353,1.257,0.355,2.194-0.129c0.937-0.489,5.324-2.29,6.172-2.735l0,0c0.431-0.224,0.622-0.401,0.622-0.558
		c0-0.149,0-1.841,0-1.841h-0.002C15.932,9.29,10.077,11.822,9.144,12.312L9.144,12.312z"/>
	<path fill-rule="evenodd" clip-rule="evenodd" fill="#616B77" d="M9.144,9.693c-0.937,0.489-1.454,0.483-2.194,0.129
		C6.213,9.467,0.056,6.893,0.056,6.893l0,0v1.865c0,0.161,0.224,0.33,0.641,0.53c0.842,0.405,5.515,2.29,6.25,2.645
		c0.737,0.353,1.257,0.355,2.194-0.129c0.937-0.489,5.324-2.29,6.172-2.735c0.431-0.224,0.622-0.401,0.622-0.558
		c0-0.149,0-1.841,0-1.841h-0.002C15.932,6.67,10.077,9.202,9.144,9.693L9.144,9.693z"/>
	<path fill-rule="evenodd" clip-rule="evenodd" fill="#616B77" d="M15.938,4.216c0.008-0.161-0.207-0.304-0.63-0.459
		c-0.826-0.304-5.189-2.04-6.025-2.345C8.445,1.106,8.105,1.12,7.124,1.469C6.143,1.819,1.496,3.644,0.67,3.968
		C0.253,4.13,0.05,4.283,0.062,4.446V4.444v1.835c0,0,6.152,2.592,6.893,2.945C7.692,9.578,8.212,9.58,9.15,9.095
		c0.935-0.492,6.794-3.066,6.794-3.066L15.938,4.216L15.938,4.216L15.938,4.216L15.938,4.216z M13.882,4.265l-2.413,0.951
		l-2.175-0.86l2.409-0.953L13.882,4.265L13.882,4.265z M9.426,5.169l-1.114,1.63L5.746,5.735L9.426,5.169L9.426,5.169z M7.494,2.691
		L7.138,2.033l1.11,0.433l1.045-0.344L9.009,2.8l1.066,0.401L8.699,3.342l-0.31,0.745L7.893,3.259L6.304,3.118L7.494,2.691
		L7.494,2.691z M4.753,3.614c1.086,0,1.968,0.34,1.968,0.763c0,0.419-0.882,0.763-1.968,0.763c-1.086,0-1.968-0.34-1.968-0.763
		C2.787,3.96,3.667,3.614,4.753,3.614L4.753,3.614z"/>
</g>
</svg>
