<?xml version="1.0" encoding="UTF-8"?>
<svg width="19px" height="17px" viewBox="0 0 19 17" version="1.1" xmlns="http://www.w3.org/2000/svg" xmlns:xlink="http://www.w3.org/1999/xlink">
    <!-- Generator: Sketch 46.2 (44496) - http://www.bohemiancoding.com/sketch -->
    <title>Slipsteam</title>
    <desc>Created with Sketch.</desc>
    <defs></defs>
    <g id="Page-1" stroke="none" stroke-width="1" fill="none" fill-rule="evenodd">
        <g id="Slipsteam" fill="#2481E3">
            <path d="M17.2562125,6.5150888 L14.4242139,8.3908399 L15.3231657,8.3908399 L17.3693322,7.10895981 C17.4093746,6.8746161 17.3853492,6.66530912 17.2562125,6.5150888 L17.2562125,6.5150888 Z M16.9178542,6.31980238 C16.8497821,6.3127921 16.78171,6.30878622 16.713638,6.30878622 C16.5935108,6.30878622 16.4743846,6.31980238 16.3552585,6.33482441 C16.2841833,6.34283616 16.213108,6.35285085 16.1430338,6.363867 L13.0988105,8.3908399 L13.9837475,8.3908399 L17.0439878,6.363867 C17.0059475,6.34684203 16.963903,6.33182 16.9178542,6.31980238 L16.9178542,6.31980238 Z M15.0548816,6.61323274 C14.7755859,6.69134731 14.5012955,6.77547069 14.2300082,6.86460142 L11.7053351,8.3908399 L12.6573431,8.3908399 L15.5073607,6.49405795 C15.3551996,6.5311123 15.2050406,6.57117105 15.0548816,6.61323274 L15.0548816,6.61323274 Z M10.7473207,8.1915476 C10.5911553,8.25764455 10.43499,8.32374149 10.2788246,8.3908399 L11.253857,8.3908399 L13.1588741,7.23814929 C12.339006,7.53758846 11.538158,7.85905995 10.7473207,8.1915476 L10.7473207,8.1915476 Z M9.01748911,7.87508346 C8.69714992,6.85759113 8.33076198,5.85411938 7.88529031,4.87468287 C7.80720763,4.70142876 7.72011542,4.53117906 7.63502532,4.35992789 L7.63502532,8.3908399 L9.07454952,8.3908399 C9.10358026,8.37681934 9.13361206,8.36380024 9.1626428,8.35078115 C9.11459192,8.19254907 9.0675421,8.03331553 9.01748911,7.87508346 L9.01748911,7.87508346 Z M7.3106819,3.76305248 C7.22459074,3.61383362 7.14350489,3.46261183 7.04740313,3.31739885 C6.87622188,3.06302577 6.68802261,2.81766591 6.45677776,2.60235011 C6.41373219,2.56329283 6.36067601,2.53625317 6.31562831,2.50120176 L6.31562831,8.3908399 L7.3106819,8.3908399 L7.3106819,3.76305248 Z M5.08332352,8.68126586 L2.10016488,10.7092402 C2.15121894,10.7142476 2.20327405,10.715249 2.25432811,10.715249 C2.37145213,10.715249 2.48857614,10.7052343 2.60469909,10.6902123 C2.81291956,10.6641741 3.01613473,10.6271198 3.21634672,10.5820537 L5.99829231,8.68126586 L5.08332352,8.68126586 Z M5.99128489,2.30791828 C5.75903898,2.21478168 5.52479096,2.20376552 5.28753975,2.30891975 C5.18042633,2.35498731 5.08432458,2.41407398 4.99422918,2.48017092 L4.99422918,8.3908399 L5.99128489,8.3908399 L5.99128489,2.30791828 Z M4.66988576,2.78662038 C4.42662819,3.05100815 4.22541515,3.34043263 4.04622542,3.64287622 C3.91008126,3.87621845 3.79295725,4.11657097 3.67483218,4.35692349 L3.67483218,8.3908399 L4.66988576,8.3908399 L4.66988576,2.78662038 Z M1.58161583,10.0883296 C1.57260629,10.3046468 1.63967731,10.4849112 1.82387234,10.6050875 L4.6538688,8.68126586 L3.77193499,8.68126586 L1.58161583,10.0883296 Z M3.35048875,5.07097076 C3.2794135,5.24122046 3.20233188,5.40846575 3.13626192,5.57971692 C2.94505947,6.07043664 2.67677541,6.79149419 2.48757508,7.41040192 C2.36544577,7.81299239 2.27835355,8.15749766 2.22229419,8.3908399 L3.35048875,8.3908399 L3.35048875,5.07097076 Z M2.15522318,8.68126586 L2.13920622,8.68126586 C1.94399953,9.03678729 1.7397833,9.41934838 1.64067837,9.75784484 L3.33146861,8.68126586 L2.15522318,8.68126586 Z M5.20745495,9.97616504 L7.29166176,8.68126586 L6.42974915,8.68126586 L3.91208338,10.3997864 C4.35355082,10.2715983 4.7840066,10.1283883 5.20745495,9.97616504 L5.20745495,9.97616504 Z M8.06848428,8.83248765 C8.18560829,8.78241421 8.30073018,8.73234077 8.41685314,8.68126586 L7.7331292,8.68126586 L6.33064421,9.55254373 C6.91726534,9.32120443 7.49587799,9.07985045 8.06848428,8.83248765 L8.06848428,8.83248765 Z M11.0506419,12.1243157 C11.1287245,12.2975698 11.2158167,12.466818 11.2999058,12.6360662 L11.2999058,8.68126586 L9.78329996,8.68126586 C9.82834766,8.82948324 9.8723943,8.97669916 9.91844306,9.12491654 C10.2397833,10.1414074 10.6061712,11.1458806 11.0506419,12.1243157 L11.0506419,12.1243157 Z M11.8905312,13.6815997 C12.0617124,13.9369742 12.2489106,14.1813326 12.4801555,14.3966484 C12.5222,14.4347042 12.5752562,14.4617439 12.6193028,14.4967953 L12.6193028,8.68126586 L11.6242492,8.68126586 L11.6242492,13.2329416 C11.7113414,13.383162 11.7924273,13.5353852 11.8905312,13.6815997 L11.8905312,13.6815997 Z M13.6503945,14.6910803 C13.7645154,14.6410068 13.8456012,14.5528776 13.9407019,14.4807718 L13.9407019,8.68126586 L12.9456483,8.68126586 L12.9456483,14.6910803 C13.1768932,14.7852183 13.4121423,14.7942315 13.6503945,14.6910803 L13.6503945,14.6910803 Z M14.8907078,13.3571238 C15.026852,13.1257845 15.1429749,12.8864334 15.2600989,12.6480839 L15.2600989,8.68126586 L14.2650453,8.68126586 L14.2650453,14.2153826 C14.510305,13.9509948 14.7115181,13.6605688 14.8907078,13.3571238 L14.8907078,13.3571238 Z M15.8006713,11.4202831 C16.0269108,10.8384297 16.3162172,9.95914007 16.5174302,9.29917212 C16.5925097,9.05180932 16.6515723,8.8404994 16.6956189,8.68126586 L15.5844424,8.68126586 L15.5844424,11.9350381 C15.6565187,11.7627854 15.7336003,11.5935372 15.8006713,11.4202831 L15.8006713,11.4202831 Z M17.2732305,7.4624783 L15.7766459,8.3908399 L16.8187493,8.3908399 C16.981922,8.10642275 17.1611118,7.77593804 17.2732305,7.4624783 L17.2732305,7.4624783 Z M17.9939936,6.64227534 C17.9859852,6.8105221 17.9529502,6.97476299 17.9059004,7.1380024 C17.7847721,7.56562959 17.598575,8.00928028 17.4163821,8.39184137 L17.4233895,8.39184137 C17.4233895,8.39184137 17.2732305,8.75737749 17.1551054,9.13192683 C17.0249676,9.56756576 16.8908256,10.0032047 16.7466729,10.4368407 C16.414321,11.4302978 16.0389236,12.4107357 15.5844424,13.3641341 C15.3271699,13.9039258 15.044871,14.4327013 14.6945001,14.9284284 C14.4962902,15.2078382 14.2800612,15.4732274 14.0037687,15.6935505 C13.8265811,15.8337562 13.6323755,15.9489251 13.3931221,15.9859794 L13.2749971,16 L13.2659875,16 L13.0277352,15.9589398 C12.8014957,15.8968487 12.6193028,15.7686607 12.4541279,15.6234477 C12.1948534,15.3951128 11.987634,15.1307251 11.7974326,14.8543197 C11.4650807,14.3706102 11.1937934,13.8578582 10.9455306,13.3360929 C10.4630197,12.321605 10.0746084,11.2750701 9.71923213,10.2205234 C9.56406784,9.75984778 9.43793428,9.29516624 9.30479331,8.83048471 C8.3928277,9.21605021 7.47085149,9.59260248 6.53185726,9.94612098 C5.77305382,10.2325411 5.00323872,10.505942 4.21340243,10.749299 C3.80196679,10.875484 3.38452479,10.9926559 2.95607113,11.0897984 C2.72382523,11.1418747 2.48857614,11.1879423 2.24732069,11.2169849 C2.12118714,11.2330084 1.99605465,11.2430231 1.86892003,11.2430231 C1.84189141,11.2430231 1.8148628,11.2430231 1.78783418,11.2420216 C1.58361795,11.2350113 1.39942292,11.1929497 1.25727241,11.0857925 C1.15716641,11.0086794 1.09810387,10.9165443 1.06106466,10.8173989 L1.00700742,10.5560155 L1,10.5139538 L1,10.411804 L1.00700742,10.3827614 C1.01401484,10.2155161 1.04604876,10.0502737 1.09309857,9.88803579 C1.20521729,9.47843504 1.37840066,9.05281079 1.54858085,8.68126586 L1.54357555,8.68126586 C1.54357555,8.68126586 1.74178542,8.00928028 1.78282888,7.87007611 C1.91296667,7.43343571 2.04610764,6.99779677 2.1922624,6.56516224 C2.52361324,5.5707037 2.89800966,4.59126719 3.35349193,3.63786887 C3.61076434,3.09707571 3.89306324,2.56930164 4.24443528,2.07257311 C4.44164409,1.79216184 4.65787304,1.52577113 4.93516665,1.30544799 C5.1113532,1.16524236 5.30555883,1.05007344 5.54481215,1.01301909 L5.66193617,1 L5.67094571,1 L5.90919797,1.04106022 C6.13543752,1.10315129 6.31662937,1.2313393 6.48280532,1.37655228 C6.74408197,1.60488717 6.95130138,1.87027641 7.14050171,2.14568033 C7.47285361,2.62938977 7.74414086,3.14214181 7.99240372,3.66390706 C8.47491462,4.67839498 8.86332587,5.7249299 9.21870216,6.77947657 C9.36986221,7.22913607 9.49299258,7.68380291 9.62212931,8.13846976 C10.5120716,7.77293364 11.4090213,7.4144078 12.3239901,7.07791427 C13.1028147,6.79149419 13.89165,6.5180932 14.7035096,6.27473628 C15.1259569,6.14754974 15.5524084,6.03037789 15.9928748,5.93423688 C16.2321281,5.88115903 16.4743846,5.83609294 16.7216464,5.80705034 C16.8507832,5.79202831 16.981922,5.78101215 17.1140619,5.78101215 C17.1400895,5.78101215 17.1661171,5.78101215 17.1921446,5.78201362 C17.4023672,5.7890239 17.5905665,5.83108559 17.7367212,5.93824276 C17.8398304,6.01535586 17.899894,6.10749099 17.9379343,6.2066364 L17.9939936,6.46801976 L18,6.51008145 L18,6.61323274 L17.9939936,6.64227534 Z" id="Page-1"></path>
        </g>
    </g>
</svg>