<?xml version="1.0" encoding="UTF-8"?>
<svg width="19px" height="16px" viewBox="0 0 19 16" version="1.1" xmlns="http://www.w3.org/2000/svg" xmlns:xlink="http://www.w3.org/1999/xlink">
    <!-- Generator: Sketch 46.2 (44496) - http://www.bohemiancoding.com/sketch -->
    <title>Hadoop</title>
    <desc>Created with Sketch.</desc>
    <defs></defs>
    <g id="Page-1" stroke="none" stroke-width="1" fill="none" fill-rule="evenodd">
        <g id="Hadoop" fill="#B9C1CF">
            <g transform="translate(1.000000, 1.000000)" id="Shape">
                <path d="M16.9637333,5.75179316 C16.9002667,6.3589658 16.7586,6.94045038 16.4888667,7.476397 C16.1250667,8.19799833 15.5629333,8.60550459 14.8330667,8.74562135 C14.4398,8.82151793 14.0431333,8.78999166 13.6464667,8.7969975 C13.515,8.79933278 13.5331333,8.76547123 13.4878,8.92777314 C13.4220667,9.16013344 13.3416,9.38432027 13.1988,9.57231026 C12.7749333,10.1316097 12.1028667,10.2331943 11.5588667,9.81050876 C11.4138,9.69724771 11.2857333,9.5559633 11.1474667,9.42985822 C11.0930667,9.38081735 11.0341333,9.33878232 10.9616,9.30492077 C10.9672667,9.32710592 10.9695333,9.35162636 10.9774667,9.37264387 C11.1803333,9.86538782 11.2608,10.3943286 11.3480667,10.9209341 C11.4024667,11.2490409 11.4489333,11.5794829 11.4829333,11.9110926 C11.4988,12.0617181 11.4908667,12.2216847 11.4625333,12.369975 C11.4115333,12.6361968 11.2222667,12.8031693 10.9740667,12.800834 C10.6771333,12.7984987 10.3802,12.7774812 10.0855333,12.758799 C9.84186667,12.7436197 9.5982,12.7190992 9.35566667,12.7039199 C9.3194,12.7015847 9.27293333,12.7132611 9.24573333,12.7389491 C9.027,12.9526272 8.8094,13.1663053 8.59633333,13.3881568 C8.50226667,13.4874062 8.42973333,13.6135113 8.33566667,13.7139283 C8.2008,13.857548 8.0342,13.9462886 7.84833333,13.9789825 C7.8336,13.9813178 7.82113333,13.9929942 7.80753333,14 C7.73953333,14 7.6704,14 7.6024,14 C7.57293333,13.9894912 7.54346667,13.9789825 7.514,13.970809 C7.3576,13.928774 7.22046667,13.8458716 7.1026,13.724437 C6.72066667,13.3274395 6.44753333,12.8510425 6.2628,12.3069224 C6.1608,12.0080067 6.1982,11.7557965 6.4158,11.5397832 C6.43393333,11.5211009 6.45093333,11.4977481 6.477,11.4638866 C6.19593333,11.4638866 5.92733333,11.4638866 5.64966667,11.4638866 C5.64966667,11.5724771 5.661,11.6834028 5.6474,11.7908257 C5.61906667,11.9904921 5.52726667,12.1633028 5.42526667,12.3256047 C5.3074,12.5147623 5.2666,12.7214345 5.26206667,12.9444537 C5.2598,13.0448707 5.24733333,13.147623 5.2258,13.2457048 C5.13173333,13.6648874 4.87786667,13.8155129 4.51293333,13.7758132 C3.99386667,13.7197665 3.4952,13.5504587 2.99653333,13.3974979 C2.88206667,13.3636364 2.7744,13.2924103 2.67693333,13.2165138 C2.48766667,13.0728941 2.42986667,12.8814012 2.4922,12.6361968 C2.5262,12.5054212 2.57493333,12.3793161 2.61573333,12.2497081 C2.62593333,12.2205171 2.63386667,12.1901585 2.6452,12.152794 C2.5364,12.1294412 2.43326667,12.1154295 2.33353333,12.0839033 C1.59006667,11.8538782 1.0982,11.345955 0.9146,10.4970809 C0.861333333,10.2530442 0.940666667,10.0557131 1.0812,9.88173478 C1.15486667,9.79065888 1.23533333,9.70542118 1.3192,9.62718932 C1.67733333,9.28623853 1.81786667,8.86005004 1.76346667,8.34045038 C1.73966667,8.10692244 1.75213333,7.86872394 1.751,7.63286072 C1.74986667,7.42151793 1.75213333,7.20900751 1.7578,6.99649708 C1.75893333,6.92877398 1.74193333,6.90425354 1.67846667,6.90425354 C1.598,6.90425354 1.51526667,6.89841535 1.43593333,6.88090075 C1.25006667,6.841201 1.11066667,6.72210175 1.02,6.53878232 C0.981466667,6.45938282 0.956533333,6.37297748 0.923666667,6.2912427 C0.871533333,6.1616347 0.825066667,6.02735613 0.7616,5.90475396 C0.630133333,5.65020851 0.617666667,5.39566305 0.7514,5.14228524 C1.02793333,4.61567973 1.4484,4.29924937 1.97086667,4.1381151 C1.9754,4.13694746 1.98106667,4.14045038 1.99693333,4.14512093 C1.98446667,4.1941618 1.97313333,4.24203503 1.9584,4.28990826 C1.9074,4.44870726 1.89833333,4.60050042 1.96746667,4.76280234 C2.08306667,5.03369475 2.05926667,5.30925771 1.96066667,5.59883236 C1.89266667,5.51943286 1.83033333,5.4470392 1.7578,5.3618015 C1.69546667,5.57431193 1.63993333,5.76697248 1.5776,5.98065054 C1.73513333,5.93044204 1.86093333,5.85804837 1.96066667,5.74945788 C2.06493333,5.63386155 2.17373333,5.51125938 2.2474,5.37114262 C2.92513333,4.07623019 3.944,3.32076731 5.2496,3.01601334 C5.59413333,2.93427857 5.94206667,2.86071726 6.2458,2.6528774 C6.40446667,2.54428691 6.55293333,2.41117598 6.6946,2.2733945 C6.79206667,2.17764804 6.89066667,2.08890742 7.0108,2.03402836 C7.07426667,2.00483736 7.13546667,1.97331109 7.19893333,1.9441201 C7.378,1.86005004 7.52306667,1.73744787 7.64773333,1.56346956 C8.20986667,0.774145121 8.959,0.324603837 9.83733333,0.131943286 C10.081,0.0770642202 10.3303333,0.0572143453 10.5774,0.0210175146 C10.6057333,0.0163469558 10.6329333,0.0070058382 10.6612667,0 C10.761,0 10.8607333,0 10.9604667,0 C11.0114667,0.0105087573 11.0613333,0.023352794 11.1134667,0.0315262719 C11.5112667,0.0980817348 11.8705333,0.27322769 12.1924,0.531276063 C12.6344,0.886238532 13.0650667,1.2587156 13.4991333,1.6265221 C13.8663333,1.93944954 14.2165333,2.27456214 14.4919333,2.69257715 C14.5916667,2.84553795 14.7016,2.99032527 14.8081333,3.13978315 C14.8319333,3.12460384 14.8478,3.11526272 14.8625333,3.10358632 C15.0563333,2.94361968 15.2388,2.77898249 15.3804667,2.55246038 C15.6966667,2.05154295 16.2962,2.12627189 16.507,2.68323603 C16.7416,3.30208507 16.9059333,3.94428691 16.9648667,4.61451209 C16.9739333,4.72076731 16.9886667,4.82702252 17,4.93444537 C17,5.10492077 17,5.27306088 17,5.44236864 C16.9886667,5.54512093 16.9739333,5.64904087 16.9637333,5.75179316 Z M9.71493333,12.4482068 C10.064,12.4505421 10.4130667,12.4505421 10.7621333,12.4493745 C11.0216667,12.4482068 11.1599333,12.2882402 11.1531333,12.0010008 C11.152,11.9624687 11.1452,11.9251043 11.1429333,11.8877398 C11.1100667,11.5643036 11.0738,11.2396997 11.0420667,10.9174312 C11.0092,10.5729775 10.9400667,10.2402002 10.7972667,9.92844037 C10.7870667,9.90391993 10.7712,9.88173478 10.7519333,9.84670559 C10.7406,9.86655546 10.7349333,9.8735613 10.7338,9.88056714 C10.7224667,9.91326105 10.7122667,9.94595496 10.7032,9.97981651 C10.5309333,10.6336947 10.3088,11.2630525 9.95746667,11.8305254 C9.86113333,11.9869892 9.74893333,12.1306088 9.6492,12.2835696 C9.62766667,12.3174312 9.62426667,12.3746455 9.62766667,12.4190158 C9.6288,12.4318599 9.6832,12.4482068 9.71493333,12.4482068 Z M1.43706667,10.0475396 C1.2546,10.2693912 1.23193333,10.4527106 1.35433333,10.7189324 C1.53906667,11.1206005 1.8224,11.4183486 2.1862,11.6156797 C2.261,11.6565471 2.34373333,11.6822352 2.42533333,11.6974145 C2.65766667,11.7406172 2.82993333,11.5689741 2.8118,11.3109258 C2.80726667,11.2490409 2.78573333,11.1859883 2.7608,11.128774 C2.516,10.5916597 2.26893333,10.0545455 2.02073333,9.51743119 C2.01053333,9.49291076 1.9958,9.46839033 1.97993333,9.43919933 C1.95613333,9.45904921 1.938,9.4707256 1.9244,9.4882402 C1.7612,9.67389491 1.59573333,9.85721435 1.43706667,10.0475396 Z M1.90173333,6.15112594 C1.78953333,6.2410342 1.66033333,6.25271059 1.5266,6.24804003 C1.40986667,6.24453711 1.33393333,6.17798165 1.28633333,6.06822352 C1.241,5.96430359 1.27613333,5.87322769 1.33166667,5.78331943 C1.37133333,5.71793161 1.41326667,5.64437031 1.42686667,5.56730609 C1.47446667,5.2882402 1.51186667,5.00567139 1.54926667,4.72310259 C1.5538,4.68924103 1.53793333,4.65187656 1.53,4.61567973 C1.5198,4.61334445 1.5096,4.61100917 1.50166667,4.60867389 C1.3702,4.77447873 1.23873333,4.93911593 1.1084,5.10608841 C0.961066667,5.29174312 0.9486,5.51242702 0.9826,5.74011676 C1.02113333,5.99466222 1.14806667,6.20950792 1.25346667,6.43369475 C1.2988,6.52827356 1.3838,6.58315263 1.48126667,6.58198499 C1.57986667,6.58198499 1.68073333,6.57381151 1.77706667,6.54929108 C1.95046667,6.50258549 2.04226667,6.31226022 1.99013333,6.09858215 C1.95613333,6.11843203 1.9278,6.13127606 1.90173333,6.15112594 Z M16.5818,4.47089241 C16.5251333,3.93611343 16.4163333,3.41417848 16.2395333,2.91326105 C16.2100667,2.83035863 16.167,2.75095913 16.1148667,2.68206839 C16.0208,2.55829858 15.8972667,2.53961635 15.7782667,2.63302752 C15.7023333,2.69257715 15.6332,2.76847373 15.5754,2.85020851 C15.3646,3.14328607 15.1243333,3.38615513 14.7877333,3.48773978 C14.6574,3.52743953 14.5928,3.64070058 14.5962,3.79366138 C14.5996,3.89641368 14.6177333,4.00033361 14.6290667,4.10425354 C14.6902667,4.64370309 14.5973333,5.16096747 14.4545333,5.67005838 C14.4420667,5.71559633 14.4205333,5.75529608 14.4024,5.79849875 C14.4024,5.60467056 14.4148667,5.41551293 14.4262,5.22752294 C14.4420667,4.97531276 14.4579333,4.72076731 14.4749333,4.46855713 C14.4783333,4.41017515 14.4568,4.38098415 14.4058,4.40433695 C14.3060667,4.44870726 14.2029333,4.48607173 14.1145333,4.55145955 C13.9774,4.65187656 13.9162,4.81884904 13.8618,4.98465388 C13.8198667,5.10959133 13.7802,5.23452877 13.7405333,5.35829858 C13.7337333,5.3559633 13.7280667,5.35479566 13.7212667,5.35246038 C13.736,5.17497915 13.7462,4.99866555 13.7654667,4.82235196 C13.7847333,4.64136781 13.8663333,4.48607173 13.9604,4.33544621 C13.8266667,4.35179316 13.6997333,4.37514595 13.6102,4.49190992 C13.5036667,4.63319433 13.3994,4.77798165 13.2860667,4.93094245 C13.3484,4.71025855 13.4062,4.50125104 13.5580667,4.3471226 C13.8074,4.09608007 14.0998,4.15562969 14.3922,4.23152627 C14.3661333,4.06572143 14.2550667,3.95129274 14.1077333,3.93611343 C14.0329333,3.92910759 13.9558667,3.93611343 13.8799333,3.93261051 C13.8323333,3.93027523 13.787,3.92093411 13.7416667,3.91509591 C13.7938,3.87773144 13.8436667,3.86138449 13.8924,3.84036697 C14.0408667,3.77614679 14.0499333,3.73994996 13.9524667,3.59633028 C13.9037333,3.52393661 13.8606667,3.51342786 13.7904,3.56363636 C13.7507333,3.59049208 13.7156,3.62435363 13.6782,3.65471226 C13.6770667,3.61034195 13.6895333,3.57414512 13.7054,3.54028357 C13.7507333,3.44804003 13.736,3.41301084 13.6408,3.39199333 C13.6079333,3.38498749 13.5739333,3.37331109 13.5410667,3.36513761 C13.7994667,3.22618849 14.059,3.12577148 14.3468667,3.11993328 C14.1904667,2.85721435 14.0771333,2.5676397 13.8516,2.38899083 C13.6306,2.21267723 13.3812667,2.08073394 13.1444,1.93127606 C13.1534667,1.92076731 13.1704667,1.89974979 13.2010667,1.86355296 C13.1795333,1.84837364 13.1602667,1.83786489 13.1444,1.82385321 C12.8044,1.51559633 12.4632667,1.20967473 12.1232667,0.900250209 C11.594,0.418015013 10.9797333,0.307089241 10.3212667,0.395829858 C9.89626667,0.453044204 9.4894,0.587322769 9.10293333,0.793994996 C8.63033333,1.05087573 8.18833333,1.34979149 7.87893333,1.83903253 C7.8642,1.86121768 7.84946667,1.8822352 7.82453333,1.92427023 C8.09313333,1.92427023 8.34133333,1.92427023 8.59066667,1.92427023 C8.5918,1.93594662 8.59293333,1.94762302 8.59406667,1.95929942 C8.4116,1.99432861 8.23026667,2.04920767 8.04666667,2.06205171 C7.44826667,2.1029191 6.96773333,2.38432027 6.58353333,2.89224354 C6.24353333,3.34061718 5.89786667,3.78432027 5.5386,4.21401168 C5.16233333,4.6647206 4.87106667,5.17264387 4.6444,5.72844037 C4.52766667,6.01334445 4.55713333,6.28306922 4.72826667,6.53411176 C4.90053333,6.78748957 5.06826667,7.04553795 5.23826667,7.30125104 C5.25413333,7.32577148 5.2734,7.34795663 5.29833333,7.38298582 C5.559,7.03152627 5.8106,6.69057548 6.06333333,6.34962469 C6.07013333,6.35546289 6.07806667,6.36130108 6.08373333,6.36713928 C6.06786667,6.39633028 6.05313333,6.42668891 6.03726667,6.45471226 C5.7426,6.98131776 5.50913333,7.54295246 5.27566667,8.10458716 C5.21446667,8.25170976 5.2224,8.39649708 5.3006,8.53778148 C5.56353333,9.0118432 6.19933333,9.27923269 6.69913333,8.98965805 C6.82493333,8.91726439 6.94733333,8.83786489 7.07766667,8.77481234 C7.52873333,8.56113428 7.98093333,8.35095913 8.4354,8.14195163 C8.56006667,8.08473728 8.6564,7.99599666 8.70173333,7.85237698 C8.80713333,7.52310259 8.83886667,7.18215179 8.82413333,6.8353628 C8.81393333,6.58548791 8.79013333,6.33561301 8.77426667,6.08690575 C8.74366667,5.62685571 8.7074,5.16797331 8.68586667,4.70909091 C8.67793333,4.51993328 8.7006,4.32844037 8.7108,4.1381151 C8.721,4.13928274 8.73233333,4.13928274 8.7448,4.14045038 C8.75046667,4.17197665 8.7584,4.20233528 8.76406667,4.23386155 C8.82526667,4.64487073 8.8876,5.05471226 8.94993333,5.46572143 C9.01906667,5.92110092 9.09273333,6.3764804 9.10293333,6.84236864 C9.11086667,7.30825688 9.05986667,7.76130108 8.90573333,8.19799833 C8.84793333,8.36263553 8.74026667,8.44553795 8.57593333,8.43853211 C8.5204,8.43502919 8.45806667,8.43969975 8.40706667,8.46422018 C8.09426667,8.61251043 7.78146667,8.76663887 7.47093333,8.92310259 C7.20006667,9.05854879 6.936,9.20800667 6.66173333,9.33294412 C6.3954,9.45437865 6.1166,9.4765638 5.83893333,9.36447039 C5.58393333,9.26288574 5.37653333,9.08073394 5.17933333,8.87989992 C4.95493333,8.6498749 4.88353333,8.37781485 4.99913333,8.05671393 C5.08073333,7.82785655 5.04786667,7.6176814 4.93,7.41684737 C4.87673333,7.32577148 4.82233333,7.23703086 4.76793333,7.14829024 C4.6444,6.94862385 4.51633333,6.7501251 4.3962,6.54929108 C4.23073333,6.27256047 4.2092,5.98648874 4.3622,5.69341118 C4.39053333,5.63969975 4.41433333,5.58482068 4.4404,5.52994162 C4.66706667,5.06522102 4.88693333,4.59582986 5.18953333,4.18598832 C5.38786667,3.91859883 5.59753333,3.65938282 5.79926667,3.39432861 C5.81853333,3.36980817 5.814,3.32427023 5.8208,3.28807339 C5.7902,3.2822352 5.75846667,3.26588824 5.73126667,3.27406172 C5.5318,3.32777314 5.3346,3.38849041 5.13513333,3.44220183 C4.09133333,3.71893244 3.26513333,4.34478732 2.67126667,5.33844871 C2.2406,6.05771476 1.99806667,6.8470392 2.01846667,7.71809842 C2.0264,8.03569641 2.06833333,8.35679733 2.1216,8.67089241 C2.24853333,9.41234362 2.50806667,10.0977481 2.88886667,10.7247706 C3.08946667,11.0552127 3.1722,11.4148457 3.10193333,11.8048374 C3.06,12.0325271 2.992,12.2543786 2.93193333,12.4773978 C2.839,12.8195163 2.90586667,12.9783153 3.21753333,13.06005 C3.64593333,13.1721435 4.07886667,13.2655546 4.51066667,13.3636364 C4.67953333,13.4021685 4.82233333,13.2982485 4.85973333,13.1125938 C4.879,13.0191827 4.88353333,12.9222686 4.89146667,12.8276897 C4.90393333,12.6899083 4.9096,12.5521268 4.9878,12.4365304 C5.24393333,12.0547123 5.3482,11.6191827 5.34706667,11.1497915 C5.34706667,10.9489575 5.338,10.7469558 5.33346667,10.5461218 C5.33233333,10.5169308 5.338,10.4865721 5.3414,10.4573812 C5.3482,10.4562135 5.35613333,10.4538782 5.36293333,10.4527106 C5.37313333,10.4760634 5.38786667,10.4982485 5.3924,10.522769 C5.4128,10.6255213 5.43093333,10.7282736 5.44906667,10.8298582 C5.4706,10.9419516 5.5318,11.0108424 5.63266667,11.0306922 C5.6814,11.041201 5.73126667,11.0470392 5.78113333,11.0458716 C6.21973333,11.0423686 6.65833333,11.0365304 7.09693333,11.0318599 C7.30206667,11.0295246 7.39613333,10.9442869 7.44826667,10.7224354 C7.46866667,10.63603 7.5038,10.5542952 7.53213333,10.4713928 C7.53893333,10.4737281 7.5446,10.4760634 7.55253333,10.4783987 C7.55253333,10.6290242 7.55253333,10.7808173 7.55253333,10.9326105 C7.55253333,11.0820684 7.55253333,11.2326939 7.55253333,11.400834 C7.4766,11.3237698 7.40973333,11.3261051 7.33946667,11.375146 C7.1502,11.5082569 6.9598,11.6355296 6.77166667,11.7698082 C6.5824,11.9052544 6.54613333,12.0477064 6.65493333,12.2672227 C6.77053333,12.4960801 6.89293333,12.7214345 7.02213333,12.9409508 C7.11506667,13.0985822 7.2216,13.24804 7.33153333,13.3928274 C7.43806667,13.536447 7.57973333,13.6310259 7.752,13.5924937 C7.89706667,13.5609675 8.02966667,13.4780651 8.1226,13.3437865 C8.33793333,13.030859 8.6054,12.7809842 8.891,12.5567973 C9.4758,12.0990826 9.8804,11.4872394 10.1694,10.7703086 C10.3756667,10.26005 10.5150667,9.72760634 10.6238667,9.1823186 C10.6635333,8.98615513 10.6329333,8.92427023 10.4856,8.80984153 C10.2827333,8.65337781 10.0889333,8.48407006 9.89173333,8.31826522 C9.8804,8.30775646 9.87586667,8.28440367 9.86793333,8.26922435 C9.88606667,8.26688907 9.90873333,8.25754796 9.92233333,8.26572143 C9.9994,8.31125938 10.0719333,8.36263553 10.149,8.40817348 C10.2419333,8.46305254 10.3314667,8.52844037 10.4300667,8.56346956 C10.846,8.70708924 11.1826,8.97914929 11.4965333,9.30492077 C11.6189333,9.43336113 11.7617333,9.54311927 11.9056667,9.64353628 C12.0246667,9.72760634 12.1640667,9.75796497 12.3068667,9.74045038 C12.7817333,9.68323603 13.1172,9.32593828 13.1886,8.80050042 C13.1976667,8.73628023 13.2010667,8.67206005 13.2067333,8.59149291 C13.1716,8.60550459 13.1546,8.61017515 13.1398667,8.61951626 C13.0594,8.67206005 13.0276667,8.75729775 12.9993333,8.8530442 C12.8905333,9.23603003 12.7092,9.37030859 12.3522,9.33994996 C12.2955333,9.3352794 12.2377333,9.32593828 12.1799333,9.32710592 C12.1640667,9.32710592 12.1493333,9.35629691 12.1346,9.37147623 C12.1493333,9.38782319 12.1629333,9.4146789 12.1799333,9.41701418 C12.2490667,9.42869058 12.3204667,9.43336113 12.3907333,9.44036697 C12.4530667,9.44737281 12.5165333,9.45554629 12.5788667,9.46255213 C12.5743333,9.4882402 12.5675333,9.49524604 12.5573333,9.4999166 C12.3896,9.58398666 12.223,9.58748957 12.0598,9.48473728 C11.9068,9.39015847 11.8433333,9.23719766 11.8637333,9.05271059 C11.8909333,8.79582986 11.9294667,8.54011676 11.9668667,8.28323603 C11.9895333,8.12677231 12.0167333,7.97147623 12.0439333,7.80450375 C12.4326667,8.03452877 12.835,8.17581318 13.2498,8.27272727 C13.6464667,8.36497081 14.0431333,8.47122602 14.4556667,8.44320267 C14.9713333,8.4058382 15.4212667,8.20033361 15.7918667,7.79983319 C16.3800667,7.16697248 16.5716,6.34962469 16.6384667,5.48090075 C16.6645333,5.14228524 16.6169333,4.806005 16.5818,4.47089241 Z M15.1787333,3.72710592 C15.0552,3.76096747 14.9396,3.723603 14.8228667,3.66522102 C15.3419333,3.61034195 15.6660667,3.24487073 15.9426,2.80233528 C15.9494,2.80817348 15.9562,2.81401168 15.9641333,2.81868224 C15.9392,2.90158465 15.9256,2.98915763 15.8904667,3.06388657 C15.7374667,3.39549625 15.5130667,3.63369475 15.1787333,3.72710592 Z M11.2506,5.08623853 C11.3934,4.89941618 11.5350667,4.71025855 11.6892,4.5059216 C11.5985333,4.47322769 11.5248667,4.43119266 11.4489333,4.42768974 C11.4024667,4.42535446 11.3458,4.47206005 11.3072667,4.51409508 C11.2619333,4.56313595 11.2302,4.63085905 11.1871333,4.69858215 C11.1497333,4.62852377 11.1168667,4.56663887 11.0862667,4.50475396 C11.067,4.46388657 11.0432,4.45804837 11.0092,4.48140117 C10.9525333,4.52110092 10.8936,4.55846539 10.829,4.59933278 C11.1576667,3.95362802 11.5226,3.66405338 12.0122,3.68857381 C11.9589333,3.73761468 11.917,3.77614679 11.8705333,3.81934946 C11.8886667,3.83452877 11.9011333,3.84970809 11.9158667,3.85788157 C12.0394,3.92326939 12.121,4.03302752 12.1686,4.16847373 C12.1958,4.24086739 12.2286667,4.27005838 12.2966667,4.25487907 C12.3340667,4.24670559 12.3737333,4.24670559 12.4202,4.25604671 C12.036,4.53861551 11.6506667,4.82001668 11.2653333,5.10258549 C11.2608,5.09674729 11.2562667,5.09090909 11.2506,5.08623853 Z M10.9412,2.64937448 C10.6363333,2.89224354 10.4062667,3.17597998 10.3258,3.60100083 C10.1512667,3.14445371 10.5173333,2.71009174 10.9412,2.64937448 Z M12.1164667,7.41567973 C11.8796,7.54295246 11.6710667,7.68306922 11.5815333,7.97964971 C11.4976667,7.6118432 11.7152667,7.38298582 12.1164667,7.41567973 Z M7.71346667,3.35696414 C7.64773333,3.50175146 7.582,3.64653878 7.51626667,3.79366138 C7.50833333,3.79249374 7.50266667,3.79132611 7.49473333,3.79015847 C7.50606667,3.5706422 7.51626667,3.3499583 7.52646667,3.13044204 C7.5174,3.12577148 7.50606667,3.12226856 7.497,3.11876564 C7.13886667,3.52743953 7.00286667,4.07623019 6.76713333,4.56663887 C6.77393333,4.52693912 6.77506667,4.48373645 6.78753333,4.44637198 C6.9292,4.02718932 7.072,3.60683903 7.21706667,3.18765638 C7.32586667,2.88056714 7.53553333,2.73110926 7.82906667,2.71125938 C8.0886,2.69491243 8.34813333,2.67039199 8.60993333,2.65754796 C8.48413333,2.71242702 8.35833333,2.76847373 8.23253333,2.82218515 C7.99453333,2.92376981 7.8268,3.10708924 7.71346667,3.35696414 Z M7.38593333,1.05904921 C7.43353333,0.613010842 7.74633333,0.121434529 8.37533333,0.0315262719 C7.96166667,0.263886572 7.62393333,0.587322769 7.38593333,1.05904921 Z M7.29753333,0.610675563 C7.3236,0.345621351 7.52533333,0.137781485 7.8438,0.058381985 C7.60806667,0.19499583 7.429,0.367806505 7.29753333,0.610675563 Z M0.184733333,5.5824854 C0.1326,5.02085071 0.334333333,4.55379483 0.752533333,4.30742285 C0.4488,4.68807339 0.2856,5.12010008 0.191533333,5.58598832 C0.189266667,5.58482068 0.187,5.58365304 0.184733333,5.5824854 Z M0,4.88306922 C0.0124666667,4.83869892 0.0238,4.79432861 0.0374,4.75229358 C0.0782,4.62502085 0.155266667,4.5292744 0.262933333,4.46271893 C0.130333333,4.61100917 0.0714,4.80366972 0,4.9881568 C0,4.95195997 0,4.91809842 0,4.88306922 Z"></path>
            </g>
        </g>
    </g>
</svg>