<?xml version="1.0" encoding="UTF-8"?>
<svg width="15px" height="19px" viewBox="0 0 15 19" version="1.1" xmlns="http://www.w3.org/2000/svg" xmlns:xlink="http://www.w3.org/1999/xlink">
    <!-- Generator: Sketch 46.2 (44496) - http://www.bohemiancoding.com/sketch -->
    <title>Inceptor</title>
    <desc>Created with Sketch.</desc>
    <defs></defs>
    <g id="Page-1" stroke="none" stroke-width="1" fill="none" fill-rule="evenodd">
        <g id="Inceptor" fill-rule="nonzero" fill="#B9C1CF">
            <g id="Group-2">
                <path d="M7.95119692,15.1298775 C7.95118473,15.1103122 7.95118473,15.1103122 7.95146486,15.1170097 C7.9312575,15.1185444 7.92046809,15.1193639 7.95050909,15.1611599 C7.95085968,15.1494258 7.95108977,15.138962 7.95119692,15.1298775 Z M7.1906781,15.7569782 C7.21228537,16.1167458 7.2457144,16.4609499 7.25415935,16.4872653 C7.33791205,16.7451581 7.43667876,17.0039376 7.55634573,17.2807043 C7.65427067,17.069879 7.73307135,16.8873986 7.78152016,16.7557546 C7.80670523,16.6870463 7.86034658,16.2959204 7.90184832,15.8469856 C7.91523557,15.7021725 7.92689704,15.5583585 7.93558073,15.4329503 C7.7597308,15.3986127 7.57730934,15.3898171 7.38605367,15.405981 C7.31443602,15.4121198 7.24381621,15.4223881 7.1743035,15.4367128 C7.17831418,15.5343736 7.18391892,15.6444359 7.1906781,15.7569782 Z M7.09846724,18.646971 C6.73888444,17.9391749 6.49035133,17.3728612 6.30253851,16.7945354 C6.15381098,16.3312485 6.06058877,14.7790708 6.48873709,14.603538 C6.7496299,14.4985879 7.02085619,14.4336174 7.30124447,14.409584 C7.76533523,14.3703611 8.20906008,14.43202 8.6188768,14.5948619 C9.08482224,14.7663097 8.91922978,16.5575647 8.7202075,17.1005236 C8.6299154,17.3458647 8.47093214,17.6963061 8.27801546,18.0890513 C8.20591951,18.2358262 8.13345957,18.3792964 8.07400389,18.4936431 C8.03579108,18.5667102 8.03579108,18.5667102 8.00690104,18.6201726 C7.99405534,18.6434948 7.99405534,18.6434948 7.9806037,18.6666399 C7.97277906,18.6797852 7.97277906,18.6797852 7.95602855,18.7049115 C7.94341196,18.7233089 7.94341196,18.7233089 7.90273992,18.7693896 C7.86872051,18.8057742 7.86872051,18.8057742 7.69554368,18.8971771 L7.53644388,18.920513 L7.31419816,18.8644716 L7.14094359,18.716059 L7.09846724,18.646971 Z M7.14537722,1.59774888 C7.14776997,1.60220969 7.15016113,1.60667024 7.15255072,1.61113054 C7.1629392,1.62642538 7.15892246,1.61986656 7.14537722,1.59774888 Z M13.3427434,14.7518444 C13.432326,14.753574 13.526105,14.7439551 13.6263439,14.7225381 C13.626281,14.3614753 13.6260462,14.0874347 13.6254925,13.81726 C13.6094209,13.6408531 13.5893227,13.3606216 13.5823957,13.288809 C13.5667404,13.1265087 13.5497609,12.9980729 13.533661,12.922369 C13.5018166,12.7748557 13.4266503,12.5372571 13.3394208,12.2851487 C13.3295425,12.3097151 13.3192909,12.3352206 13.3086245,12.3617662 C13.2604911,12.4807303 13.2432855,12.5227666 13.2234148,12.5694987 C13.2068464,12.6081458 13.2068464,12.6081458 13.1894405,12.6455671 C13.1793268,12.6664874 13.1793268,12.6664874 13.1571711,12.7049171 C13.140203,12.7328315 13.140203,12.7328315 13.085169,12.796528 C12.9606169,12.9539205 12.9606169,12.9539205 12.3573489,12.7802095 C11.9054725,12.2794705 11.2395306,11.5352281 10.7007963,10.9286078 C10.4083468,10.5993067 10.1643777,10.3229742 9.99056323,10.1239593 C9.89642643,10.0161741 9.82315823,9.93140512 9.77199162,9.87099462 C9.73435973,9.82634445 9.73435973,9.82634445 9.70493847,9.79013132 C9.68576707,9.79347635 9.68576707,9.79347635 9.57537089,9.4569448 C9.57442551,9.39080851 9.57430068,9.39625843 9.58115545,9.14523869 C9.59058064,8.80009073 9.5893978,8.56906757 9.57002931,8.32847433 C9.56282847,8.23902626 9.55321706,8.15501776 9.54085773,8.07544762 C9.50928148,7.86858433 9.458507,7.63279373 9.38716481,7.35274194 C9.35391851,7.22223447 9.31713214,7.08542686 9.27077534,6.91843904 C9.24784758,6.83584802 9.16612964,6.54495117 9.14975788,6.48611367 C8.77036581,5.12044349 8.23792965,3.76285848 7.55294357,2.38597862 C7.11474417,3.27100753 6.73199434,4.17326272 6.40429802,5.09478852 C6.05616903,6.06974234 5.54966423,7.95416954 5.54488693,8.25906768 C5.54133614,8.53022083 5.53615216,8.82088885 5.53001634,9.0555302 C5.52610243,9.20520309 5.52192155,9.32765147 5.51741051,9.41858852 C5.51363176,9.48957703 5.51363176,9.48957703 5.50872082,9.55054026 C5.51884152,9.5866899 5.49140804,9.75152195 5.37921046,9.88032532 C5.28431348,9.98873037 4.56267405,10.7944594 4.00281513,11.4161093 C3.64726182,11.8109045 3.34462877,12.1454048 3.1217244,12.3896334 C2.99594595,12.5274445 2.89665542,12.6353056 2.82592965,12.7108543 C2.77363379,12.7664811 2.77363379,12.7664811 2.73328992,12.8081032 C2.74097739,12.8300599 2.74097739,12.8300599 2.36902331,12.9884213 L1.96903134,13.009447 L1.86122702,12.6236829 C1.83017437,12.5125649 1.79697932,12.4027504 1.76160025,12.2941734 C1.57600088,12.8545552 1.494298,13.3054075 1.50756614,13.7205293 C1.51333669,13.7589765 1.52866454,14.4324899 1.52905631,14.4473184 C1.53199345,14.5584874 1.53485532,14.6574028 1.53762497,14.7423781 C1.62499774,14.7584958 1.70721341,14.7654789 1.7866137,14.7635421 C1.82621278,14.7624618 1.92156875,14.7429421 2.02592454,14.713422 C2.02690811,14.6922346 2.02800127,14.6714361 2.02920111,14.651308 C2.03415052,14.568278 2.04077181,14.4962464 2.04987729,14.4356447 C2.05865498,14.380787 2.05865498,14.380787 2.07678,14.3105136 C2.09440822,14.221856 2.09440822,14.221856 2.30744894,14.0013955 C2.41185866,13.9368229 2.51294872,13.8728573 2.6755428,13.7689502 L2.77063648,13.7081622 C3.12050248,13.4865482 3.62551226,13.1700656 4.02836348,12.9202675 C4.25452585,12.7800297 4.4428655,12.664264 4.57907154,12.5819121 C4.65417735,12.5365022 4.71349035,12.5012116 4.7567763,12.4762568 C4.79005493,12.4572044 4.79005493,12.4572044 4.82164487,12.4401498 C4.81686977,12.4192557 4.81686977,12.4192557 5.23925783,12.4023577 C5.66543091,12.5518457 6.10881971,12.6660471 6.57135065,12.7463641 C6.937376,12.8114563 7.26226829,12.8426023 7.56989102,12.8380872 C7.78548467,12.8351407 8.01600527,12.8162847 8.30252165,12.7809246 C8.45804278,12.7616977 8.68705766,12.715983 8.98046606,12.6473871 C9.07483937,12.6251468 9.07483937,12.6251468 9.16878854,12.6024214 C9.3147784,12.5669238 9.762286,12.4544358 9.74757986,12.4580825 C9.83806804,12.435644 9.90161008,12.420508 9.95081066,12.4099395 C9.99268392,12.4011409 9.99268392,12.4011409 10.0389232,12.3935176 C10.0734694,12.3723262 10.0734694,12.3723262 10.4026159,12.4654267 C10.8928162,12.7764773 11.4872538,13.1575979 11.9476271,13.4571335 C12.2270364,13.6389274 12.4540784,13.7886614 12.6168064,13.8988102 C12.7080669,13.9605835 12.7793637,14.0100748 12.8309328,14.047648 C12.8712749,14.0773352 12.8712749,14.0773352 12.9105437,14.1088143 C12.9499614,14.1084241 12.9499614,14.1084241 13.1096807,14.5202837 C13.1088183,14.5789255 13.1084902,14.6306424 13.1085694,14.7028316 C13.2130107,14.7322417 13.3043343,14.7509695 13.3427434,14.7518444 Z M10.1826739,13.3831316 C10.1836492,13.3829558 10.1836492,13.3829558 10.1608255,13.3876377 C10.158797,13.3880734 10.156708,13.3885262 10.1545574,13.3889964 C10.1829284,13.3949116 10.1828377,13.3907128 10.1826739,13.3831316 Z M3.01972887,15.026752 C3.03954738,15.5244555 2.3292963,15.7491088 1.81244863,15.7632073 C1.50753865,15.7706487 1.21044913,15.7121695 0.865180935,15.587447 C0.512529102,15.1392919 0.512529102,15.1392919 0.554890249,15.1351351 C0.551068827,15.0849899 0.551068827,15.0849899 0.547973302,15.0263462 C0.542031311,14.9070966 0.535898311,14.7194922 0.529405151,14.4737296 C0.519389135,14.0946287 0.51346874,13.8344836 0.513463864,13.8136961 C0.485707234,13.0819675 0.643611769,12.3898794 0.982226018,11.5058553 C1.0672992,11.2841132 1.16099975,11.0690289 1.30178153,10.7642578 L1.73455965,9.82735897 L2.20157143,10.7476721 C2.33115772,11.0030403 2.44745982,11.2639838 2.55096233,11.5311271 C2.74798148,11.3142451 2.9883359,11.0482599 3.25974337,10.7468975 C3.71520042,10.2411723 4.28076399,9.61021376 4.51991986,9.34201152 C4.52351874,9.26269524 4.52702527,9.1568398 4.53035807,9.02938935 C4.53636127,8.79981951 4.54147397,8.5131483 4.54499112,8.24469007 C4.55208865,7.79155351 5.07745984,5.83693479 5.46231603,4.75912574 C5.90454347,3.51552183 6.44327843,2.30548318 7.07947815,1.12432447 C7.10331852,1.08236214 7.10331852,1.08236214 7.110929,1.06880374 L7.51141904,0.329883244 L7.96966152,1.03444665 C7.97571077,1.04223419 7.97571077,1.04223419 8.02432534,1.12085539 C8.94436864,2.83604335 9.64084544,4.51789647 10.1132129,6.21824369 C10.1290574,6.27518621 10.2108846,6.56647192 10.2343359,6.65094894 C10.2824397,6.82422983 10.3209607,6.96748828 10.3562154,7.1058798 C10.4349602,7.4149904 10.4922039,7.68082317 10.5292064,7.92324642 C10.545324,8.0269976 10.5577097,8.13525548 10.5668046,8.2482309 C10.5897888,8.53373756 10.5911211,8.79395188 10.5807828,9.1725362 C10.5796613,9.21360532 10.5787443,9.24720383 10.5779989,9.27501548 C10.6215194,9.32574891 10.6770743,9.38980995 10.7437464,9.46614851 C10.9154139,9.66270507 11.1577293,9.93716449 11.4485016,10.2645771 C11.8008918,10.6613721 12.2080339,11.1174068 12.5697368,11.5209833 C12.5906446,11.4697676 12.610669,11.4210107 12.6308929,11.3720942 C12.6548859,11.3141751 12.6548859,11.3141751 12.6790482,11.2563622 C12.7666339,11.0473162 12.8419427,10.8759484 12.9066382,10.7408994 L13.3134267,9.89174665 L13.789076,10.7043321 C13.9021579,10.897518 14.3967338,12.1813708 14.5114619,12.7128386 C14.5376438,12.8359312 14.5587601,12.9956582 14.5777758,13.1927958 C14.6033512,13.4579389 14.6226048,13.7338513 14.6048092,13.673917 L14.6254904,13.8152104 C14.6260708,14.098431 14.6263017,14.3856978 14.6263514,14.7722244 C14.6263651,14.9313684 14.6263651,14.9313684 14.6263651,15.0905255 L14.6263651,15.4334373 L14.3064734,15.5569598 C13.9623895,15.6898239 13.6483035,15.757938 13.321689,15.7516212 C12.8261148,15.7403359 12.1097348,15.5150496 12.1097348,15.0448552 C12.1095927,14.9583063 12.1095927,14.9583063 12.1091585,14.8702138 C12.1089589,14.8297745 12.108804,14.7943306 12.1087005,14.7625921 C12.0922247,14.7513319 12.0747333,14.7394377 12.0562591,14.7269327 C11.8995597,14.6208645 11.6770128,14.4740951 11.4022637,14.2953333 C10.9978083,14.0321798 10.4879635,13.7048551 10.0356132,13.4170164 C10.0208994,13.4206169 10.0051345,13.4245026 9.98826203,13.4286865 C10.0062941,13.4242151 9.55554014,13.5375191 9.40505583,13.5741095 C9.30736652,13.5977401 9.30736652,13.5977401 9.20811728,13.6211298 C8.88254978,13.6972442 8.62480059,13.7486947 8.42511138,13.773382 C8.10537471,13.812842 7.84087972,13.834477 7.58406214,13.8379866 C7.2076784,13.8435113 6.8209023,13.8064328 6.39826762,13.7312692 C5.95457062,13.6542267 5.52369516,13.5483462 5.12690182,13.4192926 C4.96406836,13.5177084 4.77859874,13.6317101 4.55534947,13.7701415 C4.1552046,14.0182615 3.65290202,14.3330474 3.3074779,14.5518429 C3.26088763,14.5816301 3.26088763,14.5816301 3.21403374,14.6115815 C3.14158456,14.6578807 3.08087351,14.696554 3.02628051,14.7311131 C3.0207512,14.834083 3.01842828,14.9575787 3.01972887,15.026752 Z" id="Page-1"></path>
            </g>
        </g>
        <g id="Group" transform="translate(-405.000000, 12.000000)"></g>
    </g>
</svg>