<?xml version="1.0" encoding="UTF-8"?>
<svg width="15px" height="15px" viewBox="0 0 15 15" version="1.1" xmlns="http://www.w3.org/2000/svg" xmlns:xlink="http://www.w3.org/1999/xlink">
    <!-- Generator: Sketch 46.2 (44496) - http://www.bohemiancoding.com/sketch -->
    <title>Prometheus</title>
    <desc>Created with Sketch.</desc>
    <defs></defs>
    <g id="Page-1" stroke="none" stroke-width="1" fill="none" fill-rule="evenodd">
        <g id="Prometheus" fill="#B9C1CF">
            <path d="M11.5964129,13.2346313 L3.40445393,13.2346313 C2.50386718,13.2346313 1.7662355,12.4961328 1.7662355,11.5955461 L1.7662355,7.81810908 L2.54113882,7.81810908 L4.55207361,10.0136685 C4.65695426,10.1280837 4.80170689,10.1852914 4.94559275,10.182691 C5.16055474,10.1887585 5.36598213,10.0587412 5.44745966,9.84637952 L6.7632351,5.48559808 L8.06947593,11.2115615 C8.12755034,11.4533938 8.34511268,11.6154821 8.58261101,11.6146153 C8.84004534,11.6163488 9.06800907,11.4273903 9.10614749,11.1638885 L10.3144419,7.1437525 L10.7556341,7.62741699 C10.79984,7.67682358 10.8509801,7.71496199 10.9090545,7.74269903 C10.9835978,7.78603814 11.0728764,7.81204161 11.1690892,7.81204161 L13.2346313,7.81204161 L13.2346313,11.5964129 C13.2346313,12.4969996 12.4978664,13.2346313 11.5964129,13.2346313 M3.40445393,1.76536872 L11.5972796,1.76536872 C12.4978664,1.76536872 13.2354981,2.5030004 13.2354981,3.40358714 L13.2354981,6.76236832 L11.3892519,6.76236832 L10.5224697,5.81064142 C10.4427257,5.69189225 10.3153087,5.60521403 10.1618883,5.58441125 C10.135018,5.58094413 10.1081478,5.577477 10.0804107,5.57834378 C9.9547273,5.577477 9.82644353,5.62254967 9.72589679,5.71529537 C9.62188292,5.80977464 9.56467529,5.93719163 9.55514069,6.06634218 L8.65455394,9.0567409 L7.35611415,3.36284838 C7.29803974,3.11668222 7.07614349,2.95286038 6.83344446,2.95892786 C6.62021603,2.95372716 6.41305507,3.08287772 6.33244433,3.29610615 L4.7184958,8.64068542 L3.15915455,6.93745833 C3.05514069,6.82304307 2.91212162,6.76670223 2.76910255,6.76756901 L1.7662355,6.76756901 L1.7662355,3.40358714 C1.7662355,2.50213362 2.5030004,1.76536872 3.40445393,1.76536872 M12.1442192,1 L2.85751434,1 C1.83644486,1 1,1.83557808 1,2.85751434 L1,12.1424857 C1,13.1635551 1.83557808,14 2.85751434,14 L12.1433524,14 C13.1644219,14 14,13.1644219 14,12.1424857 L14,2.85664755 C14,1.83557808 13.1644219,1 12.1442192,1" id="Page-1"></path>
        </g>
    </g>
</svg>