<?xml version="1.0" encoding="utf-8"?>
<!-- Generator: Adobe Illustrator 17.0.0, SVG Export Plug-In . SVG Version: 6.00 Build 0)  -->
<!DOCTYPE svg PUBLIC "-//W3C//DTD SVG 1.1//EN" "http://www.w3.org/Graphics/SVG/1.1/DTD/svg11.dtd">
<svg version="1.1" id="图层_1" xmlns="http://www.w3.org/2000/svg" xmlns:xlink="http://www.w3.org/1999/xlink" x="0px" y="0px"
	 width="16px" height="16px" viewBox="0 0 16 16" enable-background="new 0 0 16 16" xml:space="preserve">
<g>
	<path fill="#616B77" d="M16.015,6.694c-0.011,0.087-0.024,0.175-0.034,0.262c-0.06,0.515-0.193,1.008-0.447,1.462
		c-0.342,0.612-0.872,0.958-1.558,1.077c-0.371,0.064-0.744,0.037-1.117,0.043c-0.124,0.002-0.107-0.026-0.15,0.111
		c-0.062,0.197-0.137,0.387-0.272,0.547c-0.399,0.474-1.031,0.56-1.543,0.202c-0.137-0.096-0.257-0.216-0.387-0.323
		c-0.051-0.042-0.107-0.077-0.175-0.106c0.005,0.019,0.007,0.04,0.015,0.058c0.191,0.417,0.266,0.866,0.348,1.312
		c0.052,0.279,0.096,0.559,0.128,0.84c0.014,0.128,0.007,0.263-0.02,0.389c-0.048,0.226-0.226,0.368-0.46,0.366
		c-0.279-0.002-0.558-0.02-0.836-0.036c-0.229-0.013-0.458-0.034-0.687-0.047c-0.034-0.002-0.078,0.008-0.103,0.03
		c-0.206,0.181-0.411,0.362-0.611,0.551c-0.089,0.084-0.157,0.191-0.246,0.276c-0.127,0.122-0.283,0.197-0.458,0.225
		c-0.014,0.002-0.026,0.012-0.039,0.018c-0.064,0-0.129,0-0.193,0c-0.028-0.009-0.055-0.018-0.083-0.025
		c-0.147-0.036-0.276-0.106-0.387-0.209c-0.36-0.337-0.617-0.741-0.791-1.202c-0.096-0.254-0.06-0.468,0.144-0.651
		c0.018-0.016,0.033-0.035,0.058-0.064c-0.265,0-0.517,0-0.779,0c0,0.092,0.011,0.186-0.002,0.277
		c-0.026,0.169-0.113,0.316-0.209,0.454c-0.111,0.16-0.149,0.335-0.154,0.524c-0.002,0.086-0.013,0.173-0.034,0.256
		c-0.088,0.355-0.327,0.483-0.671,0.449c-0.488-0.047-0.957-0.191-1.427-0.32c-0.107-0.029-0.209-0.09-0.301-0.154
		c-0.178-0.122-0.232-0.284-0.173-0.492c0.032-0.111,0.077-0.218,0.116-0.328c0.009-0.025,0.017-0.05,0.028-0.082
		c-0.103-0.02-0.2-0.032-0.294-0.058c-0.699-0.195-1.162-0.626-1.335-1.346c-0.05-0.207,0.024-0.374,0.157-0.522
		c0.069-0.077,0.145-0.149,0.224-0.216c0.337-0.289,0.469-0.65,0.418-1.091c-0.023-0.198-0.011-0.4-0.012-0.6
		C1.662,8.372,1.664,8.192,1.669,8.011c0.002-0.057-0.015-0.078-0.074-0.078c-0.076,0-0.154-0.005-0.228-0.019
		C1.191,7.88,1.06,7.779,0.975,7.623c-0.036-0.067-0.06-0.14-0.091-0.21C0.835,7.304,0.792,7.19,0.732,7.086
		C0.608,6.87,0.596,6.654,0.722,6.439C0.983,5.993,1.378,5.724,1.87,5.588C1.874,5.587,1.879,5.59,1.895,5.594
		C1.883,5.635,1.872,5.676,1.858,5.716C1.81,5.851,1.802,5.98,1.867,6.117c0.109,0.23,0.086,0.464-0.007,0.709
		C1.796,6.759,1.738,6.698,1.669,6.625C1.611,6.805,1.558,6.969,1.5,7.15c0.148-0.042,0.266-0.104,0.36-0.196
		c0.099-0.098,0.201-0.202,0.27-0.321c0.638-1.098,1.597-1.739,2.826-1.997C5.28,4.567,5.607,4.504,5.893,4.328
		c0.15-0.092,0.29-0.205,0.423-0.322C6.408,3.925,6.5,3.85,6.613,3.803C6.673,3.778,6.731,3.752,6.79,3.727
		c0.169-0.071,0.306-0.175,0.423-0.323C7.742,2.735,8.447,2.354,9.274,2.19C9.503,2.144,9.738,2.127,9.97,2.096
		c0.027-0.004,0.052-0.012,0.079-0.018c0.094,0,0.188,0,0.282,0c0.048,0.009,0.095,0.02,0.144,0.027
		c0.374,0.057,0.712,0.205,1.015,0.424c0.416,0.301,0.822,0.617,1.23,0.929c0.346,0.265,0.675,0.549,0.934,0.904
		c0.094,0.129,0.198,0.252,0.298,0.379c0.022-0.013,0.037-0.021,0.051-0.031c0.183-0.135,0.354-0.275,0.488-0.467
		c0.297-0.425,0.862-0.361,1.06,0.111c0.221,0.525,0.376,1.069,0.431,1.638c0.009,0.09,0.022,0.18,0.033,0.271
		C16.015,6.407,16.015,6.55,16.015,6.694z M8.213,5.588C8.223,5.589,8.234,5.589,8.245,5.59c0.006,0.026,0.013,0.052,0.018,0.079
		C8.321,6.017,8.38,6.365,8.438,6.713C8.503,7.1,8.573,7.486,8.582,7.881C8.59,8.276,8.542,8.66,8.397,9.03
		c-0.055,0.14-0.156,0.21-0.31,0.204C8.034,9.231,7.976,9.235,7.928,9.256C7.633,9.382,7.339,9.513,7.046,9.645
		C6.792,9.76,6.543,9.887,6.285,9.993c-0.251,0.103-0.513,0.122-0.775,0.027C5.27,9.933,5.075,9.779,4.89,9.609
		C4.678,9.414,4.611,9.183,4.72,8.911c0.077-0.194,0.046-0.373-0.065-0.543C4.605,8.291,4.554,8.215,4.502,8.14
		C4.386,7.971,4.266,7.803,4.153,7.632C3.997,7.398,3.977,7.155,4.121,6.906C4.147,6.861,4.17,6.814,4.194,6.768
		c0.213-0.394,0.42-0.792,0.705-1.14c0.187-0.227,0.384-0.446,0.574-0.671c0.018-0.021,0.014-0.06,0.02-0.09
		C5.465,4.862,5.435,4.848,5.409,4.855C5.221,4.9,5.036,4.952,4.848,4.997c-0.982,0.235-1.76,0.766-2.319,1.608
		c-0.405,0.61-0.633,1.28-0.614,2.018c0.007,0.27,0.047,0.542,0.097,0.808c0.119,0.629,0.364,1.21,0.722,1.742
		c0.189,0.28,0.267,0.585,0.2,0.916c-0.039,0.193-0.103,0.381-0.16,0.57c-0.087,0.29-0.024,0.425,0.269,0.494
		c0.403,0.095,0.811,0.175,1.217,0.258c0.159,0.032,0.294-0.056,0.329-0.213c0.018-0.079,0.022-0.161,0.03-0.242
		c0.011-0.116,0.017-0.233,0.09-0.331c0.242-0.324,0.34-0.693,0.339-1.092c0-0.17-0.009-0.341-0.013-0.511
		c-0.001-0.025,0.004-0.051,0.007-0.076c0.007-0.001,0.014-0.003,0.021-0.004c0.009,0.02,0.023,0.039,0.027,0.06
		c0.019,0.087,0.036,0.174,0.054,0.26c0.02,0.095,0.077,0.154,0.172,0.171c0.046,0.008,0.093,0.013,0.14,0.012
		c0.413-0.003,0.826-0.008,1.239-0.011c0.193-0.002,0.281-0.075,0.33-0.263c0.019-0.073,0.052-0.142,0.079-0.213
		c0.006,0.002,0.012,0.004,0.019,0.006c0,0.128,0,0.257,0,0.385c0,0.127,0,0.255,0,0.397c-0.071-0.065-0.134-0.063-0.2-0.021
		c-0.178,0.112-0.358,0.22-0.535,0.334c-0.178,0.115-0.212,0.236-0.109,0.422c0.108,0.194,0.223,0.385,0.345,0.571
		c0.088,0.134,0.188,0.261,0.291,0.384c0.101,0.121,0.234,0.202,0.396,0.169c0.137-0.027,0.261-0.097,0.349-0.211
		c0.202-0.265,0.454-0.477,0.723-0.667c0.55-0.388,0.931-0.907,1.203-1.515c0.194-0.433,0.326-0.885,0.428-1.347
		c0.037-0.166,0.008-0.219-0.13-0.316C9.693,9.417,9.51,9.273,9.325,9.132C9.314,9.123,9.31,9.104,9.303,9.091
		C9.32,9.089,9.341,9.081,9.354,9.088C9.426,9.126,9.495,9.17,9.567,9.209C9.654,9.255,9.739,9.311,9.832,9.34
		c0.391,0.122,0.708,0.353,1.003,0.629c0.116,0.109,0.25,0.202,0.385,0.287c0.112,0.071,0.243,0.097,0.378,0.082
		c0.447-0.048,0.763-0.351,0.83-0.797c0.008-0.054,0.011-0.109,0.017-0.177c-0.033,0.012-0.049,0.016-0.063,0.024
		c-0.076,0.044-0.106,0.117-0.132,0.198c-0.103,0.325-0.273,0.439-0.609,0.413c-0.054-0.004-0.108-0.012-0.162-0.011
		c-0.015,0-0.029,0.025-0.043,0.038c0.014,0.013,0.026,0.036,0.042,0.038c0.066,0.01,0.133,0.014,0.199,0.02
		c0.059,0.006,0.118,0.013,0.177,0.019c-0.004,0.021-0.011,0.027-0.02,0.031c-0.158,0.072-0.315,0.075-0.469-0.012
		c-0.144-0.081-0.203-0.21-0.184-0.367c0.025-0.218,0.062-0.435,0.097-0.652c0.021-0.133,0.047-0.265,0.072-0.406
		c0.366,0.195,0.745,0.315,1.135,0.397c0.374,0.078,0.747,0.168,1.135,0.144c0.486-0.031,0.909-0.206,1.258-0.545
		c0.554-0.537,0.734-1.23,0.797-1.967c0.024-0.287-0.021-0.572-0.054-0.856c-0.053-0.454-0.155-0.896-0.322-1.321
		c-0.027-0.07-0.068-0.138-0.117-0.196c-0.089-0.105-0.205-0.121-0.317-0.042c-0.071,0.051-0.136,0.115-0.191,0.184
		c-0.198,0.249-0.424,0.455-0.741,0.541c-0.123,0.034-0.184,0.13-0.18,0.259c0.003,0.088,0.02,0.176,0.031,0.264
		c0.057,0.457-0.03,0.896-0.165,1.328c-0.012,0.038-0.032,0.072-0.049,0.109c0-0.165,0.012-0.325,0.023-0.485
		c0.015-0.214,0.03-0.429,0.045-0.643c0.004-0.05-0.017-0.074-0.065-0.055c-0.093,0.038-0.191,0.07-0.274,0.125
		c-0.129,0.085-0.186,0.227-0.238,0.367c-0.039,0.106-0.076,0.212-0.114,0.317c-0.006-0.002-0.012-0.003-0.018-0.005
		c0.014-0.15,0.024-0.3,0.042-0.449c0.018-0.154,0.095-0.285,0.183-0.413c-0.126,0.014-0.245,0.034-0.329,0.133
		c-0.101,0.119-0.199,0.242-0.305,0.372c0.058-0.187,0.113-0.365,0.256-0.495c0.234-0.213,0.509-0.163,0.785-0.098
		c-0.025-0.141-0.13-0.238-0.268-0.251c-0.071-0.006-0.143,0-0.215-0.003c-0.044-0.002-0.087-0.01-0.13-0.015
		c0.049-0.031,0.096-0.045,0.142-0.063c0.14-0.054,0.148-0.085,0.057-0.207c-0.046-0.061-0.087-0.07-0.153-0.028
		c-0.037,0.023-0.07,0.052-0.105,0.078c-0.001-0.038,0.01-0.069,0.025-0.097c0.043-0.079,0.029-0.108-0.061-0.126
		c-0.031-0.006-0.062-0.016-0.093-0.023c0.243-0.118,0.487-0.203,0.758-0.208c-0.147-0.223-0.254-0.468-0.466-0.62
		c-0.208-0.149-0.443-0.261-0.666-0.388c0.009-0.009,0.025-0.027,0.053-0.057c-0.02-0.013-0.038-0.022-0.053-0.034
		c-0.32-0.261-0.641-0.521-0.961-0.783c-0.498-0.409-1.076-0.503-1.696-0.428c-0.4,0.049-0.783,0.162-1.146,0.338
		C8.138,2.97,7.722,3.223,7.43,3.638C7.417,3.657,7.403,3.675,7.379,3.71c0.253,0,0.487,0,0.721,0c0.001,0.01,0.002,0.02,0.003,0.03
		C7.932,3.77,7.761,3.816,7.588,3.827C7.025,3.862,6.573,4.1,6.211,4.531c-0.32,0.38-0.645,0.757-0.983,1.121
		C4.874,6.034,4.6,6.465,4.386,6.936c-0.11,0.242-0.082,0.47,0.079,0.683c0.162,0.215,0.32,0.434,0.48,0.651
		c0.015,0.021,0.033,0.04,0.057,0.069c0.245-0.298,0.482-0.587,0.72-0.876c0.006,0.005,0.013,0.01,0.019,0.015
		c-0.015,0.025-0.029,0.05-0.044,0.074C5.42,7.999,5.2,8.475,4.98,8.951C4.923,9.076,4.93,9.199,5.004,9.319
		C5.251,9.721,5.85,9.947,6.32,9.702C6.438,9.64,6.554,9.573,6.676,9.52c0.425-0.182,0.851-0.36,1.278-0.537
		c0.118-0.049,0.208-0.124,0.251-0.246c0.099-0.279,0.129-0.568,0.115-0.862C8.31,7.663,8.288,7.451,8.273,7.24
		C8.244,6.85,8.21,6.461,8.19,6.072C8.182,5.911,8.204,5.749,8.213,5.588z M10.134,10.429c-0.01,0.016-0.015,0.022-0.017,0.028
		c-0.01,0.028-0.02,0.056-0.028,0.084c-0.163,0.555-0.372,1.089-0.702,1.57c-0.091,0.132-0.197,0.254-0.29,0.384
		c-0.021,0.029-0.024,0.077-0.021,0.115c0.001,0.011,0.053,0.025,0.082,0.025c0.329,0.002,0.657,0.002,0.986,0.001
		c0.244-0.001,0.374-0.137,0.368-0.381c-0.001-0.032-0.007-0.064-0.01-0.096c-0.031-0.274-0.065-0.549-0.094-0.823
		c-0.031-0.292-0.097-0.574-0.231-0.838C10.168,10.477,10.153,10.458,10.134,10.429z M1.878,10.083
		C1.856,10.1,1.839,10.11,1.826,10.124c-0.153,0.158-0.309,0.313-0.458,0.475c-0.172,0.188-0.193,0.343-0.078,0.569
		c0.174,0.341,0.44,0.593,0.783,0.761c0.07,0.034,0.148,0.056,0.225,0.069c0.218,0.037,0.38-0.109,0.363-0.328
		c-0.004-0.052-0.024-0.106-0.048-0.154c-0.23-0.456-0.463-0.911-0.696-1.367C1.907,10.128,1.893,10.108,1.878,10.083z M1.888,7.25
		C1.856,7.267,1.829,7.278,1.805,7.295C1.699,7.371,1.578,7.381,1.452,7.377C1.342,7.374,1.271,7.317,1.226,7.224
		c-0.043-0.088-0.01-0.165,0.042-0.241C1.306,6.927,1.345,6.865,1.358,6.8c0.045-0.237,0.08-0.477,0.115-0.716
		c0.004-0.029-0.011-0.061-0.018-0.091C1.445,5.991,1.436,5.989,1.428,5.987c-0.123,0.14-0.247,0.28-0.37,0.421
		C0.92,6.566,0.908,6.753,0.94,6.946c0.036,0.216,0.156,0.398,0.255,0.588c0.042,0.08,0.122,0.127,0.214,0.126
		C1.502,7.66,1.597,7.653,1.687,7.632C1.851,7.593,1.937,7.431,1.888,7.25z"/>
	<path fill="#616B77" d="M0.015,6.219C0.027,6.182,0.037,6.144,0.05,6.108c0.039-0.108,0.111-0.189,0.212-0.245
		c-0.124,0.126-0.18,0.289-0.247,0.445C0.015,6.278,0.015,6.249,0.015,6.219z"/>
	<path fill="#616B77" d="M7.898,2.105C7.508,2.302,7.19,2.576,6.967,2.976C7.011,2.598,7.306,2.181,7.898,2.105z"/>
	<path fill="#616B77" d="M0.189,6.812C0.14,6.336,0.33,5.94,0.723,5.731C0.437,6.054,0.284,6.42,0.195,6.815
		C0.193,6.814,0.191,6.813,0.189,6.812z"/>
	<path fill="#616B77" d="M7.397,2.128c-0.221,0.116-0.39,0.262-0.514,0.468C6.908,2.371,7.098,2.195,7.397,2.128z"/>
	<path fill="#616B77" d="M11.017,5.899c-0.086-0.027-0.155-0.063-0.226-0.066c-0.044-0.002-0.098,0.038-0.134,0.073
		c-0.043,0.042-0.072,0.099-0.113,0.157c-0.035-0.06-0.066-0.112-0.095-0.165c-0.018-0.034-0.04-0.039-0.072-0.019
		c-0.054,0.033-0.109,0.065-0.17,0.1c0.309-0.548,0.653-0.793,1.114-0.773c-0.051,0.042-0.09,0.075-0.134,0.111
		c0.017,0.013,0.029,0.026,0.043,0.033c0.116,0.055,0.193,0.148,0.238,0.263c0.025,0.062,0.056,0.086,0.12,0.074
		c0.036-0.007,0.073-0.007,0.117,0.001c-0.362,0.239-0.725,0.478-1.087,0.717c-0.005-0.004-0.009-0.009-0.014-0.013
		C10.738,6.233,10.872,6.073,11.017,5.899z"/>
	<path fill="#616B77" d="M7.071,4.723C6.734,5.07,6.606,5.535,6.384,5.951C6.39,5.917,6.391,5.881,6.403,5.849
		c0.134-0.356,0.268-0.712,0.405-1.067C6.91,4.521,7.107,4.394,7.384,4.378c0.244-0.014,0.488-0.035,0.734-0.046
		c-0.118,0.047-0.236,0.094-0.355,0.14C7.539,4.558,7.381,4.713,7.275,4.925c-0.062,0.123-0.124,0.246-0.186,0.37
		c-0.007-0.001-0.013-0.002-0.02-0.003c0.01-0.186,0.02-0.373,0.03-0.559C7.09,4.729,7.08,4.726,7.071,4.723z"/>
	<path fill="#616B77" d="M15.04,4.469c-0.023,0.07-0.036,0.144-0.069,0.208c-0.144,0.281-0.356,0.483-0.67,0.562
		c-0.116,0.029-0.225-0.003-0.335-0.052c0.488-0.047,0.793-0.357,1.054-0.732C15.026,4.46,15.033,4.465,15.04,4.469z"/>
	<path fill="#616B77" d="M9.733,5.132c-0.164-0.387,0.181-0.755,0.58-0.807C10.026,4.531,9.809,4.772,9.733,5.132z"/>
	<path fill="#616B77" d="M10.915,8.845c-0.079-0.312,0.126-0.506,0.504-0.478C11.196,8.475,11,8.594,10.915,8.845z"/>
</g>
</svg>
