<?xml version="1.0" encoding="UTF-8"?>
<svg width="16px" height="13px" viewBox="0 0 16 13" version="1.1" xmlns="http://www.w3.org/2000/svg" xmlns:xlink="http://www.w3.org/1999/xlink">
    <!-- Generator: Sketch 46.2 (44496) - http://www.bohemiancoding.com/sketch -->
    <title>Pilot </title>
    <desc>Created with Sketch.</desc>
    <defs></defs>
    <g id="Page-1" stroke="none" stroke-width="1" fill="none" fill-rule="evenodd">
        <g id="Pilot-" fill="#B9C1CF">
            <path d="M1,7 L4,7 L4,10 L1,10 L1,7 Z M2,8 L2,9 L3,9 L3,8 L2,8 Z M6,0 L9,0 L9,10 L6,10 L6,0 Z M7,1 L7,9 L8,9 L8,1 L7,1 Z M11,3 L14,3 L14,10 L11,10 L11,3 Z M12,4 L12,9 L13,9 L13,4 L12,4 Z M0,12 L16,12 L16,13 L0,13 L0,12 Z" id="Combined-Shape"></path>
        </g>
    </g>
</svg>