<?xml version="1.0" encoding="UTF-8"?>
<svg width="15px" height="17px" viewBox="0 0 15 17" version="1.1" xmlns="http://www.w3.org/2000/svg" xmlns:xlink="http://www.w3.org/1999/xlink">
    <!-- Generator: Sketch 46.2 (44496) - http://www.bohemiancoding.com/sketch -->
    <title>Midas</title>
    <desc>Created with Sketch.</desc>
    <defs></defs>
    <g id="Page-1" stroke="none" stroke-width="1" fill="none" fill-rule="evenodd">
        <g id="Midas" stroke="#B9C1CF" stroke-width="0.4" fill="#B9C1CF">
            <path d="M11.2424242,12.075499 C11.2987013,12.2614666 11.3896104,12.4307555 11.5038961,12.58003 L8.94718615,14.0919553 C8.87532468,13.9134931 8.77229437,13.7517096 8.64502165,13.6116084 L11.2424242,12.075499 Z M6.35844156,13.6174459 C6.23203463,13.7575471 6.12987013,13.9201646 6.05887446,14.0994607 L3.42683983,12.5433369 C3.55238095,12.4024017 3.65281385,12.2397843 3.72294372,12.0588203 L6.35844156,13.6174459 Z M3.75584416,4.8302663 C3.6987013,4.64596653 3.60865801,4.47584366 3.49350649,4.32573525 L6.01991342,2.83299049 C6.08311688,3.01562239 6.17575758,3.18324345 6.2961039,3.32918219 L3.75584416,4.8302663 Z M8.68831169,3.32334464 C8.80692641,3.1774059 8.8995671,3.00811697 8.96190476,2.82548507 L11.5038961,4.329071 C11.3896104,4.47751154 11.2987013,4.64846834 11.2424242,4.83360205 L8.68831169,3.32334464 Z M12.7290043,4.58508923 C12.5471861,4.58508923 12.3800866,4.65680769 12.2545455,4.77272475 C12.1142857,4.90198477 12.0242424,5.08628454 12.0181818,5.29310057 C12.0181818,5.29977206 12.017316,5.30727748 12.017316,5.31561683 C12.017316,5.60832824 12.187013,5.86101073 12.4311688,5.97692778 C12.5220779,6.02029243 12.6225108,6.04447657 12.7290043,6.04447657 C12.8207792,6.04447657 12.9082251,6.02612998 12.9878788,5.99360649 C13.2519481,5.88686273 13.4415584,5.62333908 13.4415584,5.3147829 C13.4415584,4.91282593 13.1212121,4.58508923 12.7290043,4.58508923 L12.7290043,4.58508923 Z M11.4917749,5.59915495 L11.195671,5.59915495 L9.72727273,5.59915495 L10.9670996,7.86495803 L11.7082251,6.51898593 L11.8536797,6.25296047 C11.6761905,6.07950186 11.5480519,5.85350531 11.4917749,5.59915495 L11.4917749,5.59915495 Z M9.08744589,5.59915495 L5.8995671,5.59915495 L4.33939394,8.39450714 L5.79393939,11.0247401 L9.22770563,11.0247401 L10.6450216,8.44704509 L9.08744589,5.59915495 Z M8.09004329,3.77617168 L7.94632035,3.51264802 C7.804329,3.56935565 7.65021645,3.6010452 7.48917749,3.6010452 C7.33852814,3.6010452 7.19480519,3.57352532 7.05974026,3.52348919 L6.91341991,3.78534497 L6.21904762,5.02874298 L8.77575758,5.02874298 L8.09004329,3.77617168 Z M7.48917749,1.5712459 C7.0961039,1.5712459 6.77662338,1.8989826 6.77662338,2.30093957 C6.77662338,2.32762551 6.77835498,2.35514538 6.78181818,2.38183132 C6.8034632,2.58364374 6.90649351,2.76127203 7.05627706,2.87885695 C7.17662338,2.97392561 7.32640693,3.03063324 7.48917749,3.03063324 C7.65541126,3.03063324 7.80779221,2.97142381 7.92900433,2.87385334 C8.07705628,2.75460054 8.17835498,2.57613832 8.1974026,2.37349197 C8.2,2.34930783 8.2008658,2.3251237 8.2008658,2.30093957 C8.2008658,1.8989826 7.88138528,1.5712459 7.48917749,1.5712459 L7.48917749,1.5712459 Z M3.8017316,5.59915495 L3.50649351,5.59915495 C3.45108225,5.85016957 3.32554113,6.07366431 3.15151515,6.24628899 L3.2995671,6.51148051 L4.01991342,7.81658976 L5.25800866,5.59915495 L3.8017316,5.59915495 Z M2.97922078,5.28893089 C2.97229437,5.08378273 2.88225108,4.89864902 2.74199134,4.77022294 C2.61558442,4.65513982 2.45108225,4.5842553 2.26839827,4.5842553 C1.87619048,4.5842553 1.55670996,4.91199199 1.55670996,5.31394896 C1.55670996,5.62083727 1.74285714,5.88352699 2.004329,5.99110469 C2.08658009,6.02446211 2.17575758,6.04364263 2.26839827,6.04364263 C2.37402597,6.04364263 2.47272727,6.02029243 2.56277056,5.97776172 C2.80952381,5.86351254 2.98181818,5.60916217 2.98095238,5.31394896 C2.98095238,5.30477567 2.97922078,5.29727025 2.97922078,5.28893089 L2.97922078,5.28893089 Z M3.2952381,10.2650247 L3.14805195,10.5302163 C3.28831169,10.6669817 3.3965368,10.8346028 3.46493506,11.0247401 L3.77056277,11.0247401 L3.77056277,11.0230722 L5.15411255,11.0230722 L4.01818182,8.97075666 L3.2952381,10.2650247 Z M2.56277056,10.8037472 C2.47532468,10.7628843 2.37748918,10.740368 2.27445887,10.740368 C2.17922078,10.740368 2.08831169,10.7603825 2.00519481,10.7954078 C1.74458874,10.9046534 1.56103896,11.1656752 1.56103896,11.4708956 C1.56103896,11.8728526 1.87965368,12.1997554 2.27359307,12.1997554 C2.41298701,12.1997554 2.54285714,12.1580586 2.65367965,12.0863401 C2.81471861,11.9820982 2.93246753,11.8128093 2.97142857,11.6151665 C2.98095238,11.5676322 2.98614719,11.5192639 2.98614719,11.4692278 C2.98614719,11.1723467 2.81212121,10.9179963 2.56277056,10.8037472 L2.56277056,10.8037472 Z M6.99307359,13.1913048 L7.13852814,13.4539946 C7.25454545,13.4189693 7.37748918,13.3989548 7.5047619,13.3989548 C7.63722944,13.3989548 7.76623377,13.4198032 7.88744589,13.4589982 L8.03203463,13.1971424 L8.91341991,11.5951521 L6.10995671,11.5951521 L6.99307359,13.1913048 Z M7.5047619,15.4287541 C7.8969697,15.4287541 8.21645022,15.1010174 8.21731602,14.6998944 C8.21731602,14.6431867 8.21125541,14.588147 8.1991342,14.5356091 C8.15497835,14.3396342 8.03290043,14.1720131 7.86753247,14.0719408 C7.76190476,14.0068939 7.63809524,13.9693668 7.50562771,13.9693668 C7.37056277,13.9693668 7.24329004,14.0093957 7.13593074,14.0769445 C6.97142857,14.1795185 6.85194805,14.3471396 6.80952381,14.5439484 C6.7982684,14.5939845 6.79307359,14.6456886 6.79307359,14.6998944 C6.79307359,15.1010174 7.11255411,15.4287541 7.5047619,15.4287541 L7.5047619,15.4287541 Z M11.2744589,11.0247401 L11.591342,11.0247401 C11.6571429,10.8854728 11.7463203,10.7603825 11.8545455,10.6553066 L11.7090909,10.3892811 L10.965368,9.03080002 L9.86839827,11.0247401 L11.2744589,11.0247401 Z M12.0190476,11.6168344 C12.0251082,11.8236504 12.1151515,12.0071163 12.2554113,12.1363763 C12.3809524,12.2522933 12.5480519,12.3240118 12.7298701,12.3240118 C13.1229437,12.3240118 13.4424242,11.997109 13.4424242,11.5951521 C13.4424242,11.2865959 13.2545455,11.0222383 12.9887446,10.9163285 C12.9090909,10.882971 12.821645,10.8646245 12.7298701,10.8646245 C12.6233766,10.8646245 12.5229437,10.8896425 12.4320346,10.9330072 C12.2891775,11.0013899 12.1714286,11.116473 12.0987013,11.2599099 C12.047619,11.3608161 12.0181818,11.4742314 12.0181818,11.5951521 C12.0181818,11.6026575 12.0190476,11.609329 12.0190476,11.6168344 L12.0190476,11.6168344 Z M12.9887446,6.58570078 C12.9056277,6.60404737 12.8181818,6.61322066 12.7298701,6.61322066 C12.6268398,6.61322066 12.5272727,6.59904375 12.4320346,6.57569356 C12.3974026,6.5673542 12.3645022,6.55901484 12.3324675,6.54733975 L12.1878788,6.81002947 L11.2865801,8.44704509 L12.1887446,10.0974037 L12.3324675,10.3600934 C12.365368,10.3500862 12.3991342,10.3400789 12.4320346,10.3317396 C12.5272727,10.3083894 12.6268398,10.2942125 12.7298701,10.2942125 C12.8181818,10.2942125 12.9056277,10.3033858 12.9887446,10.3217324 C13.5645022,10.4443209 13.9991342,10.9688664 13.9991342,11.5951521 C13.9991342,12.3131706 13.4294372,12.8960916 12.7290043,12.8960916 C12.3393939,12.8960916 11.9904762,12.7151276 11.7575758,12.4307555 C11.6380952,12.2848168 11.5497835,12.1121921 11.5021645,11.9220548 C11.4753247,11.8178129 11.4597403,11.7085673 11.4597403,11.5951521 L11.169697,11.5951521 L9.55324675,11.5951521 L8.51428571,13.4823484 L8.36796537,13.7483738 C8.37402597,13.7542114 8.38095238,13.7600489 8.38614719,13.7658865 C8.51948052,13.8984822 8.62510823,14.0619336 8.69177489,14.2437316 C8.74458874,14.3855006 8.77402597,14.5389448 8.77402597,14.6998944 C8.77402597,15.417079 8.20519481,16 7.5038961,16 C6.8034632,16 6.23376623,15.4162451 6.23376623,14.6998944 C6.23376623,14.5422805 6.26233766,14.3913382 6.31341991,14.251237 C6.37922078,14.0686051 6.48311688,13.9051537 6.61645022,13.7708901 C6.62857143,13.7600489 6.64155844,13.7483738 6.65281385,13.7375327 L6.50649351,13.4723411 L5.46839827,11.595986 L3.82683983,11.595986 L3.53679654,11.595986 C3.52554113,11.7052316 3.5021645,11.8094735 3.46666667,11.9095458 C3.4025974,12.0921777 3.3004329,12.2572969 3.16883117,12.3923945 C2.93939394,12.6258965 2.62251082,12.7710013 2.27359307,12.7710013 C1.57229437,12.7710013 1.0034632,12.1872463 1.0034632,11.4708956 C1.0034632,10.8479457 1.43376623,10.326736 2.004329,10.1999778 C2.09090909,10.1799633 2.18095238,10.1699561 2.27359307,10.1699561 C2.37316017,10.1699561 2.46926407,10.183299 2.56277056,10.2049814 C2.5991342,10.2141547 2.63549784,10.223328 2.67012987,10.235837 L2.81645022,9.97314727 L3.6987013,8.39367321 L2.82164502,6.80669372 L2.67705628,6.544004 C2.63896104,6.55651304 2.6008658,6.56818814 2.56277056,6.57736143 C2.46839827,6.60154556 2.37056277,6.61405459 2.26926407,6.61405459 C2.17835498,6.61405459 2.09090909,6.6048813 2.00519481,6.58570078 C1.43116883,6.46144438 1,5.93940068 1,5.3147829 C1,4.59676433 1.56969697,4.01384333 2.26926407,4.01384333 C2.65800866,4.01384333 3.00606061,4.19397343 3.23896104,4.4766776 C3.35930736,4.6217824 3.44761905,4.79440707 3.4952381,4.98454439 C3.4987013,4.99955523 3.5038961,5.01373214 3.50649351,5.02874298 L3.8025974,5.02874298 L5.57748918,5.02874298 L6.44069264,3.48179241 L6.58874459,3.21660088 C6.57575758,3.20325791 6.56450216,3.189081 6.55238095,3.17573803 C6.42683983,3.03563685 6.33073593,2.86801579 6.27445887,2.68121421 C6.23896104,2.56112748 6.21904762,2.4327014 6.21904762,2.30093957 C6.21904762,1.58375493 6.78787879,1 7.48831169,1 C8.18961039,1 8.75844156,1.58375493 8.75844156,2.30093957 C8.75844156,2.43019959 8.74025974,2.55528993 8.7047619,2.67370879 C8.65021645,2.85967643 8.55497835,3.02896536 8.43030303,3.17073442 C8.42424242,3.17823984 8.41731602,3.18574526 8.41125541,3.19074887 L8.55844156,3.46094402 L9.41471861,5.02707511 L11.1974026,5.02707511 L11.4935065,5.02707511 C11.4961039,5.0128982 11.4995671,4.99955523 11.5038961,4.98537833 L11.7584416,4.4766776 C11.991342,4.19313949 12.3402597,4.01217546 12.7298701,4.01217546 C13.4311688,4.01217546 14,4.59593039 14,5.31228109 C14,5.93940068 13.565368,6.46311225 12.9887446,6.58570078 L12.9887446,6.58570078 Z M2.56277056,6.88258186 L2.56277056,9.90059487 C2.46839827,9.88308223 2.37316017,9.87224106 2.27359307,9.87140713 C2.18095238,9.87140713 2.09177489,9.88141435 2.004329,9.89725913 L2.004329,6.88675154 C2.09090909,6.90176238 2.17835498,6.91176961 2.26839827,6.91176961 C2.36883117,6.91176961 2.46753247,6.90092845 2.56277056,6.88258186 L2.56277056,6.88258186 Z M12.4311688,10.0273531 L12.4311688,6.88258186 C12.5272727,6.90092845 12.6277056,6.91176961 12.7290043,6.91176961 C12.817316,6.91176961 12.9030303,6.90176238 12.9878788,6.88758548 L12.9878788,10.0206816 C12.9030303,10.0065047 12.817316,9.99733141 12.7290043,9.99733141 C12.6268398,9.99733141 12.5272727,10.0081726 12.4311688,10.0273531 L12.4311688,10.0273531 Z" id="Page-1"></path>
        </g>
    </g>
</svg>