<?xml version="1.0" encoding="UTF-8"?>
<svg width="16px" height="15px" viewBox="0 0 16 15" version="1.1" xmlns="http://www.w3.org/2000/svg" xmlns:xlink="http://www.w3.org/1999/xlink">
    <!-- Generator: Sketch 46.2 (44496) - http://www.bohemiancoding.com/sketch -->
    <title>Terminal </title>
    <desc>Created with Sketch.</desc>
    <defs></defs>
    <g id="Page-1" stroke="none" stroke-width="1" fill="none" fill-rule="evenodd">
        <g id="Terminal-" fill="#B9C1CF">
            <g id="Group-12" transform="translate(1.000000, 1.000000)">
                <path d="M2,1 C1.44771525,1 1,1.44771525 1,2 L1,11 C1,11.5522847 1.44771525,12 2,12 L12,12 C12.5522847,12 13,11.5522847 13,11 L13,2 C13,1.44771525 12.5522847,1 12,1 L2,1 Z M2,0 L12,0 C13.1045695,0 14,0.8954305 14,2 L14,11 C14,12.1045695 13.1045695,13 12,13 L2,13 C0.8954305,13 0,12.1045695 0,11 L0,2 C0,0.8954305 0.8954305,0 2,0 Z" id="Rectangle-8" fill-rule="nonzero"></path>
                <path d="M5,4 C4.44771525,4 4,3.55228475 4,3 C4,2.44771525 4.44771525,2 5,2 C5.55228475,2 6,2.44771525 6,3 C6,3.55228475 5.55228475,4 5,4 Z M8,4 C7.44771525,4 7,3.55228475 7,3 C7,2.44771525 7.44771525,2 8,2 C8.55228475,2 9,2.44771525 9,3 C9,3.55228475 8.55228475,4 8,4 Z M11,4 C10.4477153,4 10,3.55228475 10,3 C10,2.44771525 10.4477153,2 11,2 C11.5522847,2 12,2.44771525 12,3 C12,3.55228475 11.5522847,4 11,4 Z" id="Combined-Shape"></path>
                <path d="M2.7763932,9.5527864 L5.88196601,8 L2.7763932,6.4472136 C2.52940395,6.32371897 2.42929178,6.02338245 2.5527864,5.7763932 C2.67628103,5.52940395 2.97661755,5.42929178 3.2236068,5.5527864 L7.2236068,7.5527864 C7.59213107,7.73704854 7.59213107,8.26295146 7.2236068,8.4472136 L3.2236068,10.4472136 C2.97661755,10.5707082 2.67628103,10.470596 2.5527864,10.2236068 C2.42929178,9.97661755 2.52940395,9.67628103 2.7763932,9.5527864 Z M8.5,9 L11.5,9 C11.7761424,9 12,9.22385763 12,9.5 C12,9.77614237 11.7761424,10 11.5,10 L8.5,10 C8.22385763,10 8,9.77614237 8,9.5 C8,9.22385763 8.22385763,9 8.5,9 Z" id="Combined-Shape" fill-rule="nonzero"></path>
            </g>
        </g>
    </g>
</svg>