<?xml version="1.0" encoding="utf-8"?>
<!-- Generator: Adobe Illustrator 17.0.0, SVG Export Plug-In . SVG Version: 6.00 Build 0)  -->
<!DOCTYPE svg PUBLIC "-//W3C//DTD SVG 1.1//EN" "http://www.w3.org/Graphics/SVG/1.1/DTD/svg11.dtd">
<svg version="1.1" id="图层_1" xmlns="http://www.w3.org/2000/svg" xmlns:xlink="http://www.w3.org/1999/xlink" x="0px" y="0px"
	 width="16px" height="16px" viewBox="0 0 16 16" enable-background="new 0 0 16 16" xml:space="preserve">
<g>
	<polygon fill="#616B77" points="6.029,3.328 7.999,2.189 9.971,3.328 9.971,5.433 11.852,6.544 11.852,2.242 7.999,0.017 
		4.148,2.242 4.148,6.544 4.392,6.403 6.029,5.442 	"/>
	<polygon fill="#616B77" points="7.565,9.555 4.311,7.682 4.311,9.475 5.906,10.397 5.906,12.225 7.561,13.196 	"/>
	<polygon fill="#616B77" points="7.997,8.795 11.378,6.848 9.612,5.811 7.999,6.742 6.388,5.811 4.619,6.85 	"/>
	<polygon fill="#616B77" points="3.936,13.811 1.964,12.674 1.964,10.397 3.809,9.331 3.809,7.159 0.083,9.311 0.083,13.76 
		3.936,15.983 7.65,13.84 5.781,12.745 	"/>
	<polygon fill="#616B77" points="8.44,9.549 8.436,13.217 10.094,12.244 10.094,10.397 11.689,9.475 11.689,7.679 	"/>
	<polygon fill="#616B77" points="12.191,7.159 12.191,9.331 14.036,10.397 14.036,12.674 12.064,13.811 10.23,12.751 9.778,13.009 
		8.356,13.843 12.064,15.983 15.917,13.76 15.917,9.311 	"/>
	<polygon fill="#616B77" points="6.029,5.442 4.392,6.403 6.029,5.458 	"/>
	<polygon opacity="0.5" fill="#FFFFFF" enable-background="new    " points="6.029,5.442 4.392,6.403 6.029,5.458 	"/>
	<polygon fill="#616B77" points="8.338,13.833 8.356,13.843 9.778,13.009 	"/>
	<polygon opacity="0.5" fill="#FFFFFF" enable-background="new    " points="8.338,13.833 8.356,13.843 9.778,13.009 	"/>
</g>
</svg>
