<?xml version="1.0" encoding="UTF-8"?>
<svg width="16px" height="16px" viewBox="0 0 16 16" version="1.1" xmlns="http://www.w3.org/2000/svg" xmlns:xlink="http://www.w3.org/1999/xlink">
    <!-- Generator: Sketch 46.2 (44496) - http://www.bohemiancoding.com/sketch -->
    <title>Search</title>
    <desc>Created with Sketch.</desc>
    <defs></defs>
    <g id="Page-1" stroke="none" stroke-width="1" fill="none" fill-rule="evenodd">
        <g id="Search" fill="#B9C1CF">
            <g id="Group-6" transform="translate(1.000000, 1.000000)">
                <path d="M10.379133,12.5133982 C11.6181952,12.5133982 12.6262775,11.5055326 12.6262775,10.2671644 C12.6262775,9.02879616 11.6181952,8.01999733 10.379133,8.01999733 C9.1400708,8.01999733 8.13198851,9.02879616 8.13198851,10.2671644 C8.13198851,11.5055326 9.1400708,12.5133982 10.379133,12.5133982 L10.379133,12.5133982 Z M10.379133,7.14558059 C12.1007281,7.14558059 13.5006346,8.54539395 13.5006346,10.2671644 C13.5006346,10.9698707 13.264979,11.6165845 12.8712845,12.1391814 L13.8718856,13.1395814 C14.0420814,13.3112918 14.0420814,13.5875217 13.8718856,13.7582989 C13.7858526,13.8441541 13.6745708,13.8870817 13.5623539,13.8870817 C13.4501369,13.8870817 13.33792,13.8441541 13.2528221,13.7582989 L12.252221,12.7578989 C11.729477,13.1517131 11.0823592,13.387815 10.379133,13.387815 C8.65753791,13.387815 7.25763142,11.9880016 7.25763142,10.2671644 C7.25763142,8.54539395 8.65753791,7.14558059 10.379133,7.14558059 L10.379133,7.14558059 Z M0.437646116,9.27889615 C0.678912564,9.27889615 0.875292232,9.47487002 0.875292232,9.71657112 L0.875292232,11.1023863 C0.875292232,11.9469404 3.20285886,13.12465 6.99392158,13.12465 C7.06592746,13.12465 7.13325763,13.1218504 7.20339323,13.1209172 C7.45027052,13.4438075 7.74296974,13.7284362 8.07400975,13.9636049 C7.7149155,13.9860019 7.35395097,14 6.99392158,14 C3.60309933,14 0,12.9846687 0,11.1023863 L0,9.71657112 C0,9.47487002 0.195444526,9.27889615 0.437646116,9.27889615 L0.437646116,9.27889615 Z M0.437646116,5.58805493 C0.678912564,5.58805493 0.875292232,5.7840288 0.875292232,6.0257299 L0.875292232,7.41247834 C0.875292232,8.2262365 3.0429497,9.34795361 6.5955514,9.42727636 C6.50110213,9.70630583 6.43377196,9.9965338 6.4029123,10.2988935 C3.19724801,10.1887748 0,9.18557526 0,7.41247834 L0,6.0257299 C0,5.7840288 0.195444526,5.58805493 0.437646116,5.58805493 L0.437646116,5.58805493 Z M13.1247078,2.89668044 C13.1247078,1.94200773 10.5025716,0.874416744 6.99392158,0.874416744 C3.49181751,0.874416744 0.875292232,1.94200773 0.875292232,2.89668044 L0.875292232,3.72257032 C0.875292232,4.56712438 3.20285886,5.74576723 6.99392158,5.74576723 C10.7924654,5.74576723 13.1247078,4.56712438 13.1247078,3.72257032 L13.1247078,2.89668044 Z M6.99392158,6.62018398 C3.60309933,6.62018398 0,5.60485269 0,3.72257032 L0,2.89668044 C0,1.01533129 3.60309933,0 6.99392158,0 C10.3903547,0 14,1.01533129 14,2.89668044 L14,3.72257032 C14,5.60485269 10.3903547,6.62018398 6.99392158,6.62018398 L6.99392158,6.62018398 Z M13.0274531,7.71950407 C13.0901075,7.61405146 13.1247078,7.51139848 13.1247078,7.41247834 L13.1247078,6.0257299 C13.1247078,5.7840288 13.3210874,5.58805493 13.5623539,5.58805493 C13.8036203,5.58805493 14,5.7840288 14,6.0257299 L14,7.41247834 C14,7.77083056 13.8672099,8.09652046 13.6324895,8.39141448 C13.4566829,8.14504733 13.2537573,7.92014398 13.0274531,7.71950407 L13.0274531,7.71950407 Z" id="Page-1"></path>
            </g>
        </g>
    </g>
</svg>