<?xml version="1.0" encoding="utf-8"?>
<!-- Generator: Adobe Illustrator 17.0.0, SVG Export Plug-In . SVG Version: 6.00 Build 0)  -->
<!DOCTYPE svg PUBLIC "-//W3C//DTD SVG 1.1//EN" "http://www.w3.org/Graphics/SVG/1.1/DTD/svg11.dtd">
<svg version="1.1" id="图层_1" xmlns="http://www.w3.org/2000/svg" xmlns:xlink="http://www.w3.org/1999/xlink" x="0px" y="0px"
	 width="16px" height="16px" viewBox="0 0 16 16" enable-background="new 0 0 16 16" xml:space="preserve">
<g>
	<path fill-rule="evenodd" clip-rule="evenodd" fill="#616B77" d="M12.368,8.155c1.853,0,3.354,1.473,3.354,3.289
		c0,0.579-0.159,1.119-0.426,1.591h-1.018c0.432-0.399,0.548-0.962,0.548-1.591c0-1.211-1.223-2.456-2.458-2.456h-1.49V7.607
		c0-1.514-1.438-3.046-2.981-3.046c-1.544,0-3.057,1.533-3.057,3.046v1.381H3.425c-1.235,0-2.508,1.246-2.508,2.456
		c0,1.211,1.273,2.46,2.508,2.46h8.913v0.828H2.866v-0.049c-1.586-0.261-2.795-1.61-2.795-3.239c0-1.816,1.501-3.289,3.354-3.289
		c0.209,0,0.414,0.022,0.612,0.057c-0.034-0.2-0.051-0.403-0.053-0.606c0-2.119,1.752-3.836,3.913-3.836
		c2.161,0,3.913,1.717,3.913,3.836c0,0.206-0.021,0.408-0.053,0.606C11.955,8.176,12.159,8.155,12.368,8.155L12.368,8.155z
		 M10.16,9.284h-0.04c0.014-0.016,0.026-0.035,0.04-0.052L10.16,9.284L10.16,9.284L10.16,9.284z M5.701,9.284h-0.04V9.232
		C5.675,9.248,5.685,9.268,5.701,9.284L5.701,9.284z M13.728,4.091c0.518,0.708,0.736,1.592,0.607,2.46l-0.754-0.035
		c0.12-0.698-0.049-1.416-0.467-1.988c-0.443-0.607-1.101-0.973-1.802-1.07l0.198-0.721C12.374,2.879,13.18,3.34,13.728,4.091
		L13.728,4.091z M15.9,6.574l-0.773-0.02c0.126-1.002-0.113-2.047-0.754-2.924c-0.639-0.876-1.564-1.429-2.564-1.626l0.212-0.735
		c1.158,0.247,2.227,0.899,2.972,1.92C15.708,4.163,16.032,5.371,15.9,6.574L15.9,6.574z"/>
</g>
</svg>
