<?xml version="1.0" encoding="utf-8"?>
<!-- Generator: Adobe Illustrator 17.0.0, SVG Export Plug-In . SVG Version: 6.00 Build 0)  -->
<!DOCTYPE svg PUBLIC "-//W3C//DTD SVG 1.1//EN" "http://www.w3.org/Graphics/SVG/1.1/DTD/svg11.dtd">
<svg version="1.1" id="图层_1" xmlns="http://www.w3.org/2000/svg" xmlns:xlink="http://www.w3.org/1999/xlink" x="0px" y="0px"
	 width="16px" height="16px" viewBox="0 0 16 16" enable-background="new 0 0 16 16" xml:space="preserve">
<g>
	<g>
		<path fill-rule="evenodd" clip-rule="evenodd" fill="#616B77" d="M12.194,4.528c-0.005,0.021-0.011,0.041-0.017,0.062
			c-0.002,0.006-0.004,0.012-0.006,0.018c-0.004,0.015-0.01,0.03-0.015,0.045c-0.002,0.006-0.004,0.013-0.007,0.019
			c-0.002,0.005-0.004,0.011-0.006,0.016c-0.005,0.014-0.01,0.028-0.016,0.042c-0.002,0.005-0.004,0.01-0.006,0.015
			c-0.004,0.01-0.009,0.021-0.014,0.031c-0.002,0.004-0.004,0.009-0.006,0.013c-0.004,0.008-0.008,0.016-0.012,0.025
			c-0.002,0.003-0.004,0.007-0.005,0.01c-0.004,0.009-0.009,0.017-0.013,0.025c-0.004,0.008-0.008,0.016-0.012,0.024
			c-0.002,0.004-0.004,0.007-0.007,0.011c-0.007,0.014-0.015,0.027-0.023,0.04c-0.006,0.01-0.012,0.019-0.017,0.029
			C12.006,4.964,12,4.973,11.994,4.983c-0.007,0.01-0.014,0.021-0.021,0.032c-0.005,0.007-0.01,0.015-0.015,0.022
			c-0.013,0.02-0.027,0.039-0.042,0.058l0,0.001c-0.015,0.019-0.029,0.038-0.045,0.058c-0.001,0.002-0.003,0.004-0.004,0.005
			c-0.003,0.004-0.006,0.007-0.008,0.011c-0.01,0.012-0.021,0.025-0.031,0.037c-0.001,0.001-0.002,0.002-0.003,0.003
			c-0.002,0.002-0.004,0.005-0.006,0.007c-0.024,0.027-0.048,0.054-0.073,0.081l0,0c-0.049,0.052-0.102,0.103-0.158,0.153l-0.001,0
			C11.56,5.476,11.532,5.5,11.504,5.524L11.497,5.53c-0.059,0.049-0.121,0.097-0.186,0.143c0.32,0.07,0.628,0.172,0.921,0.304V4.528
			L12.194,4.528L12.194,4.528L12.194,4.528z M0.031,3.224C0.161,4.47,2.133,5.499,4.749,5.77C5.026,5.799,5.31,5.819,5.6,5.83
			c0.174,0.007,0.35,0.01,0.528,0.01c0.059,0,0.118,0,0.177-0.001C6.717,5.834,7.119,5.811,7.506,5.77
			C7.989,5.72,8.45,5.644,8.882,5.546c0.037-0.008,0.074-0.017,0.11-0.026c0.281-0.067,0.549-0.144,0.802-0.23
			c0.049-0.016,0.098-0.034,0.146-0.051c0.103-0.037,0.204-0.076,0.301-0.116c0.07-0.029,0.138-0.058,0.204-0.088
			c0.066-0.03,0.13-0.06,0.193-0.091c0.029-0.014,0.057-0.028,0.085-0.043c0.093-0.048,0.183-0.097,0.269-0.148
			c0.001-0.001,0.002-0.001,0.003-0.002c0.124-0.074,0.239-0.15,0.346-0.228c0.026-0.019,0.051-0.039,0.076-0.058
			c0.099-0.077,0.191-0.157,0.273-0.239c0.021-0.021,0.041-0.042,0.061-0.063c0.078-0.083,0.147-0.167,0.207-0.254
			c0.029-0.042,0.055-0.084,0.08-0.127c0.027-0.047,0.051-0.094,0.073-0.142c0.012-0.027,0.023-0.054,0.033-0.081
			c0.041-0.11,0.069-0.221,0.08-0.334c0.002-0.02,0.004-0.04,0.005-0.059c0.001-0.024,0.002-0.047,0.002-0.071
			c0-1.517-2.733-2.747-6.104-2.747c-3.371,0-6.104,1.23-6.104,2.747c0,0.024,0.001,0.047,0.002,0.071
			C0.028,3.185,0.029,3.205,0.031,3.224L0.031,3.224z M6.856,13.45c-0.055,0.003-0.11,0.006-0.166,0.008
			c-0.015,0.001-0.029,0.001-0.044,0.002c-0.077,0.003-0.155,0.005-0.233,0.007c-0.013,0-0.026,0-0.039,0.001
			c-0.082,0.001-0.164,0.002-0.247,0.002c-0.083,0-0.165-0.001-0.247-0.002c-0.013,0-0.026-0.001-0.039-0.001
			c-0.078-0.002-0.156-0.004-0.233-0.007c-0.015-0.001-0.029-0.001-0.044-0.002c-0.078-0.003-0.156-0.007-0.233-0.011
			c-0.01-0.001-0.019-0.001-0.028-0.002c-0.077-0.005-0.153-0.01-0.229-0.016c-0.006-0.001-0.012-0.001-0.018-0.001
			c-0.077-0.006-0.154-0.013-0.231-0.021c-0.013-0.001-0.025-0.003-0.038-0.004c-0.075-0.008-0.149-0.016-0.223-0.025
			c-0.012-0.001-0.024-0.003-0.035-0.004c-0.076-0.009-0.152-0.019-0.227-0.03c-0.002,0-0.005,0-0.007-0.001
			c-0.075-0.011-0.15-0.022-0.225-0.034c-0.007-0.001-0.015-0.002-0.022-0.004c-0.073-0.012-0.145-0.024-0.217-0.037
			c-0.011-0.002-0.021-0.004-0.032-0.006C3.731,13.25,3.66,13.236,3.59,13.222c-0.007-0.001-0.014-0.003-0.021-0.004
			c-0.146-0.03-0.289-0.063-0.428-0.098c-0.007-0.002-0.014-0.004-0.02-0.005c-0.068-0.017-0.134-0.035-0.2-0.054
			c-0.007-0.002-0.015-0.004-0.023-0.006c-0.067-0.019-0.133-0.038-0.199-0.058c-0.002-0.001-0.003-0.001-0.005-0.002
			c-0.068-0.021-0.135-0.042-0.201-0.064c-0.001,0-0.002-0.001-0.002-0.001c-0.065-0.022-0.127-0.044-0.189-0.066
			c-0.003-0.001-0.007-0.002-0.011-0.004h0c-1.218-0.443-2.049-1.093-2.23-1.831H0.024v1.831c0,1.232,1.803,2.274,4.286,2.623l0,0
			l0.001,0c0.064,0.009,0.128,0.017,0.193,0.025c0.016,0.002,0.031,0.004,0.047,0.006c0.064,0.008,0.129,0.015,0.194,0.022
			c0.001,0,0.002,0,0.003,0c0.066,0.007,0.132,0.013,0.199,0.019c0.016,0.001,0.032,0.003,0.049,0.004
			c0.066,0.006,0.132,0.011,0.2,0.016c0,0,0.001,0,0.002,0c0.068,0.005,0.135,0.009,0.204,0.012c0.017,0.001,0.034,0.002,0.05,0.003
			c0.068,0.003,0.136,0.006,0.205,0.009l0.001,0c0.069,0.002,0.138,0.004,0.208,0.005c0.017,0,0.035,0.001,0.052,0.001
			c0.07,0.001,0.14,0.002,0.21,0.002c0.07,0,0.141-0.001,0.21-0.002c0.017,0,0.035-0.001,0.052-0.001
			c0.069-0.001,0.139-0.003,0.208-0.005c0.001,0,0.001,0,0.001,0c0.069-0.003,0.137-0.006,0.205-0.009
			c0.017-0.001,0.034-0.002,0.051-0.003c0.068-0.004,0.136-0.008,0.204-0.012c0,0,0.001,0,0.002,0c0.067-0.005,0.134-0.01,0.2-0.016
			c0.016-0.001,0.032-0.003,0.049-0.004c0.067-0.006,0.133-0.012,0.199-0.019c0,0,0.001,0,0.003,0
			c0.065-0.007,0.129-0.014,0.194-0.022c0.016-0.002,0.031-0.004,0.047-0.006c0.065-0.008,0.129-0.016,0.194-0.025l0.001,0
			c0.786-0.11,1.504-0.29,2.118-0.524C8.799,14.893,7.664,14.325,6.856,13.45L6.856,13.45z M0.028,9.694
			C0.029,9.709,0.03,9.723,0.031,9.738c0.001,0.008,0.002,0.016,0.003,0.023C0.035,9.775,0.037,9.789,0.04,9.803
			c0.001,0.008,0.002,0.015,0.004,0.023c0.003,0.015,0.006,0.03,0.009,0.045c0.001,0.006,0.002,0.012,0.004,0.019
			C0.06,9.91,0.066,9.931,0.071,9.952c0.001,0.002,0.001,0.004,0.002,0.006c0.005,0.019,0.011,0.037,0.017,0.056
			c0.002,0.007,0.004,0.013,0.007,0.02c0.005,0.014,0.01,0.028,0.015,0.042c0.003,0.007,0.006,0.015,0.009,0.022
			c0.006,0.014,0.011,0.027,0.017,0.041c0.003,0.007,0.006,0.014,0.009,0.021c0.007,0.015,0.014,0.03,0.021,0.045
			c0.002,0.005,0.005,0.011,0.007,0.016c0.01,0.02,0.021,0.04,0.032,0.06c0.002,0.003,0.004,0.006,0.005,0.009
			c0.01,0.017,0.02,0.034,0.03,0.051c0.004,0.006,0.008,0.012,0.012,0.019c0.009,0.014,0.017,0.027,0.026,0.041
			c0.004,0.007,0.009,0.013,0.014,0.02c0.009,0.013,0.019,0.027,0.028,0.04c0.004,0.006,0.009,0.012,0.014,0.019
			c0.012,0.016,0.024,0.031,0.036,0.047c0.003,0.004,0.006,0.007,0.009,0.011c0.016,0.019,0.032,0.039,0.048,0.058
			c0.002,0.003,0.005,0.006,0.008,0.009c0.014,0.016,0.028,0.032,0.043,0.048c0.005,0.005,0.01,0.011,0.015,0.016
			c0.013,0.014,0.025,0.027,0.038,0.041c0.006,0.006,0.012,0.012,0.017,0.017c0.013,0.014,0.027,0.027,0.041,0.041
			c0.005,0.005,0.01,0.01,0.015,0.015c0.018,0.017,0.036,0.034,0.055,0.05c0.001,0.001,0.003,0.003,0.004,0.004
			c0.021,0.019,0.042,0.037,0.064,0.056c0.003,0.002,0.006,0.005,0.009,0.007c0.018,0.016,0.037,0.031,0.056,0.046
			c0.006,0.004,0.011,0.009,0.017,0.014c0.017,0.013,0.034,0.027,0.052,0.04c0.006,0.005,0.012,0.009,0.018,0.014
			c0.018,0.014,0.037,0.028,0.056,0.042c0.005,0.003,0.01,0.007,0.015,0.01c0.049,0.035,0.1,0.07,0.153,0.104
			c0.002,0.001,0.005,0.003,0.007,0.004c0.024,0.015,0.047,0.03,0.071,0.045c0.006,0.003,0.011,0.007,0.016,0.01
			c0.022,0.014,0.044,0.027,0.066,0.04c0.006,0.003,0.011,0.007,0.017,0.01c0.024,0.014,0.049,0.028,0.074,0.042
			c0.003,0.002,0.006,0.004,0.01,0.005c0.059,0.033,0.119,0.065,0.181,0.097c0.001,0.001,0.003,0.001,0.004,0.002
			c0.029,0.015,0.058,0.029,0.087,0.043c0.004,0.002,0.009,0.004,0.014,0.007c0.027,0.013,0.055,0.026,0.083,0.039
			c0.004,0.002,0.009,0.004,0.013,0.006c0.13,0.06,0.266,0.118,0.409,0.172c0.003,0.001,0.006,0.003,0.009,0.004
			c0.033,0.013,0.067,0.025,0.101,0.038c0.002,0.001,0.004,0.002,0.006,0.002c0.147,0.054,0.3,0.105,0.458,0.152l0.004,0.001
			c0.48,0.145,1.009,0.26,1.572,0.339l0,0l0.001,0c0.019,0.002,0.038,0.005,0.056,0.007c0.037,0.005,0.074,0.01,0.111,0.015
			c0.009,0.001,0.017,0.002,0.026,0.003c0.016,0.002,0.031,0.004,0.047,0.006c0.004,0.001,0.009,0.001,0.013,0.001
			c0.047,0.006,0.094,0.011,0.141,0.016c0.013,0.001,0.026,0.003,0.039,0.004c0.001,0,0.002,0,0.003,0
			c0.02,0.002,0.04,0.004,0.06,0.006c0.036,0.004,0.072,0.007,0.108,0.01c0.01,0.001,0.02,0.002,0.03,0.003
			c0.016,0.001,0.032,0.003,0.049,0.004c0.004,0,0.008,0.001,0.011,0.001c0.054,0.005,0.109,0.009,0.164,0.013
			c0.008,0.001,0.016,0.001,0.024,0.002c0,0,0.001,0,0.002,0c0.02,0.001,0.04,0.002,0.06,0.004c0.037,0.002,0.074,0.004,0.111,0.007
			c0.011,0,0.021,0.001,0.032,0.002c0.017,0.001,0.034,0.002,0.05,0.003c0.003,0,0.005,0,0.008,0
			c0.056,0.003,0.112,0.005,0.168,0.007c0.01,0,0.019,0.001,0.029,0.001c0.001,0,0.001,0,0.001,0c0.02,0.001,0.04,0.001,0.059,0.001
			c0.037,0.001,0.074,0.002,0.111,0.003c0.013,0,0.025-0.006,0.038-0.006c0.017,0,0.035-0.006,0.052-0.006h0.003
			c0.001,0-0.006,0.007-0.006,0.007v0.003c0.079,0.001,0.13,0.003,0.186,0.003c-0.314-0.63-0.491-1.342-0.491-2.092
			c0-0.018,0.001-0.027,0.001-0.058h0c-0.015,0-0.029,0.001-0.044,0.001c-0.078-0.003-0.156-0.006-0.233-0.01
			c-0.01-0.001-0.019-0.001-0.028-0.001c-0.077-0.004-0.153-0.009-0.229-0.015c-0.006-0.001-0.012-0.001-0.017-0.001
			c-0.078-0.006-0.155-0.013-0.231-0.02c-0.013-0.001-0.025-0.003-0.038-0.004c-0.075-0.008-0.149-0.016-0.223-0.025
			c-0.012-0.001-0.024-0.003-0.035-0.004c-0.076-0.009-0.152-0.019-0.227-0.029c-0.002,0-0.005-0.001-0.007-0.001
			c-0.076-0.011-0.151-0.022-0.225-0.034c-0.007-0.001-0.015-0.002-0.022-0.004c-0.073-0.012-0.145-0.024-0.217-0.038
			c-0.011-0.002-0.021-0.004-0.032-0.006C3.731,10,3.661,9.986,3.59,9.971C3.583,9.97,3.577,9.969,3.57,9.967
			c-0.146-0.03-0.289-0.063-0.428-0.098C3.135,9.867,3.128,9.865,3.121,9.864c-0.068-0.017-0.134-0.035-0.2-0.053
			C2.913,9.808,2.906,9.806,2.898,9.804C2.831,9.785,2.765,9.765,2.699,9.746C2.698,9.745,2.696,9.745,2.694,9.744
			C2.626,9.723,2.559,9.702,2.493,9.68c-0.001,0-0.001-0.001-0.001-0.001C2.427,9.657,2.364,9.643,2.302,9.621
			c-0.001,0-0.002,0-0.003,0v0C2.297,9.622,2.294,9.624,2.292,9.624h0C2.219,9.597,2.148,9.569,2.078,9.541
			c-0.003-0.001-0.007-0.003-0.01-0.004C1.999,9.508,1.931,9.479,1.865,9.449C1.861,9.448,1.858,9.446,1.854,9.444
			c-0.066-0.03-0.132-0.06-0.195-0.092C1.656,9.351,1.653,9.35,1.65,9.348c-0.066-0.033-0.131-0.066-0.194-0.1l-0.001,0
			C1.396,9.216,1.339,9.184,1.283,9.151C1.279,9.149,1.275,9.147,1.272,9.145c-0.119-0.07-0.23-0.143-0.334-0.218l0,0
			C0.526,8.628,0.239,8.294,0.107,7.937C0.089,7.889,0.074,7.842,0.062,7.794H0.024v1.816c0,0.021,0.001,0.043,0.002,0.064
			C0.027,9.68,0.027,9.687,0.028,9.694L0.028,9.694z M0.028,6.444C0.029,6.459,0.03,6.473,0.031,6.488
			c0.001,0.007,0.002,0.015,0.003,0.023C0.035,6.525,0.038,6.539,0.04,6.553C0.041,6.56,0.042,6.568,0.043,6.575
			c0.003,0.015,0.006,0.031,0.009,0.046c0.001,0.006,0.002,0.011,0.003,0.016c0.01,0.043,0.021,0.085,0.035,0.127
			c0.001,0.004,0.003,0.008,0.004,0.012C0.101,6.795,0.107,6.812,0.114,6.83c0.002,0.004,0.003,0.009,0.005,0.013
			C0.126,6.86,0.134,6.879,0.142,6.897c0.001,0.002,0.002,0.005,0.003,0.007C0.586,7.891,2.203,8.686,4.31,8.982l0,0h0.001
			c0.064,0.009,0.128,0.017,0.193,0.025C4.52,9.009,4.535,9.011,4.551,9.013C4.615,9.021,4.68,9.028,4.745,9.035
			c0.001,0,0.002,0,0.003,0C4.813,9.042,4.88,9.049,4.947,9.054c0.016,0.001,0.032,0.003,0.049,0.004
			c0.066,0.006,0.133,0.011,0.2,0.015c0,0,0.001,0,0.002,0c0.068,0.005,0.135,0.009,0.204,0.012
			c0.017,0.001,0.034,0.002,0.051,0.002c0,0,0.002,0,0.003,0c0.1,0.005,0.2,0.009,0.301,0.012c0.212-0.83,0.646-1.572,1.234-2.159
			C6.976,6.943,6.964,6.944,6.951,6.945C6.943,6.945,6.934,6.946,6.926,6.946c-0.001,0-0.002,0-0.002,0
			C6.897,6.948,6.871,6.949,6.845,6.95C6.794,6.953,6.742,6.956,6.691,6.958C6.678,6.958,6.665,6.959,6.652,6.959
			c-0.002,0-0.004,0-0.005,0c-0.002,0-0.004,0-0.005,0C6.566,6.963,6.49,6.965,6.413,6.967c-0.013,0-0.026,0-0.039,0.001
			C6.293,6.969,6.211,6.97,6.128,6.97c-0.083,0-0.165-0.001-0.247-0.002c-0.013,0-0.026,0-0.039-0.001
			C5.765,6.965,5.687,6.963,5.61,6.96c-0.004,0-0.007,0-0.011,0C5.588,6.959,5.576,6.958,5.566,6.958
			C5.507,6.956,5.449,6.953,5.391,6.949C5.372,6.948,5.352,6.948,5.333,6.947c-0.002,0-0.004,0-0.006,0
			C5.32,6.946,5.312,6.945,5.305,6.945C5.279,6.943,5.254,6.941,5.228,6.939C5.177,6.936,5.126,6.933,5.076,6.929
			c-0.004,0-0.009-0.001-0.013-0.001c-0.002,0-0.003,0-0.005,0C5.014,6.924,4.97,6.92,4.925,6.916
			C4.893,6.913,4.86,6.91,4.827,6.907c-0.004,0-0.009-0.001-0.013-0.001C4.806,6.905,4.797,6.904,4.789,6.903
			C4.714,6.896,4.64,6.887,4.566,6.879C4.561,6.878,4.555,6.877,4.55,6.877C4.543,6.876,4.537,6.875,4.531,6.875
			c-0.076-0.009-0.152-0.019-0.227-0.03c0,0-0.002,0-0.003,0c-0.001,0-0.003,0-0.004,0c-0.035-0.005-0.07-0.011-0.105-0.016
			C4.175,6.825,4.156,6.823,4.138,6.82C4.116,6.816,4.094,6.813,4.073,6.81C4.066,6.809,4.058,6.807,4.051,6.806
			C4.029,6.803,4.007,6.799,3.985,6.795c-0.05-0.009-0.101-0.017-0.151-0.026c-0.005-0.001-0.01-0.002-0.016-0.003
			c-0.005-0.001-0.01-0.002-0.016-0.003C3.731,6.75,3.66,6.736,3.59,6.722C3.583,6.72,3.577,6.719,3.569,6.717
			C3.497,6.702,3.424,6.686,3.353,6.67C3.282,6.653,3.211,6.636,3.141,6.619c-0.007-0.001-0.013-0.003-0.02-0.005
			c-0.068-0.017-0.134-0.035-0.2-0.054C2.913,6.558,2.906,6.556,2.898,6.554C2.831,6.535,2.765,6.516,2.699,6.495
			c-0.002,0-0.003-0.001-0.005-0.002C2.626,6.473,2.559,6.452,2.493,6.43c-0.001,0-0.001-0.001-0.001-0.001
			C2.427,6.407,2.364,6.385,2.302,6.363C2.299,6.362,2.295,6.361,2.291,6.359h0c-0.044-0.016-0.087-0.032-0.13-0.049
			C2.149,6.305,2.136,6.3,2.123,6.295c-0.03-0.012-0.06-0.024-0.09-0.036C2.019,6.254,2.005,6.248,1.991,6.242
			C1.96,6.229,1.93,6.216,1.899,6.203c-0.01-0.005-0.021-0.009-0.032-0.014C1.826,6.171,1.786,6.153,1.746,6.135
			C1.743,6.133,1.74,6.132,1.737,6.13C1.701,6.113,1.664,6.096,1.629,6.079c-0.01-0.005-0.02-0.01-0.03-0.015
			C1.569,6.049,1.54,6.034,1.512,6.019c-0.01-0.005-0.019-0.01-0.029-0.015C1.449,5.987,1.417,5.969,1.385,5.951
			C1.381,5.949,1.377,5.947,1.373,5.945C1.336,5.924,1.299,5.903,1.262,5.881C1.261,5.88,1.26,5.88,1.259,5.879
			c-0.034-0.02-0.067-0.04-0.1-0.061C1.153,5.814,1.147,5.81,1.141,5.806C1.112,5.788,1.083,5.769,1.055,5.75
			C1.05,5.747,1.045,5.744,1.041,5.74c-0.1-0.068-0.193-0.137-0.279-0.209C0.758,5.529,0.755,5.527,0.752,5.524
			C0.725,5.502,0.699,5.479,0.673,5.456C0.672,5.455,0.671,5.454,0.669,5.453C0.614,5.403,0.561,5.352,0.513,5.3
			C0.486,5.272,0.46,5.244,0.436,5.215C0.434,5.214,0.433,5.212,0.432,5.211C0.431,5.209,0.43,5.208,0.429,5.207
			C0.418,5.194,0.407,5.182,0.397,5.169C0.396,5.167,0.395,5.166,0.394,5.165C0.391,5.161,0.388,5.158,0.385,5.154
			C0.369,5.135,0.354,5.115,0.34,5.096c0,0,0,0-0.001-0.001C0.325,5.076,0.311,5.056,0.297,5.036
			c-0.005-0.007-0.01-0.015-0.015-0.022C0.275,5.004,0.268,4.993,0.261,4.982C0.256,4.973,0.25,4.964,0.244,4.955
			c-0.006-0.01-0.012-0.02-0.018-0.029C0.219,4.912,0.211,4.899,0.204,4.885C0.202,4.882,0.2,4.878,0.198,4.874
			C0.193,4.866,0.189,4.858,0.185,4.849C0.183,4.846,0.181,4.843,0.18,4.84C0.175,4.831,0.171,4.822,0.167,4.814
			C0.163,4.806,0.159,4.798,0.155,4.79C0.154,4.787,0.153,4.784,0.152,4.781C0.146,4.77,0.141,4.758,0.136,4.746
			C0.133,4.741,0.131,4.736,0.129,4.73C0.123,4.717,0.118,4.702,0.112,4.688C0.11,4.683,0.108,4.677,0.106,4.672
			C0.104,4.666,0.102,4.659,0.1,4.653c-0.005-0.015-0.01-0.029-0.015-0.045C0.083,4.602,0.081,4.596,0.079,4.59
			c-0.006-0.02-0.012-0.041-0.017-0.062H0.024v1.831c0,0.022,0.001,0.043,0.002,0.064C0.027,6.431,0.027,6.437,0.028,6.444
			L0.028,6.444z"/>
	</g>
	<path fill-rule="evenodd" clip-rule="evenodd" fill="#616B77" d="M6.687,10.17c0,1.105,0.371,2.092,1.118,2.837
		c0.55,0.549,1.534,1.155,2.615,1.155c0.899,0,1.596-0.151,2.254-0.592l2.064,2.083l1.238-1.22l-2.073-2.091
		c0.694-1.048,0.777-2.611,0.213-3.761C12.949,6.203,9.898,5.684,8.083,7.28C7.589,7.714,7.376,7.986,7.056,8.618
		C6.865,8.997,6.687,9.606,6.687,10.17L6.687,10.17z M10.664,7.945c1.304,0,2.361,1.057,2.361,2.361
		c0,1.304-1.057,2.361-2.361,2.361s-2.361-1.057-2.361-2.361C8.303,9.002,9.36,7.945,10.664,7.945z"/>
</g>
</svg>
