<?xml version="1.0" encoding="utf-8"?>
<!-- Generator: Adobe Illustrator 17.0.0, SVG Export Plug-In . SVG Version: 6.00 Build 0)  -->
<!DOCTYPE svg PUBLIC "-//W3C//DTD SVG 1.1//EN" "http://www.w3.org/Graphics/SVG/1.1/DTD/svg11.dtd">
<svg version="1.1" id="图层_1" xmlns="http://www.w3.org/2000/svg" xmlns:xlink="http://www.w3.org/1999/xlink" x="0px" y="0px"
	 width="16px" height="16px" viewBox="0 0 16 16" enable-background="new 0 0 16 16" xml:space="preserve">
<path fill="#616B77" d="M0.046,0.929v14.142h15.909V0.929H0.046z M13.148,1.872c0.517,0,0.936,0.422,0.936,0.943
	s-0.419,0.943-0.936,0.943s-0.936-0.422-0.936-0.943S12.63,1.872,13.148,1.872z M10.34,1.872c0.517,0,0.936,0.422,0.936,0.943
	s-0.419,0.943-0.936,0.943S9.405,3.336,9.405,2.815S9.823,1.872,10.34,1.872z M7.533,1.872c0.517,0,0.936,0.422,0.936,0.943
	S8.05,3.758,7.533,3.758S6.597,3.336,6.597,2.815C6.597,2.294,7.016,1.872,7.533,1.872z M14.438,13.539H1.564V4.347h12.873v9.192
	H14.438z M3.766,12.281l3.301-1.755l0.004,0.033l1.72-0.941l-0.668-0.37l0.013-0.024l-4.37-2.323L3.268,7.837l3.3,1.754l-3.3,1.754
	L3.766,12.281z M13.009,10.828H8.884v1.061h4.125V10.828z"/>
</svg>
