<?xml version="1.0" encoding="utf-8"?>
<!-- Generator: Adobe Illustrator 17.0.0, SVG Export Plug-In . SVG Version: 6.00 Build 0)  -->
<!DOCTYPE svg PUBLIC "-//W3C//DTD SVG 1.1//EN" "http://www.w3.org/Graphics/SVG/1.1/DTD/svg11.dtd">
<svg version="1.1" id="图层_1" xmlns="http://www.w3.org/2000/svg" xmlns:xlink="http://www.w3.org/1999/xlink" x="0px" y="0px"
	 width="16px" height="16px" viewBox="0 0 16 16" enable-background="new 0 0 16 16" xml:space="preserve">
<g>
	<rect x="0.931" y="7.903" fill-rule="evenodd" clip-rule="evenodd" fill="#616B77" width="14.079" height="0.259"/>
	<g>
		<g opacity="0.5">
			<g>
				<path fill-rule="evenodd" clip-rule="evenodd" fill="#616B77" d="M0.297,9.7c0.002-0.008,0.005-0.017,0.006-0.026
					c0.007-0.148,0.036-0.295,0.078-0.44c0.113-0.402,0.292-0.831,0.461-1.182c0.035-0.073,0.536,0.023,0.524,0.045
					C0.949,8.84,0.444,9.741,1.254,9.961C1.42,9.979,1.586,9.969,1.751,9.948C2.149,9.899,2.526,9.805,2.899,9.7
					C3.46,9.542,4.001,9.356,4.535,9.159c0.737-0.27,1.457-0.562,2.168-0.863c0.351-0.148,0.699-0.299,1.045-0.452
					c0.139-0.062,0.352,0.337,0.216,0.395C7.092,8.602,6.209,8.954,5.31,9.286c-0.688,0.255-1.385,0.498-2.101,0.714
					c-0.373,0.112-0.751,0.217-1.139,0.303c-0.211,0.046-0.424,0.087-0.643,0.113c-0.138,0.017-0.276,0.027-0.416,0.022
					c-0.185-0.006-0.352-0.043-0.481-0.139c-0.091-0.068-0.144-0.15-0.178-0.238c-0.03-0.076-0.044-0.154-0.049-0.233
					C0.302,9.816,0.299,9.803,0.297,9.791C0.297,9.761,0.297,9.731,0.297,9.7z"/>
			</g>
			<polygon fill-rule="evenodd" clip-rule="evenodd" fill="#616B77" points="6.358,7.943 6.729,7.961 3.896,9.686 3.607,9.619 			
				"/>
			<polygon fill-rule="evenodd" clip-rule="evenodd" fill="#616B77" points="5.173,7.93 5.462,7.998 2.271,10.135 1.982,10.068 			
				"/>
			<polygon fill-rule="evenodd" clip-rule="evenodd" fill="#616B77" points="3.988,7.909 4.276,7.976 0.926,10.21 0.83,10.014 			
				"/>
			<polygon fill-rule="evenodd" clip-rule="evenodd" fill="#616B77" points="2.775,7.934 3.064,8.001 0.654,9.52 0.497,9.356 			"/>
		</g>
		<g opacity="0.5">
			<g>
				<path fill-rule="evenodd" clip-rule="evenodd" fill="#616B77" d="M15.703,6.323c-0.002,0.009-0.005,0.017-0.006,0.026
					c-0.007,0.149-0.037,0.295-0.079,0.44c-0.185,0.638-0.537,1.341-0.752,1.698c-0.222,0.53-0.349-0.389-0.272-0.519
					c0.397-0.672,0.95-1.688,0.128-1.906c-0.171-0.018-0.341-0.008-0.51,0.013c-0.409,0.049-0.796,0.143-1.178,0.248
					c-0.576,0.158-1.131,0.344-1.679,0.541C10.599,7.134,9.86,7.425,9.13,7.726C8.886,7.827,8.643,7.929,8.401,8.032
					c-0.258,0.11-0.704-0.19-0.564-0.248c0.894-0.364,1.8-0.715,2.722-1.048c0.706-0.255,1.421-0.498,2.156-0.714
					c0.383-0.113,0.77-0.217,1.169-0.303c0.217-0.047,0.436-0.087,0.66-0.113c0.141-0.016,0.284-0.027,0.427-0.022
					c0.19,0.006,0.361,0.043,0.493,0.139c0.094,0.068,0.148,0.15,0.183,0.238c0.03,0.076,0.045,0.154,0.05,0.233
					c0.001,0.012,0.004,0.025,0.006,0.037C15.703,6.262,15.703,6.293,15.703,6.323z"/>
			</g>
			<polygon fill-rule="evenodd" clip-rule="evenodd" fill="#616B77" points="9.744,8.054 9.448,7.987 12.353,6.262 12.65,6.33 			
				"/>
			<polygon fill-rule="evenodd" clip-rule="evenodd" fill="#616B77" points="11.047,8.043 10.751,7.975 14.024,5.838 14.321,5.905 
							"/>
			<polygon fill-rule="evenodd" clip-rule="evenodd" fill="#616B77" points="12.138,8.114 11.842,8.047 15.28,5.813 15.378,6.009 
							"/>
			<polygon fill-rule="evenodd" clip-rule="evenodd" fill="#616B77" points="13.259,8.164 12.963,8.096 15.435,6.577 15.596,6.742 
							"/>
		</g>
		<g>
			<rect x="2.427" y="3.75" fill-rule="evenodd" clip-rule="evenodd" fill="#616B77" width="0.294" height="4.282"/>
			<rect x="3.623" y="1.856" fill-rule="evenodd" clip-rule="evenodd" fill="#616B77" width="0.294" height="6.176"/>
			<rect x="4.82" y="1.856" fill-rule="evenodd" clip-rule="evenodd" fill="#616B77" width="0.294" height="6.176"/>
			<rect x="6.016" y="3.368" fill-rule="evenodd" clip-rule="evenodd" fill="#616B77" width="0.294" height="4.664"/>
			<g>
				<path fill-rule="evenodd" clip-rule="evenodd" fill="#616B77" d="M7.772,8.119C7.704,7.894,7.635,7.669,7.563,7.445
					C7.272,6.54,6.94,5.648,6.537,4.777c-0.22-0.476-0.46-0.943-0.76-1.384C5.622,3.166,5.452,2.948,5.242,2.757
					C5.139,2.664,5.028,2.581,4.9,2.516C4.664,2.397,4.425,2.391,4.182,2.496C3.984,2.58,3.825,2.709,3.681,2.852
					C3.43,3.104,3.235,3.388,3.058,3.682C2.727,4.234,2.466,4.814,2.233,5.404C2.06,5.84,1.816,6.481,1.645,7.032
					c-0.192,0.621-0.301,1.13-0.301,1.13H0.79c0,0,0.179-0.598,0.216-0.722c0.118-0.388,0.239-0.775,0.371-1.16
					c0.301-0.884,0.64-1.755,1.053-2.603c0.233-0.48,0.489-0.95,0.807-1.391C3.416,2.036,3.612,1.8,3.863,1.604
					c0.16-0.125,0.336-0.227,0.553-0.26C4.451,1.34,4.486,1.336,4.522,1.332c0.003,0,0.006,0,0.008,0
					C4.602,1.344,4.676,1.35,4.746,1.369c0.205,0.055,0.369,0.169,0.52,0.298C5.502,1.87,5.69,2.106,5.862,2.351
					c0.301,0.43,0.547,0.886,0.772,1.35c0.437,0.902,0.789,1.832,1.111,2.77C7.932,7.018,8.08,7.573,8.246,8.124"/>
			</g>
		</g>
		<g>
			<rect x="13.22" y="7.968" fill-rule="evenodd" clip-rule="evenodd" fill="#616B77" width="0.294" height="4.282"/>
			<rect x="12.024" y="7.968" fill-rule="evenodd" clip-rule="evenodd" fill="#616B77" width="0.294" height="6.176"/>
			<rect x="10.827" y="7.968" fill-rule="evenodd" clip-rule="evenodd" fill="#616B77" width="0.295" height="6.176"/>
			<rect x="9.631" y="7.968" fill-rule="evenodd" clip-rule="evenodd" fill="#616B77" width="0.294" height="4.664"/>
			<g>
				<path fill-rule="evenodd" clip-rule="evenodd" fill="#616B77" d="M8.17,7.881c0.068,0.225,0.137,0.45,0.209,0.675
					c0.291,0.904,0.623,1.797,1.026,2.667c0.22,0.476,0.46,0.943,0.761,1.384c0.155,0.227,0.325,0.445,0.535,0.636
					c0.102,0.093,0.214,0.176,0.342,0.241c0.235,0.119,0.475,0.124,0.718,0.021c0.198-0.085,0.357-0.213,0.501-0.357
					c0.251-0.251,0.446-0.535,0.623-0.829c0.332-0.552,0.592-1.132,0.825-1.722c0.205-0.518,0.467-1.299,0.649-1.886
					c0.144-0.466,0.232-0.807,0.232-0.807h0.589c0,0-0.136,0.325-0.243,0.658c-0.118,0.388-0.239,0.775-0.37,1.16
					c-0.301,0.884-0.641,1.755-1.053,2.603c-0.233,0.48-0.489,0.95-0.807,1.391c-0.179,0.248-0.375,0.484-0.626,0.68
					c-0.16,0.125-0.336,0.227-0.553,0.26c-0.035,0.005-0.071,0.009-0.107,0.013c-0.003,0-0.006,0-0.008,0
					c-0.072-0.012-0.146-0.019-0.216-0.037c-0.205-0.055-0.37-0.169-0.52-0.298c-0.235-0.203-0.423-0.438-0.595-0.684
					c-0.301-0.43-0.547-0.886-0.772-1.35c-0.437-0.902-0.789-1.832-1.111-2.77C8.01,8.982,7.862,8.427,7.696,7.876"/>
			</g>
		</g>
	</g>
	<path fill-rule="evenodd" clip-rule="evenodd" fill="#616B77" d="M4.661,10.064"/>
	<path fill-rule="evenodd" clip-rule="evenodd" fill="#616B77" d="M15.079,8.912"/>
</g>
</svg>
