<?xml version="1.0" encoding="utf-8"?>
<!-- Generator: Adobe Illustrator 17.0.0, SVG Export Plug-In . SVG Version: 6.00 Build 0)  -->
<!DOCTYPE svg PUBLIC "-//W3C//DTD SVG 1.1//EN" "http://www.w3.org/Graphics/SVG/1.1/DTD/svg11.dtd">
<svg version="1.1" id="图层_1" xmlns="http://www.w3.org/2000/svg" xmlns:xlink="http://www.w3.org/1999/xlink" x="0px" y="0px"
	 width="16px" height="16px" viewBox="0 0 16 16" enable-background="new 0 0 16 16" xml:space="preserve">
<g>
	<g>
		<path fill="#616B77" d="M1.357,7.54l1.315-0.685C2.618,7.256,2.681,7.677,2.88,8.062c0.201,0.386,0.507,0.681,0.867,0.869
			L2.43,9.616C1.857,9.913,1.151,9.689,0.856,9.115C0.559,8.541,0.784,7.836,1.357,7.54z"/>
		<g>
			<path fill="#616B77" d="M14.114,4.889c-0.891-0.021-1.701-0.596-2.209-1.579c-0.457-0.885-0.556-1.937-0.19-2.663L8.66,2.269
				C8.337,2.524,8.123,2.896,8.027,3.323L7.377,3.658L4.002,5.405C3.094,5.874,2.738,6.992,3.207,7.899
				c0.332,0.641,0.987,0.997,1.663,0.99c0.251,0,0.766-0.196,1.351-0.462c0-0.012-0.004-0.023-0.004-0.036
				c0-0.023,0.006-0.044,0.007-0.066c0-0.008-0.003-0.016-0.003-0.024c0-0.013-0.004-0.024-0.004-0.036
				c0-0.748,0.607-1.356,1.357-1.356c0.312,0,0.596,0.109,0.825,0.286c0.031,0.024,0.055,0.054,0.084,0.081
				c0.352-0.193,0.59-0.328,0.59-0.328c0.002,0,0.003-0.001,0.005-0.001l0.798-0.414c0.334,0.096,0.674,0.104,0.994,0.01
				L14.114,4.889z"/>
		</g>
		<path fill="#616B77" d="M14.876,4.419c0.602-0.53,0.513-1.867-0.197-2.985c-0.71-1.119-1.774-1.596-2.374-1.065
			c-0.602,0.53-0.513,1.867,0.197,2.985C13.212,4.473,14.275,4.95,14.876,4.419z M12.881,3.02c-0.503-0.79-0.601-1.745-0.216-2.084
			c0.384-0.339,1.133,0.041,1.635,0.832c0.501,0.79,0.6,1.744,0.217,2.084C14.131,4.191,13.383,3.811,12.881,3.02z"/>
	</g>
	<g>
		<circle fill="#616B77" cx="7.74" cy="8.6" r="1.191"/>
		<polygon fill="#616B77" points="5.38,15.848 6.169,15.848 7.741,9.65 6.993,9.474 		"/>
		<polygon fill="#616B77" points="10.148,15.848 9.359,15.848 7.741,9.65 8.488,9.474 		"/>
	</g>
</g>
</svg>
