<?xml version="1.0" encoding="UTF-8"?>
<svg width="19px" height="17px" viewBox="0 0 19 17" version="1.1" xmlns="http://www.w3.org/2000/svg" xmlns:xlink="http://www.w3.org/1999/xlink">
    <!-- Generator: Sketch 46.2 (44496) - http://www.bohemiancoding.com/sketch -->
    <title>Governo</title>
    <desc>Created with Sketch.</desc>
    <defs></defs>
    <g id="Page-1" stroke="none" stroke-width="1" fill="none" fill-rule="evenodd">
        <g id="Governo" fill-rule="nonzero" fill="#B9C1CF">
            <g id="Group-9">
                <path d="M4.20271398,10.4502957 C4.39121797,10.7554164 4.5,11.1150045 4.5,11.5 C4.5,12.6045695 3.6045695,13.5 2.5,13.5 C1.3954305,13.5 0.5,12.6045695 0.5,11.5 C0.5,10.3954305 1.3954305,9.5 2.5,9.5 C2.88499552,9.5 3.24458364,9.60878203 3.54970429,9.79728602 L7.20467267,6.14231764 C6.46660772,5.50062749 6,4.55480478 6,3.5 C6,1.56700338 7.56700338,0 9.5,0 C11.4329966,0 13,1.56700338 13,3.5 C13,4.55480478 12.5333923,5.50062749 11.7953273,6.14231764 L15.4502957,9.79728602 C15.7554164,9.60878203 16.1150045,9.5 16.5,9.5 C17.6045695,9.5 18.5,10.3954305 18.5,11.5 C18.5,12.6045695 17.6045695,13.5 16.5,13.5 C15.3954305,13.5 14.5,12.6045695 14.5,11.5 C14.5,11.1150045 14.608782,10.7554164 14.797286,10.4502957 L11.0068916,6.65990131 C10.6941159,6.80932565 10.3556834,6.91367904 10,6.96455557 L10,12.5630087 C10.8626136,12.7850301 11.5,13.5680803 11.5,14.5 C11.5,15.6045695 10.6045695,16.5 9.5,16.5 C8.3954305,16.5 7.5,15.6045695 7.5,14.5 C7.5,13.5680803 8.13738639,12.7850301 9,12.5630087 L9,6.96455557 C8.64431658,6.91367904 8.30588406,6.80932565 7.99310838,6.65990131 L4.20271398,10.4502957 Z M9.5,6 C10.8807119,6 12,4.88071187 12,3.5 C12,2.11928813 10.8807119,1 9.5,1 C8.11928813,1 7,2.11928813 7,3.5 C7,4.88071187 8.11928813,6 9.5,6 Z M9.5,15.5 C10.0522847,15.5 10.5,15.0522847 10.5,14.5 C10.5,13.9477153 10.0522847,13.5 9.5,13.5 C8.94771525,13.5 8.5,13.9477153 8.5,14.5 C8.5,15.0522847 8.94771525,15.5 9.5,15.5 Z M16.5,12.5 C17.0522847,12.5 17.5,12.0522847 17.5,11.5 C17.5,10.9477153 17.0522847,10.5 16.5,10.5 C15.9477153,10.5 15.5,10.9477153 15.5,11.5 C15.5,12.0522847 15.9477153,12.5 16.5,12.5 Z M2.5,12.5 C3.05228475,12.5 3.5,12.0522847 3.5,11.5 C3.5,10.9477153 3.05228475,10.5 2.5,10.5 C1.94771525,10.5 1.5,10.9477153 1.5,11.5 C1.5,12.0522847 1.94771525,12.5 2.5,12.5 Z" id="Combined-Shape"></path>
            </g>
        </g>
    </g>
</svg>