<?xml version="1.0" encoding="UTF-8"?>
<svg width="16px" height="14px" viewBox="0 0 16 14" version="1.1" xmlns="http://www.w3.org/2000/svg" xmlns:xlink="http://www.w3.org/1999/xlink">
    <!-- Generator: Sketch 46.2 (44496) - http://www.bohemiancoding.com/sketch -->
    <title>Redis</title>
    <desc>Created with Sketch.</desc>
    <defs></defs>
    <g id="Page-1" stroke="none" stroke-width="1" fill="none" fill-rule="evenodd">
        <g id="Redis">
            <g id="Group-14" transform="translate(-1.000000, -3.000000)">
                <path d="M4.66044538,3.03530207 C4.56444429,3.00569623 4.46175108,3.00569623 4.36575,3.03530207 C4.10187076,3.11667995 3.95392418,3.39656615 4.03530207,3.66044538 L6.1504481,10.519104 C6.19917843,10.6771189 6.32288108,10.8008216 6.48089603,10.8495519 L13.3395546,12.9646979 C13.4355557,12.9943038 13.5382489,12.9943038 13.63425,12.9646979 C13.8981292,12.8833201 14.0460758,12.6034339 13.9646979,12.3395546 L11.8495519,5.48089603 C11.8008216,5.32288108 11.6771189,5.19917843 11.519104,5.1504481 L4.66044538,3.03530207 Z" id="Rectangle-7" stroke="#B9C1CF" transform="translate(9.000000, 8.000000) rotate(-45.000000) translate(-9.000000, -8.000000) "></path>
                <path d="M12.7518355,15.4467022 L7.43181006,13.8060563 C7.09404855,13.7018938 6.82963057,13.4374758 6.72546808,13.0997143 L4.46487525,5.76942398 L5.95240659,7.25695532 L7.664913,12.8099983 C7.67326159,12.8370697 7.6944546,12.8582628 7.72152607,12.8666113 L13.274569,14.5791177 L13.274569,14.5791177 L13.274569,14.5791177 C13.4783419,14.7828907 13.4783419,15.1132718 13.274569,15.3170447 C13.1378168,15.4537969 12.9366437,15.5036954 12.7518355,15.4467022 Z M14.7621004,16.0666491 L7.43181006,13.8060563 C7.09404855,13.7018938 6.82963057,13.4374758 6.72546808,13.0997143 L4.46487525,5.76942398 L5.95240659,7.25695532 L7.664913,12.8099983 C7.67326159,12.8370697 7.6944546,12.8582628 7.72152607,12.8666113 L13.274569,14.5791177 L14.7621004,16.0666491 Z M13.3478868,17.4808627 L6.0175965,15.2202698 C5.67983499,15.1161073 5.415417,14.8516894 5.31125452,14.5139278 L3.05066168,7.18363754 L4.53819303,8.67116889 L6.25069944,14.2242118 C6.25904802,14.2512833 6.28024104,14.2724763 6.30731251,14.2808249 L11.8603555,15.9933313 L13.3478868,17.4808627 Z M13.3478868,17.4808627 L6.0175965,15.2202698 C5.67983499,15.1161073 5.415417,14.8516894 5.31125452,14.5139278 L3.05066168,7.18363754 L4.53819303,8.67116889 L6.25069944,14.2242118 C6.25904802,14.2512833 6.28024104,14.2724763 6.30731251,14.2808249 L11.8603555,15.9933313 L13.3478868,17.4808627 Z" id="Rectangle-7" fill="#B9C1CF" fill-rule="nonzero" transform="translate(8.906381, 11.625143) rotate(-45.000000) translate(-8.906381, -11.625143) "></path>
            </g>
        </g>
    </g>
</svg>