<?xml version="1.0" encoding="utf-8"?>
<!-- Generator: Adobe Illustrator 17.0.0, SVG Export Plug-In . SVG Version: 6.00 Build 0)  -->
<!DOCTYPE svg PUBLIC "-//W3C//DTD SVG 1.1//EN" "http://www.w3.org/Graphics/SVG/1.1/DTD/svg11.dtd">
<svg version="1.1" id="图层_1" xmlns="http://www.w3.org/2000/svg" xmlns:xlink="http://www.w3.org/1999/xlink" x="0px" y="0px"
	 width="16px" height="16px" viewBox="0 0 16 16" enable-background="new 0 0 16 16" xml:space="preserve">
<g>
	<path fill="#616B77" d="M8.011,0.062c0,0,2.657,1.14,4.474,4.178c1.239,2.071,1.526,3.208,1.582,5.059
		c0.045,1.492-0.106,3.462-2.149,5.223c-2.216,1.91-4.941,1.504-6.178,0.985c-1.388-0.582-3.302-1.987-3.702-4.572
		C1.614,8.202,2.522,6.326,2.786,5.702c0.268-0.634,0.903-1.736,0.903-1.736s0.268,0.02,0.507,0.064
		C4.435,4.075,4.77,4.165,4.77,4.165S3.263,6.404,3.054,8.612c-0.209,2.209,0.239,4.104,2.179,5.476s5.104,1.147,6.79-1.149
		c1.567-2.134,0.91-4.951,0.91-4.951s-0.523-2.883-2.426-4.801c-2.062-2.078-3.588-2.5-3.588-2.5L8.011,0.062z"/>
	<path fill="#616B77" d="M6.285,1.136c0,0,2.596,0.858,4.35,3.268c1.168,1.606,1.726,3.633,1.772,5.156
		c0.037,1.228-0.158,2.502-1.466,3.604c-2.205,1.858-4.633,0.915-5.473,0.302c-1.119-0.817-1.847-2.037-1.847-3.503
		c0-1.613,0.381-2.832,0.75-3.76c0.312-0.784,1.045-1.798,1.045-1.798S5.69,4.518,5.904,4.639C6.119,4.76,6.359,4.908,6.359,4.908
		s-1.142,1.404-1.563,3.51c-0.28,1.399-0.257,2.664,0.985,3.939c1.138,1.169,3.57,1.209,4.902-0.436
		c1.371-1.694,0.303-4.22,0.303-4.22s-0.492-2.198-2.09-3.745C7.232,2.345,5.367,1.927,5.367,1.927L6.285,1.136z"/>
	<path fill="#616B77" d="M4.83,2.464c0,0,1.806,0.239,3.767,2.104c1.408,1.339,2.053,2.963,2.128,4.537
		c0.043,0.914,0.091,1.851-0.729,2.653c-1.345,1.316-3.076,0.883-3.912,0.078c-0.593-0.572-0.791-1.268-0.776-2.179
		c0.02-1.201,0.248-1.985,0.537-2.671C6.106,6.366,6.87,5.29,6.87,5.29s0.239,0.185,0.415,0.356
		c0.176,0.171,0.325,0.362,0.325,0.362S6.844,6.807,6.471,8.553c-0.145,0.679-0.28,1.684,0.149,2.313
		c0.642,0.94,2.283,0.925,2.805-0.104c0.942-1.857-0.388-4.402-1.862-5.715c-1.651-1.47-3.45-1.702-3.45-1.702L4.83,2.464z"/>
</g>
</svg>
