<?xml version="1.0" encoding="UTF-8"?>
<svg width="15px" height="18px" viewBox="0 0 15 18" version="1.1" xmlns="http://www.w3.org/2000/svg" xmlns:xlink="http://www.w3.org/1999/xlink">
    <!-- Generator: Sketch 46.2 (44496) - http://www.bohemiancoding.com/sketch -->
    <title>Guardian </title>
    <desc>Created with Sketch.</desc>
    <defs></defs>
    <g id="Page-1" stroke="none" stroke-width="1" fill="none" fill-rule="evenodd">
        <g id="Guardian-" fill="#B9C1CF">
            <g id="Page-1" transform="translate(1.000000, 1.000000)">
                <path d="M3.59413416,9.15105209 L4.18979103,8.43305454 L6.01763891,10.0269469 L9.48801814,5.92986093 L10.1854119,6.54973607 L6.11726993,11.3536359 L3.59413416,9.15105209 Z M0.923423748,9.06011232 C0.923423748,11.8557449 4.88124156,15.0559425 6.49913425,15.0559425 C8.11690995,15.0559425 12.0751957,11.8553593 12.0751957,9.06011232 L12.0751957,3.2536817 L11.8820641,3.23232664 C11.1984989,3.156427 10.1564211,2.97141411 9.07543152,2.52184916 C7.97233032,2.06211285 7.1289764,1.56622237 6.61512086,1.23131432 L6.49913425,1.15543879 L6.38305405,1.23131432 C5.96571753,1.50415773 5.09119675,2.03490082 3.92400691,2.52184916 C2.84219838,2.97141411 1.80014399,3.15606546 1.11690635,3.23232664 L0.92386832,3.2536817 L0.92386832,9.06001591 L0.923423748,9.06011232 Z M6.49913425,16 C5.37436599,16 3.7612232,15.122418 2.38885149,13.7640097 C0.871057794,12.2611536 0,10.5468437 0,9.06001591 L0,2.34353684 L0.454984791,2.33589626 C0.470989399,2.33589626 1.99711298,2.30379137 3.57550892,1.64737641 C5.16916071,0.983802936 6.21725193,0.209573622 6.22766428,0.201957145 L6.49866628,0 L6.77315466,0.203837162 C6.78485394,0.21268288 7.80999118,0.975704404 9.42266599,1.64737641 C11.0080113,2.30644267 12.5349538,2.33543831 12.5505841,2.33543831 L12.996888,2.34305479 L13,9.06001591 C13,10.5463858 12.1288486,12.2610571 10.610236,13.7635277 C9.23730269,15.1223216 7.62380892,16 6.49913425,16 L6.49913425,16 Z" id="Fill-1"></path>
            </g>
        </g>
    </g>
</svg>