<?xml version="1.0" encoding="utf-8"?>
<!-- Generator: Adobe Illustrator 17.0.0, SVG Export Plug-In . SVG Version: 6.00 Build 0)  -->
<!DOCTYPE svg PUBLIC "-//W3C//DTD SVG 1.1//EN" "http://www.w3.org/Graphics/SVG/1.1/DTD/svg11.dtd">
<svg version="1.1" id="图层_1" xmlns="http://www.w3.org/2000/svg" xmlns:xlink="http://www.w3.org/1999/xlink" x="0px" y="0px"
	 width="16px" height="16px" viewBox="0 0 16 16" enable-background="new 0 0 16 16" xml:space="preserve">
<g>
	<polygon opacity="0.35" fill="#616B77" points="7.648,8.26 7.699,5.217 5.461,6.959 	"/>
	<polygon opacity="0.35" fill="#616B77" points="7.78,9.238 5.06,10.803 7.78,12.155 	"/>
	<polygon opacity="0.35" fill="#616B77" points="7.45,8.638 5.218,7.312 4.994,10.162 	"/>
	<polygon opacity="0.35" fill="#616B77" points="8.207,9.207 8.207,12.171 10.972,10.797 	"/>
	<polygon opacity="0.35" fill="#616B77" points="8.289,5.203 8.34,8.291 10.555,6.975 	"/>
	<polygon opacity="0.35" fill="#616B77" points="8.591,8.638 11.068,10.175 10.842,7.301 	"/>
	<path fill="#616B77" d="M15.042,12.975l-1.023-7.761L7.994,0.022l0,0.001l0-0.001l-6,5.158l-0.002,0l0,0.003h0l0,0l-1.033,7.796
		l0.003,0l7.034,2.998l0.001-0.002l0.001,0.002L15.042,12.975z M8.207,12.171V9.207l2.764,1.59L8.207,12.171z M8.289,5.203
		l2.266,1.771L8.34,8.291L8.289,5.203z M7.648,8.26l-2.188-1.3l2.238-1.742L7.648,8.26z M5.218,7.312L7.45,8.638l-2.456,1.524
		L5.218,7.312z M7.78,9.238v2.916l-2.72-1.352L7.78,9.238z M8.207,12.648l3.209-1.595l2.978,1.713l0.037,0.022L8.207,15.44V12.648z
		 M8.591,8.638l2.251-1.338l0.226,2.875L8.591,8.638z M10.949,6.741L8.28,4.654L8.217,0.757l5.225,4.502L10.949,6.741z M7.708,4.669
		L5.067,6.725l-2.506-1.49l5.212-4.481L7.708,4.669z M2.35,5.607l2.459,1.462l-0.265,3.373l-3.089,1.917L2.35,5.607z M1.647,12.765
		l2.968-1.707l3.165,1.573v2.807L1.589,12.8L1.647,12.765z M14.542,12.331l-3.024-1.876l-0.267-3.398l2.407-1.431L14.542,12.331z"/>
</g>
</svg>
