<?xml version="1.0" encoding="UTF-8"?>
<svg width="14px" height="15px" viewBox="0 0 14 15" version="1.1" xmlns="http://www.w3.org/2000/svg" xmlns:xlink="http://www.w3.org/1999/xlink">
    <!-- Generator: Sketch 46.2 (44496) - http://www.bohemiancoding.com/sketch -->
    <title>Workflow</title>
    <desc>Created with Sketch.</desc>
    <defs></defs>
    <g id="Page-1" stroke="none" stroke-width="1" fill="none" fill-rule="evenodd">
        <g id="Workflow" fill="#B9C1CF">
            <g id="Group-7">
                <path d="M11,3.5 L8,6 L8,1 L11,3.5 Z M0,3 L8,3 L8,4 L0,4 L0,3 Z M13,0 L14,0 L14,7 L13,7 L13,0 Z" id="Combined-Shape"></path>
                <path d="M11,11.5 L8,14 L8,9 L11,11.5 Z M0,11 L8,11 L8,12 L0,12 L0,11 Z M13,8 L14,8 L14,15 L13,15 L13,8 Z" id="Combined-Shape" transform="translate(7.000000, 11.500000) scale(-1, 1) translate(-7.000000, -11.500000) "></path>
            </g>
        </g>
    </g>
</svg>