<?xml version="1.0" encoding="utf-8"?>
<!-- Generator: Adobe Illustrator 17.0.0, SVG Export Plug-In . SVG Version: 6.00 Build 0)  -->
<!DOCTYPE svg PUBLIC "-//W3C//DTD SVG 1.1//EN" "http://www.w3.org/Graphics/SVG/1.1/DTD/svg11.dtd">
<svg version="1.1" id="图层_1" xmlns="http://www.w3.org/2000/svg" xmlns:xlink="http://www.w3.org/1999/xlink" x="0px" y="0px"
	 width="16px" height="16px" viewBox="0 0 16 16" enable-background="new 0 0 16 16" xml:space="preserve">
<g>
	<path fill="#616B77" d="M14.603,6.691c0.047,0.324,0.072,0.654,0.072,0.991c0,3.818-3.106,6.922-6.922,6.922
		c-0.193,0-0.384-0.01-0.576-0.026c-0.014,0.222-0.07,0.433-0.162,0.624c0.242,0.024,0.49,0.038,0.738,0.038
		c4.168,0,7.558-3.391,7.558-7.558c0-0.404-0.033-0.802-0.093-1.188C15.031,6.595,14.823,6.664,14.603,6.691L14.603,6.691z
		 M0.831,7.682c0-1.08,0.25-2.105,0.695-3.019C1.325,4.585,1.141,4.47,0.986,4.326C0.482,5.339,0.197,6.478,0.197,7.682
		c0,2.735,1.459,5.135,3.64,6.461c0.043-0.217,0.127-0.42,0.244-0.597C2.13,12.319,0.831,10.15,0.831,7.682L0.831,7.682z
		 M7.753,0.124c-1.746,0-3.351,0.597-4.634,1.594C3.293,1.843,3.441,2,3.556,2.182C4.722,1.291,6.177,0.76,7.753,0.76
		c2.32,0,4.376,1.149,5.632,2.905c0.172-0.129,0.367-0.224,0.58-0.281C12.597,1.415,10.325,0.124,7.753,0.124L7.753,0.124z
		 M3.167,3.556l3.63,3.45L6.341,7.486l-3.63-3.45L3.167,3.556L3.167,3.556z"/>
	<path fill="#616B77" d="M2.887,3.977l2.6,9.173l-0.637,0.18l-2.6-9.173L2.887,3.977L2.887,3.977z M6.805,13.859l-0.472-0.464
		l7.395-7.536L14.2,6.322L6.805,13.859L6.805,13.859z M8.838,7.653L8.6,7.037l4.731-1.824l0.236,0.616L8.838,7.653L8.838,7.653z
		 M13.268,5.055L3.155,3.412L3.26,2.76l10.116,1.643L13.268,5.055L13.268,5.055z M6.979,8.921l0.63,0.201l-1.396,4.375l-0.63-0.201
		L6.979,8.921L6.979,8.921z"/>
	<path fill="#616B77" d="M5.494,15.876c-0.774,0-1.407-0.63-1.407-1.405s0.63-1.407,1.407-1.407S6.9,13.695,6.9,14.471
		S6.269,15.876,5.494,15.876L5.494,15.876z M5.494,13.726c-0.41,0-0.745,0.334-0.745,0.745s0.334,0.743,0.745,0.743
		c0.411,0,0.745-0.334,0.745-0.743C6.239,14.062,5.904,13.726,5.494,13.726L5.494,13.726z M14.396,6.419
		c-0.774,0-1.405-0.63-1.405-1.405s0.63-1.405,1.405-1.405s1.407,0.63,1.407,1.405C15.803,5.79,15.172,6.419,14.396,6.419
		L14.396,6.419z M14.396,4.269c-0.41,0-0.743,0.334-0.743,0.743c0,0.409,0.334,0.743,0.743,0.743s0.745-0.333,0.745-0.742
		C15.141,4.604,14.808,4.269,14.396,4.269L14.396,4.269z M2.132,4.492c-0.774,0-1.407-0.63-1.407-1.405S1.356,1.68,2.132,1.68
		s1.405,0.63,1.405,1.407C3.537,3.864,2.907,4.492,2.132,4.492L2.132,4.492z M2.132,2.342c-0.41,0-0.745,0.334-0.745,0.745
		c0,0.411,0.334,0.743,0.745,0.743c0.41,0,0.743-0.334,0.743-0.743S2.543,2.342,2.132,2.342L2.132,2.342z M7.643,9.411
		c-0.774,0-1.405-0.63-1.405-1.405s0.63-1.405,1.405-1.405S9.05,7.232,9.05,8.006S8.419,9.411,7.643,9.411L7.643,9.411z M7.643,7.26
		C7.233,7.26,6.9,7.594,6.9,8.003c0,0.41,0.334,0.743,0.743,0.743c0.41,0,0.745-0.334,0.745-0.743S8.054,7.26,7.643,7.26L7.643,7.26
		z"/>
</g>
</svg>
