<?xml version="1.0" encoding="UTF-8"?>
<svg width="19px" height="18px" viewBox="0 0 19 18" version="1.1" xmlns="http://www.w3.org/2000/svg" xmlns:xlink="http://www.w3.org/1999/xlink">
    <!-- Generator: Sketch 46.2 (44496) - http://www.bohemiancoding.com/sketch -->
    <title>TxSQL</title>
    <desc>Created with Sketch.</desc>
    <defs></defs>
    <g id="Page-1" stroke="none" stroke-width="1" fill="none" fill-rule="evenodd">
        <g id="TxSQL" fill-rule="nonzero" fill="#B9C1CF">
            <g id="Group-10" transform="translate(1.000000, 0.000000)">
                <path d="M5.5,3.28867513 L5.5,6.71132487 L8.46410162,8.42264973 L11.4282032,6.71132487 L11.4282032,3.28867513 L8.46410162,1.57735027 L5.5,3.28867513 Z M12.4282032,2.71132487 L12.4282032,7.28867513 L8.46410162,9.57735027 L4.5,7.28867513 L4.5,2.71132487 L8.46410162,0.422649731 L12.4282032,2.71132487 Z" id="Polygon"></path>
                <path d="M10.0669873,10.7886751 L10.0669873,14.2113249 L13.0310889,15.9226497 L15.9951905,14.2113249 L15.9951905,10.7886751 L13.0310889,9.07735027 L10.0669873,10.7886751 Z M16.9951905,10.2113249 L16.9951905,14.7886751 L13.0310889,17.0773503 L9.0669873,14.7886751 L9.0669873,10.2113249 L13.0310889,7.92264973 L16.9951905,10.2113249 Z" id="Polygon"></path>
                <path d="M1.0669873,10.7886751 L1.0669873,14.2113249 L4.03108891,15.9226497 L6.99519053,14.2113249 L6.99519053,10.7886751 L4.03108891,9.07735027 L1.0669873,10.7886751 Z M7.99519053,10.2113249 L7.99519053,14.7886751 L4.03108891,17.0773503 L0.0669872981,14.7886751 L0.0669872981,10.2113249 L4.03108891,7.92264973 L7.99519053,10.2113249 Z" id="Polygon"></path>
            </g>
        </g>
    </g>
</svg>