<?xml version="1.0" encoding="UTF-8"?>
<svg width="13px" height="13px" viewBox="0 0 13 13" version="1.1" xmlns="http://www.w3.org/2000/svg" xmlns:xlink="http://www.w3.org/1999/xlink">
    <!-- Generator: Sketch 46.2 (44496) - http://www.bohemiancoding.com/sketch -->
    <title>Zeppelin</title>
    <desc>Created with Sketch.</desc>
    <defs></defs>
    <g id="Page-1" stroke="none" stroke-width="1" fill="none" fill-rule="evenodd">
        <g id="Zeppelin" stroke="#B9C1CF" stroke-width="0.4" fill="#B9C1CF">
            <path d="M6.32599388,11.1118963 C9.01529052,11.1118963 11.204893,8.9439684 11.204893,6.27782105 C11.204893,6.04278878 11.187156,5.81204095 11.1541284,5.58557757 C11.3094801,5.56721567 11.4556575,5.51886268 11.5877676,5.44786334 C11.6299694,5.71778322 11.653211,5.99565992 11.653211,6.27782105 C11.653211,9.18756955 9.26360856,11.5556421 6.32599388,11.5556421 C6.15107034,11.5556421 5.97614679,11.5458491 5.80550459,11.5293234 C5.87033639,11.3958936 5.91009174,11.2483864 5.91987768,11.0935344 C6.05504587,11.1045515 6.18960245,11.1118963 6.32599388,11.1118963 L6.32599388,11.1118963 Z M1.93700306,4.1692633 C1.62324159,4.80764523 1.4470948,5.52375918 1.4470948,6.27782105 C1.4470948,8.00139105 2.36269113,9.5162475 3.73761468,10.373136 C3.65504587,10.4967728 3.59633028,10.6381594 3.56574924,10.789951 C2.02874618,9.8638994 1,8.18807033 1,6.27782105 C1,5.43684621 1.20122324,4.6417761 1.5559633,3.93423103 C1.66544343,4.03460939 1.79510703,4.11478967 1.93700306,4.1692633 L1.93700306,4.1692633 Z M6.32599388,1.44374583 C5.21529052,1.44374583 4.18960245,1.81465613 3.3675841,2.43712442 C3.28685015,2.30981527 3.182263,2.20025595 3.05993884,2.11273091 C3.96391437,1.41681505 5.09541284,1 6.32599388,1 C8.13883792,1 9.74006116,1.90156911 10.7045872,3.27626308 C10.5541284,3.31604718 10.4165138,3.38276207 10.2954128,3.47273537 C9.41039755,2.24616069 7.96146789,1.44374583 6.32599388,1.44374583 L6.32599388,1.44374583 Z M11.0085627,3.89444692 C10.7192661,3.89444692 10.4844037,4.127643 10.4844037,4.41347652 C10.4844037,4.69869797 10.7198777,4.93189406 11.0085627,4.93189406 C11.2966361,4.93189406 11.5333333,4.69931004 11.5333333,4.41408858 C11.5333333,4.12825506 11.2984709,3.89444692 11.0085627,3.89444692 L11.0085627,3.89444692 Z M3.30091743,3.3307367 C3.28134557,3.39867572 3.26055046,3.46171823 3.22752294,3.52292455 L5.61223242,5.7679724 C5.7853211,5.62107723 6.0030581,5.52314712 6.24831804,5.52314712 C6.5235474,5.52314712 6.77247706,5.63576675 6.9529052,5.8163254 L10.0617737,4.62831071 C10.0452599,4.55731137 10.017737,4.49059648 10.017737,4.41470065 C10.017737,4.41347652 10.0183486,4.41286446 10.0183486,4.41225239 L3.30091743,3.3307367 Z M2.36391437,2.54851992 C2.07522936,2.54851992 1.83914373,2.781716 1.83914373,3.06877365 C1.83914373,3.35583129 2.07400612,3.58780325 2.36391437,3.58780325 C2.65321101,3.58780325 2.88746177,3.35460717 2.88746177,3.06877365 C2.88746177,2.78355219 2.65382263,2.54851992 2.36391437,2.54851992 L2.36391437,2.54851992 Z M4.71253823,10.0407857 C4.71987768,10.0401736 4.72599388,10.0365012 4.73394495,10.0365012 C4.77186544,10.0365012 4.80428135,10.053639 4.84159021,10.0579234 L5.72477064,7.31526819 C5.45076453,7.14083018 5.25810398,6.85071222 5.25810398,6.50428444 C5.25810398,6.37452704 5.28623853,6.2521144 5.33272171,6.13888271 L5.33088685,6.1407189 L2.95779817,3.90668818 L4.71253823,10.0407857 Z M4.73394495,11.5378923 C5.02324159,11.5378923 5.2587156,11.3046962 5.2587156,11.0188627 C5.2587156,10.7330292 5.02262997,10.4986089 4.73394495,10.4986089 C4.44464832,10.4986089 4.20856269,10.731805 4.20856269,11.0188627 C4.20856269,11.3059203 4.4440367,11.5378923 4.73394495,11.5378923 L4.73394495,11.5378923 Z M6.24831804,7.02086579 C6.53761468,7.02086579 6.77370031,6.78766971 6.77370031,6.50183619 C6.77370031,6.21661473 6.5382263,5.98341865 6.24831804,5.98341865 C5.95963303,5.98341865 5.72477064,6.21661473 5.72477064,6.50183619 C5.72477064,6.78828177 5.96024465,7.02086579 6.24831804,7.02086579 L6.24831804,7.02086579 Z M10.3847095,5.15896951 C10.3412844,5.12346984 10.3021407,5.08735811 10.2648318,5.04451369 L7.182263,6.22273537 C7.21039755,6.31332072 7.24036697,6.40451814 7.24036697,6.50428444 C7.24036697,7.04473626 6.79510703,7.48542177 6.24831804,7.48542177 C6.21896024,7.48542177 6.19388379,7.47073225 6.16513761,7.468284 L5.27889908,10.2201202 C5.29724771,10.2329735 5.31681957,10.2439907 5.33455657,10.257456 L10.3847095,5.15896951 Z M11.0085627,5.39583797 C10.9474006,5.39583797 10.8948012,5.37196751 10.8366972,5.36156243 L5.65749235,10.5916426 L5.53455657,10.4716782 C5.64525994,10.6302025 5.72477064,10.8119853 5.72477064,11.0188627 C5.72477064,11.5605386 5.28012232,12 4.73394495,12 C4.1883792,12 3.74189602,11.5599266 3.74189602,11.0188627 C3.74189602,10.6485644 3.95779817,10.3364122 4.2648318,10.1693189 L2.5058104,4.02175606 C2.45749235,4.02910082 2.41406728,4.04991097 2.36391437,4.04991097 C1.81834862,4.04991097 1.37247706,3.60983753 1.37247706,3.06877365 C1.37247706,2.52770977 1.81712538,2.0864122 2.36391437,2.0864122 C2.83792049,2.0864122 3.21590214,2.42365903 3.31314985,2.86556866 L10.1425076,3.96422212 C10.3088685,3.65329401 10.6287462,3.43356332 11.0085627,3.43356332 C11.5547401,3.43356332 12,3.87363677 12,4.41470065 C12,4.95637659 11.5553517,5.39583797 11.0085627,5.39583797 L11.0085627,5.39583797 Z" id="Page-1"></path>
        </g>
    </g>
</svg>