<?xml version="1.0" encoding="UTF-8"?>
<svg width="17px" height="16px" viewBox="0 0 17 16" version="1.1" xmlns="http://www.w3.org/2000/svg" xmlns:xlink="http://www.w3.org/1999/xlink">
    <!-- Generator: Sketch 46.2 (44496) - http://www.bohemiancoding.com/sketch -->
    <title>Transporter </title>
    <desc>Created with Sketch.</desc>
    <defs></defs>
    <g id="Page-1" stroke="none" stroke-width="1" fill="none" fill-rule="evenodd">
        <g id="Transporter-" fill="#B9C1CF">
            <g id="Group-13">
                <path d="M8,0 L16,0 L16,7 L8,7 L8,0 Z M9,1 L9,6 L15,6 L15,1 L9,1 Z" id="Combined-Shape"></path>
                <path d="M1,9 L9,9 L9,16 L1,16 L1,9 Z M2,10 L2,15 L8,15 L8,10 L2,10 Z" id="Combined-Shape"></path>
                <path d="M14.5,9 L17,12 L12,12 L14.5,9 Z M14,12 L15,12 C14.0073975,14.9778076 12.9823862,15.5 12,15.5 L10,15.5 L10,14.5 L12,14.5 C12.3509471,14.5 13.2257385,14.3227844 14,12 Z" id="Combined-Shape"></path>
                <path d="M4.5,0 L7,3 L2,3 L4.5,0 Z M4,3 L5,3 C4.00739746,5.97780762 2.98238624,6.5 2,6.5 L0,6.5 L0,5.5 L2,5.5 C2.35094709,5.5 3.22573853,5.32278442 4,3 Z" id="Combined-Shape" transform="translate(3.500000, 3.250000) rotate(-180.000000) translate(-3.500000, -3.250000) "></path>
            </g>
        </g>
    </g>
</svg>