<?xml version="1.0" encoding="UTF-8" standalone="no"?>
<svg width="1024px" height="1024px" viewBox="0 0 1024 1024" version="1.1" xmlns="http://www.w3.org/2000/svg" xmlns:xlink="http://www.w3.org/1999/xlink">
    <!-- Generator: Sketch 46.2 (44496) - http://www.bohemiancoding.com/sketch -->
    <title>TXSQL</title>
    <desc>Created with Sketch.</desc>
    <defs></defs>
    <g id="Page-1" stroke="none" stroke-width="1" fill="none" fill-rule="evenodd">
        <g id="TXSQL" fill-rule="nonzero" fill="#176EDA">
            <path d="M765.899399,615.407527 L653.580867,681.309398 L653.580867,810.609326 L546.145104,872.637393 L546.145104,612.984352 L765.899399,484.04553 L765.899399,615.407527 Z M787.386551,615.407527 L787.386551,484.04553 L1007.14085,612.984352 L1007.14085,888.757482 L776.642975,1024 L553.611132,893.138106 L666.456248,827.986948 L776.642975,892.638003 L899.705083,820.432436 L899.705083,681.309398 L787.386551,615.407527 Z M235.754295,615.407527 L123.435763,681.309398 L123.435763,820.432436 L246.497871,892.638003 L356.684599,827.986948 L469.529714,893.138106 L246.497871,1024 L16,888.757482 L16,612.984352 L235.754295,484.04553 L235.754295,615.407527 Z M257.241447,615.407527 L257.241447,484.04553 L476.995742,612.984352 L476.995742,872.637393 L369.55998,810.609326 L369.55998,681.309398 L257.241447,615.407527 Z M394.914031,340.828113 L286.959399,406.509112 L281.072552,137.886565 L507.70573,0 L736.167746,146.512727 L742.068294,415.760485 L631.195969,348.304324 L628.213114,212.193726 L506.237942,133.971029 L391.905207,203.532548 L394.914031,340.828113 Z M405.850518,360.789815 L517.177005,432.183509 L621.246285,368.866409 L730.611152,435.405413 L515.709217,566.154538 L297.895885,426.470813 L405.850518,360.789815 Z" id="Combined-Shape"></path>
        </g>
    </g>
</svg>