<?xml version="1.0" encoding="utf-8"?>
<!-- Generator: Adobe Illustrator 17.0.0, SVG Export Plug-In . SVG Version: 6.00 Build 0)  -->
<!DOCTYPE svg PUBLIC "-//W3C//DTD SVG 1.1//EN" "http://www.w3.org/Graphics/SVG/1.1/DTD/svg11.dtd">
<svg version="1.1" id="图层_1" xmlns="http://www.w3.org/2000/svg" xmlns:xlink="http://www.w3.org/1999/xlink" x="0px" y="0px"
	 width="16px" height="16px" viewBox="0 0 16 16" enable-background="new 0 0 16 16" xml:space="preserve">
<g>
	<g>
		<path fill="#616B77" d="M2.286,7.432l2.205-2.577H3.197C3.208,3.402,4.342,2.228,5.74,2.228h0.6V0.456h-0.6
			c-2.324,0-4.207,1.961-4.207,4.379c0,0.007,0,0.014,0,0.02H0.081L2.286,7.432L2.286,7.432z"/>
		<path fill="#616B77" d="M15.919,11.161l-2.205-2.577l-2.205,2.577h1.293c-0.011,1.453-1.145,2.627-2.543,2.627h-0.6v1.772h0.6
			c2.324,0,4.207-1.961,4.207-4.379c0-0.007,0-0.014,0-0.02L15.919,11.161L15.919,11.161z"/>
		<g>
			<path fill="#616B77" d="M7.81,0.444v6.662h7.268V1.252V0.44L7.81,0.444z M13.466,5.795H9.422V1.751h4.044V5.795z"/>
		</g>
		<g>
			<path fill="#616B77" d="M0.922,8.898v6.662H8.19V9.706V8.894L0.922,8.898z M6.578,14.249H2.534v-4.044h4.044V14.249z"/>
		</g>
	</g>
</g>
</svg>
