<?xml version="1.0" encoding="UTF-8"?>
<svg width="16px" height="16px" viewBox="0 0 16 16" version="1.1" xmlns="http://www.w3.org/2000/svg" xmlns:xlink="http://www.w3.org/1999/xlink">
    <!-- Generator: Sketch 46.2 (44496) - http://www.bohemiancoding.com/sketch -->
    <title>Rubik</title>
    <desc>Created with Sketch.</desc>
    <defs></defs>
    <g id="Page-1" stroke="none" stroke-width="1" fill="none" fill-rule="evenodd">
        <g id="Rubik" fill-rule="nonzero" fill="#B9C1CF">
            <path d="M7.27552686,14.9367514 C7.47092143,15.0389777 7.84045935,15.0429065 8.03840748,14.944906 L9.91054445,14.0187405 L8.07290559,13.0758778 C7.87626603,12.9752866 7.50593213,12.9736654 7.30935991,13.0719498 L5.47167595,13.9974226 L7.27552686,14.9367514 Z M6.97298361,12.4016142 C7.38378502,12.1962135 8.00544925,12.1989349 8.41487696,12.4083785 L10.3643434,13.4086182 C10.9404285,13.7052165 10.9372457,14.3473636 10.3559699,14.6351427 L8.37107027,15.6170931 C7.95837765,15.8214097 7.33592277,15.814792 6.92848905,15.6016306 L5.02371612,14.6097487 C4.45019635,14.3115944 4.45387906,13.6677913 5.03264665,13.3787821 L6.97298361,12.4016142 Z M1.33650204,7.84200136 C1.14718032,7.94647734 0.948741382,8.25361241 0.928073714,8.47578982 L0.756969697,10.3134491 L2.45067507,9.4198987 C2.63494944,9.32194555 2.82182004,9.02689837 2.83428802,8.81183187 L2.93948297,6.95339237 L1.33650204,7.84200136 Z M2.62904016,6.26795607 C3.18828555,5.95830677 3.72792315,6.30899769 3.6910894,6.94621685 L3.58306017,8.85472705 C3.55549924,9.33015317 3.21955811,9.86056555 2.80166993,10.0826967 L1.04324742,11.0103914 C0.475450866,11.3112108 -0.0532429724,10.945823 0.0043037029,10.3072589 L0.181300753,8.40629059 C0.224803341,7.93863777 0.565663276,7.41095574 0.973157418,7.18589101 L2.62904016,6.26795607 Z M3.0752847,4.51489058 L3.15938296,3.02502092 L1.70205091,3.8807016 C1.51291845,3.99135052 1.31394005,4.30647678 1.29310323,4.53047131 L1.15710119,6.00477076 L2.69157617,5.1413324 C2.87578109,5.03729508 3.06327665,4.73292511 3.0752847,4.51489058 Z M3.05995562,5.79462918 L1.44131881,6.705424 C0.877811796,7.02417544 0.342631728,6.66559712 0.402274184,6.02257741 L0.546300753,4.46129059 C0.589453356,3.99740011 0.924605676,3.46661237 1.32281553,3.2336466 L2.84932651,2.33734711 C3.4043411,2.0126447 3.94732278,2.3566082 3.91209272,2.99815813 L3.82412132,4.55664528 C3.79812649,5.02865666 3.46805029,5.56438657 3.05995562,5.79462918 Z M3.93845784,10.9526484 C3.7439464,10.8528164 3.37543102,10.8528164 3.18121023,10.952499 L1.39282444,11.8723464 L3.14411321,12.7845353 C3.33792427,12.8856262 3.70603962,12.887702 3.90138636,12.7884176 L5.72214008,11.8671635 L3.93845784,10.9526484 Z M4.24059678,13.457324 C3.82973284,13.6661459 3.2058466,13.6626278 2.79745444,13.4496125 L0.951850556,12.4882973 C0.380276652,12.1892619 0.381835152,11.5463808 0.956167189,11.2535497 L2.83845784,10.2854003 C3.2479464,10.0752324 3.87143102,10.0752324 4.28077874,10.2853281 L6.1697922,11.2538496 C6.74356034,11.5502332 6.74211436,12.1928791 6.16467011,12.4837936 L4.24059678,13.457324 Z M6.97568871,2.31902436 L6.97568871,0.789474114 L5.3143508,1.76193761 C5.13059471,1.87043523 4.94721986,2.17876662 4.93837231,2.39742561 L4.87617462,3.91055658 L6.62759073,2.92532417 C6.80530646,2.82493302 6.97568871,2.53007439 6.97568871,2.31902436 Z M6.99595562,3.57862918 L5.19648442,4.59089457 C4.640594,4.90346595 4.09743249,4.55960967 4.12500511,3.92362311 L4.18899531,2.36686335 C4.20809673,1.89478536 4.52949856,1.3543717 4.93424998,1.1153919 L6.62732651,0.124347114 C7.17411196,-0.195540972 7.72568871,0.131556867 7.72568871,0.765024358 L7.72568871,2.31902436 C7.72568871,2.79947396 7.41055072,3.3447191 6.99595562,3.57862918 Z M6.97568871,6.62602436 L6.97568871,4.71721669 L5.14933726,5.73009265 C4.96648734,5.83133505 4.78412911,6.13038481 4.77536802,6.34752968 L4.69735384,8.23270486 L6.62807576,7.21368539 C6.80638067,7.11861457 6.97568871,6.83428593 6.97568871,6.62602436 Z M6.97970235,7.87615001 L5.01824742,8.91139143 C4.45806788,9.2081753 3.92137343,8.85725969 3.9470094,8.22551903 L4.02599355,6.31690697 C4.04524074,5.8398515 4.3727288,5.30280296 4.78581465,5.07408103 L6.62657261,4.05321538 C7.17599215,3.7479823 7.72568871,4.08185137 7.72568871,4.71002436 L7.72568871,6.62602436 C7.72568871,7.11071145 7.40403115,7.65059317 6.97970235,7.87615001 Z M8.13910269,8.79099265 C7.94204221,8.69181418 7.57150922,8.69343425 7.37514781,8.79453114 L5.52626124,9.7450611 L7.33047183,10.6651709 C7.52667063,10.7655366 7.89699881,10.766231 8.09324107,10.6664911 L9.97469257,9.71349912 L8.13910269,8.79099265 Z M8.43259678,11.335324 C8.02251215,11.5437498 7.39884046,11.5425805 6.989322,11.3330905 L5.08490559,10.3618778 C4.51022925,10.0679015 4.50944538,9.42590864 5.0832296,9.12951757 L7.03203405,8.12761818 C7.44152927,7.91678896 8.06499439,7.91406301 8.47608147,8.12095888 L10.4229535,9.09939437 C11.004154,9.38904181 11.0051119,10.0338134 10.4257507,10.325753 L8.43259678,11.335324 Z M10.8169953,2.39718536 C10.8081331,2.17816322 10.6253064,1.87037483 10.44225,1.76265682 L8.77968871,0.789474159 L8.77968871,2.31902436 C8.77968871,2.53024007 8.9502243,2.82492034 9.1285453,2.92518838 L10.8801729,3.91053979 L10.8169953,2.39718536 Z M8.760893,3.57889457 C8.34524187,3.34517828 8.02968871,2.7999121 8.02968871,2.31902436 L8.02968871,0.765024358 C8.02968871,0.131556867 8.58126546,-0.195540972 9.12812744,0.1243919 L10.8218693,1.11582729 C11.2262915,1.3538036 11.5472548,1.89414452 11.5663624,2.36638288 L11.6313821,3.92386335 C11.6571198,4.55995207 11.1144443,4.90358963 10.5596488,4.59075721 L8.760893,3.57889457 Z M10.9809953,6.34718536 C10.9722773,6.13172541 10.789105,5.83206977 10.6059509,5.73004323 L8.77968871,4.71820863 L8.77968871,6.62602436 C8.77968871,6.83444193 8.94925048,7.11904057 9.12665708,7.21334519 L11.0590238,8.23271296 L10.9809953,6.34718536 Z M8.77567507,7.87615001 C8.35134626,7.65059317 8.02968871,7.11071145 8.02968871,6.62602436 L8.02968871,4.71102436 C8.02968871,4.08200349 8.5780091,3.74924417 9.12842649,4.05400549 L10.970178,5.07442301 C11.3830103,5.30439 11.7111346,5.84117585 11.730368,6.31651903 L11.8093803,8.22581948 C11.8349948,8.85703295 11.2974471,9.20826415 10.7382533,8.91145717 L8.77567507,7.87615001 Z M12.3651027,10.9149926 C12.1671562,10.8153683 11.7952212,10.8153683 11.5971934,10.9150336 L9.69472708,11.8719441 L11.5530434,12.8209521 C11.7495036,12.9211338 12.1230373,12.923464 12.3211613,12.8260279 L14.2579433,11.8661169 L12.3651027,10.9149926 Z M14.7140596,11.2559479 C15.2947109,11.5481835 15.2922968,12.1927536 14.7102161,12.4790208 L12.6531836,13.4985306 C12.242126,13.7006901 11.6196621,13.696807 11.2121358,13.4889955 L9.24590559,12.4848778 C8.66971122,12.1901249 8.67208332,11.5488671 9.25018407,11.2560151 L11.2601027,10.2450561 C11.6701562,10.0386805 12.2922212,10.0386805 12.7020596,10.2449479 L14.7140596,11.2559479 Z M14.4623008,4.52975812 C14.4413912,4.3049803 14.2430303,3.99009974 14.0540656,3.87954885 L12.5969788,3.02552595 L12.6800602,4.51432166 C12.6927553,4.73331183 12.8801897,5.03752714 13.0646709,5.14125907 L14.5993678,6.00535604 L14.4623008,4.52975812 Z M12.696893,5.79489457 C12.2883692,5.56518593 11.9587024,5.03012036 11.9312713,4.55691873 L11.8443136,2.99866454 C11.8072334,2.35717615 12.3506842,2.01243868 12.9063118,2.33749987 L14.4330509,3.23234711 C14.8316006,3.46551226 15.1659046,3.99619053 15.2090813,4.46034023 L15.3540951,6.02148966 C15.4136383,6.66529974 14.8779415,7.02410818 14.3144161,6.70562612 L12.696893,5.79489457 Z M14.8272022,8.47468158 C14.8073117,8.25396103 14.6086933,7.94654824 14.4199593,7.84204788 L12.8158937,6.95337392 L12.9210602,8.81132166 C12.9335234,9.0263121 13.1209601,9.32190242 13.3035921,9.41931095 L14.9983563,10.3129139 L14.8272022,8.47468158 Z M12.9522181,10.0819067 C12.5362471,9.86005548 12.1998427,9.32954101 12.172288,8.85421685 L12.0642528,6.94558587 C12.0292716,6.30855905 12.568573,5.9580866 13.1264181,6.26800084 L14.7833373,7.18595607 C15.1905776,7.41144151 15.5320547,7.93996465 15.5740737,8.40625889 L15.7510767,10.3072906 C15.8103966,10.9449798 15.28044,11.3114848 14.7132882,11.0104757 L12.9522181,10.0819067 Z" id="Page-1"></path>
        </g>
    </g>
</svg>