<?xml version="1.0" encoding="UTF-8"?>
<svg width="17px" height="17px" viewBox="0 0 17 17" version="1.1" xmlns="http://www.w3.org/2000/svg" xmlns:xlink="http://www.w3.org/1999/xlink">
    <!-- Generator: Sketch 46.2 (44496) - http://www.bohemiancoding.com/sketch -->
    <title>ELK</title>
    <desc>Created with Sketch.</desc>
    <defs></defs>
    <g id="Page-1" stroke="none" stroke-width="1" fill="none" fill-rule="evenodd">
        <g id="ELK" fill="#B9C1CF">
            <g id="Page-1" transform="translate(1.000000, 1.000000)">
                <path d="M12,3.123 L9.412,3.123 L9.412,1 L1,1 L1,14 L12,14 L12,12.598 L12.999,12 L12.999,14.989 L0,14.989 L0,0.001 L10.04,-1.77635684e-15 L12.999,2.567 L12.999,5.58 L12,6.216 L12,3.123 Z M7.272,6.216 C7.272,6.834 7.415,7.025 7.607,7.025 C7.795,7.024 7.938,6.834 7.938,6.216 C7.938,5.601 7.795,5.423 7.607,5.423 C7.415,5.423 7.272,5.601 7.272,6.216 Z M6.858,6.216 C6.858,5.455 7.156,5.084 7.607,5.084 C8.054,5.084 8.353,5.458 8.353,6.216 C8.353,6.974 8.054,7.366 7.607,7.366 C7.156,7.366 6.858,6.974 6.858,6.216 Z M7.272,3.202 C7.272,3.82 7.415,4.011 7.607,4.011 C7.795,4.011 7.938,3.82 7.938,3.202 C7.938,2.587 7.795,2.409 7.607,2.409 C7.415,2.409 7.272,2.587 7.272,3.202 Z M6.858,3.202 C6.858,2.442 7.156,2.07 7.607,2.07 C8.054,2.07 8.353,2.444 8.353,3.202 C8.353,3.96 8.054,4.352 7.607,4.352 C7.156,4.353 6.858,3.96 6.858,3.202 Z M7.045,8.572 L7.045,8.302 C7.266,8.26 7.418,8.204 7.558,8.118 L7.884,8.118 L7.884,9.963 L8.299,9.963 L8.299,10.316 L6.971,10.316 L6.971,9.963 L7.446,9.963 L7.446,8.572 L7.045,8.572 Z M5.287,2.567 L5.287,2.296 C5.508,2.254 5.66,2.198 5.801,2.112 L6.127,2.112 L6.127,3.957 L6.541,3.957 L6.541,4.31 L5.212,4.31 L5.212,3.957 L5.686,3.957 L5.686,2.567 L5.287,2.567 Z M5.287,5.58 L5.287,5.309 C5.508,5.268 5.66,5.211 5.8,5.126 L6.126,5.126 L6.126,6.971 L6.54,6.971 L6.54,7.324 L5.212,7.324 L5.212,6.971 L5.686,6.971 L5.686,5.58 L5.287,5.58 Z M5.514,9.208 C5.514,9.826 5.657,10.017 5.848,10.017 C6.037,10.017 6.18,9.826 6.18,9.208 C6.18,8.593 6.037,8.415 5.848,8.415 C5.657,8.415 5.514,8.593 5.514,9.208 Z M5.099,9.208 C5.099,8.448 5.398,8.076 5.848,8.076 C6.296,8.076 6.594,8.45 6.594,9.208 C6.594,9.966 6.296,10.358 5.848,10.358 C5.398,10.358 5.099,9.966 5.099,9.208 Z M3.756,6.216 C3.756,6.834 3.899,7.025 4.09,7.025 C4.279,7.024 4.422,6.834 4.422,6.216 C4.422,5.601 4.279,5.423 4.09,5.423 C3.899,5.423 3.756,5.601 3.756,6.216 Z M3.341,6.216 C3.341,5.455 3.639,5.084 4.09,5.084 C4.538,5.084 4.836,5.458 4.836,6.216 C4.836,6.974 4.538,7.366 4.09,7.366 C3.639,7.366 3.341,6.974 3.341,6.216 Z M3.756,3.202 C3.756,3.82 3.899,4.011 4.09,4.011 C4.279,4.011 4.422,3.82 4.422,3.202 C4.422,2.587 4.279,2.409 4.09,2.409 C3.899,2.409 3.756,2.587 3.756,3.202 Z M3.341,3.202 C3.341,2.442 3.639,2.07 4.09,2.07 C4.538,2.07 4.836,2.444 4.836,3.202 C4.836,3.96 4.538,4.352 4.09,4.352 C3.639,4.353 3.341,3.96 3.341,3.202 Z M3.756,9.208 C3.756,9.826 3.899,10.017 4.09,10.017 C4.279,10.017 4.422,9.826 4.422,9.208 C4.422,8.593 4.279,8.415 4.09,8.415 C3.899,8.415 3.756,8.593 3.756,9.208 Z M3.341,9.208 C3.341,8.448 3.639,8.076 4.09,8.076 C4.538,8.076 4.836,8.45 4.836,9.208 C4.836,9.966 4.538,10.358 4.09,10.358 C3.639,10.358 3.341,9.966 3.341,9.208 Z M1.77,8.572 L1.77,8.302 C1.991,8.26 2.144,8.204 2.284,8.118 L2.609,8.118 L2.609,9.963 L3.024,9.963 L3.024,10.316 L1.696,10.316 L1.696,9.963 L2.171,9.963 L2.171,8.572 L1.77,8.572 Z M1.696,6.971 L2.171,6.971 L2.171,5.58 L1.77,5.58 L1.77,5.309 C1.991,5.268 2.144,5.211 2.284,5.126 L2.609,5.126 L2.609,6.971 L3.024,6.971 L3.024,7.324 L1.696,7.324 L1.696,6.971 Z M2.663,3.202 C2.663,2.587 2.52,2.409 2.332,2.409 C2.141,2.409 1.998,2.587 1.998,3.202 C1.998,3.82 2.141,4.011 2.332,4.011 C2.519,4.011 2.663,3.82 2.663,3.202 Z M3.077,3.202 C3.077,3.96 2.779,4.352 2.331,4.352 C1.881,4.353 1.582,3.96 1.582,3.202 C1.582,2.442 1.88,2.07 2.331,2.07 C2.779,2.07 3.077,2.444 3.077,3.202 Z" id="Fill-1"></path>
                <path d="M11.5,10.375 C10.4644661,10.375 9.625,9.53553391 9.625,8.5 C9.625,7.46446609 10.4644661,6.625 11.5,6.625 C12.5355339,6.625 13.375,7.46446609 13.375,8.5 C13.375,9.53553391 12.5355339,10.375 11.5,10.375 Z M11.5,9.625 C12.1213203,9.625 12.625,9.12132034 12.625,8.5 C12.625,7.87867966 12.1213203,7.375 11.5,7.375 C10.8786797,7.375 10.375,7.87867966 10.375,8.5 C10.375,9.12132034 10.8786797,9.625 11.5,9.625 Z" id="Oval-3" fill-rule="nonzero"></path>
                <path d="M13.1464466,10.8535534 L14.1464466,11.8535534 L14.1464466,11.8535534 C14.3417088,12.0488155 14.6582912,12.0488155 14.8535534,11.8535534 L14.8535534,11.8535534 L14.8535534,11.8535534 C15.0488155,11.6582912 15.0488155,11.3417088 14.8535534,11.1464466 L13.8535534,10.1464466 L13.8535534,10.1464466 C13.6582912,9.95118446 13.3417088,9.95118446 13.1464466,10.1464466 L13.1464466,10.1464466 L13.1464466,10.1464466 C12.9511845,10.3417088 12.9511845,10.6582912 13.1464466,10.8535534 Z" id="Line-3" fill-rule="nonzero"></path>
            </g>
        </g>
    </g>
</svg>