<?xml version="1.0" encoding="UTF-8"?>
<svg width="13px" height="15px" viewBox="0 0 13 15" version="1.1" xmlns="http://www.w3.org/2000/svg" xmlns:xlink="http://www.w3.org/1999/xlink">
    <!-- Generator: Sketch 46.2 (44496) - http://www.bohemiancoding.com/sketch -->
    <title>Kafka</title>
    <desc>Created with Sketch.</desc>
    <defs></defs>
    <g id="Page-1" stroke="none" stroke-width="1" fill="none" fill-rule="evenodd">
        <g id="Kafka" fill="#B9C1CF">
            <path d="M8.08846487,11.7633341 C8.35779572,11.7633341 8.5772233,11.9878407 8.5772233,12.2635103 C8.5772233,12.5399436 8.35852959,12.7629229 8.08846487,12.7629229 C7.81913403,12.7629229 7.59897258,12.5384164 7.59897258,12.2635103 C7.59970645,11.9870771 7.81913403,11.7633341 8.08846487,11.7633341 Z M3.44452599,8.99976504 C2.63433184,8.99976504 1.97751685,8.32853618 1.97751685,7.5 C1.97751685,6.67146382 2.63433184,5.99947133 3.44452599,5.99947133 C3.76229235,5.99947133 4.05437321,6.1056156 4.29508306,6.28048637 L4.63633331,6.62946429 C4.80732537,6.87535244 4.91006738,7.17469455 4.91006738,7.5 C4.91006738,8.32853618 4.25472013,8.99976504 3.44452599,8.99976504 Z M3.44452599,13.0004112 C3.17446127,13.0004112 2.95503369,12.7759046 2.95503369,12.5009986 C2.95503369,12.2260926 3.1737274,12.001586 3.44452599,12.001586 C3.71385683,12.001586 3.93328441,12.2260926 3.93328441,12.5009986 C3.93328441,12.7759046 3.7145907,13.0004112 3.44452599,13.0004112 Z M3.44452599,1.99882519 C3.71385683,1.99882519 3.93328441,2.22333177 3.93328441,2.49823778 C3.93328441,2.77390742 3.71532457,2.99917763 3.44452599,2.99917763 C3.17446127,2.99917763 2.95503369,2.77390742 2.95503369,2.49900141 C2.95503369,2.22409539 3.1737274,1.99882519 3.44452599,1.99882519 Z M8.08846487,2.23631344 C8.35779572,2.23631344 8.5772233,2.46082002 8.5772233,2.73572603 C8.5772233,3.0121593 8.35852959,3.23513863 8.08846487,3.23513863 C7.81913403,3.23513863 7.59897258,3.01063205 7.59897258,2.73572603 C7.59897258,2.46082002 7.81913403,2.23631344 8.08846487,2.23631344 Z M10.5337247,6.99982378 C10.8030556,6.99982378 11.0224832,7.22509398 11.0224832,7.5 C11.0224832,7.77643327 10.8037894,7.99941259 10.5337247,7.99941259 C10.2643939,7.99941259 10.0442324,7.77566964 10.0442324,7.5 C10.0442324,7.2228031 10.2643939,6.99982378 10.5337247,6.99982378 Z M9.15698179,7.99941259 C9.35879645,8.58053336 9.89599039,8.99900141 10.5337247,8.99900141 C11.343185,8.99900141 12,8.32700893 12,7.49923637 C12,6.67070019 11.3439189,5.99870771 10.5337247,5.99870771 C9.89599039,5.99870771 9.35879645,6.41717575 9.15698179,6.99829652 L5.83474548,6.99829652 C5.77089866,6.68215461 5.64393889,6.38968515 5.47588231,6.12699718 L7.46027087,4.08658365 C7.65107746,4.17974624 7.86243245,4.2362547 8.08846487,4.2362547 C8.89792515,4.2362547 9.55474014,3.56426222 9.55474014,2.73572603 C9.55474014,1.90718985 8.89865902,1.235961 8.08846487,1.235961 C7.27827073,1.235961 6.62218961,1.90795348 6.62218961,2.73648966 C6.62218961,2.96786889 6.67796384,3.18397556 6.76896391,3.37946429 L4.7860431,5.41835056 C4.53065581,5.24577068 4.24371206,5.11366306 3.93255054,5.05028195 L3.93255054,3.90789474 C4.50130095,3.7009516 4.91006738,3.1519032 4.91006738,2.49976504 C4.91006738,1.67199248 4.25398626,1 3.44452599,1 C2.63506571,1 1.97751685,1.67199248 1.97751685,2.49976504 C1.97751685,3.15266682 2.38701715,3.70171523 2.95503369,3.90789474 L2.95503369,5.05028195 C1.84101675,5.28166118 1,6.28964991 1,7.5 C1,8.70958647 1.84028287,9.71833882 2.95503369,9.94971805 L2.95503369,11.0913416 C2.38628327,11.2975211 1.97751685,11.8473332 1.97751685,12.4994713 C1.97751685,13.3280075 2.63433184,14 3.44379211,14 C4.25325239,14 4.91006738,13.3280075 4.91006738,12.4994713 C4.91006738,11.8465695 4.50056708,11.2975211 3.93255054,11.0913416 L3.93255054,9.94971805 C4.23197011,9.88710056 4.5079058,9.76339286 4.75668824,9.5999765 L6.75208486,11.6518445 C6.66989125,11.8389333 6.62145573,12.0451128 6.62145573,12.264274 C6.62145573,13.0920465 7.27827073,13.764039 8.087731,13.764039 C8.89719127,13.764039 9.55400627,13.0920465 9.55400627,12.264274 C9.55400627,11.4357378 8.89792515,10.7637453 8.087731,10.7637453 C7.87344052,10.7637453 7.67162586,10.8126175 7.48815798,10.8973802 L5.49276136,8.84551222 C5.65274535,8.59046053 5.77383415,8.30715461 5.83474548,8.00093985 L9.15698179,7.99941259 Z" id="Page-1"></path>
        </g>
    </g>
</svg>