<svg xmlns="http://www.w3.org/2000/svg" xmlns:xlink="http://www.w3.org/1999/xlink" preserveAspectRatio="xMidYMid" width="19" height="19" viewBox="0 0 19 19">
  <defs>
    <style>
      .cls-1 {
        fill: #c8c8c8;
        fill-rule: evenodd;
      }
    </style>
  </defs>
  <path d="M9.501,19.000 C4.265,19.000 -0.000,14.738 -0.000,9.500 C-0.000,4.262 4.262,-0.000 9.501,-0.000 C14.740,-0.000 19.000,4.262 19.000,9.500 C19.000,14.738 14.737,19.000 9.501,19.000 ZM9.499,0.793 C4.698,0.793 0.791,4.699 0.791,9.500 C0.791,14.301 4.698,18.207 9.499,18.207 C14.300,18.207 18.207,14.301 18.207,9.500 C18.207,4.699 14.300,0.793 9.499,0.793 ZM11.527,13.030 C11.372,13.185 11.122,13.185 10.967,13.030 C10.812,12.875 10.812,12.625 10.967,12.470 L13.524,9.914 L4.502,9.914 C4.284,9.914 4.106,9.736 4.106,9.517 C4.106,9.298 4.282,9.120 4.502,9.120 L13.558,9.120 L10.967,6.530 C10.812,6.375 10.812,6.125 10.967,5.970 C11.122,5.815 11.372,5.815 11.527,5.970 L14.776,9.220 C14.850,9.294 14.892,9.396 14.892,9.500 C14.892,9.604 14.850,9.706 14.776,9.780 L11.527,13.030 Z" class="cls-1"/>
</svg>
