<svg xmlns="http://www.w3.org/2000/svg" viewBox="0 0 1024 1024"><path d="M896 832c-17.7 0-32-14.3-32-32V64H256c-17.7 0-32-14.3-32-32s14.3-32 32-32h640c17.7 0 32 14.3 32 32v768c0 17.7-14.3 32-32 32zm-96-640v768c0 35.3-28.7 64-64 64H160c-35.3 0-64-28.7-64-64V192c0-35.3 28.7-64 64-64h576c35.3 0 64 28.7 64 64zM544 352c0-17.7-14.3-32-32-32H256c-17.7 0-32 14.3-32 32s14.3 32 32 32h256c17.7 0 32-14.3 32-32zm96 160H256c-17.7 0-32 14.3-32 32s14.3 32 32 32h384c17.7 0 32-14.3 32-32s-14.3-32-32-32zm0 192H256c-17.7 0-32 14.3-32 32s14.3 32 32 32h384c17.7 0 32-14.3 32-32s-14.3-32-32-32z"/></svg>