<svg xmlns="http://www.w3.org/2000/svg" xmlns:xlink="http://www.w3.org/1999/xlink" preserveAspectRatio="xMidYMid" width="60" height="60" viewBox="0 0 60 60">
  <defs>
    <style>
      .cls-1 {
        fill: #fff;
        fill-rule: evenodd;
      }
    </style>
  </defs>
  <g>
    <path d="M25.996,36.000 L24.002,36.000 L24.002,15.985 L25.996,15.985 M36.012,40.986 L33.983,40.986 L33.983,21.003 L36.012,21.003 " class="cls-1"/>
    <path d="M16.000,39.000 L24.393,35.183 C24.720,35.074 25.076,35.099 25.384,35.255 L35.297,41.266 L44.000,37.000 L44.000,20.000 L35.607,22.817 C35.280,22.926 34.924,22.901 34.616,22.745 L24.703,16.734 L16.000,20.000 L16.000,39.000 ZM15.710,41.181 C15.314,41.314 14.878,41.247 14.539,41.000 C14.201,40.753 14.000,40.356 14.000,39.934 L14.000,19.818 C14.000,19.252 14.358,18.750 14.889,18.571 L24.393,15.068 C24.720,14.958 25.076,14.984 25.384,15.140 L35.297,21.151 L44.290,16.819 C44.686,16.686 45.122,16.753 45.461,17.000 C45.799,17.247 46.000,17.644 46.000,18.066 L46.000,38.182 C46.000,38.748 45.642,39.250 45.111,39.429 L35.607,42.932 C35.280,43.042 34.924,43.016 34.616,42.861 L24.703,37.849 L15.710,41.181 Z" class="cls-1"/>
    <path d="M30.000,60.000 C13.431,60.000 0.000,46.569 0.000,30.000 C0.000,13.431 13.431,0.000 30.000,0.000 C46.569,0.000 60.000,13.431 60.000,30.000 C60.000,46.569 46.569,60.000 30.000,60.000 ZM30.000,1.000 C13.984,1.000 1.000,13.984 1.000,30.000 C1.000,46.016 13.984,59.000 30.000,59.000 C46.016,59.000 59.000,46.016 59.000,30.000 C59.000,13.984 46.016,1.000 30.000,1.000 Z" class="cls-1"/>
  </g>
</svg>
