<svg xmlns="http://www.w3.org/2000/svg" viewBox="0 0 1024 1024"><g fill="#B9C1CF"><path d="M98.7 917.6V105.3c0-9.2 7.8-17 17-17H794c9.2 0 17 7.8 17 17V293h50V105.3c0-36.9-30-67-67-67H115.7c-36.9 0-67 30-67 67v812.3c0 36.9 30 67 67 67h81v-50h-81c-9.2 0-17-7.8-17-17z"/><path d="M615.2 454.8c-82.7 0-150.1 67.3-150.1 150.1 0 82.7 67.3 150.1 150.1 150.1 82.7 0 150.1-67.3 150.1-150.1-.1-82.8-67.4-150.1-150.1-150.1zm0 250.1c-55.2 0-100.1-44.9-100.1-100.1 0-55.2 44.9-100.1 100.1-100.1 55.2 0 100.1 44.9 100.1 100.1-.1 55.2-44.9 100.1-100.1 100.1z"/><path d="M901.8 604.8c0-45.5 23.1-87 61.9-111.1l17.7-11-7.7-19.4c-11.7-29.6-27.1-57.8-45.9-83.8L915.2 362 896 372c-18.7 9.7-38.9 14.6-60.1 14.6-72 0-130.6-58.6-130.6-130.6 0-1.4 0-2.9.1-4.7l.8-21.6-21.3-3.9c-22.9-4.2-46.3-6.3-69.7-6.3-18.4 0-36.9 1.3-55 3.9l-22.6 3.2 1.1 22.8c.1 2.2.2 4.4.2 6.6 0 72-58.6 130.6-130.6 130.6-24.2 0-47.8-6.7-68.3-19.3l-19.4-11.9-13.7 18.2c-20.4 27.1-37.1 56.8-49.6 88.3l-7.9 19.8 18.3 10.9c19.1 11.4 35.1 27.6 46.2 46.8 11.5 19.8 17.5 42.4 17.5 65.4 0 23-6.1 45.6-17.5 65.4-11.1 19.2-27.1 35.4-46.2 46.8l-18.4 11 7.9 19.8c13.2 33.1 31.1 64.3 53 92.6l13.4 17.3 18.9-11c19.9-11.6 42.6-17.7 65.7-17.7 72 0 130.6 58.6 130.6 130.6v.8l-.3 22.8 21.7 3.1c18.1 2.6 36.5 3.9 54.8 3.9 23.3 0 46.8-2.1 69.6-6.3l20.5-3.7.1-20.8c.2-71.9 58.8-130.3 130.6-130.3 20.1 0 39.5 4.5 57.4 13.3l18.6 9.1 12.4-16.7c20.3-27.2 36.9-57 49.3-88.5l7.7-19.4-17.7-11c-38.6-24-61.7-65.6-61.7-111.1zm-6.4 184.3c-19-6.7-39-10-59.5-10-48.2 0-93.5 18.7-127.6 52.8-28.9 28.9-46.9 65.9-51.7 105.8-22.8 2.8-45.9 3.3-68.9 1.4-10.3-89.9-86.8-160-179.5-160-24.3 0-48.3 4.9-70.5 14.3-9.9-14.6-18.7-29.9-26.2-45.9 18.3-14.3 33.8-32 45.5-52.1 15.9-27.4 24.3-58.7 24.3-90.5s-8.4-63.1-24.3-90.5c-11.7-20.1-27.2-37.9-45.5-52.1 6.7-14.3 14.4-28.1 23.1-41.3 23 10.3 48.1 15.6 73.6 15.6 94.7 0 172.6-73.2 180.1-166 22.5-1.8 45.3-1.3 67.7 1.4 8.1 92.1 85.7 164.6 179.9 164.6 21.4 0 42.7-3.8 62.6-11.2 7.8 12.3 14.8 25.2 21 38.4-17.8 14.3-32.9 31.9-44.2 51.8-15.4 27.1-23.5 57.9-23.5 89.2s8.1 62.1 23.5 89.2c11.3 19.9 26.4 37.5 44.2 51.8-6.9 15-15 29.5-24.1 43.3z"/></g></svg>