<svg xmlns="http://www.w3.org/2000/svg" viewBox="0 0 1024 1024"><path d="M1013.3 610.5c-5.6 28.7-23.1 46.9-44.4 46.6h-4.5c-73.4 0-133.1 58.4-133.1 130.1 0 23.6 11.5 49.5 11.6 49.9 11.3 24.9 2.6 55.5-20.3 71l-1.3.9L691 979.3l-1.3.6c-7.5 3.2-15.6 4.7-24.3 4.7-18.6 0-36.7-7.6-48.4-20.2-16-17.1-66.5-61.4-107.8-61.4-41 0-92.3 44.7-107 60.3-11.7 12.4-29.6 19.8-48 19.8-8.8 0-17.1-1.7-24.7-5l-1.3-.6L202.6 909l-1.2-.9c-22.9-15.7-31.6-46.2-20.2-71.2.1-.2 11.6-26.2 11.6-49.8C192.7 715.4 133 657 59.6 657h-5.3c-21 0-38.2-18.3-43.6-46.6-.5-2.1-10.7-55.8-10.7-98s10.2-95.9 10.7-98.1c5.5-28.7 23-47 44.4-46.6h4.5c73.4 0 133.1-58.4 133.1-130.1 0-23.6-11.5-49.6-11.7-49.9-11.3-24.9-2.5-55.5 20.4-71.1l1.3-.9 132.6-71.1 1.3-.6c7.5-3.1 15.7-4.6 24.3-4.6 18.4 0 36.4 7.2 48.2 19.4 15.7 16.1 65.2 57.8 105.4 57.8 39.8 0 89-41 104.7-56.7 11.7-11.9 29.6-19 47.8-19 8.8 0 17.2 1.6 24.7 4.8l1.3.6 128 69.5 1.3.9c22.9 15.7 31.7 46.2 20.3 71.2-.1.2-11.6 26.2-11.6 49.8 0 71.8 59.7 130.1 133.1 130.1h4.5c21.3-.5 38.8 17.9 44.4 46.6.4 2.2 10.7 55.8 10.7 98.1.3 42.1-10 95.8-10.4 98zM509.7 338.4c-97.8 0-177.3 77.7-177.3 173.4 0 95.5 79.6 173.3 177.3 173.3S687 607.3 687 511.8c0-95.7-79.5-173.4-177.3-173.4z"/></svg>