<svg xmlns="http://www.w3.org/2000/svg" viewBox="0 0 1024 1024"><path d="M942.5 903.5H427.7c-44.9 0-81.6-37.1-81.6-82.4v-5.2c0-45.3 36.7-82.4 81.6-82.4h514.8c44.8 0 81.5 37.1 81.5 82.4v5.2c0 45.3-36.7 82.4-81.5 82.4zm0-305.6H427.7c-44.9 0-81.6-37.1-81.6-82.4v-5.2c0-45.3 36.7-82.4 81.6-82.4h514.8c44.8 0 81.5 37.1 81.5 82.4v5.2c0 45.3-36.7 82.4-81.5 82.4zm0-305.7H427.7c-44.9 0-81.6-37.1-81.6-82.4v-5.1c0-45.4 36.7-82.5 81.6-82.5h514.8c44.8 0 81.5 37.1 81.5 82.5v5.1c0 45.3-36.7 82.4-81.5 82.4zM108.9 731.8v-611l122-.3v783L0 731.8h108.9z"/></svg>