<svg xmlns="http://www.w3.org/2000/svg" viewBox="0 0 1024 1024"><path d="M986.9 734.1H922c-6.1 13.2-14.7 40.5-25.8 60.1l46 43.3c14.5 14.5 14.6 37.9.1 52.3l-52 52.4c-14.5 14.4-37.2 14.4-51.7-.1l-44.5-45.8c-19.6 11.1-47 19.8-60.2 25.9V987c0 20.5-21.6 37.1-42 37.1h-74c-20.4 0-42-16.6-42-37v-64.9c-13.2-6.1-40.6-14.7-60.2-25.8l-43.3 45.9c-14.5 14.5-37.9 14.6-52.4.2l-52.4-52c-14.4-14.4-14.4-37.2.1-51.6l45.8-44.5c-11.1-19.5-19.8-46.9-25.9-60.1h-64.9c-20.5 0-37.1-21.7-37.1-42.1v-74c0-20.4 16.6-42 37.1-42h64.8c6.1-13.2 14.7-40.6 25.9-60.2l-46-43.3c-14.5-14.5-14.6-37.9-.1-52.4l52-52.3c14.5-14.5 37.2-14.5 51.7 0l44.5 45.8c19.5-11.1 46.9-19.8 60.1-25.9V323c0-20.4 21.7-37 42.1-37h74c20.4 0 42 16.6 42 37v64.9c13.2 6.1 40.6 14.7 60.2 25.8l43.3-45.9c14.5-14.5 37.9-14.6 52.4-.2l52.3 52c14.5 14.5 14.5 37.2 0 51.6l-45.8 44.5c11.1 19.5 19.8 47 25.9 60.2h64.9c20.5 0 37.1 21.6 37.1 42v74c0 20.5-16.6 42.2-37.1 42.2zM654.8 488.5c-91.9 0-166.5 74.6-166.5 166.5s74.6 166.5 166.5 166.5c92 0 166.5-74.6 166.5-166.5s-74.5-166.5-166.5-166.5zm261.6-381.2H107.3V890h148.3v107.3h-13.9v.3H0V0h1023.8v275.2H916.4V107.3z"/></svg>