<svg xmlns="http://www.w3.org/2000/svg" viewBox="0 0 1024 1024"><path d="M993 38.3c-8.5-33.9-48.8-48-77.8-28.3-109.6 74.8-250 93.9-403.2 93.9S218.3 84.8 108.8 10C79.8-9.7 39.5 4.4 31 38.3 11 116.9 0 201.6 0 290.1 0 696 347 1025 512 1025s512-329 512-734.9c0-88.5-11-173.2-31-251.8zM260 438.8c-75.9-24.6-109.6-129.4-109.6-129.4s77.8-29.9 153.7-5.3c75.9 24.5 121.1 94.3 121.1 94.3s-89.3 65-165.2 40.4zm504 0c-75.9 24.6-165.2-40.4-165.2-40.4s45.1-69.8 121.1-94.3c75.9-24.6 153.6 5.3 153.6 5.3S839.9 414.2 764 438.8z"/></svg>