<svg xmlns="http://www.w3.org/2000/svg" xmlns:xlink="http://www.w3.org/1999/xlink" preserveAspectRatio="xMidYMid" width="60" height="60" viewBox="0 0 60 60">
  <defs>
    <style>
      .cls-1 {
        fill: #fff;
        fill-rule: evenodd;
      }
    </style>
  </defs>
  <g>
    <path d="M30.000,60.000 C13.431,60.000 0.000,46.569 0.000,30.000 C0.000,13.431 13.431,0.000 30.000,0.000 C46.569,0.000 60.000,13.431 60.000,30.000 C60.000,46.569 46.569,60.000 30.000,60.000 ZM30.000,1.000 C13.984,1.000 1.000,13.984 1.000,30.000 C1.000,46.016 13.984,59.000 30.000,59.000 C46.016,59.000 59.000,46.016 59.000,30.000 C59.000,13.984 46.016,1.000 30.000,1.000 Z" class="cls-1"/>
    <path d="M18.504,30.988 C17.680,30.988 17.012,30.492 17.012,29.880 L17.012,26.047 C17.048,25.454 17.705,24.988 18.504,24.988 C19.302,24.988 19.959,25.454 19.996,26.047 L19.996,29.879 C19.997,30.491 19.329,30.987 18.505,30.988 L18.504,30.988 ZM39.736,42.000 L20.441,42.000 C18.642,42.000 17.177,40.581 17.177,38.835 L17.177,38.313 C17.177,37.726 17.664,37.251 18.265,37.251 C18.866,37.251 19.353,37.726 19.353,38.313 L19.353,38.835 C19.353,39.410 20.400,40.000 21.000,40.000 L39.000,40.000 C39.601,40.000 40.999,39.586 41.000,39.000 L41.000,19.000 C41.000,18.414 39.601,18.001 39.000,18.000 L21.000,18.000 C20.369,18.000 19.353,18.463 19.353,18.691 L19.353,18.626 C19.371,19.017 19.168,19.385 18.824,19.586 C18.479,19.787 18.050,19.787 17.706,19.586 C17.362,19.385 17.158,19.017 17.177,18.626 L17.177,18.691 C17.177,17.207 18.641,16.000 20.441,16.000 L39.735,16.000 C41.538,16.003 42.998,16.617 43.000,18.376 L43.000,38.813 C42.997,40.571 41.538,41.997 39.736,42.000 L39.736,42.000 ZM19.813,22.995 L16.182,22.995 C15.527,22.980 15.005,22.538 15.005,21.999 C15.005,21.459 15.527,21.018 16.182,21.003 L19.813,21.003 C20.467,21.020 20.986,21.461 20.986,21.999 C20.986,22.537 20.467,22.977 19.813,22.995 L19.813,22.995 ZM19.822,35.002 L16.206,35.002 C15.540,35.002 15.000,34.556 15.000,34.006 C15.000,33.456 15.540,33.010 16.206,33.010 L19.822,33.010 C20.480,33.018 21.008,33.462 21.008,34.006 C21.008,34.550 20.480,34.993 19.822,35.002 L19.822,35.002 Z" class="cls-1"/>
    <path d="M30.490,21.991 C31.565,21.991 32.420,22.321 33.057,22.982 C33.693,23.643 34.011,24.477 34.011,25.484 C34.011,26.490 33.888,27.246 33.642,27.750 C33.395,28.253 33.000,28.756 32.457,29.259 C31.916,29.763 31.590,30.146 31.481,30.409 C31.372,30.671 31.318,31.074 31.318,31.619 C31.318,32.532 30.944,32.989 30.194,32.989 C29.405,32.989 29.011,32.495 29.011,31.510 C29.011,30.628 29.089,29.991 29.247,29.598 C29.405,29.205 29.701,28.845 30.135,28.520 C30.717,28.080 31.136,27.655 31.392,27.246 C31.649,26.836 31.777,26.239 31.777,25.452 C31.777,25.085 31.664,24.768 31.437,24.500 C31.210,24.233 30.942,24.099 30.631,24.099 C30.320,24.099 30.031,24.249 29.766,24.548 C29.499,24.846 29.312,25.258 29.203,25.783 C29.075,26.422 28.719,26.743 28.138,26.743 C27.733,26.743 27.442,26.615 27.265,26.356 C27.088,26.101 26.999,25.772 26.999,25.373 C26.999,24.975 27.119,24.488 27.361,23.911 C27.602,23.333 27.992,22.870 28.531,22.518 C29.067,22.167 29.720,21.991 30.490,21.991 L30.490,21.991 ZM29.996,34.004 C30.266,34.004 30.500,34.101 30.697,34.297 C30.895,34.493 30.994,34.727 30.994,35.000 C30.994,35.273 30.895,35.510 30.697,35.709 C30.500,35.909 30.266,36.008 29.996,36.008 C29.733,36.011 29.480,35.903 29.300,35.709 C29.111,35.523 29.006,35.267 29.009,35.001 C29.009,34.727 29.105,34.493 29.299,34.297 C29.493,34.101 29.725,34.004 29.995,34.004 L29.996,34.004 Z" class="cls-1"/>
  </g>
</svg>
