<svg xmlns="http://www.w3.org/2000/svg" viewBox="0 0 1024 1024"><path d="M896 1020.9V893.4h128V1021H896zm43-720.2C928.7 290.5 721.7 83.6 721.7 83.6s54.3-49.8 57.5-53.1c3.3-3.3 73.9-65 164.6 8.1 21.7 18.9 111.9 106.1 68.4 185.7-11.3 16.8-21.6 25.5-73.2 76.4zM359.7 879.9l-44 39s-16.3 17.9-62.8 35.7c-46.4 17.9-114 43.1-193.9 61-22.8 3.2-63.5 10.6-58.7-41.5 4.9-52 38.3-141.3 57-199 23.6-54.4 41.5-70.7 74.9-105.6C165.7 634.6 633 170.2 633 170.2l217.3 217.1-490.6 492.6zm152.3 141H384V893.4h128v127.5zm256 0H640V893.4h128v127.5z"/></svg>