<svg xmlns="http://www.w3.org/2000/svg" viewBox="0 0 16 16"><path d="M13.794,14.724h-0.528c-0.093-1.864-0.527-3.269-1.158-4.322l-0.008-0.021 c-0.663-1.102-1.539-1.821-2.462-2.26c0.922-0.446,1.799-1.158,2.462-2.258l0.008-0.022c0.652-1.097,1.101-2.579,1.169-4.565h0.518c0.354,0,0.632-0.269,0.632-0.607c0-0.338-0.279-0.607-0.632-0.607H2.205c-0.349,0-0.632,0.269-0.632,0.607s0.282,0.607,0.632,0.607 h0.519C2.8,3.261,3.239,4.744,3.893,5.841l0.013,0.022c0.662,1.101,1.534,1.812,2.46,2.258c-0.926,0.438-1.798,1.157-2.46,2.259 l-0.013,0.021c-0.626,1.054-1.062,2.458-1.155,4.322H2.205c-0.349,0-0.632,0.269-0.632,0.599c0,0.346,0.282,0.616,0.632,0.616 h11.588c0.354,0,0.632-0.27,0.632-0.616C14.426,14.993,14.148,14.724,13.794,14.724L13.794,14.724z M4.546,10.77l0.009-0.026 c0.761-1.266,1.591-1.941,2.693-2.272l0.043-0.025H7.3c0.023-0.009,0.044-0.017,0.064-0.035l0.008-0.008l0.026-0.018l0.004-0.009 l0.027-0.025l0.005-0.009C7.452,8.324,7.46,8.303,7.479,8.281V8.273c0.018-0.027,0.027-0.057,0.027-0.087l0.004-0.008V8.151 L7.515,8.13V8.113L7.511,8.091V8.073L7.506,8.056c0-0.03-0.008-0.061-0.027-0.087V7.961C7.46,7.935,7.452,7.917,7.434,7.9 L7.429,7.887L7.402,7.865H7.398L7.372,7.84L7.364,7.831C7.344,7.818,7.323,7.805,7.3,7.792L7.291,7.787L7.248,7.77 C6.146,7.449,5.316,6.764,4.555,5.49L4.546,5.481C3.954,4.479,3.552,3.114,3.481,1.276h9.039c-0.063,1.838-0.466,3.203-1.065,4.205L11.446,5.49c-0.756,1.275-1.591,1.96-2.683,2.28L8.709,7.787L8.699,7.792c-0.022,0.013-0.04,0.026-0.064,0.039L8.628,7.84 L8.601,7.865L8.57,7.887L8.566,7.9c-0.014,0.017-0.027,0.035-0.037,0.06L8.52,7.969c-0.01,0.029-0.018,0.058-0.027,0.087v0.13 c0.009,0.03,0.018,0.061,0.027,0.087l0.009,0.008c0.01,0.022,0.022,0.042,0.037,0.061L8.57,8.351l0.031,0.026v0.009l0.027,0.018 l0.008,0.008c0.019,0.017,0.041,0.026,0.064,0.035h0.009l0.054,0.025c1.093,0.33,1.927,1.006,2.683,2.272l0.009,0.026 c0.317,0.521,0.571,1.154,0.76,1.89c0.04,0.21,0.175,0.672,0.212,1.27c-0.601-0.516-2.286-0.894-4.3-0.924V7.263 c0.02-0.006,0.04-0.013,0.06-0.022l0.004-0.009l0.107-0.039l0.01-0.005h0.009c0.73-0.221,1.32-0.572,1.803-1.032 c0.521-0.494,0.914-1.109,1.181-1.786c0.073-0.191-0.016-0.399-0.213-0.468c-0.197-0.078-0.416,0.018-0.493,0.209 c-0.236,0.577-0.563,1.106-1.007,1.526c-0.394,0.373-0.881,0.667-1.489,0.85L8.08,6.495L8.036,6.504L8,6.521L7.963,6.504 L7.936,6.495L7.901,6.487c-0.599-0.182-1.095-0.476-1.486-0.85c-0.447-0.421-0.773-0.949-1.01-1.526 C5.334,3.92,5.109,3.825,4.922,3.903C4.724,3.972,4.634,4.18,4.706,4.371c0.27,0.677,0.654,1.292,1.182,1.786 c0.474,0.46,1.074,0.811,1.799,1.032h0.004l0.013,0.005l0.099,0.039L7.83,7.241c0.013,0.007,0.028,0.013,0.045,0.02v5.743 c-1.888,0-3.52,0.306-4.299,0.751c0.027-0.294,0.089-0.627,0.208-1.096C3.972,11.915,4.231,11.291,4.546,10.77L4.546,10.77z"/></svg>
