<?xml version="1.0" encoding="UTF-8" standalone="no"?>
<svg width="1024px" height="1024px" viewBox="0 0 1024 1024" version="1.1" xmlns="http://www.w3.org/2000/svg" xmlns:xlink="http://www.w3.org/1999/xlink">
    <!-- Generator: Sketch 46.2 (44496) - http://www.bohemiancoding.com/sketch -->
    <title>数据分析与挖掘 简化</title>
    <desc>Created with Sketch.</desc>
    <defs></defs>
    <g id="Page-1" stroke="none" stroke-width="1" fill="none" fill-rule="evenodd">
        <g id="数据分析与挖掘-简化" fill="#B9C1CF">
            <g id="Group-26" transform="translate(77.000000, 25.000000)">
                <path d="M682.50566,51.8 L870.4,51.8 L870.4,90.2 L870.4,947.8 L870.4,973.4 L0,973.4 L0,947.8 L0,90.2 L0,51.8 L186.928302,51.8 L186.928302,0.6 L682.50566,0.6 L682.50566,51.8 Z M682.50566,103 L682.50566,129.083019 L186.928302,129.083019 L186.928302,103 L51.2,103 L51.2,922.2 L819.2,922.2 L819.2,103 L682.50566,103 Z M230.4,39 L230.4,90.2 L640,90.2 L640,39 L230.4,39 Z" id="Combined-Shape"></path>
                <polygon id="Path-23" fill-rule="nonzero" points="470.019036 600.220216 657.876941 412.362311 621.673074 376.158444 470.019036 527.812481 386.683231 444.476677 194.426368 636.73354 230.630235 672.937407 386.683231 516.884411"></polygon>
                <polygon id="Path-6" transform="translate(637.584906, 394.260377) scale(-1, 1) translate(-637.584906, -394.260377) " points="598.943396 432.901887 598.943396 355.618868 676.226415 355.618868"></polygon>
            </g>
        </g>
    </g>
</svg>