<?xml version="1.0" encoding="UTF-8" standalone="no"?>
<svg width="1024px" height="1024px" viewBox="0 0 1024 1024" version="1.1" xmlns="http://www.w3.org/2000/svg" xmlns:xlink="http://www.w3.org/1999/xlink">
    <!-- Generator: Sketch 46.2 (44496) - http://www.bohemiancoding.com/sketch -->
    <title>信息检索 简化</title>
    <desc>Created with Sketch.</desc>
    <defs></defs>
    <g id="Page-1" stroke="none" stroke-width="1" fill="none" fill-rule="evenodd">
        <g id="信息检索-简化" fill="#B9C1CF">
            <g id="Group" transform="translate(14.000000, 60.000000)">
                <rect id="Rectangle-36" x="180.705882" y="240.941176" width="542.117647" height="60.2352941"></rect>
                <rect id="Rectangle" x="0" y="0" width="903.529412" height="60.2352941"></rect>
                <rect id="Rectangle-Copy" x="0" y="843.294118" width="903.529412" height="60.2352941"></rect>
                <rect id="Rectangle-2" x="0" y="0" width="60.2352941" height="903.529412"></rect>
                <rect id="Rectangle-2-Copy" x="843.294118" y="0" width="60.2352941" height="481.882353"></rect>
                <rect id="Rectangle-2-Copy-2" x="843.294118" y="662.588235" width="60.2352941" height="180.705882"></rect>
                <path d="M745.196639,693.566387 C814.582167,693.566387 870.830252,637.318302 870.830252,567.932773 C870.830252,498.547244 814.582167,442.29916 745.196639,442.29916 C675.81111,442.29916 619.563025,498.547244 619.563025,567.932773 C619.563025,637.318302 675.81111,693.566387 745.196639,693.566387 Z M745.196639,753.801681 C642.544076,753.801681 559.327731,670.585336 559.327731,567.932773 C559.327731,465.28021 642.544076,382.063866 745.196639,382.063866 C847.849202,382.063866 931.065546,465.28021 931.065546,567.932773 C931.065546,670.585336 847.849202,753.801681 745.196639,753.801681 Z" id="Oval-9" fill-rule="nonzero"></path>
                <polygon id="Path-41" fill-rule="nonzero" points="847.812851 713.141771 963.261605 828.590524 1005.85439 785.997739 890.405636 670.548986"></polygon>
            </g>
        </g>
    </g>
</svg>