<svg xmlns="http://www.w3.org/2000/svg" viewBox="0 0 1024 1024"><path d="M992 544c-17.7 0-32-14.3-32-32 0-247-201-448-448-448-121.2 0-234.7 47.6-319.6 134.1-12.4 12.6-32.6 12.7-45.3.4-12.6-12.4-12.8-32.6-.4-45.3C243.8 54.4 373.5 0 512 0c282.3 0 512 229.7 512 512 0 17.7-14.3 32-32 32zM512 960c109.4 0 214.7-39.8 296.5-112.2 13.3-11.6 33.5-10.4 45.2 2.8 11.7 13.2 10.5 33.5-2.8 45.2C757.4 978.5 637 1024 512 1024 229.7 1024 0 794.3 0 512c0-17.7 14.3-32 32-32s32 14.3 32 32c0 247 201 448 448 448zm201-413.6c-11.9 0-22.8-6.6-28.3-17l-16.3-30.9-66.9 211.2c-4.3 13.4-16.7 22.3-30.5 22.3-1 0-2 0-3-.1-15-1.4-27-13.1-28.8-28l-29.5-240.5-52.6 149.3c-4.7 13.4-17 22.9-31.9 21.3-14.2-.8-26.2-10.8-29.4-24.7L374 515.8l-12.4 24.9c-5.4 10.8-16.5 17.7-28.7 17.7H177c-17.7 0-32-14.3-32-32s14.3-32 32-32h136.2l43.2-86.7c6-12 18.8-19.1 32.4-17.5 13.4 1.5 24.4 11.4 27.5 24.5l17.1 73.3 61.5-174.6c5-14 18.7-22.7 33.7-21.2 14.8 1.6 26.5 13.2 28.3 27.9l28.2 230.1 45.6-143.9c3.9-12.3 14.8-21.1 27.6-22.2 13.1-1.2 25.2 5.6 31.2 16.9l43 81.4H847c17.7 0 32 14.3 32 32s-14.3 32-32 32H713z"/></svg>