<svg xmlns="http://www.w3.org/2000/svg" viewBox="0 0 1024 1024"><path d="M511.6 1024C263.6 1024 0 949.7 0 812.1V710.7c0-17.7 14.3-32 32-32s32 14.3 32 32v101.4C64 873.9 234.3 960 511.6 960 789.4 960 960 873.9 960 812.1V710.7c0-17.7 14.3-32 32-32s32 14.3 32 32v101.4c0 137.6-264 211.9-512.4 211.9zm0-269.9C263.6 754.1 0 679.8 0 542.2V440.8c0-17.7 14.3-32 32-32s32 14.3 32 32v101.4c0 61.8 170.3 148 447.6 148 277.8 0 448.4-86.2 448.4-148V440.8c0-17.7 14.3-32 32-32s32 14.3 32 32v101.4c0 137.6-264 211.9-512.4 211.9zm0-269.9C263.6 484.2 0 410 0 272.3v-60.4C0 74.3 263.6 0 511.6 0 760 0 1024 74.3 1024 211.9v60.4c0 137.7-264 211.9-512.4 211.9zM960 211.9C960 142.1 768.2 64 511.6 64 255.4 64 64 142.1 64 211.9v60.4c0 61.8 170.3 147.9 447.6 147.9C789.4 420.2 960 334 960 272.3v-60.4z"/></svg>