<svg xmlns="http://www.w3.org/2000/svg" viewBox="0 0 1024 1024"><path d="M995.5 547.9L842.3 700.4c-13 13-34.8 30.4-39.2 28.4-4.4-2.3-13.2-8.8-19.8-15.4-6.5-6.5-15.2-17.4-17.3-21.6v-4.4c6.4-28.3-2.3-58.8-21.8-78.4-35-34.7-91.9-32.6-128.9 4.4-37.2 36.9-39.6 93.6-4.4 128.4 21.8 19.6 50.2 28.3 78.7 21.8h4.4c6.6 4.4 15.3 11 21.9 17.4 6.5 6.5 17.4 21.7 15.2 26.2 0 4.3-13.1 19.6-28.4 34.8L549.3 994.2c-13.2 13.1-35 30.6-39.5 28.3-4.3 0-19.6-13.1-34.9-28.3L310.8 831c-15.3-15.2-32.7-21.7-39.3-13.1-6.5 8.8-11 30.5-11 50 0 0 0 28.4-21.9 50-34.9 34.7-91.8 32.6-129-4.3-37.1-36.9-39.4-93.6-4.4-128.4 24.1-24.1 50.2-21.7 50.2-21.7 19.8 2.1 43.8-4.3 50.4-10.9 6.5-6.6 2.2-23.9-13.1-39.3L28.6 550.1C15.5 537-2 515.2.2 510.7c0-4.2 13.2-19.6 28.4-34.7l164.1-163.3c15.3-15.2 21.8-32.6 13.1-39.1-8.7-6.6-30.6-11-50.4-11 0 0-28.3 0-50.3-21.7-35-34.8-32.7-91.4 4.4-128.4 37.2-37 94.1-39.2 126.9-6.5 24.1 23.9 21.9 50.1 21.9 50.1-2.1 19.6 4.4 43.5 11 50 6.5 6.6 24.1 2.3 39.3-13L472.8 29.9c13.1-13.2 35-30.6 39.4-28.5 4.4 0 19.6 13.1 35 28.5l164.2 163.2c15.2 13.1 32.7 19.6 39.3 13.1 6.6-6.4 11-28.3 11-47.8 0 0 0-28.4 21.7-50.1 35-34.9 94.1-32.7 129 2.2 37.3 37 39.4 93.6 4.6 128.4-24.3 24-50.4 21.8-50.4 21.8-19.7 0-41.6 4.4-48.2 10.9-6.4 8.7-2.2 24 13.1 39.2L995.7 474c13 13 28.3 34.8 28.3 39.2-.2 4.3-13.2 19.5-28.5 34.7z"/></svg>