<svg xmlns="http://www.w3.org/2000/svg" viewBox="0 0 1024 1024"><path d="M994.4 647.4c16.4 0 29.6 13 29.6 29v159.7c0 14.5-7.7 28.1-20.2 35.5L781.1 1003c-6.4 3.8-13.7 5.8-21 5.8-2.2 0-4.4-.2-6.5-.5-8.1.3-15.6-2-22.5-6.2L516.3 870.9c-12.5-7.7-19.8-20.8-19.8-35.2V603.3c-.9-15.4 8.1-30.8 22.8-38.3l221.1-112c12.1-6 26.3-6 38.3-.1L999.8 565c14.5 7.4 20.2 24.9 12.7 39.1-.9 1.7-2.4 2.9-3.6 4.4l.4.7-2 1.1c-4 4.2-8.9 7-14.5 8.3l-192 110c-3.6 2.1-7.5 3.2-11.4 4.6l-3.3 199.1L964.7 827V676.4c0-16 13.3-29 29.7-29zM555.8 826.6l171.1 104.5 3.3-198c-3.5-1.4-7.2-2.4-10.5-4.2l-163.9-92.1v189.8zm367.3-235.2l-163.5-82.9L594.8 592l154.3 86.7c6.7 3.8 15 3.7 21.7-.1l152.3-87.2zm-246 199.1c-5.2 0-10.5-1.3-15.2-4.1l-43.5-25.5c-14-8.2-18.6-26.1-10.2-39.8 8.4-13.7 26.7-18.2 40.7-9.9l43.4 25.5c14 8.3 18.6 26.1 10.2 39.8-5.5 9-15.4 14-25.4 14zM467 453.9c-226.4 0-467-67.3-467-192v-54.7c0-124.7 240.6-192 467-192 226.8 0 467.7 67.3 467.7 192v54.7c0 124.7-241 192-467.7 192zm409.3-246.7c0-63.3-175.1-134-409.3-134-233.8 0-408.6 70.7-408.6 134v54.7c0 56 155.4 134 408.6 134 253.6 0 409.3-78.1 409.3-134v-54.7zM29.2 385.6c16.1 0 29.2 12.9 29.2 29v91.9c0 55.9 155.4 134 408.6 134h.4v58h-.4c-226.4 0-467-67.3-467-192v-91.9c0-16.1 13.1-29 29.2-29zm0 244.5c16.1 0 29.2 13 29.2 29V751c0 56 155.4 134 408.6 134h.4v58h-.4C240.6 943 0 875.7 0 751v-91.9c0-16 13.1-29 29.2-29z"/></svg>