<svg xmlns="http://www.w3.org/2000/svg" viewBox="0 0 1024 1024"><path d="M881.3 1024H718.7c-78.8 0-142.7-63.9-142.7-142.7V576h305.3c78.8 0 142.7 63.9 142.7 142.7v162.7c0 78.7-63.9 142.6-142.7 142.6zM960 718.7c0-43.4-35.3-78.7-78.7-78.7H640v241.4c0 43.4 35.3 78.7 78.7 78.7h162.7c43.4 0 78.7-35.3 78.7-78.7V718.7zM881.3 448H576V142.7C576 63.9 639.9 0 718.7 0h162.7C960.1 0 1024 63.9 1024 142.7v162.7c0 78.7-63.9 142.6-142.7 142.6zM960 142.7c0-43.4-35.3-78.7-78.7-78.7H718.7c-43.4 0-78.7 35.3-78.7 78.7V384h241.3c43.4 0 78.7-35.3 78.7-78.7V142.7zM305.3 1024H142.7C63.9 1024 0 960.1 0 881.3V718.7C0 639.9 63.9 576 142.7 576H448v305.4c0 78.7-63.9 142.6-142.7 142.6zM384 640H142.7C99.3 640 64 675.3 64 718.7v162.7c0 43.4 35.3 78.7 78.7 78.7h162.7c43.4 0 78.7-35.3 78.7-78.7V640zM0 305.3V142.7C0 63.9 63.9 0 142.7 0h162.7C384.1 0 448 63.9 448 142.7V448H142.7C63.9 448 0 384.1 0 305.3zm384-162.6c0-43.4-35.3-78.7-78.7-78.7H142.7C99.3 64 64 99.3 64 142.7v162.7c0 43.4 35.3 78.7 78.7 78.7H384V142.7z"/></svg>