
<svg width="1024px" height="1024px" viewBox="0 0 1024 1024" version="1.1">
    <defs>
        <path d="M86.6069652,173.21393 C38.7752591,173.21393 0,134.438671 0,86.6069652 C0,38.7752591 38.7752591,0 86.6069652,0 C134.438671,0 173.21393,38.7752591 173.21393,86.6069652 C173.21393,134.438671 134.438671,173.21393 86.6069652,173.21393 Z M86.6069652,152.835821 C123.184152,152.835821 152.835821,123.184152 152.835821,86.6069652 C152.835821,50.0297782 123.184152,20.3781095 86.6069652,20.3781095 C50.0297782,20.3781095 20.3781095,50.0297782 20.3781095,86.6069652 C20.3781095,123.184152 50.0297782,152.835821 86.6069652,152.835821 Z" id="path-1"></path>
    </defs>
    <g id="Page-1" stroke="none" stroke-width="1" fill="none" fill-rule="evenodd">
        <g id="数据分析与挖掘">
            <g id="Group-36" transform="translate(0.000000, 209.000000)">
                <g id="Group-10" transform="translate(514.547264, 0.000000)">
                    <path d="M10.1890547,5.09452736 C7.37542496,5.09452736 5.09452736,7.37542496 5.09452736,10.1890547 L5.09452736,275.104478 C5.09452736,277.918107 7.37542496,280.199005 10.1890547,280.199005 L499.263682,280.199005 C502.077311,280.199005 504.358209,277.918107 504.358209,275.104478 L504.358209,10.1890547 C504.358209,7.37542496 502.077311,5.09452736 499.263682,5.09452736 L10.1890547,5.09452736 Z M10.1890547,0 L499.263682,0 C504.890941,-1.03371081e-15 509.452736,4.56179519 509.452736,10.1890547 L509.452736,275.104478 C509.452736,280.731737 504.890941,285.293532 499.263682,285.293532 L10.1890547,285.293532 C4.56179519,285.293532 6.89140538e-16,280.731737 0,275.104478 L0,10.1890547 C-6.89140538e-16,4.56179519 4.56179519,1.03371081e-15 10.1890547,0 Z" id="Rectangle-55" fill="#D7E1E7" fill-rule="nonzero"></path>
                    <path d="M10.1890547,5.09452736 C7.37542496,5.09452736 5.09452736,7.37542496 5.09452736,10.1890547 L5.09452736,275.104478 C5.09452736,277.918107 7.37542496,280.199005 10.1890547,280.199005 L499.263682,280.199005 C502.077311,280.199005 504.358209,277.918107 504.358209,275.104478 L504.358209,10.1890547 C504.358209,7.37542496 502.077311,5.09452736 499.263682,5.09452736 L10.1890547,5.09452736 Z" id="Path" fill="#FFFFFF"></path>
                    <g id="Group-29" transform="translate(30.567164, 45.850746)">
                        <rect id="Rectangle-36" fill="#EFF6FA" x="5.09452736" y="188.497512" width="438.129353" height="5.09452736"></rect>
                        <path d="M5.09452736,147.741294 L15.2835821,147.741294 L15.2835821,142.646766 L5.09452736,142.646766 L5.09452736,147.741294 Z M25.4726368,147.741294 L35.6616915,147.741294 L35.6616915,142.646766 L25.4726368,142.646766 L25.4726368,147.741294 Z M45.8507463,147.741294 L56.039801,147.741294 L56.039801,142.646766 L45.8507463,142.646766 L45.8507463,147.741294 Z M66.2288557,147.741294 L76.4179104,147.741294 L76.4179104,142.646766 L66.2288557,142.646766 L66.2288557,147.741294 Z M86.6069652,147.741294 L96.7960199,147.741294 L96.7960199,142.646766 L86.6069652,142.646766 L86.6069652,147.741294 Z M106.985075,147.741294 L117.174129,147.741294 L117.174129,142.646766 L106.985075,142.646766 L106.985075,147.741294 Z M127.363184,147.741294 L137.552239,147.741294 L137.552239,142.646766 L127.363184,142.646766 L127.363184,147.741294 Z M147.741294,147.741294 L157.930348,147.741294 L157.930348,142.646766 L147.741294,142.646766 L147.741294,147.741294 Z M168.119403,147.741294 L178.308458,147.741294 L178.308458,142.646766 L168.119403,142.646766 L168.119403,147.741294 Z M188.497512,147.741294 L198.686567,147.741294 L198.686567,142.646766 L188.497512,142.646766 L188.497512,147.741294 Z M208.875622,147.741294 L219.064677,147.741294 L219.064677,142.646766 L208.875622,142.646766 L208.875622,147.741294 Z M229.253731,147.741294 L239.442786,147.741294 L239.442786,142.646766 L229.253731,142.646766 L229.253731,147.741294 Z M249.631841,147.741294 L259.820896,147.741294 L259.820896,142.646766 L249.631841,142.646766 L249.631841,147.741294 Z M270.00995,147.741294 L280.199005,147.741294 L280.199005,142.646766 L270.00995,142.646766 L270.00995,147.741294 Z M290.38806,147.741294 L300.577114,147.741294 L300.577114,142.646766 L290.38806,142.646766 L290.38806,147.741294 Z M310.766169,147.741294 L320.955224,147.741294 L320.955224,142.646766 L310.766169,142.646766 L310.766169,147.741294 Z M331.144279,147.741294 L341.333333,147.741294 L341.333333,142.646766 L331.144279,142.646766 L331.144279,147.741294 Z M351.522388,147.741294 L361.711443,147.741294 L361.711443,142.646766 L351.522388,142.646766 L351.522388,147.741294 Z M371.900498,147.741294 L382.089552,147.741294 L382.089552,142.646766 L371.900498,142.646766 L371.900498,147.741294 Z M392.278607,147.741294 L402.467662,147.741294 L402.467662,142.646766 L392.278607,142.646766 L392.278607,147.741294 Z M412.656716,147.741294 L422.845771,147.741294 L422.845771,142.646766 L412.656716,142.646766 L412.656716,147.741294 Z M433.034826,147.741294 L441.252294,147.741294 L441.252294,142.646766 L433.034826,142.646766 L433.034826,147.741294 Z" id="Path-9" fill="#EFF6FA" fill-rule="nonzero"></path>
                        <path d="M5.09452736,101.890547 L15.2835821,101.890547 L15.2835821,96.7960199 L5.09452736,96.7960199 L5.09452736,101.890547 Z M25.4726368,101.890547 L35.6616915,101.890547 L35.6616915,96.7960199 L25.4726368,96.7960199 L25.4726368,101.890547 Z M45.8507463,101.890547 L56.039801,101.890547 L56.039801,96.7960199 L45.8507463,96.7960199 L45.8507463,101.890547 Z M66.2288557,101.890547 L76.4179104,101.890547 L76.4179104,96.7960199 L66.2288557,96.7960199 L66.2288557,101.890547 Z M86.6069652,101.890547 L96.7960199,101.890547 L96.7960199,96.7960199 L86.6069652,96.7960199 L86.6069652,101.890547 Z M106.985075,101.890547 L117.174129,101.890547 L117.174129,96.7960199 L106.985075,96.7960199 L106.985075,101.890547 Z M127.363184,101.890547 L137.552239,101.890547 L137.552239,96.7960199 L127.363184,96.7960199 L127.363184,101.890547 Z M147.741294,101.890547 L157.930348,101.890547 L157.930348,96.7960199 L147.741294,96.7960199 L147.741294,101.890547 Z M168.119403,101.890547 L178.308458,101.890547 L178.308458,96.7960199 L168.119403,96.7960199 L168.119403,101.890547 Z M188.497512,101.890547 L198.686567,101.890547 L198.686567,96.7960199 L188.497512,96.7960199 L188.497512,101.890547 Z M208.875622,101.890547 L219.064677,101.890547 L219.064677,96.7960199 L208.875622,96.7960199 L208.875622,101.890547 Z M229.253731,101.890547 L239.442786,101.890547 L239.442786,96.7960199 L229.253731,96.7960199 L229.253731,101.890547 Z M249.631841,101.890547 L259.820896,101.890547 L259.820896,96.7960199 L249.631841,96.7960199 L249.631841,101.890547 Z M270.00995,101.890547 L280.199005,101.890547 L280.199005,96.7960199 L270.00995,96.7960199 L270.00995,101.890547 Z M290.38806,101.890547 L300.577114,101.890547 L300.577114,96.7960199 L290.38806,96.7960199 L290.38806,101.890547 Z M310.766169,101.890547 L320.955224,101.890547 L320.955224,96.7960199 L310.766169,96.7960199 L310.766169,101.890547 Z M331.144279,101.890547 L341.333333,101.890547 L341.333333,96.7960199 L331.144279,96.7960199 L331.144279,101.890547 Z M351.522388,101.890547 L361.711443,101.890547 L361.711443,96.7960199 L351.522388,96.7960199 L351.522388,101.890547 Z M371.900498,101.890547 L382.089552,101.890547 L382.089552,96.7960199 L371.900498,96.7960199 L371.900498,101.890547 Z M392.278607,101.890547 L402.467662,101.890547 L402.467662,96.7960199 L392.278607,96.7960199 L392.278607,101.890547 Z M412.656716,101.890547 L422.845771,101.890547 L422.845771,96.7960199 L412.656716,96.7960199 L412.656716,101.890547 Z M433.034826,101.890547 L441.252294,101.890547 L441.252294,96.7960199 L433.034826,96.7960199 L433.034826,101.890547 Z" id="Path-9" fill="#EFF6FA" fill-rule="nonzero"></path>
                        <path d="M5.09452736,56.039801 L15.2835821,56.039801 L15.2835821,50.9452736 L5.09452736,50.9452736 L5.09452736,56.039801 Z M25.4726368,56.039801 L35.6616915,56.039801 L35.6616915,50.9452736 L25.4726368,50.9452736 L25.4726368,56.039801 Z M45.8507463,56.039801 L56.039801,56.039801 L56.039801,50.9452736 L45.8507463,50.9452736 L45.8507463,56.039801 Z M66.2288557,56.039801 L76.4179104,56.039801 L76.4179104,50.9452736 L66.2288557,50.9452736 L66.2288557,56.039801 Z M86.6069652,56.039801 L96.7960199,56.039801 L96.7960199,50.9452736 L86.6069652,50.9452736 L86.6069652,56.039801 Z M106.985075,56.039801 L117.174129,56.039801 L117.174129,50.9452736 L106.985075,50.9452736 L106.985075,56.039801 Z M127.363184,56.039801 L137.552239,56.039801 L137.552239,50.9452736 L127.363184,50.9452736 L127.363184,56.039801 Z M147.741294,56.039801 L157.930348,56.039801 L157.930348,50.9452736 L147.741294,50.9452736 L147.741294,56.039801 Z M168.119403,56.039801 L178.308458,56.039801 L178.308458,50.9452736 L168.119403,50.9452736 L168.119403,56.039801 Z M188.497512,56.039801 L198.686567,56.039801 L198.686567,50.9452736 L188.497512,50.9452736 L188.497512,56.039801 Z M208.875622,56.039801 L219.064677,56.039801 L219.064677,50.9452736 L208.875622,50.9452736 L208.875622,56.039801 Z M229.253731,56.039801 L239.442786,56.039801 L239.442786,50.9452736 L229.253731,50.9452736 L229.253731,56.039801 Z M249.631841,56.039801 L259.820896,56.039801 L259.820896,50.9452736 L249.631841,50.9452736 L249.631841,56.039801 Z M270.00995,56.039801 L280.199005,56.039801 L280.199005,50.9452736 L270.00995,50.9452736 L270.00995,56.039801 Z M290.38806,56.039801 L300.577114,56.039801 L300.577114,50.9452736 L290.38806,50.9452736 L290.38806,56.039801 Z M310.766169,56.039801 L320.955224,56.039801 L320.955224,50.9452736 L310.766169,50.9452736 L310.766169,56.039801 Z M331.144279,56.039801 L341.333333,56.039801 L341.333333,50.9452736 L331.144279,50.9452736 L331.144279,56.039801 Z M351.522388,56.039801 L361.711443,56.039801 L361.711443,50.9452736 L351.522388,50.9452736 L351.522388,56.039801 Z M371.900498,56.039801 L382.089552,56.039801 L382.089552,50.9452736 L371.900498,50.9452736 L371.900498,56.039801 Z M392.278607,56.039801 L402.467662,56.039801 L402.467662,50.9452736 L392.278607,50.9452736 L392.278607,56.039801 Z M412.656716,56.039801 L422.845771,56.039801 L422.845771,50.9452736 L412.656716,50.9452736 L412.656716,56.039801 Z M433.034826,56.039801 L441.252294,56.039801 L441.252294,50.9452736 L433.034826,50.9452736 L433.034826,56.039801 Z" id="Path-9" fill="#EFF6FA" fill-rule="nonzero"></path>
                        <path d="M5.09993988,8.57331333 L15.2889716,8.55166325 L15.2781466,3.45714739 L5.08911484,3.47879747 L5.09993988,8.57331333 Z M25.4780033,8.53001316 L35.6670351,8.50836308 L35.65621,3.41384722 L25.4671783,3.4354973 L25.4780033,8.53001316 Z M45.8560668,8.486713 L56.0450985,8.46506292 L56.0342735,3.37054705 L45.8452417,3.39219714 L45.8560668,8.486713 Z M66.2341302,8.44341283 L76.423162,8.42176275 L76.4123369,3.32724689 L66.2233052,3.34889697 L66.2341302,8.44341283 Z M86.6121937,8.40011267 L96.8012254,8.37846259 L96.7904004,3.28394672 L86.6013686,3.30559681 L86.6121937,8.40011267 Z M106.990257,8.3568125 L117.179289,8.33516242 L117.168464,3.24064656 L106.979432,3.26229664 L106.990257,8.3568125 Z M127.368321,8.31351234 L137.557352,8.29186225 L137.546527,3.19734639 L127.357496,3.21899647 L127.368321,8.31351234 Z M147.746384,8.27021217 L157.935416,8.24856209 L157.924591,3.15404623 L147.735559,3.17569631 L147.746384,8.27021217 Z M168.124447,8.22691201 L178.313479,8.20526192 L178.302654,3.11074606 L168.113622,3.13239614 L168.124447,8.22691201 Z M188.502511,8.18361184 L198.691543,8.16196176 L198.680718,3.06744589 L188.491686,3.08909598 L188.502511,8.18361184 Z M208.880574,8.14031167 L219.069606,8.11866159 L219.058781,3.02414573 L208.869749,3.04579581 L208.880574,8.14031167 Z M229.258638,8.09701151 L239.44767,8.07536143 L239.436845,2.98084556 L229.247813,3.00249565 L229.258638,8.09701151 Z M249.636701,8.05371134 L259.825733,8.03206126 L259.814908,2.9375454 L249.625876,2.95919548 L249.636701,8.05371134 Z M270.014765,8.01041118 L280.203796,7.98876109 L280.192971,2.89424523 L270.00394,2.91589531 L270.014765,8.01041118 Z M290.392828,7.96711101 L300.58186,7.94546093 L300.571035,2.85094507 L290.382003,2.87259515 L290.392828,7.96711101 Z M310.770892,7.92381085 L320.959923,7.90216076 L320.949098,2.8076449 L310.760067,2.82929498 L310.770892,7.92381085 Z M331.148955,7.88051068 L341.337987,7.8588606 L341.327162,2.76434473 L331.13813,2.78599482 L331.148955,7.88051068 Z M351.527019,7.83721051 L361.71605,7.81556043 L361.705225,2.72104457 L351.516193,2.74269465 L351.527019,7.83721051 Z M371.905082,7.79391035 L382.094114,7.77226027 L382.083289,2.6777444 L371.894257,2.69939449 L371.905082,7.79391035 Z M392.283145,7.75061018 L402.472177,7.7289601 L402.461352,2.63444424 L392.27232,2.65609432 L392.283145,7.75061018 Z M412.661209,7.70731002 L422.850241,7.68565993 L422.839416,2.59114407 L412.650384,2.61279415 L412.661209,7.70731002 Z M433.039272,7.66400985 L443.228304,7.64235977 L443.217479,2.54784391 L433.028447,2.56949399 L433.039272,7.66400985 Z" id="Path-9" fill="#EFF6FA" fill-rule="nonzero"></path>
                        <polygon id="Path-10" fill="#D5E8FA" opacity="0.60441931" points="5.68442001 25.4726368 132.457711 106.985075 249.631841 86.6069652 346.427861 30.5671642 443.223881 91.7014925 443.223881 193.59204 5.09452736 193.59204"></polygon>
                        <path d="M440.503439,96.0088589 C442.882331,97.5113175 446.028788,96.8008272 447.531247,94.4219344 C449.033706,92.0430417 448.323215,88.8965848 445.944323,87.3941262 L346.542533,24.6140488 L247.864759,81.7432863 L133.535911,101.626564 L7.84075117,21.1816621 C5.47091128,19.6649646 2.32025019,20.3565731 0.803552665,22.726413 C-0.713144863,25.0962529 -0.021536331,28.246914 2.34830356,29.7636115 L131.379512,112.343585 L251.398922,91.470644 L346.313188,36.5202795 L440.503439,96.0088589 Z" id="Path-10" fill="#529AF4" fill-rule="nonzero"></path>
                    </g>
                </g>
                <g id="Group-9" transform="translate(514.547264, 315.860697)">
                    <rect id="Rectangle-55-Copy" fill="#409EF3" x="0" y="0" width="403.722093" height="286.983175"></rect>
                    <rect id="Rectangle-67" fill="#FFFFFF" x="300.577114" y="71.3233831" width="61.1343284" height="5.09452736"></rect>
                    <rect id="Rectangle-67-Copy" fill="#FFFFFF" x="300.577114" y="106.985075" width="61.1343284" height="5.09452736"></rect>
                    <rect id="Rectangle-67-Copy-2" fill="#FFFFFF" x="300.577114" y="142.646766" width="61.1343284" height="5.09452736"></rect>
                    <rect id="Rectangle-67-Copy-3" fill="#FFFFFF" x="300.577114" y="178.308458" width="61.1343284" height="5.09452736"></rect>
                    <rect id="Rectangle-67-Copy-4" fill="#FFFFFF" x="300.577114" y="213.970149" width="61.1343284" height="5.09452736"></rect>
                    <g id="Group-38" transform="translate(275.104478, 66.228856)" fill="#FFFFFF">
                        <rect id="Rectangle-66" x="0" y="0" width="15.2835821" height="15.2835821"></rect>
                        <rect id="Rectangle-66-Copy" x="0" y="35.6616915" width="15.2835821" height="15.2835821"></rect>
                        <rect id="Rectangle-66-Copy-2" x="0" y="71.3233831" width="15.2835821" height="15.2835821"></rect>
                        <rect id="Rectangle-66-Copy-3" x="0" y="106.985075" width="15.2835821" height="15.2835821"></rect>
                        <rect id="Rectangle-66-Copy-4" x="0" y="142.646766" width="15.2835821" height="15.2835821"></rect>
                    </g>
                    <g id="Group-37" transform="translate(56.039801, 56.039801)">
                        <mask id="mask-2" fill="white">
                            <use xlink:href="#path-1"></use>
                        </mask>
                        <use id="Combined-Shape" fill="#FFFFFF" xlink:href="#path-1"></use>
                        <polygon id="Rectangle-62" fill="#93CCFF" mask="url(#mask-2)" points="86.6069652 -25.4726368 203.781095 -25.4726368 203.781095 20.3781095 86.6069652 86.6069652"></polygon>
                        <polygon id="Rectangle-63" fill="#D8EDFF" mask="url(#mask-2)" points="86.6069652 86.6069652 178.308458 163.024876 229.253731 203.781095 86.6069652 203.781095"></polygon>
                        <polygon id="Rectangle-64" fill="#93CCFF" mask="url(#mask-2)" points="-147.741294 71.3233831 -45.8507463 101.890547 86.6069652 86.6069652 86.6069652 208.875622"></polygon>
                        <polygon id="Rectangle-65" fill="#B9DCFC" mask="url(#mask-2)" points="-86.6069652 -86.6069652 86.6069652 -86.6069652 86.6069652 86.6069652 -76.4179104 117.174129"></polygon>
                    </g>
                </g>
                <g id="Group-8" transform="translate(157.930348, 315.860697)">
                    <path d="M10.1890547,5.09452736 C7.37542496,5.09452736 5.09452736,7.37542496 5.09452736,10.1890547 L5.09452736,218.045771 C5.09452736,220.859401 7.37542496,223.140299 10.1890547,223.140299 L315.860697,223.140299 C318.674326,223.140299 320.955224,220.859401 320.955224,218.045771 L320.955224,10.1890547 C320.955224,7.37542496 318.674326,5.09452736 315.860697,5.09452736 L10.1890547,5.09452736 Z M10.1890547,0 L315.860697,0 C321.487956,-2.10257528e-14 326.049751,4.56179519 326.049751,10.1890547 L326.049751,218.045771 C326.049751,223.673031 321.487956,228.234826 315.860697,228.234826 L10.1890547,228.234826 C4.56179519,228.234826 6.89140538e-16,223.673031 0,218.045771 L0,10.1890547 C-6.89140538e-16,4.56179519 4.56179519,1.03371081e-15 10.1890547,0 Z" id="Rectangle-55-Copy-2" fill="#D7E1E7" fill-rule="nonzero"></path>
                    <path d="M10.1890547,5.09452736 C7.37542496,5.09452736 5.09452736,7.37542496 5.09452736,10.1890547 L5.09452736,218.045771 C5.09452736,220.859401 7.37542496,223.140299 10.1890547,223.140299 L315.860697,223.140299 C318.674326,223.140299 320.955224,220.859401 320.955224,218.045771 L320.955224,10.1890547 C320.955224,7.37542496 318.674326,5.09452736 315.860697,5.09452736 L10.1890547,5.09452736 Z" id="Path" fill="#FFFFFF"></path>
                    <rect id="Rectangle-36" fill="#EFF6FA" x="24.4537313" y="195.629851" width="277.142289" height="4.07562189"></rect>
                    <path d="M24.4537313,158.439801 L34.6427861,158.439801 L34.6427861,153.345274 L24.4537313,153.345274 L24.4537313,158.439801 Z M44.8318408,158.439801 L55.0208955,158.439801 L55.0208955,153.345274 L44.8318408,153.345274 L44.8318408,158.439801 Z M65.2099502,158.439801 L75.399005,158.439801 L75.399005,153.345274 L65.2099502,153.345274 L65.2099502,158.439801 Z M85.5880597,158.439801 L95.7771144,158.439801 L95.7771144,153.345274 L85.5880597,153.345274 L85.5880597,158.439801 Z M105.966169,158.439801 L116.155224,158.439801 L116.155224,153.345274 L105.966169,153.345274 L105.966169,158.439801 Z M126.344279,158.439801 L136.533333,158.439801 L136.533333,153.345274 L126.344279,153.345274 L126.344279,158.439801 Z M146.722388,158.439801 L156.911443,158.439801 L156.911443,153.345274 L146.722388,153.345274 L146.722388,158.439801 Z M167.100498,158.439801 L177.289552,158.439801 L177.289552,153.345274 L167.100498,153.345274 L167.100498,158.439801 Z M187.478607,158.439801 L197.667662,158.439801 L197.667662,153.345274 L187.478607,153.345274 L187.478607,158.439801 Z M207.856716,158.439801 L218.045771,158.439801 L218.045771,153.345274 L207.856716,153.345274 L207.856716,158.439801 Z M228.234826,158.439801 L238.423881,158.439801 L238.423881,153.345274 L228.234826,153.345274 L228.234826,158.439801 Z M248.612935,158.439801 L258.80199,158.439801 L258.80199,153.345274 L248.612935,153.345274 L248.612935,158.439801 Z M268.991045,158.439801 L279.1801,158.439801 L279.1801,153.345274 L268.991045,153.345274 L268.991045,158.439801 Z M289.369154,158.439801 L299.451409,158.439801 L299.451409,153.345274 L289.369154,153.345274 L289.369154,158.439801 Z" id="Path-9" fill="#EFF6FA" fill-rule="nonzero"></path>
                    <path d="M24.4537313,116.664677 L34.6427861,116.664677 L34.6427861,111.570149 L24.4537313,111.570149 L24.4537313,116.664677 Z M44.8318408,116.664677 L55.0208955,116.664677 L55.0208955,111.570149 L44.8318408,111.570149 L44.8318408,116.664677 Z M65.2099502,116.664677 L75.399005,116.664677 L75.399005,111.570149 L65.2099502,111.570149 L65.2099502,116.664677 Z M85.5880597,116.664677 L95.7771144,116.664677 L95.7771144,111.570149 L85.5880597,111.570149 L85.5880597,116.664677 Z M105.966169,116.664677 L116.155224,116.664677 L116.155224,111.570149 L105.966169,111.570149 L105.966169,116.664677 Z M126.344279,116.664677 L136.533333,116.664677 L136.533333,111.570149 L126.344279,111.570149 L126.344279,116.664677 Z M146.722388,116.664677 L156.911443,116.664677 L156.911443,111.570149 L146.722388,111.570149 L146.722388,116.664677 Z M167.100498,116.664677 L177.289552,116.664677 L177.289552,111.570149 L167.100498,111.570149 L167.100498,116.664677 Z M187.478607,116.664677 L197.667662,116.664677 L197.667662,111.570149 L187.478607,111.570149 L187.478607,116.664677 Z M207.856716,116.664677 L218.045771,116.664677 L218.045771,111.570149 L207.856716,111.570149 L207.856716,116.664677 Z M228.234826,116.664677 L238.423881,116.664677 L238.423881,111.570149 L228.234826,111.570149 L228.234826,116.664677 Z M248.612935,116.664677 L258.80199,116.664677 L258.80199,111.570149 L248.612935,111.570149 L248.612935,116.664677 Z M268.991045,116.664677 L279.1801,116.664677 L279.1801,111.570149 L268.991045,111.570149 L268.991045,116.664677 Z M289.369154,116.664677 L299.451409,116.664677 L299.451409,111.570149 L289.369154,111.570149 L289.369154,116.664677 Z" id="Path-9" fill="#EFF6FA" fill-rule="nonzero"></path>
                    <path d="M24.4537313,74.8895522 L34.6427861,74.8895522 L34.6427861,69.7950249 L24.4537313,69.7950249 L24.4537313,74.8895522 Z M44.8318408,74.8895522 L55.0208955,74.8895522 L55.0208955,69.7950249 L44.8318408,69.7950249 L44.8318408,74.8895522 Z M65.2099502,74.8895522 L75.399005,74.8895522 L75.399005,69.7950249 L65.2099502,69.7950249 L65.2099502,74.8895522 Z M85.5880597,74.8895522 L95.7771144,74.8895522 L95.7771144,69.7950249 L85.5880597,69.7950249 L85.5880597,74.8895522 Z M105.966169,74.8895522 L116.155224,74.8895522 L116.155224,69.7950249 L105.966169,69.7950249 L105.966169,74.8895522 Z M126.344279,74.8895522 L136.533333,74.8895522 L136.533333,69.7950249 L126.344279,69.7950249 L126.344279,74.8895522 Z M146.722388,74.8895522 L156.911443,74.8895522 L156.911443,69.7950249 L146.722388,69.7950249 L146.722388,74.8895522 Z M167.100498,74.8895522 L177.289552,74.8895522 L177.289552,69.7950249 L167.100498,69.7950249 L167.100498,74.8895522 Z M187.478607,74.8895522 L197.667662,74.8895522 L197.667662,69.7950249 L187.478607,69.7950249 L187.478607,74.8895522 Z M207.856716,74.8895522 L218.045771,74.8895522 L218.045771,69.7950249 L207.856716,69.7950249 L207.856716,74.8895522 Z M228.234826,74.8895522 L238.423881,74.8895522 L238.423881,69.7950249 L228.234826,69.7950249 L228.234826,74.8895522 Z M248.612935,74.8895522 L258.80199,74.8895522 L258.80199,69.7950249 L248.612935,69.7950249 L248.612935,74.8895522 Z M268.991045,74.8895522 L279.1801,74.8895522 L279.1801,69.7950249 L268.991045,69.7950249 L268.991045,74.8895522 Z M289.369154,74.8895522 L299.451409,74.8895522 L299.451409,69.7950249 L289.369154,69.7950249 L289.369154,74.8895522 Z" id="Path-9" fill="#EFF6FA" fill-rule="nonzero"></path>
                    <path d="M24.4605989,31.0766077 L34.6496166,31.0491373 L34.6358815,25.9546285 L24.4468638,25.9820988 L24.4605989,31.0766077 Z M44.8386343,31.021667 L55.027652,30.9941967 L55.0139169,25.8996879 L44.8248992,25.9271582 L44.8386343,31.021667 Z M65.2166697,30.9667264 L75.4056874,30.9392561 L75.3919522,25.8447473 L65.2029345,25.8722176 L65.2166697,30.9667264 Z M85.5947051,30.9117858 L95.7837228,30.8843155 L95.7699876,25.7898067 L85.5809699,25.817277 L85.5947051,30.9117858 Z M105.97274,30.8568452 L116.161758,30.8293749 L116.148023,25.734866 L105.959005,25.7623363 L105.97274,30.8568452 Z M126.350776,30.8019046 L136.539794,30.7744343 L136.526058,25.6799254 L126.337041,25.7073957 L126.350776,30.8019046 Z M146.728811,30.746964 L156.917829,30.7194936 L156.904094,25.6249848 L146.715076,25.6524551 L146.728811,30.746964 Z M167.106847,30.6920233 L177.295864,30.664553 L177.282129,25.5700442 L167.093112,25.5975145 L167.106847,30.6920233 Z M187.484882,30.6370827 L197.6739,30.6096124 L197.660165,25.5151036 L187.471147,25.5425739 L187.484882,30.6370827 Z M207.862917,30.5821421 L218.051935,30.5546718 L218.0382,25.4601629 L207.849182,25.4876333 L207.862917,30.5821421 Z M228.240953,30.5272015 L238.429971,30.4997312 L238.416235,25.4052223 L228.227218,25.4326926 L228.240953,30.5272015 Z M248.618988,30.4722609 L258.808006,30.4447906 L258.794271,25.3502817 L248.605253,25.377752 L248.618988,30.4722609 Z M268.997024,30.4173203 L279.186041,30.3898499 L279.172306,25.2953411 L268.983288,25.3228114 L268.997024,30.4173203 Z M289.375059,30.3623796 L299.564077,30.3349093 L299.550342,25.2404005 L289.361324,25.2678708 L289.375059,30.3623796 Z" id="Path-9" fill="#EFF6FA" fill-rule="nonzero"></path>
                    <rect id="Rectangle-68" fill="#4499E5" x="52.9830846" y="105.966169" width="24.4537313" height="93.7393035"></rect>
                    <rect id="Rectangle-68-Copy" fill="#54C4E9" x="101.890547" y="130.4199" width="24.4537313" height="69.2855721"></rect>
                    <rect id="Rectangle-68-Copy-2" fill="#4499E5" x="150.79801" y="85.5880597" width="24.4537313" height="114.117413"></rect>
                    <rect id="Rectangle-68-Copy-3" fill="#54C4E9" x="199.705473" y="61.1343284" width="24.4537313" height="138.571144"></rect>
                    <rect id="Rectangle-68-Copy-4" fill="#4499E5" x="248.612935" y="130.4199" width="24.4537313" height="69.2855721"></rect>
                </g>
                <path d="M5.88195102,207.482587 L28.0113043,207.482587 C45.2451351,207.482587 55.3943888,217.751244 55.3943888,235.9801 C55.3943888,254.208955 45.2451351,264.915423 28.0113043,264.915423 L5.88195102,264.915423 L5.88195102,207.482587 Z M17.9018515,217.393035 L17.9018515,254.965174 L26.5784684,254.965174 C37.3247371,254.965174 43.1356824,248.437811 43.1356824,236.0199 C43.1356824,224 37.1655331,217.393035 26.5784684,217.393035 L17.9018515,217.393035 Z M96.0573141,264.915423 L91.6792047,250.985075 L71.5001002,250.985075 L67.1219908,264.915423 L54.7836823,264.915423 L74.7239808,207.482587 L88.853334,207.482587 L108.833434,264.915423 L96.0573141,264.915423 Z M81.450349,218.467662 L74.0871649,241.99005 L89.09214,241.99005 L81.7289559,218.467662 L81.450349,218.467662 Z M130.590886,264.915423 L118.570986,264.915423 L118.570986,217.393035 L101.774966,217.393035 L101.774966,207.482587 L147.426707,207.482587 L147.426707,217.393035 L130.590886,217.393035 L130.590886,264.915423 Z M181.641871,264.915423 L177.263762,250.985075 L157.084657,250.985075 L152.706548,264.915423 L140.368239,264.915423 L160.308538,207.482587 L174.437891,207.482587 L194.417991,264.915423 L181.641871,264.915423 Z M167.034906,218.467662 L159.671722,241.99005 L174.676697,241.99005 L167.313513,218.467662 L167.034906,218.467662 Z M274.032398,207.482587 L260.10205,207.482587 L243.783642,248.199005 L243.465234,248.199005 L227.146826,207.482587 L213.216478,207.482587 L213.216478,264.915423 L223.922946,264.915423 L223.922946,226.149254 L224.241354,226.149254 L239.843344,264.358209 L247.405533,264.358209 L263.007523,226.149254 L263.325931,226.149254 L263.325931,264.915423 L274.032398,264.915423 L274.032398,207.482587 Z M293.322189,264.915423 L293.322189,207.482587 L281.302289,207.482587 L281.302289,264.915423 L293.322189,264.915423 Z M312.094567,264.915423 L312.094567,227.303483 L312.452776,227.303483 L339.318448,264.915423 L349.268697,264.915423 L349.268697,207.482587 L337.766209,207.482587 L337.766209,244.895522 L337.447801,244.895522 L310.621931,207.482587 L300.59208,207.482587 L300.59208,264.915423 L312.094567,264.915423 Z M368.558488,264.915423 L368.558488,207.482587 L356.538587,207.482587 L356.538587,264.915423 L368.558488,264.915423 Z M387.330866,264.915423 L387.330866,227.303483 L387.689075,227.303483 L414.554746,264.915423 L424.504995,264.915423 L424.504995,207.482587 L413.002508,207.482587 L413.002508,244.895522 L412.6841,244.895522 L385.858229,207.482587 L375.828378,207.482587 L375.828378,264.915423 L387.330866,264.915423 Z M483.118169,240.79602 L483.118169,234.308458 L458.919164,234.308458 L458.919164,243.064677 L471.416677,243.064677 L471.376876,243.9801 C471.13807,251.104478 465.685333,255.920398 457.844537,255.920398 C448.292299,255.920398 442.242547,248.318408 442.242547,235.860697 C442.242547,223.641791 447.93409,216.437811 457.406726,216.437811 C463.894289,216.437811 468.789811,220.0199 470.541055,226.029851 L482.600756,226.029851 C480.889314,214.40796 470.779861,206.487562 457.366925,206.487562 C440.491304,206.487562 429.983841,217.631841 429.983841,236.0199 C429.983841,254.686567 440.491304,265.910448 457.645532,265.910448 C473.645532,265.910448 483.118169,256.437811 483.118169,240.79602 Z" id="DATA-MINING" fill="#176EDA"></path>
                <path d="M218.737633,163.024876 L224.797334,163.024876 L224.797334,112.771144 L218.667981,112.771144 L205.294847,122.383085 L205.294847,129 L218.598329,119.422886 L218.737633,119.422886 L218.737633,163.024876 Z M253.133613,163.860697 C241.397294,163.860697 234.606249,153.761194 234.606249,137.880597 C234.606249,122.139303 241.466946,111.935323 253.133613,111.935323 C264.800279,111.935323 271.591324,122.069652 271.591324,137.845771 C271.591324,153.726368 264.835105,163.860697 253.133613,163.860697 Z M253.133613,158.393035 C260.969434,158.393035 265.287841,150.41791 265.287841,137.880597 C265.287841,125.517413 260.899782,117.437811 253.133613,117.437811 C245.367443,117.437811 240.909732,125.587065 240.909732,137.845771 C240.909732,150.383085 245.262966,158.393035 253.133613,158.393035 Z M294.390289,163.860697 C282.653971,163.860697 275.862926,153.761194 275.862926,137.880597 C275.862926,122.139303 282.723622,111.935323 294.390289,111.935323 C306.056956,111.935323 312.848001,122.069652 312.848001,137.845771 C312.848001,153.726368 306.091782,163.860697 294.390289,163.860697 Z M294.390289,158.393035 C302.22611,158.393035 306.544518,150.41791 306.544518,137.880597 C306.544518,125.517413 302.156458,117.437811 294.390289,117.437811 C286.62412,117.437811 282.166409,125.587065 282.166409,137.845771 C282.166409,150.383085 286.519642,158.393035 294.390289,158.393035 Z M330.179304,163.024876 L336.239005,163.024876 L336.239005,112.771144 L330.109652,112.771144 L316.736518,122.383085 L316.736518,129 L330.04,119.422886 L330.179304,119.422886 L330.179304,163.024876 Z M359.80414,163.024876 L365.863841,163.024876 L365.863841,112.771144 L359.734488,112.771144 L346.361354,122.383085 L346.361354,129 L359.664836,119.422886 L359.80414,119.422886 L359.80414,163.024876 Z M394.20012,163.860697 C382.463801,163.860697 375.672757,153.761194 375.672757,137.880597 C375.672757,122.139303 382.533453,111.935323 394.20012,111.935323 C405.866786,111.935323 412.657831,122.069652 412.657831,137.845771 C412.657831,153.726368 405.901612,163.860697 394.20012,163.860697 Z M394.20012,158.393035 C402.035941,158.393035 406.354349,150.41791 406.354349,137.880597 C406.354349,125.517413 401.966289,117.437811 394.20012,117.437811 C386.433951,117.437811 381.976239,125.587065 381.976239,137.845771 C381.976239,150.383085 386.329473,158.393035 394.20012,158.393035 Z M435.456796,163.860697 C423.720478,163.860697 416.929433,153.761194 416.929433,137.880597 C416.929433,122.139303 423.79013,111.935323 435.456796,111.935323 C447.123463,111.935323 453.914508,122.069652 453.914508,137.845771 C453.914508,153.726368 447.158289,163.860697 435.456796,163.860697 Z M435.456796,158.393035 C443.292617,158.393035 447.611025,150.41791 447.611025,137.880597 C447.611025,125.517413 443.222965,117.437811 435.456796,117.437811 C427.690627,117.437811 423.232916,125.587065 423.232916,137.845771 C423.232916,150.383085 427.586149,158.393035 435.456796,158.393035 Z M471.245811,163.024876 L477.305513,163.024876 L477.305513,112.771144 L471.176159,112.771144 L457.803025,122.383085 L457.803025,129 L471.106508,119.422886 L471.245811,119.422886 L471.245811,163.024876 Z" id="10011001" fill="#A9B9C6"></path>
                <path d="M224.901812,67.0646766 C213.165493,67.0646766 206.374449,56.9651741 206.374449,41.0845771 C206.374449,25.3432836 213.235145,15.1393035 224.901812,15.1393035 C236.568478,15.1393035 243.359523,25.2736318 243.359523,41.0497512 C243.359523,56.9303483 236.603304,67.0646766 224.901812,67.0646766 Z M224.901812,61.5970149 C232.737633,61.5970149 237.056041,53.6218905 237.056041,41.0845771 C237.056041,28.721393 232.667981,20.641791 224.901812,20.641791 C217.135643,20.641791 212.677931,28.7910448 212.677931,41.0497512 C212.677931,53.5870647 217.031165,61.5970149 224.901812,61.5970149 Z M260.690827,66.2288557 L266.750528,66.2288557 L266.750528,15.9751244 L260.621175,15.9751244 L247.24804,25.5870647 L247.24804,32.2039801 L260.551523,22.6268657 L260.690827,22.6268657 L260.690827,66.2288557 Z M295.086807,67.0646766 C283.350488,67.0646766 276.559443,56.9651741 276.559443,41.0845771 C276.559443,25.3432836 283.42014,15.1393035 295.086807,15.1393035 C306.753473,15.1393035 313.544518,25.2736318 313.544518,41.0497512 C313.544518,56.9303483 306.788299,67.0646766 295.086807,67.0646766 Z M295.086807,61.5970149 C302.922627,61.5970149 307.241035,53.6218905 307.241035,41.0845771 C307.241035,28.721393 302.852976,20.641791 295.086807,20.641791 C287.320637,20.641791 282.862926,28.7910448 282.862926,41.0497512 C282.862926,53.5870647 287.21616,61.5970149 295.086807,61.5970149 Z M330.875821,66.2288557 L336.935523,66.2288557 L336.935523,15.9751244 L330.80617,15.9751244 L317.433035,25.5870647 L317.433035,32.2039801 L330.736518,22.6268657 L330.875821,22.6268657 L330.875821,66.2288557 Z M365.271801,67.0646766 C353.535483,67.0646766 346.744438,56.9651741 346.744438,41.0845771 C346.744438,25.3432836 353.605135,15.1393035 365.271801,15.1393035 C376.938468,15.1393035 383.729513,25.2736318 383.729513,41.0497512 C383.729513,56.9303483 376.973294,67.0646766 365.271801,67.0646766 Z M365.271801,61.5970149 C373.107622,61.5970149 377.42603,53.6218905 377.42603,41.0845771 C377.42603,28.721393 373.037971,20.641791 365.271801,20.641791 C357.505632,20.641791 353.047921,28.7910448 353.047921,41.0497512 C353.047921,53.5870647 357.401155,61.5970149 365.271801,61.5970149 Z M401.060816,66.2288557 L407.120518,66.2288557 L407.120518,15.9751244 L400.991164,15.9751244 L387.61803,25.5870647 L387.61803,32.2039801 L400.921513,22.6268657 L401.060816,22.6268657 L401.060816,66.2288557 Z M435.456796,67.0646766 C423.720478,67.0646766 416.929433,56.9651741 416.929433,41.0845771 C416.929433,25.3432836 423.79013,15.1393035 435.456796,15.1393035 C447.123463,15.1393035 453.914508,25.2736318 453.914508,41.0497512 C453.914508,56.9303483 447.158289,67.0646766 435.456796,67.0646766 Z M435.456796,61.5970149 C443.292617,61.5970149 447.611025,53.6218905 447.611025,41.0845771 C447.611025,28.721393 443.222965,20.641791 435.456796,20.641791 C427.690627,20.641791 423.232916,28.7910448 423.232916,41.0497512 C423.232916,53.5870647 427.586149,61.5970149 435.456796,61.5970149 Z M471.245811,66.2288557 L477.305513,66.2288557 L477.305513,15.9751244 L471.176159,15.9751244 L457.803025,25.5870647 L457.803025,32.2039801 L471.106508,22.6268657 L471.245811,22.6268657 L471.245811,66.2288557 Z" id="01010101" fill="#A9B9C6"></path>
            </g>
        </g>
    </g>
</svg>