
<svg width="1024px" height="1024px" viewBox="0 0 1024 1024" version="1.1">
    <defs>
        <filter x="-8.4%" y="-12.5%" width="116.9%" height="125.1%" filterUnits="objectBoundingBox" id="filter-1">
            <feGaussianBlur stdDeviation="21.8221507" in="SourceGraphic"></feGaussianBlur>
        </filter>
    </defs>
    <g id="Page-1" stroke="none" stroke-width="1" fill="none" fill-rule="evenodd">
        <g id="数据仓库">
            <g id="Group-35-Copy" transform="translate(0.000000, 174.000000)">
                <g id="Group-32">
                    <path d="M11.2527473,5.62637363 C8.1453869,5.62637363 5.62637363,8.1453869 5.62637363,11.2527473 L5.62637363,663.912088 C5.62637363,667.019448 8.1453869,669.538462 11.2527473,669.538462 L888.967033,669.538462 C892.074393,669.538462 894.593407,667.019448 894.593407,663.912088 L894.593407,11.2527473 C894.593407,8.1453869 892.074393,5.62637363 888.967033,5.62637363 L11.2527473,5.62637363 Z" id="Path" fill="#FFFFFF"></path>
                    <path d="M11.2527473,5.62637363 C8.1453869,5.62637363 5.62637363,8.1453869 5.62637363,11.2527473 L5.62637363,663.912088 C5.62637363,667.019448 8.1453869,669.538462 11.2527473,669.538462 L888.967033,669.538462 C892.074393,669.538462 894.593407,667.019448 894.593407,663.912088 L894.593407,11.2527473 C894.593407,8.1453869 892.074393,5.62637363 888.967033,5.62637363 L11.2527473,5.62637363 Z M11.2527473,0 L888.967033,0 C895.181754,-1.14162567e-15 900.21978,5.03802655 900.21978,11.2527473 L900.21978,663.912088 C900.21978,670.126809 895.181754,675.164835 888.967033,675.164835 L11.2527473,675.164835 C5.03802655,675.164835 7.61083781e-16,670.126809 0,663.912088 L0,11.2527473 C-7.61083781e-16,5.03802655 5.03802655,1.14162567e-15 11.2527473,0 Z" id="Rectangle-51" fill="#D7E1E7" fill-rule="nonzero"></path>
                    <rect id="Rectangle-59" fill="#CDE0E9" x="28.1318681" y="135.032967" width="157.538462" height="16.8791209" rx="8.43956044"></rect>
                    <rect id="Rectangle-59-Copy-5" fill="#A9E9E1" x="28.1318681" y="427.604396" width="90.021978" height="11.2527473" rx="5.62637363"></rect>
                    <rect id="Rectangle-59-Copy" fill="#CDE0E9" x="28.1318681" y="185.67033" width="140.659341" height="16.8791209" rx="8.43956044"></rect>
                    <rect id="Rectangle-59-Copy-6" fill="#4499E5" x="28.1318681" y="478.241758" width="61.8901099" height="11.2527473" rx="5.62637363"></rect>
                    <rect id="Rectangle-59-Copy-2" fill="#58C5EA" x="28.1318681" y="236.307692" width="163.164835" height="16.8791209" rx="8.43956044"></rect>
                    <rect id="Rectangle-59-Copy-7" fill="#58C5EA" x="28.1318681" y="528.879121" width="78.7692308" height="11.2527473" rx="5.62637363"></rect>
                    <rect id="Rectangle-59-Copy-3" fill="#CDE0E9" x="28.1318681" y="286.945055" width="101.274725" height="16.8791209" rx="8.43956044"></rect>
                    <rect id="Rectangle-59-Copy-8" fill="#409EF3" x="28.1318681" y="579.516484" width="33.7582418" height="11.2527473" rx="5.62637363"></rect>
                    <path d="M11.2527473,0 L888.967033,0 C895.181754,-1.14162567e-15 900.21978,5.03802655 900.21978,11.2527473 L900.21978,67.5164835 L0,67.5164835 L0,11.2527473 C-7.61083781e-16,5.03802655 5.03802655,1.14162567e-15 11.2527473,0 Z M39.3846154,45.010989 C45.5993361,45.010989 50.6373626,39.9729625 50.6373626,33.7582418 C50.6373626,27.5435211 45.5993361,22.5054945 39.3846154,22.5054945 C33.1698947,22.5054945 28.1318681,27.5435211 28.1318681,33.7582418 C28.1318681,39.9729625 33.1698947,45.010989 39.3846154,45.010989 Z M90.021978,45.010989 C96.2366987,45.010989 101.274725,39.9729625 101.274725,33.7582418 C101.274725,27.5435211 96.2366987,22.5054945 90.021978,22.5054945 C83.8072573,22.5054945 78.7692308,27.5435211 78.7692308,33.7582418 C78.7692308,39.9729625 83.8072573,45.010989 90.021978,45.010989 Z M140.659341,45.010989 C146.874061,45.010989 151.912088,39.9729625 151.912088,33.7582418 C151.912088,27.5435211 146.874061,22.5054945 140.659341,22.5054945 C134.44462,22.5054945 129.406593,27.5435211 129.406593,33.7582418 C129.406593,39.9729625 134.44462,45.010989 140.659341,45.010989 Z" id="Combined-Shape" fill="#176EDA"></path>
                </g>
                <rect id="Rectangle" fill="#E1E8EE" opacity="0.747901119" filter="url(#filter-1)" x="213" y="118" width="775" height="522"></rect>
                <g id="Group-34" transform="translate(213.000000, 118.000000)">
                    <rect id="Rectangle-55" fill="#FFFFFF" x="0" y="0" width="787.692308" height="489.494505"></rect>
                    <g id="数据仓库" transform="translate(433.230769, 168.791209)">
                        <path d="M244.537787,83.627426 C244.537787,83.627426 131.626074,4.22694355 130.720365,3.6231376 C123.776597,-1.20731 123.776597,-1.20731 116.530926,3.92504058 L3.01540692,83.627426 C-0.607428786,86.0426498 -0.909331761,91.4769034 1.80779501,95.401642 C4.52492179,99.3263807 9.95917534,100.533993 13.2801081,98.1187688 L21.1295854,92.3826123 L21.1295854,224.314212 C21.1295854,229.14466 25.0543241,233.371302 30.1866747,233.371302 C35.3190252,233.371302 39.2437639,229.446563 39.2437639,224.314212 L39.2437639,80.3064933 L123.776597,20.5297042 L209.818945,81.2122022 L209.818945,224.616115 C209.818945,229.446563 213.743684,233.673205 218.876034,233.673205 C223.706482,233.673205 227.933123,229.748466 227.933123,224.616115 L227.933123,94.1940301 L233.971183,98.1187688 C237.594019,100.533993 242.424466,99.3263807 245.443496,95.401642 C248.462526,91.1750004 247.556817,86.0426498 244.537787,83.627426 Z" id="Fill-1" fill="#409EF3"></path>
                        <g id="Group-13" transform="translate(73.142857, 101.274725)">
                            <path d="M50.5777215,76.1260357 C60.9826551,76.1260357 70.7079099,75.1822935 79.7523335,73.2943771 C88.7966131,71.4063165 95.9309349,68.6185965 101.155443,64.9303525 L101.155443,76.1260357 C101.155443,79.1552016 98.8944091,81.964963 94.3721973,84.555896 C89.8499855,87.1461088 83.7032003,89.1983986 75.932418,90.7133417 C68.1616357,92.2275645 59.7098781,92.9850361 50.5777215,92.9850361 C41.4455648,92.9850361 32.9938073,92.2275645 25.223025,90.7133417 C17.4522427,89.1983986 11.3054575,87.1461088 6.78324568,84.555896 C2.26103387,81.964963 0,79.1552016 0,76.1260357 L0,64.9303525 C5.22450809,68.6185965 12.3588299,71.4063165 21.4031094,73.2943771 C30.4475331,75.1822935 40.1720676,76.1260357 50.5777215,76.1260357 Z M50.5777215,0.259453457 C59.7098781,0.259453457 68.1616357,1.01692502 75.932418,2.53129189 C83.7032003,4.04609094 89.8499855,6.098957 94.3721973,8.6893138 C98.8944091,11.2795266 101.155443,14.0892879 101.155443,17.1184538 L101.155443,25.5483142 C101.155443,28.5774801 98.8944091,31.3878177 94.3721973,33.9781745 C89.8499855,36.5683873 83.7032003,38.6206771 75.932418,40.1356202 C68.1616357,41.649843 59.7098781,42.4073146 50.5777215,42.4073146 C41.4455648,42.4073146 32.9938073,41.649843 25.223025,40.1356202 C17.4522427,38.6206771 11.3054575,36.5683873 6.78324568,33.9781745 C2.26103387,31.3878177 0,28.5774801 0,25.5483142 L0,17.1184538 C0,14.0892879 2.26103387,11.2795266 6.78324568,8.6893138 C11.3054575,6.098957 17.4522427,4.04609094 25.223025,2.53129189 C32.9938073,1.01692502 41.4455648,0.259453457 50.5777215,0.259453457 Z" id="数据库" fill="#409EF3"></path>
                            <path d="M50.5777215,50.8371749 C60.9826551,50.8371749 70.7079099,49.8934328 79.7523335,48.0055163 C88.7966131,46.1174558 95.9309349,43.3297357 101.155443,39.6414918 L101.155443,50.8371749 C101.155443,53.8663409 98.8944091,56.6761022 94.3721973,59.2670353 C89.8499855,61.857248 83.7032003,63.9095378 75.932418,65.424481 C68.1616357,66.9387038 59.7098781,67.6961753 50.5777215,67.6961753 C41.4455648,67.6961753 32.9938073,66.9387038 25.223025,65.424481 C17.4522427,63.9095378 11.3054575,61.857248 6.78324568,59.2670353 C2.26103387,56.6761022 0,53.8663409 0,50.8371749 L0,39.6414918 C5.22450809,43.3297357 12.3588299,46.1174558 21.4031094,48.0055163 C30.4475331,49.8934328 40.1720676,50.8371749 50.5777215,50.8371749 Z" id="Path" fill="#176EDA"></path>
                            <path d="M50.5777215,101.414896 C60.9826551,101.414896 70.7079099,100.470578 79.7523335,98.5832378 C88.7966131,96.6951773 95.9309349,93.9074572 101.155443,90.2192132 L101.155443,101.414896 C101.155443,104.444062 98.8944091,107.253824 94.3721973,109.844613 C89.8499855,112.43497 83.7032003,114.487259 75.932418,116.002202 C68.1616357,117.516425 59.7098781,118.273897 50.5777215,118.273897 C41.4455648,118.273897 32.9938073,117.516425 25.223025,116.002202 C17.4522427,114.487259 11.3054575,112.43497 6.78324568,109.844613 C2.26103387,107.253824 0,104.444062 0,101.414896 L0,90.2192132 C5.22450809,93.9074572 12.3588299,96.6951773 21.4031094,98.5832378 C30.4475331,100.470578 40.1720676,101.414896 50.5777215,101.414896 Z" id="Path" fill="#176EDA"></path>
                        </g>
                    </g>
                    <path d="M126.967033,198.230769 L132.835165,198.230769 C138.736264,198.230769 142.362637,201.164835 142.362637,205.978022 C142.362637,210.362637 138.505495,213.428571 133.032967,213.428571 C127.362637,213.428571 123.802198,210.527473 123.406593,206.175824 L115.296703,206.175824 C115.725275,214.648352 122.516484,220.384615 132.967033,220.384615 C143.351648,220.384615 151,214.714286 151,206.307692 C151,199.681319 146.384615,195.32967 139.263736,194.802198 L139.263736,194.604396 C145.131868,193.582418 149.087912,189.32967 149.087912,183.428571 C149.087912,176.010989 142.428571,170.901099 133.065934,170.901099 C123.241758,170.901099 116.681319,176.43956 116.21978,184.978022 L124.131868,184.978022 C124.461538,180.527473 127.758242,177.659341 132.67033,177.659341 C138.010989,177.659341 140.912088,180.428571 140.912088,184.582418 C140.912088,188.835165 137.582418,191.835165 132.703297,191.835165 L126.967033,191.835165 L126.967033,198.230769 Z M174.772245,220.384615 C166.035981,220.384615 159.211805,215.175824 157.860157,207.527473 L166.299717,207.527473 C167.354663,211.120879 170.750267,213.494505 174.904113,213.494505 C181.926091,213.494505 186.145871,206.901099 186.014003,195.395604 L185.882135,195.395604 C184.035981,200.043956 179.15686,203.175824 172.992025,203.175824 C163.959058,203.175824 157.200816,196.483516 157.200816,187.450549 C157.200816,177.824176 164.684333,170.868132 174.970047,170.868132 C181.959058,170.868132 187.629388,174.230769 190.794223,180.296703 C193.035981,184.186813 194.189827,189.164835 194.189827,195.098901 C194.189827,210.956044 186.970047,220.384615 174.772245,220.384615 Z M175.003014,196.516484 C180.442575,196.516484 184.563454,192.56044 184.563454,187.318681 C184.563454,182.010989 180.409608,177.857143 175.068948,177.857143 C169.761256,177.857143 165.574443,181.978022 165.574443,187.186813 C165.574443,192.56044 169.596421,196.516484 175.003014,196.516484 Z" id="39" fill="#535D69"></path>
                    <path d="M133.659341,366.67033 C144.208791,366.67033 151.494505,359.879121 151.494505,349.989011 C151.494505,340.725275 144.934066,334.032967 135.835165,334.032967 C131.120879,334.032967 127.230769,335.945055 125.252747,339.010989 L125.054945,339.010989 L126.274725,325.098901 L148.692308,325.098901 L148.692308,318.142857 L119.549451,318.142857 L117.076923,345.241758 L124.791209,345.241758 C126.538462,342.274725 129.901099,340.494505 133.791209,340.494505 C139.362637,340.494505 143.285714,344.516484 143.285714,350.21978 C143.285714,355.824176 139.395604,359.78022 133.725275,359.78022 C128.714286,359.78022 124.857143,356.747253 124.32967,352.32967 L116.351648,352.32967 C116.714286,360.769231 123.835165,366.67033 133.659341,366.67033 Z M180.442575,365.714286 L180.442575,356.714286 L156.706311,356.714286 L156.706311,349.395604 C160.82719,341.615385 166.134882,333.142857 176.453564,318.142857 L188.552465,318.142857 L188.552465,349.758242 L194.948069,349.758242 L194.948069,356.714286 L188.552465,356.714286 L188.552465,365.714286 L180.442575,365.714286 Z M164.420597,349.725275 L164.420597,349.956044 L180.574443,349.956044 L180.574443,324.43956 L180.442575,324.43956 C172.761256,335.582418 168.211805,342.604396 164.420597,349.725275 Z" id="54" fill="#535D69"></path>
                    <rect id="Rectangle-3" fill="#D8EAF9" x="106.901099" y="236.307692" width="225.054945" height="16.8791209" rx="8.43956044"></rect>
                    <rect id="Rectangle-3-Copy" fill="#D8EAF9" x="106.901099" y="382.593407" width="225.054945" height="16.8791209" rx="8.43956044"></rect>
                    <rect id="Rectangle-3" fill="#409EF3" x="106.901099" y="236.307692" width="140.659341" height="16.8791209" rx="8.43956044"></rect>
                    <rect id="Rectangle-3-Copy-2" fill="#72C4B9" x="106.901099" y="382.593407" width="140.659341" height="16.8791209" rx="8.43956044"></rect>
                    <path d="M85.8241758,69.8351648 L86.0714286,69.8351648 L93.3653846,95.6483516 L99.3736264,95.6483516 L108.942308,59.9697802 L102.315934,59.9697802 L96.1346154,86.9945055 L95.9368132,86.9945055 L88.7664835,59.9697802 L83.1291209,59.9697802 L75.9587912,86.9945055 L75.760989,86.9945055 L69.5796703,59.9697802 L62.9532967,59.9697802 L72.521978,95.6483516 L78.5302198,95.6483516 L85.8241758,69.8351648 Z M113.222041,95.6483516 L119.378634,95.6483516 L119.378634,80.2445055 C119.378634,76.2142857 122.024239,73.5192308 125.881381,73.5192308 C129.614898,73.5192308 131.864898,75.8186813 131.864898,79.6263736 L131.864898,95.6483516 L138.021491,95.6483516 L138.021491,78.3901099 C138.021491,72.2335165 134.164349,68.3021978 128.205557,68.3021978 C124.076436,68.3021978 121.010502,70.032967 119.428085,73.3214286 L119.304458,73.3214286 L119.304458,58.3131868 L113.222041,58.3131868 L113.222041,95.6483516 Z M153.303972,91.2225275 C157.037488,91.2225275 159.880895,88.8983516 159.880895,85.6098901 L159.880895,83.5576923 L153.699576,83.9532967 C150.336939,84.1758242 148.556719,85.4615385 148.556719,87.6620879 C148.556719,89.8379121 150.43584,91.2225275 153.303972,91.2225275 Z M151.499027,95.9450549 C146.183093,95.9450549 142.3754,92.706044 142.3754,87.9093407 C142.3754,83.0879121 146.059466,80.3434066 152.858917,79.9230769 L159.880895,79.5027473 L159.880895,77.5247253 C159.880895,74.6565934 157.952323,73.0989011 154.639137,73.0989011 C151.845181,73.0989011 149.842433,74.5576923 149.422104,76.7335165 L143.73529,76.7335165 C143.883642,71.7884615 148.482543,68.2527473 154.836939,68.2527473 C161.586939,68.2527473 165.963312,71.7637363 165.963312,77.1291209 L165.963312,95.6483516 L160.053972,95.6483516 L160.053972,91.2967033 L159.90562,91.2967033 C158.422104,94.1895604 155.084192,95.9450549 151.499027,95.9450549 Z M173.259529,62.5906593 L173.259529,68.6236264 L169.575463,68.6236264 L169.575463,73.3956044 L173.259529,73.3956044 L173.259529,88.478022 C173.259529,93.6950549 175.534254,95.771978 181.270518,95.771978 C182.580958,95.771978 183.841947,95.6730769 184.509529,95.5247253 L184.509529,90.8021978 C184.113925,90.8516484 183.273265,90.9258242 182.679859,90.9258242 C180.454584,90.9258242 179.416122,89.8626374 179.416122,87.6373626 L179.416122,73.3956044 L184.534254,73.3956044 L184.534254,68.6236264 L179.416122,68.6236264 L179.416122,62.5906593 L173.259529,62.5906593 Z M211.118446,95.9450549 C204.368446,95.9450549 199.868446,90.5302198 199.868446,82.1236264 C199.868446,73.7417582 204.393171,68.3269231 211.093721,68.3269231 C215.000314,68.3269231 218.041523,70.1813187 219.500314,73.1730769 L219.648666,73.1730769 L219.648666,58.3131868 L225.805259,58.3131868 L225.805259,95.6483516 L219.772292,95.6483516 L219.772292,91.0494505 L219.648666,91.0494505 C218.189874,94.0659341 215.07449,95.9450549 211.118446,95.9450549 Z M212.923391,73.4450549 C208.843721,73.4450549 206.173391,76.8571429 206.173391,82.1483516 C206.173391,87.4642857 208.843721,90.8269231 212.923391,90.8269231 C217.003061,90.8269231 219.673391,87.3901099 219.673391,82.1483516 C219.673391,76.9313187 216.978336,73.4450549 212.923391,73.4450549 Z M241.359717,91.2225275 C245.093234,91.2225275 247.936641,88.8983516 247.936641,85.6098901 L247.936641,83.5576923 L241.755322,83.9532967 C238.392685,84.1758242 236.612465,85.4615385 236.612465,87.6620879 C236.612465,89.8379121 238.491586,91.2225275 241.359717,91.2225275 Z M239.554772,95.9450549 C234.238838,95.9450549 230.431146,92.706044 230.431146,87.9093407 C230.431146,83.0879121 234.115212,80.3434066 240.914663,79.9230769 L247.936641,79.5027473 L247.936641,77.5247253 C247.936641,74.6565934 246.008069,73.0989011 242.694882,73.0989011 C239.900926,73.0989011 237.898179,74.5576923 237.477849,76.7335165 L231.791036,76.7335165 C231.939388,71.7884615 236.538289,68.2527473 242.892685,68.2527473 C249.642685,68.2527473 254.019058,71.7637363 254.019058,77.1291209 L254.019058,95.6483516 L248.109717,95.6483516 L248.109717,91.2967033 L247.961366,91.2967033 C246.477849,94.1895604 243.139937,95.9450549 239.554772,95.9450549 Z M261.315275,62.5906593 L261.315275,68.6236264 L257.631209,68.6236264 L257.631209,73.3956044 L261.315275,73.3956044 L261.315275,88.478022 C261.315275,93.6950549 263.59,95.771978 269.326264,95.771978 C270.636703,95.771978 271.897692,95.6730769 272.565275,95.5247253 L272.565275,90.8021978 C272.16967,90.8516484 271.329011,90.9258242 270.735604,90.9258242 C268.51033,90.9258242 267.471868,89.8626374 267.471868,87.6373626 L267.471868,73.3956044 L272.59,73.3956044 L272.59,68.6236264 L267.471868,68.6236264 L267.471868,62.5906593 L261.315275,62.5906593 Z M286.93292,91.2225275 C290.666436,91.2225275 293.509843,88.8983516 293.509843,85.6098901 L293.509843,83.5576923 L287.328524,83.9532967 C283.965887,84.1758242 282.185667,85.4615385 282.185667,87.6620879 C282.185667,89.8379121 284.064788,91.2225275 286.93292,91.2225275 Z M285.127975,95.9450549 C279.812041,95.9450549 276.004349,92.706044 276.004349,87.9093407 C276.004349,83.0879121 279.688415,80.3434066 286.487865,79.9230769 L293.509843,79.5027473 L293.509843,77.5247253 C293.509843,74.6565934 291.581272,73.0989011 288.268085,73.0989011 C285.474129,73.0989011 283.471382,74.5576923 283.051052,76.7335165 L277.364239,76.7335165 C277.51259,71.7884615 282.111491,68.2527473 288.465887,68.2527473 C295.215887,68.2527473 299.592261,71.7637363 299.592261,77.1291209 L299.592261,95.6483516 L293.68292,95.6483516 L293.68292,91.2967033 L293.534568,91.2967033 C292.051052,94.1895604 288.71314,95.9450549 285.127975,95.9450549 Z M326.992386,95.9450549 C320.242386,95.9450549 315.742386,90.5302198 315.742386,82.1236264 C315.742386,73.7417582 320.267112,68.3269231 326.967661,68.3269231 C330.874254,68.3269231 333.915463,70.1813187 335.374254,73.1730769 L335.522606,73.1730769 L335.522606,58.3131868 L341.679199,58.3131868 L341.679199,95.6483516 L335.646232,95.6483516 L335.646232,91.0494505 L335.522606,91.0494505 C334.063815,94.0659341 330.94843,95.9450549 326.992386,95.9450549 Z M328.797331,73.4450549 C324.717661,73.4450549 322.047331,76.8571429 322.047331,82.1483516 C322.047331,87.4642857 324.717661,90.8269231 328.797331,90.8269231 C332.877002,90.8269231 335.547331,87.3901099 335.547331,82.1483516 C335.547331,76.9313187 332.852276,73.4450549 328.797331,73.4450549 Z M359.335306,96.043956 C351.373768,96.043956 346.329812,90.7527473 346.329812,82.1236264 C346.329812,73.5934066 351.423218,68.2527473 359.335306,68.2527473 C367.296845,68.2527473 372.365526,73.5686813 372.365526,82.1236264 C372.365526,90.7527473 367.346295,96.043956 359.335306,96.043956 Z M359.335306,91.1236264 C363.588053,91.1236264 366.110032,87.8104396 366.110032,82.1483516 C366.110032,76.4862637 363.563328,73.1730769 359.335306,73.1730769 C355.13201,73.1730769 352.585306,76.510989 352.585306,82.1483516 C352.585306,87.8104396 355.13201,91.1236264 359.335306,91.1236264 Z M391.606311,105.489011 C397.664003,105.489011 400.55686,103.239011 402.856311,96.5879121 L412.64752,68.6236264 L406.144772,68.6236264 L399.691476,90.3324176 L399.567849,90.3324176 L393.089827,68.6236264 L386.389278,68.6236264 L396.05686,95.7472527 L395.710707,97.0082418 C394.944223,99.5549451 393.485432,100.568681 390.864553,100.568681 C390.468948,100.568681 389.529388,100.543956 389.183234,100.46978 L389.183234,105.365385 C389.554113,105.43956 391.235432,105.489011 391.606311,105.489011 Z M427.212967,96.043956 C419.251429,96.043956 414.207473,90.7527473 414.207473,82.1236264 C414.207473,73.5934066 419.300879,68.2527473 427.212967,68.2527473 C435.174506,68.2527473 440.243187,73.5686813 440.243187,82.1236264 C440.243187,90.7527473 435.223956,96.043956 427.212967,96.043956 Z M427.212967,91.1236264 C431.465714,91.1236264 433.987692,87.8104396 433.987692,82.1483516 C433.987692,76.4862637 431.440989,73.1730769 427.212967,73.1730769 C423.00967,73.1730769 420.462967,76.510989 420.462967,82.1483516 C420.462967,87.8104396 423.00967,91.1236264 427.212967,91.1236264 Z M469.025667,68.6236264 L462.869074,68.6236264 L462.869074,84.1263736 C462.869074,88.1318681 460.322371,90.7774725 456.564129,90.7774725 C452.929513,90.7774725 450.778415,88.6510989 450.778415,84.7197802 L450.778415,68.6236264 L444.621821,68.6236264 L444.621821,85.956044 C444.621821,92.1868132 448.478964,95.9945055 454.363579,95.9945055 C458.467975,95.9945055 461.484459,94.2142857 462.967975,90.9258242 L463.116327,90.9258242 L463.116327,95.6483516 L469.025667,95.6483516 L469.025667,68.6236264 Z M497.95876,73.0494505 C494.34887,73.0494505 491.727991,75.6703297 491.456013,79.5274725 L504.263705,79.5274725 C504.140079,75.6208791 501.618101,73.0494505 497.95876,73.0494505 Z M504.28843,87.6126374 L510.074145,87.6126374 C509.282936,92.6071429 504.486233,96.043956 498.181287,96.043956 C490.195024,96.043956 485.249969,90.7527473 485.249969,82.2472527 C485.249969,73.7417582 490.219749,68.2527473 497.95876,68.2527473 C505.524694,68.2527473 510.321397,73.4203297 510.321397,81.6043956 L510.321397,83.6318681 L491.406562,83.6318681 L491.406562,84.0027473 C491.406562,88.3543956 494.175793,91.2472527 498.304914,91.2472527 C501.271947,91.2472527 503.571397,89.8379121 504.28843,87.6126374 Z M524.886845,85.8818681 L530.573658,95.6483516 L537.323658,95.6483516 L528.694537,82 L537.422559,68.6236264 L530.672559,68.6236264 L525.183548,78.1923077 L525.059922,78.1923077 L519.496735,68.6236264 L512.573658,68.6236264 L521.276955,82.1730769 L512.474757,95.6483516 L519.076405,95.6483516 L524.738493,85.8818681 L524.886845,85.8818681 Z M555.770973,68.3269231 C562.6446,68.3269231 567.020973,73.6675824 567.020973,82.1483516 C567.020973,90.6043956 562.669325,95.9450549 555.869875,95.9450549 C551.988006,95.9450549 548.946798,94.1895604 547.389105,91.1730769 L547.265479,91.1730769 L547.265479,104.326923 L541.108886,104.326923 L541.108886,68.6236264 L547.117127,68.6236264 L547.117127,73.1730769 L547.240754,73.1730769 C548.72427,70.206044 551.988006,68.3269231 555.770973,68.3269231 Z M553.966028,90.8269231 C558.045699,90.8269231 560.716028,87.4395604 560.716028,82.1483516 C560.716028,76.8818681 558.045699,73.4450549 553.966028,73.4450549 C549.935809,73.4450549 547.240754,76.956044 547.240754,82.1483516 C547.240754,87.3653846 549.935809,90.8269231 553.966028,90.8269231 Z M583.416091,96.043956 C575.454553,96.043956 570.410597,90.7527473 570.410597,82.1236264 C570.410597,73.5934066 575.504003,68.2527473 583.416091,68.2527473 C591.37763,68.2527473 596.446311,73.5686813 596.446311,82.1236264 C596.446311,90.7527473 591.42708,96.043956 583.416091,96.043956 Z M583.416091,91.1236264 C587.668839,91.1236264 590.190817,87.8104396 590.190817,82.1483516 C590.190817,76.4862637 587.644113,73.1730769 583.416091,73.1730769 C579.212795,73.1730769 576.666091,76.510989 576.666091,82.1483516 C576.666091,87.8104396 579.212795,91.1236264 583.416091,91.1236264 Z M600.948572,95.6483516 L607.105165,95.6483516 L607.105165,79.9725275 C607.105165,76.1648352 609.280989,73.8159341 612.890879,73.8159341 C613.731539,73.8159341 614.844176,73.9642857 615.338682,74.1868132 L615.338682,68.5741758 C614.893627,68.4258242 614.102418,68.3269231 613.459561,68.3269231 C610.27,68.3269231 607.846923,70.1565934 606.981539,73.3214286 L606.857912,73.3214286 L606.857912,68.6236264 L600.948572,68.6236264 L600.948572,95.6483516 Z M620.854678,62.5906593 L620.854678,68.6236264 L617.170612,68.6236264 L617.170612,73.3956044 L620.854678,73.3956044 L620.854678,88.478022 C620.854678,93.6950549 623.129404,95.771978 628.865667,95.771978 C630.176107,95.771978 631.437096,95.6730769 632.104678,95.5247253 L632.104678,90.8021978 C631.709074,90.8516484 630.868415,90.9258242 630.275008,90.9258242 C628.049733,90.9258242 627.011272,89.8626374 627.011272,87.6373626 L627.011272,73.3956044 L632.129404,73.3956044 L632.129404,68.6236264 L627.011272,68.6236264 L627.011272,62.5906593 L620.854678,62.5906593 Z M647.47439,58.7843516 C643.727225,58.7843516 640.790258,59.8477363 638.612851,61.9745055 C636.384807,64.1012747 635.321423,67.0382418 635.321423,70.7854066 L641.094082,70.7854066 C641.094082,68.6586374 641.499181,66.9876044 642.360016,65.8229451 C643.322126,64.4050989 644.891884,63.7468132 647.119928,63.7468132 C648.841598,63.7468132 650.208807,64.2025495 651.170917,65.1646593 C652.08239,66.1267692 652.588763,67.4433407 652.588763,69.1143736 C652.588763,70.3803077 652.133027,71.5956044 651.221554,72.7096264 L650.613906,73.4185495 C647.322477,76.3555165 645.34762,78.4822857 644.689335,79.8494945 C643.980412,81.2167033 643.676587,82.8877363 643.676587,84.811956 L643.676587,85.5208791 L649.499884,85.5208791 L649.499884,84.811956 C649.499884,83.5966593 649.753071,82.5332747 650.259444,81.5205275 C650.715181,80.6090549 651.373466,79.7482198 652.284939,78.9886593 C654.715532,76.8618901 656.184016,75.4946813 656.639752,74.9883077 C657.855049,73.3679121 658.513335,71.2917802 658.513335,68.7599121 C658.513335,65.671033 657.500587,63.2404396 655.475093,61.4681319 C653.449598,59.6451868 650.765818,58.7843516 647.47439,58.7843516 Z M646.562917,88.0021099 C645.448895,88.0021099 644.537423,88.3565714 643.777862,89.0654945 C643.018302,89.7744176 642.66384,90.6858901 642.66384,91.7999121 C642.66384,92.9139341 643.018302,93.8254066 643.777862,94.5343297 C644.537423,95.2432527 645.448895,95.6483516 646.562917,95.6483516 C647.676939,95.6483516 648.588412,95.2938901 649.347972,94.584967 C650.107532,93.876044 650.512631,92.9139341 650.512631,91.7999121 C650.512631,90.6858901 650.107532,89.7744176 649.398609,89.0654945 C648.639049,88.3565714 647.676939,88.0021099 646.562917,88.0021099 Z" id="What-data-do-you-exp" fill="#A9B9C6"></path>
                </g>
            </g>
        </g>
    </g>
</svg>