<svg xmlns="http://www.w3.org/2000/svg" viewBox="0 0 1024 1024"><path d="M993.5 470.4c-17.4.6-32.6-12.2-33.7-29.7C944.2 194.6 711.5 63.6 549.6 63.6c-181.6 0-369.2 128-379.2 414-.2 6.5-2.4 12.8-6.3 18-5.9 7.8-12.8 16.8-20.4 26.5-20.7 26.8-66.3 85.5-77.1 112.5 13.7 4.4 39.1 8.3 54.1 10.6 45.5 6.9 84.8 12.9 84.8 49.5 0 119.6 11.8 236.6 25.7 255.5 5.5 4.4 33.1 15.4 158.4 7.4l14.3-.9c18.1-1.2 32.4 12.6 33.3 30.2.9 17.5-12.6 32.4-30.2 33.3l-13.4.8c-29.2 1.8-56.1 3-80.4 3-62.5 0-107.7-7.8-129.3-31.3-34.3-37.5-41.2-183.8-42-279.5-9.2-1.8-21.6-3.8-30.9-5.2-48.9-7.5-95.1-14.5-107.4-48.2-13-35.7 15.8-81.3 89.8-176.6 4.9-6.4 9.6-12.4 13.9-17.9C123 145.7 346.5 0 549.6 0c214.5 0 456.5 167 473.7 436.7 1.1 17.5-12.2 32.6-29.8 33.7zm-438.3 56.5c6.9-.4 15-.6 22.9-.6 65.1 0 124.2 14.9 180.1 45.3 2.1-.4 4-1.2 6.3-1.2 25.3-13.3 51.6-23.7 79.5-31 40.8-10.6 84.2-14.9 128.9-12.5h.1c23.6 0 43.8 20.9 43.8 46.6l.1 176.4v12l-.1 159.8c0 1-.2 3.6-.3 4.7-3 24.4-22.2 41.9-44.8 41.9-1 0-3.8-.2-4.8-.3-33.3-3.9-63.4-1.4-94.9 7.5-29.6 8.3-60.5 21.7-87.2 37.8-1 .6-1.9 1.3-3 1.8-1.1.6-3.6 1.8-4.8 2.3-.6.2-1.2.4-1.7.6-.9.3-1.7.6-2.6.9-1.2.4-2.6.8-3.8 1.1-1.9.4-4.5.8-6.5.8-1 0-2.4-.1-3.9-.2v.2c-3.1 0-7.2-.5-10.3-1.6l-2.7-.9c-.2-.1-.4-.1-.6-.2-2.6-.8-5.3-1.9-7.5-3.3-.3-.2-.7-.5-1.2-.8-29.3-17.9-53.2-30.6-81.3-38.6-31.4-8.8-62.2-11-94.7-7.3-1.1.1-3.9.3-5 .3-22.5 0-41.8-17.4-44.7-40.6-.2-1.4-.3-2.8-.3-4.2l-.2-350.1c0-25.7 20.3-46.6 45.2-46.6zm401.4 376.3v-69.3l.1-72.1-.1-171.9c-35.7-.8-67.2 3.1-98.3 11.2-22 5.8-42.4 14.3-62 24.1V937c20-9.2 40.3-17.4 60.1-23 33.3-9.5 65.8-13.1 100.2-10.8zm-386.5-.1c6.4-.4 12.9-.7 19.4-.7 27.3 0 53.7 3.7 80.8 11.3 22.4 6.4 42.3 15.6 62.4 26.3V629.8c-50.4-27.8-103.4-41.4-162.6-39.9v313.2z"/></svg>