<svg width="1024px" height="1024px" viewBox="0 0 1024 1024" version="1.1">
    <g id="Page-1" stroke="none" stroke-width="1" fill="none" fill-rule="evenodd">
        <g id="关系数据库">
            <g id="Group" transform="translate(0.000000, 136.000000)">
                <path d="M361.997978,584.606673 L662.002022,584.606673 L662.002022,260.788675 L361.997978,260.788675 L361.997978,584.606673 Z M345.302326,244.093023 L678.697674,244.093023 L678.697674,601.302326 L345.302326,601.302326 L345.302326,244.093023 Z" id="Rectangle-70" fill="#54C4E9" fill-rule="nonzero"></path>
                <path d="M582.665319,422.309403 C579.591734,422.309403 577.100101,424.801036 577.100101,427.874621 L577.100101,739.0091 C577.100101,742.082685 579.591734,744.574317 582.665319,744.574317 L1012.86957,744.574317 C1015.94315,744.574317 1018.43478,742.082685 1018.43478,739.0091 L1018.43478,427.874621 C1018.43478,424.801036 1015.94315,422.309403 1012.86957,422.309403 L582.665319,422.309403 Z" id="Path" fill="#FFFFFF"></path>
                <path d="M582.665319,422.309403 C579.591734,422.309403 577.100101,424.801036 577.100101,427.874621 L577.100101,739.0091 C577.100101,742.082685 579.591734,744.574317 582.665319,744.574317 L1012.86957,744.574317 C1015.94315,744.574317 1018.43478,742.082685 1018.43478,739.0091 L1018.43478,427.874621 C1018.43478,424.801036 1015.94315,422.309403 1012.86957,422.309403 L582.665319,422.309403 Z M582.665319,416.744186 L1012.86957,416.744186 C1019.01673,416.744186 1024,421.727451 1024,427.874621 L1024,739.0091 C1024,745.156269 1019.01673,750.139535 1012.86957,750.139535 L582.665319,750.139535 C576.518149,750.139535 571.534884,745.156269 571.534884,739.0091 L571.534884,427.874621 C571.534884,421.727451 576.518149,416.744186 582.665319,416.744186 Z" id="Rectangle-69-Copy" fill="#D7E1E7" fill-rule="nonzero"></path>
                <rect id="Rectangle-25" fill="#409CF2" x="619.162791" y="494.139535" width="35.7209302" height="35.7209302"></rect>
                <rect id="Rectangle-25-Copy-3" fill="#70C9F8" x="619.162791" y="577.488372" width="35.7209302" height="35.7209302"></rect>
                <rect id="Rectangle-69" fill="#D8EAF9" x="690.604651" y="506.046512" width="285.767442" height="11.9069767" rx="5.95348837"></rect>
                <rect id="Rectangle-69-Copy-2" fill="#D8EAF9" x="690.604651" y="589.395349" width="285.767442" height="11.9069767" rx="5.95348837"></rect>
                <rect id="Rectangle-25-Copy-4" fill="#70C9F8" x="619.162791" y="660.837209" width="35.7209302" height="35.7209302"></rect>
                <rect id="Rectangle-69-Copy-3" fill="#D8EAF9" x="690.604651" y="672.744186" width="285.767442" height="11.9069767" rx="5.95348837"></rect>
                <path d="M582.665319,416.744186 L1012.86957,416.744186 C1019.01673,416.744186 1024,421.727451 1024,427.874621 L1024,452.465116 L571.534884,452.465116 L571.534884,427.874621 C571.534884,421.727451 576.518149,416.744186 582.665319,416.744186 Z M595.348837,440.55814 C598.636858,440.55814 601.302326,437.892672 601.302326,434.604651 C601.302326,431.31663 598.636858,428.651163 595.348837,428.651163 C592.060816,428.651163 589.395349,431.31663 589.395349,434.604651 C589.395349,437.892672 592.060816,440.55814 595.348837,440.55814 Z M619.162791,440.55814 C622.450812,440.55814 625.116279,437.892672 625.116279,434.604651 C625.116279,431.31663 622.450812,428.651163 619.162791,428.651163 C615.87477,428.651163 613.209302,431.31663 613.209302,434.604651 C613.209302,437.892672 615.87477,440.55814 619.162791,440.55814 Z M642.976744,440.55814 C646.264765,440.55814 648.930233,437.892672 648.930233,434.604651 C648.930233,431.31663 646.264765,428.651163 642.976744,428.651163 C639.688723,428.651163 637.023256,431.31663 637.023256,434.604651 C637.023256,437.892672 639.688723,440.55814 642.976744,440.55814 Z" id="Combined-Shape" fill="#176EDA"></path>
                <path d="M11.1304348,422.309403 C8.05685009,422.309403 5.56521739,424.801036 5.56521739,427.874621 L5.56521739,739.0091 C5.56521739,742.082685 8.05685009,744.574317 11.1304348,744.574317 L441.334681,744.574317 C444.408266,744.574317 446.899899,742.082685 446.899899,739.0091 L446.899899,427.874621 C446.899899,424.801036 444.408266,422.309403 441.334681,422.309403 L11.1304348,422.309403 Z" id="Path" fill="#FFFFFF"></path>
                <path d="M11.1304348,422.309403 C8.05685009,422.309403 5.56521739,424.801036 5.56521739,427.874621 L5.56521739,739.0091 C5.56521739,742.082685 8.05685009,744.574317 11.1304348,744.574317 L441.334681,744.574317 C444.408266,744.574317 446.899899,742.082685 446.899899,739.0091 L446.899899,427.874621 C446.899899,424.801036 444.408266,422.309403 441.334681,422.309403 L11.1304348,422.309403 Z M11.1304348,416.744186 L441.334681,416.744186 C447.481851,416.744186 452.465116,421.727451 452.465116,427.874621 L452.465116,739.0091 C452.465116,745.156269 447.481851,750.139535 441.334681,750.139535 L11.1304348,750.139535 C4.98326539,750.139535 2.25919439e-14,745.156269 0,739.0091 L1.2357265e-15,427.874621 C-7.52811132e-16,421.727451 4.98326539,416.744186 11.1304348,416.744186 Z" id="Rectangle-69-Copy" fill="#D7E1E7" fill-rule="nonzero"></path>
                <rect id="Rectangle-25" fill="#70C9F8" x="47.627907" y="494.139535" width="35.7209302" height="35.7209302"></rect>
                <rect id="Rectangle-25-Copy-3" fill="#70C9F8" x="47.627907" y="577.488372" width="35.7209302" height="35.7209302"></rect>
                <rect id="Rectangle-69" fill="#D8EAF9" x="119.069767" y="506.046512" width="285.767442" height="11.9069767"></rect>
                <rect id="Rectangle-69-Copy-2" fill="#D8EAF9" x="119.069767" y="589.395349" width="285.767442" height="11.9069767"></rect>
                <rect id="Rectangle-25-Copy-4" fill="#70C9F8" x="47.627907" y="660.837209" width="35.7209302" height="35.7209302"></rect>
                <rect id="Rectangle-69-Copy-3" fill="#D8EAF9" x="119.069767" y="672.744186" width="285.767442" height="11.9069767"></rect>
                <path d="M11.1304348,416.744186 L441.334681,416.744186 C447.481851,416.744186 452.465116,421.727451 452.465116,427.874621 L452.465116,452.465116 L0,452.465116 L0,427.874621 C-7.52811132e-16,421.727451 4.98326539,416.744186 11.1304348,416.744186 Z M23.8139535,440.55814 C27.1019743,440.55814 29.7674419,437.892672 29.7674419,434.604651 C29.7674419,431.31663 27.1019743,428.651163 23.8139535,428.651163 C20.5259327,428.651163 17.8604651,431.31663 17.8604651,434.604651 C17.8604651,437.892672 20.5259327,440.55814 23.8139535,440.55814 Z M47.627907,440.55814 C50.9159278,440.55814 53.5813953,437.892672 53.5813953,434.604651 C53.5813953,431.31663 50.9159278,428.651163 47.627907,428.651163 C44.3398861,428.651163 41.6744186,431.31663 41.6744186,434.604651 C41.6744186,437.892672 44.3398861,440.55814 47.627907,440.55814 Z M71.4418605,440.55814 C74.7298813,440.55814 77.3953488,437.892672 77.3953488,434.604651 C77.3953488,431.31663 74.7298813,428.651163 71.4418605,428.651163 C68.1538396,428.651163 65.4883721,431.31663 65.4883721,434.604651 C65.4883721,437.892672 68.1538396,440.55814 71.4418605,440.55814 Z" id="Combined-Shape" fill="#176EDA"></path>
                <path d="M296.897877,5.56521739 C293.824292,5.56521739 291.332659,8.05685009 291.332659,11.1304348 L291.332659,322.264914 C291.332659,325.338499 293.824292,327.830131 296.897877,327.830131 L727.102123,327.830131 C730.175708,327.830131 732.667341,325.338499 732.667341,322.264914 L732.667341,11.1304348 C732.667341,8.05685009 730.175708,5.56521739 727.102123,5.56521739 L296.897877,5.56521739 Z" id="Path" fill="#FFFFFF"></path>
                <path d="M296.897877,5.56521739 C293.824292,5.56521739 291.332659,8.05685009 291.332659,11.1304348 L291.332659,322.264914 C291.332659,325.338499 293.824292,327.830131 296.897877,327.830131 L727.102123,327.830131 C730.175708,327.830131 732.667341,325.338499 732.667341,322.264914 L732.667341,11.1304348 C732.667341,8.05685009 730.175708,5.56521739 727.102123,5.56521739 L296.897877,5.56521739 Z M296.897877,0 L727.102123,0 C733.249293,0 738.232558,4.98326539 738.232558,11.1304348 L738.232558,322.264914 C738.232558,328.412083 733.249293,333.395349 727.102123,333.395349 L296.897877,333.395349 C290.750707,333.395349 285.767442,328.412083 285.767442,322.264914 L285.767442,11.1304348 C285.767442,4.98326539 290.750707,0 296.897877,0 Z" id="Rectangle-69-Copy" fill="#D7E1E7" fill-rule="nonzero"></path>
                <rect id="Rectangle-25" fill="#409CF2" x="47.627907" y="494.139535" width="35.7209302" height="35.7209302"></rect>
                <rect id="Rectangle-25-Copy-5" fill="#409CF2" x="333.395349" y="77.3953488" width="35.7209302" height="35.7209302"></rect>
                <rect id="Rectangle-25-Copy-3" fill="#70C9F8" x="47.627907" y="577.488372" width="35.7209302" height="35.7209302"></rect>
                <rect id="Rectangle-25-Copy-6" fill="#70C9F8" x="333.395349" y="160.744186" width="35.7209302" height="35.7209302"></rect>
                <rect id="Rectangle-69" fill="#D8EAF9" x="119.069767" y="506.046512" width="285.767442" height="11.9069767" rx="5.95348837"></rect>
                <rect id="Rectangle-69-Copy-2" fill="#D8EAF9" x="119.069767" y="589.395349" width="285.767442" height="11.9069767" rx="5.95348837"></rect>
                <path d="M433.367037,81.6032609 L426.600733,81.6032609 L426.600733,98.6413043 C426.600733,103.043478 423.80182,105.951087 419.671385,105.951087 C415.67682,105.951087 413.31269,103.61413 413.31269,99.2934783 L413.31269,81.6032609 L406.546385,81.6032609 L406.546385,100.652174 C406.546385,107.5 410.785516,111.684783 417.252907,111.684783 C421.763777,111.684783 425.078994,109.728261 426.709429,106.11413 L426.872472,106.11413 L426.872472,111.304348 L433.367037,111.304348 L433.367037,81.6032609 Z M437.053342,90.1902174 C437.053342,94.4021739 439.825081,97.201087 445.259863,98.4782609 L450.640298,99.7826087 C453.602255,100.48913 454.689211,101.413043 454.689211,103.152174 C454.689211,105.353261 452.542472,106.73913 449.091385,106.73913 C445.558777,106.73913 443.35769,105.244565 442.950081,102.554348 L436.292472,102.554348 C436.727255,108.070652 441.537037,111.73913 448.819646,111.73913 C456.265298,111.73913 461.428342,108.016304 461.428342,102.5 C461.428342,98.125 459.145733,95.8695652 453.167472,94.4836957 L447.950081,93.2880435 C445.015298,92.6086957 443.629429,91.4673913 443.629429,89.8097826 C443.629429,87.6358696 445.694646,86.1956522 448.84682,86.1956522 C452.080516,86.1956522 454.227255,87.7717391 454.444646,90.2717391 L460.748994,90.2717391 C460.613124,84.8913043 455.830516,81.1956522 448.98269,81.1956522 C441.83595,81.1956522 437.053342,84.8097826 437.053342,90.1902174 Z M477.098342,86.4673913 C473.13095,86.4673913 470.250516,89.3478261 469.951603,93.5869565 L484.02769,93.5869565 C483.89182,89.2934783 481.120081,86.4673913 477.098342,86.4673913 Z M484.054863,102.472826 L490.413559,102.472826 C489.543994,107.961957 484.272255,111.73913 477.342907,111.73913 C468.565733,111.73913 463.13095,105.923913 463.13095,96.576087 C463.13095,87.2282609 468.592907,81.1956522 477.098342,81.1956522 C485.413559,81.1956522 490.685298,86.875 490.685298,95.8695652 L490.685298,98.0978261 L469.897255,98.0978261 L469.897255,98.5054348 C469.897255,103.288043 472.940733,106.467391 477.478777,106.467391 C480.739646,106.467391 483.26682,104.918478 484.054863,102.472826 Z M493.665081,111.304348 L500.431385,111.304348 L500.431385,94.076087 C500.431385,89.8913043 502.82269,87.3097826 506.790081,87.3097826 C507.713994,87.3097826 508.93682,87.4728261 509.480298,87.7173913 L509.480298,81.548913 C508.991168,81.3858696 508.121603,81.2771739 507.415081,81.2771739 C503.909646,81.2771739 501.246603,83.2880435 500.295516,86.7663043 L500.159646,86.7663043 L500.159646,81.6032609 L493.665081,81.6032609 L493.665081,111.304348 Z M533.085081,119.23913 L533.085081,114.211957 L507.432907,114.211957 L507.432907,119.23913 L533.085081,119.23913 Z M533.075733,111.304348 L539.842037,111.304348 L539.842037,94.2663043 C539.842037,89.9184783 542.613777,86.9836957 546.771385,86.9836957 C550.847472,86.9836957 553.130081,89.375 553.130081,93.6141304 L553.130081,111.304348 L559.896385,111.304348 L559.896385,92.2826087 C559.896385,85.4076087 555.874646,81.25 549.298559,81.25 C544.733342,81.25 541.472472,83.1521739 539.706168,86.7663043 L539.570298,86.7663043 L539.570298,81.6032609 L533.075733,81.6032609 L533.075733,111.304348 Z M574.69682,106.440217 C578.800081,106.440217 581.925081,103.88587 581.925081,100.271739 L581.925081,98.0163043 L575.131603,98.451087 C571.43595,98.6956522 569.479429,100.108696 569.479429,102.527174 C569.479429,104.918478 571.544646,106.440217 574.69682,106.440217 Z M572.713124,111.630435 C566.870733,111.630435 562.68595,108.070652 562.68595,102.798913 C562.68595,97.5 566.734863,94.4836957 574.20769,94.0217391 L581.925081,93.5597826 L581.925081,91.3858696 C581.925081,88.2336957 579.805516,86.5217391 576.164211,86.5217391 C573.093559,86.5217391 570.892472,88.125 570.430516,90.5163043 L564.180516,90.5163043 C564.343559,85.0815217 569.397907,81.1956522 576.381603,81.1956522 C583.800081,81.1956522 588.609863,85.0543478 588.609863,90.951087 L588.609863,111.304348 L582.115298,111.304348 L582.115298,106.521739 L581.952255,106.521739 C580.32182,109.701087 576.653342,111.630435 572.713124,111.630435 Z M592.73095,111.304348 L599.497255,111.304348 L599.497255,93.2608696 C599.497255,89.5923913 601.915733,86.9565217 605.339646,86.9565217 C608.62769,86.9565217 610.692907,89.0217391 610.692907,92.3641304 L610.692907,111.304348 L617.268994,111.304348 L617.268994,93.0978261 C617.268994,89.4836957 619.633124,86.9565217 623.029863,86.9565217 C626.508124,86.9565217 628.464646,89.048913 628.464646,92.7445652 L628.464646,111.304348 L635.23095,111.304348 L635.23095,91.0869565 C635.23095,85.1630435 631.372255,81.25 625.529863,81.25 C621.263559,81.25 617.703776,83.5054348 616.263559,87.1467391 L616.12769,87.1467391 C615.013559,83.3695652 611.997255,81.25 607.812472,81.25 C603.899429,81.25 600.665733,83.3695652 599.361385,86.8206522 L599.225516,86.8206522 L599.225516,81.6032609 L592.73095,81.6032609 L592.73095,111.304348 Z M652.015081,86.4673913 C648.04769,86.4673913 645.167255,89.3478261 644.868342,93.5869565 L658.944429,93.5869565 C658.808559,89.2934783 656.03682,86.4673913 652.015081,86.4673913 Z M658.971603,102.472826 L665.330298,102.472826 C664.460733,107.961957 659.188994,111.73913 652.259646,111.73913 C643.482472,111.73913 638.04769,105.923913 638.04769,96.576087 C638.04769,87.2282609 643.509646,81.1956522 652.015081,81.1956522 C660.330298,81.1956522 665.602037,86.875 665.602037,95.8695652 L665.602037,98.0978261 L644.813994,98.0978261 L644.813994,98.5054348 C644.813994,103.288043 647.857472,106.467391 652.395516,106.467391 C655.656385,106.467391 658.183559,104.918478 658.971603,102.472826 Z" id="user_name" fill="#A9B9C6"></path>
                <path d="M433.367037,165.081522 L426.600733,165.081522 L426.600733,182.119565 C426.600733,186.521739 423.80182,189.429348 419.671385,189.429348 C415.67682,189.429348 413.31269,187.092391 413.31269,182.771739 L413.31269,165.081522 L406.546385,165.081522 L406.546385,184.130435 C406.546385,190.978261 410.785516,195.163043 417.252907,195.163043 C421.763777,195.163043 425.078994,193.206522 426.709429,189.592391 L426.872472,189.592391 L426.872472,194.782609 L433.367037,194.782609 L433.367037,165.081522 Z M437.053342,173.668478 C437.053342,177.880435 439.825081,180.679348 445.259863,181.956522 L450.640298,183.26087 C453.602255,183.967391 454.689211,184.891304 454.689211,186.630435 C454.689211,188.831522 452.542472,190.217391 449.091385,190.217391 C445.558777,190.217391 443.35769,188.722826 442.950081,186.032609 L436.292472,186.032609 C436.727255,191.548913 441.537037,195.217391 448.819646,195.217391 C456.265298,195.217391 461.428342,191.494565 461.428342,185.978261 C461.428342,181.603261 459.145733,179.347826 453.167472,177.961957 L447.950081,176.766304 C445.015298,176.086957 443.629429,174.945652 443.629429,173.288043 C443.629429,171.11413 445.694646,169.673913 448.84682,169.673913 C452.080516,169.673913 454.227255,171.25 454.444646,173.75 L460.748994,173.75 C460.613124,168.369565 455.830516,164.673913 448.98269,164.673913 C441.83595,164.673913 437.053342,168.288043 437.053342,173.668478 Z M477.098342,169.945652 C473.13095,169.945652 470.250516,172.826087 469.951603,177.065217 L484.02769,177.065217 C483.89182,172.771739 481.120081,169.945652 477.098342,169.945652 Z M484.054863,185.951087 L490.413559,185.951087 C489.543994,191.440217 484.272255,195.217391 477.342907,195.217391 C468.565733,195.217391 463.13095,189.402174 463.13095,180.054348 C463.13095,170.706522 468.592907,164.673913 477.098342,164.673913 C485.413559,164.673913 490.685298,170.353261 490.685298,179.347826 L490.685298,181.576087 L469.897255,181.576087 L469.897255,181.983696 C469.897255,186.766304 472.940733,189.945652 477.478777,189.945652 C480.739646,189.945652 483.26682,188.396739 484.054863,185.951087 Z M493.665081,194.782609 L500.431385,194.782609 L500.431385,177.554348 C500.431385,173.369565 502.82269,170.788043 506.790081,170.788043 C507.713994,170.788043 508.93682,170.951087 509.480298,171.195652 L509.480298,165.027174 C508.991168,164.86413 508.121603,164.755435 507.415081,164.755435 C503.909646,164.755435 501.246603,166.766304 500.295516,170.244565 L500.159646,170.244565 L500.159646,165.081522 L493.665081,165.081522 L493.665081,194.782609 Z M533.085081,202.717391 L507.432907,202.717391 L507.432907,197.690217 L533.085081,197.690217 L533.085081,202.717391 Z M549.189863,164.755435 C556.744211,164.755435 561.553994,170.625 561.553994,179.945652 C561.553994,189.23913 556.771385,195.108696 549.298559,195.108696 C545.032255,195.108696 541.689863,193.179348 539.977907,189.86413 L539.842037,189.86413 L539.842037,204.320652 L533.075733,204.320652 L533.075733,165.081522 L539.678994,165.081522 L539.678994,170.081522 L539.814863,170.081522 C541.445298,166.820652 545.032255,164.755435 549.189863,164.755435 Z M547.206168,189.483696 C551.689863,189.483696 554.624646,185.76087 554.624646,179.945652 C554.624646,174.157609 551.689863,170.380435 547.206168,170.380435 C542.77682,170.380435 539.814863,174.23913 539.814863,179.945652 C539.814863,185.679348 542.77682,189.483696 547.206168,189.483696 Z M604.397907,165.081522 L597.713124,165.081522 L592.577255,188.016304 L592.441385,188.016304 L586.544646,165.081522 L580.050081,165.081522 L574.153342,188.016304 L574.017472,188.016304 L568.908777,165.081522 L562.142472,165.081522 L570.213124,194.782609 L577.251168,194.782609 L583.147907,172.961957 L583.31095,172.961957 L589.234863,194.782609 L596.327255,194.782609 L604.397907,165.081522 Z M617.187472,195.108696 C609.768994,195.108696 604.823342,189.157609 604.823342,179.918478 C604.823342,170.706522 609.796168,164.755435 617.160298,164.755435 C621.453776,164.755435 624.796168,166.793478 626.399429,170.081522 L626.562472,170.081522 L626.562472,153.75 L633.328776,153.75 L633.328776,194.782609 L626.698342,194.782609 L626.698342,189.728261 L626.562472,189.728261 C624.959211,193.043478 621.535298,195.108696 617.187472,195.108696 Z M619.171168,170.380435 C614.687472,170.380435 611.75269,174.130435 611.75269,179.945652 C611.75269,185.788043 614.687472,189.483696 619.171168,189.483696 C623.654863,189.483696 626.589646,185.706522 626.589646,179.945652 C626.589646,174.211957 623.62769,170.380435 619.171168,170.380435 Z" id="user_pwd" fill="#A9B9C6"></path>
                <path d="M433.367037,248.559783 L426.600733,248.559783 L426.600733,265.597826 C426.600733,270 423.80182,272.907609 419.671385,272.907609 C415.67682,272.907609 413.31269,270.570652 413.31269,266.25 L413.31269,248.559783 L406.546385,248.559783 L406.546385,267.608696 C406.546385,274.456522 410.785516,278.641304 417.252907,278.641304 C421.763777,278.641304 425.078994,276.684783 426.709429,273.070652 L426.872472,273.070652 L426.872472,278.26087 L433.367037,278.26087 L433.367037,248.559783 Z M437.053342,257.146739 C437.053342,261.358696 439.825081,264.157609 445.259863,265.434783 L450.640298,266.73913 C453.602255,267.445652 454.689211,268.369565 454.689211,270.108696 C454.689211,272.309783 452.542472,273.695652 449.091385,273.695652 C445.558777,273.695652 443.35769,272.201087 442.950081,269.51087 L436.292472,269.51087 C436.727255,275.027174 441.537037,278.695652 448.819646,278.695652 C456.265298,278.695652 461.428342,274.972826 461.428342,269.456522 C461.428342,265.081522 459.145733,262.826087 453.167472,261.440217 L447.950081,260.244565 C445.015298,259.565217 443.629429,258.423913 443.629429,256.766304 C443.629429,254.592391 445.694646,253.152174 448.84682,253.152174 C452.080516,253.152174 454.227255,254.728261 454.444646,257.228261 L460.748994,257.228261 C460.613124,251.847826 455.830516,248.152174 448.98269,248.152174 C441.83595,248.152174 437.053342,251.766304 437.053342,257.146739 Z M477.098342,253.423913 C473.13095,253.423913 470.250516,256.304348 469.951603,260.543478 L484.02769,260.543478 C483.89182,256.25 481.120081,253.423913 477.098342,253.423913 Z M484.054863,269.429348 L490.413559,269.429348 C489.543994,274.918478 484.272255,278.695652 477.342907,278.695652 C468.565733,278.695652 463.13095,272.880435 463.13095,263.532609 C463.13095,254.184783 468.592907,248.152174 477.098342,248.152174 C485.413559,248.152174 490.685298,253.831522 490.685298,262.826087 L490.685298,265.054348 L469.897255,265.054348 L469.897255,265.461957 C469.897255,270.244565 472.940733,273.423913 477.478777,273.423913 C480.739646,273.423913 483.26682,271.875 484.054863,269.429348 Z M493.665081,278.26087 L500.431385,278.26087 L500.431385,261.032609 C500.431385,256.847826 502.82269,254.266304 506.790081,254.266304 C507.713994,254.266304 508.93682,254.429348 509.480298,254.673913 L509.480298,248.505435 C508.991168,248.342391 508.121603,248.233696 507.415081,248.233696 C503.909646,248.233696 501.246603,250.244565 500.295516,253.722826 L500.159646,253.722826 L500.159646,248.559783 L493.665081,248.559783 L493.665081,278.26087 Z M533.085081,286.195652 L533.085081,281.168478 L507.432907,281.168478 L507.432907,286.195652 L533.085081,286.195652 Z M545.793124,253.423913 C541.825733,253.423913 538.945298,256.304348 538.646385,260.543478 L552.722472,260.543478 C552.586603,256.25 549.814863,253.423913 545.793124,253.423913 Z M552.749646,269.429348 L559.108342,269.429348 C558.238777,274.918478 552.967037,278.695652 546.03769,278.695652 C537.260516,278.695652 531.825733,272.880435 531.825733,263.532609 C531.825733,254.184783 537.28769,248.152174 545.793124,248.152174 C554.108342,248.152174 559.380081,253.831522 559.380081,262.826087 L559.380081,265.054348 L538.592037,265.054348 L538.592037,265.461957 C538.592037,270.244565 541.635516,273.423913 546.173559,273.423913 C549.434429,273.423913 551.961603,271.875 552.749646,269.429348 Z M562.359863,278.26087 L569.126168,278.26087 L569.126168,260.217391 C569.126168,256.548913 571.544646,253.913043 574.968559,253.913043 C578.256603,253.913043 580.32182,255.978261 580.32182,259.320652 L580.32182,278.26087 L586.897907,278.26087 L586.897907,260.054348 C586.897907,256.440217 589.262037,253.913043 592.658777,253.913043 C596.137037,253.913043 598.093559,256.005435 598.093559,259.701087 L598.093559,278.26087 L604.859863,278.26087 L604.859863,258.043478 C604.859863,252.119565 601.001168,248.206522 595.158777,248.206522 C590.892472,248.206522 587.33269,250.461957 585.892472,254.103261 L585.756603,254.103261 C584.642472,250.326087 581.626168,248.206522 577.441385,248.206522 C573.528342,248.206522 570.294646,250.326087 568.990298,253.777174 L568.854429,253.777174 L568.854429,248.559783 L562.359863,248.559783 L562.359863,278.26087 Z M619.660298,273.396739 C623.763559,273.396739 626.888559,270.842391 626.888559,267.228261 L626.888559,264.972826 L620.095081,265.407609 C616.399429,265.652174 614.442907,267.065217 614.442907,269.483696 C614.442907,271.875 616.508124,273.396739 619.660298,273.396739 Z M617.676603,278.586957 C611.834211,278.586957 607.649429,275.027174 607.649429,269.755435 C607.649429,264.456522 611.698342,261.440217 619.171168,260.978261 L626.888559,260.516304 L626.888559,258.342391 C626.888559,255.190217 624.768994,253.478261 621.12769,253.478261 C618.057037,253.478261 615.85595,255.081522 615.393994,257.472826 L609.143994,257.472826 C609.307037,252.038043 614.361385,248.152174 621.345081,248.152174 C628.763559,248.152174 633.573342,252.01087 633.573342,257.907609 L633.573342,278.26087 L627.078776,278.26087 L627.078776,273.478261 L626.915733,273.478261 C625.285298,276.657609 621.61682,278.586957 617.676603,278.586957 Z M637.884646,278.26087 L644.65095,278.26087 L644.65095,248.559783 L637.884646,248.559783 L637.884646,278.26087 Z M641.254211,244.782609 C643.373776,244.782609 645.058559,243.152174 645.058559,241.059783 C645.058559,238.940217 643.373776,237.336957 641.254211,237.336957 C639.16182,237.336957 637.449863,238.940217 637.449863,241.059783 C637.449863,243.152174 639.16182,244.782609 641.254211,244.782609 Z M649.261168,278.26087 L656.027472,278.26087 L656.027472,237.228261 L649.261168,237.228261 L649.261168,278.26087 Z" id="user_email" fill="#A9B9C6"></path>
                <rect id="Rectangle-25-Copy-4" fill="#70C9F8" x="47.627907" y="660.837209" width="35.7209302" height="35.7209302"></rect>
                <rect id="Rectangle-25-Copy-7" fill="#70C9F8" x="333.395349" y="244.093023" width="35.7209302" height="35.7209302"></rect>
                <rect id="Rectangle-69-Copy-3" fill="#D8EAF9" x="119.069767" y="672.744186" width="285.767442" height="11.9069767" rx="5.95348837"></rect>
                <path d="M296.897877,0 L727.102123,0 C733.249293,-1.1292167e-15 738.232558,4.98326539 738.232558,11.1304348 L738.232558,35.7209302 L285.767442,35.7209302 L285.767442,11.1304348 C285.767442,4.98326539 290.750707,1.1292167e-15 296.897877,0 Z M309.581395,23.8139535 C312.869416,23.8139535 315.534884,21.148486 315.534884,17.8604651 C315.534884,14.5724443 312.869416,11.9069767 309.581395,11.9069767 C306.293375,11.9069767 303.627907,14.5724443 303.627907,17.8604651 C303.627907,21.148486 306.293375,23.8139535 309.581395,23.8139535 Z M333.395349,23.8139535 C336.68337,23.8139535 339.348837,21.148486 339.348837,17.8604651 C339.348837,14.5724443 336.68337,11.9069767 333.395349,11.9069767 C330.107328,11.9069767 327.44186,14.5724443 327.44186,17.8604651 C327.44186,21.148486 330.107328,23.8139535 333.395349,23.8139535 Z M357.209302,23.8139535 C360.497323,23.8139535 363.162791,21.148486 363.162791,17.8604651 C363.162791,14.5724443 360.497323,11.9069767 357.209302,11.9069767 C353.921281,11.9069767 351.255814,14.5724443 351.255814,17.8604651 C351.255814,21.148486 353.921281,23.8139535 357.209302,23.8139535 Z" id="Combined-Shape" fill="#176EDA"></path>
            </g>
        </g>
    </g>
</svg>