<svg xmlns="http://www.w3.org/2000/svg" viewBox="0 0 1024 1024"><path d="M952.9 564.7c4.6-7.7 7.1-15.3 7.1-22.5V440.8c0-17.7 14.3-32 32-32s32 14.3 32 32v101.4c0 26.2-9.7 50.1-26.8 71.6-12.9-18-27.8-34.5-44.3-49.1zm-441.3-80.5C263.6 484.2 0 410 0 272.3v-60.4C0 74.3 263.6 0 511.6 0 760 0 1024 74.3 1024 211.9v60.4c0 137.7-264 211.9-512.4 211.9zM960 211.9C960 142.1 768.2 64 511.6 64 255.4 64 64 142.1 64 211.9v60.4c0 61.8 170.3 147.9 447.6 147.9C789.4 420.2 960 334 960 272.3v-60.4zM32 408.8c17.7 0 32 14.3 32 32v101.4c0 59.5 158.6 141.5 418.4 147.4-6.9 20.4-11.8 41.7-14.1 63.7C233.9 745.2 0 671.9 0 542.2V440.8c0-17.7 14.3-32 32-32zm0 269.9c17.7 0 32 14.3 32 32v101.4C64 873.9 234.3 960 511.6 960c5.2 0 10.1-.2 15.3-.3 18 23.6 39.5 44.4 63.7 61.6-26.3 1.6-52.7 2.7-79 2.7C263.6 1024 0 949.7 0 812.1V710.7c0-17.7 14.3-32 32-32zm727.2-156c125.9 0 228.4 102.4 228.4 228.3 0 51.4-17.3 98.8-46.1 137l73.2 73.2c12.5 12.5 12.5 32.8 0 45.2-6.2 6.3-14.4 9.4-22.6 9.4-8.2 0-16.4-3.1-22.6-9.4l-73.2-73.2c-38.2 28.8-85.6 46.1-137 46.1-125.9 0-228.4-102.4-228.4-228.3-.1-125.9 102.4-228.3 228.3-228.3zm0 392.6c90.6 0 164.4-73.7 164.4-164.3 0-90.6-73.7-164.3-164.4-164.3-90.6 0-164.4 73.7-164.4 164.3 0 90.6 73.8 164.3 164.4 164.3z"/></svg>