
<svg width="1024px" height="1024px" viewBox="0 0 1024 1024" version="1.1" ><g stroke="none" stroke-width="1" fill-rule="evenodd"><g ><g id="Group-9" transform="translate(0.000000, 26.000000)"><path d="M25.8348335,343.439643 L51.2,299.235556 L51.2,358.4 L0,307.2 L46.6298467,307.2 L51.2,307.2 L977.370153,307.2 L1024,307.2 L972.8,358.4 L972.8,299.235556 L998.165166,343.439643 L512,59.3031127 L25.8348335,343.439643 Z M0,299.235556 L512,0 L1024,299.235556 L1024,358.4 L0,358.4 L0,299.235556 Z" id="Rectangle-4" fill-rule="nonzero"></path><path d="M159.507692,358.4 L159.507692,921.6 L876.307692,921.6 L876.307692,358.4 L159.507692,358.4 Z M108.307692,307.2 L927.507692,307.2 L927.507692,972.8 L108.307692,972.8 L108.307692,307.2 Z" id="Rectangle-5" fill-rule="nonzero"></path><rect id="Rectangle-6" x="159.507692" y="498.215385" width="768" height="51.2"></rect><rect id="Rectangle-6-Copy-2" x="159.507692" y="703.015385" width="768" height="51.2"></rect><rect id="Rectangle-8" x="0" y="921.6" width="1024" height="51.2"></rect></g></g></g></svg>