<svg xmlns="http://www.w3.org/2000/svg" xmlns:xlink="http://www.w3.org/1999/xlink" preserveAspectRatio="xMidYMid" width="60" height="60" viewBox="0 0 60 60">
  <defs>
    <style>
      .cls-1 {
        fill: #fff;
        fill-rule: evenodd;
      }
    </style>
  </defs>
  <g>
    <path d="M30.000,60.000 C13.431,60.000 0.000,46.569 0.000,30.000 C0.000,13.431 13.431,0.000 30.000,0.000 C46.569,0.000 60.000,13.431 60.000,30.000 C60.000,46.569 46.569,60.000 30.000,60.000 ZM30.000,1.000 C13.984,1.000 1.000,13.984 1.000,30.000 C1.000,46.016 13.984,59.000 30.000,59.000 C46.016,59.000 59.000,46.016 59.000,30.000 C59.000,13.984 46.016,1.000 30.000,1.000 Z" class="cls-1"/>
    <path d="M42.999,27.000 L42.999,41.028 C42.999,41.565 42.563,42.000 42.025,42.000 L17.975,42.000 C17.436,42.000 17.000,41.565 17.000,41.028 L17.000,27.000 L17.000,24.929 L17.000,19.979 C17.000,19.439 17.462,19.000 18.000,19.000 L34.000,19.000 L34.063,16.813 C34.063,16.272 34.369,16.000 34.907,16.000 L42.025,16.000 C42.563,16.000 42.999,16.438 42.999,16.979 L42.999,24.929 L43.000,27.000 L42.999,27.000 ZM19.000,40.000 L41.000,40.000 L41.000,27.000 L19.000,27.000 L19.000,40.000 ZM41.000,18.000 L36.000,18.000 L36.000,21.000 L19.000,21.000 L19.000,24.929 L41.000,24.929 L41.000,18.000 Z" class="cls-1"/>
    <path d="M26.436,31.999 C25.637,31.999 24.990,31.551 24.990,30.998 C24.990,30.446 25.637,29.998 26.436,29.998 L34.564,29.998 C35.362,29.998 36.009,30.446 36.009,30.998 C36.009,31.551 35.362,31.999 34.564,31.999 L26.436,31.999 ZM26.436,36.993 C25.637,36.993 24.990,36.549 24.990,36.002 C24.990,35.454 25.637,35.010 26.436,35.010 L34.564,35.010 C35.362,35.010 36.009,35.454 36.009,36.002 C36.009,36.549 35.362,36.993 34.564,36.993 L26.436,36.993 Z" class="cls-1"/>
  </g>
</svg>
