<svg xmlns="http://www.w3.org/2000/svg" viewBox="0 0 1024 1024"><path d="M992 559.6H512c-17.7 0-32-14.3-32-32V32c0-17.7 14.3-32 32-32 282.3 0 512 245.2 512 527.6 0 17.6-14.3 32-32 32zM544 65.1v430.4h414.9C943.1 274 765.6 80.8 544 65.1zM392.5 80.6C199.1 134.1 64 311.5 64 512c0 247 201 448 448 448 200.5 0 377.9-135.1 431.4-328.5 4.8-17.1 22.5-26.9 39.4-22.3 17 4.7 27 22.3 22.3 39.4C943.9 869.6 741.2 1024 512 1024 229.7 1024 0 794.3 0 512 0 282.8 154.4 80.1 375.5 18.9c16.9-4.6 34.7 5.3 39.4 22.3 4.7 17.1-5.3 34.7-22.4 39.4z"/></svg>