
<svg width="1024px" height="1024px" viewBox="0 0 1024 1024" version="1.1">
    <defs>
        <linearGradient x1="50%" y1="0%" x2="50%" y2="100%" id="linearGradient-1">
            <stop stop-color="#409EF3" offset="0%"></stop>
            <stop stop-color="#409EF3" stop-opacity="0" offset="100%"></stop>
        </linearGradient>
    </defs>
    <g id="Page-1" stroke="none" stroke-width="1" fill="none" fill-rule="evenodd">
        <g id="实时计算">
            <g id="Group-12" transform="translate(0.000000, 53.000000)">
                <path d="M618.38961,617.18359 L379.816344,216.103896 L856.962877,216.103896 L618.38961,617.18359 Z M618.38961,604.176847 L845.27089,222.753247 L391.508331,222.753247 L618.38961,604.176847 Z" id="Triangle" fill="#D7E1E7" fill-rule="nonzero"></path>
                <path d="M405.61039,10.488355 L224.662854,114.958463 L224.662854,323.89868 L405.61039,428.368788 L586.557925,323.89868 L586.557925,114.958463 L405.61039,10.488355 Z M593.207276,111.119459 L593.207276,327.737684 L405.61039,436.046797 L218.013504,327.737684 L218.013504,111.119459 L405.61039,2.81034626 L593.207276,111.119459 Z" id="Polygon-4" fill="#D7E1E7" fill-rule="nonzero"></path>
                <polygon id="Path" fill="#FFFFFF" points="405.61039 10.488355 224.662854 114.958463 224.662854 323.89868 405.61039 428.368788 586.557925 323.89868 586.557925 114.958463"></polygon>
                <path d="M437.442075,487.3221 L437.442075,696.262316 L618.38961,800.732424 L799.337146,696.262316 L799.337146,487.3221 L618.38961,382.851991 L437.442075,487.3221 Z M805.986496,483.483095 L805.986496,700.10132 L618.38961,808.410433 L430.792724,700.10132 L430.792724,483.483095 L618.38961,375.173983 L805.986496,483.483095 Z" id="Polygon-4-Copy" fill="#D7E1E7" fill-rule="nonzero"></path>
                <polygon id="Path" fill="#FFFFFF" points="437.442075 487.3221 437.442075 696.262316 618.38961 800.732424 799.337146 696.262316 799.337146 487.3221 618.38961 382.851991"></polygon>
                <g id="Group-11" transform="translate(551.896104, 498.701299)">
                    <path d="M2,0 L137.636364,0 C138.740933,-2.02906125e-16 139.636364,0.8954305 139.636364,2 L139.636364,197.480519 C139.636364,198.585089 138.740933,199.480519 137.636364,199.480519 L2,199.480519 C0.8954305,199.480519 1.3527075e-16,198.585089 0,197.480519 L0,2 L0,2 C-1.3527075e-16,0.8954305 0.8954305,2.02906125e-16 2,0 L2,0 Z M13.2987013,26.5974026 L13.2987013,152.935065 L126.337662,152.935065 L126.337662,26.5974026 L13.2987013,26.5974026 Z" id="Combined-Shape" fill="#409EF3"></path>
                    <circle id="Oval-2" fill="#40C6F3" cx="69.8181818" cy="176.207792" r="9.97402597"></circle>
                </g>
                <path d="M650.221296,114.958463 L650.221296,323.89868 L831.168831,428.368788 L1012.11637,323.89868 L1012.11637,114.958463 L831.168831,10.488355 L650.221296,114.958463 Z M1018.76572,111.119459 L1018.76572,327.737684 L831.168831,436.046797 L643.571945,327.737684 L643.571945,111.119459 L831.168831,2.81034626 L1018.76572,111.119459 Z" id="Polygon-4-Copy-2" fill="#D7E1E7" fill-rule="nonzero"></path>
                <polygon id="Path" fill="#FFFFFF" points="650.221296 114.958463 650.221296 323.89868 831.168831 428.368788 1012.11637 323.89868 1012.11637 114.958463 831.168831 10.488355"></polygon>
                <g id="文件夹" transform="translate(738.077922, 132.987013)">
                    <path d="M189.322128,171.468654 C189.322128,178.806423 183.373132,184.754381 176.035363,184.754381 L9.96377624,184.754381 L33.2143174,75.1473931 C33.2143174,67.8098833 39.163313,61.8619256 46.4997849,61.8619256 L199.285904,61.8619256 C206.622376,61.8619256 212.571372,67.8098833 212.571372,75.1473931 L189.322128,171.468654 Z" id="Fill-1" fill="#409EF3"></path>
                    <path d="M36.5360086,51.8971114 L186.000437,51.8971114 L186.000437,38.8446632 C186.000437,31.5071534 180.051441,25.5581577 172.714969,25.5581577 L92.9995697,25.5581577 L92.9995697,13.521341 C92.9995697,6.18486918 87.0518715,0.235873551 79.7141022,0.235873551 L13.2854675,0.235873551 C5.94899563,0.235873551 0,6.18486918 0,13.521341 L0,171.471768 L23.2505411,65.1867307 C23.2505411,57.8458476 29.1982393,51.8971114 36.5360086,51.8971114 Z" id="Fill-3" fill="#40C6F3"></path>
                </g>
                <g id="Group-44-Copy" transform="translate(0.000000, 379.012987)">
                    <rect id="Rectangle-61" fill="url(#linearGradient-1)" opacity="0.201492537" x="0" y="272.623377" width="505.350649" height="319.168831"></rect>
                    <g id="Group-6-Copy">
                        <polygon id="Rectangle-12" fill="#3B88E8" points="227.407792 50.5350649 227.407792 0 277.942857 0 277.942857 50.5350649"></polygon>
                        <circle id="Oval-17" fill="#409EF3" cx="252.675325" cy="285.922078" r="252.675325"></circle>
                        <circle id="Oval-5" fill="#FFFFFF" cx="252.675325" cy="285.922078" r="226.077922"></circle>
                        <polygon id="Path-7" fill="#176EDA" fill-rule="nonzero" points="246.025974 59.8441558 246.025974 512 259.324675 512 259.324675 59.8441558"></polygon>
                        <polygon id="Path-7" fill="#D8EAF9" fill-rule="nonzero" points="133.877857 93.4575295 359.955779 485.035977 371.472792 478.386626 145.39487 86.8081788"></polygon>
                        <polygon id="Path-7" fill="#D8EAF9" fill-rule="nonzero" points="359.955779 86.8081788 133.877857 478.386626 145.39487 485.035977 371.472792 93.4575295"></polygon>
                        <polygon id="Path-7" fill="#BBD4E9" fill-rule="nonzero" points="445.139873 167.12461 53.5614256 393.202532 60.2107762 404.719546 451.789224 178.641623"></polygon>
                        <polygon id="Path-7" fill="#BBD4E9" fill-rule="nonzero" points="53.5614256 178.641623 445.139873 404.719546 451.789224 393.202532 60.2107762 167.12461"></polygon>
                        <polygon id="Path-7" fill="#176EDA" fill-rule="nonzero" points="26.5974026 292.571429 478.753247 292.571429 478.753247 279.272727 26.5974026 279.272727"></polygon>
                        <circle id="Oval-19" fill="#FFFFFF" cx="252.675325" cy="285.922078" r="199.480519"></circle>
                        <path d="M262.649351,159.584416 C262.649351,154.075913 258.183827,149.61039 252.675325,149.61039 C247.166822,149.61039 242.701299,154.075913 242.701299,159.584416 L242.701299,291.569275 L347.28399,354.31889 C352.007492,357.152992 358.13414,355.62133 360.968241,350.897828 C363.802342,346.174326 362.27068,340.047678 357.547178,337.213577 L262.649351,280.27488 L262.649351,159.584416 Z" id="Path-45" fill="#C9E7FF" fill-rule="nonzero"></path>
                        <path d="M242.701299,159.584416 L242.701299,285.922078 C242.701299,291.43058 247.166822,295.896104 252.675325,295.896104 C258.183827,295.896104 262.649351,291.43058 262.649351,285.922078 L262.649351,159.584416 C262.649351,154.075913 258.183827,149.61039 252.675325,149.61039 C247.166822,149.61039 242.701299,154.075913 242.701299,159.584416 Z" id="Path-45" fill="#176EDA" fill-rule="nonzero"></path>
                    </g>
                </g>
                <path d="M598.077922,851.116883 L598.077922,738.675325 L574.545455,738.675325 L574.545455,851.116883 L598.077922,851.116883 Z M663.03813,736.727273 C696.310857,736.727273 717.271896,759.090909 717.271896,794.935065 C717.271896,830.701299 696.310857,853.064935 663.03813,853.064935 C629.68748,853.064935 608.804363,830.701299 608.804363,794.935065 C608.804363,759.090909 629.68748,736.727273 663.03813,736.727273 Z M663.03813,756.363636 C644.648519,756.363636 632.804363,771.324675 632.804363,794.935065 C632.804363,818.467532 644.570597,833.350649 663.03813,833.350649 C681.42774,833.350649 693.193974,818.467532 693.193974,794.935065 C693.193974,771.324675 681.42774,756.363636 663.03813,756.363636 Z M772.491843,851.116883 L748.959376,851.116883 L748.959376,758.077922 L716.076259,758.077922 L716.076259,738.675325 L805.452882,738.675325 L805.452882,758.077922 L772.491843,758.077922 L772.491843,851.116883 Z" id="IOT" fill="#3B88E8"></path>
                <g id="监控-in" transform="translate(279.272727, 126.337662)">
                    <path d="M34.3564279,0 L2.62368019,80.9872287 L143.874687,136.45595 L196.152058,63.5352853 L34.3564279,0 Z M213.88674,92.0105221 L197.77,133.146966 L224.469427,161.431457 L252.675325,89.4424135 L213.88674,92.0105221 Z M194.463244,79.1892318 L161.474392,125.567783 L189.723739,136.662027 L209.873403,85.2420959 L194.463244,79.1892318 Z" id="Fill-1" fill="#409EF3"></path>
                    <polygon id="Path" fill="#72C4B9" points="22.6052467 110.567005 41.2356198 117.942608 33.9194447 134.009063 0 134.009063 0 148.508555 43.4490272 148.508555 43.4490272 148.035079 54.7201322 123.280979 75.1956644 131.386405 81.5363732 115.334211 28.9434626 94.5158809"></polygon>
                </g>
            </g>
        </g>
    </g>
</svg>