<svg xmlns="http://www.w3.org/2000/svg" viewBox="0 0 1024 1024"><path d="M877.7 1024H146.3C65.5 1024 0 958.5 0 877.7V146.3C0 65.5 65.5 0 146.3 0h731.4C958.5 0 1024 65.5 1024 146.3v731.4c0 80.8-65.5 146.3-146.3 146.3zm73.2-877.7c0-40.4-32.8-73.1-73.1-73.1H146.3c-40.4 0-73.1 32.8-73.1 73.1v731.4c0 40.4 32.8 73.1 73.1 73.1h731.4c40.4 0 73.1-32.8 73.1-73.1V146.3zM517.7 784.7c-83.1 0-146.6-21.1-190.5-63.2-45.6-43.9-68.5-106.5-68.5-187.8V145.8h95.7v389.7c0 56.8 12.9 98.3 38.6 124.6 26.3 27.5 67.9 41.3 124.6 41.3 56.2 0 97.4-13.8 123.8-41.3 25.7-27.5 38.6-69 38.6-124.6V145.8h95.7v387.9c0 81.3-22.5 143.7-67.6 187-45.6 42.7-109.1 64-190.4 64z"/></svg>