<svg xmlns="http://www.w3.org/2000/svg" viewBox="0 0 1024 1024"><path d="M877.7 1024H146.3C65.5 1024 0 958.5 0 877.7V146.3C0 65.5 65.5 0 146.3 0h731.4C958.5 0 1024 65.5 1024 146.3v731.4c0 80.8-65.5 146.3-146.3 146.3zm73.2-877.7c0-40.4-32.8-73.1-73.1-73.1H146.3c-40.4 0-73.1 32.8-73.1 73.1v731.4c0 40.4 32.8 73.1 73.1 73.1h731.4c40.4 0 73.1-32.8 73.1-73.1V146.3zM542.3 784.7c-99.5 0-177-31.6-232.6-94.8-51.5-58.5-77.2-134.6-77.2-228.2 0-94.2 25.7-171.4 77.2-231.7 53.8-64.4 127.6-96.5 221.2-96.5 80.7 0 144.2 17.8 190.5 53.5 45.1 35.1 73.1 87.5 84.3 157.1H702c-8.8-39.8-27.5-69.9-56.2-90.4-28.7-19.9-67-29.8-115-29.8-59.1 0-105.6 19.9-139.6 59.7-37.4 41.5-56.2 100.9-56.2 178.2 0 73.7 16.7 130.5 50 170.3 36.3 42.1 92.5 63.2 168.5 63.2 29.8 0 57.9-3.5 84.3-10.5 23.4-6.4 45.9-16.1 67.6-29v-129H539.6V439h268.6v265c-32.2 25.7-70.2 45.6-114.1 59.7-45.6 14-96.2 21-151.8 21z"/></svg>