<svg xmlns="http://www.w3.org/2000/svg" viewBox="0 0 1024 1024"><path fill="#BBC3D0" d="M511.4 0c70 0 136.1 13.3 198.3 40.1 62.1 26.7 116.3 63.4 162.5 110s82.8 101 109.4 163.2c26.8 62.1 40.1 128.2 40.1 198.3 0 70.8-13.3 137.2-40.1 199.4-26.6 62-63.2 116.2-109.4 162.5s-100.4 82.7-162.5 109.4c-62.1 26.8-128.2 40.1-198.3 40.1-70.8 0-137.2-13.3-199.4-40.1-62.1-26.8-116.3-63.2-162.5-109.4S66.9 773 40.1 710.9C13.4 648.8 0 582.3 0 511.5c0-70.1 13.4-136.2 40.1-198.3C66.9 251 103.3 196.7 149.5 150 195.7 103.4 249.9 66.7 312 40 374.2 13.3 440.7 0 511.4 0zm32.5 891.9c20.2 0 37.4-7 51.5-21.1 14.1-14 21.1-31.2 21.1-51.5 0-20.9-7-38.4-21.1-52.5-14-14.1-31.2-21.2-51.5-21.2-20.9 0-38.4 7.1-52.6 21.2-14 14-21.1 31.5-21.1 52.5 0 20.2 7.1 37.4 21.1 51.5 14.2 14 31.7 21.1 52.6 21.1zm69.4-294.8c0-9.4 6.7-20.6 20.1-33.6 13.3-13 28.2-29.1 44.4-48.2 16.2-19.2 31.2-41.6 45-67.2 13.7-25.7 20.6-55.8 20.6-90.5 0-23.1-4.5-47.3-13.5-72.6-9-25.2-23.3-48.4-42.8-69.3s-44.6-38.2-75.3-52c-30.7-13.8-67.8-20.6-111-20.6-50.6 0-90.9 8.9-120.8 26.6-30 17.7-52.7 39.2-68.3 64.5-15.5 25.3-25.7 51.5-30.3 78.5-4.7 27.1-7.1 50.1-7.1 68.8 0 17.4 7.2 29.6 21.7 36.8 14.4 7.2 30.1 10.3 47.1 9.2 17-1 32.7-6.1 47.1-15.1 14.4-9.1 21.6-21.2 21.6-36.3 0-9.4.6-19.9 1.7-31.4 1.1-11.6 4.7-22.6 10.8-33.1 6.1-10.5 15.4-19.2 27.6-26 12.3-6.9 29.2-10.3 50.9-10.3 34 0 60.9 9.4 80.8 28.2 19.9 18.8 29.8 40.8 29.8 66.1 0 20.9-7 41.2-21.1 60.7-14 19.5-29.4 37.4-46 53.7-16.6 16.2-31.9 30.7-46 43.4s-21.1 22.5-21.1 29.8v79.1c0 6.5 7 11.4 21.1 14.6s29.4 4.7 46 4.3c16.6-.3 32-2.4 46-5.9 14.1-3.6 21.1-9.4 21.1-17.4v-34.8h-.1z"/></svg>