<svg xmlns="http://www.w3.org/2000/svg" viewBox="0 0 1024 1024"><path d="M954 871.6L775.6 693.1c27.3-42.5 43.6-92.8 43.6-147 0-150.8-122.3-273-273.1-273S273 395.4 273 546.1s122.3 273 273.1 273c71.8 0 136.6-28.3 185.3-73.6l171.7 171.7c6.3 7.3 15.5 11.9 25.9 11.9 18.9 0 34.1-15.3 34.1-34.1.1-9-3.4-17.2-9.1-23.4zM546.1 750.9c-113.1 0-204.8-91.7-204.8-204.8S433 341.3 546.1 341.3 750.9 433 750.9 546.1s-91.6 204.8-204.8 204.8z"/><path d="M887.5 0H127.6C57.1.1.1 57.1 0 127.6v768.8c.2 70.5 57.4 127.5 127.9 127.6h392.7l.3-.2c58.8-39 55.6-98-.3-127.8H213.2c-47 0-76.6-29.8-76.7-76.9V204.8c0-47 21.2-68.3 68.3-68.3h614.4c39 .1 60.3 14.7 66.4 46.5-.6-25.7 9.4-1.9 1.9 21.8v273c34.5 58.9 101.1 57.7 136.5 0V136.5C1024.1 65.9 958.1.1 887.5 0z"/><path d="M887.5 204.8c0-8-.6-15.2-1.9-21.8.1 5.2.7 12.3 1.9 21.8z"/></svg>