<svg xmlns="http://www.w3.org/2000/svg" viewBox="0 0 1024 1024"><path fill="#B9C1CF" d="M828.5 662.9c-71.9 0-133.4 45.2-157.7 108.6L353.5 588.8c4.1-14.6 6.3-29.9 6.3-45.8 0-17.1-2.6-33.7-7.4-49.3l329.3-198.2c29.6 48.7 83.2 81.3 144.3 81.3 93.1 0 168.8-75.7 168.8-168.8 0-93.1-75.7-168.8-168.8-168.8S657.3 114.9 657.3 208c0 14.1 1.7 27.7 5 40.8L330.7 448.4c-30.4-44.7-81.7-74.2-139.7-74.2-93.1 0-168.8 75.7-168.8 168.8S97.9 711.8 191 711.8c59.3 0 111.6-30.8 141.7-77.2L660 823c-.1 2.9-.2 5.8-.2 8.7 0 93.1 75.7 168.8 168.8 168.8s168.8-75.7 168.8-168.8-75.8-168.8-168.9-168.8zm-2.4-573.7c65.5 0 118.8 53.3 118.8 118.8s-53.3 118.8-118.8 118.8S707.3 273.5 707.3 208 760.6 89.2 826.1 89.2zM191 661.8c-65.5 0-118.8-53.3-118.8-118.8S125.5 424.2 191 424.2 309.8 477.5 309.8 543 256.5 661.8 191 661.8zm637.5 288.7c-65.5 0-118.8-53.3-118.8-118.8S763 712.9 828.5 712.9s118.8 53.3 118.8 118.8S894 950.5 828.5 950.5z"/></svg>