<svg xmlns="http://www.w3.org/2000/svg" viewBox="0 0 1024 1024"><path d="M877.8 829.3c-82.3 71.3-303.4 168.5-346.8 187.3l-12.4 5.6c-2.9 1.2-6 1.9-9 1.9-3.3 0-6.6-.7-9.6-2.2l-8.5-4c-5-2.6-13.8-6.5-25.4-11.9-74.4-34.4-248.8-115-319.9-176.6C53.7 749.2 32.4 666.2 31.6 662.7V160.5c0-15.6 11.5-29.5 28.4-34.2L511.8 0 964 126c17 4.7 28.5 18.8 28.4 34.4v502.3c-.7 3.4-22.1 86.5-114.6 166.6zM618 301.1c-28-27.4-65.9-42.7-105.5-42.5-39.6-.4-77.6 14.8-105.8 42.2-28 26.9-43.9 63.7-44 102.3-.1 38.6 15.5 75.6 43.5 102.6 18.9 18.2 42.4 31.1 68.1 37.4l-.8 234.2v.2c.1 20 16.8 36.2 37.2 36 9.9.1 19.4-3.8 26.4-10.6s10.9-16 11-25.6l.3-69.1 61.6.1c9.9 0 19.3-3.8 26.4-10.6 7-6.8 10.9-16 11-25.7v-.2c-.1-20-16.8-36.2-37.2-36l-61.6-.1.4-92.9c25.7-6.1 49.3-18.9 68.4-37.1.7-.6 1.4-1.3 2-2 56.5-56.3 55.9-147-1.4-202.6zM511.6 486.5c-23.1.1-45.4-8.9-61.9-24.9l-1.5-1.5c-32.8-33.3-31.9-86.5 1.9-118.8 34.6-33.1 89.7-33 124.2.3 16.4 15.8 25.7 37.6 25.5 60.2-.1 45.4-41 85-88.2 84.7z"/></svg>