<svg xmlns="http://www.w3.org/2000/svg" viewBox="0 0 1024 1024"><path d="M512 1024C229.2 1024 0 794.8 0 512S229.2 0 512 0s512 229.2 512 512-229.2 512-512 512zm216.6-513.1C723.3 378.4 685.6 192 512 192S300.7 378.4 295.4 510.9c-29.1 28.5-57.3 75.2-60.7 150.4.9 24.7 30.9 6.1 63.9-22.3 0 .3.1.8.1 1 .4 17.1 25.5 69.5 42.7 85.3-84.2 44.1-45 106.7 42.6 106.7s128-42.7 128-42.7S552.4 832 640 832s126.8-62.6 42.7-106.7c17.2-15.8 42.3-68.2 42.7-85.3 0-.2 0-.7.1-1 33.1 28.4 63 47 63.9 22.3-3.4-75.2-31.7-121.8-60.8-150.4z"/></svg>