<svg xmlns="http://www.w3.org/2000/svg" viewBox="0 0 1024 1024"><path d="M512 1024C229.2 1024 0 794.8 0 512S229.2 0 512 0s512 229.2 512 512-229.2 512-512 512zM405.3 234.7c-129.6 0-234.7 90.7-234.7 202.7 0 68.6 39.6 129.1 99.9 165.8L256 661.3l60.7-36.4C344 634.6 374 640 405.3 640c8.2 0 16.3-.4 24.3-1.1-1.8-10.1-3-20.4-3-30.9 0-104.8 92.2-191.1 210.3-201.6-17.2-97.2-114.2-171.7-231.6-171.7zm256 192c-106 0-192 71.6-192 160s86 160 192 160c25.9 0 50.6-4.4 73.2-12.1L768 768v-48.3c51.4-28.7 85.3-77.5 85.3-133 0-88.4-85.9-160-192-160zm42.7 128c-11.8 0-21.3-9.6-21.3-21.3S692.2 512 704 512s21.3 9.6 21.3 21.3-9.5 21.4-21.3 21.4zm-128 0c-11.8 0-21.3-9.6-21.3-21.3S564.2 512 576 512s21.3 9.6 21.3 21.3-9.5 21.4-21.3 21.4zM469.3 373.3c0-17.7 14.3-32 32-32s32 14.3 32 32-14.3 32-32 32c-17.6 0-32-14.3-32-32zm-138.6 32c-17.7 0-32-14.3-32-32s14.3-32 32-32 32 14.3 32 32-14.4 32-32 32z"/></svg>