<svg xmlns="http://www.w3.org/2000/svg" viewBox="0 0 1024 1024"><path fill="#BBC3D0" d="M807.6 1003.8c-6 0-11.9-1.5-17.6-4.5L512 853.2 234 999.3c-5.7 3-11.6 4.5-17.6 4.5-10 0-19.3-4.3-25.7-11.8-6.7-8-9.4-18.4-7.5-29.5L236.5 653 11.6 433.8c-10.2-10-13.9-23.4-9.7-36.1s15-21.4 29.1-23.5L341.7 329l139-281.6C487 34.6 498.7 27 512 27s25 7.6 31.3 20.4l139 281.6 310.8 45.2c14.1 2.1 25 10.8 29.1 23.5 4.1 12.7.5 26.2-9.7 36.1L787.6 653l53.1 309.5c1.9 11-.8 21.5-7.5 29.5-6.3 7.5-15.7 11.8-25.6 11.8zM512 792.1c5.8 0 14.4.9 22.8 5.4L773 922.6l-45.5-265.2c-2.6-15.2 3.1-32.6 14.1-43.4l192.7-187.8L668 387.6c-15.3-2.2-30.1-13-36.9-26.8L512 119.5 393 360.8c-6.8 13.8-21.7 24.6-36.9 26.8L89.8 426.3l192.7 187.8c11 10.8 16.7 28.2 14.1 43.4l-45.5 265.2 238.1-125.2c8.5-4.5 17.1-5.4 22.8-5.4z"/></svg>