<svg xmlns="http://www.w3.org/2000/svg" viewBox="0 0 1024 1024"><g fill="#BBC3D0"><path d="M662.4 399H111.5C49.6 399-.8 449.4-.8 511.3s50.4 112.3 112.3 112.3h550.9c61.9 0 112.3-50.4 112.3-112.3.1-61.9-50.3-112.3-112.3-112.3zm0 164.7H111.5c-28.9 0-52.3-23.5-52.3-52.3 0-28.9 23.5-52.3 52.3-52.3h550.9c28.9 0 52.3 23.5 52.3 52.3s-23.4 52.3-52.3 52.3zM435.4 799.3H111.5C49.6 799.3-.8 849.7-.8 911.6S49.6 1024 111.5 1024h323.9c61.9 0 112.3-50.4 112.3-112.3.1-62-50.3-112.4-112.3-112.4zM911.9.1H111.5C49.6.1-.8 50.5-.8 112.4s50.4 112.3 112.3 112.3h800.4c61.9 0 112.3-50.4 112.3-112.3S973.8.1 911.9.1zm0 164.6H111.5c-28.9 0-52.3-23.5-52.3-52.3 0-28.9 23.5-52.3 52.3-52.3h800.4c28.9 0 52.3 23.5 52.3 52.3s-23.5 52.3-52.3 52.3z"/></g><path fill="#BBC3D0" d="M2074.4 399h-550.9c-61.9 0-112.3 50.4-112.3 112.3s50.4 112.3 112.3 112.3h550.9c61.9 0 112.3-50.4 112.3-112.3.1-61.9-50.3-112.3-112.3-112.3zM1847.4 799.3h-323.9c-61.9 0-112.3 50.4-112.3 112.3s50.4 112.3 112.3 112.3h323.9c61.9 0 112.3-50.4 112.3-112.3.1-61.9-50.3-112.3-112.3-112.3zm0 164.7h-323.9c-28.9 0-52.3-23.5-52.3-52.3 0-28.9 23.5-52.3 52.3-52.3h323.9c28.9 0 52.3 23.5 52.3 52.3s-23.4 52.3-52.3 52.3zM3179 799.3h-323.9c-61.9 0-112.3 50.4-112.3 112.3s50.4 112.3 112.3 112.3H3179c61.9 0 112.3-50.4 112.3-112.3.1-61.9-50.3-112.3-112.3-112.3zm0 164.7h-323.9c-28.9 0-52.3-23.5-52.3-52.3 0-28.9 23.5-52.3 52.3-52.3H3179c28.9 0 52.3 23.5 52.3 52.3S3207.9 964 3179 964zM2323.9.1h-800.4c-61.9 0-112.3 50.4-112.3 112.3s50.4 112.3 112.3 112.3h800.4c61.9 0 112.3-50.4 112.3-112.3S2385.8.1 2323.9.1zm0 164.6h-800.4c-28.9 0-52.3-23.5-52.3-52.3 0-28.9 23.5-52.3 52.3-52.3h800.4c28.9 0 52.3 23.5 52.3 52.3s-23.5 52.3-52.3 52.3zM3406.2 399h-550.9c-61.9 0-112.3 50.4-112.3 112.3s50.4 112.3 112.3 112.3h550.9c61.9 0 112.3-50.4 112.3-112.3S3468.1 399 3406.2 399zm0 164.7h-550.9c-28.9 0-52.3-23.5-52.3-52.3 0-28.9 23.5-52.3 52.3-52.3h550.9c28.9 0 52.3 23.5 52.3 52.3s-23.5 52.3-52.3 52.3zM3655.6.1h-800.4c-61.9 0-112.3 50.4-112.3 112.3s50.4 112.3 112.3 112.3h800.4c61.9 0 112.3-50.4 112.3-112.3S3717.5.1 3655.6.1z"/></svg>