<svg xmlns="http://www.w3.org/2000/svg" viewBox="0 0 1024 1024"><g fill="#BBC3D0"><path d="M435.8 799H112.2C50.3 799 0 849.3 0 911.2s50.3 112.2 112.2 112.2h323.6c61.9 0 112.2-50.3 112.2-112.2 0-61.9-50.4-112.2-112.2-112.2zm0 164.5H112.2c-28.8 0-52.3-23.4-52.3-52.3 0-28.8 23.4-52.3 52.3-52.3h323.6c28.8 0 52.3 23.4 52.3 52.3s-23.5 52.3-52.3 52.3zM662.6 399.1H112.3C50.4 399.1.1 449.4.1 511.3s50.3 112.2 112.2 112.2h550.3c61.9 0 112.2-50.3 112.2-112.2.1-61.9-50.3-112.2-112.2-112.2zm0 164.5H112.3c-28.8 0-52.3-23.4-52.3-52.3 0-28.8 23.4-52.3 52.3-52.3h550.3c28.8 0 52.3 23.4 52.3 52.3s-23.4 52.3-52.3 52.3zM911.8.6H112.3C50.5.6.1 51 .1 112.8S50.5 225 112.3 225h799.5c61.9 0 112.2-50.3 112.2-112.2C1024 51 973.7.6 911.8.6z"/></g></svg>