<svg xmlns="http://www.w3.org/2000/svg" viewBox="0 0 1024 1024"><g fill="#BBC3D0"><path d="M662.6 399.1H112.2C50.3 399.1 0 449.4 0 511.3s50.3 112.2 112.2 112.2h550.4c61.9 0 112.2-50.3 112.2-112.2 0-61.9-50.3-112.2-112.2-112.2zM435.8 799H112.2C50.3 799 0 849.3 0 911.2s50.3 112.2 112.2 112.2h323.6c61.9 0 112.2-50.3 112.2-112.2 0-61.9-50.3-112.2-112.2-112.2zm0 164.5H112.2c-28.8 0-52.3-23.5-52.3-52.3 0-28.8 23.5-52.3 52.3-52.3h323.6c28.8 0 52.3 23.5 52.3 52.3s-23.5 52.3-52.3 52.3zM911.8.6H112.2C50.3.6 0 50.9 0 112.8S50.3 225 112.2 225h799.6c61.9 0 112.2-50.3 112.2-112.2C1024 50.9 973.7.6 911.8.6zm0 164.5H112.2c-28.8 0-52.3-23.5-52.3-52.3 0-28.8 23.5-52.3 52.3-52.3h799.6c28.8 0 52.3 23.5 52.3 52.3s-23.5 52.3-52.3 52.3z"/></g><g fill="#BBC3D0"><path d="M3179.1 799h-323.6c-61.9 0-112.2 50.3-112.2 112.2s50.3 112.2 112.2 112.2h323.6c61.9 0 112.2-50.3 112.2-112.2 0-61.9-50.3-112.2-112.2-112.2zm0 164.5h-323.6c-28.8 0-52.3-23.4-52.3-52.3 0-28.8 23.4-52.3 52.3-52.3h323.6c28.8 0 52.3 23.4 52.3 52.3s-23.5 52.3-52.3 52.3zM3406 399.1h-550.3c-61.9 0-112.2 50.3-112.2 112.2s50.3 112.2 112.2 112.2H3406c61.9 0 112.2-50.3 112.2-112.2 0-61.8-50.3-112.2-112.2-112.2zm0 164.5h-550.3c-28.8 0-52.3-23.4-52.3-52.3 0-28.8 23.4-52.3 52.3-52.3H3406c28.8 0 52.3 23.4 52.3 52.3s-23.5 52.3-52.3 52.3zM3655.1.7h-799.5c-61.9 0-112.2 50.3-112.2 112.2s50.3 112.2 112.2 112.2h799.5c61.9 0 112.2-50.3 112.2-112.2C3767.4 51 3717 .7 3655.1.7z"/></g></svg>