<svg xmlns="http://www.w3.org/2000/svg" viewBox="0 0 1024 1024"><path d="M960 128H640V64c0-35.4-28.7-64-64-64H448c-35.4 0-64 28.6-64 64v64H64c-35.4 0-64 28.6-64 64 0 35.3 28.6 64 64 64h64v640c0 70.7 57.3 128 128 128h512c70.7 0 128-57.3 128-128V256h64c35.3 0 64-28.7 64-64 0-35.4-28.7-64-64-64zM384 832c0 35.3-28.7 64-64 64-35.4 0-64-28.7-64-64V320c0-35.4 28.6-64 64-64 35.3 0 64 28.6 64 64v512zm192 0c0 35.3-28.7 64-64 64-35.4 0-64-28.7-64-64V320c0-35.4 28.6-64 64-64 35.3 0 64 28.6 64 64v512zm192 0c0 35.3-28.7 64-64 64-35.4 0-64-28.7-64-64V320c0-35.4 28.6-64 64-64 35.3 0 64 28.6 64 64v512z"/></svg>