<svg xmlns="http://www.w3.org/2000/svg" viewBox="0 0 1024 1024"><path d="M512,1024C229.2,1024,0,794.8,0,512S229.2,0,512,0s512,229.2,512,512S794.8,1024,512,1024z M743.2,313.8H594.6v-33 c0-17.1-18-33-35.1-33H481c-17.1,0-35.1,15.9-35.1,33v33l-150.7-4.1c-17.1,0-31,20.1-31,37.2c0,17.1,15.9,33,33,33h33v297.3 c0,34.2,31.9,66.1,66.1,66.1h247.7c34.2,0,66.1-31.9,66.1-66.1V379.9h33c17.1,0,33-15.9,33-33C776.3,329.7,760.3,313.8,743.2,313.8z M611.1,677.2c-17.1,0-6.1-1.2-16.5,0V379.9c16.2-1-0.6,0,16.5,0c17.1,0,15.3,0,33,0v297.3C628.1,676.7,628.2,677.2,611.1,677.2z M512,677.2c-5.5,0,2.7,1-16.5,0V379.9c26.1-0.3,15.9,0,33,0c17.1,0-5.9,0.1,16.5,0v297.3C535,676.6,529.1,677.1,512,677.2z M429.4,677.2c-17.1,0-22.2-1.1-33,0V379.9c20.1,0,6.3,1.1,23.7,1c17.1-0.2,11.5-1,25.9-1v297.3 C434.1,676.7,446.5,677.2,429.4,677.2z"/></svg>
