<svg xmlns="http://www.w3.org/2000/svg" viewBox="0 0 1024 1024"><path d="M861 976.9h-46.4c24.7-15.7 45.6-36.8 59.6-65 37.9-76.1 34-164.1-10.4-235.2-55.9-89.4-161.6-146.6-253.3-187 82.5-48 110-137.6 110-217.4 0-101.7-53.6-178.5-131.4-222.2 11.3-1.8 22.8-3.1 34.6-3.1 114.7 0 207.8 80.1 207.8 219.4 0 108.7-57.1 200.5-136.6 235.9 125.8 21.6 234.3 98.4 302.3 207.2 71.2 114.1-8.2 267.4-136.2 267.4zM471.5 502.4c125.8 21.6 234.3 98.4 302.3 207.2C845 823.6 765.6 977 637.6 977H163C35 977-44.4 823.6 26.8 709.6c68-108.9 176.5-185.6 302.3-207.2-79.5-35.4-136.6-127.3-136.6-236C192.5 127.1 285.6 47 400.3 47s207.8 80.1 207.8 219.4c0 108.7-57.1 200.6-136.6 236z"/></svg>