<svg xmlns="http://www.w3.org/2000/svg" viewBox="0 0 1024 1024"><path fill="#B9C1CF" d="M-1958.4-259.2c-143.2 0-233.1-8.7-300.6-28.9-43.8-13.1-76.4-31-99.6-54.6-26.4-26.9-39.8-60.6-39.8-100.5 0-41.1 8.4-81.3 24.8-119.7 15.8-36.8 38.8-71.1 68.2-101.9 28.9-30.2 63.3-56.4 102.2-77.7 24.1-13.2 49.5-24.3 76-33.3-53.9-47.4-85.8-116.2-85.8-189.7 0-67.5 26.3-130.9 74-178.6 47.7-47.7 111.2-74 178.6-74s130.9 26.3 178.6 74c47.7 47.7 74 111.2 74 178.6 0 72.9-31.5 141.4-84.8 188.8 26.9 8.9 52.6 20.1 76.9 33.3 39.3 21.3 74 47.5 103.1 77.8 29.7 30.9 52.9 65.3 68.8 102.3 16.6 38.5 25.1 79 25.1 120.2 0 39.8-13.4 73.6-39.8 100.5-23.2 23.6-55.8 41.5-99.6 54.6-67.2 20.2-157.1 28.8-300.3 28.8zm-1.8-909c-111.7 0-202.6 90.9-202.6 202.6 0 73.9 40.3 142 105.1 177.7l57.9 31.8-64.4 14.5c-80.9 18.1-153.7 57.7-204.9 111.3-51.8 54.3-79.2 119-79.2 187.1 0 26.6 8.3 48 25.4 65.4 16.9 17.2 43.3 31.3 78.3 41.8 41.6 12.5 111.7 26.8 286.3 26.8 174.5 0 244.7-14.3 286.3-26.8 35-10.5 61.4-24.6 78.3-41.8 17.1-17.4 25.4-38.8 25.4-65.4 0-68.5-27.6-133.5-80-187.9-51.7-53.8-125.1-93.3-206.6-111.1l-64.5-14.1 57.7-32.1c64.3-35.8 104.2-103.7 104.2-177.2-.1-111.7-91-202.6-202.7-202.6zM3476.6 63.9c-143.2 0-233.1-8.7-300.6-28.9-43.8-13.1-76.4-31-99.6-54.6-26.4-26.9-39.8-60.6-39.8-100.5 0-41.1 8.4-81.3 24.8-119.7 15.8-36.8 38.8-71.1 68.2-101.9 28.9-30.2 63.3-56.4 102.2-77.7 24.1-13.2 49.5-24.3 76-33.3-53.9-47.4-85.8-116.2-85.8-189.7 0-67.5 26.3-130.9 74-178.6 47.7-47.7 111.2-74 178.6-74s130.9 26.3 178.6 74c47.7 47.7 74 111.2 74 178.6 0 72.9-31.5 141.4-84.8 188.8 26.9 8.9 52.6 20.1 76.9 33.3 39.3 21.3 74 47.5 103.1 77.8 29.7 30.9 52.9 65.3 68.8 102.3 16.6 38.5 25.1 79 25.1 120.2 0 39.8-13.4 73.6-39.8 100.5-23.2 23.6-55.8 41.5-99.6 54.6-67.2 20.1-157.1 28.8-300.3 28.8zm-1.8-909c-111.7 0-202.6 90.9-202.6 202.6 0 73.9 40.3 142 105.1 177.7l57.9 31.8-64.4 14.5c-80.9 18.1-153.7 57.7-204.9 111.3-51.8 54.3-79.2 119-79.2 187.1 0 26.6 8.3 48 25.4 65.4 16.9 17.2 43.3 31.3 78.3 41.8 41.6 12.5 111.7 26.8 286.3 26.8 174.5 0 244.7-14.3 286.3-26.8 35-10.5 61.4-24.6 78.3-41.8 17.1-17.4 25.4-38.8 25.4-65.4 0-68.5-27.6-133.5-80-187.9-51.7-53.8-125.1-93.3-206.6-111.1l-64.5-14.1 57.7-32.1c64.3-35.8 104.2-103.7 104.2-177.2-.1-111.7-91-202.6-202.7-202.6z"/><g fill="#B9C1CF"><path d="M607.6 468.7l-57.7 32.1 64.5 14.1c59.8 13.1 115.2 37.8 160.9 71.3l35.8-35.8c-17.7-13.5-36.8-25.9-57.2-36.9-24.3-13.2-50.1-24.3-76.9-33.3 53.3-47.4 84.8-115.9 84.8-188.8 0-67.5-26.3-130.9-74-178.6-47.7-47.7-111.2-74-178.6-74s-130.9 26.3-178.6 74c-47.7 47.7-74 111.2-74 178.6 0 73.5 31.9 142.3 85.8 189.7-26.5 9-52 20.1-76 33.3-39 21.3-73.4 47.5-102.2 77.7-29.5 30.8-52.4 65.1-68.2 101.9-16.7 38.5-25 78.8-25 119.9 0 39.8 13.4 73.6 39.8 100.5 23.2 23.6 55.8 41.5 99.6 54.6 67.6 20.3 157.5 28.9 300.6 28.9 13 0 25.6-.1 37.7-.2v-50c-12 .2-24.6.2-37.7.2-174.5 0-244.7-14.3-286.3-26.8-35-10.5-61.4-24.6-78.3-41.8-17.1-17.4-25.4-38.8-25.4-65.4 0-68.1 27.4-132.8 79.2-187.1 51.2-53.6 124-93.2 204.9-111.3l64.4-14.5-57.9-31.8c-64.8-35.7-105.1-103.8-105.1-177.7 0-111.7 90.9-202.6 202.6-202.6 111.7 0 202.6 90.9 202.6 202.6.1 73.5-39.8 141.4-104.1 177.2z"/><path d="M606.268 865.91l270.537-270.536 35.355 35.355-270.537 270.537z"/></g></svg>