<svg xmlns="http://www.w3.org/2000/svg" viewBox="0 0 16 16"><path d="M8,7.69A3.81,3.81,0,0,1,4.16,3.84a3.84,3.84,0,1,1,7.69,0A3.87,3.87,0,0,1,8,7.69Z"/><path d="M16,11.52c-.09-.35-.18-.6-.35-.69s-.69.26-1.13,0-.18-.86-.35-1.21a1,1,0,0,0-.86-.35c-.35.43-.26.69-.95.69s-.52-.69-1-.69c-.26,0-.6.09-.69.35s.09.78-.17,1c-.43.34-.69,0-1.13.17a.7.7,0,0,0-.35.78c.09.35.69.43.69.95,0,.69-.6.69-.69.95a.82.82,0,0,0,.26.86c.18.17.69-.18,1.13.17s.18.6.09.95.6.51.95.51.35-.69,1-.69c.52,0,.52.35.78.6s.69-.09.95-.26-.17-.51,0-.95a.89.89,0,0,1,.43-.35,2.79,2.79,0,0,1,.86,0c.26-.08.35-.69.35-.86s-.6-.18-.69-.78C15,11.94,15.82,12,16,11.52Zm-3.28,2.67A1.64,1.64,0,0,1,12,11,1.64,1.64,0,1,1,12.71,14.19Z"/><path d="M7.41,8.13a7.66,7.66,0,0,0-3.33.76A7.75,7.75,0,0,0,.2,13.12l-.09.23a1.91,1.91,0,0,0-.1.57,1.93,1.93,0,0,0,1.93,1.93H7.5c1.43,0,2.05-.36,1.88-.89S8.21,14.88,8,13.81c-.09-.81.8-1.07.62-1.52-.27-.71-.81-.53-.45-1.6.27-.9,1.69-.09,1.6-1.16a.76.76,0,0,1,.51-.8A7.64,7.64,0,0,0,7.41,8.13Z"/></svg>
