<svg xmlns="http://www.w3.org/2000/svg" viewBox="0 0 1024 1024"><path d="M1024 1024H512v-64h402.8l-77.2-77.2 45.2-45.2L1005.2 960h18.8v64zM512 576c-212.1 0-384 171.9-384 384 0 22 2.9 43.1 6.5 64H4.4C1.8 1003 0 981.7 0 960c0-233.2 156.1-429.6 369.3-491.5C301 422.6 256 344.6 256 256 256 114.6 370.6 0 512 0s256 114.6 256 256c0 88.6-45 166.6-113.3 212.5C805.6 512.3 926.5 624.1 985.1 768H842.8c-66.6-114.3-189-192-330.8-192zm0-448c-70.7 0-128 57.3-128 128s57.3 128 128 128 128-57.3 128-128-57.3-128-128-128z"/></svg>