<svg xmlns="http://www.w3.org/2000/svg" viewBox="0 0 1024 1024"><g fill="#B9C1CF"><path d="M921.5 39.4h-812c-36.9 0-67 30.1-67 67v811.1c0 36.9 30.1 67 67 67h812c36.9 0 67-30.1 67-67V106.4c0-36.9-30.1-67-67-67zm17 878.2c0 9.2-7.8 17-17 17h-812c-9.2 0-17-7.8-17-17V106.4c0-9.2 7.8-17 17-17h812c9.2 0 17 7.8 17 17v811.2z"/><path d="M234.3 295.2h96.9v50h-96.9zM437.9 295.2h346.4v50H437.9zM234.3 489.3h96.9v50h-96.9zM437.9 489.3h346.4v50H437.9zM234.3 694.2h96.9v50h-96.9zM437.9 694.2h346.4v50H437.9z"/></g></svg>