<svg xmlns="http://www.w3.org/2000/svg" viewBox="0 0 1024 1024"><path d="M945.2 1024h-315c-43.5 0-78.8-35.3-78.8-78.8v-315c0-43.5 35.3-78.8 78.8-78.8h315.1c43.5 0 78.8 35.3 78.8 78.8v315.1c-.1 43.4-35.4 78.7-78.9 78.7zm0-551.4h-315c-43.5 0-78.8-35.3-78.8-78.8v-315c0-43.5 35.3-78.8 78.8-78.8h315.1c43.5 0 78.8 35.3 78.8 78.8v315.1c-.1 43.4-35.4 78.7-78.9 78.7zM393.8 1024h-315C35.3 1024 0 988.7 0 945.2v-315c0-43.5 35.3-78.8 78.8-78.8h315.1c43.5 0 78.8 35.3 78.8 78.8v315.1c-.1 43.4-35.4 78.7-78.9 78.7zm0-551.4h-315C35.3 472.6 0 437.3 0 393.8v-315C0 35.3 35.3 0 78.8 0h315.1c43.5 0 78.8 35.3 78.8 78.8v315.1c-.1 43.4-35.4 78.7-78.9 78.7z"/></svg>