<?xml version="1.0" encoding="UTF-8" standalone="no"?>
<svg width="1024px" height="1024px" viewBox="0 0 1024 1024" version="1.1" xmlns="http://www.w3.org/2000/svg" xmlns:xlink="http://www.w3.org/1999/xlink">
    <!-- Generator: Sketch 46.2 (44496) - http://www.bohemiancoding.com/sketch -->
    <title>数据分析与挖掘</title>
    <desc>Created with Sketch.</desc>
    <defs></defs>
    <g id="Page-1" stroke="none" stroke-width="1" fill="none" fill-rule="evenodd">
        <g id="数据分析与挖掘">
            <g id="Group" transform="translate(83.000000, 0.000000)">
                <path d="M28.5559913,72.1336238 L28.5559913,995.444009 L828.123747,995.444009 L828.123747,72.1336238 L28.5559913,72.1336238 Z M0,43.5776325 L856.679739,43.5776325 L856.679739,1024 L0,1024 L0,43.5776325 Z" id="Rectangle-30" fill="#176EDA" fill-rule="nonzero"></path>
                <path d="M218.929267,205.394916 L218.929267,319.618882 L333.153232,319.618882 C333.153232,256.529907 282.024041,205.394916 218.929267,205.394916 Z" id="Shape" fill="#C5D5E8" fill-rule="nonzero"></path>
                <path d="M205.502937,214.913822 C149.214761,218.623617 104.705301,265.42591 104.705301,322.656166 C104.705301,382.307018 153.06682,430.669959 212.717086,430.669959 C269.940548,430.669959 316.743335,386.152417 320.46168,329.87211 L205.502937,329.87211 L205.502937,214.91358 L205.502937,214.913822 Z" id="Shape" fill="#D6E3F2" fill-rule="nonzero"></path>
                <rect id="Rectangle-18" fill="#176EDA" x="409.302542" y="243.469572" width="323.634568" height="28.5559913"></rect>
                <rect id="Rectangle-18-Copy" fill="#E3ECF6" x="504.489179" y="367.2122" width="228.44793" height="28.5559913"></rect>
                <rect id="Rectangle" fill="#FFFFFF" x="211.827451" y="17.0666667" width="427.670588" height="63.2470588"></rect>
                <path d="M223.688598,76.8929557 L632.99114,76.8929557 L632.99114,29.2996369 L223.688598,29.2996369 L223.688598,76.8929557 Z M661.547131,0.743645606 L661.547131,105.448947 L195.132607,105.448947 L195.132607,0.743645606 L661.547131,0.743645606 Z" id="Rectangle-31" fill="#176EDA" fill-rule="nonzero"></path>
                <rect id="Rectangle-32" fill="#CAD8E8" x="323.634568" y="843.145389" width="76.1493101" height="152.29862"></rect>
                <rect id="Rectangle-32-Copy" fill="#CAD8E8" x="609.194481" y="738.440087" width="76.1493101" height="257.003922"></rect>
                <rect id="Rectangle-32-Copy-2" fill="#E5EDF6" x="180.854611" y="890.738707" width="76.1493101" height="104.705301"></rect>
                <rect id="Rectangle-32-Copy-3" fill="#E5EDF6" x="466.414524" y="795.55207" width="76.1493101" height="199.891939"></rect>
                <polygon id="Path-23" fill="#176EDA" fill-rule="nonzero" points="463.124058 716.487343 640.48585 539.125552 620.293715 518.933417 463.124058 676.103073 381.010754 593.989769 199.314535 775.685988 219.50667 795.878123 381.010754 634.374039"></polygon>
                <polygon id="Path-6" fill="#176EDA" transform="translate(628.231808, 529.029484) scale(-1, 1) translate(-628.231808, -529.029484) " points="590.157153 567.104139 590.157153 490.954829 666.306463 490.954829"></polygon>
            </g>
        </g>
    </g>
</svg>