<?xml version="1.0" encoding="UTF-8" standalone="no"?>
<svg width="1024px" height="1024px" viewBox="0 0 1024 1024" version="1.1" xmlns="http://www.w3.org/2000/svg" xmlns:xlink="http://www.w3.org/1999/xlink">
    <!-- Generator: Sketch 46.2 (44496) - http://www.bohemiancoding.com/sketch -->
    <title>数据仓库</title>
    <desc>Created with Sketch.</desc>
    <defs></defs>
    <g id="Page-1" stroke="none" stroke-width="1" fill="none" fill-rule="evenodd">
        <g id="数据仓库">
            <g id="Group" transform="translate(10.000000, 0.000000)">
                <path d="M43.4716981,317.794983 L43.4716981,352.603774 L961.207547,352.603774 L961.207547,317.794983 L502.339623,36.3203143 L43.4716981,317.794983 Z M502.339623,2.32119516 L990.188679,301.573211 L990.188679,381.584906 L14.490566,381.584906 L14.490566,301.573211 L502.339623,2.32119516 Z" id="Rectangle-4" fill="#176EDA" fill-rule="nonzero"></path>
                <circle id="Oval-3" fill="#CAD8E8" cx="502.339623" cy="231.849057" r="38.6415094"></circle>
                <rect id="Rectangle-9" fill="#E3ECF6" x="106.264151" y="569.962264" width="792.150943" height="241.509434"></rect>
                <path d="M135.245283,386.415094 L135.245283,995.018868 L869.433962,995.018868 L869.433962,386.415094 L135.245283,386.415094 Z M106.264151,357.433962 L898.415094,357.433962 L898.415094,1024 L106.264151,1024 L106.264151,357.433962 Z" id="Rectangle-5" fill="#176EDA" fill-rule="nonzero"></path>
                <rect id="Rectangle-6" fill="#176EDA" x="106.264151" y="569.962264" width="792.150943" height="28.9811321"></rect>
                <rect id="Rectangle-6-Copy" fill="#176EDA" x="106.264151" y="792.150943" width="792.150943" height="28.9811321"></rect>
                <path d="M376.754717,454.037736 L801.811321,454.037736 L801.811321,483.018868 L376.754717,483.018868 L376.754717,454.037736 Z M202.867925,454.037736 L231.849057,454.037736 L231.849057,483.018868 L202.867925,483.018868 L202.867925,454.037736 Z M318.792453,454.037736 L347.773585,454.037736 L347.773585,483.018868 L318.792453,483.018868 L318.792453,454.037736 Z" id="Combined-Shape" fill="#E3ECF6"></path>
                <rect id="Rectangle-7-Copy-2" fill="#176EDA" x="260.830189" y="454.037736" width="28.9811321" height="28.9811321"></rect>
                <path d="M376.754717,676.226415 L801.811321,676.226415 L801.811321,705.207547 L376.754717,705.207547 L376.754717,676.226415 Z M202.867925,676.226415 L231.849057,676.226415 L231.849057,705.207547 L202.867925,705.207547 L202.867925,676.226415 Z M318.792453,676.226415 L347.773585,676.226415 L347.773585,705.207547 L318.792453,705.207547 L318.792453,676.226415 Z" id="Combined-Shape" fill="#176EDA"></path>
                <rect id="Rectangle-7-Copy-2" fill="#176EDA" x="260.830189" y="676.226415" width="28.9811321" height="28.9811321"></rect>
                <path d="M376.754717,898.415094 L801.811321,898.415094 L801.811321,927.396226 L376.754717,927.396226 L376.754717,898.415094 Z M202.867925,898.415094 L231.849057,898.415094 L231.849057,927.396226 L202.867925,927.396226 L202.867925,898.415094 Z M318.792453,898.415094 L347.773585,898.415094 L347.773585,927.396226 L318.792453,927.396226 L318.792453,898.415094 Z" id="Combined-Shape" fill="#E3ECF6"></path>
                <rect id="Rectangle-7-Copy-2" fill="#176EDA" x="260.830189" y="898.415094" width="28.9811321" height="28.9811321"></rect>
                <rect id="Rectangle-8" fill="#176EDA" x="0" y="995.018868" width="1004.67925" height="28.9811321"></rect>
            </g>
        </g>
    </g>
</svg>