<?xml version="1.0" encoding="UTF-8" standalone="no"?>
<svg width="1024px" height="1024px" viewBox="0 0 1024 1024" version="1.1" xmlns="http://www.w3.org/2000/svg" xmlns:xlink="http://www.w3.org/1999/xlink">
    <!-- Generator: Sketch 47 (45396) - http://www.bohemiancoding.com/sketch -->
    <title>数据集市</title>
    <desc>Created with Sketch.</desc>
    <defs>
        <path d="M82.4697987,164.939597 C36.9229865,164.939597 0,128.016611 0,82.4697987 C0,36.9229865 36.9229865,0 82.4697987,0 C128.016611,0 164.939597,36.9229865 164.939597,82.4697987 C164.939597,128.016611 128.016611,164.939597 82.4697987,164.939597 Z M82.4697987,137.449664 C112.83434,137.449664 137.449664,112.83434 137.449664,82.4697987 C137.449664,52.1052572 112.83434,27.4899329 82.4697987,27.4899329 C52.1052572,27.4899329 27.4899329,52.1052572 27.4899329,82.4697987 C27.4899329,112.83434 52.1052572,137.449664 82.4697987,137.449664 Z" id="path-1"></path>
        <linearGradient x1="50%" y1="0%" x2="50%" y2="100%" id="linearGradient-3">
            <stop stop-color="#409EF3" offset="0%"></stop>
            <stop stop-color="#409EF3" stop-opacity="0" offset="100%"></stop>
        </linearGradient>
        <polygon id="path-4" points="185.557047 0 371.114094 106.52349 371.114094 319.57047 185.557047 426.09396 0 319.57047 0 106.52349"></polygon>
    </defs>
    <g id="Page-1" stroke="none" stroke-width="1" fill="none" fill-rule="evenodd">
        <g id="数据集市">
            <g id="Group-7" transform="translate(0.000000, 52.000000)">
                <path d="M563.543624,876.241611 C322.525077,876.241611 127.14094,680.857474 127.14094,439.838926 C127.14094,198.820379 322.525077,3.43624161 563.543624,3.43624161 C804.562172,3.43624161 999.946309,198.820379 999.946309,439.838926 C999.946309,680.857474 804.562172,876.241611 563.543624,876.241611 Z M563.543624,869.369128 C800.766604,869.369128 993.073826,677.061906 993.073826,439.838926 C993.073826,202.615946 800.766604,10.3087248 563.543624,10.3087248 C326.320644,10.3087248 134.013423,202.615946 134.013423,439.838926 C134.013423,677.061906 326.320644,869.369128 563.543624,869.369128 Z" id="Oval-22" fill="#DCE5EB" fill-rule="nonzero"></path>
                <path d="M238.174497,134.322148 L224.080537,134.322148 L207.57047,175.516779 L207.248322,175.516779 L190.738255,134.322148 L176.644295,134.322148 L176.644295,192.42953 L187.47651,192.42953 L187.47651,153.208054 L187.798658,153.208054 L203.583893,191.865772 L211.234899,191.865772 L227.020134,153.208054 L227.342282,153.208054 L227.342282,192.42953 L238.174497,192.42953 L238.174497,134.322148 Z M283.583463,192.42953 L279.153933,178.33557 L258.737825,178.33557 L254.308295,192.42953 L241.825073,192.42953 L261.99957,134.322148 L276.294872,134.322148 L296.509637,192.42953 L283.583463,192.42953 Z M268.804939,145.436242 L261.355275,169.234899 L276.536483,169.234899 L269.086818,145.436242 L268.804939,145.436242 Z M312.281019,143.825503 L312.281019,162.348993 L322.95216,162.348993 C329.072966,162.348993 332.656858,158.845638 332.656858,153.087248 C332.656858,147.449664 328.871623,143.825503 322.831355,143.825503 L312.281019,143.825503 Z M312.281019,171.167785 L312.281019,192.42953 L300.119946,192.42953 L300.119946,134.322148 L324.119946,134.322148 C337.489073,134.322148 345.14008,141.369128 345.14008,152.845638 C345.14008,160.295302 341.274308,166.738255 334.589744,169.355705 L346.831355,192.42953 L333.059543,192.42953 L322.227328,171.167785 L312.281019,171.167785 Z M362.965153,192.42953 L362.965153,174.671141 L368.401395,168.147651 L385.636294,192.42953 L400.173207,192.42953 L377.179918,160.09396 L398.683274,134.322148 L385.153073,134.322148 L363.327569,160.818792 L362.965153,160.818792 L362.965153,134.322148 L350.804079,134.322148 L350.804079,192.42953 L362.965153,192.42953 Z M441.47479,182.362416 L415.13922,182.362416 L415.13922,167.704698 L439.984858,167.704698 L439.984858,158.362416 L415.13922,158.362416 L415.13922,144.348993 L441.47479,144.348993 L441.47479,134.322148 L402.978146,134.322148 L402.978146,192.42953 L441.47479,192.42953 L441.47479,182.362416 Z M474.199193,192.42953 L474.199193,144.348993 L491.23275,144.348993 L491.23275,134.322148 L445.04483,134.322148 L445.04483,144.348993 L462.038119,144.348993 L462.038119,192.42953 L474.199193,192.42953 Z" id="MARKET" fill="#176EDA"></path>
                <path d="M893.422819,298.95302 C823.204817,298.95302 766.281879,242.030083 766.281879,171.812081 C766.281879,101.594079 823.204817,44.6711409 893.422819,44.6711409 C963.640821,44.6711409 1020.56376,101.594079 1020.56376,171.812081 C1020.56376,242.030083 963.640821,298.95302 893.422819,298.95302 Z M893.422819,292.080537 C959.845253,292.080537 1013.69128,238.234515 1013.69128,171.812081 C1013.69128,105.389646 959.845253,51.5436242 893.422819,51.5436242 C827.000384,51.5436242 773.154362,105.389646 773.154362,171.812081 C773.154362,238.234515 827.000384,292.080537 893.422819,292.080537 Z" id="Oval" fill="#DBE4EA" fill-rule="nonzero"></path>
                <path d="M893.422819,292.080537 C959.845253,292.080537 1013.69128,238.234515 1013.69128,171.812081 C1013.69128,105.389646 959.845253,51.5436242 893.422819,51.5436242 C827.000384,51.5436242 773.154362,105.389646 773.154362,171.812081 C773.154362,238.234515 827.000384,292.080537 893.422819,292.080537 Z" id="Path" fill="#FFFFFF"></path>
                <g id="Group-37" transform="translate(810.953020, 89.342282)">
                    <mask id="mask-2" fill="white">
                        <use xlink:href="#path-1"></use>
                    </mask>
                    <use id="Combined-Shape" fill="#409EF3" xlink:href="#path-1"></use>
                    <polygon id="Rectangle-62" fill="#72C4B9" mask="url(#mask-2)" points="82.4697987 -24.2558231 194.046585 -24.2558231 194.046585 19.4046585 82.4697987 82.4697987"></polygon>
                    <polygon id="Rectangle-63" fill="#5A67BF" mask="url(#mask-2)" points="82.4697987 82.4697987 169.790762 155.237268 218.302408 194.046585 82.4697987 194.046585"></polygon>
                    <polygon id="Rectangle-64" fill="#40C6F3" mask="url(#mask-2)" points="-140.683774 67.9163048 -43.6604816 97.0232925 82.4697987 82.4697987 82.4697987 198.89775"></polygon>
                    <polygon id="Rectangle-65" fill="#7EACCB" mask="url(#mask-2)" points="-82.4697987 -82.4697987 82.4697987 -82.4697987 82.4697987 82.4697987 -72.7674694 111.576786"></polygon>
                </g>
                <path d="M130.577181,546.362416 C60.3591792,546.362416 3.43624161,489.439479 3.43624161,419.221477 C3.43624161,349.003474 60.3591792,292.080537 130.577181,292.080537 C200.795183,292.080537 257.718121,349.003474 257.718121,419.221477 C257.718121,489.439479 200.795183,546.362416 130.577181,546.362416 Z M130.577181,539.489933 C196.999616,539.489933 250.845638,485.643911 250.845638,419.221477 C250.845638,352.799042 196.999616,298.95302 130.577181,298.95302 C64.1547469,298.95302 10.3087248,352.799042 10.3087248,419.221477 C10.3087248,485.643911 64.1547469,539.489933 130.577181,539.489933 Z" id="Oval-Copy-2" fill="#DBE4EA" fill-rule="nonzero"></path>
                <path d="M130.577181,539.489933 C196.999616,539.489933 250.845638,485.643911 250.845638,419.221477 C250.845638,352.799042 196.999616,298.95302 130.577181,298.95302 C64.1547469,298.95302 10.3087248,352.799042 10.3087248,419.221477 C10.3087248,485.643911 64.1547469,539.489933 130.577181,539.489933 Z" id="Path" fill="#FFFFFF"></path>
                <rect id="Rectangle-36" fill="#EFF6FA" x="48.1073826" y="481.073826" width="164.939597" height="6.87248322"></rect>
                <rect id="Rectangle-68-Copy" fill="#54C4E9" x="75.5973154" y="371.114094" width="27.4899329" height="109.959732"></rect>
                <rect id="Rectangle-68-Copy-2" fill="#176EDA" x="116.832215" y="398.604027" width="27.4899329" height="82.4697987"></rect>
                <rect id="Rectangle-68-Copy-3" fill="#409EF3" x="158.067114" y="343.624161" width="27.4899329" height="137.449664"></rect>
                <rect id="Rectangle-61-Copy" fill="url(#linearGradient-3)" opacity="0.201492537" x="377.986577" y="542.926174" width="371.114094" height="213.04698"></rect>
                <g id="Group-6" transform="translate(377.986577, 226.791946)">
                    <mask id="mask-5" fill="white">
                        <use xlink:href="#path-4"></use>
                    </mask>
                    <use id="Polygon-3" fill="#176EDA" xlink:href="#path-4"></use>
                    <rect id="Rectangle-4" fill="#3384E8" mask="url(#mask-5)" x="185.557047" y="-54.9798658" width="302.389262" height="494.818792"></rect>
                    <polygon id="Polygon-3-Copy" fill="#75AEF5" mask="url(#mask-5)" points="185.557047 -213.04698 371.114094 -106.52349 371.114094 106.52349 185.557047 213.04698 0 106.52349 0 -106.52349"></polygon>
                </g>
                <path d="M783.463087,917.47651 C713.245085,917.47651 656.322148,860.553572 656.322148,790.33557 C656.322148,720.117568 713.245085,663.194631 783.463087,663.194631 C853.681089,663.194631 910.604027,720.117568 910.604027,790.33557 C910.604027,860.553572 853.681089,917.47651 783.463087,917.47651 Z M783.463087,910.604027 C849.885522,910.604027 903.731544,856.758005 903.731544,790.33557 C903.731544,723.913136 849.885522,670.067114 783.463087,670.067114 C717.040653,670.067114 663.194631,723.913136 663.194631,790.33557 C663.194631,856.758005 717.040653,910.604027 783.463087,910.604027 Z" id="Oval-Copy" fill="#DBE4EA" fill-rule="nonzero"></path>
                <path d="M783.463087,910.604027 C849.885522,910.604027 903.731544,856.758005 903.731544,790.33557 C903.731544,723.913136 849.885522,670.067114 783.463087,670.067114 C717.040653,670.067114 663.194631,723.913136 663.194631,790.33557 C663.194631,856.758005 717.040653,910.604027 783.463087,910.604027 Z" id="Path" fill="#FFFFFF"></path>
                <g id="数据集" transform="translate(700.993289, 721.610738)">
                    <path d="M108.526756,125.212146 C108.526756,125.212146 108.969844,125.320606 111.114559,125.320606 C120.797513,125.320606 129.759231,124.51715 137.999213,122.911239 C146.239446,121.305327 152.757559,119.128374 157.552553,116.382379 C162.347796,113.635385 164.745418,110.655977 164.745418,107.443153 L164.745418,95.5725003 C159.205447,99.4833181 151.639718,102.439236 142.04948,104.441502 C132.51797,106.431024 122.273472,107.430658 111.316735,107.442403 L111.316735,114.950154 C111.316735,123.473533 109.30772,124.832285 108.526756,125.212146 Z" id="Fill-1" fill="#176EDA"></path>
                    <path d="M108.676951,71.508063 C110.317101,71.7639692 109.753807,71.6897464 111.114559,71.6897464 C120.797513,71.6897464 129.759231,70.8862907 137.999213,69.2803788 C146.239446,67.6747168 152.757559,65.497764 157.552553,62.7505201 C162.347796,60.0045257 164.745418,57.0251168 164.745418,53.8125433 L164.745418,41.9408908 C159.205447,45.8514587 151.639718,48.8083758 142.04948,50.809643 C132.51897,52.800164 122.273472,53.7997979 111.316735,53.8115436 L111.316735,61.2503195 C111.316735,64.462893 111.114559,69.3995851 108.676951,71.508063 Z" id="Fill-2" fill="#176EDA"></path>
                    <path d="M108.669204,98.3157457 L111.114559,98.5051763 C120.792764,98.8165623 129.759231,97.7017206 137.999213,96.0958087 C146.239446,94.4898968 152.757559,92.312944 157.552553,89.5669496 C162.347796,86.8199556 164.745418,83.8405467 164.745418,80.6279732 L164.745418,68.7563207 C159.205447,72.6678882 151.639718,75.6238057 142.04948,77.6250728 C132.51797,79.6155939 122.273472,80.6152278 111.316735,80.6269735 L111.316735,88.134974 C111.316735,91.3465479 111.495419,96.5478931 108.669204,98.3157457 Z" id="Fill-3" fill="#409EF3"></path>
                    <path d="M138.000213,42.4651988 C146.240445,40.8582872 152.757559,38.6823341 157.552553,35.9353401 C162.347796,33.1890958 164.745418,30.2089372 164.745418,26.9971134 L164.745418,18.0581369 C164.745418,14.8463131 162.347796,11.8669042 157.552553,9.11991019 C152.757559,6.3739158 146.240445,4.19696303 138.000213,2.59105113 C129.759231,0.985139231 120.797513,0.181683466 111.114559,0.181683466 C101.430605,0.181683466 92.4691368,0.985139231 84.2289045,2.59105113 C75.9886721,4.19696303 69.4705591,6.3739158 64.6755651,9.11991019 C59.8803212,11.8669042 57.4829491,14.8463131 57.4829491,18.0581369 L57.4829491,26.9971134 C57.4829491,29.6591385 59.1305957,32.1602226 62.4233899,34.5031146 C70.3082523,34.7247834 77.6922982,35.5027485 84.5705293,36.8440073 C92.8107617,38.4499192 99.3288747,40.626872 104.123869,43.3728664 C104.946068,43.8434441 105.695793,44.3217689 106.376044,44.8060915 C107.936972,44.8500754 109.514645,44.8743165 111.114559,44.8743165 C120.797513,44.8743165 129.759231,44.0708608 138.000213,42.4651988 Z" id="Fill-4" fill="#409EF3"></path>
                    <path d="M53.6316095,119.322803 C64.664819,119.322803 74.9765428,118.322169 84.5667807,116.319902 C94.1570187,114.318635 101.722498,111.361718 107.262469,107.45115 L107.262469,119.322803 C107.262469,122.535376 104.864847,125.514785 100.069853,128.260779 C95.2746094,131.007774 88.7564964,133.184726 80.516514,134.790638 C72.2762816,136.39655 63.3148134,137.200006 53.6316095,137.200006 C43.9476559,137.200006 34.9861877,136.39655 26.7459553,134.790638 C18.5059729,133.184726 11.9878599,131.007774 7.19261599,128.260779 C2.39762196,125.514785 0,122.535376 0,119.322803 L0,107.45115 C5.5399712,111.361718 13.1054506,114.317636 22.6956886,116.319902 C32.2859265,118.322169 42.5976503,119.322803 53.6308598,119.322803 L53.6316095,119.322803 Z M53.6316095,92.5073728 C64.664819,92.5073728 74.9765428,91.5067392 84.5667807,89.5044725 C94.1570187,87.5022057 101.722498,84.5462882 107.262469,80.6357203 L107.262469,92.5073728 C107.262469,95.7189467 104.864847,98.6993552 100.069853,101.44535 C95.2746094,104.192594 88.7564964,106.368547 80.516514,107.975208 C72.2762816,109.58112 63.3148134,110.384576 53.6316095,110.384576 C43.9476559,110.384576 34.9861877,109.58112 26.7459553,107.975208 C18.5059729,106.368547 11.9878599,104.192594 7.19261599,101.44535 C2.39762196,98.6993552 0,95.7189467 0,92.5073728 L0,80.6357203 C5.5399712,84.5462882 13.1054506,87.5022057 22.6956886,89.5044725 C32.2859265,91.5067392 42.5976503,92.5073728 53.6308598,92.5073728 L53.6316095,92.5073728 Z M53.6316095,38.8072883 C63.3148134,38.8072883 72.2762816,39.6107441 80.5175136,41.216656 C88.757496,42.822318 95.2746094,44.9992708 100.069853,47.7462648 C104.864847,50.4925091 107.262469,53.4726677 107.262469,56.6844915 L107.262469,65.6227182 C107.262469,68.8352918 104.864847,71.8147007 100.069853,74.5616947 C95.2746094,77.3076891 88.757496,79.4846419 80.5175136,81.0905538 C72.2762816,82.6964656 63.3148134,83.4999214 53.6316095,83.4999214 C43.9476559,83.4999214 34.9861877,82.6964656 26.7459553,81.0905538 C18.5059729,79.4846419 11.9878599,77.3076891 7.19261599,74.5616947 C2.39762196,71.8147007 0,68.8352918 0,65.6227182 L0,56.6844915 C0,53.471918 2.39762196,50.4925091 7.19261599,47.7462648 C11.9878599,44.9992708 18.5059729,42.822318 26.7459553,41.216656 C34.9861877,39.6107441 43.9476559,38.8072883 53.6316095,38.8072883 Z" id="Fill-5" fill="#409EF3"></path>
                </g>
            </g>
        </g>
    </g>
</svg>