<?xml version="1.0" encoding="UTF-8" standalone="no"?>
<svg width="1024px" height="1024px" viewBox="0 0 1024 1024" version="1.1" xmlns="http://www.w3.org/2000/svg" xmlns:xlink="http://www.w3.org/1999/xlink">
    <!-- Generator: Sketch 46.2 (44496) - http://www.bohemiancoding.com/sketch -->
    <title>数据集市</title>
    <desc>Created with Sketch.</desc>
    <defs></defs>
    <g id="Page-1" stroke="none" stroke-width="1" fill="none" fill-rule="evenodd">
        <g id="数据集市">
            <g id="Group" transform="translate(-4.000000, 38.000000)">
                <polygon id="Path-22-Copy" fill="#E3ECF6" points="640 273.066667 827.733333 162.133333 1006.93333 273.066667 827.733333 384"></polygon>
                <polygon id="Path-21" fill="#E3ECF6" points="633.137529 708.684382 837.937529 589.217716 837.937529 811.084382 633.137529 930.551049"></polygon>
                <polygon id="Path-21-Copy-2" fill="#E3ECF6" transform="translate(343.004196, 648.951049) scale(-1, 1) translate(-343.004196, -648.951049) " points="240.604196 597.751049 445.404196 478.284382 445.404196 700.151049 240.604196 819.617716"></polygon>
                <polygon id="Path-21-Copy-3" fill="#E3ECF6" transform="translate(539.270862, 555.084382) scale(-1, 1) translate(-539.270862, -555.084382) " points="436.870862 503.884382 641.670862 384.417716 641.670862 606.284382 436.870862 725.751049"></polygon>
                <polygon id="Path-21-Copy" fill="#E3ECF6" points="837.937529 375.884382 1008.6042 282.017716 1008.6042 495.351049 837.937529 589.217716"></polygon>
                <path d="M470.18529,382.873108 L267.731027,499.243525 L267.731027,706.903623 L632.600466,917.561092 L997.469906,706.903623 L997.469906,285.588685 L632.600466,74.9312158 L470.18529,168.701661 L470.18529,382.873108 Z M444.58529,153.921494 L632.600466,45.3708821 L1023.06991,270.808518 L1023.06991,721.68379 L632.600466,947.121426 L242.131027,721.68379 L242.131027,484.430641 L444.58529,368.060225 L444.58529,153.921494 Z" id="Polygon" fill="#2577DC" fill-rule="nonzero"></path>
                <polygon id="Polygon-Copy" fill="#2577DC" fill-rule="nonzero" points="451.936742 376.163587 439.136742 398.333837 634.32585 511.026321 1018.39529 289.283727 1005.59529 267.113476 634.32585 481.465987"></polygon>
                <polygon id="Polygon-Copy-6" fill="#2577DC" fill-rule="nonzero" points="263.05641 477.642148 250.25641 499.812398 634.32585 721.554992 1018.39529 499.812398 1005.59529 477.642148 634.32585 691.994658"></polygon>
                <polygon id="Polygon-Copy-2" fill="#2577DC" fill-rule="nonzero" points="821.178996 176.50051 808.378996 154.330259 424.309557 376.072854 424.309557 819.596523 449.909557 819.596523 449.909557 390.853021"></polygon>
                <polygon id="Path-18" fill="#2577DC" fill-rule="nonzero" points="624.075908 496.246154 624.075908 932.425083 649.675908 932.425083 649.675908 496.246154"></polygon>
                <polygon id="Path-22" fill="#E3ECF6" points="25.6 128 213.333333 17.0666667 392.533333 128 213.333333 238.933333"></polygon>
                <path d="M33.4794995,133.480526 L33.4794995,336.747912 L209.514219,438.381605 L385.548939,336.747912 L385.548939,133.480526 L209.514219,31.8468336 L33.4794995,133.480526 Z M411.148939,118.700359 L411.148939,351.528079 L209.514219,467.941938 L7.87949946,351.528079 L7.87949946,118.700359 L209.514219,2.28649978 L411.148939,118.700359 Z" id="Polygon" fill="#2577DC" fill-rule="nonzero"></path>
                <polygon id="Polygon-Copy" fill="#2577DC" fill-rule="nonzero" points="27.0794995 115.005318 14.2794995 137.175568 209.514219 249.894386 404.748939 137.175568 391.948939 115.005318 209.514219 220.334052"></polygon>
                <polygon id="Path-18" fill="#2577DC" fill-rule="nonzero" points="198.85194 235.114219 198.85194 453.203684 224.45194 453.203684 224.45194 235.114219"></polygon>
                <polygon id="Polygon-Copy-2" fill="#2577DC" fill-rule="nonzero" transform="translate(645.300920, 486.963391) scale(-1, 1) translate(-645.300920, -486.963391) " points="843.73564 176.50051 830.93564 154.330259 446.8662 376.072854 446.8662 819.596523 472.4662 819.596523 472.4662 390.853021"></polygon>
            </g>
        </g>
    </g>
</svg>