<?xml version="1.0" encoding="UTF-8" standalone="no"?>
<svg width="1024px" height="1024px" viewBox="0 0 1024 1024" version="1.1" xmlns="http://www.w3.org/2000/svg" xmlns:xlink="http://www.w3.org/1999/xlink">
    <!-- Generator: Sketch 46.2 (44496) - http://www.bohemiancoding.com/sketch -->
    <title>深度学习</title>
    <desc>Created with Sketch.</desc>
    <defs></defs>
    <g id="Page-1" stroke="none" stroke-width="1" fill="none" fill-rule="evenodd">
        <g id="深度学习">
            <g id="Group" transform="translate(50.000000, 1.000000)">
                <path d="M804.553216,593.308173 L804.553216,787.658364 L554.059397,787.658364 L554.059397,1018.11804 L581.245238,1018.11804 L581.245238,814.844205 L831.739057,814.844205 L831.739057,620.494014 L920.713519,620.494014 L918.622764,605.074699 C905.0923,505.287526 891.017221,426.065283 875.303514,354.425953 C870.628626,333.112981 851.493256,253.030069 849.10112,239.004634 C838.997598,179.76623 788.851294,108.561996 720.094578,60.914543 C637.693791,3.8119381 537.746103,-15.7612994 432.644383,14.0718197 C261.136829,62.7542321 173.895636,189.873241 173.895636,328.104258 L173.895636,497.048616 L201.081477,497.048616 L201.081477,328.104258 C201.081477,201.555687 280.770414,85.4410592 440.067819,40.2244969 C537.057186,12.6940691 628.671814,30.6354032 704.609879,83.2594316 C767.688465,126.972019 813.512333,192.038697 822.30227,243.575364 C824.87143,258.638719 844.24954,339.737511 848.748966,360.250552 C863.489997,427.455419 876.784901,501.459442 889.565524,593.308173 L804.553216,593.308173 Z" id="Path-4" fill="#176EDA" fill-rule="nonzero"></path>
                <polygon id="Path-39" fill="#176EDA" fill-rule="nonzero" points="208.320618 229.621402 322.896959 229.621402 322.896959 202.435561 208.320618 202.435561"></polygon>
                <polygon id="Path-40" fill="#176EDA" fill-rule="nonzero" points="520.85558 260.869494 520.85558 233.683654 419.43583 233.683654 369.346741 283.772743 197.904588 283.772743 197.904588 310.958583 380.607485 310.958583 430.696574 260.869494"></polygon>
                <polygon id="Path-42" fill="#176EDA" fill-rule="nonzero" points="578.049941 333.783706 675.658843 247.020007 657.597527 226.70108 567.713882 306.597865 468.562312 306.597865 421.48607 353.674107 197.904588 353.674107 197.904588 380.859948 427.116442 380.859948 432.746814 380.859948 479.823056 333.783706"></polygon>
                <polygon id="Path-43" fill="#176EDA" fill-rule="nonzero" points="468.299035 504.292137 572.881701 504.292137 572.881701 477.106296 479.559779 477.106296 422.271609 419.818126 197.904588 419.818126 197.904588 447.003967 411.010865 447.003967"></polygon>
                <circle id="Oval-6-Copy-3" fill="#176EDA" cx="588.505747" cy="490.699217" r="36.4561082"></circle>
                <circle id="Oval-6-Copy-7" fill="#176EDA" cx="671.833995" cy="231.652528" r="36.4561082"></circle>
                <path d="M542.779371,260.400773 C552.903974,260.400773 561.111586,252.193161 561.111586,242.068559 C561.111586,231.943956 552.903974,223.736344 542.779371,223.736344 C532.654769,223.736344 524.447157,231.943956 524.447157,242.068559 C524.447157,252.193161 532.654769,260.400773 542.779371,260.400773 Z M542.779371,278.524667 C522.645219,278.524667 506.323263,262.202711 506.323263,242.068559 C506.323263,221.934406 522.645219,205.61245 542.779371,205.61245 C562.913524,205.61245 579.23548,221.934406 579.23548,242.068559 C579.23548,262.202711 562.913524,278.524667 542.779371,278.524667 Z" id="Oval-6-Copy-8" fill="#176EDA" fill-rule="nonzero"></path>
                <circle id="Oval-6-Copy-9" fill="#C3D7F0" cx="328.104974" cy="210.820466" r="36.4561082"></circle>
                <path d="M260.784902,577.620562 C171.835451,683.248034 135.809246,824.581607 152.331056,1000.81425 L179.398209,998.276701 C163.51459,828.851426 197.700149,694.738848 281.579656,595.131933 L260.784902,577.620562 Z" id="Path-28" fill="#C3D7F0" fill-rule="nonzero" transform="translate(215.008079, 789.217404) rotate(-270.000000) translate(-215.008079, -789.217404) "></path>
                <path d="M275.711539,579.881883 C186.762088,685.509356 150.735883,826.842929 167.257693,1003.07557 L194.324846,1000.53802 C178.441227,831.112747 212.626786,697.000169 296.506293,597.393255 L275.711539,579.881883 Z" id="Path-28-Copy" fill="#C3D7F0" fill-rule="nonzero" transform="translate(229.934715, 791.478725) scale(-1, 1) rotate(-27.000000) translate(-229.934715, -791.478725) "></path>
                <path d="M260.784902,577.620562 C171.835451,683.248034 135.809246,824.581607 152.331056,1000.81425 L179.398209,998.276701 C163.51459,828.851426 197.700149,694.738848 281.579656,595.131933 L260.784902,577.620562 Z" id="Path-28" fill="#176EDA" fill-rule="nonzero" transform="translate(215.008079, 789.217404) rotate(-90.000000) translate(-215.008079, -789.217404) "></path>
                <path d="M260.784902,577.620562 C171.835451,683.248034 135.809246,824.581607 152.331056,1000.81425 L179.398209,998.276701 C163.51459,828.851426 197.700149,694.738848 281.579656,595.131933 L260.784902,577.620562 Z" id="Path-28" fill="#176EDA" fill-rule="nonzero"></path>
                <path d="M218.736649,980.460991 C324.52724,980.460991 410.287458,894.700773 410.287458,788.910182 C410.287458,683.119592 324.52724,597.359373 218.736649,597.359373 C112.946059,597.359373 27.1858407,683.119592 27.1858407,788.910182 C27.1858407,894.700773 112.946059,980.460991 218.736649,980.460991 Z M218.736649,1007.64683 C97.9317337,1007.64683 0,909.715098 0,788.910182 C0,668.105266 97.9317337,570.173533 218.736649,570.173533 C339.541565,570.173533 437.473299,668.105266 437.473299,788.910182 C437.473299,909.715098 339.541565,1007.64683 218.736649,1007.64683 Z" id="Oval-15" fill="#176EDA" fill-rule="nonzero"></path>
            </g>
        </g>
    </g>
</svg>