<?xml version="1.0" encoding="UTF-8" standalone="no"?>
<svg width="1024px" height="1024px" viewBox="0 0 1024 1024" version="1.1" xmlns="http://www.w3.org/2000/svg" xmlns:xlink="http://www.w3.org/1999/xlink">
    <!-- Generator: Sketch 47 (45396) - http://www.bohemiancoding.com/sketch -->
    <title>深度学习</title>
    <desc>Created with Sketch.</desc>
    <defs>
        <linearGradient x1="50%" y1="0%" x2="50%" y2="100%" id="linearGradient-1">
            <stop stop-color="#409EF3" offset="0%"></stop>
            <stop stop-color="#409EF3" stop-opacity="0" offset="100%"></stop>
        </linearGradient>
        <circle id="path-2" cx="213.678875" cy="213.588387" r="210.057199"></circle>
    </defs>
    <g id="Page-1" stroke="none" stroke-width="1" fill="none" fill-rule="evenodd">
        <g id="深度学习">
            <g id="Group-25" transform="translate(64.000000, 0.000000)">
                <g id="Group" transform="translate(177.446357, 0.000000)">
                    <path d="M7.92979243,980.844193 L378.960858,980.844193 L378.960858,770.867059 L623.437051,770.867059 L623.437051,582.69116 L708.353844,582.69116 C678.228079,362.276952 648.831737,276.74537 640.570872,228.695129 C623.437051,129.034359 466.592095,-39.4048184 250.818778,21.3563398 C63.7400676,74.0371778 7.92979243,214.422118 7.92979243,312.751395 L7.92979243,980.844193 Z M631.216947,778.646955 L386.740755,778.646955 L386.740755,988.624089 L0.149896157,988.624089 L0.149896157,312.751395 C0.149896157,181.210955 83.7879594,60.3092745 248.709996,13.8676934 C349.633664,-14.5521272 445.481896,4.06932231 524.592112,58.4565097 C590.558501,103.807496 638.637853,171.534984 648.23828,227.376937 C650.607907,241.160132 669.331528,318.89794 673.859456,339.377089 C689.164735,408.600591 702.876279,485.164152 716.062076,581.637615 L717.269412,590.471056 L631.216947,590.471056 L631.216947,778.646955 Z" id="Path-4" fill="#D7E1E7" fill-rule="nonzero"></path>
                    <path d="M7.92979243,980.844193 L378.960858,980.844193 L378.960858,770.867059 L623.437051,770.867059 L623.437051,582.69116 L708.353844,582.69116 C678.228079,362.276952 648.831737,276.74537 640.570872,228.695129 C623.437051,129.034359 466.592095,-39.4048184 250.818778,21.3563398 C63.7400676,74.0371778 7.92979243,214.422118 7.92979243,312.751395 L7.92979243,980.844193 Z" id="Path" fill="#FFFFFF"></path>
                    <g id="Group-27" transform="translate(3.100891, 172.535136)">
                        <polygon id="Path-39" fill="#4499E5" fill-rule="nonzero" points="17.840107 54.2527468 144.330489 54.2527468 144.330489 30.913058 17.840107 30.913058"></polygon>
                        <polygon id="Path-40" fill="#54C4E9" fill-rule="nonzero" points="317.153508 86.1899237 317.153508 62.8502348 244.781556 62.8502348 193.178351 114.04389 7.3174461e-14 114.04389 -5.02579008e-15 137.383579 202.791542 137.383579 254.394746 86.1899237"></polygon>
                        <polygon id="Path-42" fill="#4499E5" fill-rule="nonzero" points="406.282585 160.712042 506.170659 72.6270867 490.733699 55.1216206 397.461616 137.372353 295.393055 137.372353 246.893772 185.486722 -3.13675317e-14 185.486722 5.11984242e-13 208.826411 256.506962 208.826411 305.006246 160.712042"></polygon>
                        <polygon id="Path-43" fill="#A9E9E1" fill-rule="nonzero" points="236.101917 276.42904 295.12182 334.980531 401.871883 334.980531 401.871883 311.640842 304.73501 311.640842 245.715107 253.089351 5.01139126e-14 253.089351 -3.44193864e-15 276.42904"></polygon>
                        <ellipse id="Oval-6-Copy-3" fill="#72C4B9" cx="417.96822" cy="323.310687" rx="37.5581199" ry="37.2600396"></ellipse>
                        <ellipse id="Oval-6-Copy-7" fill="#4499E5" cx="503.815352" cy="58.5514908" rx="37.5581199" ry="37.2600396"></ellipse>
                        <path d="M342.851981,90.8974635 C355.028953,90.8974635 364.850308,81.1540558 364.850308,69.1972164 C364.850308,57.2403771 355.028953,47.4969694 342.851981,47.4969694 C330.675008,47.4969694 320.853653,57.2403771 320.853653,69.1972164 C320.853653,81.1540558 330.675008,90.8974635 342.851981,90.8974635 Z M342.851981,106.457256 C322.109204,106.457256 305.293861,89.7753681 305.293861,69.1972164 C305.293861,48.6190648 322.109204,31.9371768 342.851981,31.9371768 C363.594757,31.9371768 380.410101,48.6190648 380.410101,69.1972164 C380.410101,89.7753681 363.594757,106.457256 342.851981,106.457256 Z" id="Oval-6-Copy-8" fill="#54C4E9" fill-rule="nonzero"></path>
                        <ellipse id="Oval-6-Copy-9" fill="#4499E5" cx="149.695935" cy="37.2600396" rx="37.5581199" ry="37.2600396"></ellipse>
                    </g>
                </g>
                <rect id="Rectangle-61" fill="url(#linearGradient-1)" opacity="0.201492537" x="7.33674514" y="751.492323" width="420.114399" height="271.931687"></rect>
                <g id="Group-24" transform="translate(0.000000, 539.774821)">
                    <mask id="mask-3" fill="white">
                        <use xlink:href="#path-2"></use>
                    </mask>
                    <g id="Oval-15">
                        <use fill="#176EDA" fill-rule="evenodd" xlink:href="#path-2"></use>
                        <circle stroke="#176EDA" stroke-width="3" cx="213.678875" cy="213.588387" r="208.557199"></circle>
                    </g>
                    <path d="M433.2053,271.060408 C327.344588,177.974354 184.13199,138.500318 4.28170198,152.334053 L6.0716583,175.605003 C180.030588,162.22442 317.033008,199.98673 417.793112,288.587688 L433.2053,271.060408 Z" id="Path-28" fill="#4591F1" fill-rule="nonzero" mask="url(#mask-3)"></path>
                    <path d="M265.151372,11.2673264 C296.077371,141.828848 265.100771,280.523135 171.617647,427.83795 L191.324343,440.343437 C287.973402,288.039603 320.354139,143.058448 287.862625,5.88773077 L265.151372,11.2673264 Z" id="Path-28-Copy" fill="#4591F1" fill-rule="nonzero" mask="url(#mask-3)"></path>
                    <path d="M262.703008,1.22814733 C171.478656,108.697313 134.510036,252.577015 151.480484,432.158479 L174.716651,429.962662 C158.302104,256.26375 193.667641,118.623153 280.496598,16.3320953 L262.703008,1.22814733 Z" id="Path-28" fill="#D5E8FF" fill-rule="nonzero" mask="url(#mask-3)"></path>
                    <path d="M-2.46041629,168.780283 C103.400296,261.866337 246.612894,301.340374 426.463182,287.506639 L424.673226,264.235689 C250.714296,277.616272 113.711876,239.853962 12.9517723,151.253004 L-2.46041629,168.780283 Z" id="Path-28" fill="#D5E8FF" fill-rule="nonzero" mask="url(#mask-3)"></path>
                </g>
                <path d="M735.048247,882.715749 L725.019474,850.806019 L678.79595,850.806019 L668.767177,882.715749 L640.504273,882.715749 L686.180773,751.156488 L718.546357,751.156488 L764.314028,882.715749 L735.048247,882.715749 Z M701.588615,776.31959 L684.722043,830.20145 L719.093381,830.20145 L702.226809,776.31959 L701.588615,776.31959 Z M800.021564,882.715749 L800.021564,751.156488 L772.488025,751.156488 L772.488025,882.715749 L800.021564,882.715749 Z" id="AI" fill="#3B88E8"></path>
            </g>
        </g>
    </g>
</svg>