<?xml version="1.0" encoding="UTF-8" standalone="no"?>
<svg width="1024px" height="1024px" viewBox="0 0 1024 1024" version="1.1" xmlns="http://www.w3.org/2000/svg" xmlns:xlink="http://www.w3.org/1999/xlink">
    <!-- Generator: Sketch 47 (45396) - http://www.bohemiancoding.com/sketch -->
    <title>信息检索</title>
    <desc>Created with Sketch.</desc>
    <defs>
        <filter x="-1.6%" y="-1.9%" width="103.2%" height="105.3%" filterUnits="objectBoundingBox" id="filter-1">
            <feOffset dx="0" dy="4" in="SourceAlpha" result="shadowOffsetOuter1"></feOffset>
            <feGaussianBlur stdDeviation="4" in="shadowOffsetOuter1" result="shadowBlurOuter1"></feGaussianBlur>
            <feColorMatrix values="0 0 0 0 0.882352941   0 0 0 0 0.909803922   0 0 0 0 0.933333333  0 0 0 0.834210824 0" type="matrix" in="shadowBlurOuter1" result="shadowMatrixOuter1"></feColorMatrix>
            <feMerge>
                <feMergeNode in="shadowMatrixOuter1"></feMergeNode>
                <feMergeNode in="SourceGraphic"></feMergeNode>
            </feMerge>
        </filter>
        <linearGradient x1="50%" y1="0%" x2="50%" y2="100%" id="linearGradient-2">
            <stop stop-color="#4090F2" offset="0%"></stop>
            <stop stop-color="#4090F2" stop-opacity="0" offset="100%"></stop>
        </linearGradient>
    </defs>
    <g id="Page-1" stroke="none" stroke-width="1" fill="none" fill-rule="evenodd">
        <g id="信息检索">
            <g id="Group-35" transform="translate(0.000000, 130.000000)">
                <g id="Group-32">
                    <path d="M12.7204969,6.36024845 C9.20782867,6.36024845 6.36024845,9.20782867 6.36024845,12.7204969 L6.36024845,750.509317 C6.36024845,754.021985 9.20782867,756.869565 12.7204969,756.869565 L1004.91925,756.869565 C1008.43192,756.869565 1011.2795,754.021985 1011.2795,750.509317 L1011.2795,12.7204969 C1011.2795,9.20782867 1008.43192,6.36024845 1004.91925,6.36024845 L12.7204969,6.36024845 Z M12.7204969,0 L1004.91925,0 C1011.94459,-1.29053337e-15 1017.63975,5.69516045 1017.63975,12.7204969 L1017.63975,750.509317 C1017.63975,757.534653 1011.94459,763.229814 1004.91925,763.229814 L12.7204969,763.229814 C5.69516045,763.229814 8.60355579e-16,757.534653 0,750.509317 L0,12.7204969 C-8.60355579e-16,5.69516045 5.69516045,1.29053337e-15 12.7204969,0 Z" id="Rectangle-51" fill="#D7E1E7" fill-rule="nonzero"></path>
                    <path d="M12.7204969,6.36024845 C9.20782867,6.36024845 6.36024845,9.20782867 6.36024845,12.7204969 L6.36024845,750.509317 C6.36024845,754.021985 9.20782867,756.869565 12.7204969,756.869565 L1004.91925,756.869565 C1008.43192,756.869565 1011.2795,754.021985 1011.2795,750.509317 L1011.2795,12.7204969 C1011.2795,9.20782867 1008.43192,6.36024845 1004.91925,6.36024845 L12.7204969,6.36024845 Z" id="Path" fill="#FFFFFF"></path>
                    <path d="M12.7204969,0 L1004.91925,0 C1011.94459,-1.29053337e-15 1017.63975,5.69516045 1017.63975,12.7204969 L1017.63975,76.3229814 L0,76.3229814 L0,12.7204969 C-8.60355579e-16,5.69516045 5.69516045,1.29053337e-15 12.7204969,0 Z M44.5217391,50.8819876 C51.5470756,50.8819876 57.242236,45.1868271 57.242236,38.1614907 C57.242236,31.1361542 51.5470756,25.4409938 44.5217391,25.4409938 C37.4964027,25.4409938 31.8012422,31.1361542 31.8012422,38.1614907 C31.8012422,45.1868271 37.4964027,50.8819876 44.5217391,50.8819876 Z M101.763975,50.8819876 C108.789312,50.8819876 114.484472,45.1868271 114.484472,38.1614907 C114.484472,31.1361542 108.789312,25.4409938 101.763975,25.4409938 C94.7386387,25.4409938 89.0434783,31.1361542 89.0434783,38.1614907 C89.0434783,45.1868271 94.7386387,50.8819876 101.763975,50.8819876 Z M159.006211,50.8819876 C166.031548,50.8819876 171.726708,45.1868271 171.726708,38.1614907 C171.726708,31.1361542 166.031548,25.4409938 159.006211,25.4409938 C151.980875,25.4409938 146.285714,31.1361542 146.285714,38.1614907 C146.285714,45.1868271 151.980875,50.8819876 159.006211,50.8819876 Z" id="Combined-Shape" fill="#176EDA"></path>
                </g>
                <g id="Group-34" filter="url(#filter-1)" transform="translate(63.602484, 146.285714)">
                    <path d="M0,95.4037267 L890.434783,95.4037267 L890.434783,525.900621 L890.434783,525.900621 C890.434783,527.005191 889.539352,527.900621 888.434783,527.900621 L2,527.900621 L2,527.900621 C0.8954305,527.900621 1.3527075e-16,527.005191 0,525.900621 L0,95.4037267 Z" id="Rectangle-55" fill="#FFFFFF"></path>
                    <path d="M6.36024845,6.36024845 L6.36024845,95.4037267 L884.074534,95.4037267 L884.074534,12.7204969 C884.074534,9.20782867 881.226954,6.36024845 877.714286,6.36024845 L6.36024845,6.36024845 Z M0,0 L877.714286,0 C884.739622,-1.29053337e-15 890.434783,5.69516045 890.434783,12.7204969 L890.434783,101.763975 L0,101.763975 L0,0 Z" id="Rectangle-54" fill="#409EF3" fill-rule="nonzero"></path>
                    <rect id="Rectangle-56" fill="#409EF3" x="737.78882" y="0" width="152.645963" height="101.763975"></rect>
                    <path d="M37.3975155,69.9627329 L37.3975155,25.1490683 L29.3850932,25.1490683 L29.3850932,69.9627329 L37.3975155,69.9627329 Z M42.8526708,69.9627329 L50.5855901,69.9627329 L50.5855901,50.4906832 C50.5855901,45.5217391 53.7532919,42.1677019 58.5048447,42.1677019 C63.1632298,42.1677019 65.7719255,44.9006211 65.7719255,49.7453416 L65.7719255,69.9627329 L73.5048447,69.9627329 L73.5048447,48.2236025 C73.5048447,40.3664596 68.9085714,35.6149068 61.3930435,35.6149068 C56.1756522,35.6149068 52.4489441,37.7888199 50.4303106,41.9192547 L50.275031,41.9192547 L50.275031,36.0186335 L42.8526708,36.0186335 L42.8526708,69.9627329 Z M107.873043,48.0372671 C107.345093,41.0496894 101.786087,35.552795 92.9040994,35.552795 C83.0904348,35.552795 76.7239751,42.3540373 76.7239751,52.9751553 C76.7239751,63.8136646 83.1214907,70.4596273 92.9662112,70.4596273 C101.444472,70.4596273 107.251925,65.5838509 107.904099,58.1614907 L100.605963,58.1614907 C99.891677,62.0124224 97.1587577,64.1552795 93.028323,64.1552795 C87.9351553,64.1552795 84.581118,60.0248447 84.581118,52.9751553 C84.581118,46.1428571 87.9040994,41.8571429 92.9972671,41.8571429 C97.3450932,41.8571429 100.015901,44.4658385 100.574907,48.0372671 L107.873043,48.0372671 Z M125.44,41.5776398 C120.905838,41.5776398 117.613913,44.8695652 117.272298,49.7142857 L133.359255,49.7142857 C133.203975,44.8074534 130.036273,41.5776398 125.44,41.5776398 Z M133.390311,59.8695652 L140.657391,59.8695652 C139.663602,66.1428571 133.638758,70.4596273 125.719503,70.4596273 C115.688447,70.4596273 109.477267,63.8136646 109.477267,53.1304348 C109.477267,42.447205 115.719503,35.552795 125.44,35.552795 C134.943106,35.552795 140.96795,42.0434783 140.96795,52.3229814 L140.96795,54.8695652 L117.210186,54.8695652 L117.210186,55.3354037 C117.210186,60.8012422 120.688447,64.4347826 125.874783,64.4347826 C129.601491,64.4347826 132.489689,62.6645963 133.390311,59.8695652 Z M162.789565,35.6459627 C171.423106,35.6459627 176.92,42.3540373 176.92,53.0062112 C176.92,63.6273292 171.454161,70.3354037 162.913789,70.3354037 C158.038012,70.3354037 154.218137,68.1304348 152.261615,64.3416149 L152.106335,64.3416149 L152.106335,80.863354 L144.373416,80.863354 L144.373416,36.0186335 L151.92,36.0186335 L151.92,41.7329193 L152.075279,41.7329193 C153.938634,38.0062112 158.038012,35.6459627 162.789565,35.6459627 Z M160.522484,63.9068323 C165.646708,63.9068323 169.000745,59.6521739 169.000745,53.0062112 C169.000745,46.3913043 165.646708,42.0745342 160.522484,42.0745342 C155.460373,42.0745342 152.075279,46.484472 152.075279,53.0062112 C152.075279,59.5590062 155.460373,63.9068323 160.522484,63.9068323 Z M182.499379,28.4409938 L182.499379,36.0186335 L177.87205,36.0186335 L177.87205,42.0124224 L182.499379,42.0124224 L182.499379,60.9565217 C182.499379,67.5093168 185.356522,70.1180124 192.561491,70.1180124 C194.207453,70.1180124 195.791304,69.9937888 196.629814,69.8074534 L196.629814,63.8757764 C196.132919,63.9378882 195.077019,64.0310559 194.331677,64.0310559 C191.536646,64.0310559 190.232298,62.6956522 190.232298,59.9006211 L190.232298,42.0124224 L196.66087,42.0124224 L196.66087,36.0186335 L190.232298,36.0186335 L190.232298,28.4409938 L182.499379,28.4409938 Z M214.631553,70.4596273 C204.631553,70.4596273 198.296149,63.8136646 198.296149,52.9751553 C198.296149,42.2608696 204.693665,35.552795 214.631553,35.552795 C224.631553,35.552795 230.998012,42.2298137 230.998012,52.9751553 C230.998012,63.8136646 224.693665,70.4596273 214.631553,70.4596273 Z M214.631553,64.2795031 C219.973168,64.2795031 223.14087,60.1180124 223.14087,53.0062112 C223.14087,45.8944099 219.942112,41.7329193 214.631553,41.7329193 C209.35205,41.7329193 206.153292,45.9254658 206.153292,53.0062112 C206.153292,60.1180124 209.35205,64.2795031 214.631553,64.2795031 Z M234.372422,69.9627329 L242.105342,69.9627329 L242.105342,50.2732919 C242.105342,45.4906832 244.838261,42.5403727 249.372422,42.5403727 C250.428323,42.5403727 251.825838,42.7267081 252.446956,43.0062112 L252.446956,35.9565217 C251.88795,35.7701863 250.894161,35.6459627 250.086708,35.6459627 C246.080497,35.6459627 243.037019,37.9440994 241.950062,41.9192547 L241.794783,41.9192547 L241.794783,36.0186335 L234.372422,36.0186335 L234.372422,69.9627329 Z" id="Inceptor" fill="#535D69"></path>
                    <path d="M50.1180124,209.888199 L50.1180124,165.074534 L42.1055901,165.074534 L42.1055901,209.888199 L50.1180124,209.888199 Z M55.5731677,209.888199 L63.3060869,209.888199 L63.3060869,190.416149 C63.3060869,185.447205 66.4737888,182.093168 71.2253416,182.093168 C75.8837267,182.093168 78.4924224,184.826087 78.4924224,189.670807 L78.4924224,209.888199 L86.2253416,209.888199 L86.2253416,188.149068 C86.2253416,180.291925 81.6290683,175.540373 74.1135404,175.540373 C68.8961491,175.540373 65.169441,177.714286 63.1508074,181.84472 L62.9955279,181.84472 L62.9955279,175.944099 L55.5731677,175.944099 L55.5731677,209.888199 Z M120.59354,187.962733 C120.06559,180.975155 114.506584,175.478261 105.624596,175.478261 C95.8109317,175.478261 89.444472,182.279503 89.444472,192.900621 C89.444472,203.73913 95.8419876,210.385093 105.686708,210.385093 C114.164969,210.385093 119.972422,205.509317 120.624596,198.086957 L113.32646,198.086957 C112.612174,201.937888 109.879255,204.080745 105.74882,204.080745 C100.655652,204.080745 97.3016149,199.950311 97.3016149,192.900621 C97.3016149,186.068323 100.624596,181.782609 105.717764,181.782609 C110.06559,181.782609 112.736398,184.391304 113.295404,187.962733 L120.59354,187.962733 Z M138.160497,181.503106 C133.626335,181.503106 130.33441,184.795031 129.992795,189.639752 L146.079752,189.639752 C145.924472,184.732919 142.75677,181.503106 138.160497,181.503106 Z M146.110807,199.795031 L153.377888,199.795031 C152.384099,206.068323 146.359255,210.385093 138.44,210.385093 C128.408944,210.385093 122.197764,203.73913 122.197764,193.055901 C122.197764,182.372671 128.44,175.478261 138.160497,175.478261 C147.663602,175.478261 153.688447,181.968944 153.688447,192.248447 L153.688447,194.795031 L129.930683,194.795031 L129.930683,195.26087 C129.930683,200.726708 133.408944,204.360248 138.595279,204.360248 C142.321988,204.360248 145.210186,202.590062 146.110807,199.795031 Z M175.510062,175.571429 C184.143602,175.571429 189.640497,182.279503 189.640497,192.931677 C189.640497,203.552795 184.174658,210.26087 175.634286,210.26087 C170.758509,210.26087 166.938634,208.055901 164.982112,204.267081 L164.826832,204.267081 L164.826832,220.78882 L157.093913,220.78882 L157.093913,175.944099 L164.640497,175.944099 L164.640497,181.658385 L164.795776,181.658385 C166.65913,177.931677 170.758509,175.571429 175.510062,175.571429 Z M173.242981,203.832298 C178.367205,203.832298 181.721242,199.57764 181.721242,192.931677 C181.721242,186.31677 178.367205,182 173.242981,182 C168.18087,182 164.795776,186.409938 164.795776,192.931677 C164.795776,199.484472 168.18087,203.832298 173.242981,203.832298 Z M195.219876,168.36646 L195.219876,175.944099 L190.592547,175.944099 L190.592547,181.937888 L195.219876,181.937888 L195.219876,200.881988 C195.219876,207.434783 198.077019,210.043478 205.281988,210.043478 C206.92795,210.043478 208.511801,209.919255 209.350311,209.732919 L209.350311,203.801242 C208.853416,203.863354 207.797515,203.956522 207.052174,203.956522 C204.257143,203.956522 202.952795,202.621118 202.952795,199.826087 L202.952795,181.937888 L209.381366,181.937888 L209.381366,175.944099 L202.952795,175.944099 L202.952795,168.36646 L195.219876,168.36646 Z M227.35205,210.385093 C217.35205,210.385093 211.016646,203.73913 211.016646,192.900621 C211.016646,182.186335 217.414161,175.478261 227.35205,175.478261 C237.35205,175.478261 243.718509,182.15528 243.718509,192.900621 C243.718509,203.73913 237.414161,210.385093 227.35205,210.385093 Z M227.35205,204.204969 C232.693665,204.204969 235.861366,200.043478 235.861366,192.931677 C235.861366,185.819876 232.662609,181.658385 227.35205,181.658385 C222.072547,181.658385 218.873789,185.850932 218.873789,192.931677 C218.873789,200.043478 222.072547,204.204969 227.35205,204.204969 Z M247.092919,209.888199 L254.825838,209.888199 L254.825838,190.198758 C254.825838,185.416149 257.558758,182.465839 262.092919,182.465839 C263.14882,182.465839 264.546335,182.652174 265.167453,182.931677 L265.167453,175.881988 C264.608447,175.695652 263.614658,175.571429 262.807205,175.571429 C258.800994,175.571429 255.757515,177.869565 254.670559,181.84472 L254.515279,181.84472 L254.515279,175.944099 L247.092919,175.944099 L247.092919,209.888199 Z M309.804472,187.962733 C309.276522,180.975155 303.717515,175.478261 294.835528,175.478261 C285.021863,175.478261 278.655404,182.279503 278.655404,192.900621 C278.655404,203.73913 285.052919,210.385093 294.89764,210.385093 C303.375901,210.385093 309.183354,205.509317 309.835528,198.086957 L302.537391,198.086957 C301.823106,201.937888 299.090186,204.080745 294.959751,204.080745 C289.866584,204.080745 286.512547,199.950311 286.512547,192.900621 C286.512547,186.068323 289.835528,181.782609 294.928696,181.782609 C299.276522,181.782609 301.947329,184.391304 302.506335,187.962733 L309.804472,187.962733 Z M313.085714,209.888199 L320.818633,209.888199 L320.818633,162.993789 L313.085714,162.993789 L313.085714,209.888199 Z M326.118509,209.888199 L333.851428,209.888199 L333.851428,175.944099 L326.118509,175.944099 L326.118509,209.888199 Z M329.969441,171.627329 C332.391801,171.627329 334.317267,169.763975 334.317267,167.372671 C334.317267,164.950311 332.391801,163.118012 329.969441,163.118012 C327.578137,163.118012 325.621615,164.950311 325.621615,167.372671 C325.621615,169.763975 327.578137,171.627329 329.969441,171.627329 Z M368.592298,187.962733 C368.064348,180.975155 362.505342,175.478261 353.623354,175.478261 C343.809689,175.478261 337.44323,182.279503 337.44323,192.900621 C337.44323,203.73913 343.840745,210.385093 353.685466,210.385093 C362.163727,210.385093 367.97118,205.509317 368.623354,198.086957 L361.325217,198.086957 C360.610932,201.937888 357.878012,204.080745 353.747578,204.080745 C348.65441,204.080745 345.300373,199.950311 345.300373,192.900621 C345.300373,186.068323 348.623354,181.782609 353.716522,181.782609 C358.064348,181.782609 360.735155,184.391304 361.294161,187.962733 L368.592298,187.962733 Z M371.625093,209.888199 L379.358012,209.888199 L379.358012,190.416149 C379.358012,185.447205 382.525714,182.093168 387.277267,182.093168 C391.935652,182.093168 394.544348,184.826087 394.544348,189.670807 L394.544348,209.888199 L402.277267,209.888199 L402.277267,188.149068 C402.277267,180.291925 397.680994,175.540373 390.165466,175.540373 C384.948074,175.540373 381.221366,177.714286 379.202733,181.84472 L379.047453,181.84472 L379.047453,175.944099 L371.625093,175.944099 L371.625093,209.888199 Z M409.098882,168.36646 L409.098882,175.944099 L404.471553,175.944099 L404.471553,181.937888 L409.098882,181.937888 L409.098882,200.881988 C409.098882,207.434783 411.956025,210.043478 419.160994,210.043478 C420.806956,210.043478 422.390807,209.919255 423.229317,209.732919 L423.229317,203.801242 C422.732422,203.863354 421.676522,203.956522 420.93118,203.956522 C418.136149,203.956522 416.831801,202.621118 416.831801,199.826087 L416.831801,181.937888 L423.260373,181.937888 L423.260373,175.944099 L416.831801,175.944099 L416.831801,168.36646 L409.098882,168.36646 Z" id="Inceptor-clicnt" fill="#B3C2D5"></path>
                    <path d="M50.1180124,324.372671 L50.1180124,279.559006 L42.1055901,279.559006 L42.1055901,324.372671 L50.1180124,324.372671 Z M55.5731677,324.372671 L63.3060869,324.372671 L63.3060869,304.900621 C63.3060869,299.931677 66.4737888,296.57764 71.2253416,296.57764 C75.8837267,296.57764 78.4924224,299.310559 78.4924224,304.15528 L78.4924224,324.372671 L86.2253416,324.372671 L86.2253416,302.63354 C86.2253416,294.776398 81.6290683,290.024845 74.1135404,290.024845 C68.8961491,290.024845 65.169441,292.198758 63.1508074,296.329193 L62.9955279,296.329193 L62.9955279,290.428571 L55.5731677,290.428571 L55.5731677,324.372671 Z M120.59354,302.447205 C120.06559,295.459627 114.506584,289.962733 105.624596,289.962733 C95.8109317,289.962733 89.444472,296.763975 89.444472,307.385093 C89.444472,318.223602 95.8419876,324.869565 105.686708,324.869565 C114.164969,324.869565 119.972422,319.993789 120.624596,312.571429 L113.32646,312.571429 C112.612174,316.42236 109.879255,318.565217 105.74882,318.565217 C100.655652,318.565217 97.3016149,314.434783 97.3016149,307.385093 C97.3016149,300.552795 100.624596,296.267081 105.717764,296.267081 C110.06559,296.267081 112.736398,298.875776 113.295404,302.447205 L120.59354,302.447205 Z M138.160497,295.987578 C133.626335,295.987578 130.33441,299.279503 129.992795,304.124224 L146.079752,304.124224 C145.924472,299.217391 142.75677,295.987578 138.160497,295.987578 Z M146.110807,314.279503 L153.377888,314.279503 C152.384099,320.552795 146.359255,324.869565 138.44,324.869565 C128.408944,324.869565 122.197764,318.223602 122.197764,307.540373 C122.197764,296.857143 128.44,289.962733 138.160497,289.962733 C147.663602,289.962733 153.688447,296.453416 153.688447,306.732919 L153.688447,309.279503 L129.930683,309.279503 L129.930683,309.745342 C129.930683,315.21118 133.408944,318.84472 138.595279,318.84472 C142.321988,318.84472 145.210186,317.074534 146.110807,314.279503 Z M175.510062,290.055901 C184.143602,290.055901 189.640497,296.763975 189.640497,307.416149 C189.640497,318.037267 184.174658,324.745342 175.634286,324.745342 C170.758509,324.745342 166.938634,322.540373 164.982112,318.751553 L164.826832,318.751553 L164.826832,335.273292 L157.093913,335.273292 L157.093913,290.428571 L164.640497,290.428571 L164.640497,296.142857 L164.795776,296.142857 C166.65913,292.416149 170.758509,290.055901 175.510062,290.055901 Z M173.242981,318.31677 C178.367205,318.31677 181.721242,314.062112 181.721242,307.416149 C181.721242,300.801242 178.367205,296.484472 173.242981,296.484472 C168.18087,296.484472 164.795776,300.89441 164.795776,307.416149 C164.795776,313.968944 168.18087,318.31677 173.242981,318.31677 Z M195.219876,282.850932 L195.219876,290.428571 L190.592547,290.428571 L190.592547,296.42236 L195.219876,296.42236 L195.219876,315.36646 C195.219876,321.919255 198.077019,324.52795 205.281988,324.52795 C206.92795,324.52795 208.511801,324.403727 209.350311,324.217391 L209.350311,318.285714 C208.853416,318.347826 207.797515,318.440994 207.052174,318.440994 C204.257143,318.440994 202.952795,317.10559 202.952795,314.310559 L202.952795,296.42236 L209.381366,296.42236 L209.381366,290.428571 L202.952795,290.428571 L202.952795,282.850932 L195.219876,282.850932 Z M227.35205,324.869565 C217.35205,324.869565 211.016646,318.223602 211.016646,307.385093 C211.016646,296.670807 217.414161,289.962733 227.35205,289.962733 C237.35205,289.962733 243.718509,296.639752 243.718509,307.385093 C243.718509,318.223602 237.414161,324.869565 227.35205,324.869565 Z M227.35205,318.689441 C232.693665,318.689441 235.861366,314.52795 235.861366,307.416149 C235.861366,300.304348 232.662609,296.142857 227.35205,296.142857 C222.072547,296.142857 218.873789,300.335404 218.873789,307.416149 C218.873789,314.52795 222.072547,318.689441 227.35205,318.689441 Z M247.092919,324.372671 L254.825838,324.372671 L254.825838,304.68323 C254.825838,299.900621 257.558758,296.950311 262.092919,296.950311 C263.14882,296.950311 264.546335,297.136646 265.167453,297.416149 L265.167453,290.36646 C264.608447,290.180124 263.614658,290.055901 262.807205,290.055901 C258.800994,290.055901 255.757515,292.354037 254.670559,296.329193 L254.515279,296.329193 L254.515279,290.428571 L247.092919,290.428571 L247.092919,324.372671 Z M309.090186,317.602484 L288.748571,317.602484 L288.748571,279.559006 L280.736149,279.559006 L280.736149,324.372671 L309.090186,324.372671 L309.090186,317.602484 Z M321.067081,324.372671 L321.067081,279.559006 L313.054658,279.559006 L313.054658,324.372671 L321.067081,324.372671 Z M345.28,324.745342 C340.311056,324.745342 336.49118,322.509317 334.503602,318.596273 L334.317267,318.596273 L334.317267,324.372671 L326.770683,324.372671 L326.770683,277.478261 L334.503602,277.478261 L334.503602,296.142857 L334.689938,296.142857 C336.64646,292.291925 340.497391,290.055901 345.311056,290.055901 C353.851428,290.055901 359.348323,296.763975 359.348323,307.416149 C359.348323,318.037267 353.882484,324.745342 345.28,324.745342 Z M342.981863,296.484472 C337.888696,296.484472 334.472547,300.89441 334.472547,307.416149 C334.472547,313.968944 337.888696,318.31677 342.981863,318.31677 C348.106087,318.31677 351.429068,314.062112 351.429068,307.416149 C351.429068,300.770186 348.075031,296.484472 342.981863,296.484472 Z M362.722733,324.372671 L370.455652,324.372671 L370.455652,304.68323 C370.455652,299.900621 373.188571,296.950311 377.722733,296.950311 C378.778633,296.950311 380.176149,297.136646 380.797267,297.416149 L380.797267,290.36646 C380.238261,290.180124 379.244472,290.055901 378.437019,290.055901 C374.430807,290.055901 371.387329,292.354037 370.300373,296.329193 L370.145093,296.329193 L370.145093,290.428571 L362.722733,290.428571 L362.722733,324.372671 Z M395.227578,318.813665 C399.917019,318.813665 403.488447,315.89441 403.488447,311.763975 L403.488447,309.186335 L395.724472,309.68323 C391.500869,309.962733 389.264845,311.57764 389.264845,314.341615 C389.264845,317.074534 391.625093,318.813665 395.227578,318.813665 Z M392.960497,324.745342 C386.283478,324.745342 381.500869,320.677019 381.500869,314.652174 C381.500869,308.596273 386.128199,305.149068 394.668571,304.621118 L403.488447,304.093168 L403.488447,301.608696 C403.488447,298.006211 401.066087,296.049689 396.904596,296.049689 C393.395279,296.049689 390.879751,297.881988 390.351801,300.614907 L383.208944,300.614907 C383.395279,294.403727 389.171677,289.962733 397.153043,289.962733 C405.631304,289.962733 411.128199,294.372671 411.128199,301.111801 L411.128199,324.372671 L403.705838,324.372671 L403.705838,318.906832 L403.519503,318.906832 C401.656149,322.540373 397.463602,324.745342 392.960497,324.745342 Z M415.838012,324.372671 L415.838012,290.428571 L423.260373,290.428571 L423.260373,296.329193 L423.415652,296.329193 C424.502609,292.354037 427.546087,290.055901 431.552298,290.055901 C432.359751,290.055901 433.35354,290.180124 433.912546,290.36646 L433.912546,297.416149 C433.291428,297.136646 431.893913,296.950311 430.838012,296.950311 C426.303851,296.950311 423.570932,299.900621 423.570932,304.68323 L423.570932,324.372671 L415.838012,324.372671 Z M440.175155,336.732919 C439.709317,336.732919 437.597515,336.670807 437.131677,336.57764 L437.131677,330.428571 C437.56646,330.521739 438.746584,330.552795 439.243478,330.552795 C442.535404,330.552795 444.367702,329.279503 445.330435,326.080745 L445.765217,324.496894 L433.62236,290.428571 L442.038509,290.428571 L450.175155,317.695652 L450.330435,317.695652 L458.436025,290.428571 L466.603727,290.428571 L454.30559,325.552795 C451.417391,333.906832 447.783851,336.732919 440.175155,336.732919 Z" id="Inceptor-LIbrary" fill="#40C6F3"></path>
                    <path d="M50.1180124,438.857143 L50.1180124,394.043478 L42.1055901,394.043478 L42.1055901,438.857143 L50.1180124,438.857143 Z M55.5731677,438.857143 L63.3060869,438.857143 L63.3060869,419.385093 C63.3060869,414.416149 66.4737888,411.062112 71.2253416,411.062112 C75.8837267,411.062112 78.4924224,413.795031 78.4924224,418.639752 L78.4924224,438.857143 L86.2253416,438.857143 L86.2253416,417.118012 C86.2253416,409.26087 81.6290683,404.509317 74.1135404,404.509317 C68.8961491,404.509317 65.169441,406.68323 63.1508074,410.813665 L62.9955279,410.813665 L62.9955279,404.913043 L55.5731677,404.913043 L55.5731677,438.857143 Z M120.59354,416.931677 C120.06559,409.944099 114.506584,404.447205 105.624596,404.447205 C95.8109317,404.447205 89.444472,411.248447 89.444472,421.869565 C89.444472,432.708075 95.8419876,439.354037 105.686708,439.354037 C114.164969,439.354037 119.972422,434.478261 120.624596,427.055901 L113.32646,427.055901 C112.612174,430.906832 109.879255,433.049689 105.74882,433.049689 C100.655652,433.049689 97.3016149,428.919255 97.3016149,421.869565 C97.3016149,415.037267 100.624596,410.751553 105.717764,410.751553 C110.06559,410.751553 112.736398,413.360248 113.295404,416.931677 L120.59354,416.931677 Z M138.160497,410.47205 C133.626335,410.47205 130.33441,413.763975 129.992795,418.608696 L146.079752,418.608696 C145.924472,413.701863 142.75677,410.47205 138.160497,410.47205 Z M146.110807,428.763975 L153.377888,428.763975 C152.384099,435.037267 146.359255,439.354037 138.44,439.354037 C128.408944,439.354037 122.197764,432.708075 122.197764,422.024845 C122.197764,411.341615 128.44,404.447205 138.160497,404.447205 C147.663602,404.447205 153.688447,410.937888 153.688447,421.217391 L153.688447,423.763975 L129.930683,423.763975 L129.930683,424.229814 C129.930683,429.695652 133.408944,433.329193 138.595279,433.329193 C142.321988,433.329193 145.210186,431.559006 146.110807,428.763975 Z M175.510062,404.540373 C184.143602,404.540373 189.640497,411.248447 189.640497,421.900621 C189.640497,432.521739 184.174658,439.229814 175.634286,439.229814 C170.758509,439.229814 166.938634,437.024845 164.982112,433.236025 L164.826832,433.236025 L164.826832,449.757764 L157.093913,449.757764 L157.093913,404.913043 L164.640497,404.913043 L164.640497,410.627329 L164.795776,410.627329 C166.65913,406.900621 170.758509,404.540373 175.510062,404.540373 Z M173.242981,432.801242 C178.367205,432.801242 181.721242,428.546584 181.721242,421.900621 C181.721242,415.285714 178.367205,410.968944 173.242981,410.968944 C168.18087,410.968944 164.795776,415.378882 164.795776,421.900621 C164.795776,428.453416 168.18087,432.801242 173.242981,432.801242 Z M195.219876,397.335404 L195.219876,404.913043 L190.592547,404.913043 L190.592547,410.906832 L195.219876,410.906832 L195.219876,429.850932 C195.219876,436.403727 198.077019,439.012422 205.281988,439.012422 C206.92795,439.012422 208.511801,438.888199 209.350311,438.701863 L209.350311,432.770186 C208.853416,432.832298 207.797515,432.925466 207.052174,432.925466 C204.257143,432.925466 202.952795,431.590062 202.952795,428.795031 L202.952795,410.906832 L209.381366,410.906832 L209.381366,404.913043 L202.952795,404.913043 L202.952795,397.335404 L195.219876,397.335404 Z M227.35205,439.354037 C217.35205,439.354037 211.016646,432.708075 211.016646,421.869565 C211.016646,411.15528 217.414161,404.447205 227.35205,404.447205 C237.35205,404.447205 243.718509,411.124224 243.718509,421.869565 C243.718509,432.708075 237.414161,439.354037 227.35205,439.354037 Z M227.35205,433.173913 C232.693665,433.173913 235.861366,429.012422 235.861366,421.900621 C235.861366,414.78882 232.662609,410.627329 227.35205,410.627329 C222.072547,410.627329 218.873789,414.819876 218.873789,421.900621 C218.873789,429.012422 222.072547,433.173913 227.35205,433.173913 Z M247.092919,438.857143 L254.825838,438.857143 L254.825838,419.167702 C254.825838,414.385093 257.558758,411.434783 262.092919,411.434783 C263.14882,411.434783 264.546335,411.621118 265.167453,411.900621 L265.167453,404.850932 C264.608447,404.664596 263.614658,404.540373 262.807205,404.540373 C258.800994,404.540373 255.757515,406.838509 254.670559,410.813665 L254.515279,410.813665 L254.515279,404.913043 L247.092919,404.913043 L247.092919,438.857143 Z M309.804472,416.931677 C309.276522,409.944099 303.717515,404.447205 294.835528,404.447205 C285.021863,404.447205 278.655404,411.248447 278.655404,421.869565 C278.655404,432.708075 285.052919,439.354037 294.89764,439.354037 C303.375901,439.354037 309.183354,434.478261 309.835528,427.055901 L302.537391,427.055901 C301.823106,430.906832 299.090186,433.049689 294.959751,433.049689 C289.866584,433.049689 286.512547,428.919255 286.512547,421.869565 C286.512547,415.037267 289.835528,410.751553 294.928696,410.751553 C299.276522,410.751553 301.947329,413.360248 302.506335,416.931677 L309.804472,416.931677 Z M312.837267,438.857143 L320.570186,438.857143 L320.570186,419.385093 C320.570186,414.416149 323.737888,411.062112 328.489441,411.062112 C333.147826,411.062112 335.756522,413.795031 335.756522,418.639752 L335.756522,438.857143 L343.489441,438.857143 L343.489441,417.118012 C343.489441,409.26087 338.893168,404.509317 331.37764,404.509317 C326.160248,404.509317 322.43354,406.68323 320.414907,410.813665 L320.259627,410.813665 L320.259627,404.913043 L312.837267,404.913043 L312.837267,438.857143 Z M363.012919,432.490683 C368.168199,432.490683 371.553292,428.329193 371.553292,421.807453 C371.553292,415.285714 368.168199,410.968944 363.012919,410.968944 C357.919751,410.968944 354.627826,415.192547 354.627826,421.807453 C354.627826,428.391304 357.919751,432.490683 363.012919,432.490683 Z M363.012919,451.15528 C354.534658,451.15528 348.540869,447.335404 347.950807,441.403727 L355.683727,441.403727 C356.335901,443.857143 359.379379,445.378882 363.261366,445.378882 C368.292422,445.378882 371.553292,442.801242 371.553292,438.608696 L371.553292,432.832298 L371.366956,432.832298 C369.565714,436.465839 365.590559,438.732919 360.714783,438.732919 C352.329689,438.732919 346.708571,432.149068 346.708571,421.776398 C346.708571,411.248447 352.236522,404.540373 360.870062,404.540373 C365.714783,404.540373 369.59677,406.869565 371.553292,410.627329 L371.708571,410.627329 L371.708571,404.913043 L379.286211,404.913043 L379.286211,438.018634 C379.286211,446.124224 372.981863,451.15528 363.012919,451.15528 Z M384.306584,438.857143 L392.039503,438.857143 L392.039503,404.913043 L384.306584,404.913043 L384.306584,438.857143 Z M388.157515,400.596273 C390.579876,400.596273 392.505342,398.732919 392.505342,396.341615 C392.505342,393.919255 390.579876,392.086957 388.157515,392.086957 C385.766211,392.086957 383.809689,393.919255 383.809689,396.341615 C383.809689,398.732919 385.766211,400.596273 388.157515,400.596273 Z M397.059876,438.857143 L404.792795,438.857143 L404.792795,419.385093 C404.792795,414.416149 407.960497,411.062112 412.71205,411.062112 C417.370435,411.062112 419.97913,413.795031 419.97913,418.639752 L419.97913,438.857143 L427.71205,438.857143 L427.71205,417.118012 C427.71205,409.26087 423.115776,404.509317 415.600248,404.509317 C410.382857,404.509317 406.656149,406.68323 404.637515,410.813665 L404.482236,410.813665 L404.482236,404.913043 L397.059876,404.913043 L397.059876,438.857143 Z M462.080248,416.931677 C461.552298,409.944099 455.993292,404.447205 447.111304,404.447205 C437.29764,404.447205 430.93118,411.248447 430.93118,421.869565 C430.93118,432.708075 437.328696,439.354037 447.173416,439.354037 C455.651677,439.354037 461.45913,434.478261 462.111304,427.055901 L454.813168,427.055901 C454.098882,430.906832 451.365963,433.049689 447.235528,433.049689 C442.14236,433.049689 438.788323,428.919255 438.788323,421.869565 C438.788323,415.037267 442.111304,410.751553 447.204472,410.751553 C451.552298,410.751553 454.223105,413.360248 454.782112,416.931677 L462.080248,416.931677 Z" id="Inceptor-cnginc" fill="#B3C2D5"></path>
                </g>
                <path d="M1017.63975,483.378882 C928.596273,381.614907 881.954451,330.732919 877.714286,330.732919 C873.47412,330.732919 822.592133,330.732919 725.068323,330.732919 L725.068323,597.863354 L1017.63975,597.863354 L1017.63975,483.378882 Z" id="Path-46" fill="url(#linearGradient-2)" opacity="0.2"></path>
                <g id="Group-33" transform="translate(725.068323, 197.167702)">
                    <path d="M195.012629,223.314128 L226.494252,191.832504 L291.706187,257.044439 C300.399597,265.737849 300.399597,279.832652 291.706187,288.526063 C283.012777,297.219473 268.917974,297.219473 260.224563,288.526063 L195.012629,223.314128 Z" id="Rectangle-11" fill="#475A7A" fill-rule="nonzero"></path>
                    <path d="M133.565217,241.689441 C193.280577,241.689441 241.689441,193.280577 241.689441,133.565217 C241.689441,73.8498576 193.280577,25.4409938 133.565217,25.4409938 C73.8498576,25.4409938 25.4409938,73.8498576 25.4409938,133.565217 C25.4409938,193.280577 73.8498576,241.689441 133.565217,241.689441 Z M133.565217,267.130435 C59.7991847,267.130435 0,207.33125 0,133.565217 C0,59.7991847 59.7991847,0 133.565217,0 C207.33125,0 267.130435,59.7991847 267.130435,133.565217 C267.130435,207.33125 207.33125,267.130435 133.565217,267.130435 Z" id="Oval-9" fill="#4090F2" fill-rule="nonzero"></path>
                    <path d="M133.565217,241.689441 C193.280577,241.689441 241.689441,193.280577 241.689441,133.565217 C241.689441,73.8498576 193.280577,25.4409938 133.565217,25.4409938 C73.8498576,25.4409938 25.4409938,73.8498576 25.4409938,133.565217 C25.4409938,193.280577 73.8498576,241.689441 133.565217,241.689441 Z" id="Path" fill="#FFFFFF"></path>
                </g>
            </g>
        </g>
    </g>
</svg>