<?xml version="1.0" encoding="UTF-8" standalone="no"?>
<svg width="1024px" height="1024px" viewBox="0 0 1024 1024" version="1.1" xmlns="http://www.w3.org/2000/svg" xmlns:xlink="http://www.w3.org/1999/xlink">
    <!-- Generator: Sketch 46.2 (44496) - http://www.bohemiancoding.com/sketch -->
    <title>信息检索</title>
    <desc>Created with Sketch.</desc>
    <defs></defs>
    <g id="Page-1" stroke="none" stroke-width="1" fill="none" fill-rule="evenodd">
        <g id="信息检索">
            <g id="Group" transform="translate(14.000000, 30.000000)">
                <rect id="Rectangle-25" fill="#E3ECF6" x="98.4615385" y="492.307692" width="98.4615385" height="98.4615385"></rect>
                <rect id="Rectangle-26" fill="#E3ECF6" x="226.461538" y="492.307692" width="393.846154" height="29.5384615"></rect>
                <rect id="Rectangle-26-Copy" fill="#E3ECF6" x="226.461538" y="561.230769" width="551.384615" height="29.5384615"></rect>
                <rect id="Rectangle-25-Copy" fill="#E3ECF6" x="98.4615385" y="679.384615" width="98.4615385" height="98.4615385"></rect>
                <rect id="Rectangle-26-Copy-2" fill="#E3ECF6" x="226.461538" y="679.384615" width="393.846154" height="29.5384615"></rect>
                <rect id="Rectangle-26-Copy-3" fill="#E3ECF6" x="226.461538" y="748.307692" width="551.384615" height="29.5384615"></rect>
                <path d="M118.153846,305.230769 L758.153846,305.230769 L758.153846,246.153846 L118.153846,246.153846 L118.153846,305.230769 Z M98.4615385,226.461538 L777.846154,226.461538 L777.846154,324.923077 L98.4615385,324.923077 L98.4615385,226.461538 Z" id="Rectangle-23" fill="#176EDA" fill-rule="nonzero"></path>
                <rect id="Rectangle-24" fill="#176EDA" x="620.307692" y="226.461538" width="157.538462" height="98.4615385"></rect>
                <path d="M29.5384615,29.5384615 L29.5384615,935.384615 L856.615385,935.384615 L856.615385,29.5384615 L29.5384615,29.5384615 Z M0,0 L886.153846,0 L886.153846,964.923077 L0,964.923077 L0,0 Z" id="Rectangle-27" fill="#176EDA" fill-rule="nonzero"></path>
                <rect id="Rectangle-29" fill="#FFFFFF" x="29.5384615" y="9.84615385" width="216.615385" height="49.2307692"></rect>
                <path d="M4.53846154,0 L876.307692,0 L876.307692,68.9230769 L4.53846154,68.9230769 L4.53846154,0 Z M54.1538462,49.2307692 C62.3106671,49.2307692 68.9230769,42.6183594 68.9230769,34.4615385 C68.9230769,26.3047175 62.3106671,19.6923077 54.1538462,19.6923077 C45.9970252,19.6923077 39.3846154,26.3047175 39.3846154,34.4615385 C39.3846154,42.6183594 45.9970252,49.2307692 54.1538462,49.2307692 Z M113.230769,49.2307692 C121.38759,49.2307692 128,42.6183594 128,34.4615385 C128,26.3047175 121.38759,19.6923077 113.230769,19.6923077 C105.073948,19.6923077 98.4615385,26.3047175 98.4615385,34.4615385 C98.4615385,42.6183594 105.073948,49.2307692 113.230769,49.2307692 Z M172.307692,49.2307692 C180.464513,49.2307692 187.076923,42.6183594 187.076923,34.4615385 C187.076923,26.3047175 180.464513,19.6923077 172.307692,19.6923077 C164.150871,19.6923077 157.538462,26.3047175 157.538462,34.4615385 C157.538462,42.6183594 164.150871,49.2307692 172.307692,49.2307692 Z" id="Combined-Shape" fill="#176EDA"></path>
                <path d="M913.351967,643.153528 L913.351967,745.39656 C913.351967,753.553381 919.964377,760.165791 928.121198,760.165791 C936.278019,760.165791 942.890429,753.553381 942.890429,745.39656 L942.890429,643.153528 L913.351967,643.153528 Z M883.813506,613.615066 L972.42889,613.615066 L972.42889,745.39656 C972.42889,769.867023 952.591661,789.704253 928.121198,789.704253 C903.650735,789.704253 883.813506,769.867023 883.813506,745.39656 L883.813506,613.615066 Z" id="Rectangle-11" fill="#176EDA" fill-rule="nonzero" transform="translate(928.121198, 701.659659) rotate(-45.000000) translate(-928.121198, -701.659659) "></path>
                <circle id="Oval" fill="#FFFFFF" cx="768" cy="541.538462" r="157.538462"></circle>
                <path d="M768,689.230769 C849.568209,689.230769 915.692308,623.106671 915.692308,541.538462 C915.692308,459.970252 849.568209,393.846154 768,393.846154 C686.431791,393.846154 620.307692,459.970252 620.307692,541.538462 C620.307692,623.106671 686.431791,689.230769 768,689.230769 Z M768,718.769231 C670.118149,718.769231 590.769231,639.420313 590.769231,541.538462 C590.769231,443.65661 670.118149,364.307692 768,364.307692 C865.881851,364.307692 945.230769,443.65661 945.230769,541.538462 C945.230769,639.420313 865.881851,718.769231 768,718.769231 Z" id="Oval-9" fill="#176EDA" fill-rule="nonzero"></path>
                <path d="M654.769231,541.538462 C654.769231,604.074089 705.464373,654.769231 768,654.769231 L768,625.230769 C721.778015,625.230769 684.307692,587.760447 684.307692,541.538462 L654.769231,541.538462 Z" id="Oval-9" fill="#176EDA" fill-rule="nonzero"></path>
            </g>
        </g>
    </g>
</svg>