<?xml version="1.0" encoding="UTF-8" standalone="no"?>
<svg width="1024px" height="1024px" viewBox="0 0 1024 1024" version="1.1" xmlns="http://www.w3.org/2000/svg" xmlns:xlink="http://www.w3.org/1999/xlink">
    <!-- Generator: Sketch 46.2 (44496) - http://www.bohemiancoding.com/sketch -->
    <title>实时计算</title>
    <desc>Created with Sketch.</desc>
    <defs></defs>
    <g id="Page-1" stroke="none" stroke-width="1" fill="none" fill-rule="evenodd">
        <g id="实时计算">
            <g id="Group" transform="translate(22.000000, 0.000000)">
                <path d="M507.547826,26.7130435 L507.547826,62.3304348 L534.26087,62.3304348 L534.26087,0 L445.217391,0 L445.217391,62.3304348 L471.930435,62.3304348 L471.930435,26.7130435 L507.547826,26.7130435 Z M507.547826,26.7130435 L507.547826,62.3304348 L534.26087,62.3304348 L534.26087,0 L445.217391,0 L445.217391,62.3304348 L471.930435,62.3304348 L471.930435,26.7130435 L507.547826,26.7130435 Z" id="Rectangle-12" fill="#176EDA" fill-rule="nonzero"></path>
                <polygon id="Path-7" fill="#176EDA" fill-rule="nonzero" points="480.834783 71.2347826 480.834783 1006.57284 498.643478 1006.57284 498.643478 71.2347826"></polygon>
                <polygon id="Path-8" fill="#176EDA" fill-rule="nonzero" points="17.8086957 534.26087 961.669565 534.26087 961.669565 516.452174 17.8086957 516.452174"></polygon>
                <polygon id="Path-8" fill="#D6E3F2" fill-rule="nonzero" points="76.5832112 297.102696 893.990702 769.033131 902.89505 753.610348 85.487559 281.679913"></polygon>
                <polygon id="Path-8" fill="#D6E3F2" fill-rule="nonzero" points="246.062522 121.10495 717.992956 938.512441 733.415739 929.608093 261.485304 112.200602"></polygon>
                <polygon id="Path-8" fill="#D6E3F2" fill-rule="nonzero" points="717.992956 112.200602 246.062522 929.608093 261.485304 938.512441 733.415739 121.10495"></polygon>
                <polygon id="Path-8" fill="#D6E3F2" fill-rule="nonzero" points="893.990702 281.679913 76.5832112 753.610348 85.487559 769.033131 902.89505 297.102696"></polygon>
                <path d="M800.110066,161.185893 C713.567171,89.1118428 604.723111,48.973913 489.73913,48.973913 C221.722545,48.973913 4.45217391,266.244284 4.45217391,534.26087 C4.45217391,649.519232 44.7827434,758.604898 117.170119,845.238343 L137.669189,828.110156 C69.2600781,746.237911 31.1652174,643.199364 31.1652174,534.26087 C31.1652174,280.997491 236.475752,75.6869565 489.73913,75.6869565 C598.418371,75.6869565 701.228609,113.599821 783.015096,181.712673 L800.110066,161.185893 Z M182.01186,909.521826 C268.152713,980.240913 375.946509,1019.54783 489.73913,1019.54783 C757.755716,1019.54783 975.026087,802.277455 975.026087,534.26087 C975.026087,420.369862 935.65088,312.489256 864.820234,226.314656 L844.183577,243.276821 C911.120753,324.714515 948.313043,426.614342 948.313043,534.26087 C948.313043,787.524248 743.002509,992.834783 489.73913,992.834783 C382.185566,992.834783 280.367766,955.707012 198.962032,888.875316 L182.01186,909.521826 Z" id="Oval-5" fill="#176EDA" fill-rule="nonzero"></path>
                <circle id="Oval" stroke="#979797" fill="#FFFFFF" cx="489.73913" cy="534.26087" r="400.695652"></circle>
                <path d="M489.73913,943.86087 C263.523297,943.86087 80.1391304,760.476703 80.1391304,534.26087 C80.1391304,308.045036 263.523297,124.66087 489.73913,124.66087 C715.954964,124.66087 899.33913,308.045036 899.33913,534.26087 C899.33913,760.476703 715.954964,943.86087 489.73913,943.86087 Z M489.73913,926.052174 C706.119493,926.052174 881.530435,750.641232 881.530435,534.26087 C881.530435,317.880507 706.119493,142.469565 489.73913,142.469565 C273.358768,142.469565 97.9478261,317.880507 97.9478261,534.26087 C97.9478261,750.641232 273.358768,926.052174 489.73913,926.052174 Z" id="Oval-5" fill="#D6E3F2" fill-rule="nonzero"></path>
                <polygon id="Path-6" fill="#176EDA" points="828.104348 262.678261 828.104348 209.252174 881.530435 209.252174"></polygon>
                <polygon id="Path-6-Copy" fill="#176EDA" transform="translate(115.756522, 823.652174) scale(-1, -1) translate(-115.756522, -823.652174) " points="89.0434783 850.365217 89.0434783 796.93913 142.469565 796.93913"></polygon>
                <polygon id="Path-9" fill="#176EDA" fill-rule="nonzero" points="582.154504 467.478261 658.921739 467.478261 658.921739 440.765217 593.219409 440.765217 495.271583 342.817391 329.46087 342.817391 329.46087 369.530435 484.206678 369.530435"></polygon>
                <polygon id="Path-10" fill="#176EDA" fill-rule="nonzero" points="302.747826 534.26087 445.217391 534.26087 445.217391 507.547826 302.747826 507.547826"></polygon>
                <polygon id="Path-11" fill="#176EDA" fill-rule="nonzero" points="712.347826 601.043478 712.347826 574.330435 528.728417 574.330435 412.971895 690.086957 302.747826 690.086957 302.747826 716.8 424.0368 716.8 539.793322 601.043478"></polygon>
                <circle id="Oval-6" fill="#176EDA" cx="712.347826" cy="587.686957" r="35.6173913"></circle>
                <circle id="Oval-6-Copy" fill="#176EDA" cx="658.921739" cy="454.121739" r="35.6173913"></circle>
                <circle id="Oval-6-Copy-2" fill="#176EDA" cx="329.46087" cy="356.173913" r="35.6173913"></circle>
                <circle id="Oval-6-Copy-3" fill="#176EDA" cx="293.843478" cy="516.452174" r="35.6173913"></circle>
                <circle id="Oval-6-Copy-4" fill="#176EDA" cx="436.313043" cy="516.452174" r="35.6173913"></circle>
                <circle id="Oval-6-Copy-5" fill="#176EDA" cx="302.747826" cy="703.443478" r="35.6173913"></circle>
                <circle id="Oval-2" fill="#FFFFFF" cx="534.26087" cy="587.686957" r="26.7130435"></circle>
                <path d="M534.26087,605.495652 C544.096341,605.495652 552.069565,597.522428 552.069565,587.686957 C552.069565,577.851486 544.096341,569.878261 534.26087,569.878261 C524.425399,569.878261 516.452174,577.851486 516.452174,587.686957 C516.452174,597.522428 524.425399,605.495652 534.26087,605.495652 Z M534.26087,632.208696 C509.672192,632.208696 489.73913,612.275634 489.73913,587.686957 C489.73913,563.098279 509.672192,543.165217 534.26087,543.165217 C558.849547,543.165217 578.782609,563.098279 578.782609,587.686957 C578.782609,612.275634 558.849547,632.208696 534.26087,632.208696 Z" id="Oval-6-Copy-6" fill="#176EDA" fill-rule="nonzero"></path>
            </g>
        </g>
    </g>
</svg>