<?xml version="1.0" encoding="UTF-8" standalone="no"?>
<svg width="1024px" height="1024px" viewBox="0 0 1024 1024" version="1.1" xmlns="http://www.w3.org/2000/svg" xmlns:xlink="http://www.w3.org/1999/xlink">
    <!-- Generator: Sketch 46.2 (44496) - http://www.bohemiancoding.com/sketch -->
    <title>关系数据库</title>
    <desc>Created with Sketch.</desc>
    <defs></defs>
    <g id="Page-1" stroke="none" stroke-width="1" fill="none" fill-rule="evenodd">
        <g id="关系数据库">
            <g id="Group" transform="translate(22.000000, 4.000000)">
                <path d="M472.070175,790.947368 L310.385965,790.947368 C268.21854,790.947368 234.035088,756.763916 234.035088,714.596491 L234.035088,633.754386 L207.087719,633.754386 L207.087719,714.596491 C207.087719,771.646537 253.335919,817.894737 310.385965,817.894737 L472.070175,817.894737 L472.070175,790.947368 Z M490.035088,269.964912 L669.684211,269.964912 C711.851636,269.964912 746.035088,304.148364 746.035088,346.315789 L746.035088,373.263158 L772.982456,373.263158 L772.982456,346.315789 C772.982456,289.265744 726.734256,243.017544 669.684211,243.017544 L490.035088,243.017544 L490.035088,269.964912 Z" id="Rectangle-2" fill="#88B4EC" fill-rule="nonzero"></path>
                <path d="M534.947368,786.45614 C552.912281,810.409357 570.877193,825.380117 588.842105,831.368421 C606.807018,837.356725 651.719298,843.345029 723.578947,849.333333 L804.421053,849.333333 L876.280702,840.350877 L966.105263,795.438596 L966.105263,948.140351 L921.192982,984.070175 L840.350877,993.052632 L759.508772,1011.01754 L642.736842,993.052632 L543.929825,966.105263 L534.947368,930.175439 L534.947368,786.45614 Z" id="Path-2" fill="#E3ECF6"></path>
                <path d="M534.947368,508 C552.912281,531.953216 570.877193,546.923977 588.842105,552.912281 C606.807018,558.900585 651.719298,564.888889 723.578947,570.877193 L804.421053,570.877193 L876.280702,561.894737 L966.105263,516.982456 L966.105263,633.754386 L921.192982,669.684211 L840.350877,678.666667 L759.508772,696.631579 L642.736842,678.666667 L543.929825,651.719298 L534.947368,615.789474 L534.947368,508 Z" id="Path-2-Copy" fill="#E3ECF6"></path>
                <path d="M521.473684,499.017544 L521.473684,939.157895 C521.473684,985.76705 623.445301,1015.50877 750.526316,1015.50877 C877.607331,1015.50877 979.578947,985.76705 979.578947,939.157895 L979.578947,499.017544 L952.631579,499.017544 L952.631579,939.157895 C952.631579,962.000969 861.567231,988.561404 750.526316,988.561404 C639.485401,988.561404 548.421053,962.000969 548.421053,939.157895 L548.421053,499.017544 L521.473684,499.017544 Z" id="Oval-Copy" fill="#176EDA" fill-rule="nonzero"></path>
                <path d="M750.526316,575.368421 C623.445301,575.368421 521.473684,545.6267 521.473684,499.017544 C521.473684,452.408388 623.445301,422.666667 750.526316,422.666667 C877.607331,422.666667 979.578947,452.408388 979.578947,499.017544 C979.578947,545.6267 877.607331,575.368421 750.526316,575.368421 Z M750.526316,548.421053 C861.567231,548.421053 952.631579,521.860618 952.631579,499.017544 C952.631579,476.17447 861.567231,449.614035 750.526316,449.614035 C639.485401,449.614035 548.421053,476.17447 548.421053,499.017544 C548.421053,521.860618 639.485401,548.421053 750.526316,548.421053 Z" id="Oval" fill="#176EDA" fill-rule="nonzero"></path>
                <path d="M521.473684,786.45614 C521.473684,833.065296 623.445301,862.807018 750.526316,862.807018 C877.607331,862.807018 979.578947,833.065296 979.578947,786.45614 L952.631579,786.45614 C952.631579,809.299214 861.567231,835.859649 750.526316,835.859649 C639.485401,835.859649 548.421053,809.299214 548.421053,786.45614 L521.473684,786.45614 Z" id="Oval-Copy-2" fill="#176EDA" fill-rule="nonzero"></path>
                <path d="M521.473684,633.754386 C521.473684,680.363542 623.445301,710.105263 750.526316,710.105263 C877.607331,710.105263 979.578947,680.363542 979.578947,633.754386 L952.631579,633.754386 C952.631579,656.59746 861.567231,683.157895 750.526316,683.157895 C639.485401,683.157895 548.421053,656.59746 548.421053,633.754386 L521.473684,633.754386 Z" id="Oval-Copy-3" fill="#176EDA" fill-rule="nonzero"></path>
                <circle id="Oval-2" fill="#176EDA" cx="894.245614" cy="606.807018" r="17.9649123"></circle>
                <circle id="Oval-2-Copy" fill="#D6E3F2" cx="894.245614" cy="759.508772" r="17.9649123"></circle>
                <circle id="Oval-2-Copy-2" fill="#176EDA" cx="894.245614" cy="903.22807" r="17.9649123"></circle>
                <path d="M13.9649123,364.280702 C31.9298246,388.233918 49.8947368,403.204678 67.8596491,409.192982 C85.8245614,415.181287 130.736842,421.169591 202.596491,427.157895 L283.438596,427.157895 L355.298246,418.175439 L445.122807,373.263158 L445.122807,525.964912 L400.210526,561.894737 L319.368421,570.877193 L238.526316,588.842105 L121.754386,570.877193 L22.9473684,543.929825 L13.9649123,508 L13.9649123,364.280702 Z" id="Path-2" fill="#E3ECF6"></path>
                <path d="M13.9649123,85.8245614 C31.9298246,109.777778 49.8947368,124.748538 67.8596491,130.736842 C85.8245614,136.725146 130.736842,142.71345 202.596491,148.701754 L283.438596,148.701754 L355.298246,139.719298 L445.122807,94.8070175 L445.122807,211.578947 L400.210526,247.508772 L319.368421,256.491228 L238.526316,274.45614 L121.754386,256.491228 L22.9473684,229.54386 L13.9649123,193.614035 L13.9649123,85.8245614 Z" id="Path-2-Copy" fill="#E3ECF6"></path>
                <path d="M0.49122807,76.8421053 L0.49122807,516.982456 C0.49122807,563.591612 102.462845,593.333333 229.54386,593.333333 C356.624875,593.333333 458.596491,563.591612 458.596491,516.982456 L458.596491,76.8421053 L431.649123,76.8421053 L431.649123,516.982456 C431.649123,539.82553 340.584775,566.385965 229.54386,566.385965 C118.502945,566.385965 27.4385965,539.82553 27.4385965,516.982456 L27.4385965,76.8421053 L0.49122807,76.8421053 Z" id="Oval-Copy" fill="#176EDA" fill-rule="nonzero"></path>
                <path d="M229.54386,153.192982 C102.462845,153.192982 0.49122807,123.451261 0.49122807,76.8421053 C0.49122807,30.2329495 102.462845,0.49122807 229.54386,0.49122807 C356.624875,0.49122807 458.596491,30.2329495 458.596491,76.8421053 C458.596491,123.451261 356.624875,153.192982 229.54386,153.192982 Z M229.54386,126.245614 C340.584775,126.245614 431.649123,99.6851791 431.649123,76.8421053 C431.649123,53.9990314 340.584775,27.4385965 229.54386,27.4385965 C118.502945,27.4385965 27.4385965,53.9990314 27.4385965,76.8421053 C27.4385965,99.6851791 118.502945,126.245614 229.54386,126.245614 Z" id="Oval" fill="#176EDA" fill-rule="nonzero"></path>
                <path d="M0.49122807,364.280702 C0.49122807,410.889857 102.462845,440.631579 229.54386,440.631579 C356.624875,440.631579 458.596491,410.889857 458.596491,364.280702 L431.649123,364.280702 C431.649123,387.123776 340.584775,413.684211 229.54386,413.684211 C118.502945,413.684211 27.4385965,387.123776 27.4385965,364.280702 L0.49122807,364.280702 Z" id="Oval-Copy-2" fill="#176EDA" fill-rule="nonzero"></path>
                <path d="M0.49122807,211.578947 C0.49122807,258.188103 102.462845,287.929825 229.54386,287.929825 C356.624875,287.929825 458.596491,258.188103 458.596491,211.578947 L431.649123,211.578947 C431.649123,234.422021 340.584775,260.982456 229.54386,260.982456 C118.502945,260.982456 27.4385965,234.422021 27.4385965,211.578947 L0.49122807,211.578947 Z" id="Oval-Copy-3" fill="#176EDA" fill-rule="nonzero"></path>
                <circle id="Oval-2" fill="#176EDA" cx="373.263158" cy="184.631579" r="17.9649123"></circle>
                <circle id="Oval-2-Copy" fill="#D6E3F2" cx="373.263158" cy="337.333333" r="17.9649123"></circle>
                <circle id="Oval-2-Copy-2" fill="#176EDA" cx="373.263158" cy="481.052632" r="17.9649123"></circle>
            </g>
        </g>
    </g>
</svg>