<svg xmlns="http://www.w3.org/2000/svg" xmlns:xlink="http://www.w3.org/1999/xlink" preserveAspectRatio="xMidYMid" width="17" height="17" viewBox="0 0 17 17">
  <defs>
    <style>
      .cls-1 {
        fill: #c9d1d9;
        fill-rule: evenodd;
      }
    </style>
  </defs>
  <path d="M8.501,17.000 C3.806,17.000 -0.000,13.195 -0.000,8.500 C-0.000,3.805 3.806,0.000 8.501,0.000 C13.195,0.000 17.000,3.805 17.000,8.500 C17.000,13.195 13.195,17.000 8.501,17.000 ZM12.185,9.800 L9.000,8.526 L9.000,4.000 C9.000,3.448 8.552,3.000 8.000,3.000 C7.448,3.000 7.000,3.448 7.000,4.000 L7.000,9.000 C7.000,9.203 7.075,9.381 7.179,9.539 C7.273,9.840 7.491,10.097 7.815,10.200 L11.582,11.707 C12.109,11.874 12.671,11.582 12.837,11.056 C13.004,10.529 12.712,9.967 12.185,9.800 Z" class="cls-1"/>
</svg>
