<?xml version="1.0" encoding="UTF-8" standalone="no"?>
<svg width="1024px" height="1024px" viewBox="0 0 1024 1024" version="1.1" xmlns="http://www.w3.org/2000/svg" xmlns:xlink="http://www.w3.org/1999/xlink">
    <!-- Generator: Sketch 46.2 (44496) - http://www.bohemiancoding.com/sketch -->
    <title>TCC管理中心</title>
    <desc>Created with Sketch.</desc>
    <defs>
        <filter x="-8.6%" y="-26.1%" width="117.1%" height="152.2%" filterUnits="objectBoundingBox" id="filter-1">
            <feGaussianBlur stdDeviation="21.8221507" in="SourceGraphic"></feGaussianBlur>
        </filter>
        <circle id="path-2" cx="35.5029586" cy="35.5029586" r="35.5029586"></circle>
        <filter x="-18.2%" y="-24.2%" width="136.4%" height="148.5%" filterUnits="objectBoundingBox" id="filter-4">
            <feGaussianBlur stdDeviation="21.8221507" in="SourceGraphic"></feGaussianBlur>
        </filter>
        <filter x="-18.2%" y="-24.2%" width="136.4%" height="148.5%" filterUnits="objectBoundingBox" id="filter-5">
            <feGaussianBlur stdDeviation="21.8221507" in="SourceGraphic"></feGaussianBlur>
        </filter>
    </defs>
    <g id="Page-1" stroke="none" stroke-width="1" fill="none" fill-rule="evenodd">
        <g id="TCC管理中心">
            <path d="M11.8343195,124 L934.911243,124 C941.447157,124 946.745562,129.298405 946.745562,135.83432 L946.745562,822.224852 C946.745562,828.760766 941.447157,834.059172 934.911243,834.059172 L11.8343195,834.059172 C5.29840533,834.059172 8.0041864e-16,828.760766 0,822.224852 L0,135.83432 C-8.0041864e-16,129.298405 5.29840533,124 11.8343195,124 Z" id="Rectangle-51" fill="#D7E1E7" fill-rule="nonzero"></path>
            <path d="M11.8343195,129.91716 C8.56636243,129.91716 5.91715976,132.566362 5.91715976,135.83432 L5.91715976,822.224852 C5.91715976,825.492809 8.56636243,828.142012 11.8343195,828.142012 L934.911243,828.142012 C938.1792,828.142012 940.828402,825.492809 940.828402,822.224852 L940.828402,135.83432 C940.828402,132.566362 938.1792,129.91716 934.911243,129.91716 L11.8343195,129.91716 Z" id="Path" fill="#FFFFFF"></path>
            <path d="M11.2527473,124 L934.967033,124 C941.181754,124 946.21978,129.038027 946.21978,135.252747 L946.21978,191.516484 L0,191.516484 L0,135.252747 C-7.61083781e-16,129.038027 5.03802655,124 11.2527473,124 Z M39.3846154,169.010989 C45.5993361,169.010989 50.6373626,163.972962 50.6373626,157.758242 C50.6373626,151.543521 45.5993361,146.505495 39.3846154,146.505495 C33.1698947,146.505495 28.1318681,151.543521 28.1318681,157.758242 C28.1318681,163.972962 33.1698947,169.010989 39.3846154,169.010989 Z M90.021978,169.010989 C96.2366987,169.010989 101.274725,163.972962 101.274725,157.758242 C101.274725,151.543521 96.2366987,146.505495 90.021978,146.505495 C83.8072573,146.505495 78.7692308,151.543521 78.7692308,157.758242 C78.7692308,163.972962 83.8072573,169.010989 90.021978,169.010989 Z M140.659341,169.010989 C146.874061,169.010989 151.912088,163.972962 151.912088,157.758242 C151.912088,151.543521 146.874061,146.505495 140.659341,146.505495 C134.44462,146.505495 129.406593,151.543521 129.406593,157.758242 C129.406593,163.972962 134.44462,169.010989 140.659341,169.010989 Z" id="Combined-Shape" fill="#176EDA"></path>
            <rect id="Rectangle-59" fill="#176EDA" x="53.2544379" y="289.680473" width="82.8402367" height="17.7514793" rx="8.87573964"></rect>
            <rect id="Rectangle-59-Copy" fill="#E9F1F8" x="53.2544379" y="354.769231" width="118.343195" height="17.7514793" rx="8.87573964"></rect>
            <rect id="Rectangle-59-Copy-9" fill="#E9F1F8" x="53.2544379" y="419.857988" width="118.343195" height="17.7514793" rx="8.87573964"></rect>
            <g id="Group-2" transform="translate(218.000000, 260.000000)">
                <rect id="Rectangle" fill="#E1E8EE" opacity="0.747901119" filter="url(#filter-1)" x="10" y="5" width="764" height="251"></rect>
                <rect id="Rectangle-80" fill="#FFFFFF" x="0.934911243" y="0.0946745562" width="781.065089" height="236.686391"></rect>
                <g id="Group-14" transform="translate(533.479290, 124.355030)">
                    <mask id="mask-3" fill="white">
                        <use xlink:href="#path-2"></use>
                    </mask>
                    <use id="Mask" fill="#D8EAF9" xlink:href="#path-2"></use>
                    <path d="M26.8976516,20.1659313 C29.3966541,18.4605959 32.5830154,17.9809704 35.6095258,17.938337 C37.3199305,17.970312 39.1102606,18.1888081 40.596874,19.0414758 C41.1456955,19.3505678 41.593278,19.7928892 41.94495,20.2885023 C43.3889365,20.49634 44.832923,20.9812947 45.9199091,21.9192292 C47.502433,23.2781683 48.2324188,25.2766082 48.4455534,27.2270855 C48.8078821,30.5098561 48.1098665,33.803285 47.1028058,36.9368387 C47.912717,37.5283769 48.3176726,38.5142739 48.2217621,39.4628667 C48.1098665,40.5446888 47.8754185,41.6638151 47.2147014,42.5751037 C46.8683578,43.0653876 46.3195364,43.417113 45.7014462,43.5290257 C45.4563415,45.1810693 44.8702215,46.7798212 44.012355,48.2400146 C43.1758019,49.668233 40.9592027,50.6754467 40.9592027,50.6754467 L40.9592027,53.4039832 C41.4600689,54.7735807 53.923111,58.418735 57.5623832,60.7742295 C59.405997,61.9253308 61.004506,63.4974369 61.8623725,65.4372558 C62.4165223,66.6416489 62.6776121,71.1980918 62.7841794,72.4984101 C44.598475,72.5037392 26.4074422,72.4984101 8.22173778,72.4984101 C8.3496185,70.4733243 8.99435047,65.1867847 10.2891428,63.5453994 C11.2908751,62.2504104 12.6442794,61.2431967 14.0722808,60.3851998 C17.3598811,58.4773559 29.4286243,55.0560269 30.0467144,53.3986541 L30.0467144,50.6701175 C29.2421315,50.4889256 27.7501898,49.7961331 26.8869949,47.9842143 C26.199636,46.5453376 25.538919,45.0904734 25.304471,43.5290257 C24.4039775,43.3798088 23.7485888,42.6923455 23.4075736,41.9356029 C23.0239314,41.1095811 22.8321103,40.2089509 22.7734983,39.3136498 C22.7202147,38.4076904 23.135827,37.4964018 23.9031114,36.9368387 C23.1731256,34.1976438 22.6402892,31.3838404 22.7575132,28.5540496 C22.8321103,26.8060808 23.1784539,25.0367954 23.9936936,23.4487018 C24.6490823,22.159042 25.6508146,21.0026114 26.8976516,20.1659313 Z" id="Shape" fill="#B4CDE2" fill-rule="nonzero" mask="url(#mask-3)"></path>
                </g>
                <path d="M631.56213,143.810651 L631.56213,164.639053 C631.56213,169.04142 632.698225,172.402367 634.970414,174.769231 C637.242604,177.088757 640.60355,178.272189 645.053254,178.272189 C649.502959,178.272189 652.863905,177.088757 655.183432,174.721893 C657.408284,172.402367 658.544379,169.04142 658.544379,164.639053 L658.544379,143.810651 L654.662722,143.810651 L654.662722,164.686391 C654.662722,168 653.905325,170.508876 652.43787,172.213018 C650.828402,173.964497 648.366864,174.863905 645.053254,174.863905 C641.692308,174.863905 639.230769,173.964497 637.668639,172.213018 C636.153846,170.508876 635.443787,168 635.443787,164.686391 L635.443787,143.810651 L631.56213,143.810651 Z M672.224852,152.473373 C669.47929,152.473373 667.2071,153.088757 665.502958,154.319527 C663.656805,155.550296 662.757396,157.159763 662.757396,159.242604 C662.757396,161.325444 663.656805,162.887574 665.550296,164.023669 C666.68639,164.781065 668.721893,165.491124 671.609467,166.201183 C674.260355,166.863905 676.011834,167.384615 676.816568,167.763314 C678.331361,168.52071 679.136095,169.56213 679.136095,170.934911 C679.136095,173.680473 676.911242,175.100592 672.556213,175.100592 C670.473373,175.100592 668.911242,174.721893 667.869822,173.964497 C666.828402,173.112426 666.118343,171.739645 665.834319,169.798817 L662.142012,169.798817 C662.710059,175.431953 666.213018,178.272189 672.650887,178.272189 C679.56213,178.272189 683.017751,175.715976 683.017751,170.698225 C683.017751,168.568047 682.023669,166.911243 680.08284,165.680473 C678.804734,164.87574 676.721893,164.118343 673.786982,163.408284 C671.325444,162.745562 669.621302,162.224852 668.721893,161.798817 C667.301775,161.088757 666.639053,160.189349 666.639053,159.147929 C666.639053,158.059172 667.159763,157.207101 668.201183,156.591716 C669.147929,155.928994 670.473373,155.64497 672.177515,155.64497 C674.118343,155.64497 675.633136,156.023669 676.674556,156.781065 C677.621302,157.443787 678.236686,158.579882 678.568047,160.094675 L682.260355,160.094675 C681.597633,154.982249 678.284024,152.473373 672.224852,152.473373 Z M696.224852,152.473373 C700.153846,152.473373 703.136094,153.798817 705.12426,156.449704 C706.923077,158.816568 707.869822,162.177515 707.964497,166.43787 L688.650887,166.43787 C688.840236,169.183432 689.550296,171.313609 690.875739,172.828402 C692.201183,174.343195 694.047337,175.100592 696.366864,175.100592 C698.355029,175.100592 700.011834,174.579882 701.242603,173.585799 C702.284023,172.733728 703.088757,171.455621 703.704142,169.751479 L707.491124,169.751479 C706.923077,172.118343 705.834319,174.011834 704.177515,175.526627 C702.142012,177.325444 699.538461,178.272189 696.366864,178.272189 C692.863905,178.272189 690.023668,177.088757 687.940828,174.816568 C685.763313,172.449704 684.721893,169.325444 684.721893,165.349112 C684.721893,161.751479 685.715976,158.721893 687.798816,156.307692 C689.881657,153.751479 692.674556,152.473373 696.224852,152.473373 Z M696.319526,155.64497 C694.142012,155.64497 692.390532,156.35503 691.065088,157.775148 C689.739645,159.195266 688.982248,161.088757 688.745562,163.502959 L704.035503,163.502959 C703.56213,158.248521 700.95858,155.64497 696.319526,155.64497 Z M721.834319,152.473373 C720.130177,152.473373 718.662722,152.994083 717.384615,154.035503 C716.343195,154.840237 715.491124,155.976331 714.828402,157.39645 L714.828402,153.136095 L711.088757,153.136095 L711.088757,177.609467 L714.828402,177.609467 L714.828402,164.639053 C714.828402,162.366864 715.443787,160.426036 716.76923,158.816568 C718.047337,157.112426 719.656804,156.307692 721.550295,156.307692 C722.733727,156.307692 723.964497,156.449704 725.195266,156.828402 L725.195266,153.04142 C724.295858,152.662722 723.159763,152.473373 721.834319,152.473373 Z" id="User" fill="#A9B9C6"></path>
                <path d="M64.2485207,46.6035503 L64.2485207,88.852071 L71.1715976,88.852071 L71.1715976,59.739645 L71.408284,59.739645 L83.8343195,88.852071 L89.8106509,88.852071 L102.236686,59.739645 L102.473373,59.739645 L102.473373,88.852071 L109.39645,88.852071 L109.39645,46.6035503 L101.289941,46.6035503 L86.9704142,79.739645 L86.7337278,79.739645 L72.3550296,46.6035503 L64.2485207,46.6035503 Z M112.177515,58.260355 L124.307692,88.1420118 L118.923077,100.568047 L126.142012,100.568047 L142.710059,58.260355 L135.372781,58.260355 L127.621302,80.035503 L119.514793,58.260355 L112.177515,58.260355 Z M178.449704,57.4319527 C182.946746,57.4319527 186.497041,59.0295858 189.100592,62.2248521 C191.467456,65.183432 192.650888,68.9704142 192.650888,73.704142 C192.650888,78.2011834 191.467456,81.9289941 189.159763,84.887574 C186.674556,88.0828402 183.183432,89.6804734 178.804734,89.6804734 C175.254438,89.6804734 172.177515,87.964497 169.692308,84.6508876 L169.692308,100.568047 L162.946746,100.568047 L162.946746,58.260355 L169.218935,58.260355 L169.218935,61.5147929 C171.349112,58.7928994 174.426035,57.4319527 178.449704,57.4319527 Z M177.443787,62.8757396 C174.781065,62.8757396 172.769231,63.8816568 171.349112,66.0118343 C170.047337,67.8461538 169.455621,70.2721893 169.455621,73.3491124 L169.455621,73.8224852 C169.455621,77.0177515 170.224852,79.6213018 171.822485,81.5739645 C173.242604,83.3491124 175.017751,84.2366864 177.207101,84.2366864 C180.16568,84.2366864 182.414201,83.2307692 183.83432,81.3372781 C185.076923,79.5621302 185.727811,77.0177515 185.727811,73.704142 C185.727811,70.3905325 185.136095,67.8461538 184.011834,66.0710059 C182.591716,63.9408284 180.402367,62.8757396 177.443787,62.8757396 Z M211.349112,57.4319527 C209.455621,57.4319527 207.857988,57.964497 206.497041,59.0887574 C205.372781,59.9171598 204.426035,61.1005917 203.597633,62.6390533 L203.597633,58.260355 L196.911243,58.260355 L196.911243,88.852071 L203.597633,88.852071 L203.597633,72.6390533 C203.597633,70.035503 204.366864,67.964497 206.023669,66.3668639 C207.443787,64.9467456 209.04142,64.295858 210.816568,64.295858 C212.236686,64.295858 213.656805,64.4733728 215.195266,64.9467456 L215.195266,58.2011834 C214.130177,57.6686391 212.828402,57.4319527 211.349112,57.4319527 Z M231.585799,57.4319527 C236.201183,57.4319527 239.928994,58.9112426 242.769231,61.9881657 C245.550296,65.0059172 246.970414,68.852071 246.970414,73.5857988 C246.970414,78.260355 245.550296,82.1065089 242.828402,85.0650888 C239.988166,88.1420118 236.201183,89.6804734 231.585799,89.6804734 C226.911243,89.6804734 223.183432,88.1420118 220.343195,85.0650888 C217.56213,82.1065089 216.201183,78.260355 216.201183,73.5857988 C216.201183,68.852071 217.56213,65.0059172 220.402367,61.9881657 C223.183432,58.9112426 226.911243,57.4319527 231.585799,57.4319527 Z M231.585799,62.9349112 C228.745562,62.9349112 226.615385,64 225.076923,66.2485207 C223.775148,68.1420118 223.12426,70.6272189 223.12426,73.5857988 C223.12426,76.5443787 223.775148,78.9704142 225.076923,80.8639053 C226.615385,83.0532544 228.745562,84.1775148 231.585799,84.1775148 C234.366864,84.1775148 236.556213,83.0532544 238.094675,80.8639053 C239.39645,78.9112426 240.106509,76.4852071 240.106509,73.5857988 C240.106509,70.6272189 239.39645,68.1420118 238.094675,66.2485207 C236.556213,64 234.366864,62.9349112 231.585799,62.9349112 Z M255.846154,45.7751479 C254.544379,45.7751479 253.47929,46.1893491 252.650888,47.0177515 C251.704142,47.8461538 251.289941,48.9112426 251.289941,50.2130178 C251.289941,51.5147929 251.704142,52.5798817 252.650888,53.4674556 C253.47929,54.295858 254.544379,54.7100592 255.846154,54.7100592 C257.147929,54.7100592 258.213018,54.295858 259.159763,53.4674556 C259.988166,52.6390533 260.461538,51.5147929 260.461538,50.2130178 C260.461538,48.9112426 259.988166,47.8461538 259.159763,47.0177515 C258.272189,46.1893491 257.147929,45.7751479 255.846154,45.7751479 Z M252.473373,58.260355 L259.218935,58.260355 L259.218935,91.6331361 C259.218935,97.5502959 256.023669,100.568047 249.692308,100.568047 L246.792899,100.568047 L246.792899,95.0650888 L249.100592,95.0650888 C251.349112,95.0650888 252.473373,93.8224852 252.473373,91.3372781 L252.473373,58.260355 Z M278.923077,57.4319527 C283.952663,57.4319527 287.798817,59.0887574 290.461538,62.5207101 C292.887574,65.5976331 294.130177,69.9171598 294.130177,75.4201183 L271.230769,75.4201183 C271.467456,78.260355 272.236686,80.4497041 273.538461,81.9289941 C274.840237,83.408284 276.733728,84.1775148 279.159763,84.1775148 C281.230769,84.1775148 282.887574,83.704142 284.189349,82.7573964 C285.195266,81.9881657 286.08284,80.7455621 286.911243,79.0295858 L293.656805,79.0295858 C292.946746,81.8698225 291.526627,84.295858 289.39645,86.1893491 C286.674556,88.4970414 283.301775,89.6804734 279.218935,89.6804734 C274.662722,89.6804734 271.053254,88.260355 268.390532,85.4792899 C265.550296,82.5798817 264.130177,78.6153846 264.130177,73.5266272 C264.130177,68.9704142 265.431953,65.183432 268.153846,62.1065089 C270.757396,58.9704142 274.366864,57.4319527 278.923077,57.4319527 Z M279.100592,62.9349112 C276.852071,62.9349112 275.136095,63.5266272 273.834319,64.8284024 C272.591716,66.0710059 271.763314,67.9053254 271.349112,70.3313609 L287.088757,70.3313609 C286.497041,65.3609467 283.834319,62.9349112 279.100592,62.9349112 Z M311.526627,57.4319527 C306.733728,57.4319527 303.005917,59.0295858 300.343195,62.2248521 C297.857988,65.1242604 296.615385,68.9112426 296.615385,73.5266272 C296.615385,78.260355 297.857988,82.1065089 300.402367,85.0650888 C303.005917,88.1420118 306.674556,89.6804734 311.408284,89.6804734 C315.372781,89.6804734 318.568047,88.6745562 320.934911,86.7218935 C323.360947,84.7100592 324.95858,81.6331361 325.668639,77.4911243 L318.982248,77.4911243 C318.449704,81.9289941 315.964497,84.1775148 311.467456,84.1775148 C308.863905,84.1775148 306.911243,83.2307692 305.609467,81.3964497 C304.189349,79.5029586 303.538461,76.8402367 303.538461,73.4674556 C303.538461,70.1538462 304.248521,67.5502959 305.668639,65.7159763 C307.088757,63.8224852 309.04142,62.9349112 311.526627,62.9349112 C313.538461,62.9349112 315.195266,63.408284 316.43787,64.3550296 C317.621302,65.3017751 318.449704,66.7218935 318.863905,68.6745562 L325.550296,68.6745562 C324.95858,64.8284024 323.420118,61.9881657 320.994083,60.0946746 C318.627219,58.3195266 315.491124,57.4319527 311.526627,57.4319527 Z M338.923077,48.3786982 L332.177515,51.1597633 L332.177515,58.260355 L326.674556,58.260355 L326.674556,63.8224852 L332.177515,63.8224852 L332.177515,81.1005917 C332.177515,83.5857988 332.769231,85.4201183 333.952663,86.7218935 C335.195266,88.1420118 337.147929,88.852071 339.810651,88.852071 L344.95858,88.852071 L344.95858,83.2899408 L340.934911,83.2899408 C340.224852,83.2899408 339.751479,83.112426 339.39645,82.7573964 C339.04142,82.3431953 338.923077,81.8106509 338.923077,81.1005917 L338.923077,63.8224852 L345.727811,63.8224852 L345.727811,58.260355 L338.923077,58.260355 L338.923077,48.3786982 Z" id="My-project" fill="#A9B9C6"></path>
                <rect id="Rectangle-7" fill="#D8EAF9" x="60.1065089" y="130.272189" width="414.201183" height="17.7514793" rx="8.87573964"></rect>
                <rect id="Rectangle-7-Copy" fill="#D8EAF9" x="60.1065089" y="171.692308" width="319.526627" height="17.7514793" rx="8.87573964"></rect>
            </g>
            <rect id="Rectangle-80-Copy" fill="#176EDA" x="218.934911" y="526.366864" width="147.928994" height="59.1715976"></rect>
            <rect id="Rectangle-80-Copy-2" fill="#409EF3" x="437.869822" y="526.366864" width="142.011834" height="59.1715976"></rect>
            <rect id="Rectangle" fill="#E1E8EE" opacity="0.747901119" filter="url(#filter-4)" x="227" y="634" width="360" height="270"></rect>
            <rect id="Rectangle-Copy" fill="#E1E8EE" opacity="0.747901119" filter="url(#filter-5)" x="631" y="634" width="360" height="270"></rect>
            <g id="Group" transform="translate(218.000000, 615.000000)">
                <rect id="Rectangle-8" fill="#FFFFFF" x="0.934911243" y="0.124260355" width="378.698225" height="266.272189"></rect>
                <rect id="Rectangle-36" fill="#EFF6FA" x="28.1538462" y="230.893491" width="321.893491" height="4.73372781"></rect>
                <path d="M28.1538462,182.964497 L39.9881657,182.964497 L39.9881657,177.047337 L28.1538462,177.047337 L28.1538462,182.964497 Z M51.8224852,182.964497 L63.6568047,182.964497 L63.6568047,177.047337 L51.8224852,177.047337 L51.8224852,182.964497 Z M75.4911243,182.964497 L87.3254438,182.964497 L87.3254438,177.047337 L75.4911243,177.047337 L75.4911243,182.964497 Z M99.1597633,182.964497 L110.994083,182.964497 L110.994083,177.047337 L99.1597633,177.047337 L99.1597633,182.964497 Z M122.828402,182.964497 L134.662722,182.964497 L134.662722,177.047337 L122.828402,177.047337 L122.828402,182.964497 Z M146.497041,182.964497 L158.331361,182.964497 L158.331361,177.047337 L146.497041,177.047337 L146.497041,182.964497 Z M170.16568,182.964497 L182,182.964497 L182,177.047337 L170.16568,177.047337 L170.16568,182.964497 Z M193.83432,182.964497 L205.668639,182.964497 L205.668639,177.047337 L193.83432,177.047337 L193.83432,182.964497 Z M217.502959,182.964497 L229.337278,182.964497 L229.337278,177.047337 L217.502959,177.047337 L217.502959,182.964497 Z M241.171598,182.964497 L253.005917,182.964497 L253.005917,177.047337 L241.171598,177.047337 L241.171598,182.964497 Z M264.840237,182.964497 L276.674556,182.964497 L276.674556,177.047337 L264.840237,177.047337 L264.840237,182.964497 Z M288.508876,182.964497 L300.343195,182.964497 L300.343195,177.047337 L288.508876,177.047337 L288.508876,182.964497 Z M312.177515,182.964497 L324.011834,182.964497 L324.011834,177.047337 L312.177515,177.047337 L312.177515,182.964497 Z M335.846154,182.964497 L347.556428,182.964497 L347.556428,177.047337 L335.846154,177.047337 L335.846154,182.964497 Z" id="Path-9" fill="#EFF6FA" fill-rule="nonzero"></path>
                <path d="M28.1538462,135.627219 L39.9881657,135.627219 L39.9881657,129.710059 L28.1538462,129.710059 L28.1538462,135.627219 Z M51.8224852,135.627219 L63.6568047,135.627219 L63.6568047,129.710059 L51.8224852,129.710059 L51.8224852,135.627219 Z M75.4911243,135.627219 L87.3254438,135.627219 L87.3254438,129.710059 L75.4911243,129.710059 L75.4911243,135.627219 Z M99.1597633,135.627219 L110.994083,135.627219 L110.994083,129.710059 L99.1597633,129.710059 L99.1597633,135.627219 Z M122.828402,135.627219 L134.662722,135.627219 L134.662722,129.710059 L122.828402,129.710059 L122.828402,135.627219 Z M146.497041,135.627219 L158.331361,135.627219 L158.331361,129.710059 L146.497041,129.710059 L146.497041,135.627219 Z M170.16568,135.627219 L182,135.627219 L182,129.710059 L170.16568,129.710059 L170.16568,135.627219 Z M193.83432,135.627219 L205.668639,135.627219 L205.668639,129.710059 L193.83432,129.710059 L193.83432,135.627219 Z M217.502959,135.627219 L229.337278,135.627219 L229.337278,129.710059 L217.502959,129.710059 L217.502959,135.627219 Z M241.171598,135.627219 L253.005917,135.627219 L253.005917,129.710059 L241.171598,129.710059 L241.171598,135.627219 Z M264.840237,135.627219 L276.674556,135.627219 L276.674556,129.710059 L264.840237,129.710059 L264.840237,135.627219 Z M288.508876,135.627219 L300.343195,135.627219 L300.343195,129.710059 L288.508876,129.710059 L288.508876,135.627219 Z M312.177515,135.627219 L324.011834,135.627219 L324.011834,129.710059 L312.177515,129.710059 L312.177515,135.627219 Z M335.846154,135.627219 L347.556428,135.627219 L347.556428,129.710059 L335.846154,129.710059 L335.846154,135.627219 Z" id="Path-9" fill="#EFF6FA" fill-rule="nonzero"></path>
                <path d="M28.1538462,88.2899408 L39.9881657,88.2899408 L39.9881657,82.3727811 L28.1538462,82.3727811 L28.1538462,88.2899408 Z M51.8224852,88.2899408 L63.6568047,88.2899408 L63.6568047,82.3727811 L51.8224852,82.3727811 L51.8224852,88.2899408 Z M75.4911243,88.2899408 L87.3254438,88.2899408 L87.3254438,82.3727811 L75.4911243,82.3727811 L75.4911243,88.2899408 Z M99.1597633,88.2899408 L110.994083,88.2899408 L110.994083,82.3727811 L99.1597633,82.3727811 L99.1597633,88.2899408 Z M122.828402,88.2899408 L134.662722,88.2899408 L134.662722,82.3727811 L122.828402,82.3727811 L122.828402,88.2899408 Z M146.497041,88.2899408 L158.331361,88.2899408 L158.331361,82.3727811 L146.497041,82.3727811 L146.497041,88.2899408 Z M170.16568,88.2899408 L182,88.2899408 L182,82.3727811 L170.16568,82.3727811 L170.16568,88.2899408 Z M193.83432,88.2899408 L205.668639,88.2899408 L205.668639,82.3727811 L193.83432,82.3727811 L193.83432,88.2899408 Z M217.502959,88.2899408 L229.337278,88.2899408 L229.337278,82.3727811 L217.502959,82.3727811 L217.502959,88.2899408 Z M241.171598,88.2899408 L253.005917,88.2899408 L253.005917,82.3727811 L241.171598,82.3727811 L241.171598,88.2899408 Z M264.840237,88.2899408 L276.674556,88.2899408 L276.674556,82.3727811 L264.840237,82.3727811 L264.840237,88.2899408 Z M288.508876,88.2899408 L300.343195,88.2899408 L300.343195,82.3727811 L288.508876,82.3727811 L288.508876,88.2899408 Z M312.177515,88.2899408 L324.011834,88.2899408 L324.011834,82.3727811 L312.177515,82.3727811 L312.177515,88.2899408 Z M335.846154,88.2899408 L347.556428,88.2899408 L347.556428,82.3727811 L335.846154,82.3727811 L335.846154,88.2899408 Z" id="Path-9" fill="#EFF6FA" fill-rule="nonzero"></path>
                <path d="M28.1618227,38.2679124 L39.9960992,38.2360064 L39.9801462,32.3188681 L28.1458696,32.3507741 L28.1618227,38.2679124 Z M51.8303757,38.2041003 L63.6646522,38.1721943 L63.6486992,32.255056 L51.8144227,32.2869621 L51.8303757,38.2041003 Z M75.4989287,38.1402882 L87.3332052,38.1083822 L87.3172522,32.1912439 L75.4829757,32.22315 L75.4989287,38.1402882 Z M99.1674818,38.0764761 L111.001758,38.0445701 L110.985805,32.1274318 L99.1515287,32.1593379 L99.1674818,38.0764761 Z M122.836035,38.0126641 L134.670311,37.980758 L134.654358,32.0636198 L122.820082,32.0955258 L122.836035,38.0126641 Z M146.504588,37.948852 L158.338864,37.9169459 L158.322911,31.9998077 L146.488635,32.0317137 L146.504588,37.948852 Z M170.173141,37.8850399 L182.007417,37.8531338 L181.991464,31.9359956 L170.157188,31.9679016 L170.173141,37.8850399 Z M193.841694,37.8212278 L205.67597,37.7893218 L205.660017,31.8721835 L193.825741,31.9040895 L193.841694,37.8212278 Z M217.510247,37.7574157 L229.344523,37.7255097 L229.32857,31.8083714 L217.494294,31.8402775 L217.510247,37.7574157 Z M241.1788,37.6936036 L253.013076,37.6616976 L252.997123,31.7445593 L241.162847,31.7764654 L241.1788,37.6936036 Z M264.847353,37.6297916 L276.68163,37.5978855 L276.665676,31.6807473 L264.8314,31.7126533 L264.847353,37.6297916 Z M288.515906,37.5659795 L300.350183,37.5340734 L300.33423,31.6169352 L288.499953,31.6488412 L288.515906,37.5659795 Z M312.184459,37.5021674 L324.018736,37.4702613 L324.002783,31.5531231 L312.168506,31.5850291 L312.184459,37.5021674 Z M335.853012,37.4383553 L347.687289,37.4064493 L347.671336,31.489311 L335.837059,31.521217 L335.853012,37.4383553 Z" id="Path-9" fill="#EFF6FA" fill-rule="nonzero"></path>
                <rect id="Rectangle-68" fill="#176EDA" x="57.739645" y="124.384615" width="28.4023669" height="108.87574"></rect>
                <rect id="Rectangle-68-Copy" fill="#40C6F3" x="116.911243" y="153.970414" width="28.4023669" height="80.4733728"></rect>
                <rect id="Rectangle-68-Copy-2" fill="#176EDA" x="170.16568" y="100.715976" width="28.4023669" height="132.544379"></rect>
                <rect id="Rectangle-68-Copy-3" fill="#40C6F3" x="229.337278" y="71.1301775" width="28.4023669" height="160.946746"></rect>
                <rect id="Rectangle-68-Copy-4" fill="#176EDA" x="288.508876" y="153.970414" width="28.4023669" height="80.4733728"></rect>
            </g>
            <g id="Group-29" transform="translate(643.970414, 646.710059)"></g>
            <rect id="Rectangle-80-Copy-3" fill="#176EDA" x="644.970414" y="526.366864" width="142.011834" height="59.1715976"></rect>
            <rect id="Rectangle-80-Copy-4" fill="#409EF3" x="857.988166" y="526.366864" width="142.011834" height="59.1715976"></rect>
            <path d="M325.12426,541.171598 C324.130178,542.207101 322.887574,543.159763 321.39645,544.071006 C319.905326,544.899408 318.497042,545.47929 317.171598,545.810651 L317.171598,550.615385 C319.905326,549.828402 322.142012,548.627219 323.923077,547.011834 L323.923077,570.745562 L328.769231,570.745562 L328.769231,541.171598 L325.12426,541.171598 Z M344.218935,540.591716 C341.029586,540.591716 338.461539,541.668639 336.514793,543.822485 C334.609468,545.852071 333.656805,548.502959 333.615385,551.816568 L338.461539,551.816568 C338.544379,549.497041 339.04142,547.715976 339.952663,546.556213 C340.863905,545.313609 342.230769,544.692308 344.053254,544.692308 C345.751479,544.692308 347.035503,545.065089 347.905326,545.852071 C348.733728,546.639053 349.189349,547.840237 349.189349,549.455621 C349.189349,551.112426 348.526627,552.686391 347.242604,554.136095 C346.414201,555.005917 345.088757,556.12426 343.183432,557.449704 C339.745562,559.810651 337.467456,561.633136 336.390533,562.87574 C334.402367,565.112426 333.449704,567.721893 333.449704,570.745562 L354.076923,570.745562 L354.076923,566.47929 L339.497041,566.47929 C340.159763,564.988166 341.982249,563.248521 345.005917,561.260355 C347.905326,559.313609 349.976331,557.739645 351.136095,556.497041 C353.04142,554.384615 354.035503,552.065089 354.035503,549.497041 C354.035503,546.846154 353.12426,544.733728 351.301775,543.076923 C349.43787,541.420118 347.076923,540.591716 344.218935,540.591716 Z" id="12" fill="#FFFFFF" opacity="0.5"></path>
            <path d="M556.781065,540.591716 C559.928994,540.591716 562.455621,541.420118 564.360947,543.118343 C566.017752,544.609467 566.887574,546.473373 566.887574,548.710059 C566.887574,550.201183 566.556213,551.485207 565.893491,552.52071 C565.147929,553.597633 564.071006,554.467456 562.621302,555.047337 L562.621302,555.130178 C563.988166,555.502959 565.189349,556.331361 566.183432,557.615385 C567.301775,559.023669 567.881657,560.639053 567.881657,562.461538 C567.881657,565.112426 566.887574,567.224852 564.982249,568.881657 C563.035503,570.497041 560.301775,571.325444 556.781065,571.325444 C553.218935,571.325444 550.485207,570.497041 548.579882,568.881657 C546.633136,567.224852 545.680473,565.112426 545.680473,562.461538 C545.680473,560.639053 546.218935,559.023669 547.378698,557.615385 C548.372781,556.331361 549.532544,555.502959 550.940828,555.130178 L550.940828,555.047337 C549.449704,554.467456 548.372781,553.597633 547.668639,552.52071 C547.005917,551.485207 546.674556,550.201183 546.674556,548.710059 C546.674556,546.473373 547.502959,544.609467 549.201183,543.118343 C551.065089,541.420118 553.591716,540.591716 556.781065,540.591716 Z M556.781065,544.443787 C555.04142,544.443787 553.633136,544.899408 552.597633,545.852071 C551.686391,546.680473 551.230769,547.674556 551.230769,548.87574 C551.230769,550.242604 551.60355,551.319527 552.349112,552.106509 C553.260355,553.059172 554.710059,553.556213 556.781065,553.556213 C558.810651,553.556213 560.301775,553.059172 561.213018,552.106509 C561.95858,551.319527 562.331361,550.242604 562.331361,548.87574 C562.331361,547.674556 561.87574,546.680473 560.964497,545.852071 C559.887574,544.899408 558.52071,544.443787 556.781065,544.443787 Z M556.781065,557.159763 C554.710059,557.159763 553.136095,557.656805 552.059172,558.650888 C550.982249,559.60355 550.485207,560.887574 550.485207,562.461538 C550.485207,563.952663 551.023669,565.153846 552.142012,566.065089 C553.218935,566.976331 554.751479,567.431953 556.781065,567.431953 C558.769231,567.431953 560.343195,566.934911 561.502959,566.023669 C562.538462,565.112426 563.076923,563.952663 563.076923,562.461538 C563.076923,560.887574 562.538462,559.60355 561.544379,558.692308 C560.426036,557.656805 558.852071,557.159763 556.781065,557.159763 Z" id="8" fill="#FFFFFF" opacity="0.5"></path>
            <path d="M745.242604,541.171598 C744.248521,542.207101 743.005917,543.159763 741.514793,544.071006 C740.023669,544.899408 738.615385,545.47929 737.289941,545.810651 L737.289941,550.615385 C740.023669,549.828402 742.260355,548.627219 744.04142,547.011834 L744.04142,570.745562 L748.887574,570.745562 L748.887574,541.171598 L745.242604,541.171598 Z M763.881657,540.591716 C767.319527,540.591716 770.011834,542 771.95858,544.899408 C773.781065,547.633136 774.692308,551.319527 774.692308,555.95858 C774.692308,560.597633 773.781065,564.284024 771.95858,567.017751 C770.011834,569.87574 767.319527,571.325444 763.881657,571.325444 C760.402367,571.325444 757.710059,569.87574 755.804734,567.017751 C753.982249,564.284024 753.071006,560.597633 753.071006,555.95858 C753.071006,551.319527 753.982249,547.633136 755.804734,544.899408 C757.710059,542 760.402367,540.591716 763.881657,540.591716 Z M763.881657,544.692308 C761.52071,544.692308 759.863905,545.976331 758.911243,548.627219 C758.248521,550.408284 757.91716,552.852071 757.91716,555.95858 C757.91716,559.023669 758.248521,561.467456 758.911243,563.289941 C759.863905,565.899408 761.52071,567.224852 763.881657,567.224852 C766.201183,567.224852 767.857988,565.899408 768.852071,563.289941 C769.514793,561.467456 769.846154,559.023669 769.846154,555.95858 C769.846154,552.852071 769.514793,550.408284 768.852071,548.627219 C767.857988,545.976331 766.201183,544.692308 763.881657,544.692308 Z" id="10" fill="#FFFFFF" opacity="0.5"></path>
            <polygon id="7" fill="#FFFFFF" opacity="0.5" points="967.662722 541.171598 967.662722 545.56213 982.781065 545.56213 972.177515 570.745562 977.31361 570.745562 987.668639 545.065089 987.668639 541.171598"></polygon>
            <g id="Group-3" transform="translate(621.000000, 615.000000)">
                <rect id="Rectangle-8-Copy" fill="#FFFFFF" x="0.301775148" y="0.124260355" width="378.698225" height="266.272189"></rect>
                <rect id="Rectangle-36" fill="#EFF6FA" x="23.9704142" y="230.893491" width="325.443787" height="5.91715976"></rect>
                <path d="M23.9704142,201.307692 L35.8047337,201.307692 L35.8047337,195.390533 L23.9704142,195.390533 L23.9704142,201.307692 Z M47.6390533,201.307692 L59.4733728,201.307692 L59.4733728,195.390533 L47.6390533,195.390533 L47.6390533,201.307692 Z M71.3076923,201.307692 L83.1420118,201.307692 L83.1420118,195.390533 L71.3076923,195.390533 L71.3076923,201.307692 Z M94.9763314,201.307692 L106.810651,201.307692 L106.810651,195.390533 L94.9763314,195.390533 L94.9763314,201.307692 Z M118.64497,201.307692 L130.47929,201.307692 L130.47929,195.390533 L118.64497,195.390533 L118.64497,201.307692 Z M142.313609,201.307692 L154.147929,201.307692 L154.147929,195.390533 L142.313609,195.390533 L142.313609,201.307692 Z M165.982249,201.307692 L177.816568,201.307692 L177.816568,195.390533 L165.982249,195.390533 L165.982249,201.307692 Z M189.650888,201.307692 L201.485207,201.307692 L201.485207,195.390533 L189.650888,195.390533 L189.650888,201.307692 Z M213.319527,201.307692 L225.153846,201.307692 L225.153846,195.390533 L213.319527,195.390533 L213.319527,201.307692 Z M236.988166,201.307692 L248.822485,201.307692 L248.822485,195.390533 L236.988166,195.390533 L236.988166,201.307692 Z M260.656805,201.307692 L272.491124,201.307692 L272.491124,195.390533 L260.656805,195.390533 L260.656805,201.307692 Z M284.325444,201.307692 L296.159763,201.307692 L296.159763,195.390533 L284.325444,195.390533 L284.325444,201.307692 Z M307.994083,201.307692 L319.828402,201.307692 L319.828402,195.390533 L307.994083,195.390533 L307.994083,201.307692 Z M331.662722,201.307692 L343.497041,201.307692 L343.497041,195.390533 L331.662722,195.390533 L331.662722,201.307692 Z" id="Path-9" fill="#EFF6FA" fill-rule="nonzero"></path>
                <path d="M23.9704142,148.053254 L35.8047337,148.053254 L35.8047337,142.136095 L23.9704142,142.136095 L23.9704142,148.053254 Z M47.6390533,148.053254 L59.4733728,148.053254 L59.4733728,142.136095 L47.6390533,142.136095 L47.6390533,148.053254 Z M71.3076923,148.053254 L83.1420118,148.053254 L83.1420118,142.136095 L71.3076923,142.136095 L71.3076923,148.053254 Z M94.9763314,148.053254 L106.810651,148.053254 L106.810651,142.136095 L94.9763314,142.136095 L94.9763314,148.053254 Z M118.64497,148.053254 L130.47929,148.053254 L130.47929,142.136095 L118.64497,142.136095 L118.64497,148.053254 Z M142.313609,148.053254 L154.147929,148.053254 L154.147929,142.136095 L142.313609,142.136095 L142.313609,148.053254 Z M165.982249,148.053254 L177.816568,148.053254 L177.816568,142.136095 L165.982249,142.136095 L165.982249,148.053254 Z M189.650888,148.053254 L201.485207,148.053254 L201.485207,142.136095 L189.650888,142.136095 L189.650888,148.053254 Z M213.319527,148.053254 L225.153846,148.053254 L225.153846,142.136095 L213.319527,142.136095 L213.319527,148.053254 Z M236.988166,148.053254 L248.822485,148.053254 L248.822485,142.136095 L236.988166,142.136095 L236.988166,148.053254 Z M260.656805,148.053254 L272.491124,148.053254 L272.491124,142.136095 L260.656805,142.136095 L260.656805,148.053254 Z M284.325444,148.053254 L296.159763,148.053254 L296.159763,142.136095 L284.325444,142.136095 L284.325444,148.053254 Z M307.994083,148.053254 L319.828402,148.053254 L319.828402,142.136095 L307.994083,142.136095 L307.994083,148.053254 Z M331.662722,148.053254 L343.497041,148.053254 L343.497041,142.136095 L331.662722,142.136095 L331.662722,148.053254 Z" id="Path-9" fill="#EFF6FA" fill-rule="nonzero"></path>
                <path d="M23.9704142,94.7988166 L35.8047337,94.7988166 L35.8047337,88.8816568 L23.9704142,88.8816568 L23.9704142,94.7988166 Z M47.6390533,94.7988166 L59.4733728,94.7988166 L59.4733728,88.8816568 L47.6390533,88.8816568 L47.6390533,94.7988166 Z M71.3076923,94.7988166 L83.1420118,94.7988166 L83.1420118,88.8816568 L71.3076923,88.8816568 L71.3076923,94.7988166 Z M94.9763314,94.7988166 L106.810651,94.7988166 L106.810651,88.8816568 L94.9763314,88.8816568 L94.9763314,94.7988166 Z M118.64497,94.7988166 L130.47929,94.7988166 L130.47929,88.8816568 L118.64497,88.8816568 L118.64497,94.7988166 Z M142.313609,94.7988166 L154.147929,94.7988166 L154.147929,88.8816568 L142.313609,88.8816568 L142.313609,94.7988166 Z M165.982249,94.7988166 L177.816568,94.7988166 L177.816568,88.8816568 L165.982249,88.8816568 L165.982249,94.7988166 Z M189.650888,94.7988166 L201.485207,94.7988166 L201.485207,88.8816568 L189.650888,88.8816568 L189.650888,94.7988166 Z M213.319527,94.7988166 L225.153846,94.7988166 L225.153846,88.8816568 L213.319527,88.8816568 L213.319527,94.7988166 Z M236.988166,94.7988166 L248.822485,94.7988166 L248.822485,88.8816568 L236.988166,88.8816568 L236.988166,94.7988166 Z M260.656805,94.7988166 L272.491124,94.7988166 L272.491124,88.8816568 L260.656805,88.8816568 L260.656805,94.7988166 Z M284.325444,94.7988166 L296.159763,94.7988166 L296.159763,88.8816568 L284.325444,88.8816568 L284.325444,94.7988166 Z M307.994083,94.7988166 L319.828402,94.7988166 L319.828402,88.8816568 L307.994083,88.8816568 L307.994083,94.7988166 Z M331.662722,94.7988166 L343.497041,94.7988166 L343.497041,88.8816568 L331.662722,88.8816568 L331.662722,94.7988166 Z" id="Path-9" fill="#EFF6FA" fill-rule="nonzero"></path>
                <path d="M23.9802212,39.6677279 L35.8144757,39.6284999 L35.7948617,33.7113726 L23.9606072,33.7506007 L23.9802212,39.6677279 Z M47.6487302,39.5892718 L59.4829847,39.5500438 L59.4633707,33.6329165 L47.6291162,33.6721446 L47.6487302,39.5892718 Z M71.3172393,39.5108157 L83.1514938,39.4715877 L83.1318797,33.5544604 L71.2976252,33.5936885 L71.3172393,39.5108157 Z M94.9857483,39.4323597 L106.820003,39.3931316 L106.800389,33.4760044 L94.9661343,33.5152324 L94.9857483,39.4323597 Z M118.654257,39.3539036 L130.488512,39.3146755 L130.468898,33.3975483 L118.634643,33.4367763 L118.654257,39.3539036 Z M142.322766,39.2754475 L154.157021,39.2362194 L154.137407,33.3190922 L142.303152,33.3583202 L142.322766,39.2754475 Z M165.991275,39.1969914 L177.82553,39.1577634 L177.805916,33.2406361 L165.971661,33.2798641 L165.991275,39.1969914 Z M189.659784,39.1185353 L201.494039,39.0793073 L201.474425,33.16218 L189.64017,33.2014081 L189.659784,39.1185353 Z M213.328293,39.0400792 L225.162548,39.0008512 L225.142934,33.0837239 L213.308679,33.122952 L213.328293,39.0400792 Z M236.996802,38.9616231 L248.831057,38.9223951 L248.811443,33.0052678 L236.977188,33.0444959 L236.996802,38.9616231 Z M260.665311,38.8831671 L272.499566,38.843939 L272.479952,32.9268118 L260.645697,32.9660398 L260.665311,38.8831671 Z M284.33382,38.804711 L296.168075,38.7654829 L296.148461,32.8483557 L284.314206,32.8875837 L284.33382,38.804711 Z M308.002329,38.7262549 L319.836584,38.6870268 L319.81697,32.7698996 L307.982715,32.8091276 L308.002329,38.7262549 Z M331.670838,38.6477988 L343.505093,38.6085708 L343.485479,32.6914435 L331.651224,32.7306715 L331.670838,38.6477988 Z" id="Path-9" fill="#EFF6FA" fill-rule="nonzero"></path>
                <path d="M47.6390533,213.142012 C59.4733728,142.136095 75.2524655,106.633136 94.9763314,106.633136 C124.56213,106.633136 144.906483,142.136095 183.733728,142.136095 C222.560973,142.136095 219.080875,94.7988166 248.822485,94.7988166 C278.564096,94.7988166 272.491124,165.804734 325.745562,165.804734 C325.745562,189.473373 325.745562,213.142012 325.745562,236.810651 L47.6390533,236.810651 L47.6390533,213.142012 Z" id="Path-47-Copy" fill="#54C4E9" opacity="0.151935634"></path>
                <path d="M50.5469591,160.432806 C62.1093388,98.7667814 77.4069307,68.1715976 94.9763314,68.1715976 C105.559835,68.1715976 115.434064,81.5018061 136.768765,119.904269 C159.812762,161.383463 169.662399,174.680473 183.733728,174.680473 C197.542661,174.680473 204.899603,166.804044 218.671513,143.800462 C231.454878,122.447999 237.940529,115.508876 248.822485,115.508876 C256.969106,115.508876 262.205924,121.297344 269.600565,136.457255 C270.077167,137.434347 274.432394,146.594099 275.819318,149.374047 C288.349276,174.489075 301.689195,186.514793 325.745562,186.514793 L325.745562,180.597633 C304.44353,180.597633 292.75062,170.056667 281.114108,146.732462 C279.757521,144.013319 275.418255,134.887138 274.918782,133.863156 C266.583137,116.774073 260.08527,109.591716 248.822485,109.591716 C234.913274,109.591716 227.51856,117.503463 213.681243,140.616376 C200.964429,161.857603 194.514182,168.763314 183.733728,168.763314 C173.150224,168.763314 163.275995,155.433105 141.941294,117.030642 C118.897297,75.5514483 109.04766,62.2544379 94.9763314,62.2544379 C73.0980003,62.2544379 56.8374068,94.7756249 44.7311474,159.342342 L50.5469591,160.432806 Z" id="Path-47" fill="#54C4E9" fill-rule="nonzero"></path>
            </g>
        </g>
    </g>
</svg>