<?xml version="1.0" encoding="UTF-8" standalone="no"?>
<svg width="1024px" height="1024px" viewBox="0 0 1024 1024" version="1.1" xmlns="http://www.w3.org/2000/svg" xmlns:xlink="http://www.w3.org/1999/xlink">
    <!-- Generator: Sketch 46.2 (44496) - http://www.bohemiancoding.com/sketch -->
    <title>Governor</title>
    <desc>Created with Sketch.</desc>
    <defs>
        <rect id="path-1" x="0" y="0" width="228.765957" height="228.765957" rx="2"></rect>
        <filter x="-6.1%" y="-4.4%" width="112.2%" height="112.2%" filterUnits="objectBoundingBox" id="filter-2">
            <feOffset dx="0" dy="4" in="SourceAlpha" result="shadowOffsetOuter1"></feOffset>
            <feGaussianBlur stdDeviation="4" in="shadowOffsetOuter1" result="shadowBlurOuter1"></feGaussianBlur>
            <feColorMatrix values="0 0 0 0 0.882352941   0 0 0 0 0.909803922   0 0 0 0 0.933333333  0 0 0 0.875056612 0" type="matrix" in="shadowBlurOuter1"></feColorMatrix>
        </filter>
        <rect id="path-3" x="0" y="0" width="228.765957" height="228.765957" rx="2"></rect>
        <filter x="-6.1%" y="-4.4%" width="112.2%" height="112.2%" filterUnits="objectBoundingBox" id="filter-4">
            <feOffset dx="0" dy="4" in="SourceAlpha" result="shadowOffsetOuter1"></feOffset>
            <feGaussianBlur stdDeviation="4" in="shadowOffsetOuter1" result="shadowBlurOuter1"></feGaussianBlur>
            <feColorMatrix values="0 0 0 0 0.882352941   0 0 0 0 0.909803922   0 0 0 0 0.933333333  0 0 0 0.875056612 0" type="matrix" in="shadowBlurOuter1"></feColorMatrix>
        </filter>
        <linearGradient x1="50%" y1="0%" x2="50%" y2="100%" id="linearGradient-5">
            <stop stop-color="#409EF3" offset="0%"></stop>
            <stop stop-color="#409EF3" stop-opacity="0" offset="100%"></stop>
        </linearGradient>
        <rect id="path-6" x="0" y="0" width="228.765957" height="228.765957" rx="2"></rect>
        <filter x="-6.1%" y="-4.4%" width="112.2%" height="112.2%" filterUnits="objectBoundingBox" id="filter-7">
            <feOffset dx="0" dy="4" in="SourceAlpha" result="shadowOffsetOuter1"></feOffset>
            <feGaussianBlur stdDeviation="4" in="shadowOffsetOuter1" result="shadowBlurOuter1"></feGaussianBlur>
            <feColorMatrix values="0 0 0 0 0.882352941   0 0 0 0 0.909803922   0 0 0 0 0.933333333  0 0 0 0.875056612 0" type="matrix" in="shadowBlurOuter1"></feColorMatrix>
        </filter>
    </defs>
    <g id="Page-1" stroke="none" stroke-width="1" fill="none" fill-rule="evenodd">
        <g id="Governor">
            <g id="Group-48" transform="translate(0.000000, 87.000000)">
                <path d="M106.212766,757.106383 L106.212766,740.765957 L100.765957,740.765957 L100.765957,757.106383 L106.212766,757.106383 Z M106.212766,724.425532 L106.212766,708.085106 L100.765957,708.085106 L100.765957,724.425532 L106.212766,724.425532 Z M106.212766,691.744681 L106.212766,675.404255 L100.765957,675.404255 L100.765957,691.744681 L106.212766,691.744681 Z M106.212766,659.06383 L106.212766,642.723404 L100.765957,642.723404 L100.765957,659.06383 L106.212766,659.06383 Z M106.212766,626.382979 L106.212766,610.042553 L100.765957,610.042553 L100.765957,626.382979 L106.212766,626.382979 Z M106.212766,593.702128 L106.212766,577.361702 L100.765957,577.361702 L100.765957,593.702128 L106.212766,593.702128 Z M106.212766,561.021277 L106.212766,544.680851 L100.765957,544.680851 L100.765957,561.021277 L106.212766,561.021277 Z M106.212766,528.340426 L106.212766,512 L100.765957,512 L100.765957,528.340426 L106.212766,528.340426 Z M106.212766,487.489362 L108.93617,487.489362 L108.93617,482.042553 L100.765957,482.042553 L100.765957,495.659574 L106.212766,495.659574 L106.212766,487.489362 Z M125.276596,487.489362 L141.617021,487.489362 L141.617021,482.042553 L125.276596,482.042553 L125.276596,487.489362 Z M157.957447,487.489362 L174.297872,487.489362 L174.297872,482.042553 L157.957447,482.042553 L157.957447,487.489362 Z M190.638298,487.489362 L206.978723,487.489362 L206.978723,482.042553 L190.638298,482.042553 L190.638298,487.489362 Z M223.319149,487.489362 L239.659574,487.489362 L239.659574,482.042553 L223.319149,482.042553 L223.319149,487.489362 Z M256,487.489362 L272.340426,487.489362 L272.340426,482.042553 L256,482.042553 L256,487.489362 Z M288.680851,487.489362 L305.021277,487.489362 L305.021277,482.042553 L288.680851,482.042553 L288.680851,487.489362 Z M321.361702,487.489362 L337.702128,487.489362 L337.702128,482.042553 L321.361702,482.042553 L321.361702,487.489362 Z M354.042553,487.489362 L370.382979,487.489362 L370.382979,482.042553 L354.042553,482.042553 L354.042553,487.489362 Z M386.723404,487.489362 L403.06383,487.489362 L403.06383,482.042553 L386.723404,482.042553 L386.723404,487.489362 Z M419.404255,487.489362 L435.744681,487.489362 L435.744681,482.042553 L419.404255,482.042553 L419.404255,487.489362 Z M452.085106,487.489362 L468.425532,487.489362 L468.425532,482.042553 L452.085106,482.042553 L452.085106,487.489362 Z M484.765957,487.489362 L501.106383,487.489362 L501.106383,482.042553 L484.765957,482.042553 L484.765957,487.489362 Z M517.446809,487.489362 L533.787234,487.489362 L533.787234,482.042553 L517.446809,482.042553 L517.446809,487.489362 Z M550.12766,487.489362 L566.468085,487.489362 L566.468085,482.042553 L550.12766,482.042553 L550.12766,487.489362 Z M582.808511,487.489362 L599.148936,487.489362 L599.148936,482.042553 L582.808511,482.042553 L582.808511,487.489362 Z M615.489362,487.489362 L631.829787,487.489362 L631.829787,482.042553 L615.489362,482.042553 L615.489362,487.489362 Z M648.170213,487.489362 L664.510638,487.489362 L664.510638,482.042553 L648.170213,482.042553 L648.170213,487.489362 Z M680.851064,487.489362 L697.191489,487.489362 L697.191489,482.042553 L680.851064,482.042553 L680.851064,487.489362 Z M713.531915,487.489362 L729.87234,487.489362 L729.87234,482.042553 L713.531915,482.042553 L713.531915,487.489362 Z M746.212766,487.489362 L762.553191,487.489362 L762.553191,482.042553 L746.212766,482.042553 L746.212766,487.489362 Z M778.893617,487.489362 L795.234043,487.489362 L795.234043,482.042553 L778.893617,482.042553 L778.893617,487.489362 Z M811.574468,487.489362 L827.914894,487.489362 L827.914894,482.042553 L811.574468,482.042553 L811.574468,487.489362 Z M844.255319,487.489362 L860.595745,487.489362 L860.595745,482.042553 L844.255319,482.042553 L844.255319,487.489362 Z M876.93617,487.489362 L893.276596,487.489362 L893.276596,482.042553 L876.93617,482.042553 L876.93617,487.489362 Z M917.787234,487.489362 L917.787234,490.212766 L923.234043,490.212766 L923.234043,482.042553 L909.617021,482.042553 L909.617021,487.489362 L917.787234,487.489362 Z M917.787234,506.553191 L917.787234,522.893617 L923.234043,522.893617 L923.234043,506.553191 L917.787234,506.553191 Z M917.787234,539.234043 L917.787234,555.574468 L923.234043,555.574468 L923.234043,539.234043 L917.787234,539.234043 Z M917.787234,571.914894 L917.787234,588.255319 L923.234043,588.255319 L923.234043,571.914894 L917.787234,571.914894 Z M917.787234,604.595745 L917.787234,620.93617 L923.234043,620.93617 L923.234043,604.595745 L917.787234,604.595745 Z M917.787234,637.276596 L917.787234,653.617021 L923.234043,653.617021 L923.234043,637.276596 L917.787234,637.276596 Z M917.787234,669.957447 L917.787234,686.297872 L923.234043,686.297872 L923.234043,669.957447 L917.787234,669.957447 Z M917.787234,702.638298 L917.787234,718.978723 L923.234043,718.978723 L923.234043,702.638298 L917.787234,702.638298 Z M917.787234,735.319149 L917.787234,751.659574 L923.234043,751.659574 L923.234043,735.319149 L917.787234,735.319149 Z" id="Rectangle-85" fill="#D7E1E7" fill-rule="nonzero"></path>
                <g id="Group-12" transform="translate(0.000000, 642.723404)">
                    <path d="M103.489362,204.255319 C47.8378601,204.255319 2.72340426,159.140863 2.72340426,103.489362 C2.72340426,47.8378601 47.8378601,2.72340426 103.489362,2.72340426 C159.140863,2.72340426 204.255319,47.8378601 204.255319,103.489362 C204.255319,159.140863 159.140863,204.255319 103.489362,204.255319 Z" id="Oval-23-Copy" fill="#D7E1E7" fill-rule="nonzero"></path>
                    <path d="M103.489362,198.808511 C156.132674,198.808511 198.808511,156.132674 198.808511,103.489362 C198.808511,50.8460494 156.132674,8.17021277 103.489362,8.17021277 C50.8460494,8.17021277 8.17021277,50.8460494 8.17021277,103.489362 C8.17021277,156.132674 50.8460494,198.808511 103.489362,198.808511 Z" id="Path" fill="#FFFFFF"></path>
                    <g id="图表-3" transform="translate(43.574468, 38.127660)">
                        <path d="M55.5806034,8.66791109 C24.8844293,8.66791109 0,33.5523404 0,64.2491839 C0,94.9453579 24.8844293,119.82962 55.5806034,119.82962 C86.2774468,119.82962 111.161039,94.9453579 111.161039,64.2491839 L55.5806034,64.2491839 L55.5806034,8.66791109 Z" id="Fill-1" fill="#409EF3"></path>
                        <path d="M64.2426568,0.00652704148 L64.2426568,55.5876325 L119.82326,55.5876325 C119.82326,24.890789 94.9388309,0.00652704148 64.2426568,0.00652704148 Z" id="Path" fill="#176EDA"></path>
                    </g>
                </g>
                <g id="Group-17" transform="translate(408.510638, 642.723404)">
                    <path d="M103.489362,204.255319 C47.8378601,204.255319 2.72340426,159.140863 2.72340426,103.489362 C2.72340426,47.8378601 47.8378601,2.72340426 103.489362,2.72340426 C159.140863,2.72340426 204.255319,47.8378601 204.255319,103.489362 C204.255319,159.140863 159.140863,204.255319 103.489362,204.255319 Z" id="Oval-23-Copy-2" fill="#D7E1E7" fill-rule="nonzero"></path>
                    <path d="M103.489362,198.808511 C156.132674,198.808511 198.808511,156.132674 198.808511,103.489362 C198.808511,50.8460494 156.132674,8.17021277 103.489362,8.17021277 C50.8460494,8.17021277 8.17021277,50.8460494 8.17021277,103.489362 C8.17021277,156.132674 50.8460494,198.808511 103.489362,198.808511 Z" id="Path" fill="#FFFFFF"></path>
                    <g id="数据集" transform="translate(43.574468, 54.468085)">
                        <path d="M78.8454582,90.9675121 C78.8454582,90.9675121 79.1673645,91.0463092 80.7255149,91.0463092 C87.7602496,91.0463092 94.2710014,90.4625929 100.257407,89.2958865 C106.243994,88.1291801 110.97945,86.5476085 114.463047,84.5526241 C117.946826,82.5569135 119.688715,80.3923518 119.688715,78.0582128 L119.688715,69.4340993 C115.663887,72.2753362 110.16733,74.4228312 103.199955,75.8774922 C96.2752454,77.3228936 88.8325447,78.0491348 80.8723972,78.0576681 L80.8723972,83.5121021 C80.8723972,89.7043972 79.412834,90.6915404 78.8454582,90.9675121 Z" id="Fill-1" fill="#176EDA"></path>
                        <path d="M78.9545759,51.9511149 C80.146156,52.1370326 79.7369191,52.0831092 80.7255149,52.0831092 C87.7602496,52.0831092 94.2710014,51.4993929 100.257407,50.3326865 C106.243994,49.1661617 110.97945,47.5845901 114.463047,45.5886979 C117.946826,43.5937135 119.688715,41.4291518 119.688715,39.0951943 L119.688715,30.4703546 C115.663887,33.3114099 110.16733,35.4596312 103.199955,36.913566 C96.2759716,38.3596936 88.8325447,39.0859348 80.8723972,39.0944681 L80.8723972,44.4987915 C80.8723972,46.8327489 80.7255149,50.4192908 78.9545759,51.9511149 Z" id="Fill-2" fill="#176EDA"></path>
                        <path d="M78.9489475,71.4270865 L80.7255149,71.5647092 C87.7568,71.7909333 94.2710014,70.9809929 100.257407,69.8142865 C106.243994,68.6475801 110.97945,67.0660085 114.463047,65.0710241 C117.946826,63.0753135 119.688715,60.9107518 119.688715,58.5767943 L119.688715,49.9519546 C115.663887,52.7937362 110.16733,54.9412312 103.199955,56.395166 C96.2752454,57.8412936 88.8325447,58.5675348 80.8723972,58.5760681 L80.8723972,64.0306837 C80.8723972,66.3639149 81.0022128,70.1427291 78.9489475,71.4270865 Z" id="Fill-3" fill="#409EF3"></path>
                        <path d="M100.258133,30.8512681 C106.244721,29.6838355 110.97945,28.1029901 114.463047,26.1072794 C117.946826,24.1121135 119.688715,21.9470071 119.688715,19.6135943 L119.688715,13.1193645 C119.688715,10.7859518 117.946826,8.62139007 114.463047,6.62567943 C110.97945,4.63069504 106.244721,3.0491234 100.258133,1.88241702 C94.2710014,0.715710638 87.7602496,0.131994326 80.7255149,0.131994326 C73.6900539,0.131994326 67.1794837,0.715710638 61.1928965,1.88241702 C55.2063092,3.0491234 50.4708539,4.63069504 46.9872567,6.62567943 C43.503478,8.62139007 41.7617702,10.7859518 41.7617702,13.1193645 L41.7617702,19.6135943 C41.7617702,21.5475745 42.9587972,23.3646298 45.3510355,25.0667574 C51.079444,25.2278014 56.4440057,25.7929986 61.4410894,26.7674326 C67.4276766,27.934139 72.1631319,29.5157106 75.6467291,31.510695 C76.2440624,31.852573 76.7887433,32.2000794 77.2829504,32.5519433 C78.4169759,32.5838979 79.563166,32.6015092 80.7255149,32.6015092 C87.7602496,32.6015092 94.2710014,32.0177929 100.258133,30.8512681 Z" id="Fill-4" fill="#409EF3"></path>
                        <path d="M38.9637447,86.6888624 C46.9794496,86.6888624 54.4709901,85.961895 61.438366,84.507234 C68.4057418,83.0532993 73.9021163,80.905078 77.9269447,78.0640227 L77.9269447,86.6888624 C77.9269447,89.0228199 76.1850553,91.1873816 72.7014582,93.182366 C69.2176794,95.1780766 64.4822241,96.7596482 58.4958184,97.9263546 C52.5092312,99.093061 45.998661,99.6767773 38.9637447,99.6767773 C31.9282837,99.6767773 25.4177135,99.093061 19.4311262,97.9263546 C13.4447206,96.7596482 8.70926525,95.1780766 5.22548652,93.182366 C1.74188936,91.1873816 0,89.0228199 0,86.6888624 L0,78.0640227 C4.02482837,80.905078 9.52120284,83.052573 16.4885787,84.507234 C23.4559546,85.961895 30.947495,86.6888624 38.9632,86.6888624 L38.9637447,86.6888624 Z M38.9637447,67.2072624 C46.9794496,67.2072624 54.4709901,66.480295 61.438366,65.025634 C68.4057418,63.570973 73.9021163,61.423478 77.9269447,58.5824227 L77.9269447,67.2072624 C77.9269447,69.5404936 76.1850553,71.7057816 72.7014582,73.700766 C69.2176794,75.6966582 64.4822241,77.2775035 58.4958184,78.4447546 C52.5092312,79.611461 45.998661,80.1951773 38.9637447,80.1951773 C31.9282837,80.1951773 25.4177135,79.611461 19.4311262,78.4447546 C13.4447206,77.2775035 8.70926525,75.6966582 5.22548652,73.700766 C1.74188936,71.7057816 0,69.5404936 0,67.2072624 L0,58.5824227 C4.02482837,61.423478 9.52120284,63.570973 16.4885787,65.025634 C23.4559546,66.480295 30.947495,67.2072624 38.9632,67.2072624 L38.9637447,67.2072624 Z M38.9637447,28.1937702 C45.998661,28.1937702 52.5092312,28.7774865 58.4965447,29.9441929 C64.4829504,31.1107177 69.2176794,32.6922894 72.7014582,34.688 C76.1850553,36.683166 77.9269447,38.8482723 77.9269447,41.1816851 L77.9269447,47.6753702 C77.9269447,50.0093277 76.1850553,52.1738894 72.7014582,54.1696 C69.2176794,56.1645844 64.4829504,57.746156 58.4965447,58.9128624 C52.5092312,60.0795688 45.998661,60.6632851 38.9637447,60.6632851 C31.9282837,60.6632851 25.4177135,60.0795688 19.4311262,58.9128624 C13.4447206,57.746156 8.70926525,56.1645844 5.22548652,54.1696 C1.74188936,52.1738894 0,50.0093277 0,47.6753702 L0,41.1816851 C0,38.8477277 1.74188936,36.683166 5.22548652,34.688 C8.70926525,32.6922894 13.4447206,31.1107177 19.4311262,29.9441929 C25.4177135,28.7774865 31.9282837,28.1937702 38.9637447,28.1937702 Z" id="Fill-5" fill="#409EF3"></path>
                    </g>
                </g>
                <g id="Group-16" transform="translate(817.021277, 642.723404)">
                    <path d="M103.489362,204.255319 C47.8378601,204.255319 2.72340426,159.140863 2.72340426,103.489362 C2.72340426,47.8378601 47.8378601,2.72340426 103.489362,2.72340426 C159.140863,2.72340426 204.255319,47.8378601 204.255319,103.489362 C204.255319,159.140863 159.140863,204.255319 103.489362,204.255319 Z" id="Oval-23-Copy-3" fill="#D7E1E7" fill-rule="nonzero"></path>
                    <path d="M103.489362,198.808511 C156.132674,198.808511 198.808511,156.132674 198.808511,103.489362 C198.808511,50.8460494 156.132674,8.17021277 103.489362,8.17021277 C50.8460494,8.17021277 8.17021277,50.8460494 8.17021277,103.489362 C8.17021277,156.132674 50.8460494,198.808511 103.489362,198.808511 Z" id="Path" fill="#FFFFFF"></path>
                    <g id="Group-13" transform="translate(59.914894, 38.127660)">
                        <rect id="Rectangle-68-Copy" fill="#54C4E9" x="0" y="21.787234" width="21.787234" height="87.1489362"></rect>
                        <rect id="Rectangle-68-Copy-2" fill="#176EDA" x="32.6808511" y="43.5744681" width="21.787234" height="65.3617021"></rect>
                        <rect id="Rectangle-68-Copy-3" fill="#409EF3" x="65.3617021" y="0" width="21.787234" height="108.93617"></rect>
                    </g>
                </g>
                <g id="Group-41-Copy" transform="translate(114.382979, 0.000000)">
                    <path d="M394.893617,468.425532 L394.893617,484.765957 L400.340426,484.765957 L400.340426,468.425532 L394.893617,468.425532 Z M394.893617,501.106383 L394.893617,517.446809 L400.340426,517.446809 L400.340426,501.106383 L394.893617,501.106383 Z M394.893617,533.787234 L394.893617,550.12766 L400.340426,550.12766 L400.340426,533.787234 L394.893617,533.787234 Z M394.893617,566.468085 L394.893617,582.808511 L400.340426,582.808511 L400.340426,566.468085 L394.893617,566.468085 Z M394.893617,599.148936 L394.893617,615.489362 L400.340426,615.489362 L400.340426,599.148936 L394.893617,599.148936 Z M394.893617,631.829787 L394.893617,648.170213 L400.340426,648.170213 L400.340426,631.829787 L394.893617,631.829787 Z" id="Path-51" fill="#D7E1E7" fill-rule="nonzero"></path>
                    <path d="M54.4680851,9.87389839e-16 L735.319149,9.87389839e-16 C741.335527,4.14217053e-14 746.212766,4.87723847 746.212766,10.893617 L746.212766,495.659574 C746.212766,501.675953 741.335527,506.553191 735.319149,506.553191 L54.4680851,506.553191 C48.4517066,506.553191 43.5744681,501.675953 43.5744681,495.659574 L43.5744681,10.893617 C43.5744681,4.87723847 48.4517066,8.83146205e-16 54.4680851,9.87389839e-16 Z" id="Rectangle-69-Copy" fill="#D7E1E7" fill-rule="nonzero"></path>
                    <path d="M54.4680851,5.44680851 C51.4598958,5.44680851 49.0212766,7.88542775 49.0212766,10.893617 L49.0212766,495.659574 C49.0212766,498.667764 51.4598958,501.106383 54.4680851,501.106383 L735.319149,501.106383 C738.327338,501.106383 740.765957,498.667764 740.765957,495.659574 L740.765957,10.893617 C740.765957,7.88542775 738.327338,5.44680851 735.319149,5.44680851 L54.4680851,5.44680851 Z" id="Path" fill="#FFFFFF"></path>
                    <g id="管理-5" transform="translate(114.382979, 38.127660)">
                        <path d="M30.7673803,39.935584 C30.7673803,31.7307027 33.2917103,24.7889109 37.7091721,17.8461946 C42.1275585,11.5353697 47.8074164,6.48601643 54.7501327,3.33048843 C58.5366276,1.43735653 62.9540895,0.17519155 66.7415089,0.17519155 C71.1589708,-0.4560065 76.2076307,0.806158476 79.994819,2.6995215 C91.9861952,8.38007283 100.190152,17.2149965 103.977571,29.8375708 C107.132868,39.935584 105.870703,49.4026302 100.82135,57.606587 C95.7726901,65.8114683 89.4609407,71.4920196 80.626017,75.9097126 C74.3142677,79.0650095 67.3724758,79.6959764 61.0607265,77.8028445 C49.7005483,74.6475476 41.4965915,68.9669963 35.8160402,58.8696765 C32.0295453,52.5579271 30.7673803,46.2473334 30.7673803,39.935584 Z M77.4697957,86.6386927 L79.994819,86.6386927 C81.888182,87.2698908 82.5191489,87.9008577 81.888182,89.7942207 C81.256984,91.6873526 80.626017,92.9495176 79.994819,94.8428806 C77.4697957,99.261267 74.9454657,103.678729 73.6833007,108.097115 C71.1589708,115.670105 69.8968058,123.243788 71.1589708,131.447745 L73.0521027,140.914791 L73.0521027,142.808154 C73.0521027,144.701286 72.4211358,145.964376 70.5277727,145.964376 C69.2656078,145.964376 67.3724758,146.595574 66.1103109,146.595574 C59.1675946,146.595574 52.2248783,146.595574 45.2830865,145.964376 C40.2335021,145.332484 34.5538752,145.332484 29.5052153,144.701286 C24.4556309,144.070319 18.7760041,143.439121 13.7266508,143.439121 C10.5711228,143.439121 7.41582594,142.176956 4.26052906,141.545989 C0.473109633,140.283824 -0.789055343,138.390692 0.473109633,134.604198 C1.10407656,131.447745 2.36624154,127.661481 3.62933101,124.505953 C5.52269403,117.563237 8.04679286,111.252643 10.5711228,104.309927 C14.3576177,94.8428806 20.6693671,89.1630227 30.7673803,87.9008577 C33.9226772,87.2698908 36.4470071,87.2698908 39.6025351,87.2698908 L57.2744627,87.2698908 C56.6432646,86.6386927 70.5277727,86.6386927 77.4697957,86.6386927 Z" id="Fill-1" fill="#70C9F8"></path>
                        <path d="M105.239736,149.119673 C103.977571,151.013036 102.083515,152.275201 100.82135,154.168332 C99.559185,155.430497 97.665822,156.061696 95.7726901,154.799531 C95.1414921,154.799531 95.1414921,154.168332 94.5105251,154.168332 L88.8299738,148.488706 C87.5678088,147.226541 86.9366108,145.964376 87.5678088,144.070319 C87.5678088,143.439121 88.1987758,142.808154 88.8299738,142.176956 L93.2483602,137.759494 L93.2483602,137.128527 C92.6173932,135.235164 91.3552283,133.342033 90.7240302,131.447745 C90.7240302,130.816778 90.0921388,130.816778 90.0921388,130.816778 L83.7813139,130.816778 C81.888182,130.816778 79.994819,129.554613 79.3638521,127.661481 L79.3638521,118.194435 C79.3638521,116.301072 79.994819,115.038907 81.888182,113.776742 C82.5191489,113.145775 83.150347,113.145775 83.7813139,113.145775 L90.7240302,113.145775 C91.3552283,113.145775 91.3552283,113.145775 91.3552283,112.514808 C91.9861952,110.621445 92.6173932,109.35928 93.2483602,107.465224 C93.2483602,106.834026 93.8795582,106.834026 93.8795582,106.203059 L89.4609407,101.785597 C87.5678088,99.8922339 87.5678088,97.3679039 89.4609407,95.4738475 L95.1414921,89.7942207 C97.0348551,87.9008577 99.559185,87.9008577 101.452317,89.7942207 L105.870703,94.2116826 L106.501901,94.2116826 C108.395033,93.5807156 110.288396,92.3185507 112.181528,91.6873526 C112.812495,91.6873526 112.812495,91.0563857 112.812495,91.0563857 L112.812495,84.7455608 C112.812495,82.8515044 114.07466,80.9581414 115.968948,80.3271745 L125.435069,80.3271745 C127.328201,80.3271745 128.591291,80.9581414 129.853456,82.8515044 C130.484423,83.4833958 130.484423,84.1145939 130.484423,84.7455608 L130.484423,91.6873526 C130.484423,92.3185507 130.484423,92.3185507 131.115621,92.3185507 C133.008753,92.9495176 135.533083,94.2116826 137.426446,94.8428806 L137.426446,94.2116826 L141.844832,89.7942207 C143.106997,88.5320557 145.000129,87.9008577 146.893261,89.1630227 C147.524459,89.1630227 147.524459,89.7942207 148.155426,89.7942207 L153.836208,95.4738475 C155.098142,96.736937 155.72934,97.999102 155.098142,99.8922339 C155.098142,100.523432 154.467175,101.154399 153.836208,101.785597 L149.417591,106.203059 L149.417591,106.834026 C150.048789,108.728313 151.310954,110.621445 151.941921,112.514808 C151.941921,113.145775 152.573119,113.145775 152.573119,113.145775 L158.884637,113.145775 C160.778,113.145775 162.671132,114.40794 163.30233,116.301072 L163.30233,125.768118 C163.30233,127.661481 162.671132,128.923646 160.778,130.185811 C160.146802,130.816778 159.515835,130.816778 158.884637,130.816778 L152.573119,130.816778 C151.941921,130.816778 151.941921,130.816778 151.941921,131.447745 C151.310954,133.342033 150.679756,134.604198 150.048789,136.497329 C150.048789,137.128527 149.417591,137.128527 149.417591,137.759494 L150.048789,137.759494 L154.467175,142.176956 C156.360307,144.070319 156.360307,146.595574 155.098142,147.857508 C153.20501,149.750871 151.310954,152.275201 148.786624,154.168332 C146.893261,156.061696 145.000129,155.430497 143.106997,154.168332 L138.688379,149.750871 L138.057413,149.750871 C136.164281,150.381838 134.270918,151.644003 132.377786,152.275201 C131.746588,152.275201 131.746588,152.906168 131.746588,152.906168 L131.746588,159.217917 C131.746588,161.111049 130.484423,163.004412 128.591291,163.635379 L119.124244,163.635379 C117.231113,163.635379 115.968948,163.004412 114.705858,161.111049 C114.07466,160.480082 114.07466,159.848884 114.07466,159.217917 L114.07466,152.906168 C114.07466,152.275201 114.07466,152.275201 113.443693,152.275201 C111.550561,151.644003 110.288396,151.013036 108.395033,150.381838 C106.501901,149.750871 105.870703,149.750871 105.239736,149.119673 Z M139.950544,121.981623 C139.950544,111.88361 131.746588,103.047762 121.017376,103.047762 C110.919363,103.047762 102.083515,111.252643 102.083515,121.981623 C102.083515,132.078943 110.288396,140.914791 121.017376,140.914791 C131.746588,140.914791 139.950544,132.70991 139.950544,121.981623 Z" id="Combined-Shape" fill="#54C4E9"></path>
                    </g>
                    <rect id="Rectangle-21" fill="#D8EAF9" x="326.808511" y="81.7021277" width="359.489362" height="16.3404255" rx="8.17021277"></rect>
                    <rect id="Rectangle-21-Copy-2" fill="#D8EAF9" x="326.808511" y="152.510638" width="217.87234" height="16.3404255" rx="8.17021277"></rect>
                    <g id="Group-20" transform="translate(283.234043, 228.765957)">
                        <g id="Rectangle-8">
                            <use fill="black" fill-opacity="1" filter="url(#filter-2)" xlink:href="#path-1"></use>
                            <use fill="#72C4B9" fill-rule="evenodd" xlink:href="#path-1"></use>
                        </g>
                        <g id="Group-19" transform="translate(49.021277, 32.680851)" fill="#FFFFFF">
                            <path d="M87.6718298,39.7181277 L100.493617,39.7181277 L100.493617,95.7984681 L113.195574,95.7984681 L113.195574,106.942638 L100.493617,106.942638 L100.493617,125.276596 L87.1925106,125.276596 L87.1925106,106.942638 L45.851234,106.942638 L45.851234,93.6415319 L87.6718298,39.7181277 Z M86.8330213,57.4529362 L57.2350638,95.7984681 L87.1925106,95.7984681 L87.1925106,57.4529362 L86.8330213,57.4529362 Z" id="4"></path>
                            <circle id="Oval-12" opacity="0.6" cx="10.893617" cy="81.7021277" r="10.893617"></circle>
                        </g>
                    </g>
                    <g id="Group-20-Copy" transform="translate(0.000000, 228.765957)">
                        <g id="Rectangle-8">
                            <use fill="black" fill-opacity="1" filter="url(#filter-4)" xlink:href="#path-3"></use>
                            <use fill="#54C4E9" fill-rule="evenodd" xlink:href="#path-3"></use>
                        </g>
                        <g id="Group-19" transform="translate(49.021277, 32.680851)" fill="#FFFFFF">
                            <path d="M80.7217021,38.0405106 C97.4978723,38.0405106 106.964426,45.8294468 109.121362,61.4073191 L95.460766,61.4073191 C93.7831489,53.4985532 88.7502979,49.5441702 80.6018723,49.5441702 C74.8500426,49.5441702 70.2965106,52.3002553 66.9412766,57.9322553 C63.5860426,63.204766 62.0282553,69.7954043 62.0282553,77.7041702 L62.0282553,78.7826383 L62.6274043,78.7826383 C65.024,75.1877447 68.0197447,72.6713191 71.6146383,70.9937021 C74.9698723,69.3160851 78.8044255,68.5971064 83.1182979,68.5971064 C91.506383,68.5971064 98.2168511,71.2333617 103.249702,76.6257021 C108.282553,82.0180426 110.798979,88.9681702 110.798979,97.3562553 C110.798979,105.984 107.803234,113.053957 102.051404,118.566128 C96.2995745,124.078298 89.1097872,126.954213 80.6018723,126.954213 C70.0568511,126.954213 62.0282553,123.11966 56.5160851,115.570383 C51.0039149,108.140936 48.3676596,97.9554043 48.3676596,84.8939574 C48.3676596,70.8738723 51.2435745,59.6098723 57.115234,50.9821277 C62.8670638,42.354383 70.7758298,38.0405106 80.7217021,38.0405106 Z M80.1225532,79.9809362 C74.8500426,79.9809362 70.7758298,81.5387234 67.8999149,84.7741277 C64.9041702,87.8897021 63.4662128,92.3234043 63.4662128,97.8355745 C63.4662128,103.227915 65.024,107.541787 68.1395745,110.657362 C71.2551489,113.772936 75.2095319,115.330723 80.1225532,115.330723 C85.1554043,115.330723 89.1097872,113.653106 92.2253617,110.297872 C95.3409362,106.942638 96.8987234,102.628766 96.8987234,97.3562553 C96.8987234,92.0837447 95.3409362,87.8897021 92.4650213,84.7741277 C89.3494468,81.5387234 85.275234,79.9809362 80.1225532,79.9809362 Z" id="6"></path>
                            <circle id="Oval-12" opacity="0.6" cx="10.893617" cy="81.7021277" r="10.893617"></circle>
                        </g>
                    </g>
                    <rect id="Rectangle-61" fill="url(#linearGradient-5)" opacity="0.201492537" x="566.468085" y="386.723404" width="228.765957" height="240.02885"></rect>
                    <g id="Group-20" transform="translate(566.468085, 228.765957)">
                        <g id="Rectangle-8">
                            <use fill="black" fill-opacity="1" filter="url(#filter-7)" xlink:href="#path-6"></use>
                            <use fill="#3384E8" fill-rule="evenodd" xlink:href="#path-6"></use>
                        </g>
                        <g id="governor--" transform="translate(32.680851, 38.127660)" fill-rule="nonzero" fill="#FFFFFF">
                            <path d="M148.087033,71.5420114 C146.114593,71.5420114 144.234612,71.9426631 142.498455,72.6309622 L102.494924,32.6274308 C103.861249,29.6893184 104.683098,26.4430123 104.683098,22.9809706 C104.683098,10.2936668 94.3997046,0 81.7021277,0 C69.0045507,0 58.721157,10.2833937 58.721157,22.9809706 C58.721157,26.5971091 59.6251916,29.9666926 61.1147941,33.0075363 L21.3372714,72.7747859 C19.4881097,71.9837556 17.4540318,71.5420114 15.3172227,71.5420114 C6.8521714,71.5420114 0,78.404456 0,86.8592342 C0,95.3242855 6.86244452,102.176457 15.3172227,102.176457 C23.7720009,102.176457 30.6344455,95.3140124 30.6344455,86.8592342 C30.6344455,84.2806809 29.9358733,81.8870438 28.80583,79.7502348 L67.5765869,40.9794778 C70.1962327,43.0443751 73.2370763,44.57507 76.5963868,45.3455541 L76.5963868,115.778068 C69.2305593,117.976516 63.8268979,124.73623 63.8268979,132.810902 C63.8268979,142.683371 71.8296588,150.686132 81.7021277,150.686132 C91.5745965,150.686132 99.5773574,142.683371 99.5773574,132.810902 C99.5773574,124.725956 94.173696,117.976516 86.8078686,115.767795 L86.8078686,45.3455541 C90.3110027,44.5442507 93.4545776,42.9108245 96.1461351,40.7226498 L134.803888,79.3804024 C133.550567,81.5993965 132.76981,84.1368572 132.76981,86.8695073 C132.76981,95.3345586 139.632254,102.18673 148.087033,102.18673 C156.541811,102.18673 163.404255,95.3242855 163.404255,86.8695073 C163.404255,78.3941828 156.541811,71.5420114 148.087033,71.5420114 Z" id="Shape"></path>
                        </g>
                    </g>
                </g>
            </g>
        </g>
    </g>
</svg>