<?xml version="1.0" encoding="UTF-8" standalone="no"?>
<svg width="1024px" height="1024px" viewBox="0 0 1024 1024" version="1.1" xmlns="http://www.w3.org/2000/svg" xmlns:xlink="http://www.w3.org/1999/xlink">
    <!-- Generator: Sketch 46.2 (44496) - http://www.bohemiancoding.com/sketch -->
    <title>Pilot</title>
    <desc>Created with Sketch.</desc>
    <defs>
        <filter x="-8.5%" y="-24.0%" width="117.1%" height="148.0%" filterUnits="objectBoundingBox" id="filter-1">
            <feGaussianBlur stdDeviation="21.8221507" in="SourceGraphic"></feGaussianBlur>
        </filter>
        <circle id="path-2" cx="33.3913043" cy="33.3913043" r="33.3913043"></circle>
        <filter x="-17.6%" y="-35.8%" width="135.1%" height="171.5%" filterUnits="objectBoundingBox" id="filter-4">
            <feGaussianBlur stdDeviation="21.8221507" in="SourceGraphic"></feGaussianBlur>
        </filter>
        <filter x="-17.6%" y="-35.8%" width="135.1%" height="171.5%" filterUnits="objectBoundingBox" id="filter-5">
            <feGaussianBlur stdDeviation="21.8221507" in="SourceGraphic"></feGaussianBlur>
        </filter>
        <path d="M59.8570048,119.71401 C26.7988939,119.71401 0,92.9151158 0,59.8570048 C0,26.7988939 26.7988939,0 59.8570048,0 C92.9151158,0 119.71401,26.7988939 119.71401,59.8570048 C119.71401,92.9151158 92.9151158,119.71401 59.8570048,119.71401 Z M59.8570048,100.35942 C82.2258712,100.35942 100.35942,82.2258712 100.35942,59.8570048 C100.35942,37.4881384 82.2258712,19.3545894 59.8570048,19.3545894 C37.4881384,19.3545894 19.3545894,37.4881384 19.3545894,59.8570048 C19.3545894,82.2258712 37.4881384,100.35942 59.8570048,100.35942 Z" id="path-6"></path>
        <filter x="-8.8%" y="-45.1%" width="117.6%" height="190.3%" filterUnits="objectBoundingBox" id="filter-8">
            <feGaussianBlur stdDeviation="21.8221507" in="SourceGraphic"></feGaussianBlur>
        </filter>
        <linearGradient x1="50%" y1="0%" x2="50%" y2="100%" id="linearGradient-9">
            <stop stop-color="#409EF3" offset="0%"></stop>
            <stop stop-color="#409EF3" stop-opacity="0" offset="100%"></stop>
        </linearGradient>
    </defs>
    <g id="Page-1" stroke="none" stroke-width="1" fill="none" fill-rule="evenodd">
        <g id="Pilot">
            <g id="Group-15-Copy-2" transform="translate(0.000000, 120.000000)">
                <path d="M144.695652,0 L1012.86957,0 C1019.01673,-1.1292167e-15 1024,4.98326539 1024,11.1304348 L1024,656.695652 C1024,662.842822 1019.01673,667.826087 1012.86957,667.826087 L144.695652,667.826087 C138.548483,667.826087 133.565217,662.842822 133.565217,656.695652 L133.565217,11.1304348 C133.565217,4.98326539 138.548483,1.1292167e-15 144.695652,0 Z" id="Rectangle-51" fill="#D7E1E7" fill-rule="nonzero"></path>
                <path d="M144.695652,5.56521739 C141.622067,5.56521739 139.130435,8.05685009 139.130435,11.1304348 L139.130435,656.695652 C139.130435,659.769237 141.622067,662.26087 144.695652,662.26087 L1012.86957,662.26087 C1015.94315,662.26087 1018.43478,659.769237 1018.43478,656.695652 L1018.43478,11.1304348 C1018.43478,8.05685009 1015.94315,5.56521739 1012.86957,5.56521739 L144.695652,5.56521739 Z" id="Path" fill="#FFFFFF"></path>
                <path d="M144.695652,0 L1012.86957,0 C1019.01673,-1.1292167e-15 1024,4.98326539 1024,11.1304348 L1024,66.7826087 L133.565217,66.7826087 L133.565217,11.1304348 C133.565217,4.98326539 138.548483,1.1292167e-15 144.695652,0 Z" id="Rectangle-52" fill="#176EDA"></path>
                <circle id="Oval-18" fill="#FEFEFF" cx="172.521739" cy="33.3913043" r="11.1304348"></circle>
                <circle id="Oval-18-Copy" fill="#FEFEFF" cx="222.608696" cy="33.3913043" r="11.1304348"></circle>
                <circle id="Oval-18-Copy-2" fill="#FEFEFF" cx="272.695652" cy="33.3913043" r="11.1304348"></circle>
                <rect id="Rectangle-Copy-2" fill="#E1E8EE" opacity="0.747901119" filter="url(#filter-1)" x="196" y="98" width="766" height="273"></rect>
                <g id="Group-15" transform="translate(189.217391, 89.043478)">
                    <rect id="Rectangle-80" fill="#FFFFFF" x="0" y="0" width="779.130435" height="272.695652"></rect>
                    <g id="Group-44" transform="translate(27.826087, 122.434783)" fill="#EFF6FA">
                        <rect id="Rectangle-36" x="0" y="122.434783" width="723.478261" height="5.56521739"></rect>
                        <path d="M0,91.826087 L11.1304348,91.826087 L11.1304348,86.2608696 L0,86.2608696 L0,91.826087 Z M22.2608696,91.826087 L33.3913043,91.826087 L33.3913043,86.2608696 L22.2608696,86.2608696 L22.2608696,91.826087 Z M44.5217391,91.826087 L55.6521739,91.826087 L55.6521739,86.2608696 L44.5217391,86.2608696 L44.5217391,91.826087 Z M66.7826087,91.826087 L77.9130435,91.826087 L77.9130435,86.2608696 L66.7826087,86.2608696 L66.7826087,91.826087 Z M89.0434783,91.826087 L100.173913,91.826087 L100.173913,86.2608696 L89.0434783,86.2608696 L89.0434783,91.826087 Z M111.304348,91.826087 L122.434783,91.826087 L122.434783,86.2608696 L111.304348,86.2608696 L111.304348,91.826087 Z M133.565217,91.826087 L144.695652,91.826087 L144.695652,86.2608696 L133.565217,86.2608696 L133.565217,91.826087 Z M155.826087,91.826087 L166.956522,91.826087 L166.956522,86.2608696 L155.826087,86.2608696 L155.826087,91.826087 Z M178.086957,91.826087 L189.217391,91.826087 L189.217391,86.2608696 L178.086957,86.2608696 L178.086957,91.826087 Z M200.347826,91.826087 L211.478261,91.826087 L211.478261,86.2608696 L200.347826,86.2608696 L200.347826,91.826087 Z M222.608696,91.826087 L233.73913,91.826087 L233.73913,86.2608696 L222.608696,86.2608696 L222.608696,91.826087 Z M244.869565,91.826087 L256,91.826087 L256,86.2608696 L244.869565,86.2608696 L244.869565,91.826087 Z M267.130435,91.826087 L278.26087,91.826087 L278.26087,86.2608696 L267.130435,86.2608696 L267.130435,91.826087 Z M289.391304,91.826087 L300.521739,91.826087 L300.521739,86.2608696 L289.391304,86.2608696 L289.391304,91.826087 Z M311.652174,91.826087 L322.782609,91.826087 L322.782609,86.2608696 L311.652174,86.2608696 L311.652174,91.826087 Z M333.913043,91.826087 L345.043478,91.826087 L345.043478,86.2608696 L333.913043,86.2608696 L333.913043,91.826087 Z M356.173913,91.826087 L367.304348,91.826087 L367.304348,86.2608696 L356.173913,86.2608696 L356.173913,91.826087 Z M378.434783,91.826087 L389.565217,91.826087 L389.565217,86.2608696 L378.434783,86.2608696 L378.434783,91.826087 Z M400.695652,91.826087 L411.826087,91.826087 L411.826087,86.2608696 L400.695652,86.2608696 L400.695652,91.826087 Z M422.956522,91.826087 L434.086957,91.826087 L434.086957,86.2608696 L422.956522,86.2608696 L422.956522,91.826087 Z M445.217391,91.826087 L456.347826,91.826087 L456.347826,86.2608696 L445.217391,86.2608696 L445.217391,91.826087 Z M467.478261,91.826087 L478.608696,91.826087 L478.608696,86.2608696 L467.478261,86.2608696 L467.478261,91.826087 Z M489.73913,91.826087 L500.869565,91.826087 L500.869565,86.2608696 L489.73913,86.2608696 L489.73913,91.826087 Z M512,91.826087 L523.130435,91.826087 L523.130435,86.2608696 L512,86.2608696 L512,91.826087 Z M534.26087,91.826087 L545.391304,91.826087 L545.391304,86.2608696 L534.26087,86.2608696 L534.26087,91.826087 Z M556.521739,91.826087 L567.652174,91.826087 L567.652174,86.2608696 L556.521739,86.2608696 L556.521739,91.826087 Z M578.782609,91.826087 L589.913043,91.826087 L589.913043,86.2608696 L578.782609,86.2608696 L578.782609,91.826087 Z M601.043478,91.826087 L612.173913,91.826087 L612.173913,86.2608696 L601.043478,86.2608696 L601.043478,91.826087 Z M623.304348,91.826087 L634.434783,91.826087 L634.434783,86.2608696 L623.304348,86.2608696 L623.304348,91.826087 Z M645.565217,91.826087 L656.695652,91.826087 L656.695652,86.2608696 L645.565217,86.2608696 L645.565217,91.826087 Z M667.826087,91.826087 L678.956522,91.826087 L678.956522,86.2608696 L667.826087,86.2608696 L667.826087,91.826087 Z M690.086957,91.826087 L701.217391,91.826087 L701.217391,86.2608696 L690.086957,86.2608696 L690.086957,91.826087 Z M712.347826,91.826087 L723.478261,91.826087 L723.478261,86.2608696 L712.347826,86.2608696 L712.347826,91.826087 Z" id="Path-9" fill-rule="nonzero"></path>
                        <path d="M4.49881678e-15,52.8695652 L11.1304348,52.8695652 L11.1304348,47.3043478 L-4.4408921e-16,47.3043478 L4.49881678e-15,52.8695652 Z M22.2608696,52.8695652 L33.3913043,52.8695652 L33.3913043,47.3043478 L22.2608696,47.3043478 L22.2608696,52.8695652 Z M44.5217391,52.8695652 L55.6521739,52.8695652 L55.6521739,47.3043478 L44.5217391,47.3043478 L44.5217391,52.8695652 Z M66.7826087,52.8695652 L77.9130435,52.8695652 L77.9130435,47.3043478 L66.7826087,47.3043478 L66.7826087,52.8695652 Z M89.0434783,52.8695652 L100.173913,52.8695652 L100.173913,47.3043478 L89.0434783,47.3043478 L89.0434783,52.8695652 Z M111.304348,52.8695652 L122.434783,52.8695652 L122.434783,47.3043478 L111.304348,47.3043478 L111.304348,52.8695652 Z M133.565217,52.8695652 L144.695652,52.8695652 L144.695652,47.3043478 L133.565217,47.3043478 L133.565217,52.8695652 Z M155.826087,52.8695652 L166.956522,52.8695652 L166.956522,47.3043478 L155.826087,47.3043478 L155.826087,52.8695652 Z M178.086957,52.8695652 L189.217391,52.8695652 L189.217391,47.3043478 L178.086957,47.3043478 L178.086957,52.8695652 Z M200.347826,52.8695652 L211.478261,52.8695652 L211.478261,47.3043478 L200.347826,47.3043478 L200.347826,52.8695652 Z M222.608696,52.8695652 L233.73913,52.8695652 L233.73913,47.3043478 L222.608696,47.3043478 L222.608696,52.8695652 Z M244.869565,52.8695652 L256,52.8695652 L256,47.3043478 L244.869565,47.3043478 L244.869565,52.8695652 Z M267.130435,52.8695652 L278.26087,52.8695652 L278.26087,47.3043478 L267.130435,47.3043478 L267.130435,52.8695652 Z M289.391304,52.8695652 L300.521739,52.8695652 L300.521739,47.3043478 L289.391304,47.3043478 L289.391304,52.8695652 Z M311.652174,52.8695652 L322.782609,52.8695652 L322.782609,47.3043478 L311.652174,47.3043478 L311.652174,52.8695652 Z M333.913043,52.8695652 L345.043478,52.8695652 L345.043478,47.3043478 L333.913043,47.3043478 L333.913043,52.8695652 Z M356.173913,52.8695652 L367.304348,52.8695652 L367.304348,47.3043478 L356.173913,47.3043478 L356.173913,52.8695652 Z M378.434783,52.8695652 L389.565217,52.8695652 L389.565217,47.3043478 L378.434783,47.3043478 L378.434783,52.8695652 Z M400.695652,52.8695652 L411.826087,52.8695652 L411.826087,47.3043478 L400.695652,47.3043478 L400.695652,52.8695652 Z M422.956522,52.8695652 L434.086957,52.8695652 L434.086957,47.3043478 L422.956522,47.3043478 L422.956522,52.8695652 Z M445.217391,52.8695652 L456.347826,52.8695652 L456.347826,47.3043478 L445.217391,47.3043478 L445.217391,52.8695652 Z M467.478261,52.8695652 L478.608696,52.8695652 L478.608696,47.3043478 L467.478261,47.3043478 L467.478261,52.8695652 Z M489.73913,52.8695652 L500.869565,52.8695652 L500.869565,47.3043478 L489.73913,47.3043478 L489.73913,52.8695652 Z M512,52.8695652 L523.130435,52.8695652 L523.130435,47.3043478 L512,47.3043478 L512,52.8695652 Z M534.26087,52.8695652 L545.391304,52.8695652 L545.391304,47.3043478 L534.26087,47.3043478 L534.26087,52.8695652 Z M556.521739,52.8695652 L567.652174,52.8695652 L567.652174,47.3043478 L556.521739,47.3043478 L556.521739,52.8695652 Z M578.782609,52.8695652 L589.913043,52.8695652 L589.913043,47.3043478 L578.782609,47.3043478 L578.782609,52.8695652 Z M601.043478,52.8695652 L612.173913,52.8695652 L612.173913,47.3043478 L601.043478,47.3043478 L601.043478,52.8695652 Z M623.304348,52.8695652 L634.434783,52.8695652 L634.434783,47.3043478 L623.304348,47.3043478 L623.304348,52.8695652 Z M645.565217,52.8695652 L656.695652,52.8695652 L656.695652,47.3043478 L645.565217,47.3043478 L645.565217,52.8695652 Z M667.826087,52.8695652 L678.956522,52.8695652 L678.956522,47.3043478 L667.826087,47.3043478 L667.826087,52.8695652 Z M690.086957,52.8695652 L701.217391,52.8695652 L701.217391,47.3043478 L690.086957,47.3043478 L690.086957,52.8695652 Z M712.347826,52.8695652 L723.478261,52.8695652 L723.478261,47.3043478 L712.347826,47.3043478 L712.347826,52.8695652 Z" id="Path-9" fill-rule="nonzero"></path>
                        <path d="M3.37411258e-15,11.1304348 L11.1304348,11.1304348 L11.1304348,5.56521739 L-3.33066907e-16,5.56521739 L3.37411258e-15,11.1304348 Z M22.2608696,11.1304348 L33.3913043,11.1304348 L33.3913043,5.56521739 L22.2608696,5.56521739 L22.2608696,11.1304348 Z M44.5217391,11.1304348 L55.6521739,11.1304348 L55.6521739,5.56521739 L44.5217391,5.56521739 L44.5217391,11.1304348 Z M66.7826087,11.1304348 L77.9130435,11.1304348 L77.9130435,5.56521739 L66.7826087,5.56521739 L66.7826087,11.1304348 Z M89.0434783,11.1304348 L100.173913,11.1304348 L100.173913,5.56521739 L89.0434783,5.56521739 L89.0434783,11.1304348 Z M111.304348,11.1304348 L122.434783,11.1304348 L122.434783,5.56521739 L111.304348,5.56521739 L111.304348,11.1304348 Z M133.565217,11.1304348 L144.695652,11.1304348 L144.695652,5.56521739 L133.565217,5.56521739 L133.565217,11.1304348 Z M155.826087,11.1304348 L166.956522,11.1304348 L166.956522,5.56521739 L155.826087,5.56521739 L155.826087,11.1304348 Z M178.086957,11.1304348 L189.217391,11.1304348 L189.217391,5.56521739 L178.086957,5.56521739 L178.086957,11.1304348 Z M200.347826,11.1304348 L211.478261,11.1304348 L211.478261,5.56521739 L200.347826,5.56521739 L200.347826,11.1304348 Z M222.608696,11.1304348 L233.73913,11.1304348 L233.73913,5.56521739 L222.608696,5.56521739 L222.608696,11.1304348 Z M244.869565,11.1304348 L256,11.1304348 L256,5.56521739 L244.869565,5.56521739 L244.869565,11.1304348 Z M267.130435,11.1304348 L278.26087,11.1304348 L278.26087,5.56521739 L267.130435,5.56521739 L267.130435,11.1304348 Z M289.391304,11.1304348 L300.521739,11.1304348 L300.521739,5.56521739 L289.391304,5.56521739 L289.391304,11.1304348 Z M311.652174,11.1304348 L322.782609,11.1304348 L322.782609,5.56521739 L311.652174,5.56521739 L311.652174,11.1304348 Z M333.913043,11.1304348 L345.043478,11.1304348 L345.043478,5.56521739 L333.913043,5.56521739 L333.913043,11.1304348 Z M356.173913,11.1304348 L367.304348,11.1304348 L367.304348,5.56521739 L356.173913,5.56521739 L356.173913,11.1304348 Z M378.434783,11.1304348 L389.565217,11.1304348 L389.565217,5.56521739 L378.434783,5.56521739 L378.434783,11.1304348 Z M400.695652,11.1304348 L411.826087,11.1304348 L411.826087,5.56521739 L400.695652,5.56521739 L400.695652,11.1304348 Z M422.956522,11.1304348 L434.086957,11.1304348 L434.086957,5.56521739 L422.956522,5.56521739 L422.956522,11.1304348 Z M445.217391,11.1304348 L456.347826,11.1304348 L456.347826,5.56521739 L445.217391,5.56521739 L445.217391,11.1304348 Z M467.478261,11.1304348 L478.608696,11.1304348 L478.608696,5.56521739 L467.478261,5.56521739 L467.478261,11.1304348 Z M489.73913,11.1304348 L500.869565,11.1304348 L500.869565,5.56521739 L489.73913,5.56521739 L489.73913,11.1304348 Z M512,11.1304348 L523.130435,11.1304348 L523.130435,5.56521739 L512,5.56521739 L512,11.1304348 Z M534.26087,11.1304348 L545.391304,11.1304348 L545.391304,5.56521739 L534.26087,5.56521739 L534.26087,11.1304348 Z M556.521739,11.1304348 L567.652174,11.1304348 L567.652174,5.56521739 L556.521739,5.56521739 L556.521739,11.1304348 Z M578.782609,11.1304348 L589.913043,11.1304348 L589.913043,5.56521739 L578.782609,5.56521739 L578.782609,11.1304348 Z M601.043478,11.1304348 L612.173913,11.1304348 L612.173913,5.56521739 L601.043478,5.56521739 L601.043478,11.1304348 Z M623.304348,11.1304348 L634.434783,11.1304348 L634.434783,5.56521739 L623.304348,5.56521739 L623.304348,11.1304348 Z M645.565217,11.1304348 L656.695652,11.1304348 L656.695652,5.56521739 L645.565217,5.56521739 L645.565217,11.1304348 Z M667.826087,11.1304348 L678.956522,11.1304348 L678.956522,5.56521739 L667.826087,5.56521739 L667.826087,11.1304348 Z M690.086957,11.1304348 L701.217391,11.1304348 L701.217391,5.56521739 L690.086957,5.56521739 L690.086957,11.1304348 Z M712.347826,11.1304348 L723.478261,11.1304348 L723.478261,5.56521739 L712.347826,5.56521739 L712.347826,11.1304348 Z" id="Path-9" fill-rule="nonzero"></path>
                    </g>
                    <polygon id="Path-10" fill="#C6EFE9" opacity="0.60441931" points="27.826087 144.695652 239.304348 194.782609 422.956522 122.434783 584.347826 211.478261 751.304348 178.086957 751.304348 250.434783 27.826087 250.434783"></polygon>
                    <path d="M583.904278,214.411571 L746.302903,180.811855 C747.807822,180.500492 748.775392,179.028104 748.464029,177.523184 C748.152666,176.018264 746.680278,175.050695 745.175358,175.362058 L584.791374,208.544951 L423.15457,119.366025 L239.096429,191.873777 L28.4673847,141.987951 C26.9719624,141.633772 25.4725643,142.558932 25.1183853,144.054354 C24.7642063,145.549777 25.6893669,147.049175 27.1847892,147.403354 L239.512266,197.69144 L422.758473,125.503541 L583.904278,214.411571 Z" id="Path-10" fill="#72C4B9" fill-rule="nonzero"></path>
                    <g id="Group-42" transform="translate(61.217391, 33.391304)">
                        <g id="Group-41">
                            <g id="Group-14">
                                <mask id="mask-3" fill="white">
                                    <use xlink:href="#path-2"></use>
                                </mask>
                                <use id="Mask" fill="#D8EAF9" xlink:href="#path-2"></use>
                                <path d="M25.2978261,18.9664968 C27.6481922,17.3625918 30.6450343,16.9114935 33.4915332,16.8713959 C35.1002059,16.9014691 36.7840503,17.1069694 38.1822426,17.9089219 C38.6984211,18.1996297 39.1193822,18.6156425 39.4501373,19.0817774 C40.808238,19.2772533 42.1663387,19.7333638 43.1886728,20.6155116 C44.6770709,21.8936233 45.3636384,23.7731995 45.5640961,25.6076658 C45.9048741,28.6951829 45.2483753,31.7927244 44.3012128,34.7398998 C45.0629519,35.2962543 45.4438215,36.2235119 45.3536156,37.115684 C45.2483753,38.1331612 45.0278719,39.1857239 44.4064531,40.0428106 C44.0807094,40.5039333 43.5645309,40.8347387 42.9832037,40.9399949 C42.7526773,42.4937779 42.2014188,43.9974388 41.3945767,45.3707824 C40.6077803,46.7140528 38.5230206,47.6613592 38.5230206,47.6613592 L38.5230206,50.2276072 C38.9940961,51.5157434 50.7158581,54.9440902 54.1386728,57.159484 C55.8726316,58.2421199 57.3760641,59.7207198 58.1829062,61.5451617 C58.7040961,62.6779196 58.9496568,66.9633532 59.0498856,68.1863307 C41.9458352,68.1913429 24.8367735,68.1863307 7.73272311,68.1863307 C7.85299771,66.2816935 8.45938215,61.3095881 9.67716247,59.7658296 C10.6193135,58.5478642 11.8922197,57.6005579 13.235286,56.7935932 C16.3273455,54.9992245 27.6782609,51.7813901 28.2595881,50.222595 L28.2595881,47.656347 C27.5028604,47.4859321 26.0996568,46.8343457 25.2878032,45.1301967 C24.6413272,43.7769019 24.0199085,42.4085704 23.799405,40.9399949 C22.9524714,40.7996532 22.3360641,40.153079 22.0153318,39.4413462 C21.654508,38.6644547 21.4740961,37.8173924 21.4189703,36.9753423 C21.3688558,36.1232678 21.7597483,35.2661811 22.4813959,34.7398998 C21.7948284,32.1636274 21.2936842,29.5171842 21.4039359,26.8557044 C21.4740961,25.2117018 21.7998398,23.5476503 22.5665904,22.0540138 C23.1829977,20.8410607 24.1251487,19.7534126 25.2978261,18.9664968 Z" id="Shape" fill="#B4CDE2" fill-rule="nonzero" mask="url(#mask-3)"></path>
                            </g>
                            <text id="6" font-family="PingFangSC-Semibold, PingFang SC" font-size="8" font-weight="500" letter-spacing="-0.224000007" fill="#A9B9C6">
                                <tspan x="89.0434783" y="38.673913">6</tspan>
                            </text>
                        </g>
                        <g id="Group-28" transform="translate(172.521739, 0.000000)">
                            <g id="Group-26">
                                <circle id="Oval-10" fill="#D8EAF9" cx="33.3913043" cy="33.3913043" r="33.3913043"></circle>
                                <path d="M15.299415,26.3585461 C14.5758103,26.3585461 13.9130435,26.9246615 13.9130435,27.7195328 L13.9130435,45.4586827 C13.9130435,45.9355062 14.1709407,46.3828348 14.5859921,46.6261209 L29.672664,55.4585633 C29.9004585,55.5926874 30.1433043,55.6521118 30.3809012,55.6521118 C31.1045059,55.6521118 31.7672727,55.0859965 31.7672727,54.2911251 L31.7672727,36.5420401 C31.7672727,36.0651546 31.5091225,35.6178881 31.0894545,35.3746019 L16.0076522,26.5520946 C15.7799209,26.4179705 15.5370751,26.3585461 15.299415,26.3585461 Z M33.3811858,11.1378861 C33.1181028,11.1378861 32.8500237,11.207494 32.6173597,11.3464615 L16.2554308,20.9190079 C15.2841107,21.490215 15.2841107,22.8713204 16.2554308,23.4374357 L32.6274783,33.0150118 C32.8651383,33.1540414 33.1282213,33.2236493 33.3913043,33.2236493 C33.6543874,33.2236493 33.9224032,33.1540414 34.1551304,33.0150118 L50.5170593,23.4473708 C51.4883794,22.8812555 51.4883794,21.4953068 50.5170593,20.9289431 L34.1452648,11.3416181 C33.9073518,11.207494 33.6442688,11.1378861 33.3811858,11.1378861 Z M51.4632095,26.3684812 C51.2252964,26.3684812 50.9824506,26.4279056 50.7599051,26.5620297 L35.6931542,35.3746019 C35.2734862,35.6178881 35.015336,36.0651546 35.015336,36.5420401 L35.015336,54.2712549 C35.015336,55.0660642 35.6781028,55.6322416 36.4017075,55.6322416 C36.6393043,55.6322416 36.8821502,55.5728172 37.1099447,55.438631 L52.1763794,46.6212155 C52.5963636,46.377743 52.8493281,45.9306628 52.8493281,45.4538393 L52.8493281,27.729468 C52.8493281,26.9345966 52.186498,26.3684812 51.4632095,26.3684812 Z" id="Fill-1" fill="#B4CDE2"></path>
                            </g>
                            <text id="36" font-family="PingFangSC-Semibold, PingFang SC" font-size="8" font-weight="500" letter-spacing="-0.224000007" fill="#A9B9C6">
                                <tspan x="89.0434783" y="38.673913">36</tspan>
                            </text>
                        </g>
                        <g id="Group-30" transform="translate(372.869565, 0.000000)">
                            <g id="Group-26-Copy">
                                <circle id="Oval-10" fill="#D8EAF9" cx="33.3913043" cy="33.3913043" r="33.3913043"></circle>
                                <path d="M34.256432,32.1145682 L53.4347235,23.835801 C49.9747483,16.606207 42.725605,11.5355491 34.256432,11.2018035 L34.256432,32.1145682 Z M32.4773032,33.688897 L32.4773032,11.2018035 C20.6093474,11.6689135 11.1304348,21.4349746 11.1304348,33.415875 C11.1304348,45.6983181 21.0860982,55.6521739 33.3667337,55.6521739 C37.680522,55.6521739 41.7046177,54.4185535 45.1138448,52.2947661 L45.1263644,52.3125079 L45.7888345,51.8624701 C45.7969355,51.8569802 45.8039652,51.8516911 45.8110619,51.8462012 L45.9436229,51.7575595 L32.4773032,33.688897 Z M55.6033004,33.415875 C55.6033004,30.6160267 55.079149,27.9385629 54.1337483,25.4695145 L34.7305718,33.8382624 L47.3535226,50.692653 C52.3823367,46.6173406 55.6033004,40.396482 55.6033004,33.415875 Z" id="大数据" fill="#B4CDE2"></path>
                            </g>
                            <text id="2" font-family="PingFangSC-Semibold, PingFang SC" font-size="8" font-weight="500" letter-spacing="-0.224000007" fill="#A9B9C6">
                                <tspan x="89.0434783" y="38.673913">2</tspan>
                            </text>
                        </g>
                        <g id="Group-31" transform="translate(545.391304, 0.000000)">
                            <g id="Group-26-Copy-2">
                                <circle id="Oval-10" fill="#D8EAF9" cx="33.3913043" cy="33.3913043" r="33.3913043"></circle>
                                <path d="M50.337823,33.5348823 C50.3281108,33.537796 50.3201253,33.5435154 50.3146217,33.5435154 L50.3146217,33.5624541 C47.7167289,34.904026 45.3393019,35.4366297 43.1999846,35.4366297 C39.964489,35.4366297 37.2803738,34.2152186 35.2163257,32.7046552 C35.2041315,32.6960222 35.187459,32.68631 35.1771533,32.6740619 L38.929821,18.4590861 C40.1158367,19.4695276 42.7982792,21.3645304 46.8662681,21.3645304 C48.9126186,21.3645304 51.3059087,20.8850199 54.0384767,19.5797606 L50.337823,33.5348823 Z M25.6774274,28.0053764 L25.5771225,28.0053764 C23.6355014,28.0053764 21.3253041,28.5691668 18.4769996,29.8403257 L22.1355134,15.7766436 C24.9079012,14.5381823 27.1629011,14.0397331 29.0444687,14.0005068 L29.0878497,14.0005068 C30.1937401,14.0005068 31.1923652,14.14511 32.0759012,14.3733995 C33.9275231,14.8901939 36.5877895,16.6344964 36.5877895,16.6344964 L36.5877895,16.6450179 C35.8254395,19.503682 33.5679036,27.9758622 32.8074961,30.7974043 C30.8218466,29.3559591 28.6886802,28.0395308 25.6774274,28.0053764 Z M24.2638237,31.4334963 C24.5049548,31.4107267 24.7437119,31.4023095 24.9838179,31.4023095 C27.0948621,31.4023095 29.0216991,32.2099829 30.4062204,32.9868472 C30.9976365,33.3352436 31.5572184,33.7148269 32.1138326,34.093385 C31.6214804,35.9369674 29.0315732,45.618958 28.2686297,48.4489712 C26.212567,46.950602 24.0340773,45.6219256 20.8930054,45.6219256 C18.9870495,45.6219256 16.719208,46.1174612 13.9130435,47.3561383 L17.6271863,33.2600284 C18.0502045,33.0707494 18.4628631,32.8987364 18.8633275,32.7406981 C20.2177411,32.2184001 22.1464666,31.625743 24.2638237,31.4334963 Z M42.3609086,38.7326104 C44.3332848,38.7326104 46.6660359,38.3340344 49.3735681,37.271525 L45.8050536,50.9279981 C42.7278661,52.3180229 40.2675621,52.8695652 38.2096649,52.8695652 C34.9590076,52.8695652 30.6253913,49.945398 30.6308949,49.9489592 L34.3327896,35.8750254 C35.4599928,36.8595139 38.0694862,38.7326104 42.3609086,38.7326104 Z" id="科技-2" fill="#B4CDE2"></path>
                            </g>
                            <text id="6" font-family="PingFangSC-Semibold, PingFang SC" font-size="8" font-weight="500" letter-spacing="-0.224000007" fill="#A9B9C6">
                                <tspan x="89.0434783" y="38.673913">6</tspan>
                            </text>
                        </g>
                    </g>
                </g>
                <rect id="Rectangle" fill="#E1E8EE" opacity="0.747901119" filter="url(#filter-4)" x="189" y="401" width="373" height="183"></rect>
                <rect id="Rectangle-Copy" fill="#E1E8EE" opacity="0.747901119" filter="url(#filter-5)" x="595" y="401" width="373" height="183"></rect>
                <g id="Group-45" transform="translate(189.217391, 395.130435)">
                    <rect id="Rectangle-8" fill="#FFFFFF" x="0" y="0" width="372.869565" height="166.956522"></rect>
                    <path d="M27.826087,130.782609 L38.9565217,130.782609 L38.9565217,125.217391 L27.826087,125.217391 L27.826087,130.782609 Z M50.0869565,130.782609 L61.2173913,130.782609 L61.2173913,125.217391 L50.0869565,125.217391 L50.0869565,130.782609 Z M72.3478261,130.782609 L83.4782609,130.782609 L83.4782609,125.217391 L72.3478261,125.217391 L72.3478261,130.782609 Z M94.6086957,130.782609 L105.73913,130.782609 L105.73913,125.217391 L94.6086957,125.217391 L94.6086957,130.782609 Z M116.869565,130.782609 L128,130.782609 L128,125.217391 L116.869565,125.217391 L116.869565,130.782609 Z M139.130435,130.782609 L150.26087,130.782609 L150.26087,125.217391 L139.130435,125.217391 L139.130435,130.782609 Z M161.391304,130.782609 L172.521739,130.782609 L172.521739,125.217391 L161.391304,125.217391 L161.391304,130.782609 Z M183.652174,130.782609 L194.782609,130.782609 L194.782609,125.217391 L183.652174,125.217391 L183.652174,130.782609 Z M205.913043,130.782609 L217.043478,130.782609 L217.043478,125.217391 L205.913043,125.217391 L205.913043,130.782609 Z M228.173913,130.782609 L239.304348,130.782609 L239.304348,125.217391 L228.173913,125.217391 L228.173913,130.782609 Z M250.434783,130.782609 L261.565217,130.782609 L261.565217,125.217391 L250.434783,125.217391 L250.434783,130.782609 Z M272.695652,130.782609 L283.826087,130.782609 L283.826087,125.217391 L272.695652,125.217391 L272.695652,130.782609 Z M294.956522,130.782609 L306.086957,130.782609 L306.086957,125.217391 L294.956522,125.217391 L294.956522,130.782609 Z M317.217391,130.782609 L328.347826,130.782609 L328.347826,125.217391 L317.217391,125.217391 L317.217391,130.782609 Z M339.478261,130.782609 L342.817391,130.782609 L342.817391,125.217391 L339.478261,125.217391 L339.478261,130.782609 Z" id="Path-9" fill="#EFF6FA" fill-rule="nonzero"></path>
                    <path d="M27.826087,86.2608696 L38.9565217,86.2608696 L38.9565217,80.6956522 L27.826087,80.6956522 L27.826087,86.2608696 Z M50.0869565,86.2608696 L61.2173913,86.2608696 L61.2173913,80.6956522 L50.0869565,80.6956522 L50.0869565,86.2608696 Z M72.3478261,86.2608696 L83.4782609,86.2608696 L83.4782609,80.6956522 L72.3478261,80.6956522 L72.3478261,86.2608696 Z M94.6086957,86.2608696 L105.73913,86.2608696 L105.73913,80.6956522 L94.6086957,80.6956522 L94.6086957,86.2608696 Z M116.869565,86.2608696 L128,86.2608696 L128,80.6956522 L116.869565,80.6956522 L116.869565,86.2608696 Z M139.130435,86.2608696 L150.26087,86.2608696 L150.26087,80.6956522 L139.130435,80.6956522 L139.130435,86.2608696 Z M161.391304,86.2608696 L172.521739,86.2608696 L172.521739,80.6956522 L161.391304,80.6956522 L161.391304,86.2608696 Z M183.652174,86.2608696 L194.782609,86.2608696 L194.782609,80.6956522 L183.652174,80.6956522 L183.652174,86.2608696 Z M205.913043,86.2608696 L217.043478,86.2608696 L217.043478,80.6956522 L205.913043,80.6956522 L205.913043,86.2608696 Z M228.173913,86.2608696 L239.304348,86.2608696 L239.304348,80.6956522 L228.173913,80.6956522 L228.173913,86.2608696 Z M250.434783,86.2608696 L261.565217,86.2608696 L261.565217,80.6956522 L250.434783,80.6956522 L250.434783,86.2608696 Z M272.695652,86.2608696 L283.826087,86.2608696 L283.826087,80.6956522 L272.695652,80.6956522 L272.695652,86.2608696 Z M294.956522,86.2608696 L306.086957,86.2608696 L306.086957,80.6956522 L294.956522,80.6956522 L294.956522,86.2608696 Z M317.217391,86.2608696 L328.347826,86.2608696 L328.347826,80.6956522 L317.217391,80.6956522 L317.217391,86.2608696 Z M339.478261,86.2608696 L342.817391,86.2608696 L342.817391,80.6956522 L339.478261,80.6956522 L339.478261,86.2608696 Z" id="Path-9" fill="#EFF6FA" fill-rule="nonzero"></path>
                    <path d="M27.8335095,42.5793537 L38.9639047,42.5496634 L38.9490596,36.9844659 L27.8186644,37.0141561 L27.8335095,42.5793537 Z M50.0942999,42.5199732 L61.2246951,42.490283 L61.20985,36.9250854 L50.0794548,36.9547756 L50.0942999,42.5199732 Z M72.3550902,42.4605928 L83.4854854,42.4309026 L83.4706403,36.865705 L72.3402451,36.8953952 L72.3550902,42.4605928 Z M94.6158806,42.4012124 L105.746276,42.3715221 L105.731431,36.8063245 L94.6010355,36.8360148 L94.6158806,42.4012124 Z M116.876671,42.3418319 L128.007066,42.3121417 L127.992221,36.7469441 L116.861826,36.7766343 L116.876671,42.3418319 Z M139.137461,42.2824515 L150.267857,42.2527613 L150.253011,36.6875637 L139.122616,36.7172539 L139.137461,42.2824515 Z M161.398252,42.2230711 L172.528647,42.1933808 L172.513802,36.6281832 L161.383407,36.6578735 L161.398252,42.2230711 Z M183.659042,42.1636906 L194.789437,42.1340004 L194.774592,36.5688028 L183.644197,36.598493 L183.659042,42.1636906 Z M205.919832,42.1043102 L217.050228,42.07462 L217.035383,36.5094224 L205.904987,36.5391126 L205.919832,42.1043102 Z M228.180623,42.0449297 L239.311018,42.0152395 L239.296173,36.4500419 L228.165778,36.4797322 L228.180623,42.0449297 Z M250.441413,41.9855493 L261.571808,41.9558591 L261.556963,36.3906615 L250.426568,36.4203517 L250.441413,41.9855493 Z M272.702204,41.9261689 L283.832599,41.8964787 L283.817754,36.3312811 L272.687358,36.3609713 L272.702204,41.9261689 Z M294.962994,41.8667884 L306.093389,41.8370982 L306.078544,36.2719006 L294.948149,36.3015908 L294.962994,41.8667884 Z M317.223784,41.807408 L328.354179,41.7777178 L328.339334,36.2125202 L317.208939,36.2422104 L317.223784,41.807408 Z M339.484575,41.7480276 L342.823681,41.7391205 L342.808836,36.1739229 L339.46973,36.18283 L339.484575,41.7480276 Z" id="Path-9" fill="#EFF6FA" fill-rule="nonzero"></path>
                    <rect id="Rectangle-82" fill="#176EDA" x="77.9130435" y="27.826087" width="244.869565" height="16.6956522" rx="8.34782609"></rect>
                    <rect id="Rectangle-82-Copy" fill="#40C6F3" x="77.9130435" y="72.3478261" width="194.782609" height="16.6956522" rx="8.34782609"></rect>
                    <rect id="Rectangle-82-Copy-2" fill="#D8EAF9" x="77.9130435" y="116.869565" width="150.26087" height="16.6956522" rx="8.34782609"></rect>
                </g>
                <g id="Group-45-Copy" transform="translate(595.478261, 395.130435)">
                    <rect id="Rectangle-8" fill="#FFFFFF" x="0" y="0" width="372.869565" height="166.956522"></rect>
                    <g id="Group-4" transform="translate(38.956522, 22.260870)">
                        <mask id="mask-7" fill="white">
                            <use xlink:href="#path-6"></use>
                        </mask>
                        <use id="Combined-Shape" fill="#409EF3" xlink:href="#path-6"></use>
                        <polygon id="Rectangle-2" fill="#40C6F3" mask="url(#mask-7)" points="59.8570048 -24.4869565 230.242289 104.643808 -21.9412635 145.597458 59.8570048 57.1362319"></polygon>
                        <polygon id="Rectangle-2" fill="#AAC3DD" mask="url(#mask-7)" points="59.8570048 -24.4869565 174.129469 -24.4869565 89.9985472 144.99059 59.8570048 57.1362319"></polygon>
                        <polygon id="Rectangle-2" fill="#7EACCB" mask="url(#mask-7)" points="59.8570048 -24.4869565 174.129469 -24.4869565 152.63281 110.986077 59.8570048 57.1362319"></polygon>
                        <polygon id="Rectangle-2" fill="#5A67BF" mask="url(#mask-7)" points="59.8570048 -24.4869565 174.129469 -24.4869565 165.230298 53.8235767 59.8570048 57.1362319"></polygon>
                        <polygon id="Rectangle-2" fill="#72C4B9" mask="url(#mask-7)" points="59.8570048 -24.4869565 174.129469 -24.4869565 161.574166 16.3246377 59.8570048 57.1362319"></polygon>
                    </g>
                    <g id="Group-55" transform="translate(189.217391, 11.130435)">
                        <text id="39" font-family="PingFangSC-Semibold, PingFang SC" font-size="6" font-weight="500" letter-spacing="0.0471428595" fill="#A9B9C6">
                            <tspan x="5.56521739" y="28.7130435">39</tspan>
                        </text>
                        <rect id="Rectangle-3" fill="#D8EAF9" x="2.22608696" y="51.2" width="133.565217" height="10.0173913" rx="5.00869565"></rect>
                        <rect id="Rectangle-3" fill="#409EF3" x="2.22608696" y="51.2" width="83.4782609" height="10.0173913" rx="5.00869565"></rect>
                    </g>
                    <g id="Group-54" transform="translate(189.217391, 77.913043)">
                        <text id="54" font-family="PingFangSC-Semibold, PingFang SC" font-size="6" font-weight="500" letter-spacing="0.0471428595" fill="#A9B9C6">
                            <tspan x="5.56521739" y="26.4869565">54</tspan>
                        </text>
                        <rect id="Rectangle-3-Copy" fill="#D8EAF9" x="2.22608696" y="48.973913" width="133.565217" height="10.0173913" rx="5.00869565"></rect>
                        <rect id="Rectangle-3-Copy-2" fill="#40C6F3" x="2.22608696" y="48.973913" width="83.4782609" height="10.0173913" rx="5.00869565"></rect>
                    </g>
                </g>
                <rect id="Rectangle" fill="#E1E8EE" opacity="0.747901119" filter="url(#filter-8)" x="213" y="604" width="745" height="145"></rect>
                <g id="Group-45-Copy-2" transform="translate(189.217391, 589.913043)">
                    <rect id="Rectangle-8" fill="#FFFFFF" x="0" y="0" width="779.130435" height="144.695652"></rect>
                    <rect id="Rectangle-16" fill="#E4E9EF" x="22.2608696" y="111.304348" width="734.608696" height="5.56521739"></rect>
                    <rect id="Rectangle-16-Copy" fill="#E4E9EF" x="22.2608696" y="83.4782609" width="506.434783" height="5.56521739"></rect>
                    <path d="M27.826087,33.3913043 L27.826087,55.6521739 L139.130435,55.6521739 L139.130435,33.3913043 L27.826087,33.3913043 Z M27.826087,27.826087 L139.130435,27.826087 C142.204019,27.826087 144.695652,30.3177197 144.695652,33.3913043 L144.695652,55.6521739 C144.695652,58.7257586 142.204019,61.2173913 139.130435,61.2173913 L27.826087,61.2173913 C24.7525023,61.2173913 22.2608696,58.7257586 22.2608696,55.6521739 L22.2608696,33.3913043 C22.2608696,30.3177197 24.7525023,27.826087 27.826087,27.826087 Z" id="Rectangle-74" fill="#E4E9EF" fill-rule="nonzero"></path>
                    <path d="M161.391304,33.3913043 L161.391304,55.6521739 L272.695652,55.6521739 L272.695652,33.3913043 L161.391304,33.3913043 Z M161.391304,27.826087 L272.695652,27.826087 C275.769237,27.826087 278.26087,30.3177197 278.26087,33.3913043 L278.26087,55.6521739 C278.26087,58.7257586 275.769237,61.2173913 272.695652,61.2173913 L161.391304,61.2173913 C158.31772,61.2173913 155.826087,58.7257586 155.826087,55.6521739 L155.826087,33.3913043 C155.826087,30.3177197 158.31772,27.826087 161.391304,27.826087 Z" id="Rectangle-74-Copy" fill="#E4E9EF" fill-rule="nonzero"></path>
                    <path d="M294.956522,33.3913043 L294.956522,55.6521739 L406.26087,55.6521739 L406.26087,33.3913043 L294.956522,33.3913043 Z M294.956522,27.826087 L406.26087,27.826087 C409.334454,27.826087 411.826087,30.3177197 411.826087,33.3913043 L411.826087,55.6521739 C411.826087,58.7257586 409.334454,61.2173913 406.26087,61.2173913 L294.956522,61.2173913 C291.882937,61.2173913 289.391304,58.7257586 289.391304,55.6521739 L289.391304,33.3913043 C289.391304,30.3177197 291.882937,27.826087 294.956522,27.826087 Z" id="Rectangle-74-Copy-2" fill="#E4E9EF" fill-rule="nonzero"></path>
                </g>
                <rect id="Rectangle-61" fill="url(#linearGradient-9)" opacity="0.201492537" x="0" y="640" width="233.73913" height="144.695652"></rect>
                <g id="Group-18" transform="translate(0.000000, 473.043478)">
                    <path d="M11.1304348,0 L222.608696,0 C228.755865,-1.1292167e-15 233.73913,4.98326539 233.73913,11.1304348 L233.73913,222.608696 C233.73913,228.755865 228.755865,233.73913 222.608696,233.73913 L11.1304348,233.73913 C4.98326539,233.73913 7.52811132e-16,228.755865 0,222.608696 L0,11.1304348 C-7.52811132e-16,4.98326539 4.98326539,1.1292167e-15 11.1304348,0 Z" id="Rectangle-6" fill="#3384E8"></path>
                    <g id="Pilot-" transform="translate(43.826087, 51.130435)" fill="#FFFFFF">
                        <path d="M9.13043478,63.9130435 L36.5217391,63.9130435 L36.5217391,91.3043478 L9.13043478,91.3043478 L9.13043478,63.9130435 Z M18.2608696,73.0434783 L18.2608696,82.173913 L27.3913043,82.173913 L27.3913043,73.0434783 L18.2608696,73.0434783 Z M54.7826087,0 L82.173913,0 L82.173913,91.3043478 L54.7826087,91.3043478 L54.7826087,0 Z M63.9130435,9.13043478 L63.9130435,82.173913 L73.0434783,82.173913 L73.0434783,9.13043478 L63.9130435,9.13043478 Z M100.434783,27.3913043 L127.826087,27.3913043 L127.826087,91.3043478 L100.434783,91.3043478 L100.434783,27.3913043 Z M109.565217,36.5217391 L109.565217,82.173913 L118.695652,82.173913 L118.695652,36.5217391 L109.565217,36.5217391 Z" id="Combined-Shape" fill-rule="nonzero"></path>
                        <polygon id="Combined-Shape-path" points="0 109.565217 146.086957 109.565217 146.086957 118.695652 0 118.695652"></polygon>
                    </g>
                </g>
            </g>
        </g>
    </g>
</svg>