<?xml version="1.0" encoding="UTF-8" standalone="no"?>
<svg width="1024px" height="1024px" viewBox="0 0 1024 1024" version="1.1" xmlns="http://www.w3.org/2000/svg" xmlns:xlink="http://www.w3.org/1999/xlink">
    <!-- Generator: Sketch 46.2 (44496) - http://www.bohemiancoding.com/sketch -->
    <title>云产品开发</title>
    <desc>Created with Sketch.</desc>
    <defs>
        <linearGradient x1="50%" y1="0%" x2="50%" y2="100%" id="linearGradient-1">
            <stop stop-color="#409EF3" offset="0%"></stop>
            <stop stop-color="#409EF3" stop-opacity="0" offset="100%"></stop>
        </linearGradient>
    </defs>
    <g id="Page-1" stroke="none" stroke-width="1" fill="none" fill-rule="evenodd">
        <g id="云产品开发">
            <g id="Group-18" transform="translate(0.000000, 135.000000)">
                <rect id="Rectangle-61" fill="url(#linearGradient-1)" opacity="0.201492537" x="287.923555" y="371.340659" width="445.357177" height="247.941889"></rect>
                <path d="M654.841745,453.542932 L654.841745,472.109964 L661.030756,472.109964 L661.030756,453.542932 L654.841745,453.542932 Z M654.841745,490.676997 L654.841745,509.24403 L661.030756,509.24403 L661.030756,490.676997 L654.841745,490.676997 Z M654.841745,527.811062 L654.841745,546.378095 L661.030756,546.378095 L661.030756,527.811062 L654.841745,527.811062 Z M654.841745,564.945128 L654.841745,583.512161 L661.030756,583.512161 L661.030756,564.945128 L654.841745,564.945128 Z" id="Path-48" fill="#D7E1E7" fill-rule="nonzero"></path>
                <path d="M695.049348,221.102179 L676.482315,221.102179 L676.482315,227.29119 L695.049348,227.29119 L695.049348,221.102179 Z M654.841745,224.217652 L654.841745,242.784685 L661.030756,242.784685 L661.030756,224.217652 L654.841745,224.217652 Z M654.841745,261.351717 L654.841745,279.91875 L661.030756,279.91875 L661.030756,261.351717 L654.841745,261.351717 Z M654.841745,298.485783 L654.841745,298.579251 L661.030756,298.579251 L661.030756,298.485783 L654.841745,298.485783 Z" id="Path-48-Copy-3" fill="#D7E1E7" fill-rule="nonzero"></path>
                <path d="M370.307993,453.542932 L370.307993,472.109964 L376.497004,472.109964 L376.497004,453.542932 L370.307993,453.542932 Z M370.307993,490.676997 L370.307993,509.24403 L376.497004,509.24403 L376.497004,490.676997 L370.307993,490.676997 Z M370.307993,527.811062 L370.307993,546.378095 L376.497004,546.378095 L376.497004,527.811062 L370.307993,527.811062 Z M370.307993,564.945128 L370.307993,583.512161 L376.497004,583.512161 L376.497004,564.945128 L370.307993,564.945128 Z" id="Path-48-Copy" fill="#D7E1E7" fill-rule="nonzero"></path>
                <path d="M299.176302,128.114435 L317.743335,128.114435 L317.743335,121.925424 L299.176302,121.925424 L299.176302,128.114435 Z M336.310367,128.114435 L354.8774,128.114435 L354.8774,121.925424 L336.310367,121.925424 L336.310367,128.114435 Z M370.307993,125.061864 L370.307993,143.628897 L376.497004,143.628897 L376.497004,125.061864 L370.307993,125.061864 Z M370.307993,162.195929 L370.307993,180.762962 L376.497004,180.762962 L376.497004,162.195929 L370.307993,162.195929 Z M370.307993,199.329995 L370.307993,217.897027 L376.497004,217.897027 L376.497004,199.329995 L370.307993,199.329995 Z M370.307993,236.46406 L370.307993,255.031093 L376.497004,255.031093 L376.497004,236.46406 L370.307993,236.46406 Z" id="Path-48-Copy-2" fill="#D7E1E7" fill-rule="nonzero"></path>
                <path d="M299.29521,369.867312 L280.728178,369.867312 L280.728178,376.056323 L299.29521,376.056323 L299.29521,369.867312 Z M262.161145,369.867312 L243.594112,369.867312 L243.594112,376.056323 L262.161145,376.056323 L262.161145,369.867312 Z M225.027079,369.867312 L206.460047,369.867312 L206.460047,376.056323 L225.027079,376.056323 L225.027079,369.867312 Z M187.893014,369.867312 L169.325981,369.867312 L169.325981,376.056323 L187.893014,376.056323 L187.893014,369.867312 Z M150.758949,369.867312 L138.352877,369.867312 L138.352877,376.056323 L150.758949,376.056323 L150.758949,369.867312 Z" id="Path-50" fill="#D7E1E7" fill-rule="nonzero"></path>
                <path d="M827.030168,368.246507 L808.465255,368.527036 L808.558765,374.71534 L827.123678,374.434812 L827.030168,368.246507 Z M789.900342,368.807565 L771.335428,369.088093 L771.428938,375.276398 L789.993851,374.995869 L789.900342,368.807565 Z M752.770515,369.368622 L734.205602,369.649151 L734.299111,375.837455 L752.864025,375.556927 L752.770515,369.368622 Z" id="Path-50-Copy" fill="#D7E1E7" fill-rule="nonzero"></path>
                <ellipse id="Oval-4" fill="#DBE4EA" cx="657.93625" cy="589.91097" rx="12.3710327" ry="12.3970944"></ellipse>
                <ellipse id="Oval-4-Copy" fill="#DBE4EA" cx="373.402498" cy="589.91097" rx="12.3710327" ry="12.3970944"></ellipse>
                <ellipse id="Oval-4-Copy-2" fill="#DBE4EA" cx="125.981844" cy="372.961818" rx="12.3710327" ry="12.3970944"></ellipse>
                <ellipse id="Oval-4-Copy-3" fill="#DBE4EA" cx="299.176302" cy="125.019929" rx="12.3710327" ry="12.3970944"></ellipse>
                <ellipse id="Oval-4-Copy-4" fill="#DBE4EA" cx="707.420381" cy="224.196685" rx="12.3710327" ry="12.3970944"></ellipse>
                <ellipse id="Oval-4-Copy-5" fill="#DBE4EA" cx="833.821582" cy="372.485007" rx="12.3710327" ry="12.3970944"></ellipse>
                <path d="M425.869398,269.520796 C414.309266,265.008398 401.733186,262.532315 388.580002,262.532315 C331.819085,262.532315 285.805269,308.643067 285.805269,365.523561 C285.805269,422.404056 331.819085,468.514807 388.580002,468.514807 C388.91371,468.514807 389.247045,468.513213 389.580002,468.510033 L643.091011,468.514807 C692.283806,468.514807 732.162446,428.552156 732.162446,379.255727 C732.162446,329.959299 692.283806,289.996647 643.091011,289.996647 C638.429181,289.996647 633.850999,290.35554 629.382476,291.047257 C629.385965,290.697469 629.387713,290.347263 629.387713,289.996647 C629.387713,233.116153 583.373898,187.005401 526.61298,187.005401 C476.848286,187.005401 435.344642,222.449673 425.869398,269.520796 Z" id="Combined-Shape" fill="#3384E8"></path>
                <path d="M426.704176,85.880967 L426.704176,135.032967 L434.401055,135.032967 L434.401055,85.880967 L426.704176,85.880967 Z M456.141363,99.1817143 C461.880264,99.1817143 466.268835,101.072176 469.307077,104.988132 C472.075253,108.498989 473.493099,113.427692 473.493099,119.706725 L447.36422,119.706725 C447.634286,122.947516 448.512,125.445626 449.997363,127.133538 C451.482725,128.821451 453.643253,129.699165 456.411429,129.699165 C458.774506,129.699165 460.664967,129.159033 462.15033,128.078769 C463.29811,127.201055 464.310857,125.783209 465.256088,123.825231 L472.952967,123.825231 C472.142769,127.066022 470.522374,129.834198 468.09178,131.994725 C464.986022,134.627868 461.137582,135.978198 456.478945,135.978198 C451.280176,135.978198 447.16167,134.357802 444.123429,131.184527 C440.882637,127.87622 439.262242,123.352615 439.262242,117.546198 C439.262242,112.347429 440.747604,108.026374 443.853363,104.515516 C446.824088,100.937143 450.942593,99.1817143 456.141363,99.1817143 Z M456.343912,105.460747 C453.778286,105.460747 451.820308,106.135912 450.334945,107.621275 C448.917099,109.039121 447.971868,111.132132 447.499253,113.900308 L465.458637,113.900308 C464.783473,108.228923 461.745231,105.460747 456.343912,105.460747 Z M493.545495,99.1817143 C498.676747,99.1817143 502.525187,100.464527 504.95578,103.030154 C507.116308,105.258198 508.196571,108.498989 508.196571,112.752527 L508.196571,135.032967 L501.039824,135.032967 L501.039824,130.441846 C499.689495,132.197275 498.001582,133.480088 496.043604,134.425319 C493.81556,135.438066 491.182418,135.978198 488.144176,135.978198 C484.498286,135.978198 481.662593,135.032967 479.569582,133.210022 C477.409055,131.31956 476.328791,128.956484 476.328791,126.053275 C476.328791,122.137319 477.814154,119.099077 480.919912,117.006066 C483.755604,114.980571 487.739077,113.900308 492.87033,113.765275 L500.499692,113.562725 L500.499692,112.212396 C500.499692,107.621275 498.001582,105.393231 493.005363,105.393231 C490.844835,105.393231 489.156923,105.730813 487.87411,106.541011 C486.388747,107.418725 485.376,108.769055 484.970901,110.592 L477.341539,109.984352 C478.08422,106.135912 479.974681,103.30022 483.012923,101.544791 C485.57855,99.9243956 489.089407,99.1817143 493.545495,99.1817143 Z M500.499692,119.099077 L493.410462,119.301626 C487.266462,119.436659 484.22822,121.597187 484.22822,125.783209 C484.22822,126.998505 484.700835,128.011253 485.781099,128.821451 C486.861363,129.631648 488.211692,130.104264 489.899604,130.104264 C492.87033,130.104264 495.36844,129.226549 497.393934,127.538637 C499.419429,125.783209 500.499692,123.555165 500.499692,120.854505 L500.499692,119.099077 Z M530.88211,99.1817143 C528.721582,99.1817143 526.898637,99.7893626 525.345758,101.072176 C524.062945,102.017407 522.982681,103.367736 522.037451,105.123165 L522.037451,100.126945 L514.408088,100.126945 L514.408088,135.032967 L522.037451,135.032967 L522.037451,116.533451 C522.037451,113.562725 522.915165,111.199648 524.805626,109.376703 C526.426022,107.756308 528.248967,107.013626 530.274462,107.013626 C531.894857,107.013626 533.515253,107.216176 535.270681,107.756308 L535.270681,100.059429 C534.055385,99.4517802 532.570022,99.1817143 530.88211,99.1817143 Z M555.795692,99.1817143 C553.702681,99.1817143 551.81222,99.5868132 550.056791,100.464527 C548.368879,101.274725 546.816,102.557538 545.46567,104.177934 L545.46567,100.126945 L537.768791,100.126945 L537.768791,135.032967 L545.46567,135.032967 L545.46567,114.035341 C545.735736,111.267165 546.680967,109.106637 548.301363,107.621275 C549.719209,106.270945 551.407121,105.59578 553.297583,105.59578 C558.563868,105.59578 561.197011,108.431473 561.197011,114.170374 L561.197011,135.032967 L568.89389,135.032967 L568.89389,113.495209 C568.89389,103.907868 564.505319,99.1817143 555.795692,99.1817143 Z M612.847121,99.1817143 C609.471297,99.1817143 606.298022,100.667077 603.394813,103.705319 L603.394813,100.126945 L595.697934,100.126945 L595.697934,135.032967 L603.394813,135.032967 L603.394813,114.102857 C603.394813,111.807297 604.069978,109.781802 605.420308,108.161407 C606.770638,106.405978 608.526066,105.59578 610.75411,105.59578 C615.345231,105.59578 617.640791,108.228923 617.640791,113.562725 L617.640791,135.032967 L625.33767,135.032967 L625.33767,113.697758 C625.33767,111.132132 625.945319,109.174154 627.295649,107.756308 C628.578462,106.270945 630.131341,105.59578 632.021802,105.59578 C634.722462,105.59578 636.612923,106.203429 637.82822,107.486242 C638.976,108.701538 639.583649,110.727033 639.583649,113.495209 L639.583649,135.032967 L647.280528,135.032967 L647.280528,112.144879 C647.280528,108.29644 646.065231,105.190681 643.76967,102.760088 C641.339077,100.329495 638.368352,99.1817143 634.789978,99.1817143 C632.426901,99.1817143 630.468923,99.5868132 628.916044,100.397011 C627.160616,101.207209 625.472703,102.692571 623.852308,104.853099 C621.624264,101.072176 617.978374,99.1817143 612.847121,99.1817143 Z M669.696,99.1817143 C674.962286,99.1817143 679.215824,100.869626 682.456616,104.380484 C685.62989,107.823824 687.250286,112.212396 687.250286,117.613714 C687.250286,122.947516 685.62989,127.336088 682.524132,130.711912 C679.283341,134.222769 674.962286,135.978198 669.696,135.978198 C664.362198,135.978198 660.10866,134.222769 656.867868,130.711912 C653.694594,127.336088 652.141714,122.947516 652.141714,117.613714 C652.141714,112.212396 653.694594,107.823824 656.935385,104.380484 C660.10866,100.869626 664.362198,99.1817143 669.696,99.1817143 Z M669.696,105.460747 C666.455209,105.460747 664.024616,106.676044 662.269187,109.24167 C660.783824,111.402198 660.041143,114.23789 660.041143,117.613714 C660.041143,120.989538 660.783824,123.757714 662.269187,125.918242 C664.024616,128.416352 666.455209,129.699165 669.696,129.699165 C672.869275,129.699165 675.367385,128.416352 677.122813,125.918242 C678.608176,123.690198 679.418374,120.922022 679.418374,117.613714 C679.418374,114.23789 678.608176,111.402198 677.122813,109.24167 C675.367385,106.676044 672.869275,105.460747 669.696,105.460747 Z M708.585495,99.1817143 C706.424967,99.1817143 704.602022,99.7893626 703.049143,101.072176 C701.76633,102.017407 700.686066,103.367736 699.740835,105.123165 L699.740835,100.126945 L692.111473,100.126945 L692.111473,135.032967 L699.740835,135.032967 L699.740835,116.533451 C699.740835,113.562725 700.61855,111.199648 702.509011,109.376703 C704.129407,107.756308 705.952352,107.013626 707.977846,107.013626 C709.598242,107.013626 711.218638,107.216176 712.974066,107.756308 L712.974066,100.059429 C711.758769,99.4517802 710.273407,99.1817143 708.585495,99.1817143 Z M730.325802,99.1817143 C736.064704,99.1817143 740.453275,101.072176 743.491517,104.988132 C746.259693,108.498989 747.677539,113.427692 747.677539,119.706725 L721.54866,119.706725 C721.818726,122.947516 722.69644,125.445626 724.181802,127.133538 C725.667165,128.821451 727.827693,129.699165 730.595868,129.699165 C732.958945,129.699165 734.849407,129.159033 736.334769,128.078769 C737.48255,127.201055 738.495297,125.783209 739.440528,123.825231 L747.137407,123.825231 C746.327209,127.066022 744.706813,129.834198 742.27622,131.994725 C739.170462,134.627868 735.322022,135.978198 730.663385,135.978198 C725.464616,135.978198 721.34611,134.357802 718.307868,131.184527 C715.067077,127.87622 713.446682,123.352615 713.446682,117.546198 C713.446682,112.347429 714.932044,108.026374 718.037802,104.515516 C721.008528,100.937143 725.127033,99.1817143 730.325802,99.1817143 Z M730.528352,105.460747 C727.962726,105.460747 726.004747,106.135912 724.519385,107.621275 C723.101539,109.039121 722.156308,111.132132 721.683693,113.900308 L739.643077,113.900308 C738.967912,108.228923 735.929671,105.460747 730.528352,105.460747 Z" id="learn-more" fill="#B3C2D5"></path>
                <g id="Group-16" transform="translate(417.819398, 278.839262)" fill="#FFFFFF">
                    <path d="M194.565079,114.023761 L190.49998,114.023761 C188.543283,113.947748 186.820926,112.70954 186.121137,110.876165 L183.790984,105.362132 C182.932387,103.623531 183.250003,101.533651 184.584056,100.128862 L187.45874,97.3137838 C188.090422,96.7047074 188.447417,95.8643566 188.447417,94.986161 C188.447417,94.1079653 188.090422,93.267938 187.45874,92.6601554 L182.666093,87.9887367 C181.325908,86.7065387 179.215245,86.7065387 177.873769,87.9887367 L174.999084,90.8054321 C173.517521,92.1041266 171.40944,92.4036511 169.627691,91.5658881 L163.975156,89.3142785 C162.123041,88.681266 160.840633,86.9830976 160.736052,85.0245433 L160.736052,81.0838222 C160.708293,79.2391261 159.205426,77.7618813 157.364608,77.7709382 L150.588797,77.7709382 C148.742814,77.7531479 147.228327,79.2326569 147.200891,81.0838222 L147.200891,85.0245433 C147.200891,86.8465972 145.763226,88.7673065 143.977926,89.3142785 L138.326682,91.5658881 C136.543965,92.4088265 134.434593,92.109302 132.955612,90.8054321 L130.063175,87.9887367 C128.721698,86.7065387 126.612004,86.7065387 125.270528,87.9887367 L120.494342,92.6601554 C119.86266,93.267938 119.505988,94.1079653 119.505988,94.986161 C119.505988,95.8643566 119.86266,96.7047074 120.494342,97.3137838 L123.370318,100.128862 C124.691782,101.40362 125.056201,103.771352 124.16339,105.362132 L121.849698,110.876165 C121.151201,112.717303 119.417546,113.958099 117.453103,114.023761 L113.388326,114.023761 C111.554932,114.013734 110.053356,115.481922 110.016559,117.318855 L110.016559,123.910659 C110.016559,125.732713 111.537179,127.206076 113.388326,127.206076 L117.453103,127.206076 C119.320389,127.206076 121.287414,128.62995 121.833559,130.353349 L124.16339,135.867382 C125.015854,137.607277 124.699529,139.694569 123.370318,141.100976 L120.494342,143.916054 C119.867825,144.527394 119.513412,145.366451 119.513412,146.243353 C119.513412,147.120255 119.867825,147.959312 120.494342,148.569682 L125.286989,153.240777 C126.625884,154.513272 128.723958,154.513272 130.063175,153.240777 L132.93915,150.424405 C134.415549,149.116654 136.528794,148.817129 138.310543,149.663626 L143.977926,151.931732 C145.821326,152.564745 147.097278,154.255473 147.200891,156.204971 L147.200891,160.146015 C147.200891,161.967746 148.721188,163.458899 150.604936,163.458899 L157.364608,163.458899 C159.215433,163.458899 160.736052,161.967746 160.736052,160.146015 L160.736052,156.204971 C160.847089,154.252886 162.128205,152.562157 163.975156,151.931732 L169.644153,149.663626 C171.42687,148.826186 173.533983,149.125387 175.015223,150.424405 L177.873769,153.240777 C179.215245,154.523299 181.325908,154.523299 182.666093,153.240777 L187.45874,148.569682 C188.095586,147.960606 188.456132,147.116373 188.456132,146.23462 C188.456132,145.352542 188.095586,144.508634 187.45874,143.899557 L184.584056,141.100976 C183.253877,139.694569 182.937229,137.607277 183.790984,135.867382 L186.104675,130.353349 C186.805755,128.515122 188.536828,127.27562 190.49998,127.206076 L194.565079,127.206076 C196.415903,127.206076 197.936523,125.716217 197.936523,123.910659 L197.936523,117.318855 C197.927808,116.431926 197.56823,115.584135 196.93558,114.963738 C196.303576,114.342046 195.451435,113.998531 194.565079,114.007265 L194.565079,114.023761 Z M153.976703,137.076478 C144.639949,137.076478 137.071066,129.706427 137.071066,120.615566 C137.071066,111.506914 144.639949,104.136539 153.976703,104.136539 C163.330886,104.136539 170.89977,111.506914 170.89977,120.615566 C170.89977,129.706427 163.330886,137.076478 153.976703,137.076478 Z" id="Fill-4" opacity="0.5"></path>
                    <path d="M122.692156,52.597613 C125.386406,52.597613 127.584219,54.7508906 127.584219,57.3676872 L127.584219,66.9398583 C127.547745,69.6161717 125.36252,71.7616862 122.692156,71.742602 L116.792371,71.742602 C113.958034,71.8474033 111.456484,73.6316123 110.430364,76.2810784 L107.058597,84.2957865 C105.807822,86.8187795 106.264234,89.8551047 108.198336,91.8980821 L112.363175,95.9552491 C113.281163,96.8425017 113.800517,98.0642125 113.800517,99.3415586 C113.800517,100.618905 113.281163,101.842233 112.363175,102.729162 L105.422099,109.485285 C103.4767,111.336127 100.426423,111.336127 98.4810241,109.485285 L94.3165081,105.411621 C92.1642067,103.525199 89.101341,103.096937 86.5168363,104.318648 L78.3020686,107.597568 C75.6191157,108.513609 73.7618358,110.972233 73.6091606,113.807689 L73.6091606,119.521298 C73.5639713,122.197288 71.3713223,124.335363 68.7006351,124.307546 L58.900046,124.307546 C56.223226,124.34539 54.0205708,122.205051 53.9763499,119.521298 L53.9763499,113.807689 C53.8236746,110.972233 51.9654264,108.513609 49.2821508,107.597568 L41.068997,104.318648 C38.4893339,103.094349 35.4290505,103.523905 33.2844958,105.411621 L29.1031952,109.485285 C27.1616695,111.345183 24.1039684,111.345183 22.1624427,109.485285 L15.2213675,102.729162 C14.3020882,101.839645 13.7840252,100.614053 13.7840252,99.3341191 C13.7840252,98.0528914 14.3020882,96.8285929 15.2213675,95.9390761 L19.3858835,91.8980821 C21.3299914,89.8538108 21.7915677,86.8100461 20.5433749,84.27929 L17.1554692,76.2810784 C16.1429062,73.6238492 13.6439384,71.8309068 10.8096014,71.7261056 L4.90852546,71.7261056 C2.23170547,71.7539232 0.0367969949,69.605821 -1.25055521e-12,66.9233618 L-1.25055521e-12,57.3676872 C-1.25055521e-12,54.7343941 2.21556643,52.597613 4.90852546,52.597613 L10.8096014,52.597613 C13.6491029,52.4902241 16.1480707,50.6898421 17.1554692,48.0277609 L20.5433749,40.0117591 C21.7915677,37.4910302 21.3290231,34.4572928 19.3858835,32.4269303 L15.2213675,28.351973 C14.3046704,27.4689254 13.7862847,26.2481849 13.7862847,24.9734265 C13.7862847,23.6986681 14.3046704,22.4792214 15.2213675,21.5961738 L22.1624427,14.8387574 C24.1039684,12.9788586 27.1616695,12.9788586 29.1031952,14.8387574 L33.2844958,18.8959243 C35.4251772,20.801431 38.4941756,21.2448956 41.0854588,20.0215674 L49.2821508,16.7264737 C51.9628441,15.8165789 53.8214152,13.3641003 53.9763499,10.5328492 L53.9763499,4.76975076 C53.9763499,2.15295409 56.1903024,-4.54747351e-13 58.900046,-4.54747351e-13 L68.7006351,-4.54747351e-13 C71.3952081,-4.54747351e-13 73.6091606,2.15295409 73.6091606,4.76975076 L73.6091606,10.5163527 C73.7682915,13.3466334 75.6252486,15.7965244 78.3020686,16.7099772 L86.4990834,20.0053944 C89.0913348,21.2196656 92.1551688,20.7771715 94.3000463,18.8794278 L98.4810241,14.8222609 C100.426423,12.971419 103.4767,12.971419 105.422099,14.8222609 L112.363175,21.5783835 C113.281163,22.4653126 113.800517,23.6883173 113.800517,24.9659869 C113.800517,26.243333 113.281163,27.4663377 112.363175,28.351973 L108.198336,32.4104338 C106.260684,34.443384 105.799107,37.4748572 107.042136,39.9952626 L110.430364,48.0112645 C111.446478,50.6733456 113.949319,52.4714634 116.792371,52.58144 L122.692156,52.58144 L122.692156,52.597613 Z M63.7921097,86.0518543 C77.3440556,86.0518543 88.3334458,75.3537168 88.3334458,62.153611 C88.3334458,48.9551226 77.3440556,38.2226982 63.7921097,38.2226982 C50.2404866,38.2226982 39.2507735,48.9386261 39.2507735,62.137438 C39.2507735,75.3359264 50.2404866,86.0353578 63.7921097,86.0353578 L63.7921097,86.0518543 Z" id="Combined-Shape"></path>
                </g>
                <path d="M777.564835,4.10904522e-15 L1011.62198,4.10904522e-15 C1018.45817,-2.14337786e-14 1024,5.54182921 1024,12.378022 L1024,246.435165 C1024,253.271358 1018.45817,258.813187 1011.62198,258.813187 L777.564835,258.813187 C770.728642,258.813187 765.186813,253.271358 765.186813,246.435165 L765.186813,12.378022 C765.186813,5.54182921 770.728642,3.6760982e-16 777.564835,4.10904522e-15 Z" id="Combined-Shape" fill="#D7E1E7" fill-rule="nonzero"></path>
                <path d="M777.564835,6.18901099 C774.146739,6.18901099 771.375824,8.95992559 771.375824,12.378022 L771.375824,246.435165 C771.375824,249.853261 774.146739,252.624176 777.564835,252.624176 L1011.62198,252.624176 C1015.04007,252.624176 1017.81099,249.853261 1017.81099,246.435165 L1017.81099,12.378022 C1017.81099,8.95992559 1015.04007,6.18901099 1011.62198,6.18901099 L777.564835,6.18901099 Z" id="Path" fill="#FFFFFF"></path>
                <path d="M12.378022,5.62637363 L246.435165,5.62637363 C253.271358,5.62637363 258.813187,11.1682028 258.813187,18.0043956 L258.813187,252.061538 C258.813187,258.897731 253.271358,264.43956 246.435165,264.43956 L12.378022,264.43956 C5.54182921,264.43956 -5.09862601e-17,258.897731 -8.8817842e-16,252.061538 L4.10904522e-15,18.0043956 C3.27185306e-15,11.1682028 5.54182921,5.62637363 12.378022,5.62637363 Z" id="Rectangle-79-Copy-5" fill="#D7E1E7" fill-rule="nonzero"></path>
                <path d="M12.378022,11.8153846 C8.95992559,11.8153846 6.18901099,14.5862992 6.18901099,18.0043956 L6.18901099,252.061538 C6.18901099,255.479635 8.95992559,258.250549 12.378022,258.250549 L246.435165,258.250549 C249.853261,258.250549 252.624176,255.479635 252.624176,252.061538 L252.624176,18.0043956 C252.624176,14.5862992 249.853261,11.8153846 246.435165,11.8153846 L12.378022,11.8153846 Z" id="Path" fill="#FFFFFF"></path>
                <path d="M777.564835,495.120879 L1011.62198,495.120879 C1018.45817,495.120879 1024,500.662708 1024,507.498901 L1024,741.556044 C1024,748.392237 1018.45817,753.934066 1011.62198,753.934066 L777.564835,753.934066 C770.728642,753.934066 765.186813,748.392237 765.186813,741.556044 L765.186813,507.498901 C765.186813,500.662708 770.728642,495.120879 777.564835,495.120879 Z" id="Rectangle-79-Copy-3" fill="#D7E1E7" fill-rule="nonzero"></path>
                <path d="M777.564835,501.30989 C774.146739,501.30989 771.375824,504.080805 771.375824,507.498901 L771.375824,741.556044 C771.375824,744.97414 774.146739,747.745055 777.564835,747.745055 L1011.62198,747.745055 C1015.04007,747.745055 1017.81099,744.97414 1017.81099,741.556044 L1017.81099,507.498901 C1017.81099,504.080805 1015.04007,501.30989 1011.62198,501.30989 L777.564835,501.30989 Z" id="Path" fill="#FFFFFF"></path>
                <path d="M51.7626374,455.736264 L285.81978,455.736264 C292.655973,455.736264 298.197802,461.278093 298.197802,468.114286 L298.197802,702.171429 C298.197802,709.007621 292.655973,714.549451 285.81978,714.549451 L51.7626374,714.549451 C44.9264446,714.549451 39.3846154,709.007621 39.3846154,702.171429 L39.3846154,468.114286 C39.3846154,461.278093 44.9264446,455.736264 51.7626374,455.736264 Z" id="Rectangle-79-Copy-4" fill="#D7E1E7" fill-rule="nonzero"></path>
                <path d="M51.7626374,461.925275 C48.344541,461.925275 45.5736264,464.696189 45.5736264,468.114286 L45.5736264,702.171429 C45.5736264,705.589525 48.344541,708.36044 51.7626374,708.36044 L285.81978,708.36044 C289.237877,708.36044 292.008791,705.589525 292.008791,702.171429 L292.008791,468.114286 C292.008791,464.696189 289.237877,461.925275 285.81978,461.925275 L51.7626374,461.925275 Z" id="Path" fill="#FFFFFF"></path>
                <g id="Group-25-Copy" transform="translate(56.263736, 56.263736)" fill-rule="nonzero">
                    <path d="M125.397597,95.7423803 L125.397597,126.867057 L85.2816647,126.867057 L85.2816647,167.224075 L96.534412,167.224075 L96.534412,138.119804 L136.650344,138.119804 L136.650344,106.995128 L151.398667,106.995128 L150.533263,100.612774 C148.35378,84.5390811 146.083363,71.7599333 143.546976,60.1964584 C142.776041,56.6817416 139.742362,43.9855728 139.381729,41.8711335 C135.056318,16.5106223 101.953159,-6.42940886 68.3449395,3.1102828 C39.329155,11.3464121 24.3994298,33.1004917 24.3994298,56.7201679 L24.3994298,83.7761662 L35.6521771,83.7761662 L35.6521771,56.7201679 C35.6521771,37.9360832 47.4558769,20.7369303 71.4176439,13.9353836 C98.358804,6.28813639 125.052594,24.7865631 128.289165,43.7630476 C128.723071,46.3071022 131.857225,59.4237629 132.555533,62.6073731 C134.68401,72.3111738 136.623814,82.9134647 138.487088,95.7423803 L125.397597,95.7423803 Z" id="Path-4" fill="#409EF3"></path>
                    <g id="Group-24" transform="translate(0.000000, 95.486931)" fill="#40C6F3">
                        <path d="M38.4347784,0.0039762473 C25.3776527,25.174107 19.3904704,46.945268 20.6467,65.4084491 L31.8734905,64.6445815 C30.7770329,48.5296157 36.2358769,28.6796482 48.4234912,5.18566879 L38.4347784,0.0039762473 Z" id="Path-28"></path>
                        <path d="M0.839153441,28.3276773 C17.9586257,41.8875944 40.4654365,47.5422541 68.0886181,45.4381883 L67.2339688,34.2179435 C42.2602326,36.1202002 22.5478936,31.1676296 7.82598425,19.5067637 L0.839153441,28.3276773 Z" id="Path-28"></path>
                        <path d="M35.030104,58.8074607 C48.1619755,58.8074607 58.8074607,48.1619755 58.8074607,35.030104 C58.8074607,21.8982325 48.1619755,11.2527473 35.030104,11.2527473 C21.8982325,11.2527473 11.2527473,21.8982325 11.2527473,35.030104 C11.2527473,48.1619755 21.8982325,58.8074607 35.030104,58.8074607 Z M35.030104,70.060208 C15.6835118,70.060208 0,54.3766962 0,35.030104 C0,15.6835118 15.6835118,0 35.030104,0 C54.3766962,0 70.060208,15.6835118 70.060208,35.030104 C70.060208,54.3766962 54.3766962,70.060208 35.030104,70.060208 Z" id="Oval-15"></path>
                    </g>
                </g>
                <g id="Group-9-Copy" transform="translate(95.648352, 512.000000)">
                    <rect id="Rectangle-6" fill="#54C4E9" x="22.5054945" y="67.5164835" width="101.274725" height="11.2527473"></rect>
                    <rect id="Rectangle-6-Copy-2" fill="#54C4E9" x="22.5054945" y="94.8043956" width="101.274725" height="11.2527473"></rect>
                    <path d="M73.1428571,13.6862736 L36.0230301,39.3846154 L110.262684,39.3846154 L73.1428571,13.6862736 Z M73.1428571,0 L146.285714,50.6373626 L0,50.6373626 L73.1428571,0 Z" id="Rectangle-4" fill="#409EF3" fill-rule="nonzero"></path>
                    <path d="M28.1318681,50.6373626 L28.1318681,123.217582 L118.153846,123.217582 L118.153846,50.6373626 L28.1318681,50.6373626 Z M16.8791209,39.3846154 L129.406593,39.3846154 L129.406593,134.47033 L16.8791209,134.47033 L16.8791209,39.3846154 Z" id="Rectangle-5" fill="#409EF3" fill-rule="nonzero"></path>
                    <rect id="Rectangle-8" fill="#409EF3" x="0" y="123.78022" width="146.285714" height="11.2527473"></rect>
                </g>
                <g id="Group-28-Copy" transform="translate(832.703297, 67.516484)">
                    <rect id="Rectangle-36" fill="#409EF3" x="24.3809524" y="32.5079365" width="81.2698413" height="11.2527473"></rect>
                    <path d="M11.2527473,112.527473 L112.527473,112.527473 L112.527473,95.6483516 L123.78022,95.6483516 L123.78022,123.78022 L118.153846,123.78022 L0,123.78022 L0,115.340659 L0,5.62637363 L0,0 L123.78022,0 L123.78022,5.62637363 L123.78022,56.2637363 L112.527473,56.2637363 L112.527473,11.2527473 L11.2527473,11.2527473 L11.2527473,112.527473 Z" id="Combined-Shape" fill="#409EF3"></path>
                    <path d="M135.55707,89.9302654 L150.568995,104.94219 L142.612101,112.899084 L127.600176,97.8871593 C123.744015,100.305274 119.183164,101.703401 114.295761,101.703401 C100.445812,101.703401 89.2182104,90.4757993 89.2182104,76.6258503 C89.2182104,62.7759013 100.445812,51.5482993 114.295761,51.5482993 C128.14571,51.5482993 139.373312,62.7759013 139.373312,76.6258503 C139.373312,81.5132525 137.975185,86.0741044 135.55707,89.9302654 Z M114.295761,90.4506541 C121.93099,90.4506541 128.120565,84.2610786 128.120565,76.6258503 C128.120565,68.9906221 121.93099,62.8010466 114.295761,62.8010466 C106.660533,62.8010466 100.470958,68.9906221 100.470958,76.6258503 C100.470958,84.2610786 106.660533,90.4506541 114.295761,90.4506541 Z" id="Combined-Shape" fill="#54C4E9" fill-rule="nonzero"></path>
                </g>
                <g id="Group-23" transform="translate(821.450549, 540.131868)" fill-rule="nonzero">
                    <polygon id="Polygon-2-Copy" fill="#54C4E9" points="12.9893671 47.1713736 7.36299351 56.9165385 75.956044 96.5187547 144.549094 56.9165385 138.922721 47.1713736 75.956044 83.5252014"></polygon>
                    <polygon id="Path-15" fill="#54C4E9" points="70.3296703 90.021978 70.3296703 163.164835 81.5824176 163.164835 81.5824176 90.021978"></polygon>
                    <path d="M75.956044,17.7495239 L15.8025539,52.4791576 L15.8025539,121.938425 L75.956044,156.668059 L136.109534,121.938425 L136.109534,52.4791576 L75.956044,17.7495239 Z M147.362281,45.9823809 L147.362281,128.435202 L75.956044,169.661612 L4.54980669,128.435202 L4.54980669,45.9823809 L75.956044,4.7559706 L147.362281,45.9823809 Z" id="Polygon-2" fill="#409EF3"></path>
                </g>
            </g>
        </g>
    </g>
</svg>