<?xml version="1.0" encoding="UTF-8" standalone="no"?>
<svg width="1024px" height="1024px" viewBox="0 0 1024 1024" version="1.1" xmlns="http://www.w3.org/2000/svg" xmlns:xlink="http://www.w3.org/1999/xlink">
    <!-- Generator: Sketch 46.2 (44496) - http://www.bohemiancoding.com/sketch -->
    <title>Rubik</title>
    <desc>Created with Sketch.</desc>
    <defs>
        <linearGradient x1="50%" y1="0%" x2="50%" y2="100%" id="linearGradient-1">
            <stop stop-color="#409EF3" offset="0%"></stop>
            <stop stop-color="#409EF3" stop-opacity="0" offset="100%"></stop>
        </linearGradient>
        <polygon id="path-2" points="111.709091 0 223.418182 64.1292929 223.418182 192.387879 111.709091 256.517172 0 192.387879 0 64.1292929"></polygon>
        <polygon id="path-4" points="111.709091 0 223.418182 64.1292929 223.418182 192.387879 111.709091 256.517172 0 192.387879 0 64.1292929"></polygon>
        <polygon id="path-6" points="111.709091 0 223.418182 64.1292929 223.418182 192.387879 111.709091 256.517172 0 192.387879 0 64.1292929"></polygon>
    </defs>
    <g id="Page-1" stroke="none" stroke-width="1" fill="none" fill-rule="evenodd">
        <g id="Rubik">
            <g id="Group-53" transform="translate(0.000000, 130.000000)">
                <g id="Group-46-Copy">
                    <g id="Group-15-Copy-3">
                        <path d="M12.4121212,0 L980.557576,0 C987.412601,-1.25924771e-15 992.969697,5.55709595 992.969697,12.4121212 L992.969697,670.254545 C992.969697,677.109571 987.412601,682.666667 980.557576,682.666667 L12.4121212,682.666667 C5.55709595,682.666667 8.39498474e-16,677.109571 0,670.254545 L0,12.4121212 C-8.39498474e-16,5.55709595 5.55709595,1.25924771e-15 12.4121212,0 Z" id="Rectangle-51" fill="#D7E1E7" fill-rule="nonzero"></path>
                        <path d="M12.4121212,6.20606061 C8.98460858,6.20606061 6.20606061,8.98460858 6.20606061,12.4121212 L6.20606061,670.254545 C6.20606061,673.682058 8.98460858,676.460606 12.4121212,676.460606 L980.557576,676.460606 C983.985088,676.460606 986.763636,673.682058 986.763636,670.254545 L986.763636,12.4121212 C986.763636,8.98460858 983.985088,6.20606061 980.557576,6.20606061 L12.4121212,6.20606061 Z" id="Path" fill="#FFFFFF"></path>
                        <g id="Group-51" transform="translate(86.884848, 335.127273)">
                            <path d="M1.01359998e-14,136.533333 L12.4121212,136.533333 L12.4121212,130.327273 L-8.8817842e-16,130.327273 L1.01359998e-14,136.533333 Z M24.8242424,136.533333 L37.2363636,136.533333 L37.2363636,130.327273 L24.8242424,130.327273 L24.8242424,136.533333 Z M49.6484848,136.533333 L62.0606061,136.533333 L62.0606061,130.327273 L49.6484848,130.327273 L49.6484848,136.533333 Z M74.4727273,136.533333 L86.8848485,136.533333 L86.8848485,130.327273 L74.4727273,130.327273 L74.4727273,136.533333 Z M99.2969697,136.533333 L111.709091,136.533333 L111.709091,130.327273 L99.2969697,130.327273 L99.2969697,136.533333 Z M124.121212,136.533333 L136.533333,136.533333 L136.533333,130.327273 L124.121212,130.327273 L124.121212,136.533333 Z M148.945455,136.533333 L161.357576,136.533333 L161.357576,130.327273 L148.945455,130.327273 L148.945455,136.533333 Z M173.769697,136.533333 L186.181818,136.533333 L186.181818,130.327273 L173.769697,130.327273 L173.769697,136.533333 Z M198.593939,136.533333 L211.006061,136.533333 L211.006061,130.327273 L198.593939,130.327273 L198.593939,136.533333 Z M223.418182,136.533333 L235.830303,136.533333 L235.830303,130.327273 L223.418182,130.327273 L223.418182,136.533333 Z M248.242424,136.533333 L260.654545,136.533333 L260.654545,130.327273 L248.242424,130.327273 L248.242424,136.533333 Z M273.066667,136.533333 L285.478788,136.533333 L285.478788,130.327273 L273.066667,130.327273 L273.066667,136.533333 Z M297.890909,136.533333 L310.30303,136.533333 L310.30303,130.327273 L297.890909,130.327273 L297.890909,136.533333 Z M322.715152,136.533333 L335.127273,136.533333 L335.127273,130.327273 L322.715152,130.327273 L322.715152,136.533333 Z M347.539394,136.533333 L359.951515,136.533333 L359.951515,130.327273 L347.539394,130.327273 L347.539394,136.533333 Z M372.363636,136.533333 L384.775758,136.533333 L384.775758,130.327273 L372.363636,130.327273 L372.363636,136.533333 Z M397.187879,136.533333 L409.6,136.533333 L409.6,130.327273 L397.187879,130.327273 L397.187879,136.533333 Z M422.012121,136.533333 L434.424242,136.533333 L434.424242,130.327273 L422.012121,130.327273 L422.012121,136.533333 Z M446.836364,136.533333 L459.248485,136.533333 L459.248485,130.327273 L446.836364,130.327273 L446.836364,136.533333 Z M471.660606,136.533333 L484.072727,136.533333 L484.072727,130.327273 L471.660606,130.327273 L471.660606,136.533333 Z M496.484848,136.533333 L508.89697,136.533333 L508.89697,130.327273 L496.484848,130.327273 L496.484848,136.533333 Z M521.309091,136.533333 L533.721212,136.533333 L533.721212,130.327273 L521.309091,130.327273 L521.309091,136.533333 Z M546.133333,136.533333 L558.545455,136.533333 L558.545455,130.327273 L546.133333,130.327273 L546.133333,136.533333 Z M570.957576,136.533333 L583.369697,136.533333 L583.369697,130.327273 L570.957576,130.327273 L570.957576,136.533333 Z M595.781818,136.533333 L608.193939,136.533333 L608.193939,130.327273 L595.781818,130.327273 L595.781818,136.533333 Z M620.606061,136.533333 L633.018182,136.533333 L633.018182,130.327273 L620.606061,130.327273 L620.606061,136.533333 Z M645.430303,136.533333 L657.842424,136.533333 L657.842424,130.327273 L645.430303,130.327273 L645.430303,136.533333 Z M670.254545,136.533333 L682.666667,136.533333 L682.666667,130.327273 L670.254545,130.327273 L670.254545,136.533333 Z M695.078788,136.533333 L707.490909,136.533333 L707.490909,130.327273 L695.078788,130.327273 L695.078788,136.533333 Z" id="Path-9" fill="#EFF6FA" fill-rule="nonzero"></path>
                            <path d="M0.00492241443,78.7105242 L12.417028,78.6908345 L12.4071832,72.4847817 L-0.00492241443,72.5044714 L0.00492241443,78.7105242 Z M24.8291336,78.6711449 L37.2412392,78.6514552 L37.2313944,72.4454024 L24.8192888,72.4650921 L24.8291336,78.6711449 Z M49.6533448,78.6317656 L62.0654504,78.6120759 L62.0556056,72.4060231 L49.6435,72.4257128 L49.6533448,78.6317656 Z M74.477556,78.5923862 L86.8896616,78.5726966 L86.8798168,72.3666438 L74.4677112,72.3863334 L74.477556,78.5923862 Z M99.3017672,78.5530069 L111.713873,78.5333173 L111.704028,72.3272645 L99.2919223,72.3469541 L99.3017672,78.5530069 Z M124.125978,78.5136276 L136.538084,78.493938 L136.528239,72.2878852 L124.116134,72.3075748 L124.125978,78.5136276 Z M148.95019,78.4742483 L161.362295,78.4545586 L161.35245,72.2485058 L148.940345,72.2681955 L148.95019,78.4742483 Z M173.774401,78.434869 L186.186506,78.4151793 L186.176662,72.2091265 L173.764556,72.2288162 L173.774401,78.434869 Z M198.598612,78.3954897 L211.010718,78.3758 L211.000873,72.1697472 L198.588767,72.1894369 L198.598612,78.3954897 Z M223.422823,78.3561103 L235.834929,78.3364207 L235.825084,72.1303679 L223.412978,72.1500576 L223.422823,78.3561103 Z M248.247034,78.316731 L260.65914,78.2970414 L260.649295,72.0909886 L248.237189,72.1106782 L248.247034,78.316731 Z M273.071246,78.2773517 L285.483351,78.2576621 L285.473506,72.0516093 L273.061401,72.0712989 L273.071246,78.2773517 Z M297.895457,78.2379724 L310.307562,78.2182827 L310.297717,72.0122299 L297.885612,72.0319196 L297.895457,78.2379724 Z M322.719668,78.1985931 L335.131773,78.1789034 L335.121929,71.9728506 L322.709823,71.9925403 L322.719668,78.1985931 Z M347.543879,78.1592138 L359.955985,78.1395241 L359.94614,71.9334713 L347.534034,71.953161 L347.543879,78.1592138 Z M372.36809,78.1198345 L384.780196,78.1001448 L384.770351,71.894092 L372.358245,71.9137817 L372.36809,78.1198345 Z M397.192301,78.0804551 L409.604407,78.0607655 L409.594562,71.8547127 L397.182457,71.8744023 L397.192301,78.0804551 Z M422.016513,78.0410758 L434.428618,78.0213862 L434.418773,71.8153334 L422.006668,71.835023 L422.016513,78.0410758 Z M446.840724,78.0016965 L459.252829,77.9820069 L459.242985,71.7759541 L446.830879,71.7956437 L446.840724,78.0016965 Z M471.664935,77.9623172 L484.077041,77.9426275 L484.067196,71.7365747 L471.65509,71.7562644 L471.664935,77.9623172 Z M496.489146,77.9229379 L508.901252,77.9032482 L508.891407,71.6971954 L496.479301,71.7168851 L496.489146,77.9229379 Z M521.313357,77.8835586 L533.725463,77.8638689 L533.715618,71.6578161 L521.303513,71.6775058 L521.313357,77.8835586 Z M546.137569,77.8441792 L558.549674,77.8244896 L558.539829,71.6184368 L546.127724,71.6381265 L546.137569,77.8441792 Z M570.96178,77.8047999 L583.373885,77.7851103 L583.364041,71.5790575 L570.951935,71.5987471 L570.96178,77.8047999 Z M595.785991,77.7654206 L608.198097,77.745731 L608.188252,71.5396782 L595.776146,71.5593678 L595.785991,77.7654206 Z M620.610202,77.7260413 L633.022308,77.7063516 L633.012463,71.5002988 L620.600357,71.5199885 L620.610202,77.7260413 Z M645.434413,77.686662 L657.846519,77.6669723 L657.836674,71.4609195 L645.424569,71.4806092 L645.434413,77.686662 Z M670.258625,77.6472827 L682.67073,77.627593 L682.660885,71.4215402 L670.24878,71.4412299 L670.258625,77.6472827 Z M695.082836,77.6079034 L707.494941,77.5882137 L707.485097,71.3821609 L695.072991,71.4018506 L695.082836,77.6079034 Z" id="Path-9" fill="#EFF6FA" fill-rule="nonzero"></path>
                            <path d="M0.00492241443,16.6499181 L12.417028,16.6302285 L12.4071832,10.4241757 L-0.00492241443,10.4438653 L0.00492241443,16.6499181 Z M24.8291336,16.6105388 L37.2412392,16.5908492 L37.2313944,10.3847964 L24.8192888,10.404486 L24.8291336,16.6105388 Z M49.6533448,16.5711595 L62.0654504,16.5514698 L62.0556056,10.345417 L49.6435,10.3651067 L49.6533448,16.5711595 Z M74.477556,16.5317802 L86.8896616,16.5120905 L86.8798168,10.3060377 L74.4677112,10.3257274 L74.477556,16.5317802 Z M99.3017672,16.4924009 L111.713873,16.4727112 L111.704028,10.2666584 L99.2919223,10.2863481 L99.3017672,16.4924009 Z M124.125978,16.4530216 L136.538084,16.4333319 L136.528239,10.2272791 L124.116134,10.2469688 L124.125978,16.4530216 Z M148.95019,16.4136422 L161.362295,16.3939526 L161.35245,10.1878998 L148.940345,10.2075894 L148.95019,16.4136422 Z M173.774401,16.3742629 L186.186506,16.3545733 L186.176662,10.1485205 L173.764556,10.1682101 L173.774401,16.3742629 Z M198.598612,16.3348836 L211.010718,16.3151939 L211.000873,10.1091411 L198.588767,10.1288308 L198.598612,16.3348836 Z M223.422823,16.2955043 L235.834929,16.2758146 L235.825084,10.0697618 L223.412978,10.0894515 L223.422823,16.2955043 Z M248.247034,16.256125 L260.65914,16.2364353 L260.649295,10.0303825 L248.237189,10.0500722 L248.247034,16.256125 Z M273.071246,16.2167457 L285.483351,16.197056 L285.473506,9.9910032 L273.061401,10.0106929 L273.071246,16.2167457 Z M297.895457,16.1773663 L310.307562,16.1576767 L310.297717,9.95162389 L297.885612,9.97131354 L297.895457,16.1773663 Z M322.719668,16.137987 L335.131773,16.1182974 L335.121929,9.91224457 L322.709823,9.93193423 L322.719668,16.137987 Z M347.543879,16.0986077 L359.955985,16.0789181 L359.94614,9.87286526 L347.534034,9.89255491 L347.543879,16.0986077 Z M372.36809,16.0592284 L384.780196,16.0395387 L384.770351,9.83348594 L372.358245,9.8531756 L372.36809,16.0592284 Z M397.192301,16.0198491 L409.604407,16.0001594 L409.594562,9.79410663 L397.182457,9.81379628 L397.192301,16.0198491 Z M422.016513,15.9804698 L434.428618,15.9607801 L434.418773,9.75472731 L422.006668,9.77441697 L422.016513,15.9804698 Z M446.840724,15.9410904 L459.252829,15.9214008 L459.242985,9.71534799 L446.830879,9.73503765 L446.840724,15.9410904 Z M471.664935,15.9017111 L484.077041,15.8820215 L484.067196,9.67596868 L471.65509,9.69565834 L471.664935,15.9017111 Z M496.489146,15.8623318 L508.901252,15.8426422 L508.891407,9.63658936 L496.479301,9.65627902 L496.489146,15.8623318 Z M521.313357,15.8229525 L533.725463,15.8032628 L533.715618,9.59721005 L521.303513,9.61689971 L521.313357,15.8229525 Z M546.137569,15.7835732 L558.549674,15.7638835 L558.539829,9.55783073 L546.127724,9.57752039 L546.137569,15.7835732 Z M570.96178,15.7441939 L583.373885,15.7245042 L583.364041,9.51845142 L570.951935,9.53814107 L570.96178,15.7441939 Z M595.785991,15.7048146 L608.198097,15.6851249 L608.188252,9.4790721 L595.776146,9.49876176 L595.785991,15.7048146 Z M620.610202,15.6654352 L633.022308,15.6457456 L633.012463,9.43969279 L620.600357,9.45938244 L620.610202,15.6654352 Z M645.434413,15.6260559 L657.846519,15.6063663 L657.836674,9.40031347 L645.424569,9.42000313 L645.434413,15.6260559 Z M670.258625,15.5866766 L682.67073,15.566987 L682.660885,9.36093416 L670.24878,9.38062381 L670.258625,15.5866766 Z M695.082836,15.5472973 L707.494941,15.5276076 L707.485097,9.32155484 L695.072991,9.3412445 L695.082836,15.5472973 Z" id="Path-9" fill="#EFF6FA" fill-rule="nonzero"></path>
                            <g id="Group-50">
                                <polygon id="Path-10" fill="#54C4E9" opacity="0.15" points="0 18.6181818 148.945455 74.4727273 310.30303 0 496.484848 86.8848485 664.048485 18.6181818 806.787879 136.533333 0 136.533333"></polygon>
                                <polyline id="Path-10" stroke="#54C4E9" stroke-linecap="round" points="0 18.6181818 148.945455 74.4727273 310.30303 0 496.484848 86.8848485 701.284848 18.6181818"></polyline>
                            </g>
                        </g>
                        <circle id="Oval-13" fill="#D8EAF9" cx="117.915152" cy="552.339394" r="31.030303"></circle>
                        <circle id="Oval-13-Copy" fill="#72C4B9" cx="254.448485" cy="552.339394" r="31.030303"></circle>
                        <circle id="Oval-13-Copy-2" fill="#D8EAF9" cx="390.981818" cy="552.339394" r="31.030303"></circle>
                        <circle id="Oval-13-Copy-3" fill="#72C4B9" cx="527.515152" cy="552.339394" r="31.030303"></circle>
                        <rect id="Rectangle-21" fill="#D8EAF9" x="359.951515" y="93.0909091" width="533.721212" height="18.6181818" rx="9.30909091"></rect>
                        <rect id="Rectangle-21-Copy" fill="#D8EAF9" x="359.951515" y="161.357576" width="533.721212" height="18.6181818" rx="9.30909091"></rect>
                        <rect id="Rectangle-21-Copy-2" fill="#D8EAF9" x="359.951515" y="229.624242" width="217.212121" height="18.6181818" rx="9.30909091"></rect>
                    </g>
                </g>
                <g id="rubik-" transform="translate(99.296970, 80.678788)" fill-rule="nonzero" fill="#70C9F8">
                    <g id="Group">
                        <path d="M92.6958629,27.4901271 C92.6958629,31.9948642 89.4685167,37.4479671 85.5309051,39.6192254 L61.6560196,52.7840389 C57.718408,54.9552972 54.6530521,53.0585658 54.8524249,48.5538287 L55.699759,28.3137079 C55.8866709,23.8214492 59.2386251,18.3059539 63.1388543,16.0598246 L85.6056699,3.16953803 C89.5058991,0.935887214 92.6958629,2.78270465 92.6958629,7.28744178 L92.6958629,27.4901271 Z" id="Shape"></path>
                        <path d="M92.6958629,83.493618 C92.6958629,87.9983551 89.4311343,93.3641085 85.4312187,95.4355389 L59.4006155,108.899836 C55.4006999,110.971267 52.2979616,108.974707 52.4848736,104.482449 L53.5315805,79.6627197 C53.7184924,75.1579826 57.107829,69.7173582 61.0579014,67.5710569 L85.4935227,54.3064154 C89.4435951,52.1601141 92.6834021,54.094281 92.6834021,58.5865396 L92.6958629,83.493618 L92.6958629,83.493618 Z" id="Shape"></path>
                        <path d="M37.7188301,112.181681 C37.4571534,116.673939 33.9805912,122.039693 29.9931364,124.111123 L6.64160437,136.190307 C2.64168879,138.261738 -0.274137516,136.277657 0.149529554,131.797877 L2.49215924,107.090454 C2.91582631,102.610674 6.49207482,97.1825283 10.454608,95.036227 L32.4354525,83.1067846 C36.3855249,80.9604833 39.4134984,82.8821717 39.1518217,87.3744303 L37.7188301,112.181681 Z" id="Shape"></path>
                        <path d="M40.9212547,56.3154533 C40.659578,60.8077119 37.232859,66.2608148 33.2952474,68.4320731 L11.8128348,80.2866445 C7.8627624,82.4579028 4.99677928,80.5736499 5.42044635,76.0938698 L7.33940896,55.803835 C7.76307603,51.3240548 11.3019422,45.821038 15.2021714,43.5873872 L35.463426,31.9449503 C39.3636552,29.7112994 42.3417855,31.5456384 42.0801088,36.0503755 L40.9212547,56.3154533 Z" id="Shape"></path>
                    </g>
                    <g id="Group" transform="translate(105.137968, 0.000000)">
                        <path d="M0.760108568,27.4901271 C0.760108568,31.9948642 3.98745478,37.4479671 7.92506638,39.6192254 L31.7999519,52.7840389 C35.7375635,54.9552972 38.8029194,53.0585658 38.6160074,48.5538287 L37.7562125,28.3137079 C37.5693005,23.8214492 34.2173464,18.3059539 30.3171171,16.0598246 L7.8503016,3.16953803 C3.95007239,0.935887214 0.760108568,2.78270465 0.760108568,7.28744178 L0.760108568,27.4901271 Z" id="Shape"></path>
                        <path d="M0.760108568,83.493618 C0.760108568,87.9983551 4.02483717,93.3641085 8.02475275,95.4355389 L34.055356,108.899836 C38.0552716,110.971267 41.1580098,108.974707 40.9710979,104.482449 L39.924391,79.6627197 C39.7374791,75.1704611 36.3481425,69.7298367 32.3856093,67.5835354 L7.94998797,54.3188939 C3.99991558,52.1725926 0.760108568,54.094281 0.760108568,58.5990181 L0.760108568,83.493618 Z" id="Shape"></path>
                        <path d="M55.7371414,112.181681 C55.9988181,116.673939 59.4753802,122.039693 63.462835,124.111123 L86.8143671,136.190307 C90.8142827,138.261738 93.730109,136.277657 93.3064419,131.797877 L90.9638122,107.090454 C90.5401452,102.610674 86.9638967,97.1825283 83.0013635,95.036227 L61.020519,83.1067846 C57.0704466,80.9604833 54.0424731,82.8821717 54.3041498,87.3744303 L55.7371414,112.181681 Z" id="Shape"></path>
                        <path d="M52.5347168,56.3154533 C52.7963935,60.8077119 56.2231124,66.2608148 60.160724,68.4320731 L81.6431367,80.2866445 C85.5807483,82.4579028 88.4591922,80.5736499 88.0355251,76.0813913 L86.1165625,55.7913565 C85.6928954,51.3115763 82.1540293,45.8085595 78.2538001,43.5749087 L57.9925455,31.9449503 C54.0923163,29.7112994 51.114186,31.5456384 51.3758627,36.0503755 L52.5347168,56.3154533 Z" id="Shape"></path>
                    </g>
                    <g id="Group" transform="translate(5.840998, 105.137968)">
                        <path d="M154.638481,62.4256684 C150.588722,64.3743715 143.9845,64.3371351 139.972124,62.3387836 L113.879216,49.3557048 C109.854379,47.3573533 109.86684,44.1053775 113.904138,42.1194381 L140.582703,29.0370624 C144.620001,27.0635351 151.211762,27.0635351 155.24906,29.0370624 L181.952546,42.1194381 C185.989844,44.0929654 185.977383,47.3077048 181.927624,49.2564078 L154.638481,62.4256684 Z" id="Shape"></path>
                        <path d="M97.7923286,89.8316321 C93.7425698,91.7803351 87.1632694,91.7182745 83.150893,89.6826866 L57.8679375,76.8485533 C53.868022,74.8129654 53.8804828,71.5361654 57.9177807,69.5626381 L83.6742465,56.9395109 C87.7115444,54.9659836 94.2908448,54.9908078 98.315682,57.0015715 L124.184295,69.9350018 C128.196671,71.9457654 128.18421,75.1853291 124.134452,77.1340321 L97.7923286,89.8316321 Z" id="Shape"></path>
                        <path d="M42.9274429,61.9291836 C38.9026057,63.915123 32.3233053,63.8778866 28.3233898,61.8422988 L3.83792523,49.4177654 C-0.161990351,47.3821775 -0.161990351,44.0681412 3.86284682,42.0573775 L28.8467432,29.5459594 C32.8591196,27.5351957 39.43842,27.5351957 43.4507963,29.5459594 L68.4969967,42.0697897 C72.5093731,44.0805533 72.5093731,47.3449412 68.4720751,49.3308806 L42.9274429,61.9291836 Z" id="Shape"></path>
                        <path d="M98.5648979,34.4859836 C94.5400607,36.471923 87.9482996,36.4595109 83.9234624,34.4611594 L58.6529677,21.9000927 C54.6281305,19.9017412 54.6281305,16.6125291 58.6405069,14.6017654 L84.5091198,1.64351087 C88.533957,-0.379664884 95.1257182,-0.404489127 99.1630161,1.56903815 L125.019168,14.2294018 C129.056466,16.2029291 129.056466,19.4424927 125.031629,21.4284321 L98.5648979,34.4859836 Z" id="Shape"></path>
                    </g>
                </g>
                <rect id="Rectangle-61" fill="url(#linearGradient-1)" opacity="0.201492537" x="577.163636" y="614.4" width="446.836364" height="273.487417"></rect>
                <g id="Group-49" transform="translate(577.163636, 316.509091)">
                    <g id="Group-6-Copy-7" transform="translate(223.418182, 186.181818)">
                        <mask id="mask-3" fill="white">
                            <use xlink:href="#path-2"></use>
                        </mask>
                        <use id="Polygon-3" fill="#176EDA" xlink:href="#path-2"></use>
                        <rect id="Rectangle-4" fill="#3384E8" mask="url(#mask-3)" x="111.709091" y="-33.0989899" width="182.044444" height="297.890909"></rect>
                        <polygon id="Polygon-3-Copy" fill="#75AEF5" mask="url(#mask-3)" points="111.709091 -128.258586 223.418182 -64.1292929 223.418182 64.1292929 111.709091 128.258586 0 64.1292929 0 -64.1292929"></polygon>
                    </g>
                    <g id="Group-6-Copy-5" transform="translate(0.000000, 186.181818)">
                        <mask id="mask-5" fill="white">
                            <use xlink:href="#path-4"></use>
                        </mask>
                        <use id="Polygon-3" fill="#176EDA" xlink:href="#path-4"></use>
                        <rect id="Rectangle-4" fill="#3384E8" mask="url(#mask-5)" x="111.709091" y="-33.0989899" width="182.044444" height="297.890909"></rect>
                        <polygon id="Polygon-3-Copy" fill="#75AEF5" mask="url(#mask-5)" points="111.709091 -128.258586 223.418182 -64.1292929 223.418182 64.1292929 111.709091 128.258586 0 64.1292929 0 -64.1292929"></polygon>
                    </g>
                    <g id="Group-6" transform="translate(111.709091, 0.000000)">
                        <mask id="mask-7" fill="white">
                            <use xlink:href="#path-6"></use>
                        </mask>
                        <use id="Polygon-3" fill="#176EDA" xlink:href="#path-6"></use>
                        <rect id="Rectangle-4" fill="#3384E8" mask="url(#mask-7)" x="111.709091" y="-33.0989899" width="182.044444" height="297.890909"></rect>
                        <polygon id="Polygon-3-Copy" fill="#75AEF5" mask="url(#mask-7)" points="111.709091 -128.258586 223.418182 -64.1292929 223.418182 64.1292929 111.709091 128.258586 0 64.1292929 0 -64.1292929"></polygon>
                    </g>
                </g>
            </g>
        </g>
    </g>
</svg>