<?xml version="1.0" encoding="UTF-8" standalone="no"?>
<svg width="1024px" height="1024px" viewBox="0 0 1024 1024" version="1.1" xmlns="http://www.w3.org/2000/svg" xmlns:xlink="http://www.w3.org/1999/xlink">
    <!-- Generator: Sketch 46.2 (44496) - http://www.bohemiancoding.com/sketch -->
    <title>Transporter</title>
    <desc>Created with Sketch.</desc>
    <defs>
        <linearGradient x1="50%" y1="0%" x2="50%" y2="100%" id="linearGradient-1">
            <stop stop-color="#409EF3" offset="0%"></stop>
            <stop stop-color="#409EF3" stop-opacity="0" offset="100%"></stop>
        </linearGradient>
    </defs>
    <g id="Page-1" stroke="none" stroke-width="1" fill="none" fill-rule="evenodd">
        <g id="Transporter">
            <g id="Group-52" transform="translate(0.000000, 251.000000)">
                <g id="Group-41-Copy">
                    <path d="M8.2248996,0 L320.771084,0 C325.313571,-8.34441254e-16 328.995984,3.68241298 328.995984,8.2248996 L328.995984,320.771084 C328.995984,325.313571 325.313571,328.995984 320.771084,328.995984 L8.2248996,328.995984 C3.68241298,328.995984 5.5629417e-16,325.313571 0,320.771084 L0,8.2248996 C-5.5629417e-16,3.68241298 3.68241298,8.34441254e-16 8.2248996,0 Z" id="Rectangle-69-Copy" fill="#D7E1E7" fill-rule="nonzero"></path>
                    <path d="M8.2248996,4.1124498 C5.95365629,4.1124498 4.1124498,5.95365629 4.1124498,8.2248996 L4.1124498,320.771084 C4.1124498,323.042328 5.95365629,324.883534 8.2248996,324.883534 L320.771084,324.883534 C323.042328,324.883534 324.883534,323.042328 324.883534,320.771084 L324.883534,8.2248996 C324.883534,5.95365629 323.042328,4.1124498 320.771084,4.1124498 L8.2248996,4.1124498 Z" id="Path" fill="#FFFFFF"></path>
                    <rect id="Rectangle-25" fill="#D8EAF9" x="37.0120482" y="78.1365462" width="37.0120482" height="37.0120482"></rect>
                    <rect id="Rectangle-25-Copy-3" fill="#D8EAF9" x="37.0120482" y="152.160643" width="37.0120482" height="37.0120482"></rect>
                    <rect id="Rectangle-69" fill="#D8EAF9" x="102.811245" y="90.4738956" width="180.947791" height="12.3373494" rx="6.1686747"></rect>
                    <rect id="Rectangle-69-Copy-2" fill="#D8EAF9" x="102.811245" y="164.497992" width="180.947791" height="12.3373494" rx="6.1686747"></rect>
                    <rect id="Rectangle-25-Copy-4" fill="#D8EAF9" x="37.0120482" y="226.184739" width="37.0120482" height="37.0120482"></rect>
                    <rect id="Rectangle-69-Copy-3" fill="#D8EAF9" x="102.811245" y="238.522088" width="180.947791" height="12.3373494" rx="6.1686747"></rect>
                    <g id="Group-40">
                        <path d="M8.2248996,0 L320.771084,0 C325.313571,-8.34441254e-16 328.995984,3.68241298 328.995984,8.2248996 L328.995984,32.8995984 L0,32.8995984 L0,8.2248996 C-5.5629417e-16,3.68241298 3.68241298,8.34441254e-16 8.2248996,0 Z" id="Rectangle-52" fill="#176EDA"></path>
                        <circle id="Oval-18" fill="#FEFEFF" cx="16.7367143" cy="16.7367143" r="4.3993649"></circle>
                        <circle id="Oval-18-Copy" fill="#FEFEFF" cx="33.1865135" cy="16.7367143" r="4.3993649"></circle>
                        <circle id="Oval-18-Copy-2" fill="#FEFEFF" cx="49.6363127" cy="16.7367143" r="4.3993649"></circle>
                    </g>
                </g>
                <g id="Group-41-Copy-2" transform="translate(695.004016, 193.285141)">
                    <path d="M8.2248996,0 L320.771084,0 C325.313571,-8.34441254e-16 328.995984,3.68241298 328.995984,8.2248996 L328.995984,320.771084 C328.995984,325.313571 325.313571,328.995984 320.771084,328.995984 L8.2248996,328.995984 C3.68241298,328.995984 5.5629417e-16,325.313571 0,320.771084 L0,8.2248996 C-5.5629417e-16,3.68241298 3.68241298,8.34441254e-16 8.2248996,0 Z" id="Rectangle-69-Copy" fill="#D7E1E7" fill-rule="nonzero"></path>
                    <path d="M8.2248996,4.1124498 C5.95365629,4.1124498 4.1124498,5.95365629 4.1124498,8.2248996 L4.1124498,320.771084 C4.1124498,323.042328 5.95365629,324.883534 8.2248996,324.883534 L320.771084,324.883534 C323.042328,324.883534 324.883534,323.042328 324.883534,320.771084 L324.883534,8.2248996 C324.883534,5.95365629 323.042328,4.1124498 320.771084,4.1124498 L8.2248996,4.1124498 Z" id="Path" fill="#FFFFFF"></path>
                    <path d="M136.599133,233.620048 L141.205076,233.620048 L141.205076,275.534137 L136.887004,275.534137 L136.887004,270.640321 C134.814329,274.440225 131.47502,276.340177 126.984225,276.340177 C122.608578,276.340177 119.211695,274.728096 116.793574,271.619084 C114.548177,268.740369 113.454265,265.055614 113.454265,260.564819 C113.454265,256.189173 114.548177,252.619566 116.793574,249.740851 C119.211695,246.516691 122.49343,244.962185 126.753928,244.962185 C131.014426,244.962185 134.296161,247.034859 136.599133,251.237783 L136.599133,233.620048 Z M127.732691,248.762088 C124.450956,248.762088 121.975261,249.913574 120.363181,252.216546 C118.866249,254.231647 118.175357,256.995213 118.175357,260.564819 C118.175357,264.134426 118.866249,266.955566 120.305606,269.028241 C121.917687,271.331213 124.335807,272.540273 127.559968,272.540273 C130.553831,272.540273 132.856803,271.388787 134.526458,269.085815 C135.965815,267.013141 136.714281,264.307149 136.714281,260.967839 L136.714281,260.392096 C136.714281,256.937639 135.850667,254.116498 134.238586,251.986249 C132.568932,249.798426 130.381108,248.762088 127.732691,248.762088 Z M158.995534,244.962185 C163.774201,244.962185 167.401382,246.574265 169.819502,249.798426 C172.007325,252.677141 173.158811,256.764916 173.27396,261.946602 L149.783647,261.946602 C150.013944,265.285912 150.877558,267.876755 152.489639,269.719133 C154.101719,271.56151 156.347116,272.482699 159.168257,272.482699 C161.586378,272.482699 163.601478,271.849382 165.09841,270.640321 C166.365044,269.603984 167.343807,268.049478 168.092273,265.976803 L172.698217,265.976803 C172.007325,268.855518 170.683116,271.15849 168.668016,273.000867 C166.192321,275.188691 163.025735,276.340177 159.168257,276.340177 C154.907759,276.340177 151.453301,274.900819 148.920032,272.137253 C146.271614,269.258538 145.00498,265.458635 145.00498,260.622394 C145.00498,256.246747 146.21404,252.561992 148.747309,249.625703 C151.280578,246.516691 154.677462,244.962185 158.995534,244.962185 Z M159.110683,248.819663 C156.462265,248.819663 154.332016,249.683277 152.719936,251.410506 C151.107855,253.137735 150.186667,255.440707 149.898795,258.376996 L168.495293,258.376996 C167.91955,251.986249 164.752964,248.819663 159.110683,248.819663 Z M187.60996,244.962185 C184.270651,244.962185 181.507084,245.710651 179.43441,247.207582 C177.189012,248.704514 176.0951,250.66204 176.0951,253.195309 C176.0951,255.728578 177.189012,257.62853 179.491984,259.010313 C180.873767,259.931502 183.349462,260.795116 186.861494,261.658731 C190.085655,262.464771 192.215904,263.098088 193.194667,263.558683 C195.037044,264.479871 196.015807,265.746506 196.015807,267.416161 C196.015807,270.75547 193.309815,272.482699 188.01298,272.482699 C185.479711,272.482699 183.579759,272.022104 182.313124,271.100916 C181.04649,270.064578 180.182876,268.394924 179.83743,266.034378 L175.346635,266.034378 C176.037526,272.885719 180.298024,276.340177 188.128129,276.340177 C196.533976,276.340177 200.7369,273.231165 200.7369,267.128289 C200.7369,264.537446 199.527839,262.522345 197.167293,261.025414 C195.612787,260.046651 193.079518,259.125462 189.509912,258.261847 C186.516048,257.455807 184.443373,256.82249 183.349462,256.304321 C181.622233,255.440707 180.816193,254.346795 180.816193,253.080161 C180.816193,251.755952 181.44951,250.719614 182.716145,249.971149 C183.867631,249.165108 185.479711,248.819663 187.552386,248.819663 C189.912932,248.819663 191.755309,249.280257 193.021944,250.201446 C194.17343,251.007486 194.921896,252.389269 195.324916,254.231647 L199.815711,254.231647 C199.009671,248.013622 194.97947,244.962185 187.60996,244.962185 Z M212.482056,236.153317 L207.933687,238.053269 L207.933687,245.768225 L201.94596,245.768225 L201.94596,249.625703 L207.933687,249.625703 L207.933687,268.567647 C207.933687,270.813044 208.394281,272.482699 209.373044,273.634185 C210.409382,274.900819 212.194185,275.534137 214.612305,275.534137 L219.1031,275.534137 L219.1031,271.676659 L215.303197,271.676659 C214.266859,271.676659 213.518394,271.388787 213.115373,270.928193 C212.654779,270.467598 212.482056,269.661558 212.482056,268.567647 L212.482056,249.625703 L219.851566,249.625703 L219.851566,245.768225 L212.482056,245.768225 L212.482056,236.153317 Z" id="dest" fill="#A9B9C6"></path>
                    <rect id="Rectangle-25-Copy-3" fill="#70C9F8" x="37.0120482" y="86.3614458" width="37.0120482" height="37.0120482"></rect>
                    <rect id="Rectangle-69-Copy-2" fill="#70C9F8" x="102.811245" y="98.6987952" width="180.947791" height="12.3373494" rx="6.1686747"></rect>
                    <rect id="Rectangle-25-Copy-4" fill="#70C9F8" x="37.0120482" y="160.385542" width="37.0120482" height="37.0120482"></rect>
                    <rect id="Rectangle-69-Copy-3" fill="#70C9F8" x="102.811245" y="172.722892" width="180.947791" height="12.3373494" rx="6.1686747"></rect>
                    <g id="Group-40">
                        <path d="M8.2248996,0 L320.771084,0 C325.313571,-8.34441254e-16 328.995984,3.68241298 328.995984,8.2248996 L328.995984,32.8995984 L0,32.8995984 L0,8.2248996 C-5.5629417e-16,3.68241298 3.68241298,8.34441254e-16 8.2248996,0 Z" id="Rectangle-52" fill="#176EDA"></path>
                        <circle id="Oval-18" fill="#FEFEFF" cx="16.7367143" cy="16.7367143" r="4.3993649"></circle>
                        <circle id="Oval-18-Copy" fill="#FEFEFF" cx="33.1865135" cy="16.7367143" r="4.3993649"></circle>
                        <circle id="Oval-18-Copy-2" fill="#FEFEFF" cx="49.6363127" cy="16.7367143" r="4.3993649"></circle>
                    </g>
                </g>
                <g id="Group-25" transform="translate(431.807229, 193.285141)">
                    <rect id="Rectangle-61" fill="url(#linearGradient-1)" opacity="0.201492537" x="0" y="82.248996" width="164.497992" height="181.226601"></rect>
                    <g id="Group-24">
                        <circle id="Combined-Shape" fill="#3384E8" cx="82.248996" cy="82.248996" r="82.248996"></circle>
                        <g id="Transporter-" transform="translate(37.012048, 37.012048)" fill-rule="nonzero" fill="#FFFFFF">
                            <path d="M12.9264578,42.0251245 L25.3948916,27.4531727 L18.0778153,27.4531727 C18.1400161,19.237012 24.5523534,12.59849 32.45751,12.59849 L35.8502811,12.59849 L35.8502811,2.57850602 L32.45751,2.57850602 C19.3161767,2.57850602 8.66853012,13.6672129 8.66853012,27.3400803 C8.66853012,27.3796627 8.66853012,27.419245 8.66853012,27.4531727 L0.458024096,27.4531727 L12.9264578,42.0251245 L12.9264578,42.0251245 Z" id="Shape"></path>
                            <path d="M90.0158715,63.1111968 L77.5474378,48.539245 L65.079004,63.1111968 L72.3904257,63.1111968 C72.3282249,71.3273574 65.9158876,77.9658795 58.0107309,77.9658795 L54.6179598,77.9658795 L54.6179598,87.9858635 L58.0107309,87.9858635 C71.1520643,87.9858635 81.7997108,76.8971566 81.7997108,63.2242892 C81.7997108,63.1847068 81.7997108,63.1451245 81.7997108,63.1111968 L90.0158715,63.1111968 L90.0158715,63.1111968 Z" id="Shape"></path>
                            <path d="M44.1625703,2.5106506 L44.1625703,40.1817189 L85.2603373,40.1817189 L85.2603373,7.07958233 L85.2603373,2.48803213 L44.1625703,2.5106506 Z M76.1450924,32.7685141 L53.2778153,32.7685141 L53.2778153,9.90123695 L76.1450924,9.90123695 L76.1450924,32.7685141 L76.1450924,32.7685141 Z" id="Shape"></path>
                            <path d="M5.21355823,50.3147952 L5.21355823,87.9858635 L46.3113253,87.9858635 L46.3113253,54.8837269 L46.3113253,50.2921767 L5.21355823,50.3147952 Z M37.1960803,80.5726586 L14.3288032,80.5726586 L14.3288032,57.7053815 L37.1960803,57.7053815 L37.1960803,80.5726586 Z" id="Shape"></path>
                        </g>
                    </g>
                </g>
                <path d="M635.825865,98.715245 C634.444081,100.269751 632.832001,101.651534 630.874475,102.918169 C628.916949,104.069655 626.959423,104.875695 625.117045,105.393863 L625.117045,110.114956 C628.974523,108.96347 632.198684,107.121092 634.789527,104.472675 L634.789527,139.823293 L639.51062,139.823293 L639.51062,98.715245 L635.825865,98.715245 Z M661.331278,97.9092048 C666.225093,97.9092048 669.909848,100.039454 672.443118,104.4151 C674.630941,108.099855 675.724852,113.051245 675.724852,119.269269 C675.724852,125.487293 674.630941,130.438683 672.443118,134.123438 C669.909848,138.44151 666.225093,140.629333 661.331278,140.629333 C656.379889,140.629333 652.695134,138.44151 650.219439,134.123438 C648.031616,130.438683 646.937704,125.487293 646.937704,119.269269 C646.937704,113.051245 648.031616,108.099855 650.219439,104.4151 C652.695134,100.039454 656.379889,97.9092048 661.331278,97.9092048 Z M661.331278,101.939406 C657.646523,101.939406 654.998105,103.896932 653.386025,107.869558 C652.234539,110.633124 651.658796,114.433028 651.658796,119.269269 C651.658796,124.047936 652.234539,127.847839 653.386025,130.66898 C654.998105,134.584032 657.646523,136.599133 661.331278,136.599133 C665.016033,136.599133 667.664451,134.584032 669.276531,130.66898 C670.428017,127.847839 671.061334,124.047936 671.061334,119.269269 C671.061334,114.433028 670.428017,110.633124 669.276531,107.869558 C667.664451,103.896932 665.016033,101.939406 661.331278,101.939406 Z M694.263776,97.9092048 C699.157591,97.9092048 702.842346,100.039454 705.375615,104.4151 C707.563439,108.099855 708.65735,113.051245 708.65735,119.269269 C708.65735,125.487293 707.563439,130.438683 705.375615,134.123438 C702.842346,138.44151 699.157591,140.629333 694.263776,140.629333 C689.312387,140.629333 685.627631,138.44151 683.151937,134.123438 C680.964113,130.438683 679.870202,125.487293 679.870202,119.269269 C679.870202,113.051245 680.964113,108.099855 683.151937,104.4151 C685.627631,100.039454 689.312387,97.9092048 694.263776,97.9092048 Z M694.263776,101.939406 C690.579021,101.939406 687.930603,103.896932 686.318523,107.869558 C685.167037,110.633124 684.591294,114.433028 684.591294,119.269269 C684.591294,124.047936 685.167037,127.847839 686.318523,130.66898 C687.930603,134.584032 690.579021,136.599133 694.263776,136.599133 C697.948531,136.599133 700.596949,134.584032 702.209029,130.66898 C703.360515,127.847839 703.993832,124.047936 703.993832,119.269269 C703.993832,114.433028 703.360515,110.633124 702.209029,107.869558 C700.596949,103.896932 697.948531,101.939406 694.263776,101.939406 Z M723.166073,98.715245 C721.78429,100.269751 720.17221,101.651534 718.214684,102.918169 C716.257158,104.069655 714.299631,104.875695 712.457254,105.393863 L712.457254,110.114956 C716.314732,108.96347 719.538892,107.121092 722.129736,104.472675 L722.129736,139.823293 L726.850828,139.823293 L726.850828,98.715245 L723.166073,98.715245 Z M744.641286,98.715245 C743.259503,100.269751 741.647422,101.651534 739.689896,102.918169 C737.73237,104.069655 735.774844,104.875695 733.932467,105.393863 L733.932467,110.114956 C737.789945,108.96347 741.014105,107.121092 743.604949,104.472675 L743.604949,139.823293 L748.326041,139.823293 L748.326041,98.715245 L744.641286,98.715245 Z M770.1467,97.9092048 C775.040515,97.9092048 778.72527,100.039454 781.258539,104.4151 C783.446362,108.099855 784.540274,113.051245 784.540274,119.269269 C784.540274,125.487293 783.446362,130.438683 781.258539,134.123438 C778.72527,138.44151 775.040515,140.629333 770.1467,140.629333 C765.19531,140.629333 761.510555,138.44151 759.03486,134.123438 C756.847037,130.438683 755.753125,125.487293 755.753125,119.269269 C755.753125,113.051245 756.847037,108.099855 759.03486,104.4151 C761.510555,100.039454 765.19531,97.9092048 770.1467,97.9092048 Z M770.1467,101.939406 C766.461944,101.939406 763.813527,103.896932 762.201447,107.869558 C761.049961,110.633124 760.474218,114.433028 760.474218,119.269269 C760.474218,124.047936 761.049961,127.847839 762.201447,130.66898 C763.813527,134.584032 766.461944,136.599133 770.1467,136.599133 C773.831455,136.599133 776.479872,134.584032 778.091953,130.66898 C779.243438,127.847839 779.876756,124.047936 779.876756,119.269269 C779.876756,114.433028 779.243438,110.633124 778.091953,107.869558 C776.479872,103.896932 773.831455,101.939406 770.1467,101.939406 Z M803.079197,97.9092048 C807.973013,97.9092048 811.657768,100.039454 814.191037,104.4151 C816.37886,108.099855 817.472772,113.051245 817.472772,119.269269 C817.472772,125.487293 816.37886,130.438683 814.191037,134.123438 C811.657768,138.44151 807.973013,140.629333 803.079197,140.629333 C798.127808,140.629333 794.443053,138.44151 791.967358,134.123438 C789.779535,130.438683 788.685623,125.487293 788.685623,119.269269 C788.685623,113.051245 789.779535,108.099855 791.967358,104.4151 C794.443053,100.039454 798.127808,97.9092048 803.079197,97.9092048 Z M803.079197,101.939406 C799.394442,101.939406 796.746025,103.896932 795.133944,107.869558 C793.982458,110.633124 793.406716,114.433028 793.406716,119.269269 C793.406716,124.047936 793.982458,127.847839 795.133944,130.66898 C796.746025,134.584032 799.394442,136.599133 803.079197,136.599133 C806.763952,136.599133 809.41237,134.584032 811.02445,130.66898 C812.175936,127.847839 812.809254,124.047936 812.809254,119.269269 C812.809254,114.433028 812.175936,110.633124 811.02445,107.869558 C809.41237,103.896932 806.763952,101.939406 803.079197,101.939406 Z M831.981495,98.715245 C830.599711,100.269751 828.987631,101.651534 827.030105,102.918169 C825.072579,104.069655 823.115053,104.875695 821.272675,105.393863 L821.272675,110.114956 C825.130153,108.96347 828.354314,107.121092 830.945157,104.472675 L830.945157,139.823293 L835.66625,139.823293 L835.66625,98.715245 L831.981495,98.715245 Z M853.456707,98.715245 C852.074924,100.269751 850.462844,101.651534 848.505318,102.918169 C846.547792,104.069655 844.590266,104.875695 842.747888,105.393863 L842.747888,110.114956 C846.605366,108.96347 849.829527,107.121092 852.42037,104.472675 L852.42037,139.823293 L857.141462,139.823293 L857.141462,98.715245 L853.456707,98.715245 Z M878.962121,97.9092048 C883.855936,97.9092048 887.540691,100.039454 890.07396,104.4151 C892.261784,108.099855 893.355695,113.051245 893.355695,119.269269 C893.355695,125.487293 892.261784,130.438683 890.07396,134.123438 C887.540691,138.44151 883.855936,140.629333 878.962121,140.629333 C874.010731,140.629333 870.325976,138.44151 867.850282,134.123438 C865.662458,130.438683 864.568547,125.487293 864.568547,119.269269 C864.568547,113.051245 865.662458,108.099855 867.850282,104.4151 C870.325976,100.039454 874.010731,97.9092048 878.962121,97.9092048 Z M878.962121,101.939406 C875.277366,101.939406 872.628948,103.896932 871.016868,107.869558 C869.865382,110.633124 869.289639,114.433028 869.289639,119.269269 C869.289639,124.047936 869.865382,127.847839 871.016868,130.66898 C872.628948,134.584032 875.277366,136.599133 878.962121,136.599133 C882.646876,136.599133 885.295294,134.584032 886.907374,130.66898 C888.05886,127.847839 888.692177,124.047936 888.692177,119.269269 C888.692177,114.433028 888.05886,110.633124 886.907374,107.869558 C885.295294,103.896932 882.646876,101.939406 878.962121,101.939406 Z M911.894619,97.9092048 C916.788434,97.9092048 920.473189,100.039454 923.006458,104.4151 C925.194281,108.099855 926.288193,113.051245 926.288193,119.269269 C926.288193,125.487293 925.194281,130.438683 923.006458,134.123438 C920.473189,138.44151 916.788434,140.629333 911.894619,140.629333 C906.943229,140.629333 903.258474,138.44151 900.782779,134.123438 C898.594956,130.438683 897.501044,125.487293 897.501044,119.269269 C897.501044,113.051245 898.594956,108.099855 900.782779,104.4151 C903.258474,100.039454 906.943229,97.9092048 911.894619,97.9092048 Z M911.894619,101.939406 C908.209864,101.939406 905.561446,103.896932 903.949366,107.869558 C902.79788,110.633124 902.222137,114.433028 902.222137,119.269269 C902.222137,124.047936 902.79788,127.847839 903.949366,130.66898 C905.561446,134.584032 908.209864,136.599133 911.894619,136.599133 C915.579374,136.599133 918.227791,134.584032 919.839872,130.66898 C920.991358,127.847839 921.624675,124.047936 921.624675,119.269269 C921.624675,114.433028 920.991358,110.633124 919.839872,107.869558 C918.227791,103.896932 915.579374,101.939406 911.894619,101.939406 Z M940.796916,98.715245 C939.415133,100.269751 937.803052,101.651534 935.845526,102.918169 C933.888,104.069655 931.930474,104.875695 930.088097,105.393863 L930.088097,110.114956 C933.945575,108.96347 937.169735,107.121092 939.760579,104.472675 L939.760579,139.823293 L944.481671,139.823293 L944.481671,98.715245 L940.796916,98.715245 Z M962.272129,98.715245 C960.890346,100.269751 959.278265,101.651534 957.320739,102.918169 C955.363213,104.069655 953.405687,104.875695 951.563309,105.393863 L951.563309,110.114956 C955.420787,108.96347 958.644948,107.121092 961.235791,104.472675 L961.235791,139.823293 L965.956884,139.823293 L965.956884,98.715245 L962.272129,98.715245 Z M987.777542,97.9092048 C992.671358,97.9092048 996.356113,100.039454 998.889382,104.4151 C1001.0772,108.099855 1002.17112,113.051245 1002.17112,119.269269 C1002.17112,125.487293 1001.0772,130.438683 998.889382,134.123438 C996.356113,138.44151 992.671358,140.629333 987.777542,140.629333 C982.826153,140.629333 979.141398,138.44151 976.665703,134.123438 C974.47788,130.438683 973.383968,125.487293 973.383968,119.269269 C973.383968,113.051245 974.47788,108.099855 976.665703,104.4151 C979.141398,100.039454 982.826153,97.9092048 987.777542,97.9092048 Z M987.777542,101.939406 C984.092787,101.939406 981.44437,103.896932 979.832289,107.869558 C978.680803,110.633124 978.10506,114.433028 978.10506,119.269269 C978.10506,124.047936 978.680803,127.847839 979.832289,130.66898 C981.44437,134.584032 984.092787,136.599133 987.777542,136.599133 C991.462297,136.599133 994.110715,134.584032 995.722795,130.66898 C996.874281,127.847839 997.507598,124.047936 997.507598,119.269269 C997.507598,114.433028 996.874281,110.633124 995.722795,107.869558 C994.110715,103.896932 991.462297,101.939406 987.777542,101.939406 Z" id="10011001100110" fill="#A9B9C6"></path>
                <path d="M37.9167871,472.948177 C36.535004,474.502683 34.9229237,475.884466 32.9653976,477.1511 C31.0078715,478.302586 29.0503454,479.108627 27.2079679,479.626795 L27.2079679,484.347888 C31.0654458,483.196402 34.2896064,481.354024 36.8804498,478.705606 L36.8804498,514.056225 L41.6015422,514.056225 L41.6015422,472.948177 L37.9167871,472.948177 Z M63.4222007,472.142137 C68.316016,472.142137 72.000771,474.272386 74.5340401,478.648032 C76.7218634,482.332787 77.815775,487.284177 77.815775,493.502201 C77.815775,499.720225 76.7218634,504.671614 74.5340401,508.356369 C72.000771,512.674442 68.316016,514.862265 63.4222007,514.862265 C58.4708112,514.862265 54.7860561,512.674442 52.3103614,508.356369 C50.1225381,504.671614 49.0286264,499.720225 49.0286264,493.502201 C49.0286264,487.284177 50.1225381,482.332787 52.3103614,478.648032 C54.7860561,474.272386 58.4708112,472.142137 63.4222007,472.142137 Z M63.4222007,476.172337 C59.7374457,476.172337 57.089028,478.129863 55.4769477,482.10249 C54.3254618,484.866056 53.7497188,488.66596 53.7497188,493.502201 C53.7497188,498.280867 54.3254618,502.080771 55.4769477,504.901912 C57.089028,508.816964 59.7374457,510.832064 63.4222007,510.832064 C67.1069557,510.832064 69.7553734,508.816964 71.3674537,504.901912 C72.5189397,502.080771 73.1522569,498.280867 73.1522569,493.502201 C73.1522569,488.66596 72.5189397,484.866056 71.3674537,482.10249 C69.7553734,478.129863 67.1069557,476.172337 63.4222007,476.172337 Z M96.3546986,472.142137 C101.248514,472.142137 104.933269,474.272386 107.466538,478.648032 C109.654361,482.332787 110.748273,487.284177 110.748273,493.502201 C110.748273,499.720225 109.654361,504.671614 107.466538,508.356369 C104.933269,512.674442 101.248514,514.862265 96.3546986,514.862265 C91.4033091,514.862265 87.7185541,512.674442 85.2428593,508.356369 C83.055036,504.671614 81.9611243,499.720225 81.9611243,493.502201 C81.9611243,487.284177 83.055036,482.332787 85.2428593,478.648032 C87.7185541,474.272386 91.4033091,472.142137 96.3546986,472.142137 Z M96.3546986,476.172337 C92.6699436,476.172337 90.0215259,478.129863 88.4094456,482.10249 C87.2579597,484.866056 86.6822167,488.66596 86.6822167,493.502201 C86.6822167,498.280867 87.2579597,502.080771 88.4094456,504.901912 C90.0215259,508.816964 92.6699436,510.832064 96.3546986,510.832064 C100.039454,510.832064 102.687871,508.816964 104.299952,504.901912 C105.451438,502.080771 106.084755,498.280867 106.084755,493.502201 C106.084755,488.66596 105.451438,484.866056 104.299952,482.10249 C102.687871,478.129863 100.039454,476.172337 96.3546986,476.172337 Z M125.256996,472.948177 C123.875213,474.502683 122.263132,475.884466 120.305606,477.1511 C118.34808,478.302586 116.390554,479.108627 114.548176,479.626795 L114.548176,484.347888 C118.405654,483.196402 121.629815,481.354024 124.220658,478.705606 L124.220658,514.056225 L128.941751,514.056225 L128.941751,472.948177 L125.256996,472.948177 Z M146.732209,472.948177 C145.350425,474.502683 143.738345,475.884466 141.780819,477.1511 C139.823293,478.302586 137.865767,479.108627 136.023389,479.626795 L136.023389,484.347888 C139.880867,483.196402 143.105028,481.354024 145.695871,478.705606 L145.695871,514.056225 L150.416964,514.056225 L150.416964,472.948177 L146.732209,472.948177 Z M172.237622,472.142137 C177.131437,472.142137 180.816192,474.272386 183.349461,478.648032 C185.537285,482.332787 186.631196,487.284177 186.631196,493.502201 C186.631196,499.720225 185.537285,504.671614 183.349461,508.356369 C180.816192,512.674442 177.131437,514.862265 172.237622,514.862265 C167.286233,514.862265 163.601478,512.674442 161.125783,508.356369 C158.937959,504.671614 157.844048,499.720225 157.844048,493.502201 C157.844048,487.284177 158.937959,482.332787 161.125783,478.648032 C163.601478,474.272386 167.286233,472.142137 172.237622,472.142137 Z M172.237622,476.172337 C168.552867,476.172337 165.904449,478.129863 164.292369,482.10249 C163.140883,484.866056 162.56514,488.66596 162.56514,493.502201 C162.56514,498.280867 163.140883,502.080771 164.292369,504.901912 C165.904449,508.816964 168.552867,510.832064 172.237622,510.832064 C175.922377,510.832064 178.570795,508.816964 180.182875,504.901912 C181.334361,502.080771 181.967678,498.280867 181.967678,493.502201 C181.967678,488.66596 181.334361,484.866056 180.182875,482.10249 C178.570795,478.129863 175.922377,476.172337 172.237622,476.172337 Z M205.17012,472.142137 C210.063935,472.142137 213.74869,474.272386 216.281959,478.648032 C218.469783,482.332787 219.563694,487.284177 219.563694,493.502201 C219.563694,499.720225 218.469783,504.671614 216.281959,508.356369 C213.74869,512.674442 210.063935,514.862265 205.17012,514.862265 C200.21873,514.862265 196.533975,512.674442 194.058281,508.356369 C191.870457,504.671614 190.776546,499.720225 190.776546,493.502201 C190.776546,487.284177 191.870457,482.332787 194.058281,478.648032 C196.533975,474.272386 200.21873,472.142137 205.17012,472.142137 Z M205.17012,476.172337 C201.485365,476.172337 198.836947,478.129863 197.224867,482.10249 C196.073381,484.866056 195.497638,488.66596 195.497638,493.502201 C195.497638,498.280867 196.073381,502.080771 197.224867,504.901912 C198.836947,508.816964 201.485365,510.832064 205.17012,510.832064 C208.854875,510.832064 211.503293,508.816964 213.115373,504.901912 C214.266859,502.080771 214.900176,498.280867 214.900176,493.502201 C214.900176,488.66596 214.266859,484.866056 213.115373,482.10249 C211.503293,478.129863 208.854875,476.172337 205.17012,476.172337 Z M234.072417,472.948177 C232.690634,474.502683 231.078554,475.884466 229.121028,477.1511 C227.163501,478.302586 225.205975,479.108627 223.363598,479.626795 L223.363598,484.347888 C227.221076,483.196402 230.445236,481.354024 233.03608,478.705606 L233.03608,514.056225 L237.757172,514.056225 L237.757172,472.948177 L234.072417,472.948177 Z M255.54763,472.948177 C254.165847,474.502683 252.553766,475.884466 250.59624,477.1511 C248.638714,478.302586 246.681188,479.108627 244.838811,479.626795 L244.838811,484.347888 C248.696289,483.196402 251.920449,481.354024 254.511293,478.705606 L254.511293,514.056225 L259.232385,514.056225 L259.232385,472.948177 L255.54763,472.948177 Z M281.053043,472.142137 C285.946859,472.142137 289.631614,474.272386 292.164883,478.648032 C294.352706,482.332787 295.446618,487.284177 295.446618,493.502201 C295.446618,499.720225 294.352706,504.671614 292.164883,508.356369 C289.631614,512.674442 285.946859,514.862265 281.053043,514.862265 C276.101654,514.862265 272.416899,512.674442 269.941204,508.356369 C267.753381,504.671614 266.659469,499.720225 266.659469,493.502201 C266.659469,487.284177 267.753381,482.332787 269.941204,478.648032 C272.416899,474.272386 276.101654,472.142137 281.053043,472.142137 Z M281.053043,476.172337 C277.368288,476.172337 274.719871,478.129863 273.10779,482.10249 C271.956304,484.866056 271.380562,488.66596 271.380562,493.502201 C271.380562,498.280867 271.956304,502.080771 273.10779,504.901912 C274.719871,508.816964 277.368288,510.832064 281.053043,510.832064 C284.737798,510.832064 287.386216,508.816964 288.998296,504.901912 C290.149782,502.080771 290.7831,498.280867 290.7831,493.502201 C290.7831,488.66596 290.149782,484.866056 288.998296,482.10249 C287.386216,478.129863 284.737798,476.172337 281.053043,476.172337 Z M313.985541,472.142137 C318.879357,472.142137 322.564112,474.272386 325.097381,478.648032 C327.285204,482.332787 328.379116,487.284177 328.379116,493.502201 C328.379116,499.720225 327.285204,504.671614 325.097381,508.356369 C322.564112,512.674442 318.879357,514.862265 313.985541,514.862265 C309.034152,514.862265 305.349397,512.674442 302.873702,508.356369 C300.685879,504.671614 299.591967,499.720225 299.591967,493.502201 C299.591967,487.284177 300.685879,482.332787 302.873702,478.648032 C305.349397,474.272386 309.034152,472.142137 313.985541,472.142137 Z M313.985541,476.172337 C310.300786,476.172337 307.652369,478.129863 306.040288,482.10249 C304.888802,484.866056 304.313059,488.66596 304.313059,493.502201 C304.313059,498.280867 304.888802,502.080771 306.040288,504.901912 C307.652369,508.816964 310.300786,510.832064 313.985541,510.832064 C317.670296,510.832064 320.318714,508.816964 321.930794,504.901912 C323.08228,502.080771 323.715598,498.280867 323.715598,493.502201 C323.715598,488.66596 323.08228,484.866056 321.930794,482.10249 C320.318714,478.129863 317.670296,476.172337 313.985541,476.172337 Z M342.887838,472.948177 C341.506055,474.502683 339.893975,475.884466 337.936449,477.1511 C335.978923,478.302586 334.021397,479.108627 332.179019,479.626795 L332.179019,484.347888 C336.036497,483.196402 339.260658,481.354024 341.851501,478.705606 L341.851501,514.056225 L346.572593,514.056225 L346.572593,472.948177 L342.887838,472.948177 Z M364.363051,472.948177 C362.981268,474.502683 361.369188,475.884466 359.411662,477.1511 C357.454136,478.302586 355.496609,479.108627 353.654232,479.626795 L353.654232,484.347888 C357.51171,483.196402 360.735871,481.354024 363.326714,478.705606 L363.326714,514.056225 L368.047806,514.056225 L368.047806,472.948177 L364.363051,472.948177 Z M389.868465,472.142137 C394.76228,472.142137 398.447035,474.272386 400.980304,478.648032 C403.168127,482.332787 404.262039,487.284177 404.262039,493.502201 C404.262039,499.720225 403.168127,504.671614 400.980304,508.356369 C398.447035,512.674442 394.76228,514.862265 389.868465,514.862265 C384.917075,514.862265 381.23232,512.674442 378.756625,508.356369 C376.568802,504.671614 375.474891,499.720225 375.474891,493.502201 C375.474891,487.284177 376.568802,482.332787 378.756625,478.648032 C381.23232,474.272386 384.917075,472.142137 389.868465,472.142137 Z M389.868465,476.172337 C386.18371,476.172337 383.535292,478.129863 381.923212,482.10249 C380.771726,484.866056 380.195983,488.66596 380.195983,493.502201 C380.195983,498.280867 380.771726,502.080771 381.923212,504.901912 C383.535292,508.816964 386.18371,510.832064 389.868465,510.832064 C393.55322,510.832064 396.201638,508.816964 397.813718,504.901912 C398.965204,502.080771 399.598521,498.280867 399.598521,493.502201 C399.598521,488.66596 398.965204,484.866056 397.813718,482.10249 C396.201638,478.129863 393.55322,476.172337 389.868465,476.172337 Z M422.800963,472.142137 C427.694778,472.142137 431.379533,474.272386 433.912802,478.648032 C436.100625,482.332787 437.194537,487.284177 437.194537,493.502201 C437.194537,499.720225 436.100625,504.671614 433.912802,508.356369 C431.379533,512.674442 427.694778,514.862265 422.800963,514.862265 C417.849573,514.862265 414.164818,512.674442 411.689123,508.356369 C409.5013,504.671614 408.407388,499.720225 408.407388,493.502201 C408.407388,487.284177 409.5013,482.332787 411.689123,478.648032 C414.164818,474.272386 417.849573,472.142137 422.800963,472.142137 Z M422.800963,476.172337 C419.116208,476.172337 416.46779,478.129863 414.85571,482.10249 C413.704224,484.866056 413.128481,488.66596 413.128481,493.502201 C413.128481,498.280867 413.704224,502.080771 414.85571,504.901912 C416.46779,508.816964 419.116208,510.832064 422.800963,510.832064 C426.485718,510.832064 429.134135,508.816964 430.746216,504.901912 C431.897702,502.080771 432.531019,498.280867 432.531019,493.502201 C432.531019,488.66596 431.897702,484.866056 430.746216,482.10249 C429.134135,478.129863 426.485718,476.172337 422.800963,476.172337 Z M451.70326,472.948177 C450.321477,474.502683 448.709396,475.884466 446.75187,477.1511 C444.794344,478.302586 442.836818,479.108627 440.994441,479.626795 L440.994441,484.347888 C444.851918,483.196402 448.076079,481.354024 450.666922,478.705606 L450.666922,514.056225 L455.388015,514.056225 L455.388015,472.948177 L451.70326,472.948177 Z M473.178473,472.948177 C471.796689,474.502683 470.184609,475.884466 468.227083,477.1511 C466.269557,478.302586 464.312031,479.108627 462.469653,479.626795 L462.469653,484.347888 C466.327131,483.196402 469.551292,481.354024 472.142135,478.705606 L472.142135,514.056225 L476.863228,514.056225 L476.863228,472.948177 L473.178473,472.948177 Z M498.683886,472.142137 C503.577701,472.142137 507.262456,474.272386 509.795726,478.648032 C511.983549,482.332787 513.07746,487.284177 513.07746,493.502201 C513.07746,499.720225 511.983549,504.671614 509.795726,508.356369 C507.262456,512.674442 503.577701,514.862265 498.683886,514.862265 C493.732497,514.862265 490.047742,512.674442 487.572047,508.356369 C485.384224,504.671614 484.290312,499.720225 484.290312,493.502201 C484.290312,487.284177 485.384224,482.332787 487.572047,478.648032 C490.047742,474.272386 493.732497,472.142137 498.683886,472.142137 Z M498.683886,476.172337 C494.999131,476.172337 492.350713,478.129863 490.738633,482.10249 C489.587147,484.866056 489.011404,488.66596 489.011404,493.502201 C489.011404,498.280867 489.587147,502.080771 490.738633,504.901912 C492.350713,508.816964 494.999131,510.832064 498.683886,510.832064 C502.368641,510.832064 505.017059,508.816964 506.629139,504.901912 C507.780625,502.080771 508.413942,498.280867 508.413942,493.502201 C508.413942,488.66596 507.780625,484.866056 506.629139,482.10249 C505.017059,478.129863 502.368641,476.172337 498.683886,476.172337 Z M531.616384,472.142137 C536.510199,472.142137 540.194954,474.272386 542.728223,478.648032 C544.916047,482.332787 546.009958,487.284177 546.009958,493.502201 C546.009958,499.720225 544.916047,504.671614 542.728223,508.356369 C540.194954,512.674442 536.510199,514.862265 531.616384,514.862265 C526.664995,514.862265 522.98024,512.674442 520.504545,508.356369 C518.316721,504.671614 517.22281,499.720225 517.22281,493.502201 C517.22281,487.284177 518.316721,482.332787 520.504545,478.648032 C522.98024,474.272386 526.664995,472.142137 531.616384,472.142137 Z M531.616384,476.172337 C527.931629,476.172337 525.283211,478.129863 523.671131,482.10249 C522.519645,484.866056 521.943902,488.66596 521.943902,493.502201 C521.943902,498.280867 522.519645,502.080771 523.671131,504.901912 C525.283211,508.816964 527.931629,510.832064 531.616384,510.832064 C535.301139,510.832064 537.949557,508.816964 539.561637,504.901912 C540.713123,502.080771 541.34644,498.280867 541.34644,493.502201 C541.34644,488.66596 540.713123,484.866056 539.561637,482.10249 C537.949557,478.129863 535.301139,476.172337 531.616384,476.172337 Z M560.518681,472.948177 C559.136898,474.502683 557.524818,475.884466 555.567292,477.1511 C553.609766,478.302586 551.652239,479.108627 549.809862,479.626795 L549.809862,484.347888 C553.66734,483.196402 556.8915,481.354024 559.482344,478.705606 L559.482344,514.056225 L564.203436,514.056225 L564.203436,472.948177 L560.518681,472.948177 Z" id="10011001100110011001" fill="#A9B9C6"></path>
                <path d="M472.520484,19.7726586 C477.414299,19.7726586 481.099054,21.9029076 483.632323,26.2785542 C485.820146,29.9633092 486.914058,34.9146988 486.914058,41.1327229 C486.914058,47.350747 485.820146,52.3021365 483.632323,55.9868916 C481.099054,60.3049639 477.414299,62.4927871 472.520484,62.4927871 C467.569094,62.4927871 463.884339,60.3049639 461.408644,55.9868916 C459.220821,52.3021365 458.126909,47.350747 458.126909,41.1327229 C458.126909,34.9146988 459.220821,29.9633092 461.408644,26.2785542 C463.884339,21.9029076 467.569094,19.7726586 472.520484,19.7726586 Z M472.520484,23.8028594 C468.835729,23.8028594 466.187311,25.7603855 464.575231,29.733012 C463.423745,32.4965783 462.848002,36.2964819 462.848002,41.1327229 C462.848002,45.9113896 463.423745,49.7112932 464.575231,52.5324337 C466.187311,56.4474859 468.835729,58.4625863 472.520484,58.4625863 C476.205239,58.4625863 478.853656,56.4474859 480.465737,52.5324337 C481.617222,49.7112932 482.25054,45.9113896 482.25054,41.1327229 C482.25054,36.2964819 481.617222,32.4965783 480.465737,29.733012 C478.853656,25.7603855 476.205239,23.8028594 472.520484,23.8028594 Z M501.422781,20.5786988 C500.040998,22.1332048 498.428917,23.514988 496.471391,24.7816225 C494.513865,25.9331084 492.556339,26.7391486 490.713961,27.2573173 L490.713961,31.9784096 C494.571439,30.8269237 497.7956,28.9845462 500.386443,26.3361285 L500.386443,61.686747 L505.107536,61.686747 L505.107536,20.5786988 L501.422781,20.5786988 Z M526.928194,19.7726586 C531.822009,19.7726586 535.506764,21.9029076 538.040034,26.2785542 C540.227857,29.9633092 541.321769,34.9146988 541.321769,41.1327229 C541.321769,47.350747 540.227857,52.3021365 538.040034,55.9868916 C535.506764,60.3049639 531.822009,62.4927871 526.928194,62.4927871 C521.976805,62.4927871 518.29205,60.3049639 515.816355,55.9868916 C513.628532,52.3021365 512.53462,47.350747 512.53462,41.1327229 C512.53462,34.9146988 513.628532,29.9633092 515.816355,26.2785542 C518.29205,21.9029076 521.976805,19.7726586 526.928194,19.7726586 Z M526.928194,23.8028594 C523.243439,23.8028594 520.595022,25.7603855 518.982941,29.733012 C517.831455,32.4965783 517.255712,36.2964819 517.255712,41.1327229 C517.255712,45.9113896 517.831455,49.7112932 518.982941,52.5324337 C520.595022,56.4474859 523.243439,58.4625863 526.928194,58.4625863 C530.612949,58.4625863 533.261367,56.4474859 534.873447,52.5324337 C536.024933,49.7112932 536.65825,45.9113896 536.65825,41.1327229 C536.65825,36.2964819 536.024933,32.4965783 534.873447,29.733012 C533.261367,25.7603855 530.612949,23.8028594 526.928194,23.8028594 Z M555.830491,20.5786988 C554.448708,22.1332048 552.836628,23.514988 550.879102,24.7816225 C548.921576,25.9331084 546.96405,26.7391486 545.121672,27.2573173 L545.121672,31.9784096 C548.97915,30.8269237 552.203311,28.9845462 554.794154,26.3361285 L554.794154,61.686747 L559.515246,61.686747 L559.515246,20.5786988 L555.830491,20.5786988 Z M581.335905,19.7726586 C586.22972,19.7726586 589.914475,21.9029076 592.447744,26.2785542 C594.635568,29.9633092 595.729479,34.9146988 595.729479,41.1327229 C595.729479,47.350747 594.635568,52.3021365 592.447744,55.9868916 C589.914475,60.3049639 586.22972,62.4927871 581.335905,62.4927871 C576.384515,62.4927871 572.69976,60.3049639 570.224066,55.9868916 C568.036242,52.3021365 566.942331,47.350747 566.942331,41.1327229 C566.942331,34.9146988 568.036242,29.9633092 570.224066,26.2785542 C572.69976,21.9029076 576.384515,19.7726586 581.335905,19.7726586 Z M581.335905,23.8028594 C577.65115,23.8028594 575.002732,25.7603855 573.390652,29.733012 C572.239166,32.4965783 571.663423,36.2964819 571.663423,41.1327229 C571.663423,45.9113896 572.239166,49.7112932 573.390652,52.5324337 C575.002732,56.4474859 577.65115,58.4625863 581.335905,58.4625863 C585.02066,58.4625863 587.669078,56.4474859 589.281158,52.5324337 C590.432644,49.7112932 591.065961,45.9113896 591.065961,41.1327229 C591.065961,36.2964819 590.432644,32.4965783 589.281158,29.733012 C587.669078,25.7603855 585.02066,23.8028594 581.335905,23.8028594 Z M610.238202,20.5786988 C608.856419,22.1332048 607.244339,23.514988 605.286812,24.7816225 C603.329286,25.9331084 601.37176,26.7391486 599.529383,27.2573173 L599.529383,31.9784096 C603.386861,30.8269237 606.611021,28.9845462 609.201865,26.3361285 L609.201865,61.686747 L613.922957,61.686747 L613.922957,20.5786988 L610.238202,20.5786988 Z M635.743616,19.7726586 C640.637431,19.7726586 644.322186,21.9029076 646.855455,26.2785542 C649.043278,29.9633092 650.13719,34.9146988 650.13719,41.1327229 C650.13719,47.350747 649.043278,52.3021365 646.855455,55.9868916 C644.322186,60.3049639 640.637431,62.4927871 635.743616,62.4927871 C630.792226,62.4927871 627.107471,60.3049639 624.631776,55.9868916 C622.443953,52.3021365 621.350041,47.350747 621.350041,41.1327229 C621.350041,34.9146988 622.443953,29.9633092 624.631776,26.2785542 C627.107471,21.9029076 630.792226,19.7726586 635.743616,19.7726586 Z M635.743616,23.8028594 C632.058861,23.8028594 629.410443,25.7603855 627.798363,29.733012 C626.646877,32.4965783 626.071134,36.2964819 626.071134,41.1327229 C626.071134,45.9113896 626.646877,49.7112932 627.798363,52.5324337 C629.410443,56.4474859 632.058861,58.4625863 635.743616,58.4625863 C639.428371,58.4625863 642.076788,56.4474859 643.688869,52.5324337 C644.840355,49.7112932 645.473672,45.9113896 645.473672,41.1327229 C645.473672,36.2964819 644.840355,32.4965783 643.688869,29.733012 C642.076788,25.7603855 639.428371,23.8028594 635.743616,23.8028594 Z M664.645913,20.5786988 C663.26413,22.1332048 661.652049,23.514988 659.694523,24.7816225 C657.736997,25.9331084 655.779471,26.7391486 653.937093,27.2573173 L653.937093,31.9784096 C657.794571,30.8269237 661.018732,28.9845462 663.609575,26.3361285 L663.609575,61.686747 L668.330668,61.686747 L668.330668,20.5786988 L664.645913,20.5786988 Z M690.151326,19.7726586 C695.045142,19.7726586 698.729897,21.9029076 701.263166,26.2785542 C703.450989,29.9633092 704.544901,34.9146988 704.544901,41.1327229 C704.544901,47.350747 703.450989,52.3021365 701.263166,55.9868916 C698.729897,60.3049639 695.045142,62.4927871 690.151326,62.4927871 C685.199937,62.4927871 681.515182,60.3049639 679.039487,55.9868916 C676.851664,52.3021365 675.757752,47.350747 675.757752,41.1327229 C675.757752,34.9146988 676.851664,29.9633092 679.039487,26.2785542 C681.515182,21.9029076 685.199937,19.7726586 690.151326,19.7726586 Z M690.151326,23.8028594 C686.466571,23.8028594 683.818154,25.7603855 682.206073,29.733012 C681.054587,32.4965783 680.478844,36.2964819 680.478844,41.1327229 C680.478844,45.9113896 681.054587,49.7112932 682.206073,52.5324337 C683.818154,56.4474859 686.466571,58.4625863 690.151326,58.4625863 C693.836081,58.4625863 696.484499,56.4474859 698.096579,52.5324337 C699.248065,49.7112932 699.881382,45.9113896 699.881382,41.1327229 C699.881382,36.2964819 699.248065,32.4965783 698.096579,29.733012 C696.484499,25.7603855 693.836081,23.8028594 690.151326,23.8028594 Z M719.053623,20.5786988 C717.67184,22.1332048 716.05976,23.514988 714.102234,24.7816225 C712.144708,25.9331084 710.187182,26.7391486 708.344804,27.2573173 L708.344804,31.9784096 C712.202282,30.8269237 715.426443,28.9845462 718.017286,26.3361285 L718.017286,61.686747 L722.738378,61.686747 L722.738378,20.5786988 L719.053623,20.5786988 Z M744.559037,19.7726586 C749.452852,19.7726586 753.137607,21.9029076 755.670876,26.2785542 C757.8587,29.9633092 758.952611,34.9146988 758.952611,41.1327229 C758.952611,47.350747 757.8587,52.3021365 755.670876,55.9868916 C753.137607,60.3049639 749.452852,62.4927871 744.559037,62.4927871 C739.607647,62.4927871 735.922892,60.3049639 733.447198,55.9868916 C731.259374,52.3021365 730.165463,47.350747 730.165463,41.1327229 C730.165463,34.9146988 731.259374,29.9633092 733.447198,26.2785542 C735.922892,21.9029076 739.607647,19.7726586 744.559037,19.7726586 Z M744.559037,23.8028594 C740.874282,23.8028594 738.225864,25.7603855 736.613784,29.733012 C735.462298,32.4965783 734.886555,36.2964819 734.886555,41.1327229 C734.886555,45.9113896 735.462298,49.7112932 736.613784,52.5324337 C738.225864,56.4474859 740.874282,58.4625863 744.559037,58.4625863 C748.243792,58.4625863 750.89221,56.4474859 752.50429,52.5324337 C753.655776,49.7112932 754.289093,45.9113896 754.289093,41.1327229 C754.289093,36.2964819 753.655776,32.4965783 752.50429,29.733012 C750.89221,25.7603855 748.243792,23.8028594 744.559037,23.8028594 Z M773.461334,20.5786988 C772.079551,22.1332048 770.467471,23.514988 768.509944,24.7816225 C766.552418,25.9331084 764.594892,26.7391486 762.752515,27.2573173 L762.752515,31.9784096 C766.609993,30.8269237 769.834153,28.9845462 772.424997,26.3361285 L772.424997,61.686747 L777.146089,61.686747 L777.146089,20.5786988 L773.461334,20.5786988 Z M798.966748,19.7726586 C803.860563,19.7726586 807.545318,21.9029076 810.078587,26.2785542 C812.26641,29.9633092 813.360322,34.9146988 813.360322,41.1327229 C813.360322,47.350747 812.26641,52.3021365 810.078587,55.9868916 C807.545318,60.3049639 803.860563,62.4927871 798.966748,62.4927871 C794.015358,62.4927871 790.330603,60.3049639 787.854908,55.9868916 C785.667085,52.3021365 784.573173,47.350747 784.573173,41.1327229 C784.573173,34.9146988 785.667085,29.9633092 787.854908,26.2785542 C790.330603,21.9029076 794.015358,19.7726586 798.966748,19.7726586 Z M798.966748,23.8028594 C795.281993,23.8028594 792.633575,25.7603855 791.021495,29.733012 C789.870009,32.4965783 789.294266,36.2964819 789.294266,41.1327229 C789.294266,45.9113896 789.870009,49.7112932 791.021495,52.5324337 C792.633575,56.4474859 795.281993,58.4625863 798.966748,58.4625863 C802.651503,58.4625863 805.29992,56.4474859 806.912001,52.5324337 C808.063487,49.7112932 808.696804,45.9113896 808.696804,41.1327229 C808.696804,36.2964819 808.063487,32.4965783 806.912001,29.733012 C805.29992,25.7603855 802.651503,23.8028594 798.966748,23.8028594 Z M827.869045,20.5786988 C826.487262,22.1332048 824.875181,23.514988 822.917655,24.7816225 C820.960129,25.9331084 819.002603,26.7391486 817.160225,27.2573173 L817.160225,31.9784096 C821.017703,30.8269237 824.241864,28.9845462 826.832707,26.3361285 L826.832707,61.686747 L831.5538,61.686747 L831.5538,20.5786988 L827.869045,20.5786988 Z M853.374458,19.7726586 C858.268274,19.7726586 861.953029,21.9029076 864.486298,26.2785542 C866.674121,29.9633092 867.768033,34.9146988 867.768033,41.1327229 C867.768033,47.350747 866.674121,52.3021365 864.486298,55.9868916 C861.953029,60.3049639 858.268274,62.4927871 853.374458,62.4927871 C848.423069,62.4927871 844.738314,60.3049639 842.262619,55.9868916 C840.074796,52.3021365 838.980884,47.350747 838.980884,41.1327229 C838.980884,34.9146988 840.074796,29.9633092 842.262619,26.2785542 C844.738314,21.9029076 848.423069,19.7726586 853.374458,19.7726586 Z M853.374458,23.8028594 C849.689703,23.8028594 847.041286,25.7603855 845.429205,29.733012 C844.277719,32.4965783 843.701976,36.2964819 843.701976,41.1327229 C843.701976,45.9113896 844.277719,49.7112932 845.429205,52.5324337 C847.041286,56.4474859 849.689703,58.4625863 853.374458,58.4625863 C857.059213,58.4625863 859.707631,56.4474859 861.319711,52.5324337 C862.471197,49.7112932 863.104515,45.9113896 863.104515,41.1327229 C863.104515,36.2964819 862.471197,32.4965783 861.319711,29.733012 C859.707631,25.7603855 857.059213,23.8028594 853.374458,23.8028594 Z M882.276755,20.5786988 C880.894972,22.1332048 879.282892,23.514988 877.325366,24.7816225 C875.36784,25.9331084 873.410314,26.7391486 871.567936,27.2573173 L871.567936,31.9784096 C875.425414,30.8269237 878.649575,28.9845462 881.240418,26.3361285 L881.240418,61.686747 L885.96151,61.686747 L885.96151,20.5786988 L882.276755,20.5786988 Z M907.782169,19.7726586 C912.675984,19.7726586 916.360739,21.9029076 918.894008,26.2785542 C921.081832,29.9633092 922.175743,34.9146988 922.175743,41.1327229 C922.175743,47.350747 921.081832,52.3021365 918.894008,55.9868916 C916.360739,60.3049639 912.675984,62.4927871 907.782169,62.4927871 C902.830779,62.4927871 899.146024,60.3049639 896.67033,55.9868916 C894.482506,52.3021365 893.388595,47.350747 893.388595,41.1327229 C893.388595,34.9146988 894.482506,29.9633092 896.67033,26.2785542 C899.146024,21.9029076 902.830779,19.7726586 907.782169,19.7726586 Z M907.782169,23.8028594 C904.097414,23.8028594 901.448996,25.7603855 899.836916,29.733012 C898.68543,32.4965783 898.109687,36.2964819 898.109687,41.1327229 C898.109687,45.9113896 898.68543,49.7112932 899.836916,52.5324337 C901.448996,56.4474859 904.097414,58.4625863 907.782169,58.4625863 C911.466924,58.4625863 914.115342,56.4474859 915.727422,52.5324337 C916.878908,49.7112932 917.512225,45.9113896 917.512225,41.1327229 C917.512225,36.2964819 916.878908,32.4965783 915.727422,29.733012 C914.115342,25.7603855 911.466924,23.8028594 907.782169,23.8028594 Z M936.684466,20.5786988 C935.302683,22.1332048 933.690603,23.514988 931.733077,24.7816225 C929.77555,25.9331084 927.818024,26.7391486 925.975647,27.2573173 L925.975647,31.9784096 C929.833125,30.8269237 933.057285,28.9845462 935.648129,26.3361285 L935.648129,61.686747 L940.369221,61.686747 L940.369221,20.5786988 L936.684466,20.5786988 Z M962.18988,19.7726586 C967.083695,19.7726586 970.76845,21.9029076 973.301719,26.2785542 C975.489542,29.9633092 976.583454,34.9146988 976.583454,41.1327229 C976.583454,47.350747 975.489542,52.3021365 973.301719,55.9868916 C970.76845,60.3049639 967.083695,62.4927871 962.18988,62.4927871 C957.23849,62.4927871 953.553735,60.3049639 951.07804,55.9868916 C948.890217,52.3021365 947.796305,47.350747 947.796305,41.1327229 C947.796305,34.9146988 948.890217,29.9633092 951.07804,26.2785542 C953.553735,21.9029076 957.23849,19.7726586 962.18988,19.7726586 Z M962.18988,23.8028594 C958.505125,23.8028594 955.856707,25.7603855 954.244627,29.733012 C953.093141,32.4965783 952.517398,36.2964819 952.517398,41.1327229 C952.517398,45.9113896 953.093141,49.7112932 954.244627,52.5324337 C955.856707,56.4474859 958.505125,58.4625863 962.18988,58.4625863 C965.874635,58.4625863 968.523052,56.4474859 970.135133,52.5324337 C971.286619,49.7112932 971.919936,45.9113896 971.919936,41.1327229 C971.919936,36.2964819 971.286619,32.4965783 970.135133,29.733012 C968.523052,25.7603855 965.874635,23.8028594 962.18988,23.8028594 Z M991.092177,20.5786988 C989.710394,22.1332048 988.098313,23.514988 986.140787,24.7816225 C984.183261,25.9331084 982.225735,26.7391486 980.383358,27.2573173 L980.383358,31.9784096 C984.240835,30.8269237 987.464996,28.9845462 990.055839,26.3361285 L990.055839,61.686747 L994.776932,61.686747 L994.776932,20.5786988 L991.092177,20.5786988 Z" id="01010101010101010101" fill="#A9B9C6"></path>
                <path d="M46.0594378,381.668241 C50.953253,381.668241 54.638008,383.79849 57.1712771,388.174137 C59.3591004,391.858892 60.453012,396.810281 60.453012,403.028305 C60.453012,409.246329 59.3591004,414.197719 57.1712771,417.882474 C54.638008,422.200546 50.953253,424.388369 46.0594378,424.388369 C41.1080482,424.388369 37.4232932,422.200546 34.9475984,417.882474 C32.7597751,414.197719 31.6658635,409.246329 31.6658635,403.028305 C31.6658635,396.810281 32.7597751,391.858892 34.9475984,388.174137 C37.4232932,383.79849 41.1080482,381.668241 46.0594378,381.668241 Z M46.0594378,385.698442 C42.3746827,385.698442 39.7262651,387.655968 38.1141847,391.628594 C36.9626988,394.392161 36.3869558,398.192064 36.3869558,403.028305 C36.3869558,407.806972 36.9626988,411.606876 38.1141847,414.428016 C39.7262651,418.343068 42.3746827,420.358169 46.0594378,420.358169 C49.7441928,420.358169 52.3926104,418.343068 54.0046908,414.428016 C55.1561767,411.606876 55.789494,407.806972 55.789494,403.028305 C55.789494,398.192064 55.1561767,394.392161 54.0046908,391.628594 C52.3926104,387.655968 49.7441928,385.698442 46.0594378,385.698442 Z M74.9617349,382.474281 C73.5799517,384.028787 71.9678714,385.41057 70.0103453,386.677205 C68.0528192,387.828691 66.0952931,388.634731 64.2529156,389.1529 L64.2529156,393.873992 C68.1103935,392.722506 71.3345541,390.880129 73.9253975,388.231711 L73.9253975,423.582329 L78.6464899,423.582329 L78.6464899,382.474281 L74.9617349,382.474281 Z M100.467148,381.668241 C105.360964,381.668241 109.045719,383.79849 111.578988,388.174137 C113.766811,391.858892 114.860723,396.810281 114.860723,403.028305 C114.860723,409.246329 113.766811,414.197719 111.578988,417.882474 C109.045719,422.200546 105.360964,424.388369 100.467148,424.388369 C95.5157589,424.388369 91.8310039,422.200546 89.3553091,417.882474 C87.1674858,414.197719 86.0735741,409.246329 86.0735741,403.028305 C86.0735741,396.810281 87.1674858,391.858892 89.3553091,388.174137 C91.8310039,383.79849 95.5157589,381.668241 100.467148,381.668241 Z M100.467148,385.698442 C96.7823934,385.698442 94.1339757,387.655968 92.5218954,391.628594 C91.3704095,394.392161 90.7946665,398.192064 90.7946665,403.028305 C90.7946665,407.806972 91.3704095,411.606876 92.5218954,414.428016 C94.1339757,418.343068 96.7823934,420.358169 100.467148,420.358169 C104.151903,420.358169 106.800321,418.343068 108.412401,414.428016 C109.563887,411.606876 110.197205,407.806972 110.197205,403.028305 C110.197205,398.192064 109.563887,394.392161 108.412401,391.628594 C106.800321,387.655968 104.151903,385.698442 100.467148,385.698442 Z M129.369446,382.474281 C127.987662,384.028787 126.375582,385.41057 124.418056,386.677205 C122.46053,387.828691 120.503004,388.634731 118.660626,389.1529 L118.660626,393.873992 C122.518104,392.722506 125.742265,390.880129 128.333108,388.231711 L128.333108,423.582329 L133.054201,423.582329 L133.054201,382.474281 L129.369446,382.474281 Z M154.874859,381.668241 C159.768674,381.668241 163.453429,383.79849 165.986698,388.174137 C168.174522,391.858892 169.268433,396.810281 169.268433,403.028305 C169.268433,409.246329 168.174522,414.197719 165.986698,417.882474 C163.453429,422.200546 159.768674,424.388369 154.874859,424.388369 C149.92347,424.388369 146.238715,422.200546 143.76302,417.882474 C141.575196,414.197719 140.481285,409.246329 140.481285,403.028305 C140.481285,396.810281 141.575196,391.858892 143.76302,388.174137 C146.238715,383.79849 149.92347,381.668241 154.874859,381.668241 Z M154.874859,385.698442 C151.190104,385.698442 148.541686,387.655968 146.929606,391.628594 C145.77812,394.392161 145.202377,398.192064 145.202377,403.028305 C145.202377,407.806972 145.77812,411.606876 146.929606,414.428016 C148.541686,418.343068 151.190104,420.358169 154.874859,420.358169 C158.559614,420.358169 161.208032,418.343068 162.820112,414.428016 C163.971598,411.606876 164.604915,407.806972 164.604915,403.028305 C164.604915,398.192064 163.971598,394.392161 162.820112,391.628594 C161.208032,387.655968 158.559614,385.698442 154.874859,385.698442 Z M183.777156,382.474281 C182.395373,384.028787 180.783293,385.41057 178.825767,386.677205 C176.868241,387.828691 174.910714,388.634731 173.068337,389.1529 L173.068337,393.873992 C176.925815,392.722506 180.149976,390.880129 182.740819,388.231711 L182.740819,423.582329 L187.461911,423.582329 L187.461911,382.474281 L183.777156,382.474281 Z M209.28257,381.668241 C214.176385,381.668241 217.86114,383.79849 220.394409,388.174137 C222.582232,391.858892 223.676144,396.810281 223.676144,403.028305 C223.676144,409.246329 222.582232,414.197719 220.394409,417.882474 C217.86114,422.200546 214.176385,424.388369 209.28257,424.388369 C204.33118,424.388369 200.646425,422.200546 198.17073,417.882474 C195.982907,414.197719 194.888996,409.246329 194.888996,403.028305 C194.888996,396.810281 195.982907,391.858892 198.17073,388.174137 C200.646425,383.79849 204.33118,381.668241 209.28257,381.668241 Z M209.28257,385.698442 C205.597815,385.698442 202.949397,387.655968 201.337317,391.628594 C200.185831,394.392161 199.610088,398.192064 199.610088,403.028305 C199.610088,407.806972 200.185831,411.606876 201.337317,414.428016 C202.949397,418.343068 205.597815,420.358169 209.28257,420.358169 C212.967325,420.358169 215.615742,418.343068 217.227823,414.428016 C218.379309,411.606876 219.012626,407.806972 219.012626,403.028305 C219.012626,398.192064 218.379309,394.392161 217.227823,391.628594 C215.615742,387.655968 212.967325,385.698442 209.28257,385.698442 Z M238.184867,382.474281 C236.803084,384.028787 235.191003,385.41057 233.233477,386.677205 C231.275951,387.828691 229.318425,388.634731 227.476048,389.1529 L227.476048,393.873992 C231.333526,392.722506 234.557686,390.880129 237.14853,388.231711 L237.14853,423.582329 L241.869622,423.582329 L241.869622,382.474281 L238.184867,382.474281 Z M263.69028,381.668241 C268.584096,381.668241 272.268851,383.79849 274.80212,388.174137 C276.989943,391.858892 278.083855,396.810281 278.083855,403.028305 C278.083855,409.246329 276.989943,414.197719 274.80212,417.882474 C272.268851,422.200546 268.584096,424.388369 263.69028,424.388369 C258.738891,424.388369 255.054136,422.200546 252.578441,417.882474 C250.390618,414.197719 249.296706,409.246329 249.296706,403.028305 C249.296706,396.810281 250.390618,391.858892 252.578441,388.174137 C255.054136,383.79849 258.738891,381.668241 263.69028,381.668241 Z M263.69028,385.698442 C260.005525,385.698442 257.357108,387.655968 255.745027,391.628594 C254.593542,394.392161 254.017799,398.192064 254.017799,403.028305 C254.017799,407.806972 254.593542,411.606876 255.745027,414.428016 C257.357108,418.343068 260.005525,420.358169 263.69028,420.358169 C267.375036,420.358169 270.023453,418.343068 271.635533,414.428016 C272.787019,411.606876 273.420337,407.806972 273.420337,403.028305 C273.420337,398.192064 272.787019,394.392161 271.635533,391.628594 C270.023453,387.655968 267.375036,385.698442 263.69028,385.698442 Z M292.592578,382.474281 C291.210794,384.028787 289.598714,385.41057 287.641188,386.677205 C285.683662,387.828691 283.726136,388.634731 281.883758,389.1529 L281.883758,393.873992 C285.741236,392.722506 288.965397,390.880129 291.55624,388.231711 L291.55624,423.582329 L296.277333,423.582329 L296.277333,382.474281 L292.592578,382.474281 Z M318.097991,381.668241 C322.991806,381.668241 326.676561,383.79849 329.209831,388.174137 C331.397654,391.858892 332.491565,396.810281 332.491565,403.028305 C332.491565,409.246329 331.397654,414.197719 329.209831,417.882474 C326.676561,422.200546 322.991806,424.388369 318.097991,424.388369 C313.146602,424.388369 309.461847,422.200546 306.986152,417.882474 C304.798329,414.197719 303.704417,409.246329 303.704417,403.028305 C303.704417,396.810281 304.798329,391.858892 306.986152,388.174137 C309.461847,383.79849 313.146602,381.668241 318.097991,381.668241 Z M318.097991,385.698442 C314.413236,385.698442 311.764818,387.655968 310.152738,391.628594 C309.001252,394.392161 308.425509,398.192064 308.425509,403.028305 C308.425509,407.806972 309.001252,411.606876 310.152738,414.428016 C311.764818,418.343068 314.413236,420.358169 318.097991,420.358169 C321.782746,420.358169 324.431164,418.343068 326.043244,414.428016 C327.19473,411.606876 327.828047,407.806972 327.828047,403.028305 C327.828047,398.192064 327.19473,394.392161 326.043244,391.628594 C324.431164,387.655968 321.782746,385.698442 318.097991,385.698442 Z M347.000288,382.474281 C345.618505,384.028787 344.006425,385.41057 342.048899,386.677205 C340.091373,387.828691 338.133847,388.634731 336.291469,389.1529 L336.291469,393.873992 C340.148947,392.722506 343.373108,390.880129 345.963951,388.231711 L345.963951,423.582329 L350.685043,423.582329 L350.685043,382.474281 L347.000288,382.474281 Z M372.505702,381.668241 C377.399517,381.668241 381.084272,383.79849 383.617541,388.174137 C385.805364,391.858892 386.899276,396.810281 386.899276,403.028305 C386.899276,409.246329 385.805364,414.197719 383.617541,417.882474 C381.084272,422.200546 377.399517,424.388369 372.505702,424.388369 C367.554312,424.388369 363.869557,422.200546 361.393862,417.882474 C359.206039,414.197719 358.112128,409.246329 358.112128,403.028305 C358.112128,396.810281 359.206039,391.858892 361.393862,388.174137 C363.869557,383.79849 367.554312,381.668241 372.505702,381.668241 Z M372.505702,385.698442 C368.820947,385.698442 366.172529,387.655968 364.560449,391.628594 C363.408963,394.392161 362.83322,398.192064 362.83322,403.028305 C362.83322,407.806972 363.408963,411.606876 364.560449,414.428016 C366.172529,418.343068 368.820947,420.358169 372.505702,420.358169 C376.190457,420.358169 378.838875,418.343068 380.450955,414.428016 C381.602441,411.606876 382.235758,407.806972 382.235758,403.028305 C382.235758,398.192064 381.602441,394.392161 380.450955,391.628594 C378.838875,387.655968 376.190457,385.698442 372.505702,385.698442 Z M401.407999,382.474281 C400.026216,384.028787 398.414136,385.41057 396.456609,386.677205 C394.499083,387.828691 392.541557,388.634731 390.69918,389.1529 L390.69918,393.873992 C394.556658,392.722506 397.780818,390.880129 400.371662,388.231711 L400.371662,423.582329 L405.092754,423.582329 L405.092754,382.474281 L401.407999,382.474281 Z" id="01010101010101-copy" fill="#A9B9C6"></path>
            </g>
        </g>
    </g>
</svg>