<?xml version="1.0" encoding="UTF-8" standalone="no"?>
<svg width="1024px" height="1024px" viewBox="0 0 1024 1024" version="1.1" xmlns="http://www.w3.org/2000/svg" xmlns:xlink="http://www.w3.org/1999/xlink">
    <!-- Generator: Sketch 46.2 (44496) - http://www.bohemiancoding.com/sketch -->
    <title>Workflow</title>
    <desc>Created with Sketch.</desc>
    <defs>
        <filter x="-8.5%" y="-11.3%" width="117.0%" height="122.7%" filterUnits="objectBoundingBox" id="filter-1">
            <feGaussianBlur stdDeviation="21.8221507" in="SourceGraphic"></feGaussianBlur>
        </filter>
    </defs>
    <g id="Page-1" stroke="none" stroke-width="1" fill="none" fill-rule="evenodd">
        <g id="Workflow">
            <g id="Group-46" transform="translate(0.000000, 171.000000)">
                <g id="Group-15-Copy-3">
                    <path d="M10.5025641,0 L829.702564,0 C835.50297,-1.06551729e-15 840.205128,4.70215811 840.205128,10.5025641 L840.205128,619.651282 C840.205128,625.451688 835.50297,630.153846 829.702564,630.153846 L10.5025641,630.153846 C4.70215811,630.153846 7.10344863e-16,625.451688 0,619.651282 L0,10.5025641 C-7.10344863e-16,4.70215811 4.70215811,1.06551729e-15 10.5025641,0 Z" id="Rectangle-51" fill="#D7E1E7" fill-rule="nonzero"></path>
                    <path d="M10.5025641,5.25128205 C7.60236111,5.25128205 5.25128205,7.60236111 5.25128205,10.5025641 L5.25128205,619.651282 C5.25128205,622.551485 7.60236111,624.902564 10.5025641,624.902564 L829.702564,624.902564 C832.602767,624.902564 834.953846,622.551485 834.953846,619.651282 L834.953846,10.5025641 C834.953846,7.60236111 832.602767,5.25128205 829.702564,5.25128205 L10.5025641,5.25128205 Z" id="Path" fill="#FFFFFF"></path>
                    <path d="M10.5025641,0 L189.046154,0 L189.046154,630.153846 L10.5025641,630.153846 C4.70215811,630.153846 7.10344863e-16,625.451688 0,619.651282 L0,10.5025641 C-7.10344863e-16,4.70215811 4.70215811,1.06551729e-15 10.5025641,0 Z" id="Rectangle-5" fill="#3384E8"></path>
                    <rect id="Rectangle" fill="#D8EAF9" x="325.579487" y="36.7589744" width="189.046154" height="26.2564103" rx="6"></rect>
                    <path d="M331.579487,36.7589744 L420.102564,36.7589744 L420.102564,63.0153846 L331.579487,63.0153846 L331.579487,63.0153846 C328.265779,63.0153846 325.579487,60.3290931 325.579487,57.0153846 L325.579487,42.7589744 L325.579487,42.7589744 C325.579487,39.4452659 328.265779,36.7589744 331.579487,36.7589744 Z" id="Rectangle" fill="#409EF3"></path>
                    <rect id="Rectangle" fill="#E1E8EE" opacity="0.747901119" filter="url(#filter-1)" x="236" y="133" width="768" height="578"></rect>
                    <g id="Group-9" transform="translate(236.307692, 105.025641)">
                        <polygon id="Rectangle-80" fill="#D7E1E7" fill-rule="nonzero" points="0 0 787.692308 0 787.692308 577.641026 0 577.641026"></polygon>
                        <polygon id="Path" fill="#FFFFFF" points="5.25128205 5.25128205 5.25128205 572.389744 782.441026 572.389744 782.441026 5.25128205"></polygon>
                        <g id="Group-10" transform="translate(31.507692, 5.251282)" fill="#F4F8FC">
                            <rect id="Rectangle-2" x="0" y="0" width="5.25128205" height="567.138462"></rect>
                            <rect id="Rectangle-2-Copy" x="36.7589744" y="0" width="5.25128205" height="567.138462"></rect>
                            <rect id="Rectangle-2-Copy-2" x="73.5179487" y="0" width="5.25128205" height="567.138462"></rect>
                            <rect id="Rectangle-2-Copy-3" x="110.276923" y="0" width="5.25128205" height="567.138462"></rect>
                            <rect id="Rectangle-2-Copy-4" x="147.035897" y="0" width="5.25128205" height="567.138462"></rect>
                            <rect id="Rectangle-2-Copy-5" x="183.794872" y="0" width="5.25128205" height="567.138462"></rect>
                            <rect id="Rectangle-2-Copy-6" x="220.553846" y="0" width="5.25128205" height="567.138462"></rect>
                            <rect id="Rectangle-2-Copy-7" x="257.312821" y="0" width="5.25128205" height="567.138462"></rect>
                            <rect id="Rectangle-2-Copy-8" x="294.071795" y="0" width="5.25128205" height="567.138462"></rect>
                            <rect id="Rectangle-2-Copy-9" x="330.830769" y="0" width="5.25128205" height="567.138462"></rect>
                            <rect id="Rectangle-2-Copy-10" x="367.589744" y="0" width="5.25128205" height="567.138462"></rect>
                            <rect id="Rectangle-2-Copy-11" x="404.348718" y="0" width="5.25128205" height="567.138462"></rect>
                            <rect id="Rectangle-2-Copy-12" x="441.107692" y="0" width="5.25128205" height="567.138462"></rect>
                            <rect id="Rectangle-2-Copy-13" x="477.866667" y="0" width="5.25128205" height="567.138462"></rect>
                            <rect id="Rectangle-2-Copy-14" x="514.625641" y="0" width="5.25128205" height="567.138462"></rect>
                            <rect id="Rectangle-2-Copy-15" x="551.384615" y="0" width="5.25128205" height="567.138462"></rect>
                            <rect id="Rectangle-2-Copy-16" x="588.14359" y="0" width="5.25128205" height="567.138462"></rect>
                            <rect id="Rectangle-2-Copy-17" x="624.902564" y="0" width="5.25128205" height="567.138462"></rect>
                            <rect id="Rectangle-2-Copy-18" x="661.661538" y="0" width="5.25128205" height="567.138462"></rect>
                            <rect id="Rectangle-2-Copy-19" x="698.420513" y="0" width="5.25128205" height="567.138462"></rect>
                            <rect id="Rectangle-2-Copy-20" x="735.179487" y="0" width="5.25128205" height="567.138462"></rect>
                        </g>
                        <g id="Group-11" transform="translate(5.251282, 31.507692)" fill="#F4F8FC">
                            <rect id="Rectangle-3" x="0" y="0" width="777.189744" height="5.25128205"></rect>
                            <rect id="Rectangle-3-Copy" x="0" y="36.7589744" width="777.189744" height="5.25128205"></rect>
                            <rect id="Rectangle-3-Copy-2" x="0" y="73.5179487" width="777.189744" height="5.25128205"></rect>
                            <rect id="Rectangle-3-Copy-3" x="0" y="110.276923" width="777.189744" height="5.25128205"></rect>
                            <rect id="Rectangle-3-Copy-4" x="0" y="147.035897" width="777.189744" height="5.25128205"></rect>
                            <rect id="Rectangle-3-Copy-5" x="0" y="183.794872" width="777.189744" height="5.25128205"></rect>
                            <rect id="Rectangle-3-Copy-6" x="0" y="220.553846" width="777.189744" height="5.25128205"></rect>
                            <rect id="Rectangle-3-Copy-7" x="0" y="257.312821" width="777.189744" height="5.25128205"></rect>
                            <rect id="Rectangle-3-Copy-8" x="0" y="294.071795" width="777.189744" height="5.25128205"></rect>
                            <rect id="Rectangle-3-Copy-9" x="0" y="330.830769" width="777.189744" height="5.25128205"></rect>
                            <rect id="Rectangle-3-Copy-10" x="0" y="367.589744" width="777.189744" height="5.25128205"></rect>
                            <rect id="Rectangle-3-Copy-11" x="0" y="404.348718" width="777.189744" height="5.25128205"></rect>
                            <rect id="Rectangle-3-Copy-12" x="0" y="441.107692" width="777.189744" height="5.25128205"></rect>
                            <rect id="Rectangle-3-Copy-13" x="0" y="477.866667" width="777.189744" height="5.25128205"></rect>
                            <rect id="Rectangle-3-Copy-14" x="0" y="514.625641" width="777.189744" height="5.25128205"></rect>
                        </g>
                        <g id="Group-8" transform="translate(204.800000, 73.517949)">
                            <g id="Group-2">
                                <rect id="Rectangle-8" fill="#409EF3" x="0" y="0" width="115.528205" height="115.528205" rx="2"></rect>
                                <g id="代码-3" transform="translate(21.005128, 26.256410)" fill-rule="nonzero" fill="#FFFFFF">
                                    <polygon id="Path-18" points="22.8617368 17.6104547 19.1485196 13.8972376 1.5380649 31.5076923 19.1485196 49.118147 22.8617368 45.4049299 8.9644992 31.5076923"></polygon>
                                    <polygon id="Path-18-Copy" transform="translate(64.712721, 31.507692) scale(-1, 1) translate(-64.712721, -31.507692) " points="75.3745573 17.6104547 71.6613401 13.8972376 54.0508854 31.5076923 71.6613401 49.118147 75.3745573 45.4049299 61.4773197 31.5076923"></polygon>
                                    <polygon id="Path-19" points="39.4356036 4.73635148 28.9330395 57.249172 34.0823452 58.2790331 44.5849093 5.76621262"></polygon>
                                </g>
                            </g>
                            <g id="Group-5" transform="translate(262.564103, 78.769231)">
                                <rect id="Rectangle-8-Copy-4" fill="#72C4B9" x="0" y="0" width="115.528205" height="115.528205" rx="2"></rect>
                                <g id="代码-3-copy" transform="translate(21.005128, 26.256410)" fill-rule="nonzero" fill="#FFFFFF">
                                    <polygon id="Path-18" points="22.8617368 17.6104547 19.1485196 13.8972376 1.5380649 31.5076923 19.1485196 49.118147 22.8617368 45.4049299 8.9644992 31.5076923"></polygon>
                                    <polygon id="Path-18-Copy" transform="translate(64.712721, 31.507692) scale(-1, 1) translate(-64.712721, -31.507692) " points="75.3745573 17.6104547 71.6613401 13.8972376 54.0508854 31.5076923 71.6613401 49.118147 75.3745573 45.4049299 61.4773197 31.5076923"></polygon>
                                    <polygon id="Path-19" points="39.4356036 4.73635148 28.9330395 57.249172 34.0823452 58.2790331 44.5849093 5.76621262"></polygon>
                                </g>
                            </g>
                            <g id="Group-3" transform="translate(0.000000, 157.538462)">
                                <rect id="Rectangle-8-Copy-2" fill="#409EF3" x="0" y="0" width="115.528205" height="115.528205" rx="2"></rect>
                                <g id="代码-3" transform="translate(21.005128, 26.256410)" fill-rule="nonzero" fill="#FFFFFF">
                                    <polygon id="Path-18" points="22.8617368 17.6104547 19.1485196 13.8972376 1.5380649 31.5076923 19.1485196 49.118147 22.8617368 45.4049299 8.9644992 31.5076923"></polygon>
                                    <polygon id="Path-18-Copy" transform="translate(64.712721, 31.507692) scale(-1, 1) translate(-64.712721, -31.507692) " points="75.3745573 17.6104547 71.6613401 13.8972376 54.0508854 31.5076923 71.6613401 49.118147 75.3745573 45.4049299 61.4773197 31.5076923"></polygon>
                                    <polygon id="Path-19" points="39.4356036 4.73635148 28.9330395 57.249172 34.0823452 58.2790331 44.5849093 5.76621262"></polygon>
                                </g>
                            </g>
                            <polygon id="Rectangle-17" fill="#409EF3" fill-rule="nonzero" points="191.671795 49.8871795 191.671795 217.928205 115.528205 217.928205 115.528205 223.179487 196.923077 223.179487 196.923077 44.6358974 115.528205 44.6358974 115.528205 49.8871795"></polygon>
                            <g id="Group-7" transform="translate(262.564103, 236.307692)">
                                <rect id="Rectangle-8-Copy-5" fill="#72C4B9" x="0" y="0" width="115.528205" height="115.528205" rx="2"></rect>
                                <g id="代码-3-copy-2" transform="translate(21.005128, 26.256410)" fill-rule="nonzero" fill="#FFFFFF">
                                    <polygon id="Path-18" points="22.8617368 17.6104547 19.1485196 13.8972376 1.5380649 31.5076923 19.1485196 49.118147 22.8617368 45.4049299 8.9644992 31.5076923"></polygon>
                                    <polygon id="Path-18-Copy" transform="translate(64.712721, 31.507692) scale(-1, 1) translate(-64.712721, -31.507692) " points="75.3745573 17.6104547 71.6613401 13.8972376 54.0508854 31.5076923 71.6613401 49.118147 75.3745573 45.4049299 61.4773197 31.5076923"></polygon>
                                    <polygon id="Path-19" points="39.4356036 4.73635148 28.9330395 57.249172 34.0823452 58.2790331 44.5849093 5.76621262"></polygon>
                                </g>
                            </g>
                            <g id="Group-4" transform="translate(0.000000, 315.076923)">
                                <rect id="Rectangle-8-Copy-3" fill="#409EF3" x="0" y="0" width="115.528205" height="115.528205" rx="2"></rect>
                                <g id="代码-3" transform="translate(21.005128, 26.256410)" fill-rule="nonzero" fill="#FFFFFF">
                                    <polygon id="Path-18" points="22.8617368 17.6104547 19.1485196 13.8972376 1.5380649 31.5076923 19.1485196 49.118147 22.8617368 45.4049299 8.9644992 31.5076923"></polygon>
                                    <polygon id="Path-18-Copy" transform="translate(64.712721, 31.507692) scale(-1, 1) translate(-64.712721, -31.507692) " points="75.3745573 17.6104547 71.6613401 13.8972376 54.0508854 31.5076923 71.6613401 49.118147 75.3745573 45.4049299 61.4773197 31.5076923"></polygon>
                                    <polygon id="Path-19" points="39.4356036 4.73635148 28.9330395 57.249172 34.0823452 58.2790331 44.5849093 5.76621262"></polygon>
                                </g>
                            </g>
                            <polygon id="Path-16" fill="#409EF3" fill-rule="nonzero" points="194.297436 133.907692 262.564103 133.907692 262.564103 128.65641 194.297436 128.65641"></polygon>
                            <polygon id="Path-17" fill="#72C4B9" fill-rule="nonzero" points="115.528205 370.215385 115.528205 375.466667 196.923077 375.466667 196.923077 296.697436 262.564103 296.697436 262.564103 291.446154 191.671795 291.446154 191.671795 370.215385"></polygon>
                        </g>
                    </g>
                </g>
                <g id="Group-29" transform="translate(42.010256, 456.861538)" fill-rule="nonzero" fill="#FFFFFF">
                    <g id="workflow-">
                        <g id="Group" transform="translate(6.892308, 0.000000)">
                            <rect id="Rectangle-path" x="89.4897231" y="0.144738462" width="13.7501538" height="48.1220923"></rect>
                            <polygon id="Shape" points="55.3107692 17.3755077 0.317046154 17.3755077 0.317046154 31.0291692 55.3107692 31.0291692 55.3107692 44.6828308 82.6180923 24.2057846 55.3107692 3.72184615"></polygon>
                        </g>
                        <g id="Group" transform="translate(0.000000, 55.138462)">
                            <rect id="Rectangle-path" x="0.144738462" y="6.87163077" width="13.7501538" height="48.1220923"></rect>
                            <polygon id="Shape" points="48.2668308 37.7629538 103.260554 37.7629538 103.260554 24.1092923 48.2668308 24.1092923 48.2668308 10.4556308 20.9526154 30.9326769 48.2668308 51.4166154"></polygon>
                        </g>
                    </g>
                </g>
                <rect id="Rectangle-84" fill="#D8EAF9" opacity="0.5" x="73.5179487" y="120.779487" width="52.5128205" height="52.5128205" rx="2"></rect>
                <rect id="Rectangle-84-Copy" fill="#D8EAF9" opacity="0.5" x="73.5179487" y="220.553846" width="52.5128205" height="52.5128205" rx="2"></rect>
                <rect id="Rectangle-84-Copy-2" fill="#D8EAF9" opacity="0.5" x="73.5179487" y="320.328205" width="52.5128205" height="52.5128205" rx="2"></rect>
            </g>
        </g>
    </g>
</svg>